<?xml version="1.0" encoding="UTF-8"?>
<svg id="Layer_2" data-name="Layer 2" xmlns="http://www.w3.org/2000/svg" viewBox="0 0 50.23 415.56">
  <defs>
    <style>
      .cls-1 {
        fill: #adadad;
        font-family: Hind-Medium, Hind;
        font-size: 9px;
        font-weight: 500;
      }

      .cls-2 {
        fill: none;
        stroke: #383838;
        stroke-miterlimit: 10;
        stroke-width: 1.5px;
      }
    </style>
  </defs>
  <g id="Layer_1-2" data-name="Layer 1">
    <g id="Timeline1">
      <g>
        <line class="cls-2" x1="24.09" y1="50.63" x2="50.23" y2="50.63"/>
        <line class="cls-2" x1="24.09" y1="5.76" x2="50.23" y2="5.76"/>
        <line class="cls-2" x1="24.09" y1="274.98" x2="50.23" y2="274.98"/>
        <line class="cls-2" x1="24.09" y1="230.11" x2="50.23" y2="230.11"/>
        <line class="cls-2" x1="24.09" y1="185.24" x2="50.23" y2="185.24"/>
        <line class="cls-2" x1="24.09" y1="140.37" x2="50.23" y2="140.37"/>
        <line class="cls-2" x1="24.09" y1="95.5" x2="50.23" y2="95.5"/>
        <line class="cls-2" x1="24.09" y1="319.85" x2="50.23" y2="319.85"/>
        <line class="cls-2" x1="24.09" y1="364.72" x2="50.23" y2="364.72"/>
        <line class="cls-2" x1="37.16" y1="5.76" x2="37.16" y2="409.59"/>
        <line class="cls-2" x1="24.09" y1="409.59" x2="50.23" y2="409.59"/>
      </g>
      <g>
        <text class="cls-1" transform="translate(0 7.56)"><tspan x="0" y="0">2014</tspan></text>
        <text class="cls-1" transform="translate(.05 52.43)"><tspan x="0" y="0">2015</tspan></text>
        <text class="cls-1" transform="translate(.02 97.3)"><tspan x="0" y="0">2016</tspan></text>
        <text class="cls-1" transform="translate(0 142.17)"><tspan x="0" y="0">2017</tspan></text>
        <text class="cls-1" transform="translate(.03 187.04)"><tspan x="0" y="0">2018</tspan></text>
        <text class="cls-1" transform="translate(0 231.91)"><tspan x="0" y="0">2019</tspan></text>
        <text class="cls-1" transform="translate(.1 276.78)"><tspan x="0" y="0">2020</tspan></text>
        <text class="cls-1" transform="translate(.03 321.65)"><tspan x="0" y="0">2021</tspan></text>
        <text class="cls-1" transform="translate(.09 366.52)"><tspan x="0" y="0">2022</tspan></text>
        <text class="cls-1" transform="translate(.08 411.39)"><tspan x="0" y="0">2023</tspan></text>
      </g>
    </g>
  </g>
</svg>