<svg id="Layer_1" data-name="Layer 1" xmlns="http://www.w3.org/2000/svg" width="1233.65" height="393.76" viewBox="0 0 1233.65 393.76">
  <defs>
    <style>
      .cls-1 {
        fill: #d21c1e;
      }

      .cls-2 {
        fill: #fff;
      }

      .cls-3 {
        fill: #e37830;
      }
    </style>
  </defs>
  <g>
    <path class="cls-1" d="M11.65,44.39C14.37,42.87,92,21.64,140.07,17.52c87.37-7.49,131.46-5,173.41-1.65C379.56,21.2,438.37,29,474.69,42.62c29,10.91,74.91,34.48,91,48.49a112,112,0,0,0,49.91,25.29,115.28,115.28,0,0,0,47.29-.36c12.58-2.71,21.74-6.88,47.57-21.05,25-13.71,36.47-22.42,50.62-28.89C816.57,40.73,916.74,32,982.2,30.6c142.7-3.12,189.19,19,210.5,24.94,13.42,3.75,36.87,10.41,39.89,13.83,2.86,3.26-.64,23.75-4,31.47-3.31,7.51-9.45,8.69-15.94,13.58-16.68,12.58-20.72,32.85-24.27,47-8,32-27.35,87.33-43.92,118.62-7.22,13.64-37.72,69.4-98.79,95.25-25.88,10.95-48.36,12.76-83.94,15.64-27.19,2.19-63.6,4.52-96.07,1.19-34.11-3.5-66.66-14.93-96.55-37.23-44.69-33.36-69.29-99.21-74.79-117.73-10.73-36.13-11.42-43.7-18.53-52-17.19-20-51.92-21.42-73.79-6.89-18.54,12.31-20.89,32.06-29.32,56.75-19.91,58.33-58.06,98.34-75.12,113.29-51,44.7-118.39,44.86-173.26,45-33.42.08-77-.3-125.78-24.32a238.64,238.64,0,0,1-76.06-59.13C107.52,292.32,80.64,236,61.2,171.15c-5.19-17.31-10.72-46-15.49-57.35-6.1-14.55-24-18.35-32.64-27.52C9.09,82.05,8.84,46,11.65,44.39Z"/>
    <path class="cls-2" d="M98.86,210.8c-4.35-14-16.5-72.42-10.57-101.36,1.83-8.93,5.49-25.92,17.61-40.49,18.75-22.55,47.76-27.28,70-29.94,53-6.33,103.82-5.21,235,11.64a271.51,271.51,0,0,1,85.71,24.77C531,92.07,542,107,544.72,110.86c17.43,24.74,16.41,52.59,15.48,71.14-1.84,36.84-15.79,102-70.92,148.81-57.74,49-125.07,47.8-164.81,47.08-38-.69-120.68-3-175-64.21C130.18,292,108.52,242,98.86,210.8Z"/>
    <path class="cls-2" d="M817.75,361.41c-13.84-5.73-32.29-12.89-54.69-35.94-30.56-31.45-40.25-67.94-46.93-101.6-6.38-32.12-10-59,1.6-84.47,10.9-24,30.56-37.71,40-44.28,21.41-14.9,41.74-20,56.47-23.39A921.61,921.61,0,0,1,971.11,50.16s35.15-1.51,119.11,7a78,78,0,0,1,20.13,4.7c6,2.28,25.79,10.09,38,30.55,6.76,11.3,8.38,21.7,9.93,31.65a123.45,123.45,0,0,1,.55,32.52C1150,240,1107.7,300.46,1107.7,300.46c-13.67,17.91-29,35.64-53.86,50-19.36,11.2-28.57,13.44-58.38,19.42-31.19,6.27-72.5,7.17-123.7,5C861.49,374.5,838.67,370.07,817.75,361.41Z"/>
  </g>
  <g>
    <g>
      <path class="cls-2" d="M141.36,149.22l5.53-5.72c3,4.17,6.85,6.29,10.6,6.29,6.36,0,9.39-3,9.39-10.9v-26.5H145.76v-7.82h30.48v35.09c0,10-4.73,18.22-18.47,18.22A19.47,19.47,0,0,1,141.36,149.22Z"/>
      <path class="cls-2" d="M188.08,137.33c0-13.13,9.37-20.66,19.73-20.66s19.73,7.53,19.73,20.66-9.38,20.55-19.73,20.55S188.08,150.36,188.08,137.33Zm30,0c0-7.9-3.84-13.11-10.25-13.11s-10.26,5.21-10.26,13.11,3.84,13,10.26,13S218.06,145.18,218.06,137.33Z"/>
      <path class="cls-2" d="M249.84,142.62V107.76H236.73v-7.33h22.36V143.1c0,5.25,3.1,7.24,7.07,7.24a17.19,17.19,0,0,0,6.72-1.53l2.15,6.84a27.88,27.88,0,0,1-11.13,2.23C254.72,157.88,249.84,152.26,249.84,142.62Z"/>
      <path class="cls-2" d="M303.51,125h-17v-7.33h26.23v39.3h-9.25ZM301,104.29c0-3.68,2.77-6.23,6.58-6.23s6.57,2.55,6.57,6.23-2.77,6.18-6.57,6.18S301,108,301,104.29Z"/>
    </g>
    <g>
      <path class="cls-2" d="M193.82,178.38h9.35v21h17.89v-21h9.35v52.3h-9.35V207.51H203.17v23.17h-9.35Z"/>
      <path class="cls-2" d="M240.38,211.09c0-13.13,9.38-20.66,19.73-20.66s19.73,7.53,19.73,20.66-9.37,20.55-19.73,20.55S240.38,224.11,240.38,211.09Zm30,0c0-7.91-3.84-13.12-10.26-13.12s-10.25,5.21-10.25,13.12,3.84,13,10.25,13S270.37,218.94,270.37,211.09Z"/>
      <path class="cls-2" d="M302.15,216.38V181.52H289v-7.33H311.4v42.67c0,5.25,3.1,7.23,7.06,7.23a17.39,17.39,0,0,0,6.73-1.52l2.15,6.84a28.11,28.11,0,0,1-11.14,2.23C307,231.64,302.15,226,302.15,216.38Z"/>
      <path class="cls-2" d="M335.81,191.39h7.1l.71,5h.22c1.73-3.39,4.19-6,8.73-6,3.64,0,6.09,2.24,7.13,6.6,1.82-3.87,4.43-6.6,8.94-6.6,5.56,0,8.76,4.56,8.76,12.41v27.84h-8.91V203.5c0-3.46-.93-5.19-3.13-5.19s-3.34,1.62-4.92,4.91v27.46h-7.67V203.5c0-3.46-.91-5.19-3.12-5.19s-3.45,1.62-4.93,4.91v27.46h-8.91Z"/>
      <path class="cls-2" d="M385,211c0-12.81,9.74-20.55,20.25-20.55,11.73,0,18.23,7.78,18.23,18.65a31,31,0,0,1-.4,4.65H391.62V207.2h25.5l-1.77,2c0-7.76-3.65-11.7-9.8-11.7-6.49,0-11.5,4.67-11.5,13.44,0,9.14,5.5,13.5,13.67,13.5a21.36,21.36,0,0,0,11-3.21L421.9,227a28.52,28.52,0,0,1-15.39,4.64C394.48,231.64,385,224.06,385,211Z"/>
      <path class="cls-2" d="M433.06,225.56l4-5.9a29,29,0,0,0,16.44,5c5.45,0,8-2.08,8-4.68s-1.72-4-10.87-5.91c-10.49-2.2-15.15-5.9-15.15-11.89,0-6.82,6.23-11.74,17.22-11.74a30.75,30.75,0,0,1,16.45,5.19l-4.26,5.68a24.25,24.25,0,0,0-13-3.93c-5.09,0-7.2,2-7.2,4.37,0,2.77,2.89,3.74,10.24,5.33,12.56,2.77,15.83,6.12,15.83,12.35,0,6.76-6.51,12.22-18.46,12.22A35.51,35.51,0,0,1,433.06,225.56Z"/>
    </g>
  </g>
  <path class="cls-3" d="M124.35,147.72l-6.64,7.17L92.53,131.56h0a4.88,4.88,0,0,1,0-7.17l25.18-23.33,6.65,7.17L103,128Z"/>
  <path class="cls-3" d="M485,258.61l-9.53-2.18,22.62-99,9.53,2.18Zm62.7-46.06-25.19,23.33-6.64-7.17L537.15,209l-21.32-19.74,6.64-7.17,25.19,23.33a4.9,4.9,0,0,1,0,7.17Z"/>
</svg>
