<?xml version="1.0" encoding="UTF-8"?>
<svg id="Layer_2" data-name="Layer 2" xmlns="http://www.w3.org/2000/svg" viewBox="0 0 295.33 292.71">
  <defs>
    <style>
      .cls-1 {
        fill: none;
        stroke: #383838;
        stroke-width: 3px;
      }

      .cls-1, .cls-2, .cls-3 {
        stroke-miterlimit: 10;
      }

      .cls-2 {
        fill: rgba(56, 147, 208, .2);
        stroke: #3893d0;
      }

      .cls-2, .cls-3 {
        stroke-width: 2.99px;
      }

      .cls-3 {
        fill: rgba(213, 63, 149, .2);
        stroke: #d53f95;
      }

      .cls-4 {
        fill: #d53f95;
      }

      .cls-4, .cls-5 {
        stroke-width: 0px;
      }

      .cls-5 {
        fill: #3893d0;
      }
    </style>
  </defs>
  <g id="Layer_1-2" data-name="Layer 1">
    <g>
      <path class="cls-1" d="M198.67,280.39c-8.35-5.21-16.73-10.4-25.05-15.65-5.36-3.38-10.66-6.84-15.97-10.3-1.56-1.02-6.97-3.21-6.89-5.4.28-7.93.44-11.92.55-19.85.21-15.42.31-30.84.4-46.26.02-3.3-.3-6.61-.3-9.92,0-1.97.74-3.15,2.97-4.11,7.25-4.69,8.07-6.14,14.19-9.01,9.45-6.27,17.34-10.75,28.36-16.65,7.81-3.32,16.08-6.8,23.52-10.92,3.06-1.7,10.67.09,13.95,2.5,13,7.7,4.7,3.09,9.36,6.31,9.48,6.57,18.71,13.52,28.06,20.29,5.91,4.28,11.58,8.95,17.86,12.59,3.89,2.25,3.99,4.4,4.12,8.57.3,9.54-1.59,18.83-1.7,28.27-.08,6.67-.45,13.35-.78,20.02-.17,3.48-.55,6.94-.78,10.42-.06.84-.3,8.93-4.1,10.68-5.57,2.57-10.96,5.56-16.32,8.57-10.3,5.79-20.52,11.72-30.78,17.6-5.74,3.29-11.47,6.6-17.23,9.85-1.99,1.13-4.01,2.25-6.12,3.1-.72.29-1.95.02-2.65-.44-5-3.25-8.51-7.01-14.67-10.27Z"/>
      <path class="cls-3" d="M73.26,98.79c.05-9.85.07-19.69.17-29.54.06-6.33.23-12.66.39-19,.05-1.86-.92-7.62.98-8.7,6.9-3.92,10.37-5.88,17.18-9.95,13.23-7.91,26.42-15.91,39.59-23.93,2.82-1.72,5.47-3.73,8.28-5.46,1.68-1.03,3.07-1.02,5.06.37,7.8,3.72,9.46,3.65,15.11,7.36,10.29,4.75,18.25,9.13,29.05,15.4,6.92,4.9,14.22,10.12,21.64,14.29,3.05,1.72,5.52,9.13,5.2,13.19.26,15.11-.16,5.62-.46,11.28-.62,11.52-1.69,23.02-2.55,34.53-.54,7.27-1.54,14.56-1.35,21.81.12,4.49-1.65,5.7-5.13,8-7.96,5.26-16.87,8.52-24.96,13.39-5.72,3.44-11.6,6.62-17.45,9.84-3.05,1.68-6.2,3.18-9.28,4.81-.74.39-7.76,4.43-11.24,2.11-5.11-3.39-10.48-6.41-15.86-9.39-10.34-5.73-20.75-11.32-31.13-16.97-5.81-3.16-11.63-6.3-17.43-9.5-2-1.11-4.02-2.24-5.85-3.59-.63-.46-1.04-1.64-1.02-2.49.14-5.96,1.5-10.93,1.05-17.87Z"/>
      <path class="cls-2" d="M21.35,153.31c8.72-4.57,17.42-9.18,26.16-13.71,5.62-2.92,11.29-5.74,16.95-8.57,1.67-.83,6.29-4.39,8.14-3.22,6.7,4.25,10.06,6.4,16.85,10.5,13.2,7.97,26.45,15.86,39.71,23.73,2.84,1.69,5.86,3.08,8.71,4.75,1.7,1,2.34,2.23,2.05,4.64.38,8.63,1.22,10.07.6,16.8.63,11.32.51,20.4.04,32.89-1.08,8.41-2.26,17.31-2.47,25.81-.08,3.5-5.47,9.16-9.2,10.78-13.22,7.32-5.04,2.5-10.17,4.89-10.46,4.86-21.12,9.31-31.69,13.96-6.67,2.93-13.58,5.47-19.89,9.05-3.91,2.21-5.81,1.22-9.47-.77-8.38-4.56-15.44-10.89-23.54-15.76-5.72-3.44-11.29-7.14-16.88-10.79-2.91-1.9-5.72-3.98-8.6-5.94-.69-.47-7.55-4.77-7.14-8.94.6-6.11.74-12.27.85-18.41.21-11.82.26-23.63.37-35.45.06-6.62.1-13.23.21-19.85.04-2.29.09-4.59.42-6.85.11-.77.96-1.69,1.72-2.07,5.33-2.67,10.35-3.8,16.27-7.46Z"/>
      <g>
        <path class="cls-4" d="M165.61,77.35c-1.06-2.86-1.87-3.23-4.79-2.13-2.12.8-4.29,1.53-6.5,2.02-2.54.56-2.97.12-3.27-2.46-.1-.9.13-2.24-1.36-1.92-.42.09-.84,1.34-.83,2.06.01,1.52.69,3.12-1.15,4.16-.11.06.45,1.73.56,1.72,1.86-.26,2.16,1.07,2.71,2.32.31.71,1.03,1.23,1.57,1.84.24-.91.51-1.82.69-2.74.05-.25-.13-.58-.26-.84-.71-1.39-.08-2.03,1.24-2.39,2.21-.61,4.5-1.06,6.57-1.98,1.92-.86,2.4.34,3.01,1.51.85,1.63-.51,1.83-1.53,2.23-.48.19-1.16.29-1.38.66-.64,1.06-1.63,2.31-1.46,3.32.12.73,1.85,1.67,2.87,1.69,2.73.05,4.92-1.26,6.16-3.07-1.15-2.38-2.15-4.13-2.85-5.99ZM163.11,84.44c-.5.05-1.07-.69-1.62-1.07.5-.53,1.01-1.06,1.76-1.85.71.75,1.15,1.23,1.6,1.7-.58.44-1.13,1.15-1.74,1.22Z"/>
        <path class="cls-4" d="M126.25,73.21c-.97-.45-2.14-.46-3.22-.67,0,.05-.02.09-.03.14-.44,0-.92-.1-1.32.02-.66.21-1.28.57-1.91.87.27.55.57,1.09.81,1.66.34.79.73,1.58.94,2.41.6,2.43,1.09,4.89,1.7,7.32.44,1.79,1.84,1.93,3.14,1.27,2.96-1.5,4.46-4.19,4.54-7.38.07-2.97-2.21-4.54-4.63-5.65ZM127.58,83.15c-1.03,1.28-2.04,1.25-2.61-.33-.69-1.93-1.03-3.99-1.52-5.99.11-1.59.74-2.1,2.21-1.46,3.08,1.34,4.03,5.16,1.92,7.78Z"/>
        <path class="cls-4" d="M144.64,81.74c-.1-.28-.14-.57-.22-.86-.36-1.36-.61-2.76-1.1-4.06-.71-1.88-2.03-2.26-3.67-1.16-.67.45-1.41.91-1.89,1.53-.43.54-.55,1.33-.8,2.01.68-.21,1.36-.43,2.04-.64.67-.21,1.82-.73,1.93-.57.55.83.98,1.82,1.08,2.79.02.24-1.35.67-2.12.92-.7.23-1.53.17-2.14.51-.77.44-1.97,1.19-1.94,1.75.06,1.06.68,2.25,1.43,3.04.59.62,1.72.72,3.19,1.26,1.5-.89,3.37-1.76,4.92-3,1.71-1.37-.3-2.36-.72-3.51ZM140.9,85.85c-.98-.34-1.8-1.12-2.68-1.72.54-.49,1.08-.99,1.98-1.82.94.95,1.64,1.65,2.34,2.36-.56.42-1.28,1.31-1.64,1.18Z"/>
      </g>
      <g>
        <path class="cls-5" d="M34.88,210.84c-1.07,1.72-3.21,2.57-5.4,1.83-1.99-.67-3.52-3.38-3.41-5.99.06-1.46,0-2.93.13-4.39.06-.57.43-1.47.83-1.58,2.65-.73,5.35-1.28,8.03-1.89.09.27.19.55.28.82-1.43.54-2.86,1.1-4.3,1.61-.55.2-1.43.12-1.66.49-.49.79-.82,1.77-.84,2.69,0,.24,1.43.85,2.06.7,1.16-.28,2.21-.99,3.31-1.52l.34.46c-1.3.96-2.62,1.89-3.87,2.89-.63.5-1.67,1.27-1.58,1.71.17.8.96,1.91,1.67,2.07,1.46.32,3.03.1,4.4.1Z"/>
        <path class="cls-5" d="M47.41,209.65c-.37-1.13-.48-2.05-.95-2.72-.47-.66-1.26-1.37-1.99-1.48-.45-.06-1.24.88-1.54,1.53-.39.85-.32,1.91-.67,2.78-.24.6-.88,1.03-1.34,1.54-.39-.47-1.02-.9-1.14-1.43-.42-1.95-.71-3.94-.94-5.92-.05-.4.28-.94.59-1.25.1-.1.92.18,1.04.45.73,1.7,1.76,1.42,3.02.64,1.63-1.01,3.27-.73,4.38.71,1.18,1.53,1,3.25-.45,5.14Z"/>
        <path class="cls-5" d="M70.77,199.88c1.48,3.6,3.67,2.97,6.31,1.93,2.17-.85,4.91,1.1,5.4,3.39.1.47-.24,1.03-.37,1.54-.43-.21-.93-.34-1.26-.65-.54-.5-.91-1.18-1.46-1.66-2.03-1.79-3.79-1.24-4.67,1.27-.23.67-.94,1.17-1.42,1.75-.45-.52-.98-1-1.32-1.58-.6-1.01-1.14-2.05-1.58-3.13-.28-.68-.32-1.45-.47-2.18.29-.23.57-.45.86-.68Z"/>
        <path class="cls-5" d="M89.93,203.99c.5.63.81,1.01,1.13,1.42-.19.22-.3.46-.48.52-2.01.67-3.62-.54-4.19-1.95-.41-1.02.42-2.91,1.27-3.93.69-.82,2.26-1.24,3.43-1.22,1.33.02,1.77,2.11.77,3.39-.49.63-1.18,1.09-1.94,1.77Z"/>
        <path class="cls-5" d="M116.39,197.41c-.85.1-1.7.2-2.55.29-2.77.29-3.73,1.49-3.64,4.23.02.64-.56,1.3-.87,1.94-.57-.37-1.29-.63-1.66-1.15-.5-.71-.79-1.59-1.04-2.44-.63-2.11-.33-2.4,1.9-2.48.68-.02,1.39-.4,2.02-.74,1.94-1.06,3.87-1.1,5.83-.28,0,.2.01.41.02.61Z"/>
        <path class="cls-5" d="M64.76,202.18c1.66,1.64,1.99,3.95.77,5.41-1.58-1.56-1.93-4.02-.77-5.41Z"/>
        <path class="cls-5" d="M61.8,212.46c-.4-2.03-1.04-4.01-1.62-6-1.01-3.45-2.93-4.17-5.98-2.28-1.42.88-2.44,3.54-1.64,4.64,1.18,1.6,2.66.96,3.95.17,1.21-.75,2.02-.41,2.48.73.52,1.29,1.09,2.64,1.19,4,.16,2.4-1.43,3.48-3.73,2.81-.33-.1-.67-.15-1.5-.33.9,2.2,2.13,2.72,3.85,2.1,2.13-.76,3.49-3.29,2.98-5.84ZM55.8,208.25c-.68.05-1.43-.81-2.7-1.62,1.27-.91,2.12-1.93,2.64-1.79.82.23,1.43,1.24,2.13,1.92-.69.53-1.35,1.44-2.07,1.49Z"/>
        <path class="cls-5" d="M102.29,200.84c.54-.82,1.19-1.99.98-2.79-.47-1.73-3.55-2.89-4.81-1.63-1.27,1.27-2.46,3.39-2.36,5.06.13,2.1,4.56,3.22,6.68,2.08-.79-.43-1.58-.86-2.67-1.45.98-.54,1.84-.74,2.19-1.27ZM97.56,198.94c1.28-.7,1.9-1.26,2.55-1.31.4-.03.86.73,1.3,1.14-.54.38-1.04.95-1.63,1.07-.45.09-1.02-.38-2.22-.9Z"/>
      </g>
    </g>
  </g>
</svg>