<?xml version="1.0" encoding="UTF-8"?>
<svg id="Layer_2" data-name="Layer 2" xmlns="http://www.w3.org/2000/svg" viewBox="0 0 295.33 292.72">
  <defs>
    <style>
      .cls-1 {
        fill: none;
        stroke: #383838;
        stroke-miterlimit: 10;
        stroke-width: 3px;
      }
    </style>
  </defs>
  <g id="Layer_1-2" data-name="Layer 1">
    <g>
      <path class="cls-1" d="M198.68,280.39c-8.35-5.21-16.73-10.4-25.05-15.65-5.36-3.38-10.66-6.84-15.97-10.3-1.56-1.02-6.97-3.21-6.89-5.4.28-7.93.44-11.92.55-19.85.21-15.42.31-30.84.4-46.26.02-3.3-.3-6.61-.3-9.92,0-1.97.74-3.15,2.97-4.11,7.25-4.69,8.07-6.14,14.19-9.01,9.45-6.27,17.34-10.75,28.36-16.65,7.81-3.32,16.08-6.8,23.52-10.92,3.06-1.7,10.67.09,13.95,2.5,13,7.7,4.7,3.09,9.36,6.31,9.48,6.57,18.71,13.52,28.06,20.29,5.91,4.28,11.58,8.95,17.86,12.59,3.89,2.25,3.99,4.4,4.12,8.57.3,9.54-1.59,18.83-1.7,28.27-.08,6.67-.45,13.35-.78,20.02-.17,3.48-.55,6.94-.78,10.42-.06.84-.3,8.93-4.1,10.68-5.57,2.57-10.96,5.56-16.32,8.57-10.3,5.79-20.52,11.72-30.78,17.6-5.74,3.29-11.47,6.6-17.23,9.85-1.99,1.13-4.01,2.25-6.12,3.1-.72.29-1.95.02-2.65-.44-5-3.25-8.51-7.01-14.67-10.27Z"/>
      <path class="cls-1" d="M73.27,98.79c.05-9.85.07-19.69.17-29.54.06-6.33.23-12.66.39-19,.05-1.86-.92-7.62.98-8.7,6.9-3.92,10.37-5.88,17.18-9.95,13.23-7.91,26.42-15.91,39.59-23.93,2.82-1.72,5.47-3.73,8.28-5.46,1.68-1.03,3.07-1.02,5.06.37,7.8,3.72,9.46,3.65,15.11,7.36,10.29,4.75,18.25,9.13,29.05,15.4,6.92,4.9,14.22,10.12,21.64,14.29,3.05,1.72,5.52,9.13,5.2,13.19.26,15.11-.16,5.62-.46,11.28-.62,11.52-1.69,23.02-2.55,34.53-.54,7.27-1.54,14.56-1.35,21.81.12,4.49-1.65,5.7-5.13,8-7.96,5.26-16.87,8.52-24.96,13.39-5.72,3.44-11.6,6.62-17.45,9.84-3.05,1.68-6.2,3.18-9.28,4.81-.74.39-7.76,4.43-11.24,2.11-5.11-3.39-10.48-6.41-15.86-9.39-10.34-5.73-20.75-11.32-31.13-16.97-5.81-3.16-11.63-6.3-17.43-9.5-2-1.11-4.02-2.24-5.85-3.59-.63-.46-1.04-1.64-1.02-2.49.14-5.96,1.5-10.93,1.05-17.87Z"/>
      <path class="cls-1" d="M21.36,153.32c8.72-4.57,17.42-9.18,26.16-13.71,5.62-2.92,11.29-5.74,16.95-8.57,1.67-.83,6.29-4.39,8.14-3.22,6.7,4.25,10.06,6.4,16.85,10.5,13.2,7.97,26.45,15.86,39.71,23.73,2.84,1.69,5.86,3.08,8.71,4.75,1.7,1,2.34,2.23,2.05,4.64.38,8.63,1.22,10.07.6,16.8.63,11.32.51,20.4.04,32.89-1.08,8.41-2.26,17.31-2.47,25.81-.08,3.5-5.47,9.16-9.2,10.78-13.22,7.32-5.04,2.5-10.17,4.89-10.46,4.86-21.12,9.31-31.69,13.96-6.67,2.93-13.58,5.47-19.89,9.05-3.91,2.21-5.81,1.22-9.47-.77-8.38-4.56-15.44-10.89-23.54-15.76-5.72-3.44-11.29-7.14-16.88-10.79-2.91-1.9-5.72-3.98-8.6-5.94-.69-.47-7.55-4.77-7.14-8.94.6-6.11.74-12.27.85-18.41.21-11.82.26-23.63.37-35.45.06-6.62.1-13.23.21-19.85.04-2.29.09-4.59.42-6.85.11-.77.96-1.69,1.72-2.07,5.33-2.67,10.35-3.8,16.27-7.46Z"/>
    </g>
  </g>
</svg>