<?xml version="1.0" encoding="UTF-8"?>
<svg id="Layer_2" data-name="Layer 2" xmlns="http://www.w3.org/2000/svg" xmlns:xlink="http://www.w3.org/1999/xlink" viewBox="0 0 1381.3 327.44">
  <defs>
    <style>
      .cls-1 {
        fill: #000;
      }

      .cls-1, .cls-2 {
        stroke-width: 0px;
      }

      .cls-3 {
        stroke-dasharray: 0 0 1 3;
        stroke-linecap: round;
      }

      .cls-3, .cls-2, .cls-4, .cls-5 {
        fill: none;
      }

      .cls-3, .cls-4 {
        stroke: #adadad;
      }

      .cls-3, .cls-4, .cls-6 {
        stroke-width: 2px;
      }

      .cls-3, .cls-4, .cls-6, .cls-5 {
        stroke-miterlimit: 10;
      }

      .cls-7 {
        font-size: 9px;
      }

      .cls-7, .cls-8 {
        fill: #adadad;
        font-family: Hind-Medium, Hind;
        font-weight: 500;
      }

      .cls-6 {
        fill: rgba(213, 63, 149, .2);
        stroke: #d53f95;
      }

      .cls-9 {
        clip-path: url(#clippath);
      }

      .cls-5 {
        stroke: #383838;
        stroke-width: 1.5px;
      }

      .cls-8 {
        font-size: 8px;
      }
    </style>
    <clipPath id="clippath">
      <rect class="cls-2" width="1091.01" height="327.44"/>
    </clipPath>
  </defs>
  <g id="Layer_1-2" data-name="Layer 1">
    <g class="cls-9">
      <g id="Visualization_development" data-name="Visualization development">
        <g>
          <line class="cls-5" x1="1380.95" y1="44.78" x2="70.47" y2="44.78"/>
          <text class="cls-7" transform="translate(39.46 46.48)"><tspan x="0" y="0">Client</tspan></text>
        </g>
        <g>
          <line class="cls-5" x1="1381.3" y1="155.46" x2="70.82" y2="155.46"/>
          <text class="cls-7" transform="translate(41.15 157.16)"><tspan x="0" y="0">Data</tspan></text>
        </g>
        <g>
          <line class="cls-5" x1="1381.3" y1="258.15" x2="70.82" y2="258.15"/>
          <text class="cls-7" transform="translate(9.63 255.81)"><tspan x="0" y="0">Visualization </tspan><tspan x="23.96" y="10.8">design</tspan></text>
        </g>
        <path class="cls-4" d="M129.35,46.48c5.8,7.18,29.25,21.94,35.75,37.9,11.81,29.03,5.83,43.44,20.18,62.37,11.7,15.43,27.49,21.45,33.48,23.39,26.02,8.41,44.31-23.19,58.24-15.13,17.05,9.86-1.59,52.53,21.55,86.22,7.03,10.23,12.62,20.3,17.89,19.26,20.37-4.02-3.36-163.54,45.4-205.45,8.94-7.68,16.14-7.82,17.89-7.8,20.9.28,36.65,33.75,47.24,56.87,8.56,18.7,11.06,29.15,18.34,51.82,20.62,64.13,31.29,96.28,49.07,99.97,17.52,3.64,35.83-18.33,43.11-27.06,56.18-67.42,4.63-172.48,25.22-180.69,19.15-7.63,94.78,68.63,112.82,161.66,3.69,19.02,6.37,45.98,17.89,48.15,12.02,2.27,31.25-22.94,38.52-49.53,15.11-55.25,12.37-73.85,33.02-116.25,6.33-13,34.97-47.28,51.07-47.39,7.63-.06,18.12-1.48,62.43,98.77,18.72,42.35,10.78,117.01,73.15,115.56"/>
        <g>
          <path class="cls-6" d="M381.43,53.92c-2.32-.32-4.08-1.2-5.22-2.98-1.63-2.55-1.66-5.17.06-7.78,1.13-1.71,2.44-3.22,4.67-2.53,2.88.89,5.52,2.28,6.81,5.31.81,1.89-.1,4.79-2.09,6.01-1.32.8-2.82,1.32-4.23,1.97Z"/>
          <text class="cls-8" transform="translate(381.77 33.09)"><tspan x="0" y="0">Present to client</tspan></text>
        </g>
        <g>
          <path class="cls-6" d="M195.28,162.51c-2.32-.32-4.08-1.2-5.22-2.98-1.63-2.55-1.66-5.17.06-7.78,1.13-1.71,2.44-3.22,4.67-2.53,2.88.89,5.52,2.28,6.81,5.31.81,1.89-.1,4.79-2.09,6.01-1.32.8-2.82,1.32-4.23,1.97Z"/>
          <text class="cls-8" transform="translate(195.61 141.68)"><tspan x="0" y="0">Acquire data?</tspan></text>
        </g>
        <g>
          <rect class="cls-1" x="311.85" y="236.18" width="108.46" height="14.45"/>
          <path class="cls-6" d="M315.44,266.47c-2.32-.32-4.08-1.2-5.22-2.98-1.63-2.55-1.66-5.17.06-7.78,1.13-1.71,2.44-3.22,4.67-2.53,2.88.89,5.52,2.28,6.81,5.31.81,1.89-.1,4.79-2.09,6.01-1.32.8-2.82,1.32-4.23,1.97Z"/>
          <text class="cls-8" transform="translate(315.77 245.63)"><tspan x="0" y="0">Sketch ideas on paper</tspan></text>
        </g>
        <g>
          <path class="cls-6" d="M444.89,162.84c-2.32-.32-4.08-1.2-5.22-2.98-1.63-2.55-1.66-5.17.06-7.78,1.13-1.71,2.44-3.22,4.67-2.53,2.88.89,5.52,2.28,6.81,5.31.81,1.89-.1,4.79-2.09,6.01-1.32.8-2.82,1.32-4.23,1.97Z"/>
          <text class="cls-8" transform="translate(445.22 142)"><tspan x="0" y="0">Acquire new/more data?</tspan></text>
        </g>
        <g>
          <path class="cls-6" d="M129.26,53.28c-3.17-.85-4.2-1.77-4.2-1.77-.5-.44-.79-.86-1.01-1.21-1.63-2.55-1.66-5.17.06-7.78,1.13-1.71,2.44-3.22,4.67-2.53,2.88.89,5.52,2.28,6.81,5.31.81,1.89-.1,4.79-2.09,6.01-.2.12-.45.26-.95.52-1.35.7-2.5,1.16-3.29,1.44Z"/>
          <text class="cls-8" transform="translate(131.22 32.8)"><tspan x="0" y="0">Initial problem statement</tspan></text>
        </g>
        <g>
          <rect class="cls-1" x="498.63" y="234.19" width="108.46" height="14.45"/>
          <path class="cls-6" d="M502.22,264.48c-2.32-.32-4.08-1.2-5.22-2.98-1.63-2.55-1.66-5.17.06-7.78,1.13-1.71,2.44-3.22,4.67-2.53,2.88.89,5.52,2.28,6.81,5.31.81,1.89-.1,4.79-2.09,6.01-1.32.8-2.82,1.32-4.23,1.97Z"/>
          <text class="cls-8" transform="translate(502.55 243.65)"><tspan x="0" y="0">Refined prototype</tspan></text>
        </g>
        <g>
          <path class="cls-6" d="M567.14,53.74c-2.32-.32-4.08-1.2-5.22-2.98-1.63-2.55-1.66-5.17.06-7.78,1.13-1.71,2.44-3.22,4.67-2.53,2.88.89,5.52,2.28,6.81,5.31.81,1.89-.1,4.79-2.09,6.01-1.32.8-2.82,1.32-4.23,1.97Z"/>
          <text class="cls-8" transform="translate(567.48 32.9)"><tspan x="0" y="0">Client feedback and review</tspan></text>
        </g>
        <g>
          <rect class="cls-1" x="690.97" y="235.48" width="108.46" height="14.45"/>
          <path class="cls-6" d="M694.56,265.77c-2.32-.32-4.08-1.2-5.22-2.98-1.63-2.55-1.66-5.17.06-7.78,1.13-1.71,2.44-3.22,4.67-2.53,2.88.89,5.52,2.28,6.81,5.31.81,1.89-.1,4.79-2.09,6.01-1.32.8-2.82,1.32-4.23,1.97Z"/>
          <text class="cls-8" transform="translate(694.9 244.93)"><tspan x="0" y="0">development</tspan></text>
        </g>
        <g>
          <path class="cls-6" d="M815.31,54.06c-2.32-.32-4.08-1.2-5.22-2.98-1.63-2.55-1.66-5.17.06-7.78,1.13-1.71,2.44-3.22,4.67-2.53,2.88.89,5.52,2.28,6.81,5.31.81,1.89-.1,4.79-2.09,6.01-1.32.8-2.82,1.32-4.23,1.97Z"/>
          <text class="cls-8" transform="translate(815.64 33.22)"><tspan x="0" y="0">Specific feature request</tspan></text>
        </g>
        <g>
          <rect class="cls-1" x="882.92" y="131.23" width="108.46" height="14.45"/>
          <path class="cls-6" d="M886.51,161.52c-2.32-.32-4.08-1.2-5.22-2.98-1.63-2.55-1.66-5.17.06-7.78,1.13-1.71,2.44-3.22,4.67-2.53,2.88.89,5.52,2.28,6.81,5.31.81,1.89-.1,4.79-2.09,6.01-1.32.8-2.82,1.32-4.23,1.97Z"/>
          <text class="cls-8" transform="translate(886.85 140.68)"><tspan x="0" y="0">Additional data management</tspan></text>
        </g>
        <path class="cls-3" d="M959.62,260.53c6.42-1.73,15.3-4.73,24.99-10.13,5.69-3.17,28.61-16.63,47.69-50.45,12.11-21.46,11.23-30.83,22.01-64.2,14.07-43.55,17.02-56.23,29.35-71.54,7.98-9.9,17.81-22.11,33.94-25.68,28.08-6.22,54.11,18.42,57.32,21.55,31.53,30.69,13.99,62.83,39.9,129.78,11.43,29.54,26.93,69.61,56.41,74.29,28.89,4.59,57.46-26.99,63.75-33.94,15.17-16.77,22.03-34.42,25.22-44.94"/>
        <g>
          <rect class="cls-1" x="951.8" y="232.2" width="108.46" height="14.45"/>
          <path class="cls-6" d="M955.39,262.5c-2.32-.32-4.08-1.2-5.22-2.98-1.63-2.55-1.66-5.17.06-7.78,1.13-1.71,2.44-3.22,4.67-2.53,2.88.89,5.52,2.28,6.81,5.31.81,1.89-.1,4.79-2.09,6.01-1.32.8-2.82,1.32-4.23,1.97Z"/>
          <text class="cls-8" transform="translate(955.73 241.66)"><tspan x="0" y="0">ongoing development</tspan></text>
        </g>
        <g>
          <rect class="cls-1" x="269.25" y="130.56" width="108.46" height="14.45"/>
          <path class="cls-6" d="M272.85,160.85c-2.32-.32-4.08-1.2-5.22-2.98-1.63-2.55-1.66-5.17.06-7.78,1.13-1.71,2.44-3.22,4.67-2.53,2.88.89,5.52,2.28,6.81,5.31.81,1.89-.1,4.79-2.09,6.01-1.32.8-2.82,1.32-4.23,1.97Z"/>
          <text class="cls-8" transform="translate(273.18 140.01)"><tspan x="0" y="0">Clean and manage data</tspan></text>
        </g>
      </g>
    </g>
  </g>
</svg>