<?xml version="1.0" encoding="UTF-8"?>
<svg id="Layer_2" data-name="Layer 2" xmlns="http://www.w3.org/2000/svg" viewBox="0 0 391.11 178.8">
  <defs>
    <style>
      .cls-1 {
        fill: rgba(213, 63, 149, .2);
        stroke: #d53f95;
      }

      .cls-1, .cls-2, .cls-3, .cls-4 {
        stroke-miterlimit: 10;
        stroke-width: 3.17px;
      }

      .cls-5, .cls-3 {
        opacity: .35;
      }

      .cls-2 {
        fill: rgba(56, 147, 208, .2);
        stroke: #3893d0;
      }

      .cls-3 {
        fill: rgba(151, 201, 60, .2);
        stroke: #97c93c;
      }

      .cls-4 {
        fill: none;
        stroke: #383838;
      }

      .cls-6 {
        fill: #adadad;
        font-family: Hind-Medium, Hind;
        font-size: 14.25px;
        font-weight: 500;
      }
    </style>
  </defs>
  <g id="Layer_1-2" data-name="Layer 1">
    <g id="Health_research2" data-name="Health research2">
      <polygon class="cls-4" points="160.62 47.59 107.73 139.21 213.52 139.21 174.95 72.41 160.62 47.59"/>
      <path class="cls-1" d="M162.8,54.32c-2.32-.32-4.08-1.2-5.22-2.98-1.63-2.55-1.66-5.17.06-7.78,1.13-1.71,2.44-3.22,4.67-2.53,2.88.89,5.52,2.28,6.81,5.31.81,1.89-.1,4.79-2.09,6.01-1.32.8-2.82,1.32-4.23,1.97Z"/>
      <g class="cls-5">
        <path class="cls-2" d="M103.67,138.8c.35-1.72.44-3.01.88-4.16.99-2.56,3.5-3.45,6.08-1.7,1.89,1.28,3.47,3.2,4.76,5.13,1.17,1.74.83,3.91-.51,5.49-1.66,1.97-3.86,3.38-6.58,2.64-1.09-.29-2.32-1.22-2.84-2.21-.9-1.7-1.3-3.67-1.79-5.19Z"/>
      </g>
      <path class="cls-3" d="M219.63,139.27c.17,2.1-1.27,4.11-2.86,5.98-1.29,1.52-5.26,1.3-6.53-.24-.64-.77-1.31-1.52-1.84-2.36-1.89-3-1.03-7.06,1.78-9.07,2.22-1.58,4.69-1.91,6.97-.7,2.16,1.14,2.47,3.53,2.47,6.4Z"/>
      <text class="cls-6" transform="translate(99.1 11.96)"><tspan x="0" y="0">Health &amp; healthcare </tspan><tspan x=".58" y="17.1">economics research</tspan></text>
      <g class="cls-5">
        <text class="cls-6" transform="translate(224.96 154.03)"><tspan x="0" y="0">Patient-centered design </tspan><tspan x="48.55" y="17.1">research</tspan></text>
      </g>
      <g class="cls-5">
        <text class="cls-6" transform="translate(17.91 154.03)"><tspan x="0" y="0">Public health </tspan><tspan x="14.01" y="17.1">research</tspan></text>
      </g>
    </g>
  </g>
</svg>