<?xml version="1.0" encoding="UTF-8"?>
<svg id="Layer_2" data-name="Layer 2" xmlns="http://www.w3.org/2000/svg" viewBox="0 0 177.98 415.66">
  <defs>
    <style>
      .cls-1, .cls-2, .cls-3 {
        fill: #adadad;
        font-family: Hind-Medium, Hind;
        font-weight: 500;
      }

      .cls-4 {
        font-size: 8px;
      }

      .cls-2 {
        opacity: .35;
      }

      .cls-2, .cls-5, .cls-3 {
        font-size: 9px;
      }

      .cls-6, .cls-7 {
        fill: none;
        stroke: #383838;
        stroke-miterlimit: 10;
      }

      .cls-7 {
        stroke-width: 1.5px;
      }
    </style>
  </defs>
  <g id="Layer_1-2" data-name="Layer 1">
    <g id="Timeline5">
      <text class="cls-1" transform="translate(58.33 359.69)"><tspan class="cls-5"><tspan x="0" y="0">Northeastern University</tspan></tspan><tspan class="cls-4"><tspan x="0" y="9.6">Center for Design</tspan></tspan></text>
      <text class="cls-1" transform="translate(58.33 225.08)"><tspan class="cls-5"><tspan x="0" y="0">Rice University </tspan></tspan><tspan class="cls-4"><tspan x="0" y="9.6">Texas Policy Lab</tspan></tspan></text>
      <text class="cls-1" transform="translate(58.33 135.34)"><tspan class="cls-5"><tspan x="0" y="0">Mathematical Policy Research</tspan></tspan><tspan class="cls-4"><tspan x="0" y="9.6">Healthcare Policy Team</tspan></tspan></text>
      <text class="cls-2" transform="translate(58.33 7.56)"><tspan x="0" y="0">Wesleyan University</tspan></text>
      <line class="cls-6" x1="24.09" y1="50.73" x2="50.23" y2="50.73"/>
      <line class="cls-6" x1="24.09" y1="5.86" x2="50.23" y2="5.86"/>
      <line class="cls-6" x1="24.09" y1="275.08" x2="50.23" y2="275.08"/>
      <line class="cls-6" x1="24.09" y1="230.21" x2="50.23" y2="230.21"/>
      <line class="cls-6" x1="24.09" y1="185.34" x2="50.23" y2="185.34"/>
      <line class="cls-6" x1="24.09" y1="140.47" x2="50.23" y2="140.47"/>
      <line class="cls-6" x1="24.09" y1="95.6" x2="50.23" y2="95.6"/>
      <line class="cls-6" x1="24.09" y1="319.95" x2="50.23" y2="319.95"/>
      <line class="cls-6" x1="24.09" y1="364.82" x2="50.23" y2="364.82"/>
      <line class="cls-7" x1="37.16" y1="5.86" x2="37.16" y2="409.69"/>
      <line class="cls-6" x1="24.09" y1="409.69" x2="50.23" y2="409.69"/>
      <g>
        <text class="cls-2" transform="translate(.01 7.66)"><tspan x="0" y="0">2014</tspan></text>
        <text class="cls-2" transform="translate(.05 52.53)"><tspan x="0" y="0">2015</tspan></text>
        <text class="cls-2" transform="translate(.02 97.4)"><tspan x="0" y="0">2016</tspan></text>
        <text class="cls-3" transform="translate(0 142.27)"><tspan x="0" y="0">2017</tspan></text>
        <text class="cls-3" transform="translate(.03 187.14)"><tspan x="0" y="0">2018</tspan></text>
        <text class="cls-3" transform="translate(0 232.01)"><tspan x="0" y="0">2019</tspan></text>
        <text class="cls-3" transform="translate(.1 276.88)"><tspan x="0" y="0">2020</tspan></text>
        <text class="cls-3" transform="translate(.03 321.75)"><tspan x="0" y="0">2021</tspan></text>
        <text class="cls-3" transform="translate(.09 366.62)"><tspan x="0" y="0">2022</tspan></text>
        <text class="cls-3" transform="translate(.08 411.49)"><tspan x="0" y="0">2023</tspan></text>
      </g>
    </g>
  </g>
</svg>