<?xml version="1.0" encoding="UTF-8"?>
<svg id="Layer_2" data-name="Layer 2" xmlns="http://www.w3.org/2000/svg" viewBox="0 0 137.79 415.66">
  <defs>
    <style>
      .cls-1 {
        opacity: .35;
      }

      .cls-1, .cls-2 {
        fill: #adadad;
        font-family: Hind-Medium, Hind;
        font-size: 9px;
        font-weight: 500;
      }

      .cls-3, .cls-4 {
        fill: none;
        stroke: #383838;
        stroke-miterlimit: 10;
      }

      .cls-4 {
        stroke-width: 1.5px;
      }
    </style>
  </defs>
  <g id="Layer_1-2" data-name="Layer 1">
    <g id="Timeline2">
      <text class="cls-2" transform="translate(58.33 7.56)"><tspan x="0" y="0">Wesleyan University</tspan></text>
      <line class="cls-3" x1="24.09" y1="50.73" x2="50.23" y2="50.73"/>
      <line class="cls-3" x1="24.09" y1="5.86" x2="50.23" y2="5.86"/>
      <line class="cls-3" x1="24.09" y1="275.08" x2="50.23" y2="275.08"/>
      <line class="cls-3" x1="24.09" y1="230.21" x2="50.23" y2="230.21"/>
      <line class="cls-3" x1="24.09" y1="185.34" x2="50.23" y2="185.34"/>
      <line class="cls-3" x1="24.09" y1="140.47" x2="50.23" y2="140.47"/>
      <line class="cls-3" x1="24.09" y1="95.6" x2="50.23" y2="95.6"/>
      <line class="cls-3" x1="24.09" y1="319.95" x2="50.23" y2="319.95"/>
      <line class="cls-3" x1="24.09" y1="364.82" x2="50.23" y2="364.82"/>
      <line class="cls-4" x1="37.16" y1="5.86" x2="37.16" y2="409.69"/>
      <line class="cls-3" x1="24.09" y1="409.69" x2="50.23" y2="409.69"/>
      <g>
        <text class="cls-2" transform="translate(0 7.66)"><tspan x="0" y="0">2014</tspan></text>
        <text class="cls-2" transform="translate(.04 52.53)"><tspan x="0" y="0">2015</tspan></text>
        <text class="cls-2" transform="translate(.02 97.4)"><tspan x="0" y="0">2016</tspan></text>
        <text class="cls-2" transform="translate(0 142.27)"><tspan x="0" y="0">2017</tspan></text>
        <text class="cls-1" transform="translate(.03 187.14)"><tspan x="0" y="0">2018</tspan></text>
        <text class="cls-1" transform="translate(0 232.01)"><tspan x="0" y="0">2019</tspan></text>
        <text class="cls-1" transform="translate(.1 276.88)"><tspan x="0" y="0">2020</tspan></text>
        <text class="cls-1" transform="translate(.03 321.75)"><tspan x="0" y="0">2021</tspan></text>
        <text class="cls-1" transform="translate(.09 366.62)"><tspan x="0" y="0">2022</tspan></text>
        <text class="cls-1" transform="translate(.08 411.49)"><tspan x="0" y="0">2023</tspan></text>
      </g>
    </g>
  </g>
</svg>