<svg xmlns="http://www.w3.org/2000/svg" width="792" height="444.56" viewBox="0 0 792 444.56">
  <defs>
    <style>
      .cls-1, .cls-2, .cls-4, .cls-5, .cls-6 {
        fill: none;
        stroke-miterlimit: 10;
      }

      .cls-1 {
        stroke: #91d2c4;
        stroke-width: 2px;
      }

      .cls-2, .cls-6 {
        stroke: #1c75bc;
      }

      .cls-2, .cls-5 {
        stroke-linecap: round;
        stroke-width: 1.5px;
      }

      .cls-3 {
        fill: #9376a8;
      }

      .cls-4, .cls-5 {
        stroke: #ec008c;
      }

      .cls-7 {
        fill: #1c75bc;
      }
    </style>
  </defs>
  <g id="Layer_11" data-name="Layer 11">
    <path class="cls-1" d="M236.23,277.91c5.07-1.71,3.31-6.31,4.53-14.41.8-5.36-2.25-23-3.16-30.92-1.43-12.41,5.07-12.35,8.73-12.85.32,0,4.36,1.5,5.64,3.05s-5,3.89-5.56,5.74c-1.64,5.33,2,17.79,2.29,21,.68,8.46.69,3.17.69,15.54,0,3.45,2.34,16.63-11.71,20.2"/>
    <g>
      <line class="cls-2" x1="257.7" y1="329.02" x2="267.21" y2="326.25"/>
      <line class="cls-2" x1="254.86" y1="321.8" x2="263.49" y2="314.82"/>
      <line class="cls-2" x1="268.33" y1="339.56" x2="258.17" y2="336.88"/>
      <line class="cls-2" x1="233.05" y1="309.93" x2="236.41" y2="318.62"/>
      <line class="cls-2" x1="241.17" y1="308.68" x2="243.69" y2="319.5"/>
      <line class="cls-2" x1="249.38" y1="319.76" x2="252.12" y2="309.46"/>
    </g>
    <path class="cls-1" d="M229.36,216.19c.34,4,.91,14.1,1.73,21.75,2.25,21.1,4.14,31.36,6.21,48.35,1,8.39,2.38,20.71,3.46,35.91"/>
    <path class="cls-1" d="M223.83,216.82c1.64,18,3.6,37.43,4.32,47.37.74,10.15.78,15.61,1.73,28.31,1.09,14.71,2.48,26.59,3.45,34.19"/>
    <g>
      <path class="cls-3" d="M223,216.86c18.75-.32,6.68-.08,18.75-.32,3.38-.06,6.29-9.53,5.21-9.62-7.17-.61.85-.12-21.49-.52Z"/>
      <path class="cls-3" d="M214.16,206.31c-12.67-.23-26.55-2.34-43.62-3.27-4.21-.23-12.1-.7-23.21-1.13a213.8,213.8,0,0,0-23.18.16,59.37,59.37,0,0,0-7.63.7c-1.08.31-1,2.71,0,3.37,3.11,2.22,4.57,2.91,15,3.92,5.43.53,8.14.79,9,.82,11.36.43,16.47,1,28.32,1.44,9.85.37,29.51,2.32,45.42,3.5Z"/>
      <path class="cls-3" d="M257.31,207.46c1,.36,40.51.41,56,1.5,1.08.08,1.63,2.67,2.75,4.42,1.93,3,9.5,7.2,12.57,8.21.89.29-5.79-.32-6.58-.25-3,.25-66.7-.88-66.78-1.83C255.06,217,256.3,207.07,257.31,207.46Z"/>
      <path class="cls-3" d="M352.33,219.56c1.34.79,8.45,1.18,11.34,3,1.09.67,12.54.41,14.41-.22,1-.33,10.39-6.06,11.91-7.75.46-.51-1.69-.81-4.69-1.09-2.68-.26-12.7.5-17.43.62-2.16,0-5.08,1.72-6.12,1.93C357.85,216.8,351.61,219.14,352.33,219.56Z"/>
      <path class="cls-3" d="M406.52,215.6c-.46,1.55,3,4.6,2.74,8.79-.06,1.32-.45-.28,0,1.84.12.62,7.72.27,9.06.37,32.38,2.62,63.67,4.94,95.31,7.26,0,0,31.41,1.35,31.59-.54.06-.6-2.41-2.8-7.26-6.57-3.14-2.44-7.81-4-9-4C521.37,222.89,407.37,212.69,406.52,215.6Z"/>
    </g>
    <path class="cls-1" d="M247.69,207.68c.54-.09,8.29-1.7,9.56.35.69,1.11-2.87,12.38-4.46,12.91a7.27,7.27,0,0,1-8-3.09C242.84,214.21,245.09,213.57,247.69,207.68Z"/>
    <path class="cls-1" d="M247.76,344.36c3.45,2.71,31.33,14.55,44.21,15.2,10.19.52,26-.39,41.94,0,10.14.25,25.07-1.15,46.62-12.24,18.16-9.34,17.88-9.28,38.63-21,21.37-12.09,27.95-6.38,44.36-19.45,10-7.95,17.55-24.23,22.42-28.15,3.21-2.6,23.14-20.78,38.59-21.5,28.72-1.32,72.53,3.11,97.12,35.74,28.49,37.82,18.9,75-14.25,101.71-31.83,25.62-101.42,16.17-110.07,5.78-11.15-13.4-21.43-19.28-28.49-37.71-4.58-12,.08-34.66,10.47-56.24,4.85-10.06,13.32-17.93,13.31-17.94a70.9,70.9,0,0,1-18.45,19.61c-5.58,4-6.58,3.35-18.94,9.78,0,0-13.11,6.82-27.33,16.2-11.75,7.74-18.2,13.27-22.66,16.6-14.56,10.89-74.66,20.64-106,18.06-6-.49-46.13-8.29-57.31-16.81"/>
    <g>
      <path class="cls-4" d="M395.37,239.13c-.94,1.81-.4,4.83,1.17,5.67a26.9,26.9,0,0,0,12.9,2.8,22.61,22.61,0,0,0,13.37-5c2-1.53,3.08-4.14,2.37-8.08-.12-.66-1.42-4.9-3.66-6.91-3.35-3-8.57.05-10.86,1.12-5.71,2.67-2.15,2-7.49,4A14.58,14.58,0,0,0,395.37,239.13Z"/>
      <path class="cls-4" d="M367.38,231.34c2.78-4.35,5.13-6.49,7.41-7.65,4.76-2.42,7.9-4.19,11.15-5.91,2.88-1.53,3-2.13,5.73-3.43a12.83,12.83,0,0,1,8.78-1.07c.83.21,6,1.53,7.93,6.54a10.35,10.35,0,0,1-1.15,9.7c-2.38,3.17-4.63,3-10.9,6.35-5.34,2.88-5.25,3.51-10.4,5.91a30.7,30.7,0,0,1-10.47,2.66,35.63,35.63,0,0,1-13.85-1.39c-1-.29-6.43-1.84-6.29-3.14s5.08-.35,8.89-3.83C365.45,234.93,365.43,234.38,367.38,231.34Z"/>
      <path class="cls-4" d="M481.92,189.4a45.22,45.22,0,0,1-7.58,7.95c-1.8,1.48-4.76,3.68-16.54,8.86-9.75,4.29-14.73,6.45-20,7.21-3.06.45-6.24.4-12.6.3-7.62-.11-12.63-.21-18.87-1.79-4.77-1.21-4.47-1.81-8.87-2.73a42.86,42.86,0,0,0-14.35-.69c-4.31.58-5.47,1.53-14.74,5-7.92,3-13.83,4.82-15.07,5.2-12.47,3.85-17.39,4.06-21.68,3.45a25.18,25.18,0,0,1-6.78-1.91c-2.51-1.11-7.28-3.21-9.35-8.07a12.39,12.39,0,0,1-1-4.46l.12-2.08c1.63-4.33,5.74-6,7.78-7.26,3.71-2.26,6.82-3.33,11.8-4.78,7.63-2.21,9-1.5,15.62-3.82,4.34-1.53,3.67-1.81,7.7-3.12,6-2,8.34-1.61,13.74-3.27a48.6,48.6,0,0,0,9.4-4l16.13-4.53a31.87,31.87,0,0,0-7.42.18c-6.19.88-8.65,3.13-13.53,5-8.26,3.15-16.1,2.36-20.85,1.88-8.11-.81-9.06-2.85-14.73-2.07-4.81.67-5.67,2.35-12.66,5-7.63,2.85-8.63,1.61-16.49,4-2.84.87-2.53,1-19.13,8.75-9.27,4.33-12,6.27-17.1,7.1-4.46.74-8.89,1.42-11.37,1.22l-17.47,1c-7.2-3.38-4-8-2-9.56,3.58-2.81,8.87-3.46,24.07-10,.91-.39,3.44-1.49,6.66-3.09a186.47,186.47,0,0,0,16.87-9.73A171.62,171.62,0,0,1,310,164.83c12.23-5.67,15.7-5.76,31.13-12.83,3.92-1.8,6-2.76,9.05-4.36,9.42-5,10.78-7.12,15.51-8.66,5.47-1.78,8.2-.4,16.58.12,6.54.41,8.88-.18,25.52-2,7.13-.77,22.18-2.41,33.77-3.22,18.89-1.33,32.94-.8,47-.26,24,.92,31.81,2.77,34.63,3.49,6.24,1.59,10.72,3.3,25.62,9.93,24.37,10.82,44.33,20.44,50.3,23.32,23.89,11.53,26.35,13,35.81,16.94,12.1,5.08,16.56,6.3,31.37,11.86,7.52,2.82,29.3,11,49,20.07a433.4,433.4,0,0,1,52.76,29"/>
      <path class="cls-4" d="M438.52,213.3c4.15.87,9.86,3,12.44,3.44a86.61,86.61,0,0,0,15.41,1.36,66.3,66.3,0,0,0,7.07-.52l2.22-.74a54.83,54.83,0,0,0,8-5.2c3.56-2.79,4.35-4.13,6.62-4.65,2.86-.66,4.85.71,9.74,2.88,4.53,2,1,0,12.9,4.7,7,2.74,13,5.32,15,6.2,11.4,5.11,17.51,13.28,28.94,20.43,7.42,4.64,4.46,3.25,54,32.86,7.74,4.63,10.86,6.52,14.55,8.81,5.62,3.49,18.21,11.33,31.75,20.83,4,2.79,8.24,5.87,42.93,33,18.17,14.21,16.59,13.05,18.83,14.75a466.11,466.11,0,0,0,52.37,34.33"/>
      <path class="cls-4" d="M319,222.47c-1.77,2.53,5.07,10.4,9,14.12a14.16,14.16,0,0,0,7.61,4.23c4,1,5.25,1,11.79.1,5.43-.77,16.63-3.43,18.79-7.55.39-.74.73-4.84-.63-8-2.06-4.81-9.83-5.57-11.71-5.42-8.62.68-9.6,1.34-18.93,2.53S320.44,220.39,319,222.47Z"/>
      <path class="cls-4" d="M317.52,206.4c-.44,3.61,2.49,6.35,3.14,6.92,4.59,4,11,0,11.91-.34a17.49,17.49,0,0,0,7.42-3.87c2.65-2.53.94-8.06-1.93-10.32-2.08-1.64-4.6-1.36-8.18-1-2.28.25-5.4,1.7-9.12,3.45A6.66,6.66,0,0,0,317.52,206.4Z"/>
      <path class="cls-4" d="M386.38,226a7.36,7.36,0,0,0,4.45,7.54c1.52.56,2.8.28,5.05-.25,4.08-1,7.43-1.75,9.08-4.88a8.81,8.81,0,0,0-6.52-12.54c-4.88-.57-8.43,4.11-10.21,6.46A7.55,7.55,0,0,0,386.38,226Z"/>
      <path class="cls-4" d="M409.56,236.85a5.56,5.56,0,0,0,1.84,6.3c2.05,1.44,4.53.6,6,.12,1.16-.39,4-1.34,4.95-4,1.15-3.06-.54-7.14-3.17-8-1.86-.58-3.7.64-6.29,2.35C411.08,234.84,410.08,235.5,409.56,236.85Z"/>
      <path class="cls-4" d="M342.64,233.26c-.34,2.23,1.72,4.49,3.63,5.49a8.55,8.55,0,0,0,4.8.66c4.82-.37,10.52-2.7,10.38-4.78-.07-1.08-1.62-.93-3.31-3C356,229,357,226.84,355.42,226s-3.62.41-7.58,2.77C344.53,230.7,342.87,231.72,342.64,233.26Z"/>
    </g>
    <g>
      <line class="cls-5" x1="245.74" y1="190.02" x2="244.05" y2="179.58"/>
      <line class="cls-5" x1="236.33" y1="208.92" x2="225.79" y2="214.33"/>
      <line class="cls-5" x1="237.29" y1="214.8" x2="233.46" y2="223.44"/>
      <line class="cls-5" x1="227.11" y1="195.96" x2="237.87" y2="200.47"/>
      <line class="cls-5" x1="239.75" y1="193.22" x2="233.64" y2="187.07"/>
      <line class="cls-5" x1="253.24" y1="187.64" x2="255.5" y2="178.67"/>
    </g>
    <path class="cls-1" d="M228.58,278.43c-4.31-.78-6.72-6.28-6.47-8.55a24.07,24.07,0,0,0-.52-7.59c-1.23-6.85-1.72-19.92-1.38-29.18.26-7.17.39-10.75,1.38-15,1.91-8.27,5-12.81,2.94-15-1.43-1.54-4.88-1.46-7.08,0-3.57,2.37-3.24,7.92-3.11,20.72,0,0,.07,7.33,0,18.82-.08,12.41-.9,24.5,1.72,34.54a10.54,10.54,0,0,0,4,6.56c2.14,1.83,7.51,3.54,9.32,2.93"/>
    <path class="cls-6" d="M120.33,442.32q.14-10.68.26-21.37c.2-16.73.31-25.22.52-31.21.81-23.27-.12-24.14,1.55-26.93,4.42-7.38,13.07-11.32,27.71-18,5.9-2.69,5.89-2.2,10.49-4.53,8.3-4.21,11.69-7.52,21.5-12.95,3.6-2,5.4-3,7.77-4,8-3.48,12.94-3.82,21.75-5.95,3.94-1,11.5-4.29,18.17-6.73"/>
    <path class="cls-6" d="M240.79,307c5-3.19,10.92-3.2,13.35-1a6.14,6.14,0,0,1,1.55,2.59c1,3.36-1.22,6.5-1.94,7.51-3.47,4.89-11.11,5.27-12.19,5.31"/>
    <path class="cls-6" d="M241.56,353.15c3.19,2.53,4.87,7.57,3.38,10.1-2,3.43-7.53,2.67-8,2.59a17.42,17.42,0,0,1-4.95-1.77"/>
    <path class="cls-6" d="M206.59,357.18c-1.86-1.6-6.14-4.68-8.27-3.9-1.28.47-1.61,1.58-2.59,3.11-3.6,5.63-8.18,4.67-10.87,10-.27.52-1.9,3.73-.65,5.18.83,1,2.57.72,3.11.65,4.19-.59,5-4.76,9.19-6.09a13.27,13.27,0,0,1,6.34-.13"/>
    <path class="cls-6" d="M239.76,325.18c-4.14,3.24-8.09,8.25-8.29,8.93-.39,1.41-1.36,4.91.52,8.29,1.72,3.08,5.56,5.64,8.81,4.79,2-.52,4-2.16,6.36-5.95,1.73-2.77,3.26-4.85,3.53-7.26.15-1.34-.8-4.57-3.16-7C244.77,324.16,240.27,324.78,239.76,325.18Z"/>
    <path class="cls-6" d="M171.65,403.52c2.71-.08,1.5-6.41,8-12.17,3-2.61,8.56-6,11.65-9.19a25,25,0,0,0,2.5-3c.88-1.28.95-1.7,1.82-3a32.34,32.34,0,0,1,2.8-3.37,42.34,42.34,0,0,0,3.31-4.35,18.76,18.76,0,0,0,2.52-7.17c1-5.19,4.73-9.67,11.78-18.13,2.94-3.53,6.84-7.1,14.64-14.25,4.65-4.26,7.33-6.49,11-6.34a10.74,10.74,0,0,1,7.12,3.5c2.66,3,2.63,6.84,2.59,8.54-.15,6.29-3.77,10.32-14.12,22.92-6.31,7.69-9.48,11.55-10.23,12.82-4.65,7.84-6.24,15.11-8.16,24.22-1.85,8.79-1.53,11-2.85,18.9a148.23,148.23,0,0,1-7.89,28.79"/>
    <path class="cls-6" d="M233.33,326.69c-9,5.52-21.69,11-25.38,12.6-4,1.73-5.88.15-8.29,1.9s-7.27,7.55-14.33,13.47C174.17,364,172.81,364.16,170,368"/>
    <path class="cls-7" d="M247.69,369.47v48.7l-4.64-4.64a.67.67,0,0,0-1,0,.79.79,0,0,0-.2.48.77.77,0,0,0,.2.48l5.8,5.8a.67.67,0,0,0,1,0l5.8-5.8a.68.68,0,1,0-1-1l-4.64,4.64v-48.7a.68.68,0,1,0-1.36,0Z"/>
  </g>
</svg>
