<svg xmlns="http://www.w3.org/2000/svg" width="792" height="444.56" viewBox="0 0 792 444.56">
  <defs>
    <style>
      .cls-1 {
        fill: #9376a8;
      }

      .cls-2, .cls-3, .cls-4, .cls-5 {
        fill: none;
        stroke-miterlimit: 10;
      }

      .cls-2 {
        stroke: #91d2c4;
        stroke-width: 2px;
      }

      .cls-3, .cls-5 {
        stroke: #1c75bc;
      }

      .cls-4 {
        stroke: #ec008c;
      }

      .cls-5 {
        stroke-linecap: round;
        stroke-width: 1.5px;
      }

      .cls-6 {
        fill: #1c75bc;
      }
    </style>
  </defs>
  <g id="Layer_12" data-name="Layer 12">
    <g>
      <path class="cls-1" d="M188.27,195.71c-7.3-2.12-94.58-32.74-109-39.65a70.3,70.3,0,0,1-14.16-8.46c-.37-.26-.77-2.6.34-2.59,5.73.07,12,1.74,20,3.8,9.44,2.44,7.59,2.58,17.61,5.27,8.5,2.28,79.34,27.71,89.35,30.56.75.21-1.31,1.06-2.59,3.11C187.53,191.27,189.66,196.11,188.27,195.71Z"/>
      <path class="cls-1" d="M203.55,189.21a18.74,18.74,0,0,0,4.67,1.13c1,.11-1,1.63-.69,2.33.55,1.15,4.31-.46,5.67,1,1.06,1.16-.45,4.75-1,5.83a5.8,5.8,0,0,1-4.81,3.41c-3.57-.48-6.92-2.68-9.61-4.4-1.66-1.07,1.17-2.36.73-5.44-.09-.59,2.15-3.07,2.42-3.69C201.56,187.88,202.19,188.8,203.55,189.21Z"/>
      <path class="cls-1" d="M216,205.33c12.17,5.87,39.9,13.93,52.68,18.24,1.2.41-1.56-2.77-1.38-6.64.14-3.26,2.69-6.49,1-7-21.49-6.56-37.64-12-45.32-13.84-.77-.18-.44,1.84-1.07,3.44C220.33,203.59,214.66,204.7,216,205.33Z"/>
      <path class="cls-1" d="M414.11,266c1.66.56,100.32,33.54,115,38.72,1.21.43,8.27,4.47,17.48,11.79,2.67,2.12,5.41,2.72,5.13,2.89-1.17.69-138.17-43.23-152.89-52.95C397.3,265.4,412.71,265.49,414.11,266Z"/>
    </g>
    <path class="cls-2" d="M204.59,205.27c.67-2.28,4.46-1.32,7.25-4.49,2.33-2.64,2.89-6.94,1.38-8.29s-4.62.46-5-.34c-.29-.6,1.18-2.17,2.93-2.94a8,8,0,0,1,8.29,1.39c2.93,2.69,2.47,6.83,2.42,7.25-.35,2.69-1.7,2.75-10.71,11.22a3.91,3.91,0,0,1-2.76,1.38C206.25,210.33,204,207.28,204.59,205.27Z"/>
    <path class="cls-2" d="M191.29,206c1.69.34,4.7-4,5.88-8.29,1.06-3.87.35-6.74,2.59-8.46,1.35-1,2.71-.82,2.93-1.72.3-1.22-1.77-3.16-4-3.63a7.12,7.12,0,0,0-5.53,1.56c-4.1,3.13-4,9.17-4,12.43C189.24,198.86,189.33,205.58,191.29,206Z"/>
    <path class="cls-2" d="M199.76,201.47c-2.55-.43-4.69,7.14-7.77,6.74-2.06-.27-2.65-3.83-4.32-3.63-1.12.14-2,1.88-2.07,3.28-.25,3.44,3.91,5.82,4.31,6s5.25,2.8,9.15,0a8.08,8.08,0,0,0,3.11-5.7C202.47,205.43,201.45,201.76,199.76,201.47Z"/>
    <path class="cls-2" d="M198.2,214.43c5.53,65,12.09,132.14,17.61,197.17"/>
    <path class="cls-2" d="M191.06,214.43C195.67,280,202.77,349,207.38,414.54"/>
    <path class="cls-2" d="M201.2,211.43c2.19,3.34,7,11.47,9.09,18.19,3.56,11.25,2.76,20.41,2.59,25-.76,19.82,6.67,38.78,11.91,48.35,14.23,26,42.76,38.17,44.38,36.26.9-1.08-5.53-7.95-10.36-13.12-11.65-12.46-15.08-12-22.28-20-4.95-5.55-17.37-19.46-15.71-35.23.82-7.72,4.68-12.77,1.55-19.33-2.16-4.54-6.06-6.44-5.87-10.88.16-3.66,2.92-4.82,4-7.94,1.24-3.67-1.71-12.06-12.08-22.28"/>
    <path class="cls-3" d="M104.1,440c7.13-3.36,13-6.32,17.35-8.55,11.12-5.72,20.34-10.5,31.34-17.87,5.56-3.72,6.9-6.39,11.92-8.55,4.55-2,4.24-.59,17.87-3.19,6.28-1.2,10.55-2.3,20.46-4l2.07-.35"/>
    <path class="cls-3" d="M185,439.83a74.59,74.59,0,0,1,4.41-6.64,71.91,71.91,0,0,1,6.3-7.43,66.8,66.8,0,0,1,7.08-6.3,49.72,49.72,0,0,1,5.95-4.06c3.11-1.78,5-2.86,7.69-3.37,2.51-.47,5.75-1.07,8.29.87,3,2.29,3.41,6.88,2.33,9.93a8.66,8.66,0,0,1-1.64,2.76c-5.17,6-12.32,13.69-13.39,14.85"/>
    <path class="cls-3" d="M226.82,423.36c1.13-.12,5.67-.24,8.59,1.8a7.4,7.4,0,0,1,3.37,4.4,7.08,7.08,0,0,1-1.13,5.27,8.22,8.22,0,0,1-5.09,3.62,6.83,6.83,0,0,1-2.5,0c-2.81-.46-8.54-1.42-14.43-1.95"/>
    <path class="cls-3" d="M161.08,440a25.1,25.1,0,0,0,7.94-9.24c1.21-2.52,2.16-5.73,4.92-6.65a7.35,7.35,0,0,1,3-.09c2.72.17,4.86-.4,9.16-1.55,3.51-.94,3.5-1.24,14.15-5.18,2.72-1,3.89-1.41,6.22-2.33,3.17-1.24,5.76-2.34,7.51-3.11l3.54-.43c1.34-.17,4.06-.09,8.37-.26.6,0,4.9-2.41,5.18-5.78.12-1.38-.72-1-.9-5,0-.68-2-2.24-2.13-2.33-2.94-1.54-4.78-2.17-12.25-1"/>
    <path class="cls-3" d="M220.82,414.54c-2.38,0-4,1.89-7.12,5.61a16.88,16.88,0,0,0-3.58,6,6,6,0,0,0,4.1,8.51,3.87,3.87,0,0,0,1.59.3c2-.15,3.06-2.42,6.13-5.49s3.11-3.24,4.23-5.56a7.15,7.15,0,0,0,.43-5.31A6.23,6.23,0,0,0,220.82,414.54Z"/>
    <path class="cls-4" d="M246.46,216.84a8.18,8.18,0,0,0,2.76,4.32,8.7,8.7,0,0,0,4.75,1.72,13.29,13.29,0,0,0,7.34-1.29"/>
    <path class="cls-4" d="M251.38,204.68c1.37-2.17,5.5-9.62,6.91-11.84,9.55-15,9.63-15.12,10.18-16.23,3-6,6.88-11.63,9.16-18a7.37,7.37,0,0,1,3-4.05,6.92,6.92,0,0,1,4.14-.78c7.85.68,39,4.54,45.41,5.18,3.26.32,6.56.52,6.56.52,6,0,9.17.19,11.14.26,6.81.22,9.77,3.43,19.68,8.2,4.28,2.05,4.84,2,18.13,6.9,7.8,2.89,7.47,2.86,42.91,16.67,21.22,8.26,31.9,12.42,35.57,13.72,11.28,4,12.1,3.92,36.86,12,21,6.85,31.49,10.28,37.47,12.69,15.87,6.41,15.35,7.76,39.19,18,8.32,3.56,7.45,3,26.33,10.88,20.37,8.5,20.45,8.77,25.9,10.7,13.8,4.9,17.35,4.63,31.86,9.24,9.88,3.14,16.46,5.89,29.18,11.22,21,8.81,34.29,14.4,49.12,22.62A287.84,287.84,0,0,1,791.38,349"/>
    <path class="cls-4" d="M706,439.92a175.52,175.52,0,0,0-25.9-32.55c-7.5-7.41-15.19-13.64-53.52-38.24-31.11-20-31.73-19.5-48.18-30.65C555.16,322.73,552.27,319,534.2,307c-25-16.67-21.57-11.09-53.87-31.08-20.93-12.95-27-18-38.85-18.3-13.28-.3-12.86,6-32.11,8.29-1.87.22-28.61,3.18-47-7.6-6.32-3.71-11.39-7.43-11.39-7.43-7.47-5.46-9.6-5.07-14.33-7.55-2.68-1.4-3.2-.71-14.25-2.72a143.32,143.32,0,0,1-24.09-6.34c-7.34-.76-18.58-4.34-21.94-5-3.17-2-5-1.92-6.8-5.11a12.89,12.89,0,0,1-1.56-6.41,17,17,0,0,1,1.36-5.57,23,23,0,0,1,2.07-4.6c.6-.9,6.46-4.55,13.21-3.89,15.09,1.49,21.13,2.26,23.12,3.14,6.5,2.91,6.52,1,13.08,3.65,9.57,3.89,10.12,2.49,20.72,5.91,1.39.45,4,1.35,5.76.06s1.62-3.69,1.62-4.6a11.61,11.61,0,0,0-6.09-9.71c-3.1-1.68-4.38-.39-8.29-1.23-8.51-1.82-15.27-10.65-19.36-16-1.88-2.46-3.06-4.39-5.69-5.38-3.38-1.26-4.95.59-9.33-.51-4.16-1-6.1-3.58-7.25-2.72-.77.58-2.3,3.36-3,5.37-.56,1.68-1.86,7-5.31,9.32-3.15,2.17-3.55,2.26-4.72,4.8a40.34,40.34,0,0,0-1.47,4.86c-.49,1.88-2.19,3.69-5.67,5.35"/>
    <path class="cls-4" d="M284.68,191c6.41-2.82,20.91-7.16,27.32-10"/>
    <path class="cls-4" d="M310.31,207.82c3.92-2.34,13.07-7.76,17-10.09"/>
    <path class="cls-4" d="M271,226.09c-.91,3.1-2.64,9.35-.81,14.1,1,2.52,4.23,5.61,10.75,11.79,9.77,9.26,6.9,4.89,11.13,9.32,1.28,1.33,2.84,3.09,5.18,3.24,2.67.17,4.78-1.82,5.44-2.53,3.37-3.57,2.58-9.07,2.27-11.2-1.29-8.95-12-16.31-14.28-17.93"/>
    <path class="cls-4" d="M300.54,235c3.8,10.95,14.23,29.78,18,31a30.85,30.85,0,0,0,7.3,1.9c7.6,1.3,9.57,2.93,15,2.84,2.73,0,5.17-.12,7.32-1.87a8.81,8.81,0,0,0,3.1-6.35c-1.18-4.68-3.17-8.66-8.43-9.47-4.93-.77-5.49-.28-10.54-1.67s-3.43-3.08-5-5.24-.63-3.51-1.19-4.93"/>
    <path class="cls-4" d="M344.94,270.4c4.72,3.33,10.3,5.48,12.91,5.34,3.79-.21,5.54-.61,11-.71,3.23-.06,4.07-.79,5.16-1.75,2.07-1.83,1.12-7.29-1.75-9.69-3.19-2.67-6.63.36-11.66-2.1-3-1.45-5-6-6-8.12"/>
    <path class="cls-4" d="M274.19,207.24c7.39-.43,9.78-.43,13.93-.39a8.22,8.22,0,0,1,7.25,4.4c2.18,3.87.49,9.57-3,12.17-1.41,1.06-2.75,1.31-5.38,1.75-5.28.9-12.9,2.19-16.12-2-1.58-2.07-1.45-4.63-1.36-6.41C269.59,215.58,269,207.53,274.19,207.24Z"/>
    <path class="cls-4" d="M284.49,252.82c-.31-.59,0-3.19,2-4.86a5.39,5.39,0,0,1,3.69-1.29c3.7.28,5.48,5.28,5.95,6.6.56,1.56,1.4,3.92.2,5.83-.07.1-1,2.54-2.59,1.88A17.4,17.4,0,0,1,284.49,252.82Z"/>
    <path class="cls-4" d="M328.52,267.39a6.21,6.21,0,0,1-1.1-4.92,7.19,7.19,0,0,1,2.59-4,10.11,10.11,0,0,1,5.7-2.52c.73-.08,4.35-.44,6.86,1.94a4.94,4.94,0,0,1,1.62,2.59c.32,1.61-.69,2.11-.72,4,0,2.4,1.54,3.37,1,4.47-.45.87-1.81,1.23-3.44,1.1C334.6,269.55,334.09,269.37,328.52,267.39Z"/>
    <path class="cls-4" d="M361.73,273.54c-1.75-.13-1.69-3.43-1-5.05s2.52-2.16,6-3.05c2.6-.65,3.13-.22,3.31,0,.3.4,0,.77-.07,1.82-.14,2.44,1.35,3.63.65,4.85a2.1,2.1,0,0,1-.91.78C368.94,273.36,366.34,273.87,361.73,273.54Z"/>
    <path class="cls-2" d="M226.92,411.6c7.85,1.71,24.65,4,39.83,2.77,24.44-2,35.4-10.7,66.65-20A323.57,323.57,0,0,1,381.74,384a494.77,494.77,0,0,1,75.63-5.18c25,.63,16.05.77,38.33-39.35,10.15-18.28,35.28-31.18,59.37-14.78,38.53,26.24,56.4,37.64,63.65,63.54,6,21.6-11.4,53.72-57.76,55.07-86.73,2.53-63.56-55.39-78-54.47-13.59.86-20.24-2-31.42-3.45-7.1-.94-9.58-.49-50.08,4.83-41.7,5.48-43.26,5.55-49.72,7.25-14.44,3.81-13.37,5.25-40.06,13.82-19.37,6.22-29.29,9.36-40.75,10.7-16.64,2-33.89.78-43.31-1.12"/>
    <g>
      <line class="cls-5" x1="228.15" y1="412.33" x2="235.66" y2="405.87"/>
      <line class="cls-5" x1="222.58" y1="406.92" x2="227.55" y2="397.01"/>
      <line class="cls-5" x1="242.19" y1="417.52" x2="231.83" y2="419.29"/>
      <line class="cls-5" x1="197.81" y1="405.15" x2="204.46" y2="411.67"/>
      <line class="cls-5" x1="204.69" y1="400.65" x2="211.46" y2="409.46"/>
      <line class="cls-5" x1="216.74" y1="407.34" x2="214.97" y2="396.83"/>
    </g>
    <path class="cls-6" d="M224.38,338.54v48.71l-4.64-4.64a.64.64,0,0,0-1,0,.64.64,0,0,0,0,.95l5.8,5.8a.66.66,0,0,0,.95,0l5.8-5.8a.68.68,0,0,0-1-.95l-4.64,4.64V338.54a.68.68,0,0,0-1.36,0Z"/>
  </g>
</svg>
