<svg xmlns="http://www.w3.org/2000/svg" xmlns:xlink="http://www.w3.org/1999/xlink" width="1024" height="768" viewBox="0 0 1024 768">
  <defs>
    <style>
      .cls-1, .cls-2, .cls-21, .cls-22, .cls-23, .cls-24, .cls-25, .cls-32, .cls-36, .cls-37, .cls-38, .cls-39, .cls-47, .cls-48, .cls-49, .cls-50, .cls-51, .cls-56, .cls-67, .cls-72, .cls-81, .cls-88, .cls-89, .cls-90, .cls-91, .cls-92 {
        fill: none;
      }

      .cls-2 {
        stroke: #231f20;
        stroke-width: 0.72px;
      }

      .cls-3, .cls-79 {
        fill: #d8d8d8;
      }

      .cls-4 {
        font-size: 27px;
      }

      .cls-26, .cls-33, .cls-4, .cls-43, .cls-57, .cls-64, .cls-68, .cls-69, .cls-70, .cls-85, .cls-86 {
        fill: #787878;
      }

      .cls-15, .cls-26, .cls-4, .cls-64, .cls-69, .cls-70, .cls-96 {
        font-family: Montserrat-Bold, Montserrat;
        font-weight: 700;
      }

      .cls-5 {
        letter-spacing: -0.01em;
      }

      .cls-6 {
        font-size: 20px;
        font-weight: 400;
      }

      .cls-33, .cls-43, .cls-57, .cls-6, .cls-85, .cls-86 {
        font-family: Montserrat-Regular, Montserrat;
      }

      .cls-7 {
        letter-spacing: -0.02em;
      }

      .cls-8 {
        letter-spacing: -0.01em;
      }

      .cls-9 {
        letter-spacing: -0.01em;
      }

      .cls-10 {
        letter-spacing: -0.01em;
      }

      .cls-11 {
        letter-spacing: 0em;
      }

      .cls-12 {
        letter-spacing: -0.02em;
      }

      .cls-13 {
        letter-spacing: 0em;
      }

      .cls-14 {
        letter-spacing: -0.01em;
      }

      .cls-16 {
        letter-spacing: 0em;
      }

      .cls-17 {
        letter-spacing: 0em;
      }

      .cls-18 {
        letter-spacing: 0em;
      }

      .cls-19 {
        letter-spacing: 0em;
      }

      .cls-20 {
        letter-spacing: 0em;
      }

      .cls-21 {
        stroke: #969696;
        stroke-width: 1.63px;
      }

      .cls-21, .cls-22, .cls-23, .cls-24, .cls-25, .cls-32, .cls-36, .cls-37, .cls-38, .cls-39, .cls-47, .cls-48, .cls-49, .cls-50, .cls-51, .cls-56, .cls-67, .cls-72, .cls-79, .cls-81, .cls-85, .cls-86, .cls-88, .cls-89, .cls-90, .cls-91, .cls-92 {
        stroke-miterlimit: 10;
      }

      .cls-22, .cls-23, .cls-24, .cls-25, .cls-32, .cls-36, .cls-37, .cls-38, .cls-39 {
        stroke: #fff;
      }

      .cls-22 {
        stroke-width: 0.99px;
      }

      .cls-23 {
        stroke-width: 3.97px;
      }

      .cls-24 {
        stroke-width: 2.55px;
      }

      .cls-25 {
        stroke-width: 2.18px;
      }

      .cls-26 {
        font-size: 15px;
      }

      .cls-27 {
        letter-spacing: -0.03em;
      }

      .cls-28 {
        letter-spacing: -0.01em;
      }

      .cls-29 {
        letter-spacing: -0.01em;
      }

      .cls-30 {
        letter-spacing: 0.01em;
      }

      .cls-31 {
        letter-spacing: 0em;
      }

      .cls-32 {
        stroke-width: 5.92px;
      }

      .cls-33 {
        font-size: 10px;
      }

      .cls-34 {
        letter-spacing: -0.01em;
      }

      .cls-35 {
        letter-spacing: 0.01em;
      }

      .cls-36 {
        stroke-width: 4.93px;
      }

      .cls-37 {
        stroke-width: 3.99px;
      }

      .cls-38 {
        stroke-width: 2.57px;
      }

      .cls-40 {
        letter-spacing: -0.01em;
      }

      .cls-41 {
        letter-spacing: -0.06em;
      }

      .cls-42 {
        letter-spacing: 0em;
      }

      .cls-43, .cls-85, .cls-86 {
        font-size: 12px;
      }

      .cls-44 {
        letter-spacing: -0.05em;
      }

      .cls-45 {
        letter-spacing: -0.01em;
      }

      .cls-46 {
        letter-spacing: 0em;
      }

      .cls-47, .cls-72, .cls-79, .cls-89 {
        stroke: #d37928;
      }

      .cls-47, .cls-48, .cls-50, .cls-51 {
        stroke-width: 1.73px;
      }

      .cls-48, .cls-90 {
        stroke: #91642e;
      }

      .cls-49, .cls-91 {
        stroke: #1f9647;
      }

      .cls-49 {
        stroke-width: 1.73px;
      }

      .cls-50, .cls-92 {
        stroke: #945e9e;
      }

      .cls-51, .cls-88 {
        stroke: #c32026;
      }

      .cls-52, .cls-53, .cls-54, .cls-55 {
        opacity: 0.2;
      }

      .cls-52 {
        fill: url(#_10_lpi_10_);
      }

      .cls-53 {
        fill: url(#_10_lpi_10_3);
      }

      .cls-54 {
        fill: url(#_10_lpi_10_5);
      }

      .cls-55 {
        fill: url(#_10_lpi_10_7);
      }

      .cls-56, .cls-67, .cls-81, .cls-85, .cls-86 {
        stroke: #787878;
      }

      .cls-56 {
        stroke-width: 0.98px;
      }

      .cls-57 {
        font-size: 13.37px;
      }

      .cls-58 {
        fill: #945e9e;
      }

      .cls-59 {
        fill: #d37928;
      }

      .cls-60 {
        fill: #c32026;
      }

      .cls-61 {
        fill: #1f9647;
      }

      .cls-62 {
        fill: #91642e;
      }

      .cls-63 {
        fill: #fff;
      }

      .cls-64 {
        font-size: 13.63px;
      }

      .cls-65 {
        letter-spacing: 0.01em;
      }

      .cls-66 {
        letter-spacing: 0em;
      }

      .cls-67 {
        stroke-width: 2.37px;
      }

      .cls-69 {
        font-size: 9.48px;
      }

      .cls-70 {
        font-size: 11.84px;
      }

      .cls-71 {
        letter-spacing: -0.02em;
      }

      .cls-72, .cls-79, .cls-85, .cls-86 {
        stroke-linecap: round;
      }

      .cls-72 {
        stroke-width: 0.79px;
        stroke-dasharray: 0.79 0.79;
      }

      .cls-73 {
        letter-spacing: -0.03em;
      }

      .cls-74 {
        letter-spacing: -0.02em;
      }

      .cls-75 {
        letter-spacing: -0.01em;
      }

      .cls-76 {
        letter-spacing: 0.01em;
      }

      .cls-77 {
        letter-spacing: 0em;
      }

      .cls-78 {
        letter-spacing: 0em;
      }

      .cls-79 {
        stroke-width: 0.76px;
        stroke-dasharray: 0.76;
      }

      .cls-80 {
        fill: #231f20;
      }

      .cls-81 {
        stroke-width: 0.91px;
      }

      .cls-82 {
        letter-spacing: -0.01em;
      }

      .cls-83 {
        letter-spacing: 0em;
      }

      .cls-84 {
        letter-spacing: 0em;
      }

      .cls-85, .cls-86 {
        stroke-width: 0.75px;
        stroke-dasharray: 1;
      }

      .cls-86 {
        letter-spacing: -0.02em;
      }

      .cls-87 {
        letter-spacing: 0em;
      }

      .cls-88, .cls-89, .cls-90, .cls-91, .cls-92 {
        stroke-width: 2px;
      }

      .cls-93 {
        letter-spacing: -0.02em;
      }

      .cls-94 {
        letter-spacing: -0.05em;
      }

      .cls-95 {
        letter-spacing: 0.01em;
      }

      .cls-96 {
        letter-spacing: -0.01em;
      }
    </style>
    <pattern id="_10_lpi_10_" data-name="10 lpi 10%" width="72" height="72" patternTransform="translate(-425.28 28.93) scale(1.05 0.91)" patternUnits="userSpaceOnUse" viewBox="0 0 72 72">
      <rect class="cls-1" width="72" height="72"/>
      <g>
        <line class="cls-2" x1="71.75" y1="68.4" x2="144.25" y2="68.4"/>
        <line class="cls-2" x1="71.75" y1="54" x2="144.25" y2="54"/>
        <line class="cls-2" x1="71.75" y1="39.6" x2="144.25" y2="39.6"/>
        <line class="cls-2" x1="71.75" y1="25.2" x2="144.25" y2="25.2"/>
        <line class="cls-2" x1="71.75" y1="10.8" x2="144.25" y2="10.8"/>
        <line class="cls-2" x1="71.75" y1="61.2" x2="144.25" y2="61.2"/>
        <line class="cls-2" x1="71.75" y1="46.8" x2="144.25" y2="46.8"/>
        <line class="cls-2" x1="71.75" y1="32.4" x2="144.25" y2="32.4"/>
        <line class="cls-2" x1="71.75" y1="18" x2="144.25" y2="18"/>
        <line class="cls-2" x1="71.75" y1="3.6" x2="144.25" y2="3.6"/>
      </g>
      <g>
        <line class="cls-2" x1="-0.25" y1="68.4" x2="72.25" y2="68.4"/>
        <line class="cls-2" x1="-0.25" y1="54" x2="72.25" y2="54"/>
        <line class="cls-2" x1="-0.25" y1="39.6" x2="72.25" y2="39.6"/>
        <line class="cls-2" x1="-0.25" y1="25.2" x2="72.25" y2="25.2"/>
        <line class="cls-2" x1="-0.25" y1="10.8" x2="72.25" y2="10.8"/>
        <line class="cls-2" x1="-0.25" y1="61.2" x2="72.25" y2="61.2"/>
        <line class="cls-2" x1="-0.25" y1="46.8" x2="72.25" y2="46.8"/>
        <line class="cls-2" x1="-0.25" y1="32.4" x2="72.25" y2="32.4"/>
        <line class="cls-2" x1="-0.25" y1="18" x2="72.25" y2="18"/>
        <line class="cls-2" x1="-0.25" y1="3.6" x2="72.25" y2="3.6"/>
      </g>
      <g>
        <line class="cls-2" x1="-72.25" y1="68.4" x2="0.25" y2="68.4"/>
        <line class="cls-2" x1="-72.25" y1="54" x2="0.25" y2="54"/>
        <line class="cls-2" x1="-72.25" y1="39.6" x2="0.25" y2="39.6"/>
        <line class="cls-2" x1="-72.25" y1="25.2" x2="0.25" y2="25.2"/>
        <line class="cls-2" x1="-72.25" y1="10.8" x2="0.25" y2="10.8"/>
        <line class="cls-2" x1="-72.25" y1="61.2" x2="0.25" y2="61.2"/>
        <line class="cls-2" x1="-72.25" y1="46.8" x2="0.25" y2="46.8"/>
        <line class="cls-2" x1="-72.25" y1="32.4" x2="0.25" y2="32.4"/>
        <line class="cls-2" x1="-72.25" y1="18" x2="0.25" y2="18"/>
        <line class="cls-2" x1="-72.25" y1="3.6" x2="0.25" y2="3.6"/>
      </g>
    </pattern>
    <pattern id="_10_lpi_10_3" data-name="10 lpi 10%" width="72" height="72" patternTransform="translate(-413.39 28.93) scale(1.05 0.91)" patternUnits="userSpaceOnUse" viewBox="0 0 72 72">
      <rect class="cls-1" width="72" height="72"/>
      <g>
        <line class="cls-2" x1="71.75" y1="68.4" x2="144.25" y2="68.4"/>
        <line class="cls-2" x1="71.75" y1="54" x2="144.25" y2="54"/>
        <line class="cls-2" x1="71.75" y1="39.6" x2="144.25" y2="39.6"/>
        <line class="cls-2" x1="71.75" y1="25.2" x2="144.25" y2="25.2"/>
        <line class="cls-2" x1="71.75" y1="10.8" x2="144.25" y2="10.8"/>
        <line class="cls-2" x1="71.75" y1="61.2" x2="144.25" y2="61.2"/>
        <line class="cls-2" x1="71.75" y1="46.8" x2="144.25" y2="46.8"/>
        <line class="cls-2" x1="71.75" y1="32.4" x2="144.25" y2="32.4"/>
        <line class="cls-2" x1="71.75" y1="18" x2="144.25" y2="18"/>
        <line class="cls-2" x1="71.75" y1="3.6" x2="144.25" y2="3.6"/>
      </g>
      <g>
        <line class="cls-2" x1="-0.25" y1="68.4" x2="72.25" y2="68.4"/>
        <line class="cls-2" x1="-0.25" y1="54" x2="72.25" y2="54"/>
        <line class="cls-2" x1="-0.25" y1="39.6" x2="72.25" y2="39.6"/>
        <line class="cls-2" x1="-0.25" y1="25.2" x2="72.25" y2="25.2"/>
        <line class="cls-2" x1="-0.25" y1="10.8" x2="72.25" y2="10.8"/>
        <line class="cls-2" x1="-0.25" y1="61.2" x2="72.25" y2="61.2"/>
        <line class="cls-2" x1="-0.25" y1="46.8" x2="72.25" y2="46.8"/>
        <line class="cls-2" x1="-0.25" y1="32.4" x2="72.25" y2="32.4"/>
        <line class="cls-2" x1="-0.25" y1="18" x2="72.25" y2="18"/>
        <line class="cls-2" x1="-0.25" y1="3.6" x2="72.25" y2="3.6"/>
      </g>
      <g>
        <line class="cls-2" x1="-72.25" y1="68.4" x2="0.25" y2="68.4"/>
        <line class="cls-2" x1="-72.25" y1="54" x2="0.25" y2="54"/>
        <line class="cls-2" x1="-72.25" y1="39.6" x2="0.25" y2="39.6"/>
        <line class="cls-2" x1="-72.25" y1="25.2" x2="0.25" y2="25.2"/>
        <line class="cls-2" x1="-72.25" y1="10.8" x2="0.25" y2="10.8"/>
        <line class="cls-2" x1="-72.25" y1="61.2" x2="0.25" y2="61.2"/>
        <line class="cls-2" x1="-72.25" y1="46.8" x2="0.25" y2="46.8"/>
        <line class="cls-2" x1="-72.25" y1="32.4" x2="0.25" y2="32.4"/>
        <line class="cls-2" x1="-72.25" y1="18" x2="0.25" y2="18"/>
        <line class="cls-2" x1="-72.25" y1="3.6" x2="0.25" y2="3.6"/>
      </g>
    </pattern>
    <pattern id="_10_lpi_10_5" data-name="10 lpi 10%" width="72" height="72" patternTransform="translate(-399.4 28.93) scale(1.05 0.91)" patternUnits="userSpaceOnUse" viewBox="0 0 72 72">
      <rect class="cls-1" width="72" height="72"/>
      <g>
        <line class="cls-2" x1="71.75" y1="68.4" x2="144.25" y2="68.4"/>
        <line class="cls-2" x1="71.75" y1="54" x2="144.25" y2="54"/>
        <line class="cls-2" x1="71.75" y1="39.6" x2="144.25" y2="39.6"/>
        <line class="cls-2" x1="71.75" y1="25.2" x2="144.25" y2="25.2"/>
        <line class="cls-2" x1="71.75" y1="10.8" x2="144.25" y2="10.8"/>
        <line class="cls-2" x1="71.75" y1="61.2" x2="144.25" y2="61.2"/>
        <line class="cls-2" x1="71.75" y1="46.8" x2="144.25" y2="46.8"/>
        <line class="cls-2" x1="71.75" y1="32.4" x2="144.25" y2="32.4"/>
        <line class="cls-2" x1="71.75" y1="18" x2="144.25" y2="18"/>
        <line class="cls-2" x1="71.75" y1="3.6" x2="144.25" y2="3.6"/>
      </g>
      <g>
        <line class="cls-2" x1="-0.25" y1="68.4" x2="72.25" y2="68.4"/>
        <line class="cls-2" x1="-0.25" y1="54" x2="72.25" y2="54"/>
        <line class="cls-2" x1="-0.25" y1="39.6" x2="72.25" y2="39.6"/>
        <line class="cls-2" x1="-0.25" y1="25.2" x2="72.25" y2="25.2"/>
        <line class="cls-2" x1="-0.25" y1="10.8" x2="72.25" y2="10.8"/>
        <line class="cls-2" x1="-0.25" y1="61.2" x2="72.25" y2="61.2"/>
        <line class="cls-2" x1="-0.25" y1="46.8" x2="72.25" y2="46.8"/>
        <line class="cls-2" x1="-0.25" y1="32.4" x2="72.25" y2="32.4"/>
        <line class="cls-2" x1="-0.25" y1="18" x2="72.25" y2="18"/>
        <line class="cls-2" x1="-0.25" y1="3.6" x2="72.25" y2="3.6"/>
      </g>
      <g>
        <line class="cls-2" x1="-72.25" y1="68.4" x2="0.25" y2="68.4"/>
        <line class="cls-2" x1="-72.25" y1="54" x2="0.25" y2="54"/>
        <line class="cls-2" x1="-72.25" y1="39.6" x2="0.25" y2="39.6"/>
        <line class="cls-2" x1="-72.25" y1="25.2" x2="0.25" y2="25.2"/>
        <line class="cls-2" x1="-72.25" y1="10.8" x2="0.25" y2="10.8"/>
        <line class="cls-2" x1="-72.25" y1="61.2" x2="0.25" y2="61.2"/>
        <line class="cls-2" x1="-72.25" y1="46.8" x2="0.25" y2="46.8"/>
        <line class="cls-2" x1="-72.25" y1="32.4" x2="0.25" y2="32.4"/>
        <line class="cls-2" x1="-72.25" y1="18" x2="0.25" y2="18"/>
        <line class="cls-2" x1="-72.25" y1="3.6" x2="0.25" y2="3.6"/>
      </g>
    </pattern>
    <pattern id="_10_lpi_10_7" data-name="10 lpi 10%" width="72" height="72" patternTransform="translate(-314.39 28.93) scale(1.05 0.91)" patternUnits="userSpaceOnUse" viewBox="0 0 72 72">
      <rect class="cls-1" width="72" height="72"/>
      <g>
        <line class="cls-2" x1="71.75" y1="68.4" x2="144.25" y2="68.4"/>
        <line class="cls-2" x1="71.75" y1="54" x2="144.25" y2="54"/>
        <line class="cls-2" x1="71.75" y1="39.6" x2="144.25" y2="39.6"/>
        <line class="cls-2" x1="71.75" y1="25.2" x2="144.25" y2="25.2"/>
        <line class="cls-2" x1="71.75" y1="10.8" x2="144.25" y2="10.8"/>
        <line class="cls-2" x1="71.75" y1="61.2" x2="144.25" y2="61.2"/>
        <line class="cls-2" x1="71.75" y1="46.8" x2="144.25" y2="46.8"/>
        <line class="cls-2" x1="71.75" y1="32.4" x2="144.25" y2="32.4"/>
        <line class="cls-2" x1="71.75" y1="18" x2="144.25" y2="18"/>
        <line class="cls-2" x1="71.75" y1="3.6" x2="144.25" y2="3.6"/>
      </g>
      <g>
        <line class="cls-2" x1="-0.25" y1="68.4" x2="72.25" y2="68.4"/>
        <line class="cls-2" x1="-0.25" y1="54" x2="72.25" y2="54"/>
        <line class="cls-2" x1="-0.25" y1="39.6" x2="72.25" y2="39.6"/>
        <line class="cls-2" x1="-0.25" y1="25.2" x2="72.25" y2="25.2"/>
        <line class="cls-2" x1="-0.25" y1="10.8" x2="72.25" y2="10.8"/>
        <line class="cls-2" x1="-0.25" y1="61.2" x2="72.25" y2="61.2"/>
        <line class="cls-2" x1="-0.25" y1="46.8" x2="72.25" y2="46.8"/>
        <line class="cls-2" x1="-0.25" y1="32.4" x2="72.25" y2="32.4"/>
        <line class="cls-2" x1="-0.25" y1="18" x2="72.25" y2="18"/>
        <line class="cls-2" x1="-0.25" y1="3.6" x2="72.25" y2="3.6"/>
      </g>
      <g>
        <line class="cls-2" x1="-72.25" y1="68.4" x2="0.25" y2="68.4"/>
        <line class="cls-2" x1="-72.25" y1="54" x2="0.25" y2="54"/>
        <line class="cls-2" x1="-72.25" y1="39.6" x2="0.25" y2="39.6"/>
        <line class="cls-2" x1="-72.25" y1="25.2" x2="0.25" y2="25.2"/>
        <line class="cls-2" x1="-72.25" y1="10.8" x2="0.25" y2="10.8"/>
        <line class="cls-2" x1="-72.25" y1="61.2" x2="0.25" y2="61.2"/>
        <line class="cls-2" x1="-72.25" y1="46.8" x2="0.25" y2="46.8"/>
        <line class="cls-2" x1="-72.25" y1="32.4" x2="0.25" y2="32.4"/>
        <line class="cls-2" x1="-72.25" y1="18" x2="0.25" y2="18"/>
        <line class="cls-2" x1="-72.25" y1="3.6" x2="0.25" y2="3.6"/>
      </g>
    </pattern>
  </defs>
  <g id="View_6" data-name="View 6">
    <rect class="cls-3" y="1" width="1024" height="768"/>
    <text class="cls-4" transform="translate(27.17 54.78)"><tspan class="cls-5">W</tspan><tspan x="31" y="0">IEN U-BAHNNETZ</tspan><tspan class="cls-6"><tspan class="cls-7" x="0" y="24">V</tspan><tspan x="13.6" y="24">ienna Met</tspan><tspan class="cls-8" x="114.48" y="24">r</tspan><tspan x="122.24" y="24">omap </tspan><tspan class="cls-9" x="186.6" y="24">S</tspan><tspan class="cls-10" x="198.7" y="24">y</tspan><tspan class="cls-11" x="209.42" y="24">s</tspan><tspan class="cls-12" x="219.2" y="24">t</tspan><tspan x="226.94" y="24">em Dashb</tspan><tspan class="cls-13" x="330.68" y="24">o</tspan><tspan x="343.16" y="24">a</tspan><tspan class="cls-14" x="354.96" y="24">r</tspan><tspan x="362.72" y="24">d: </tspan><tspan class="cls-15" x="385.76" y="24">Dec 1st</tspan><tspan class="cls-11" x="459.54" y="24">, </tspan><tspan class="cls-16" x="469.01" y="24">2</tspan><tspan class="cls-17" x="480.29" y="24">0</tspan><tspan class="cls-18" x="493.49" y="24">2</tspan><tspan class="cls-11" x="504.77" y="24">0 - </tspan><tspan class="cls-15" x="536.13" y="24">Dec 31st</tspan><tspan x="621.75" y="24">, </tspan><tspan class="cls-19" x="631.23" y="24">2</tspan><tspan class="cls-20" x="642.51" y="24">0</tspan><tspan class="cls-16" x="655.71" y="24">2</tspan><tspan x="666.99" y="24">0</tspan></tspan></text>
    <g>
      <polyline class="cls-21" points="389.3 213.73 439.48 263.18 567.89 263.18 665.3 360.34"/>
      <polyline class="cls-21" points="415.38 397.48 456.95 356.16 456.95 226.52 513.77 170.93 611.18 170.93 627.17 155.68"/>
      <polyline class="cls-21" points="531.15 300.32 512.79 281.3 512.79 244.89 531.15 226.85 603.96 226.85 677.92 300.81 734.09 244.64 760.74 244.64"/>
      <polyline class="cls-21" points="358.55 243.25 415.75 300.44 567.39 300.44 586.3 281.54 586.3 244.48 531.09 189.28 531.09 153.96"/>
      <polyline class="cls-21" points="596.05 401.54 531.19 336.68 531.19 282.28 568.15 245.32 642.67 245.32 721.1 166.88"/>
      <circle class="cls-22" cx="389.3" cy="214" r="1.21"/>
      <circle class="cls-22" cx="401.19" cy="225.68" r="1.21"/>
      <circle class="cls-22" cx="413.08" cy="237.2" r="1.21"/>
      <circle class="cls-22" cx="437.15" cy="260.98" r="1.21"/>
      <circle class="cls-22" cx="475.77" cy="263.2" r="1.21"/>
      <circle class="cls-21" cx="550.91" cy="263.7" r="5.96"/>
      <circle class="cls-22" cx="615.98" cy="311.24" r="1.21"/>
      <circle class="cls-22" cx="625.65" cy="320.92" r="1.21"/>
      <circle class="cls-22" cx="645.33" cy="340.56" r="1.21"/>
      <circle class="cls-22" cx="655.13" cy="350.32" r="1.21"/>
      <circle class="cls-22" cx="760.74" cy="244.87" r="1.21"/>
      <circle class="cls-22" cx="745.92" cy="244.87" r="1.21"/>
      <circle class="cls-22" cx="732.33" cy="246.79" r="1.21"/>
      <circle class="cls-22" cx="723.53" cy="255.52" r="1.21"/>
      <circle class="cls-22" cx="714.86" cy="264.44" r="1.21"/>
      <circle class="cls-22" cx="697.15" cy="282.02" r="1.21"/>
      <circle class="cls-22" cx="688.17" cy="290.88" r="1.21"/>
      <circle class="cls-22" cx="635.92" cy="258.78" r="1.21"/>
      <circle class="cls-22" cx="514.67" cy="283.86" r="1.21"/>
      <circle class="cls-22" cx="370.07" cy="255.24" r="1.21"/>
      <circle class="cls-22" cx="394.1" cy="278.8" r="1.21"/>
      <circle class="cls-22" cx="405.82" cy="290.75" r="1.21"/>
      <circle class="cls-22" cx="420.17" cy="300.44" r="1.21"/>
      <circle class="cls-22" cx="457.23" cy="281.85" r="1.21"/>
      <circle class="cls-22" cx="475.6" cy="300.26" r="1.21"/>
      <circle class="cls-22" cx="494.21" cy="300.26" r="1.21"/>
      <circle class="cls-22" cx="534.1" cy="192.52" r="1.21"/>
      <circle class="cls-22" cx="531.19" cy="152.3" r="1.21"/>
      <circle class="cls-22" cx="506.14" cy="177.29" r="1.21"/>
      <circle class="cls-22" cx="495.61" cy="187.88" r="1.21"/>
      <circle class="cls-22" cx="474.62" cy="209.28" r="1.21"/>
      <circle class="cls-22" cx="463.84" cy="219.74" r="1.21"/>
      <circle class="cls-22" cx="457.23" cy="247.86" r="1.21"/>
      <circle class="cls-22" cx="457.1" cy="315.31" r="1.21"/>
      <circle class="cls-22" cx="457.1" cy="330.28" r="1.21"/>
      <circle class="cls-22" cx="457.1" cy="345.29" r="1.21"/>
      <circle class="cls-22" cx="444.4" cy="368.43" r="1.21"/>
      <circle class="cls-22" cx="434.56" cy="378.37" r="1.21"/>
      <circle class="cls-22" cx="424.72" cy="388.09" r="1.21"/>
      <circle class="cls-22" cx="415.07" cy="397.9" r="1.21"/>
      <circle class="cls-22" cx="664.76" cy="359.87" r="1.21"/>
      <circle class="cls-22" cx="712.25" cy="175.68" r="1.21"/>
      <circle class="cls-22" cx="703.39" cy="184.48" r="1.21"/>
      <circle class="cls-22" cx="695.26" cy="193" r="1.21"/>
      <circle class="cls-22" cx="677.01" cy="210.98" r="1.21"/>
      <circle class="cls-22" cx="659.27" cy="228.66" r="1.21"/>
      <circle class="cls-22" cx="650.45" cy="237.49" r="1.21"/>
      <circle class="cls-22" cx="547.1" cy="352.79" r="1.21"/>
      <circle class="cls-22" cx="566.44" cy="372.16" r="1.21"/>
      <circle class="cls-22" cx="576.22" cy="381.94" r="1.21"/>
      <circle class="cls-22" cx="586.15" cy="391.84" r="1.21"/>
      <circle class="cls-22" cx="595.56" cy="401.54" r="1.21"/>
      <circle class="cls-22" cx="554.27" cy="170.83" r="1.35"/>
      <circle class="cls-22" cx="576.8" cy="170.97" r="1.35"/>
      <circle class="cls-22" cx="598.91" cy="170.97" r="1.35"/>
      <circle class="cls-22" cx="627.17" cy="155.68" r="1.35"/>
      <circle class="cls-21" cx="532.8" cy="299.24" r="7.16"/>
      <circle class="cls-21" cx="512.79" cy="263.2" r="5.96"/>
      <circle class="cls-21" cx="586.3" cy="281.02" r="4.82"/>
      <circle class="cls-21" cx="531.19" cy="316.66" r="4.82"/>
      <circle class="cls-21" cx="531.19" cy="330.28" r="4.82"/>
      <circle class="cls-21" cx="567.36" cy="300.81" r="4.82"/>
      <circle class="cls-23" cx="569.08" cy="227.2" r="4.82"/>
      <circle class="cls-21" cx="457.1" cy="300.26" r="4.82"/>
      <circle class="cls-21" cx="622.68" cy="245.1" r="4.82"/>
      <circle class="cls-24" cx="586.3" cy="245.1" r="3.1"/>
      <circle class="cls-24" cx="641.11" cy="245.16" r="3.1"/>
      <circle class="cls-24" cx="605.35" cy="245.16" r="3.1"/>
      <circle class="cls-24" cx="603.81" cy="226.85" r="3.1"/>
      <circle class="cls-24" cx="531.19" cy="170.97" r="3.1"/>
      <circle class="cls-21" cx="512.79" cy="245.3" r="5.96"/>
      <circle class="cls-21" cx="531.19" cy="227.2" r="5.96"/>
      <circle class="cls-24" cx="549.8" cy="208.07" r="3.1"/>
      <circle class="cls-24" cx="573.9" cy="269.66" r="3.1"/>
      <circle class="cls-24" cx="532.91" cy="263.09" r="3.1"/>
      <circle class="cls-24" cx="596.22" cy="291.38" r="3.1"/>
      <circle class="cls-24" cx="606.03" cy="301.47" r="3.1"/>
      <circle class="cls-24" cx="635.92" cy="331.28" r="3.1"/>
      <circle class="cls-24" cx="556.98" cy="362.53" r="3.1"/>
      <circle class="cls-24" cx="538.51" cy="344.39" r="3.1"/>
      <circle class="cls-24" cx="513.98" cy="300.26" r="3.1"/>
      <circle class="cls-24" cx="457.1" cy="263.09" r="3.1"/>
      <circle class="cls-24" cx="441.46" cy="300.26" r="3.1"/>
      <circle class="cls-24" cx="454" cy="359.34" r="3.1"/>
      <circle class="cls-24" cx="457.1" cy="230.3" r="3.1"/>
      <circle class="cls-25" cx="496.82" cy="263.2" r="2.65"/>
      <circle class="cls-25" cx="425.55" cy="249.3" r="2.65"/>
      <circle class="cls-25" cx="649.24" cy="272.76" r="2.65"/>
      <circle class="cls-25" cx="663.13" cy="285.62" r="2.65"/>
      <circle class="cls-25" cx="673.74" cy="297.15" r="2.65"/>
      <circle class="cls-25" cx="706.29" cy="272.76" r="2.65"/>
      <circle class="cls-25" cx="668.43" cy="219.73" r="2.65"/>
      <circle class="cls-25" cx="687.13" cy="200.85" r="2.65"/>
      <circle class="cls-25" cx="721.1" cy="167.31" r="2.65"/>
      <circle class="cls-25" cx="618.54" cy="164.23" r="2.65"/>
      <circle class="cls-25" cx="486.23" cy="198.2" r="2.65"/>
      <circle class="cls-25" cx="382.21" cy="266.61" r="2.65"/>
      <circle class="cls-22" cx="358.77" cy="244.09" r="1.21"/>
    </g>
    <text class="cls-26" transform="translate(413.67 131)"><tspan class="cls-27">A</tspan><tspan class="cls-28" x="11.07" y="0">v</tspan><tspan x="19.81" y="0">e</tspan><tspan class="cls-29" x="29.28" y="0">r</tspan><tspan class="cls-30" x="35.64" y="0">a</tspan><tspan x="44.98" y="0">ge Daily Ride</tspan><tspan class="cls-31" x="148.47" y="0">r</tspan><tspan x="154.9" y="0">ship </tspan><tspan class="cls-28" x="192.34" y="0">b</tspan><tspan x="202.47" y="0">y Station</tspan></text>
    <g>
      <g>
        <circle class="cls-32" cx="790.55" cy="244.84" r="7.19"/>
        <text class="cls-33" transform="translate(806.28 249.16)">5<tspan class="cls-34" x="5.66" y="0">0,</tspan><tspan class="cls-11" x="14.18" y="0">00</tspan><tspan class="cls-35" x="27.42" y="0">0</tspan><tspan x="34.12" y="0">+</tspan></text>
      </g>
      <g>
        <circle class="cls-36" cx="793.09" cy="270.53" r="5.99"/>
        <text class="cls-33" transform="translate(807.42 273.4)">4<tspan class="cls-34" x="6.61" y="0">0,</tspan><tspan x="15.13" y="0">000</tspan></text>
      </g>
      <g>
        <circle class="cls-37" cx="794.42" cy="295.87" r="4.85"/>
        <text class="cls-33" transform="translate(806.73 299.17)">25<tspan class="cls-34" x="11.34" y="0">,</tspan><tspan class="cls-11" x="13.35" y="0">000</tspan></text>
      </g>
      <g>
        <circle class="cls-38" cx="796" cy="320.73" r="3.12"/>
        <text class="cls-33" transform="translate(804.64 324.86)">1<tspan class="cls-34" x="3.61" y="0">0,</tspan><tspan x="12.13" y="0">000</tspan></text>
      </g>
      <g>
        <circle class="cls-39" cx="798.45" cy="345.85" r="1.22"/>
        <text class="cls-33" transform="translate(804.74 350.55)">5<tspan class="cls-40" x="5.66" y="0">,</tspan><tspan x="7.67" y="0">000</tspan></text>
      </g>
    </g>
    <g>
      <text class="cls-26" transform="translate(177.14 472.76)"><tspan class="cls-41">T</tspan><tspan x="8.44" y="0">otal Daily Ride</tspan><tspan class="cls-42" x="122.08" y="0">r</tspan><tspan x="128.52" y="0">ship</tspan></text>
      <text class="cls-43" transform="translate(50.06 643.52) rotate(-90)"><tspan class="cls-44">T</tspan><tspan x="6.23" y="0">otal daily </tspan><tspan class="cls-45" x="63.4" y="0">r</tspan><tspan x="68.11" y="0">ide</tspan><tspan class="cls-46" x="86.72" y="0">r</tspan><tspan x="91.49" y="0">ship</tspan></text>
      <g>
        <g>
          <polyline class="cls-47" points="74.34 564.36 87.17 562.02 99.72 560.89 112.13 557.16 124.83 562.57 136.09 564.36 151.87 558.94 162.81 551.46 175.68 551.74 189.55 547.29 201.53 555.1 213.34 560.89 227.18 558.94 238.87 546.46 250.68 549.64 263.3 546.46 278.36 544.24 288.98 559.2 303.14 566.77 313.77 566.77 326.28 553.02 338.88 548.88 352.07 549.64 362.69 562.29 376.53 594.79 388.76 564.43 402.28 564.43 415.8 553.02 426.74 551.18 438.65 549.64 452.25 546.74"/>
          <polyline class="cls-48" points="74.34 631.75 90.53 633.79 100.83 627.12 112.13 623.46 124.33 635.47 138.81 633.51 149.92 631.75 162.57 623.15 174.86 621.57 187.71 619.32 199.97 624.65 213.02 621.6 225.5 623.46 238.1 620.41 250.7 623.46 263.31 618 276.25 628.51 288.49 627.6 301.36 633.51 313.69 631.75 326.28 627.96 338.88 627.6 350.93 630.18 364.08 631.75 372.81 633.79 388.59 652.02 401.78 641.35 416.91 620.41 427.21 620.41 439.76 625.31 452.25 627.6"/>
          <polyline class="cls-49" points="74.34 618.68 86.93 627.6 101.01 619.38 112.28 618 124.83 626.32 137.32 635.88 149.92 618 162.51 619.32 175.51 611.29 187.71 619.32 200.31 627.6 214.23 631.6 225.5 635.88 238.1 635.88 251.79 625.31 263.31 622.12 275.89 623.46 289.13 620.41 301.08 635.88 317.07 626.18 330.01 620.41 338.88 619.32 351.47 627.6 364.08 631.75 376.21 652.02 389.87 648.79 401.86 635.88 414.46 615.17 427.06 606.89 439.66 598.6 452.25 598.6"/>
          <polyline class="cls-50" points="74.34 499.16 86.93 495.01 99.53 503.31 113.06 502.7 124.73 503.31 137.32 495.01 149.92 501.57 161.99 497.95 175.11 495.01 187.71 499.16 200.31 495.01 213.49 502.9 225.72 505.57 238.1 507.44 250.7 503.31 263.31 502.7 275.89 507.44 288.49 503.31 301.36 505.57 313.69 511.59 326.28 503.81 338.88 507.44 351.47 507.44 363.16 505.57 374.28 514.71 389.27 503.31 402.28 503.3 414.51 501.2 427.61 497.3 439.66 503.31 452.25 511.59"/>
          <polyline class="cls-51" points="74.34 523.13 90.71 532.3 99.53 524.02 112.28 525.07 124.51 535.07 138.99 535.35 149.92 532.3 163.78 532.3 175.04 535.35 189.55 530.07 201.53 528.13 213.02 537.1 225.5 536.45 238.1 528.16 250.83 524.9 260.66 527.01 277.07 537.1 288.98 535.9 301.86 539.79 313.69 540.6 326.28 528.16 340.65 532.3 351.47 532.3 365.27 542.02 377.82 566.77 389.27 540.6 400.67 542.57 417.73 528.13 427.06 532.3 439.66 519.87 452.25 521.51"/>
        </g>
        <rect class="cls-52" x="119.36" y="486.16" width="26.07" height="199.19"/>
        <rect class="cls-53" x="207.05" y="486.16" width="26.07" height="199.19"/>
        <rect class="cls-54" x="296.84" y="486.16" width="26.07" height="199.19"/>
        <rect class="cls-55" x="381.85" y="486.16" width="26.07" height="199.19"/>
        <g>
          <line class="cls-56" x1="72.69" y1="486.16" x2="72.69" y2="685.35"/>
          <line class="cls-56" x1="71.64" y1="685.35" x2="454.99" y2="685.35"/>
        </g>
      </g>
      <text class="cls-57" transform="translate(68.14 705.38) rotate(-45) scale(1.01 1)">1st</text>
      <text class="cls-57" transform="translate(432.39 708.85) rotate(-45) scale(1.01 1)">31st</text>
      <text class="cls-57" transform="translate(256.72 711.45) rotate(-45) scale(1.01 1)">15th</text>
    </g>
    <g>
      <rect class="cls-58" y="738.25" width="1024" height="5.5"/>
      <rect class="cls-59" y="750.52" width="1024" height="5.5"/>
      <rect class="cls-60" y="744.34" width="1024" height="5.5"/>
      <rect class="cls-61" y="756.52" width="1024" height="5.5"/>
      <rect class="cls-62" x="1.16" y="762.52" width="1024" height="5.5"/>
      <rect class="cls-58" x="1.16" y="91.13" width="1024" height="2.75"/>
    </g>
    <g>
      <g>
        <g>
          <rect class="cls-58" x="268.68" y="143.7" width="27.76" height="27.76" rx="13.88" transform="translate(124.98 440.14) rotate(-90)"/>
          <path class="cls-63" d="M289.58,151.9a1,1,0,0,1,1.49,1.32l-.08.09L281,163.26a1,1,0,0,1-1.31.08l-.1-.08-5-5a1,1,0,0,1,1.31-1.5l.09.09,4.28,4.27Z"/>
        </g>
        <g>
          <rect class="cls-60" x="228.64" y="143.7" width="27.76" height="27.76" rx="13.88" transform="translate(84.94 400.1) rotate(-90)"/>
          <path class="cls-63" d="M249.1,151.9a1,1,0,0,1,1.41,0,1,1,0,0,1,.08,1.32l-.08.09-9.95,9.95a1,1,0,0,1-1.32.08l-.09-.08-5-5a1,1,0,0,1,0-1.41,1,1,0,0,1,1.32-.09l.09.09,4.27,4.27Z"/>
        </g>
        <g>
          <rect class="cls-59" x="188.61" y="143.7" width="27.76" height="27.76" rx="13.88" transform="translate(44.9 360.07) rotate(-90)"/>
          <path class="cls-63" d="M209.24,153.72a1,1,0,0,1,1.49,1.32l-.08.09-10,10a1,1,0,0,1-1.31.08l-.1-.08-5-5a1,1,0,0,1,1.31-1.49l.09.09L200,163Z"/>
        </g>
        <g>
          <rect class="cls-61" x="148.57" y="143.7" width="27.76" height="27.76" rx="13.88" transform="translate(4.86 320.03) rotate(-90)"/>
          <path class="cls-63" d="M169.21,153.72a1,1,0,0,1,1.4,0,1,1,0,0,1,.09,1.32l-.09.09-10,10a1,1,0,0,1-1.31.08l-.1-.08-5-5a1,1,0,0,1,0-1.4,1,1,0,0,1,1.31-.09l.1.09L160,163Z"/>
        </g>
        <g>
          <rect class="cls-62" x="108.53" y="143.7" width="27.76" height="27.76" rx="13.88" transform="translate(-35.17 279.99) rotate(-90)"/>
          <path class="cls-63" d="M128.73,153.72a1,1,0,0,1,1.49,1.32l-.08.09-9.95,10a1,1,0,0,1-1.31.08l-.1-.08-5-5a1,1,0,0,1,1.31-1.49l.09.09,4.28,4.27Z"/>
        </g>
      </g>
      <text class="cls-64" transform="translate(189.3 136.15)">Li<tspan class="cls-65" x="12.34" y="0">n</tspan><tspan class="cls-66" x="21.84" y="0">e</tspan></text>
      <g>
        <g>
          <line class="cls-67" x1="288.9" y1="214.52" x2="108.91" y2="214.52"/>
          <g>
            <path class="cls-63" d="M288.39,205.61a8.91,8.91,0,1,1-8.9,8.91A8.91,8.91,0,0,1,288.39,205.61Z"/>
            <path class="cls-68" d="M288.39,204.43a10.09,10.09,0,1,0,10.09,10.09,10.1,10.1,0,0,0-10.09-10.09Zm0,17.81a7.72,7.72,0,1,1,7.72-7.72,7.72,7.72,0,0,1-7.72,7.72Z"/>
          </g>
          <g>
            <path class="cls-63" d="M109.41,205.61a8.91,8.91,0,1,0,8.91,8.91A8.9,8.9,0,0,0,109.41,205.61Z"/>
            <path class="cls-68" d="M109.41,204.43a10.09,10.09,0,1,1-10.09,10.09,10.09,10.09,0,0,1,10.09-10.09Zm0,17.81a7.72,7.72,0,1,0-7.72-7.72,7.72,7.72,0,0,0,7.72,7.72Z"/>
          </g>
        </g>
        <text class="cls-69" transform="translate(271.58 234.86)">Dec 31st</text>
        <text class="cls-69" transform="translate(88.84 237.66)">Dec 1st</text>
        <text class="cls-70" transform="translate(190.84 207.4)">Da<tspan class="cls-71" x="17.09" y="0">t</tspan><tspan x="22.04" y="0">e</tspan></text>
      </g>
      <path class="cls-72" d="M71.32,386.52V124a7.88,7.88,0,0,1,7.88-7.88H318A7.88,7.88,0,0,1,325.9,124V386.52A7.88,7.88,0,0,1,318,394.4H79.2a7.88,7.88,0,0,1-7.88-7.88Z"/>
      <g>
        <g>
          <line class="cls-67" x1="288.9" y1="272" x2="108.56" y2="272"/>
          <g>
            <path class="cls-63" d="M288.39,263.09a8.91,8.91,0,1,1-8.9,8.91A8.91,8.91,0,0,1,288.39,263.09Z"/>
            <path class="cls-68" d="M288.39,261.91A10.09,10.09,0,1,0,298.48,272a10.1,10.1,0,0,0-10.09-10.09Zm0,17.81a7.73,7.73,0,1,1,7.72-7.72,7.72,7.72,0,0,1-7.72,7.72Z"/>
          </g>
          <g>
            <path class="cls-63" d="M109.07,263.09A8.91,8.91,0,1,0,118,272,8.91,8.91,0,0,0,109.07,263.09Z"/>
            <path class="cls-68" d="M109.07,261.91A10.09,10.09,0,1,1,99,272a10.1,10.1,0,0,1,10.09-10.09Zm0,17.81a7.73,7.73,0,1,0-7.73-7.72,7.72,7.72,0,0,0,7.73,7.72Z"/>
          </g>
        </g>
        <text class="cls-69" transform="translate(267.15 296.42)">11:59 pm</text>
        <text class="cls-69" transform="translate(88.41 295.23)">12:00 am</text>
        <text class="cls-70" transform="translate(190.84 265.71)">Hour</text>
      </g>
      <g>
        <g>
          <line class="cls-67" x1="195.71" y1="326.95" x2="109.11" y2="326.95"/>
          <g>
            <path class="cls-63" d="M195.2,318a8.91,8.91,0,1,1-8.9,8.91A8.91,8.91,0,0,1,195.2,318Z"/>
            <path class="cls-68" d="M195.2,316.86A10.09,10.09,0,1,0,205.29,327a10.11,10.11,0,0,0-10.09-10.09Zm0,17.81a7.72,7.72,0,1,1,7.72-7.72,7.72,7.72,0,0,1-7.72,7.72Z"/>
          </g>
          <g>
            <path class="cls-63" d="M109.61,318a8.91,8.91,0,1,0,8.91,8.91A8.9,8.9,0,0,0,109.61,318Z"/>
            <path class="cls-68" d="M109.61,316.86A10.09,10.09,0,1,1,99.52,327a10.1,10.1,0,0,1,10.09-10.09Zm0,17.81a7.72,7.72,0,1,0-7.72-7.72,7.73,7.73,0,0,0,7.72,7.72Z"/>
          </g>
        </g>
        <text class="cls-70" transform="translate(121.97 314.1)"><tspan class="cls-73">A</tspan><tspan class="cls-74" x="8.74" y="0">v</tspan><tspan x="15.65" y="0">e</tspan><tspan class="cls-75" x="23.12" y="0">r</tspan><tspan class="cls-76" x="28.14" y="0">a</tspan><tspan x="35.52" y="0">ge Daily Ride</tspan><tspan class="cls-77" x="117.24" y="0">r</tspan><tspan class="cls-78" x="122.32" y="0">ship</tspan></text>
      </g>
      <g>
        <path class="cls-68" d="M191.29,377.44a14.16,14.16,0,0,0,24.59-5.35c0-.17.07-.35.11-.52h-3.25a11,11,0,0,1-19.58,3.15h6v-3.15h-11v11h3.14Z"/>
        <path class="cls-68" d="M196.43,358.89A11,11,0,0,1,211,362.14h-6v3.15h11v-11h-3.15v5.14a14.15,14.15,0,0,0-24.58,5.36c0,.17-.07.34-.11.52h3.24a10.9,10.9,0,0,1,5-6.39Z"/>
      </g>
    </g>
    <g>
      <rect class="cls-79" x="854.75" y="105.46" width="159.02" height="220.85"/>
      <g>
        <path class="cls-80" d="M868,114.27h-3.45v-.89h7.93v.89H869v8.91h-1Z"/>
        <path class="cls-80" d="M880.71,118.91v4.27h-1V119a2.05,2.05,0,0,0-2.21-2.35,2.42,2.42,0,0,0-2.58,2.66v3.86h-1V112.79h1v4.31a3.12,3.12,0,0,1,2.76-1.34A2.83,2.83,0,0,1,880.71,118.91Z"/>
        <path class="cls-80" d="M883.18,113.49a.72.72,0,0,1,.73-.7.71.71,0,0,1,.73.69.73.73,0,0,1-1.46,0Zm.23,2.33h1v7.36h-1Z"/>
        <path class="cls-80" d="M886.15,122.34l.45-.78a4.46,4.46,0,0,0,2.62.82c1.4,0,2-.47,2-1.2,0-1.92-4.78-.41-4.78-3.32,0-1.2,1-2.1,2.92-2.1a5,5,0,0,1,2.6.69l-.43.79a3.84,3.84,0,0,0-2.17-.63c-1.33,0-1.92.52-1.92,1.22,0,2,4.78.49,4.78,3.32,0,1.28-1.12,2.1-3,2.1A4.91,4.91,0,0,1,886.15,122.34Z"/>
        <path class="cls-80" d="M903.88,115.82l-3.28,7.36h-1l-3.27-7.36h1l2.76,6.27,2.79-6.27Z"/>
        <path class="cls-80" d="M905.05,113.49a.73.73,0,1,1,.73.72A.73.73,0,0,1,905.05,113.49Zm.22,2.33h1v7.36h-1Z"/>
        <path class="cls-80" d="M915.45,119.81h-6.16a2.72,2.72,0,0,0,2.9,2.56,2.89,2.89,0,0,0,2.26-1l.56.65a3.9,3.9,0,0,1-6.71-2.55,3.59,3.59,0,1,1,7.17,0C915.47,119.58,915.45,119.7,915.45,119.81Zm-6.16-.74h5.23a2.62,2.62,0,0,0-5.23,0Z"/>
        <path class="cls-80" d="M928.17,115.82l-2.79,7.36h-.94l-2.32-6-2.33,6h-.94l-2.77-7.36H917l2.31,6.26,2.37-6.26h.86l2.35,6.26,2.34-6.26Z"/>
        <path class="cls-80" d="M932.31,122.34l.45-.78a4.43,4.43,0,0,0,2.61.82c1.41,0,2-.47,2-1.2,0-1.92-4.78-.41-4.78-3.32,0-1.2,1-2.1,2.92-2.1a5,5,0,0,1,2.6.69l-.43.79a3.86,3.86,0,0,0-2.17-.63c-1.33,0-1.92.52-1.92,1.22,0,2,4.77.49,4.77,3.32,0,1.28-1.12,2.1-3,2.1A4.9,4.9,0,0,1,932.31,122.34Z"/>
        <path class="cls-80" d="M947,118.91v4.27h-1V119a2.05,2.05,0,0,0-2.21-2.35,2.41,2.41,0,0,0-2.58,2.66v3.86h-1V112.79h1v4.31a3.12,3.12,0,0,1,2.76-1.34A2.82,2.82,0,0,1,947,118.91Z"/>
        <path class="cls-80" d="M948.94,119.5a3.75,3.75,0,1,1,3.75,3.75A3.62,3.62,0,0,1,948.94,119.5Zm6.49,0a2.74,2.74,0,1,0-2.74,2.87A2.69,2.69,0,0,0,955.43,119.5Z"/>
        <path class="cls-80" d="M969.06,115.82l-2.78,7.36h-.94l-2.33-6-2.32,6h-.94L957,115.82h1l2.31,6.26,2.37-6.26h.85l2.35,6.26,2.34-6.26Z"/>
        <path class="cls-80" d="M969.45,122.34l.45-.78a4.46,4.46,0,0,0,2.62.82c1.4,0,2-.47,2-1.2,0-1.92-4.77-.41-4.77-3.32,0-1.2,1-2.1,2.91-2.1a5,5,0,0,1,2.6.69l-.43.79a3.82,3.82,0,0,0-2.17-.63c-1.33,0-1.92.52-1.92,1.22,0,2,4.78.49,4.78,3.32,0,1.28-1.12,2.1-3,2.1A4.91,4.91,0,0,1,969.45,122.34Z"/>
        <path class="cls-80" d="M876.7,132.62,873.92,140H873l-2.33-6-2.32,6h-.94l-2.77-7.36h1l2.31,6.26,2.37-6.26h.85l2.35,6.26,2.34-6.26Z"/>
        <path class="cls-80" d="M885,135.71V140h-1v-4.17a2.05,2.05,0,0,0-2.21-2.35,2.42,2.42,0,0,0-2.58,2.66V140h-1V129.59h1v4.31a3.12,3.12,0,0,1,2.76-1.34A2.83,2.83,0,0,1,885,135.71Z"/>
        <path class="cls-80" d="M893.24,135.42V140h-1v-1.15a2.74,2.74,0,0,1-2.53,1.22c-1.67,0-2.69-.87-2.69-2.14s.73-2.09,2.84-2.09h2.34v-.44c0-1.27-.71-1.95-2.08-1.95a3.74,3.74,0,0,0-2.46.87l-.44-.75a4.66,4.66,0,0,1,3-1C892.16,132.56,893.24,133.51,893.24,135.42Zm-1,2.35v-1.2h-2.31c-1.43,0-1.89.56-1.89,1.31s.69,1.39,1.86,1.39A2.35,2.35,0,0,0,892.24,137.77Z"/>
        <path class="cls-80" d="M899.82,139.54a2.4,2.4,0,0,1-1.56.51,2,2,0,0,1-2.16-2.14v-4.45h-1.31v-.84h1.31V131h1v1.62h2.24v.84H897.1v4.39a1.18,1.18,0,0,0,1.27,1.35,1.63,1.63,0,0,0,1.09-.38Z"/>
        <path class="cls-80" d="M916.1,132.62,913.31,140h-.94l-2.32-6-2.33,6h-.93L904,132.62h1l2.32,6.26,2.36-6.26h.86l2.35,6.26,2.34-6.26Z"/>
        <path class="cls-80" d="M916.64,136.3a3.75,3.75,0,1,1,3.76,3.75A3.62,3.62,0,0,1,916.64,136.3Zm6.49,0a2.74,2.74,0,1,0-2.73,2.87A2.69,2.69,0,0,0,923.13,136.3Z"/>
        <path class="cls-80" d="M932.8,132.62V140h-.95v-1.34a2.92,2.92,0,0,1-2.65,1.41,2.85,2.85,0,0,1-3.11-3.16v-4.27h1v4.17c0,1.57.81,2.37,2.21,2.37a2.4,2.4,0,0,0,2.51-2.68v-3.86Z"/>
        <path class="cls-80" d="M935.58,129.59h1V140h-1Z"/>
        <path class="cls-80" d="M946.07,129.59V140h-1v-1.45a3.19,3.19,0,0,1-2.84,1.52,3.75,3.75,0,0,1,0-7.49,3.21,3.21,0,0,1,2.8,1.46v-4.43Zm-1,6.71a2.74,2.74,0,1,0-2.73,2.87A2.69,2.69,0,0,0,945.09,136.3Z"/>
        <path class="cls-80" d="M872.67,152.51v4.27h-1v-4.17a2.06,2.06,0,0,0-2.22-2.35,2.41,2.41,0,0,0-2.57,2.66v3.86h-1V146.39h1v4.32a3.09,3.09,0,0,1,2.76-1.35A2.82,2.82,0,0,1,872.67,152.51Z"/>
        <path class="cls-80" d="M880.93,152.22v4.56H880v-1.14a2.78,2.78,0,0,1-2.54,1.21c-1.66,0-2.69-.86-2.69-2.14,0-1.13.73-2.09,2.85-2.09h2.34v-.44c0-1.26-.72-2-2.09-2a3.71,3.71,0,0,0-2.45.87l-.45-.75a4.68,4.68,0,0,1,3-1C879.85,149.36,880.93,150.31,880.93,152.22Zm-1,2.35v-1.2h-2.32c-1.42,0-1.89.56-1.89,1.31s.69,1.39,1.87,1.39A2.36,2.36,0,0,0,879.94,154.57Z"/>
        <path class="cls-80" d="M891.1,153.1a3.57,3.57,0,0,1-3.67,3.75,3.23,3.23,0,0,1-2.81-1.45v4.1h-1V149.42h1v1.45a3.21,3.21,0,0,1,2.85-1.51A3.56,3.56,0,0,1,891.1,153.1Zm-1,0a2.75,2.75,0,1,0-2.74,2.87A2.71,2.71,0,0,0,890.1,153.1Z"/>
        <path class="cls-80" d="M900.59,153.1a3.57,3.57,0,0,1-3.67,3.75,3.2,3.2,0,0,1-2.8-1.45v4.1h-1V149.42h1v1.45a3.23,3.23,0,0,1,2.85-1.51A3.56,3.56,0,0,1,900.59,153.1Zm-1,0a2.75,2.75,0,1,0-2.74,2.87A2.71,2.71,0,0,0,899.59,153.1Z"/>
        <path class="cls-80" d="M909,153.41h-6.16a2.72,2.72,0,0,0,2.89,2.56,2.89,2.89,0,0,0,2.26-1l.56.65a3.9,3.9,0,0,1-6.71-2.55,3.55,3.55,0,0,1,3.6-3.74A3.51,3.51,0,0,1,909,153.1C909,153.18,909,153.3,909,153.41Zm-6.16-.74h5.22a2.61,2.61,0,0,0-5.22,0Z"/>
        <path class="cls-80" d="M917.85,152.51v4.27h-1v-4.17a2.05,2.05,0,0,0-2.21-2.35,2.42,2.42,0,0,0-2.58,2.66v3.86h-1v-7.36H912v1.36a3.09,3.09,0,0,1,2.8-1.42A2.82,2.82,0,0,1,917.85,152.51Z"/>
        <path class="cls-80" d="M924,147.09a.73.73,0,1,1,.73.72A.73.73,0,0,1,924,147.09Zm.22,2.33h1v7.36h-1Z"/>
        <path class="cls-80" d="M929.12,148.55v.87h2.26v.84h-2.24v6.52h-1v-6.52h-1.32v-.84h1.32v-.91a2,2,0,0,1,2.23-2.19,2.34,2.34,0,0,1,1.47.46l-.34.75a1.67,1.67,0,0,0-1.09-.37C929.56,147.16,929.12,147.64,929.12,148.55Z"/>
        <path class="cls-80" d="M940.28,156.34a2.4,2.4,0,0,1-1.56.51,2,2,0,0,1-2.16-2.14v-4.45h-1.31v-.84h1.31v-1.61h1v1.61h2.24v.84h-2.24v4.4a1.18,1.18,0,0,0,1.27,1.34,1.64,1.64,0,0,0,1.09-.38Z"/>
        <path class="cls-80" d="M948.86,152.51v4.27h-1v-4.17a2.05,2.05,0,0,0-2.21-2.35,2.42,2.42,0,0,0-2.58,2.66v3.86h-1V146.39h1v4.32a3.12,3.12,0,0,1,2.76-1.35A2.82,2.82,0,0,1,948.86,152.51Z"/>
        <path class="cls-80" d="M958,153.41h-6.16a2.72,2.72,0,0,0,2.9,2.56,2.89,2.89,0,0,0,2.25-1l.56.65a3.9,3.9,0,0,1-6.71-2.55,3.55,3.55,0,0,1,3.6-3.74A3.51,3.51,0,0,1,958,153.1C958,153.18,958,153.3,958,153.41Zm-6.16-.74h5.22a2.61,2.61,0,0,0-5.22,0Z"/>
        <path class="cls-80" d="M970.35,149.42v7.36h-1v-1.34a2.92,2.92,0,0,1-2.65,1.41,2.85,2.85,0,0,1-3.11-3.16v-4.27h1v4.17a2.07,2.07,0,0,0,2.22,2.37,2.39,2.39,0,0,0,2.5-2.68v-3.86Z"/>
        <path class="cls-80" d="M972.11,155.94l.45-.78a4.44,4.44,0,0,0,2.62.83c1.4,0,2-.48,2-1.21,0-1.92-4.78-.4-4.78-3.32,0-1.2,1-2.1,2.92-2.1a5,5,0,0,1,2.6.69l-.43.79a3.86,3.86,0,0,0-2.17-.63c-1.33,0-1.92.52-1.92,1.22,0,2,4.78.49,4.78,3.32,0,1.28-1.12,2.1-3,2.1A4.91,4.91,0,0,1,972.11,155.94Z"/>
        <path class="cls-80" d="M986.39,153.41h-6.16a2.72,2.72,0,0,0,2.9,2.56,2.87,2.87,0,0,0,2.25-1l.56.65a3.9,3.9,0,0,1-6.71-2.55,3.55,3.55,0,0,1,3.6-3.74,3.52,3.52,0,0,1,3.58,3.74C986.41,153.18,986.39,153.3,986.39,153.41Zm-6.16-.74h5.22a2.61,2.61,0,0,0-5.22,0Z"/>
        <path class="cls-80" d="M992.14,149.36v1l-.23,0c-1.54,0-2.48,1-2.48,2.72v3.75h-1v-7.36h1v1.44A2.77,2.77,0,0,1,992.14,149.36Z"/>
        <path class="cls-80" d="M871.45,169v4.56h-1v-1.14a2.78,2.78,0,0,1-2.54,1.21c-1.66,0-2.68-.86-2.68-2.14,0-1.13.72-2.09,2.84-2.09h2.34V169c0-1.27-.72-1.95-2.09-1.95a3.71,3.71,0,0,0-2.45.87l-.45-.75a4.68,4.68,0,0,1,3-1C870.37,166.16,871.45,167.11,871.45,169Zm-1,2.35v-1.2h-2.31c-1.43,0-1.89.56-1.89,1.31s.68,1.39,1.86,1.39A2.35,2.35,0,0,0,870.46,171.37Z"/>
        <path class="cls-80" d="M880.9,163.19v10.39H880v-1.45a3.19,3.19,0,0,1-2.84,1.52,3.75,3.75,0,0,1,0-7.49,3.21,3.21,0,0,1,2.8,1.46v-4.43Zm-1,6.71a2.74,2.74,0,1,0-2.73,2.87A2.69,2.69,0,0,0,879.92,169.9Z"/>
        <path class="cls-80" d="M881,175.9l.35-.76a1.75,1.75,0,0,0,1.15.38c.79,0,1.22-.48,1.22-1.39v-7.91h1v7.91a2,2,0,0,1-2.16,2.24A2.45,2.45,0,0,1,881,175.9Zm2.5-12a.73.73,0,1,1,.72.72A.72.72,0,0,1,883.52,163.89Z"/>
        <path class="cls-80" d="M894.15,166.22v7.36h-1v-1.34a2.91,2.91,0,0,1-2.64,1.41,2.85,2.85,0,0,1-3.11-3.16v-4.27h1v4.17c0,1.57.81,2.37,2.21,2.37a2.4,2.4,0,0,0,2.51-2.68v-3.86Z"/>
        <path class="cls-80" d="M895.91,172.74l.44-.78a4.49,4.49,0,0,0,2.62.83c1.4,0,2-.48,2-1.21,0-1.92-4.78-.41-4.78-3.32,0-1.2,1-2.1,2.92-2.1a5,5,0,0,1,2.6.69l-.43.79a3.86,3.86,0,0,0-2.17-.63c-1.33,0-1.92.52-1.92,1.22,0,2,4.77.49,4.77,3.32,0,1.28-1.12,2.1-3,2.1A4.9,4.9,0,0,1,895.91,172.74Z"/>
        <path class="cls-80" d="M907.65,173.14a2.35,2.35,0,0,1-1.55.51,2,2,0,0,1-2.16-2.14v-4.45h-1.31v-.84h1.31v-1.61h1v1.61h2.24v.84h-2.24v4.4a1.18,1.18,0,0,0,1.27,1.34,1.63,1.63,0,0,0,1.09-.38Z"/>
        <path class="cls-80" d="M915.61,170.21h-6.16a2.72,2.72,0,0,0,2.9,2.56,2.89,2.89,0,0,0,2.25-1l.56.65a3.9,3.9,0,0,1-6.71-2.55,3.59,3.59,0,1,1,7.17,0C915.62,170,915.61,170.1,915.61,170.21Zm-6.16-.74h5.22a2.61,2.61,0,0,0-5.22,0Z"/>
        <path class="cls-80" d="M924.37,163.19v10.39h-1v-1.45a3.19,3.19,0,0,1-2.84,1.52,3.75,3.75,0,0,1,0-7.49,3.21,3.21,0,0,1,2.8,1.46v-4.43Zm-1,6.71a2.74,2.74,0,1,0-2.73,2.87A2.69,2.69,0,0,0,923.39,169.9Z"/>
        <path class="cls-80" d="M934.69,173.14a2.36,2.36,0,0,1-1.56.51,2,2,0,0,1-2.15-2.14v-4.45h-1.32v-.84H931v-1.61h1v1.61h2.24v.84H932v4.4a1.18,1.18,0,0,0,1.28,1.34,1.66,1.66,0,0,0,1.09-.38Z"/>
        <path class="cls-80" d="M943.27,169.31v4.27h-1v-4.17a2.05,2.05,0,0,0-2.22-2.35,2.41,2.41,0,0,0-2.57,2.66v3.86h-1V163.19h1v4.31a3.11,3.11,0,0,1,2.76-1.34A2.82,2.82,0,0,1,943.27,169.31Z"/>
        <path class="cls-80" d="M952.41,170.21h-6.16a2.72,2.72,0,0,0,2.9,2.56,2.89,2.89,0,0,0,2.26-1l.56.65a3.9,3.9,0,0,1-6.71-2.55,3.59,3.59,0,1,1,7.17,0C952.43,170,952.41,170.1,952.41,170.21Zm-6.16-.74h5.23a2.62,2.62,0,0,0-5.23,0Z"/>
        <path class="cls-80" d="M961.83,166.16v1l-.23,0c-1.54,0-2.48,1-2.48,2.72v3.75h-1v-7.36h1v1.44A2.77,2.77,0,0,1,961.83,166.16Z"/>
        <path class="cls-80" d="M963.4,163.89a.72.72,0,0,1,.73-.7.71.71,0,0,1,.73.69.73.73,0,0,1-1.46,0Zm.22,2.33h1v7.36h-1Z"/>
        <path class="cls-80" d="M974.12,163.19v10.39h-1v-1.45a3.19,3.19,0,0,1-2.84,1.52,3.75,3.75,0,0,1,0-7.49,3.2,3.2,0,0,1,2.8,1.46v-4.43Zm-1,6.71a2.74,2.74,0,1,0-2.73,2.87A2.69,2.69,0,0,0,973.13,169.9Z"/>
        <path class="cls-80" d="M983.3,170.21h-6.17a2.73,2.73,0,0,0,2.91,2.56,2.89,2.89,0,0,0,2.25-1l.56.65a3.9,3.9,0,0,1-6.71-2.55,3.59,3.59,0,1,1,7.17,0C983.31,170,983.3,170.1,983.3,170.21Zm-6.17-.74h5.23a2.62,2.62,0,0,0-5.23,0Z"/>
        <path class="cls-80" d="M989.05,166.16v1l-.24,0c-1.54,0-2.48,1-2.48,2.72v3.75h-1v-7.36h.95v1.44A2.78,2.78,0,0,1,989.05,166.16Z"/>
        <path class="cls-80" d="M990.41,169.35h3.67v.87h-3.67Z"/>
        <path class="cls-80" d="M864.87,189.54l.45-.78a4.46,4.46,0,0,0,2.62.82c1.4,0,2-.47,2-1.2,0-1.92-4.78-.41-4.78-3.32,0-1.2,1-2.1,2.92-2.1a5,5,0,0,1,2.6.69l-.43.79a3.84,3.84,0,0,0-2.17-.63c-1.33,0-1.92.52-1.92,1.22,0,2,4.78.49,4.78,3.32,0,1.28-1.12,2.1-3,2.1A4.91,4.91,0,0,1,864.87,189.54Z"/>
        <path class="cls-80" d="M879.52,186.11v4.27h-1v-4.17a2.05,2.05,0,0,0-2.21-2.35,2.42,2.42,0,0,0-2.58,2.66v3.86h-1V180h1v4.31a3.12,3.12,0,0,1,2.76-1.34A2.82,2.82,0,0,1,879.52,186.11Z"/>
        <path class="cls-80" d="M882,180.69a.72.72,0,0,1,.73-.7.71.71,0,0,1,.73.69.73.73,0,0,1-1.46,0Zm.23,2.33h1v7.36h-1Z"/>
        <path class="cls-80" d="M893.45,186.7a3.57,3.57,0,0,1-3.67,3.75A3.2,3.2,0,0,1,887,189v4.1h-1V183h.95v1.45a3.23,3.23,0,0,1,2.85-1.51A3.56,3.56,0,0,1,893.45,186.7Zm-1,0a2.75,2.75,0,1,0-2.74,2.87A2.71,2.71,0,0,0,892.45,186.7Z"/>
        <path class="cls-80" d="M902.85,183v1l-.23,0c-1.55,0-2.48,1-2.48,2.72v3.75h-1V183h1v1.44A2.79,2.79,0,0,1,902.85,183Z"/>
        <path class="cls-80" d="M910.19,185.82v4.56h-1v-1.14a2.78,2.78,0,0,1-2.54,1.21c-1.66,0-2.69-.87-2.69-2.14s.73-2.09,2.85-2.09h2.34v-.44c0-1.27-.72-1.95-2.09-1.95a3.71,3.71,0,0,0-2.45.87l-.45-.75a4.67,4.67,0,0,1,3-1C909.11,183,910.19,183.91,910.19,185.82Zm-1,2.35V187h-2.32c-1.42,0-1.89.56-1.89,1.31s.69,1.39,1.87,1.39A2.36,2.36,0,0,0,909.2,188.17Z"/>
        <path class="cls-80" d="M919.67,186.11v4.27h-1v-4.17a2.05,2.05,0,0,0-2.21-2.35,2.42,2.42,0,0,0-2.58,2.66v3.86h-1V183h1v1.36a3.09,3.09,0,0,1,2.8-1.42A2.82,2.82,0,0,1,919.67,186.11Z"/>
        <path class="cls-80" d="M929.22,183v6.47c0,2.53-1.25,3.68-3.69,3.68A5.18,5.18,0,0,1,922.1,192l.51-.76a4.38,4.38,0,0,0,2.9,1c1.86,0,2.71-.86,2.71-2.68v-.94a3.3,3.3,0,0,1-2.87,1.43,3.57,3.57,0,1,1,0-7.14,3.31,3.31,0,0,1,2.91,1.47V183Zm-1,3.5a2.8,2.8,0,1,0-2.8,2.7A2.63,2.63,0,0,0,928.25,186.52Z"/>
        <path class="cls-80" d="M938.41,187h-6.16a2.72,2.72,0,0,0,2.9,2.56,2.89,2.89,0,0,0,2.26-1l.56.65a3.9,3.9,0,0,1-6.71-2.55,3.59,3.59,0,1,1,7.17,0C938.43,186.78,938.41,186.9,938.41,187Zm-6.16-.74h5.23a2.62,2.62,0,0,0-5.23,0Z"/>
        <path class="cls-80" d="M939.81,189.68a.74.74,0,0,1,.74-.75.75.75,0,0,1,.76.75.76.76,0,0,1-.76.77A.75.75,0,0,1,939.81,189.68Z"/>
        <path class="cls-80" d="M946.43,185.48a5.15,5.15,0,1,1,5.16,5A4.94,4.94,0,0,1,946.43,185.48Zm9.26,0a4.12,4.12,0,1,0-4.1,4.06A4,4,0,0,0,955.69,185.48Z"/>
        <path class="cls-80" d="M965.62,186.11v4.27h-1v-4.17a2.05,2.05,0,0,0-2.21-2.35,2.42,2.42,0,0,0-2.58,2.66v3.86h-1V183h.95v1.36a3.09,3.09,0,0,1,2.8-1.42A2.83,2.83,0,0,1,965.62,186.11Z"/>
        <path class="cls-80" d="M968.32,180h1v10.39h-1Z"/>
        <path class="cls-80" d="M978.27,183l-3.68,8.25c-.62,1.44-1.4,1.9-2.45,1.9a2.53,2.53,0,0,1-1.8-.67l.47-.74a1.84,1.84,0,0,0,1.34.56c.66,0,1.11-.31,1.53-1.24l.32-.71L970.71,183h1l2.77,6.26,2.77-6.26Z"/>
        <path class="cls-80" d="M864.87,206.34l.45-.78a4.46,4.46,0,0,0,2.62.82c1.4,0,2-.47,2-1.2,0-1.92-4.78-.41-4.78-3.32,0-1.2,1-2.1,2.92-2.1a5,5,0,0,1,2.6.69l-.43.79a3.84,3.84,0,0,0-2.17-.63c-1.33,0-1.92.52-1.92,1.22,0,2,4.78.49,4.78,3.32,0,1.28-1.12,2.1-3,2.1A4.91,4.91,0,0,1,864.87,206.34Z"/>
        <path class="cls-80" d="M876.62,206.74a2.36,2.36,0,0,1-1.56.51,2,2,0,0,1-2.15-2.14v-4.45h-1.32v-.84h1.32v-1.61h1v1.61h2.24v.84H873.9v4.39a1.19,1.19,0,0,0,1.28,1.35,1.66,1.66,0,0,0,1.09-.38Z"/>
        <path class="cls-80" d="M884,202.62v4.56h-1V206a2.78,2.78,0,0,1-2.54,1.21c-1.66,0-2.68-.87-2.68-2.14s.72-2.09,2.84-2.09H883v-.44c0-1.27-.72-2-2.09-2a3.71,3.71,0,0,0-2.45.87l-.45-.75a4.68,4.68,0,0,1,3-1C882.9,199.76,884,200.71,884,202.62ZM883,205v-1.2h-2.31c-1.43,0-1.89.56-1.89,1.31s.68,1.39,1.86,1.39A2.35,2.35,0,0,0,883,205Z"/>
        <path class="cls-80" d="M890.56,206.74a2.35,2.35,0,0,1-1.55.51,2,2,0,0,1-2.16-2.14v-4.45h-1.32v-.84h1.32v-1.61h1v1.61h2.25v.84h-2.25v4.39a1.19,1.19,0,0,0,1.28,1.35,1.64,1.64,0,0,0,1.09-.38Z"/>
        <path class="cls-80" d="M892.14,197.49a.72.72,0,0,1,.73-.7.71.71,0,0,1,.73.69.73.73,0,0,1-1.46,0Zm.23,2.33h1v7.36h-1Z"/>
        <path class="cls-80" d="M895.39,203.5a3.75,3.75,0,1,1,3.75,3.75A3.62,3.62,0,0,1,895.39,203.5Zm6.48,0a2.74,2.74,0,1,0-2.73,2.87A2.69,2.69,0,0,0,901.87,203.5Z"/>
        <path class="cls-80" d="M911.69,202.91v4.27h-1V203a2.06,2.06,0,0,0-2.22-2.35,2.42,2.42,0,0,0-2.58,2.66v3.86h-1v-7.36h1v1.35a3.11,3.11,0,0,1,2.8-1.41A2.82,2.82,0,0,1,911.69,202.91Z"/>
        <path class="cls-80" d="M913.37,206.34l.44-.78a4.49,4.49,0,0,0,2.62.82c1.4,0,2-.47,2-1.2,0-1.92-4.78-.41-4.78-3.32,0-1.2,1-2.1,2.91-2.1a5,5,0,0,1,2.61.69l-.43.79a3.87,3.87,0,0,0-2.18-.63c-1.33,0-1.91.52-1.91,1.22,0,2,4.77.49,4.77,3.32,0,1.28-1.12,2.1-3,2.1A4.88,4.88,0,0,1,913.37,206.34Z"/>
        <path class="cls-80" d="M935.72,199.82l-2.79,7.36H932l-2.33-6-2.32,6h-.94l-2.77-7.36h1l2.31,6.26,2.37-6.26h.85l2.36,6.26,2.33-6.26Z"/>
        <path class="cls-80" d="M937,197.49a.72.72,0,0,1,.73-.7.71.71,0,0,1,.73.69.72.72,0,0,1-.73.73A.73.73,0,0,1,937,197.49Zm.23,2.33h1v7.36h-1Z"/>
        <path class="cls-80" d="M944.85,206.74a2.35,2.35,0,0,1-1.55.51,2,2,0,0,1-2.16-2.14v-4.45h-1.31v-.84h1.31v-1.61h1v1.61h2.24v.84h-2.24v4.39a1.18,1.18,0,0,0,1.27,1.35,1.64,1.64,0,0,0,1.09-.38Z"/>
        <path class="cls-80" d="M953.44,202.91v4.27h-1V203a2.05,2.05,0,0,0-2.21-2.35,2.42,2.42,0,0,0-2.58,2.66v3.86h-1V196.79h1v4.31a3.13,3.13,0,0,1,2.76-1.34A2.83,2.83,0,0,1,953.44,202.91Z"/>
        <path class="cls-80" d="M955.91,197.49a.72.72,0,0,1,.73-.7.71.71,0,0,1,.73.69.73.73,0,0,1-1.46,0Zm.23,2.33h1v7.36h-1Z"/>
        <path class="cls-80" d="M966.68,202.91v4.27h-1V203a2.06,2.06,0,0,0-2.22-2.35,2.41,2.41,0,0,0-2.57,2.66v3.86h-1v-7.36h1v1.35a3.1,3.1,0,0,1,2.8-1.41A2.82,2.82,0,0,1,966.68,202.91Z"/>
        <path class="cls-80" d="M976.93,206.74a2.36,2.36,0,0,1-1.56.51,2,2,0,0,1-2.15-2.14v-4.45H971.9v-.84h1.32v-1.61h1v1.61h2.24v.84h-2.24v4.39a1.19,1.19,0,0,0,1.28,1.35,1.66,1.66,0,0,0,1.09-.38Z"/>
        <path class="cls-80" d="M985.51,202.91v4.27h-1V203a2.06,2.06,0,0,0-2.22-2.35,2.41,2.41,0,0,0-2.57,2.66v3.86h-1V196.79h1v4.31a3.11,3.11,0,0,1,2.76-1.34A2.82,2.82,0,0,1,985.51,202.91Z"/>
        <path class="cls-80" d="M994.65,203.81h-6.16a2.72,2.72,0,0,0,2.9,2.56,2.87,2.87,0,0,0,2.25-1l.56.65a3.89,3.89,0,0,1-6.7-2.55,3.59,3.59,0,1,1,7.17,0C994.67,203.58,994.65,203.7,994.65,203.81Zm-6.16-.74h5.22a2.61,2.61,0,0,0-5.22,0Z"/>
        <path class="cls-80" d="M864.87,223.14l.45-.78a4.46,4.46,0,0,0,2.62.82c1.4,0,2-.47,2-1.2,0-1.92-4.78-.41-4.78-3.32,0-1.2,1-2.1,2.92-2.1a5,5,0,0,1,2.6.69l-.43.79a3.84,3.84,0,0,0-2.17-.63c-1.33,0-1.92.52-1.92,1.22,0,2,4.78.49,4.78,3.32,0,1.28-1.12,2.1-3,2.1A4.91,4.91,0,0,1,864.87,223.14Z"/>
        <path class="cls-80" d="M879.15,220.61H873a2.72,2.72,0,0,0,2.9,2.56,2.87,2.87,0,0,0,2.25-1l.56.65a3.89,3.89,0,0,1-6.7-2.55,3.59,3.59,0,1,1,7.17,0C879.17,220.38,879.15,220.5,879.15,220.61Zm-6.16-.74h5.22a2.61,2.61,0,0,0-5.22,0Z"/>
        <path class="cls-80" d="M881.19,213.59h1V224h-1Z"/>
        <path class="cls-80" d="M891.37,220.61h-6.16a2.72,2.72,0,0,0,2.9,2.56,2.89,2.89,0,0,0,2.26-1l.56.65a3.9,3.9,0,0,1-6.71-2.55,3.59,3.59,0,1,1,7.17,0C891.39,220.38,891.37,220.5,891.37,220.61Zm-6.16-.74h5.23a2.62,2.62,0,0,0-5.23,0Z"/>
        <path class="cls-80" d="M892.67,220.3a3.63,3.63,0,0,1,3.8-3.74,3.22,3.22,0,0,1,2.89,1.46l-.75.5a2.5,2.5,0,0,0-2.14-1.09,2.87,2.87,0,0,0,0,5.74,2.49,2.49,0,0,0,2.14-1.08l.75.51a3.25,3.25,0,0,1-2.89,1.45A3.64,3.64,0,0,1,892.67,220.3Z"/>
        <path class="cls-80" d="M905.26,223.54a2.35,2.35,0,0,1-1.55.51,2,2,0,0,1-2.16-2.14v-4.45h-1.32v-.84h1.32V215h1v1.62h2.25v.84h-2.25v4.39a1.19,1.19,0,0,0,1.28,1.35,1.64,1.64,0,0,0,1.09-.38Z"/>
        <path class="cls-80" d="M913.21,220.61h-6.16a2.72,2.72,0,0,0,2.9,2.56,2.89,2.89,0,0,0,2.26-1l.56.65a3.9,3.9,0,0,1-6.71-2.55,3.59,3.59,0,1,1,7.17,0C913.23,220.38,913.21,220.5,913.21,220.61Zm-6.16-.74h5.23a2.62,2.62,0,0,0-5.23,0Z"/>
        <path class="cls-80" d="M922,213.59V224h-1v-1.45a3.21,3.21,0,0,1-2.85,1.52,3.75,3.75,0,0,1,0-7.49A3.19,3.19,0,0,1,921,218v-4.43Zm-1,6.71a2.74,2.74,0,1,0-2.73,2.87A2.7,2.7,0,0,0,921,220.3Z"/>
        <path class="cls-80" d="M932.13,216.56v1l-.24,0c-1.54,0-2.48,1-2.48,2.72V224h-1v-7.36h1v1.44A2.78,2.78,0,0,1,932.13,216.56Z"/>
        <path class="cls-80" d="M933.69,214.29a.72.72,0,0,1,.73-.7.71.71,0,1,1,0,1.41A.72.72,0,0,1,933.69,214.29Zm.23,2.33h1V224h-1Z"/>
        <path class="cls-80" d="M944.41,213.59V224h-1v-1.45a3.19,3.19,0,0,1-2.84,1.52,3.75,3.75,0,0,1,0-7.49,3.19,3.19,0,0,1,2.8,1.46v-4.43Zm-1,6.71a2.74,2.74,0,1,0-2.73,2.87A2.7,2.7,0,0,0,943.43,220.3Z"/>
        <path class="cls-80" d="M953.59,220.61h-6.16a2.72,2.72,0,0,0,2.9,2.56,2.89,2.89,0,0,0,2.25-1l.56.65a3.9,3.9,0,0,1-6.71-2.55,3.59,3.59,0,1,1,7.18,0C953.61,220.38,953.59,220.5,953.59,220.61Zm-6.16-.74h5.22a2.61,2.61,0,0,0-5.22,0Z"/>
        <path class="cls-80" d="M959.34,216.56v1l-.23,0c-1.55,0-2.48,1-2.48,2.72V224h-1v-7.36h1v1.44A2.79,2.79,0,0,1,959.34,216.56Z"/>
        <path class="cls-80" d="M960.17,223.14l.45-.78a4.43,4.43,0,0,0,2.61.82c1.4,0,2-.47,2-1.2,0-1.92-4.78-.41-4.78-3.32,0-1.2,1-2.1,2.92-2.1a5,5,0,0,1,2.6.69l-.43.79a3.86,3.86,0,0,0-2.17-.63c-1.33,0-1.92.52-1.92,1.22,0,2,4.77.49,4.77,3.32,0,1.28-1.12,2.1-3,2.1A4.9,4.9,0,0,1,960.17,223.14Z"/>
        <path class="cls-80" d="M974.81,219.71V224h-1v-4.17a2.05,2.05,0,0,0-2.21-2.35,2.41,2.41,0,0,0-2.58,2.66V224h-1V213.59h1v4.31a3.12,3.12,0,0,1,2.76-1.34A2.82,2.82,0,0,1,974.81,219.71Z"/>
        <path class="cls-80" d="M977.29,214.29a.73.73,0,1,1,.73.71A.72.72,0,0,1,977.29,214.29Zm.22,2.33h1V224h-1Z"/>
        <path class="cls-80" d="M988.75,220.3a3.57,3.57,0,0,1-3.67,3.75,3.23,3.23,0,0,1-2.81-1.45v4.1h-1V216.62h1v1.45a3.21,3.21,0,0,1,2.85-1.51A3.56,3.56,0,0,1,988.75,220.3Zm-1,0a2.75,2.75,0,1,0-2.74,2.87A2.71,2.71,0,0,0,987.75,220.3Z"/>
        <path class="cls-80" d="M876.7,233.42l-2.78,7.36H873l-2.33-6-2.32,6h-.94l-2.77-7.36h1l2.31,6.26,2.37-6.26h.85l2.35,6.26,2.34-6.26Z"/>
        <path class="cls-80" d="M877.25,237.1a3.75,3.75,0,1,1,3.75,3.75A3.62,3.62,0,0,1,877.25,237.1Zm6.48,0A2.74,2.74,0,1,0,881,240,2.69,2.69,0,0,0,883.73,237.1Z"/>
        <path class="cls-80" d="M893.41,233.42v7.36h-1v-1.34a2.92,2.92,0,0,1-2.65,1.41,2.85,2.85,0,0,1-3.1-3.16v-4.27h1v4.17c0,1.57.81,2.37,2.21,2.37a2.4,2.4,0,0,0,2.51-2.68v-3.86Z"/>
        <path class="cls-80" d="M896.19,230.39h1v10.39h-1Z"/>
        <path class="cls-80" d="M906.68,230.39v10.39h-1v-1.45a3.19,3.19,0,0,1-2.84,1.52,3.75,3.75,0,0,1,0-7.49,3.19,3.19,0,0,1,2.8,1.46v-4.43Zm-1,6.71A2.74,2.74,0,1,0,903,240,2.7,2.7,0,0,0,905.7,237.1Z"/>
        <path class="cls-80" d="M920.58,237.1a3.57,3.57,0,0,1-3.67,3.75,3.19,3.19,0,0,1-2.84-1.52v1.45h-1V230.39h1v4.43a3.19,3.19,0,0,1,2.8-1.46A3.56,3.56,0,0,1,920.58,237.1Zm-1,0a2.75,2.75,0,1,0-2.74,2.87A2.7,2.7,0,0,0,919.58,237.1Z"/>
        <path class="cls-80" d="M929,237.41h-6.16a2.72,2.72,0,0,0,2.9,2.56,2.89,2.89,0,0,0,2.25-1l.56.65a3.9,3.9,0,0,1-6.71-2.55,3.55,3.55,0,0,1,3.6-3.74A3.52,3.52,0,0,1,929,237.1C929,237.18,929,237.3,929,237.41Zm-6.16-.74h5.22a2.61,2.61,0,0,0-5.22,0Z"/>
        <path class="cls-80" d="M934.5,231.09a.72.72,0,0,1,.73-.7.71.71,0,0,1,.73.69.72.72,0,0,1-.73.73A.73.73,0,0,1,934.5,231.09Zm.23,2.33h1v7.36h-1Z"/>
        <path class="cls-80" d="M945.28,236.51v4.27h-1v-4.17a2.05,2.05,0,0,0-2.21-2.35,2.41,2.41,0,0,0-2.58,2.66v3.86h-1v-7.36h1v1.36a3.08,3.08,0,0,1,2.8-1.42A2.83,2.83,0,0,1,945.28,236.51Z"/>
        <path class="cls-80" d="M947.26,237.1a3.63,3.63,0,0,1,3.79-3.74,3.22,3.22,0,0,1,2.89,1.46l-.74.5a2.52,2.52,0,0,0-2.15-1.09,2.87,2.87,0,0,0,0,5.74,2.49,2.49,0,0,0,2.15-1.08l.74.51a3.25,3.25,0,0,1-2.89,1.45A3.63,3.63,0,0,1,947.26,237.1Z"/>
        <path class="cls-80" d="M955.77,230.39h1v10.39h-1Z"/>
        <path class="cls-80" d="M966.18,233.42v7.36h-1v-1.34a2.91,2.91,0,0,1-2.64,1.41,2.85,2.85,0,0,1-3.11-3.16v-4.27h1v4.17c0,1.57.81,2.37,2.21,2.37a2.4,2.4,0,0,0,2.51-2.68v-3.86Z"/>
        <path class="cls-80" d="M975.68,230.39v10.39h-.95v-1.45a3.19,3.19,0,0,1-2.84,1.52,3.75,3.75,0,0,1,0-7.49,3.21,3.21,0,0,1,2.8,1.46v-4.43Zm-1,6.71A2.74,2.74,0,1,0,972,240,2.69,2.69,0,0,0,974.7,237.1Z"/>
        <path class="cls-80" d="M984.87,237.41H978.7a2.72,2.72,0,0,0,2.9,2.56,2.89,2.89,0,0,0,2.26-1l.56.65a3.9,3.9,0,0,1-6.71-2.55,3.55,3.55,0,0,1,3.6-3.74,3.51,3.51,0,0,1,3.57,3.74C984.88,237.18,984.87,237.3,984.87,237.41Zm-6.17-.74h5.23a2.62,2.62,0,0,0-5.23,0Z"/>
        <path class="cls-80" d="M993.63,230.39v10.39h-1v-1.45a3.2,3.2,0,0,1-2.85,1.52,3.75,3.75,0,0,1,0-7.49,3.22,3.22,0,0,1,2.81,1.46v-4.43Zm-1,6.71a2.74,2.74,0,1,0-2.73,2.87A2.7,2.7,0,0,0,992.65,237.1Z"/>
        <path class="cls-80" d="M865.67,247.89a.72.72,0,0,1,.73-.7.7.7,0,0,1,.72.69.71.71,0,0,1-.72.73A.73.73,0,0,1,865.67,247.89Zm.22,2.33h1v7.36h-1Z"/>
        <path class="cls-80" d="M876.44,253.31v4.27h-1v-4.17a2.05,2.05,0,0,0-2.21-2.35,2.42,2.42,0,0,0-2.58,2.66v3.86h-1v-7.36h1v1.36a3.09,3.09,0,0,1,2.8-1.42A2.83,2.83,0,0,1,876.44,253.31Z"/>
        <path class="cls-80" d="M886.68,257.14a2.35,2.35,0,0,1-1.55.51,2,2,0,0,1-2.16-2.14v-4.45h-1.31v-.84H883v-1.61h1v1.61h2.24v.84H884v4.4a1.18,1.18,0,0,0,1.27,1.34,1.64,1.64,0,0,0,1.09-.38Z"/>
        <path class="cls-80" d="M895.27,253.31v4.27h-1v-4.17a2.05,2.05,0,0,0-2.21-2.35,2.42,2.42,0,0,0-2.58,2.66v3.86h-1V247.19h1v4.31a3.12,3.12,0,0,1,2.76-1.34A2.82,2.82,0,0,1,895.27,253.31Z"/>
        <path class="cls-80" d="M904.41,254.21h-6.16a2.72,2.72,0,0,0,2.9,2.56,2.89,2.89,0,0,0,2.25-1l.56.65a3.9,3.9,0,0,1-6.71-2.55,3.59,3.59,0,1,1,7.17,0C904.42,254,904.41,254.1,904.41,254.21Zm-6.16-.74h5.22a2.61,2.61,0,0,0-5.22,0Z"/>
        <path class="cls-80" d="M915.68,253v4.56h-.95v-1.14a2.78,2.78,0,0,1-2.54,1.21c-1.67,0-2.69-.86-2.69-2.14,0-1.13.73-2.09,2.84-2.09h2.34V253c0-1.27-.71-1.95-2.08-1.95a3.69,3.69,0,0,0-2.45.87l-.45-.75a4.67,4.67,0,0,1,3-1C914.6,250.16,915.68,251.11,915.68,253Zm-1,2.35v-1.2h-2.31c-1.43,0-1.89.56-1.89,1.31s.69,1.39,1.86,1.39A2.35,2.35,0,0,0,914.68,255.37Z"/>
        <path class="cls-80" d="M925.23,250.22v6.47c0,2.53-1.25,3.68-3.69,3.68a5.18,5.18,0,0,1-3.43-1.13l.51-.76a4.38,4.38,0,0,0,2.9,1c1.86,0,2.71-.86,2.71-2.68v-.93a3.31,3.31,0,0,1-2.87,1.42,3.57,3.57,0,1,1,0-7.14,3.34,3.34,0,0,1,2.92,1.47v-1.41Zm-1,3.5a2.8,2.8,0,1,0-2.8,2.7A2.63,2.63,0,0,0,924.26,253.72Z"/>
        <path class="cls-80" d="M934.83,250.22v6.47c0,2.53-1.25,3.68-3.68,3.68a5.16,5.16,0,0,1-3.43-1.13l.5-.76a4.38,4.38,0,0,0,2.9,1c1.86,0,2.72-.86,2.72-2.68v-.93A3.34,3.34,0,0,1,931,257.3a3.57,3.57,0,1,1,0-7.14,3.32,3.32,0,0,1,2.92,1.47v-1.41Zm-1,3.5a2.8,2.8,0,1,0-2.81,2.7A2.64,2.64,0,0,0,933.87,253.72Z"/>
        <path class="cls-80" d="M941.33,250.16v1l-.24,0c-1.54,0-2.48,1-2.48,2.72v3.75h-1v-7.36h1v1.44A2.78,2.78,0,0,1,941.33,250.16Z"/>
        <path class="cls-80" d="M949.46,254.21H943.3a2.72,2.72,0,0,0,2.9,2.56,2.89,2.89,0,0,0,2.25-1l.56.65a3.9,3.9,0,0,1-6.71-2.55,3.55,3.55,0,0,1,3.6-3.74,3.51,3.51,0,0,1,3.57,3.74C949.47,254,949.46,254.1,949.46,254.21Zm-6.16-.74h5.22a2.61,2.61,0,0,0-5.22,0Z"/>
        <path class="cls-80" d="M958.32,250.22v6.47c0,2.53-1.24,3.68-3.68,3.68a5.16,5.16,0,0,1-3.43-1.13l.5-.76a4.4,4.4,0,0,0,2.9,1c1.86,0,2.72-.86,2.72-2.68v-.93a3.34,3.34,0,0,1-2.87,1.42,3.57,3.57,0,1,1,0-7.14,3.32,3.32,0,0,1,2.91,1.47v-1.41Zm-1,3.5a2.8,2.8,0,1,0-2.81,2.7A2.64,2.64,0,0,0,957.36,253.72Z"/>
        <path class="cls-80" d="M966.67,253v4.56h-1v-1.14a2.75,2.75,0,0,1-2.53,1.21c-1.67,0-2.69-.86-2.69-2.14,0-1.13.73-2.09,2.84-2.09h2.34V253c0-1.27-.71-1.95-2.09-1.95a3.73,3.73,0,0,0-2.45.87l-.44-.75a4.66,4.66,0,0,1,3-1C965.59,250.16,966.67,251.11,966.67,253Zm-1,2.35v-1.2h-2.31c-1.43,0-1.89.56-1.89,1.31s.69,1.39,1.86,1.39A2.35,2.35,0,0,0,965.67,255.37Z"/>
        <path class="cls-80" d="M973.25,257.14a2.4,2.4,0,0,1-1.56.51,2,2,0,0,1-2.16-2.14v-4.45h-1.31v-.84h1.31v-1.61h1v1.61h2.24v.84h-2.24v4.4a1.18,1.18,0,0,0,1.27,1.34,1.63,1.63,0,0,0,1.09-.38Z"/>
        <path class="cls-80" d="M981.2,254.21H975a2.72,2.72,0,0,0,2.9,2.56,2.89,2.89,0,0,0,2.25-1l.56.65A3.9,3.9,0,0,1,974,253.9a3.59,3.59,0,1,1,7.17,0C981.21,254,981.2,254.1,981.2,254.21Zm-6.16-.74h5.22a2.61,2.61,0,0,0-5.22,0Z"/>
        <path class="cls-80" d="M988,249.35v.87h2.27v.84h-2.24v6.52h-1v-6.52h-1.32v-.84h1.32v-.91a2,2,0,0,1,2.22-2.19,2.31,2.31,0,0,1,1.47.46l-.33.75a1.67,1.67,0,0,0-1.09-.37C988.49,248,988,248.44,988,249.35Z"/>
        <path class="cls-80" d="M990.79,253.9a3.75,3.75,0,1,1,3.75,3.75A3.62,3.62,0,0,1,990.79,253.9Zm6.48,0a2.74,2.74,0,1,0-2.73,2.87A2.69,2.69,0,0,0,997.27,253.9Z"/>
        <path class="cls-80" d="M1004,250.16v1l-.24,0c-1.54,0-2.48,1-2.48,2.72v3.75h-1v-7.36h1v1.44A2.78,2.78,0,0,1,1004,250.16Z"/>
        <path class="cls-80" d="M867.7,266.43h-3.14v-1.85h8.55v1.85H870v7.95H867.7Z"/>
        <path class="cls-80" d="M872.83,270.62A4.15,4.15,0,1,1,877,274.5,3.89,3.89,0,0,1,872.83,270.62Zm6.07,0A1.93,1.93,0,1,0,877,272.7,1.9,1.9,0,0,0,878.9,270.62Z"/>
        <path class="cls-80" d="M887.43,274a3.15,3.15,0,0,1-1.78.48,2.49,2.49,0,0,1-2.82-2.71V268.7h-1.16V267h1.16v-1.84H885V267h1.87v1.68H885v3.06a.88.88,0,0,0,.93,1,1.5,1.5,0,0,0,.89-.28Z"/>
        <path class="cls-80" d="M895.32,270.08v4.3h-2v-.93a2.49,2.49,0,0,1-2.3,1.05c-1.77,0-2.82-1-2.82-2.29s.94-2.25,3.24-2.25h1.74c0-.94-.56-1.49-1.74-1.49a3.65,3.65,0,0,0-2.17.7l-.78-1.52a5.75,5.75,0,0,1,3.25-.91C894,266.74,895.32,267.8,895.32,270.08ZM893.14,272v-.77h-1.5c-1,0-1.35.38-1.35.88s.47.92,1.24.92A1.62,1.62,0,0,0,893.14,272Z"/>
        <path class="cls-80" d="M897.29,264h2.19v10.39h-2.19Z"/>
        <path class="cls-80" d="M905.62,264.58h4.46c3.21,0,5.4,1.93,5.4,4.9s-2.19,4.9-5.4,4.9h-4.46Zm4.34,7.94a3,3,0,1,0,0-6.08h-2.07v6.08Z"/>
        <path class="cls-80" d="M923.7,270.08v4.3h-2.05v-.93a2.47,2.47,0,0,1-2.29,1.05c-1.77,0-2.82-1-2.82-2.29s.94-2.25,3.24-2.25h1.74c0-.94-.57-1.49-1.74-1.49a3.63,3.63,0,0,0-2.17.7l-.79-1.52a5.8,5.8,0,0,1,3.25-.91C922.37,266.74,923.7,267.8,923.7,270.08ZM921.52,272v-.77H920c-1,0-1.35.38-1.35.88s.46.92,1.23.92A1.63,1.63,0,0,0,921.52,272Z"/>
        <path class="cls-80" d="M925.4,264.58a1.25,1.25,0,0,1,1.36-1.22,1.22,1.22,0,0,1,1.36,1.18,1.37,1.37,0,0,1-2.72,0Zm.27,2.27h2.19v7.53h-2.19Z"/>
        <path class="cls-80" d="M929.88,264h2.19v10.39h-2.19Z"/>
        <path class="cls-80" d="M941.58,266.85l-3.41,8c-.72,1.82-1.76,2.36-3.12,2.36a3.37,3.37,0,0,1-2.1-.68l.8-1.56a1.9,1.9,0,0,0,1.23.48c.6,0,.94-.27,1.23-.94l0-.07L933,266.85h2.25l2.12,5.11,2.13-5.11Z"/>
        <path class="cls-80" d="M952.83,274.38l-1.89-2.73h-2.08v2.73h-2.27v-9.8h4.24c2.62,0,4.26,1.36,4.26,3.56a3.17,3.17,0,0,1-2,3.09l2.2,3.15Zm-2.13-7.95h-1.84v3.42h1.84c1.39,0,2.09-.65,2.09-1.71S952.09,266.43,950.7,266.43Z"/>
        <path class="cls-80" d="M956.45,264.58a1.25,1.25,0,0,1,1.36-1.22,1.22,1.22,0,0,1,1.36,1.18,1.37,1.37,0,0,1-2.72,0Zm.27,2.27h2.19v7.53h-2.19Z"/>
        <path class="cls-80" d="M968.61,264v10.39h-2.09v-.86a2.91,2.91,0,0,1-2.35,1,3.88,3.88,0,0,1,0-7.76,2.89,2.89,0,0,1,2.26.91V264Zm-2.14,6.63a1.93,1.93,0,1,0-1.92,2.08A1.91,1.91,0,0,0,966.47,270.62Z"/>
        <path class="cls-80" d="M978,271.23h-5.7a2,2,0,0,0,2.16,1.52,2.55,2.55,0,0,0,1.89-.73l1.16,1.26a3.94,3.94,0,0,1-3.11,1.22c-2.6,0-4.3-1.64-4.3-3.88a3.84,3.84,0,0,1,4-3.88,3.73,3.73,0,0,1,3.93,3.9C978,270.81,978,271.05,978,271.23ZM972.23,270H976a1.89,1.89,0,0,0-3.72,0Z"/>
        <path class="cls-80" d="M984.14,266.74v2l-.49,0a1.86,1.86,0,0,0-2,2.11v3.55h-2.18v-7.53h2.08v1A3.05,3.05,0,0,1,984.14,266.74Z"/>
        <path class="cls-80" d="M985.21,269.57h4v1.75h-4Z"/>
        <path class="cls-80" d="M864.79,290.48l.72-1.57a5.14,5.14,0,0,0,2.62.73c1,0,1.39-.26,1.39-.68,0-1.24-4.55,0-4.55-3,0-1.43,1.29-2.43,3.48-2.43a6.18,6.18,0,0,1,2.9.65l-.72,1.56a4.37,4.37,0,0,0-2.18-.56c-1,0-1.4.31-1.4.7,0,1.29,4.56,0,4.56,3,0,1.4-1.31,2.4-3.56,2.4A6.36,6.36,0,0,1,864.79,290.48Z"/>
        <path class="cls-80" d="M880.65,286.87v4.31h-2.18v-4c0-1.22-.56-1.78-1.53-1.78s-1.81.64-1.81,2v3.72H873V280.79h2.18v3.64a3.31,3.31,0,0,1,2.4-.89C879.31,283.54,880.65,284.57,880.65,286.87Z"/>
        <path class="cls-80" d="M882.36,281.38a1.24,1.24,0,0,1,1.35-1.22,1.22,1.22,0,0,1,1.36,1.18,1.36,1.36,0,0,1-2.71,0Zm.26,2.27h2.19v7.53h-2.19Z"/>
        <path class="cls-80" d="M895,287.42a3.66,3.66,0,0,1-3.75,3.88,2.92,2.92,0,0,1-2.27-.92v3.52h-2.18V283.65h2.08v.87a2.93,2.93,0,0,1,2.37-1A3.66,3.66,0,0,1,895,287.42Zm-2.21,0a1.93,1.93,0,1,0-1.92,2.08A1.9,1.9,0,0,0,892.83,287.42Z"/>
        <path class="cls-80" d="M906.4,286.62v4.56h-1V290a2.77,2.77,0,0,1-2.53,1.21c-1.67,0-2.69-.87-2.69-2.14S901,287,903.06,287h2.34v-.44c0-1.27-.71-1.95-2.09-1.95a3.71,3.71,0,0,0-2.45.87l-.45-.75a4.7,4.7,0,0,1,3-1C905.32,283.76,906.4,284.71,906.4,286.62Zm-1,2.35v-1.2h-2.31c-1.43,0-1.89.56-1.89,1.31s.69,1.39,1.86,1.39A2.35,2.35,0,0,0,905.4,289Z"/>
        <path class="cls-80" d="M915.87,286.91v4.27h-1V287a2.05,2.05,0,0,0-2.21-2.35,2.41,2.41,0,0,0-2.58,2.66v3.86h-1v-7.36h1v1.35a3.1,3.1,0,0,1,2.8-1.41A2.82,2.82,0,0,1,915.87,286.91Z"/>
        <path class="cls-80" d="M925.32,280.79v10.39h-1v-1.45a3.19,3.19,0,0,1-2.84,1.52,3.75,3.75,0,0,1,0-7.49,3.21,3.21,0,0,1,2.8,1.46v-4.43Zm-1,6.71a2.74,2.74,0,1,0-2.73,2.87A2.69,2.69,0,0,0,924.34,287.5Z"/>
        <path class="cls-80" d="M938.29,289.08h-4.55l-.87,2.1h-2.33l4.37-9.8h2.24l4.39,9.8h-2.38Zm-.72-1.72L936,283.61l-1.56,3.75Z"/>
        <path class="cls-80" d="M949.49,283.65l-3.18,7.53h-2.26l-3.16-7.53h2.25l2.09,5.12,2.16-5.12Z"/>
        <path class="cls-80" d="M957.51,288h-5.7a2,2,0,0,0,2.16,1.51,2.56,2.56,0,0,0,1.89-.72l1.16,1.26a3.94,3.94,0,0,1-3.11,1.22c-2.61,0-4.3-1.64-4.3-3.88a3.83,3.83,0,0,1,4-3.88,3.73,3.73,0,0,1,3.92,3.9C957.55,287.61,957.52,287.85,957.51,288Zm-5.73-1.27h3.71a1.88,1.88,0,0,0-3.71,0Z"/>
        <path class="cls-80" d="M963.68,283.54v2c-.18,0-.32,0-.49,0a1.85,1.85,0,0,0-2,2.11v3.55H959v-7.53h2.09v1A3,3,0,0,1,963.68,283.54Z"/>
        <path class="cls-80" d="M971.61,286.88v4.3h-2.05v-.93a2.47,2.47,0,0,1-2.29,1.05c-1.77,0-2.82-1-2.82-2.29s.94-2.25,3.24-2.25h1.73c0-.94-.56-1.49-1.73-1.49a3.68,3.68,0,0,0-2.18.7l-.78-1.52a5.8,5.8,0,0,1,3.25-.91C970.28,283.54,971.61,284.6,971.61,286.88Zm-2.19,1.92V288h-1.5c-1,0-1.34.38-1.34.88s.46.92,1.23.92A1.61,1.61,0,0,0,969.42,288.8Z"/>
        <path class="cls-80" d="M981.44,283.65v6.27c0,2.8-1.52,4.09-4.24,4.09a6.24,6.24,0,0,1-3.69-1l.87-1.57a4.47,4.47,0,0,0,2.66.85c1.54,0,2.21-.7,2.21-2.06v-.32a3.1,3.1,0,0,1-2.38.94,3.64,3.64,0,1,1,0-7.28,3,3,0,0,1,2.49,1.07v-1Zm-2.16,3.53a2,2,0,0,0-4,0,2,2,0,0,0,4,0Z"/>
        <path class="cls-80" d="M990.8,288h-5.7a2,2,0,0,0,2.16,1.51,2.55,2.55,0,0,0,1.89-.72l1.16,1.26a3.94,3.94,0,0,1-3.11,1.22c-2.6,0-4.3-1.64-4.3-3.88a3.83,3.83,0,0,1,4-3.88,3.73,3.73,0,0,1,3.92,3.9C990.84,287.61,990.82,287.85,990.8,288Zm-5.73-1.27h3.72a1.89,1.89,0,0,0-3.72,0Z"/>
        <path class="cls-80" d="M874.66,298.18V308h-2.27v-4h-4.45v4h-2.27v-9.8h2.27V302h4.45v-3.86Z"/>
        <path class="cls-80" d="M876.27,304.22a4.14,4.14,0,1,1,4.14,3.88A3.88,3.88,0,0,1,876.27,304.22Zm6.06,0a1.93,1.93,0,1,0-1.92,2.08A1.9,1.9,0,0,0,882.33,304.22Z"/>
        <path class="cls-80" d="M893.59,300.45V308h-2.08v-.89a3,3,0,0,1-2.33,1c-1.9,0-3.23-1.07-3.23-3.39v-4.26h2.19v3.93c0,1.26.56,1.82,1.53,1.82s1.73-.64,1.73-2v-3.72Z"/>
        <path class="cls-80" d="M900.29,300.33v2c-.18,0-.32,0-.49,0a1.85,1.85,0,0,0-2,2.11V308h-2.19v-7.53h2.09v1A3,3,0,0,1,900.29,300.33Z"/>
        <path class="cls-80" d="M901.59,297.59h2.19V308h-2.19Z"/>
        <path class="cls-80" d="M913.29,300.45l-3.41,8c-.73,1.82-1.76,2.36-3.12,2.36a3.37,3.37,0,0,1-2.1-.68l.79-1.56a1.92,1.92,0,0,0,1.24.48c.6,0,.94-.27,1.23-.94l0-.07-3.26-7.59h2.25l2.11,5.11,2.13-5.11Z"/>
        <path class="cls-80" d="M924.54,308l-1.89-2.73h-2.09V308h-2.27v-9.8h4.25c2.62,0,4.26,1.36,4.26,3.56a3.18,3.18,0,0,1-2,3.09L927,308Zm-2.13-8h-1.85v3.42h1.85c1.39,0,2.09-.65,2.09-1.71S923.8,300,922.41,300Z"/>
        <path class="cls-80" d="M928.16,298.18a1.25,1.25,0,0,1,1.36-1.22,1.23,1.23,0,0,1,1.36,1.18,1.37,1.37,0,0,1-2.72,0Zm.27,2.27h2.19V308h-2.19Z"/>
        <path class="cls-80" d="M940.32,297.59V308h-2.09v-.86a2.91,2.91,0,0,1-2.35,1,3.89,3.89,0,0,1,0-7.77,2.88,2.88,0,0,1,2.25.92v-3.66Zm-2.14,6.63a1.94,1.94,0,1,0-1.92,2.08A1.91,1.91,0,0,0,938.18,304.22Z"/>
        <path class="cls-80" d="M949.67,304.83H944a2,2,0,0,0,2.16,1.51,2.55,2.55,0,0,0,1.89-.72l1.16,1.26a4,4,0,0,1-3.11,1.22c-2.6,0-4.3-1.64-4.3-3.88a3.84,3.84,0,0,1,4-3.89,3.73,3.73,0,0,1,3.92,3.91C949.71,304.41,949.69,304.65,949.67,304.83Zm-5.73-1.27h3.71a1.88,1.88,0,0,0-3.71,0Z"/>
        <path class="cls-80" d="M955.84,300.33v2c-.18,0-.32,0-.49,0a1.85,1.85,0,0,0-2,2.11V308h-2.18v-7.53h2.08v1A3,3,0,0,1,955.84,300.33Z"/>
        <path class="cls-80" d="M956.44,307.28l.73-1.57a5.11,5.11,0,0,0,2.62.73c1,0,1.39-.26,1.39-.68,0-1.24-4.56,0-4.56-3,0-1.43,1.29-2.44,3.49-2.44a6.18,6.18,0,0,1,2.9.66l-.73,1.56a4.31,4.31,0,0,0-2.17-.56c-1,0-1.4.31-1.4.7,0,1.29,4.56,0,4.56,3,0,1.4-1.31,2.4-3.56,2.4A6.4,6.4,0,0,1,956.44,307.28Z"/>
        <path class="cls-80" d="M972.31,303.67V308h-2.19v-4c0-1.21-.56-1.77-1.52-1.77s-1.81.64-1.81,2V308h-2.18V297.59h2.18v3.64a3.32,3.32,0,0,1,2.4-.9C971,300.33,972.31,301.37,972.31,303.67Z"/>
        <path class="cls-80" d="M974,298.18a1.25,1.25,0,0,1,1.36-1.22,1.23,1.23,0,0,1,1.36,1.18,1.37,1.37,0,0,1-2.72,0Zm.27,2.27h2.18V308h-2.18Z"/>
        <path class="cls-80" d="M986.7,304.22A3.66,3.66,0,0,1,983,308.1a2.92,2.92,0,0,1-2.27-.92v3.52h-2.19V300.45h2.09v.87a2.94,2.94,0,0,1,2.37-1A3.67,3.67,0,0,1,986.7,304.22Zm-2.21,0a1.93,1.93,0,1,0-1.92,2.08A1.9,1.9,0,0,0,984.49,304.22Z"/>
        <path class="cls-80" d="M987.52,306.72a1.36,1.36,0,0,1,2.72,0,1.36,1.36,0,1,1-2.72,0Z"/>
      </g>
    </g>
    <g>
      <g>
        <line class="cls-81" x1="542.09" y1="493.24" x2="542.09" y2="692.42"/>
        <line class="cls-81" x1="541.18" y1="692.42" x2="872.02" y2="692.42"/>
      </g>
      <text class="cls-57" transform="translate(696.96 725.04) scale(1.01 1)">Hour</text>
      <text class="cls-43" transform="translate(519.01 639.66) rotate(-90)"><tspan class="cls-41">T</tspan><tspan x="6.23" y="0">otal daily </tspan><tspan class="cls-82" x="63.4" y="0">r</tspan><tspan x="68.11" y="0">ide</tspan><tspan class="cls-83" x="86.72" y="0">r</tspan><tspan x="91.49" y="0">ship</tspan></text>
      <text class="cls-26" transform="translate(614.69 472.76)"><tspan class="cls-27">A</tspan><tspan class="cls-28" x="11.07" y="0">v</tspan><tspan x="19.81" y="0">e</tspan><tspan class="cls-29" x="29.28" y="0">r</tspan><tspan class="cls-30" x="35.64" y="0">a</tspan><tspan class="cls-84" x="44.98" y="0">ge Hou</tspan><tspan class="cls-16" x="101.44" y="0">r</tspan><tspan x="107.85" y="0">ly Ride</tspan><tspan class="cls-31" x="160.96" y="0">r</tspan><tspan x="167.4" y="0">ship</tspan></text>
      <text class="cls-85" transform="translate(540.73 706.48)">0</text>
      <text class="cls-86" transform="translate(866.77 706.48)">2<tspan class="cls-87" x="6.54" y="0">4</tspan></text>
      <text class="cls-85" transform="translate(703.77 706.48)">12</text>
      <text class="cls-85" transform="translate(623.09 706.48)">6</text>
      <text class="cls-85" transform="translate(785.58 706.48)">18</text>
      <g>
        <polyline class="cls-88" points="543.05 679.4 557.21 680.2 571.39 679.27 585.55 679.67 599.73 672.27 613.9 668.04 628.07 578.43 642.25 485.68 656.41 629.98 670.59 632.72 684.75 664.34 698.93 636.63 713.1 647.15 727.27 653.76 741.44 653.53 755.61 638.49 769.79 524.24 783.96 508.65 798.13 524.06 812.3 603.31 826.47 667.85 840.64 669.91 854.81 676.63 868.98 677.85"/>
        <polyline class="cls-89" points="543.05 676.76 557.21 677.55 571.39 681.91 585.55 681.25 599.73 674.91 613.9 669.41 628.07 609.89 642.25 521.87 656.41 603.54 670.59 620.99 684.75 663.01 698.93 629.98 713.1 636.1 727.27 651.12 741.44 648.48 755.61 615.43 769.79 548.61 783.96 495.75 798.13 566.54 812.3 629.98 826.47 654.35 840.64 667.61 854.81 673.72 868.98 677.55"/>
        <polyline class="cls-90" points="543.05 678.08 557.21 678.87 571.39 678.74 585.55 680.78 599.73 676.36 613.9 673.72 628.07 653.92 642.25 579.54 656.41 561.51 670.59 582.16 684.75 627.49 698.93 635.55 713.1 630.24 727.27 619.66 741.44 648.74 755.61 649.01 769.79 574.62 783.96 521.87 798.13 548.09 812.3 558.95 826.47 670.5 840.64 671.05 854.81 673.98 868.98 675.2"/>
        <circle class="cls-89" cx="543.05" cy="676.76" r="1.26"/>
        <circle class="cls-89" cx="557.21" cy="677.55" r="1.26"/>
        <circle class="cls-89" cx="571.39" cy="681.91" r="1.26"/>
        <circle class="cls-89" cx="585.56" cy="681.25" r="1.26"/>
        <circle class="cls-89" cx="599.73" cy="674.91" r="1.26"/>
        <circle class="cls-89" cx="613.9" cy="669.41" r="1.26"/>
        <circle class="cls-89" cx="628.07" cy="609.89" r="1.26"/>
        <circle class="cls-89" cx="642.25" cy="518.86" r="1.26"/>
        <circle class="cls-89" cx="656.41" cy="603.54" r="1.26"/>
        <circle class="cls-89" cx="670.59" cy="620.99" r="1.26"/>
        <circle class="cls-89" cx="684.76" cy="663.01" r="1.26"/>
        <circle class="cls-89" cx="698.93" cy="629.98" r="1.26"/>
        <circle class="cls-89" cx="713.1" cy="636.1" r="1.26"/>
        <circle class="cls-89" cx="727.27" cy="651.12" r="1.26"/>
        <circle class="cls-89" cx="741.44" cy="648.48" r="1.26"/>
        <circle class="cls-89" cx="755.61" cy="615.43" r="1.26"/>
        <circle class="cls-89" cx="769.79" cy="548.61" r="1.26"/>
        <circle class="cls-89" cx="783.96" cy="492.75" r="1.26"/>
        <circle class="cls-89" cx="798.13" cy="566.54" r="1.26"/>
        <circle class="cls-89" cx="812.3" cy="629.98" r="1.26"/>
        <circle class="cls-89" cx="826.47" cy="654.35" r="1.26"/>
        <circle class="cls-89" cx="840.64" cy="667.61" r="1.26"/>
        <circle class="cls-89" cx="854.81" cy="673.72" r="1.26"/>
        <circle class="cls-89" cx="868.98" cy="677.55" r="1.26"/>
        <circle class="cls-88" cx="543.05" cy="679.4" r="1.26"/>
        <circle class="cls-88" cx="557.21" cy="680.2" r="1.26"/>
        <circle class="cls-88" cx="571.39" cy="679.27" r="1.26"/>
        <circle class="cls-88" cx="585.56" cy="679.67" r="1.26"/>
        <circle class="cls-88" cx="599.73" cy="672.27" r="1.26"/>
        <circle class="cls-88" cx="613.9" cy="668.04" r="1.26"/>
        <circle class="cls-88" cx="628.07" cy="578.43" r="1.26"/>
        <circle class="cls-88" cx="642.25" cy="485.68" r="1.26"/>
        <circle class="cls-88" cx="656.41" cy="629.98" r="1.26"/>
        <circle class="cls-88" cx="670.59" cy="632.72" r="1.26"/>
        <circle class="cls-88" cx="684.76" cy="664.34" r="1.26"/>
        <circle class="cls-88" cx="698.93" cy="636.63" r="1.26"/>
        <circle class="cls-88" cx="713.1" cy="647.15" r="1.26"/>
        <circle class="cls-88" cx="727.27" cy="653.77" r="1.26"/>
        <circle class="cls-88" cx="741.44" cy="653.53" r="1.26"/>
        <circle class="cls-88" cx="755.61" cy="638.49" r="1.26"/>
        <circle class="cls-88" cx="769.79" cy="524.24" r="1.26"/>
        <circle class="cls-88" cx="783.96" cy="508.65" r="1.26"/>
        <circle class="cls-88" cx="798.13" cy="524.06" r="1.26"/>
        <circle class="cls-88" cx="812.3" cy="603.31" r="1.26"/>
        <circle class="cls-88" cx="826.47" cy="667.85" r="1.26"/>
        <circle class="cls-88" cx="840.64" cy="669.92" r="1.26"/>
        <circle class="cls-88" cx="854.81" cy="676.62" r="1.26"/>
        <circle class="cls-88" cx="868.98" cy="677.85" r="1.26"/>
        <circle class="cls-90" cx="543.05" cy="678.08" r="1.26"/>
        <circle class="cls-90" cx="557.21" cy="678.87" r="1.26"/>
        <circle class="cls-90" cx="571.39" cy="678.74" r="1.26"/>
        <circle class="cls-90" cx="585.56" cy="680.78" r="1.26"/>
        <circle class="cls-90" cx="599.73" cy="676.36" r="1.26"/>
        <circle class="cls-90" cx="613.9" cy="673.72" r="1.26"/>
        <circle class="cls-90" cx="628.07" cy="653.92" r="1.26"/>
        <circle class="cls-90" cx="642.25" cy="579.54" r="1.26"/>
        <circle class="cls-90" cx="656.41" cy="561.51" r="1.26"/>
        <circle class="cls-90" cx="670.59" cy="582.16" r="1.26"/>
        <circle class="cls-90" cx="684.76" cy="627.49" r="1.26"/>
        <circle class="cls-90" cx="698.93" cy="635.55" r="1.26"/>
        <circle class="cls-90" cx="713.1" cy="630.24" r="1.26"/>
        <circle class="cls-90" cx="727.27" cy="619.66" r="1.26"/>
        <circle class="cls-90" cx="741.44" cy="648.74" r="1.26"/>
        <circle class="cls-90" cx="755.61" cy="649.01" r="1.26"/>
        <circle class="cls-90" cx="769.79" cy="574.62" r="1.26"/>
        <circle class="cls-90" cx="783.96" cy="521.86" r="1.26"/>
        <circle class="cls-90" cx="798.13" cy="548.09" r="1.26"/>
        <circle class="cls-90" cx="812.3" cy="558.95" r="1.26"/>
        <circle class="cls-90" cx="826.47" cy="670.5" r="1.26"/>
        <circle class="cls-90" cx="840.64" cy="671.05" r="1.26"/>
        <circle class="cls-90" cx="854.81" cy="673.98" r="1.26"/>
        <circle class="cls-90" cx="868.98" cy="675.2" r="1.26"/>
        <g>
          <polyline class="cls-91" points="542.32 685.41 556.49 686.2 570.66 685.28 584.83 685.67 599 678.27 613.17 674.04 627.35 584.44 641.52 491.68 655.69 635.98 669.86 638.73 684.03 670.34 698.21 642.64 712.37 653.16 726.55 659.77 740.72 659.53 754.89 644.49 769.06 530.25 783.23 514.65 797.4 530.07 811.57 609.31 825.75 673.85 839.91 675.92 854.09 682.63 868.26 683.85"/>
          <circle class="cls-91" cx="542.32" cy="685.41" r="1.26"/>
          <circle class="cls-91" cx="556.49" cy="686.2" r="1.26"/>
          <circle class="cls-91" cx="570.66" cy="685.28" r="1.26"/>
          <circle class="cls-91" cx="584.83" cy="685.67" r="1.26"/>
          <circle class="cls-91" cx="599.01" cy="678.27" r="1.26"/>
          <circle class="cls-91" cx="613.17" cy="674.04" r="1.26"/>
          <circle class="cls-91" cx="627.35" cy="584.44" r="1.26"/>
          <circle class="cls-91" cx="641.52" cy="491.68" r="1.26"/>
          <circle class="cls-91" cx="655.69" cy="635.98" r="1.26"/>
          <circle class="cls-91" cx="669.86" cy="638.73" r="1.26"/>
          <circle class="cls-91" cx="684.03" cy="670.34" r="1.26"/>
          <circle class="cls-91" cx="698.21" cy="642.64" r="1.26"/>
          <circle class="cls-91" cx="712.37" cy="653.16" r="1.26"/>
          <circle class="cls-91" cx="726.55" cy="659.77" r="1.26"/>
          <circle class="cls-91" cx="740.71" cy="659.53" r="1.26"/>
          <circle class="cls-91" cx="754.89" cy="644.49" r="1.26"/>
          <circle class="cls-91" cx="769.06" cy="530.25" r="1.26"/>
          <circle class="cls-91" cx="783.23" cy="514.65" r="1.26"/>
          <circle class="cls-91" cx="797.4" cy="530.07" r="1.26"/>
          <circle class="cls-91" cx="811.57" cy="609.31" r="1.26"/>
          <circle class="cls-91" cx="825.75" cy="673.85" r="1.26"/>
          <circle class="cls-91" cx="839.91" cy="675.92" r="1.26"/>
          <circle class="cls-91" cx="854.09" cy="682.63" r="1.26"/>
          <circle class="cls-91" cx="868.26" cy="683.85" r="1.26"/>
        </g>
        <g>
          <polyline class="cls-92" points="542.32 677.24 556.49 678.04 570.66 677.12 584.83 677.51 599 670.11 613.17 665.88 627.35 576.27 641.52 497.88 655.69 633.98 669.33 612.72 684.03 662.18 698.21 634.48 714.07 639.39 725.08 664.24 741.97 659.84 754.89 636.33 769.06 522.08 783.23 511.48 797.4 521.9 819.2 600.64 825.75 665.69 839.91 667.76 854.09 674.47 868.26 675.69"/>
          <circle class="cls-92" cx="542.32" cy="677.24" r="1.26"/>
          <circle class="cls-92" cx="556.49" cy="678.04" r="1.26"/>
          <circle class="cls-92" cx="570.66" cy="677.12" r="1.26"/>
          <circle class="cls-92" cx="584.83" cy="677.51" r="1.26"/>
          <circle class="cls-92" cx="599.01" cy="670.11" r="1.26"/>
          <circle class="cls-92" cx="613.17" cy="665.88" r="1.26"/>
          <circle class="cls-92" cx="627.35" cy="576.28" r="1.26"/>
          <circle class="cls-92" cx="641.52" cy="491.69" r="1.26"/>
          <circle class="cls-92" cx="655.69" cy="633.98" r="1.26"/>
          <circle class="cls-92" cx="669.33" cy="612.72" r="1.26"/>
          <circle class="cls-92" cx="684.03" cy="662.18" r="1.26"/>
          <circle class="cls-92" cx="698.21" cy="634.48" r="1.26"/>
          <circle class="cls-92" cx="714.04" cy="639.31" r="1.26"/>
          <circle class="cls-92" cx="724.75" cy="664.83" r="1.26"/>
          <circle class="cls-92" cx="741.97" cy="659.76" r="1.26"/>
          <circle class="cls-92" cx="754.89" cy="636.33" r="1.26"/>
          <circle class="cls-92" cx="769.06" cy="522.08" r="1.26"/>
          <circle class="cls-92" cx="783.23" cy="511.16" r="1.26"/>
          <circle class="cls-92" cx="797.4" cy="521.9" r="1.26"/>
          <circle class="cls-92" cx="819.15" cy="600.61" r="1.26"/>
          <circle class="cls-92" cx="825.75" cy="665.69" r="1.26"/>
          <circle class="cls-92" cx="839.91" cy="667.76" r="1.26"/>
          <circle class="cls-92" cx="854.09" cy="674.47" r="1.26"/>
          <circle class="cls-92" cx="868.26" cy="675.69" r="1.26"/>
        </g>
      </g>
    </g>
    <text class="cls-57" transform="translate(244.38 723.67) scale(1.01 1)">Da<tspan class="cls-93" x="18.94" y="0">t</tspan><tspan x="24.11" y="0">e</tspan></text>
    <text class="cls-69" transform="translate(98.98 347.5)">min #</text>
    <text class="cls-69" transform="translate(185.28 347.29)">max #</text>
    <text class="cls-57" transform="translate(78.01 409.66) scale(1.01 1)"><tspan class="cls-94">T</tspan><tspan x="6.94" y="0">otal sele</tspan><tspan class="cls-95" x="62.04" y="0">c</tspan><tspan class="cls-93" x="69.65" y="0">t</tspan><tspan x="74.83" y="0">ed stations: </tspan><tspan class="cls-96" x="154.68" y="0">4</tspan><tspan class="cls-15" x="163.8" y="0">3</tspan></text>
  </g>
</svg>
