<svg id="Main" xmlns="http://www.w3.org/2000/svg" xmlns:xlink="http://www.w3.org/1999/xlink" width="1024" height="768" viewBox="0 0 1024 768">
  <defs>
    <style>
      .cls-1, .cls-2, .cls-21, .cls-22, .cls-23, .cls-24, .cls-25, .cls-26, .cls-27, .cls-28, .cls-29, .cls-30, .cls-31, .cls-38, .cls-42, .cls-43, .cls-44, .cls-45, .cls-53, .cls-54, .cls-55, .cls-56, .cls-57, .cls-62, .cls-73, .cls-78, .cls-87, .cls-94, .cls-95, .cls-96, .cls-97, .cls-98 {
        fill: none;
      }

      .cls-2 {
        stroke: #231f20;
        stroke-width: 0.72px;
      }

      .cls-3, .cls-85 {
        fill: #d8d8d8;
      }

      .cls-4 {
        font-size: 27px;
      }

      .cls-32, .cls-39, .cls-4, .cls-49, .cls-63, .cls-70, .cls-74, .cls-75, .cls-76, .cls-91, .cls-92 {
        fill: #787878;
      }

      .cls-102, .cls-15, .cls-32, .cls-4, .cls-70, .cls-75, .cls-76 {
        font-family: Montserrat-Bold, Montserrat;
        font-weight: 700;
      }

      .cls-5 {
        letter-spacing: -0.01em;
      }

      .cls-6 {
        font-size: 20px;
        font-weight: 400;
      }

      .cls-39, .cls-49, .cls-6, .cls-63, .cls-91, .cls-92 {
        font-family: Montserrat-Regular, Montserrat;
      }

      .cls-7 {
        letter-spacing: -0.02em;
      }

      .cls-8 {
        letter-spacing: -0.01em;
      }

      .cls-9 {
        letter-spacing: -0.01em;
      }

      .cls-10 {
        letter-spacing: -0.01em;
      }

      .cls-11 {
        letter-spacing: 0em;
      }

      .cls-12 {
        letter-spacing: -0.02em;
      }

      .cls-13 {
        letter-spacing: 0em;
      }

      .cls-14 {
        letter-spacing: -0.01em;
      }

      .cls-16 {
        letter-spacing: 0em;
      }

      .cls-17 {
        letter-spacing: 0em;
      }

      .cls-18 {
        letter-spacing: 0em;
      }

      .cls-19 {
        letter-spacing: 0em;
      }

      .cls-20 {
        letter-spacing: 0em;
      }

      .cls-21, .cls-53, .cls-78, .cls-85, .cls-95 {
        stroke: #d37928;
      }

      .cls-21, .cls-22, .cls-23, .cls-24, .cls-25, .cls-26, .cls-27, .cls-28, .cls-29, .cls-30, .cls-31, .cls-38, .cls-42, .cls-43, .cls-44, .cls-45, .cls-53, .cls-54, .cls-55, .cls-56, .cls-57, .cls-62, .cls-73, .cls-78, .cls-85, .cls-87, .cls-91, .cls-92, .cls-94, .cls-95, .cls-96, .cls-97, .cls-98 {
        stroke-miterlimit: 10;
      }

      .cls-21, .cls-22, .cls-23, .cls-24, .cls-25 {
        stroke-width: 2.98px;
      }

      .cls-22, .cls-54, .cls-96 {
        stroke: #91642e;
      }

      .cls-23, .cls-56, .cls-98 {
        stroke: #945e9e;
      }

      .cls-24, .cls-55, .cls-97 {
        stroke: #1f9647;
      }

      .cls-25, .cls-57, .cls-94 {
        stroke: #c32026;
      }

      .cls-26, .cls-27, .cls-28, .cls-29, .cls-30, .cls-31, .cls-38, .cls-42, .cls-43, .cls-44, .cls-45 {
        stroke: #fff;
      }

      .cls-26 {
        stroke-width: 0.99px;
      }

      .cls-27 {
        stroke-width: 4.9px;
      }

      .cls-28 {
        stroke-width: 5.89px;
      }

      .cls-29 {
        stroke-width: 3.97px;
      }

      .cls-30 {
        stroke-width: 2.55px;
      }

      .cls-31 {
        stroke-width: 2.18px;
      }

      .cls-32 {
        font-size: 15px;
      }

      .cls-33 {
        letter-spacing: -0.03em;
      }

      .cls-34 {
        letter-spacing: -0.01em;
      }

      .cls-35 {
        letter-spacing: -0.01em;
      }

      .cls-36 {
        letter-spacing: 0.01em;
      }

      .cls-37 {
        letter-spacing: 0em;
      }

      .cls-38 {
        stroke-width: 5.92px;
      }

      .cls-39 {
        font-size: 10px;
      }

      .cls-40 {
        letter-spacing: -0.01em;
      }

      .cls-41 {
        letter-spacing: 0.01em;
      }

      .cls-42 {
        stroke-width: 4.93px;
      }

      .cls-43 {
        stroke-width: 3.99px;
      }

      .cls-44 {
        stroke-width: 2.57px;
      }

      .cls-46 {
        letter-spacing: -0.01em;
      }

      .cls-47 {
        letter-spacing: -0.06em;
      }

      .cls-48 {
        letter-spacing: 0em;
      }

      .cls-49, .cls-91, .cls-92 {
        font-size: 12px;
      }

      .cls-50 {
        letter-spacing: -0.05em;
      }

      .cls-51 {
        letter-spacing: -0.01em;
      }

      .cls-52 {
        letter-spacing: 0em;
      }

      .cls-53, .cls-54, .cls-56, .cls-57 {
        stroke-width: 1.73px;
      }

      .cls-55 {
        stroke-width: 1.73px;
      }

      .cls-58, .cls-59, .cls-60, .cls-61 {
        opacity: 0.2;
      }

      .cls-58 {
        fill: url(#_10_lpi_10_);
      }

      .cls-59 {
        fill: url(#_10_lpi_10_3);
      }

      .cls-60 {
        fill: url(#_10_lpi_10_5);
      }

      .cls-61 {
        fill: url(#_10_lpi_10_7);
      }

      .cls-62, .cls-73, .cls-87, .cls-91, .cls-92 {
        stroke: #787878;
      }

      .cls-62 {
        stroke-width: 0.98px;
      }

      .cls-63 {
        font-size: 13.37px;
      }

      .cls-64 {
        fill: #945e9e;
      }

      .cls-65 {
        fill: #d37928;
      }

      .cls-66 {
        fill: #c32026;
      }

      .cls-67 {
        fill: #1f9647;
      }

      .cls-68 {
        fill: #91642e;
      }

      .cls-69 {
        fill: #fff;
      }

      .cls-70 {
        font-size: 13.63px;
      }

      .cls-71 {
        letter-spacing: 0.01em;
      }

      .cls-72 {
        letter-spacing: 0em;
      }

      .cls-73 {
        stroke-width: 2.37px;
      }

      .cls-75 {
        font-size: 9.48px;
      }

      .cls-76 {
        font-size: 11.84px;
      }

      .cls-77 {
        letter-spacing: -0.02em;
      }

      .cls-78, .cls-85, .cls-91, .cls-92 {
        stroke-linecap: round;
      }

      .cls-78 {
        stroke-width: 0.79px;
        stroke-dasharray: 0.79 0.79;
      }

      .cls-79 {
        letter-spacing: -0.03em;
      }

      .cls-80 {
        letter-spacing: -0.02em;
      }

      .cls-81 {
        letter-spacing: -0.01em;
      }

      .cls-82 {
        letter-spacing: 0.01em;
      }

      .cls-83 {
        letter-spacing: 0em;
      }

      .cls-84 {
        letter-spacing: 0em;
      }

      .cls-85 {
        stroke-width: 0.86px;
        stroke-dasharray: 0.86;
      }

      .cls-86 {
        fill: #231f20;
      }

      .cls-87 {
        stroke-width: 0.91px;
      }

      .cls-88 {
        letter-spacing: -0.01em;
      }

      .cls-89 {
        letter-spacing: 0em;
      }

      .cls-90 {
        letter-spacing: 0em;
      }

      .cls-91, .cls-92 {
        stroke-width: 0.75px;
        stroke-dasharray: 1;
      }

      .cls-92 {
        letter-spacing: -0.02em;
      }

      .cls-93 {
        letter-spacing: 0em;
      }

      .cls-94, .cls-95, .cls-96, .cls-97, .cls-98 {
        stroke-width: 2px;
      }

      .cls-99 {
        letter-spacing: -0.02em;
      }

      .cls-100 {
        letter-spacing: -0.05em;
      }

      .cls-101 {
        letter-spacing: 0.01em;
      }

      .cls-102 {
        letter-spacing: 0em;
      }
    </style>
    <pattern id="_10_lpi_10_" data-name="10 lpi 10%" width="72" height="72" patternTransform="translate(-188.35 94.34) scale(1.05 0.91)" patternUnits="userSpaceOnUse" viewBox="0 0 72 72">
      <rect class="cls-1" width="72" height="72"/>
      <g>
        <line class="cls-2" x1="71.75" y1="68.4" x2="144.25" y2="68.4"/>
        <line class="cls-2" x1="71.75" y1="54" x2="144.25" y2="54"/>
        <line class="cls-2" x1="71.75" y1="39.6" x2="144.25" y2="39.6"/>
        <line class="cls-2" x1="71.75" y1="25.2" x2="144.25" y2="25.2"/>
        <line class="cls-2" x1="71.75" y1="10.8" x2="144.25" y2="10.8"/>
        <line class="cls-2" x1="71.75" y1="61.2" x2="144.25" y2="61.2"/>
        <line class="cls-2" x1="71.75" y1="46.8" x2="144.25" y2="46.8"/>
        <line class="cls-2" x1="71.75" y1="32.4" x2="144.25" y2="32.4"/>
        <line class="cls-2" x1="71.75" y1="18" x2="144.25" y2="18"/>
        <line class="cls-2" x1="71.75" y1="3.6" x2="144.25" y2="3.6"/>
      </g>
      <g>
        <line class="cls-2" x1="-0.25" y1="68.4" x2="72.25" y2="68.4"/>
        <line class="cls-2" x1="-0.25" y1="54" x2="72.25" y2="54"/>
        <line class="cls-2" x1="-0.25" y1="39.6" x2="72.25" y2="39.6"/>
        <line class="cls-2" x1="-0.25" y1="25.2" x2="72.25" y2="25.2"/>
        <line class="cls-2" x1="-0.25" y1="10.8" x2="72.25" y2="10.8"/>
        <line class="cls-2" x1="-0.25" y1="61.2" x2="72.25" y2="61.2"/>
        <line class="cls-2" x1="-0.25" y1="46.8" x2="72.25" y2="46.8"/>
        <line class="cls-2" x1="-0.25" y1="32.4" x2="72.25" y2="32.4"/>
        <line class="cls-2" x1="-0.25" y1="18" x2="72.25" y2="18"/>
        <line class="cls-2" x1="-0.25" y1="3.6" x2="72.25" y2="3.6"/>
      </g>
      <g>
        <line class="cls-2" x1="-72.25" y1="68.4" x2="0.25" y2="68.4"/>
        <line class="cls-2" x1="-72.25" y1="54" x2="0.25" y2="54"/>
        <line class="cls-2" x1="-72.25" y1="39.6" x2="0.25" y2="39.6"/>
        <line class="cls-2" x1="-72.25" y1="25.2" x2="0.25" y2="25.2"/>
        <line class="cls-2" x1="-72.25" y1="10.8" x2="0.25" y2="10.8"/>
        <line class="cls-2" x1="-72.25" y1="61.2" x2="0.25" y2="61.2"/>
        <line class="cls-2" x1="-72.25" y1="46.8" x2="0.25" y2="46.8"/>
        <line class="cls-2" x1="-72.25" y1="32.4" x2="0.25" y2="32.4"/>
        <line class="cls-2" x1="-72.25" y1="18" x2="0.25" y2="18"/>
        <line class="cls-2" x1="-72.25" y1="3.6" x2="0.25" y2="3.6"/>
      </g>
    </pattern>
    <pattern id="_10_lpi_10_3" data-name="10 lpi 10%" width="72" height="72" patternTransform="translate(-176.46 94.34) scale(1.05 0.91)" patternUnits="userSpaceOnUse" viewBox="0 0 72 72">
      <rect class="cls-1" width="72" height="72"/>
      <g>
        <line class="cls-2" x1="71.75" y1="68.4" x2="144.25" y2="68.4"/>
        <line class="cls-2" x1="71.75" y1="54" x2="144.25" y2="54"/>
        <line class="cls-2" x1="71.75" y1="39.6" x2="144.25" y2="39.6"/>
        <line class="cls-2" x1="71.75" y1="25.2" x2="144.25" y2="25.2"/>
        <line class="cls-2" x1="71.75" y1="10.8" x2="144.25" y2="10.8"/>
        <line class="cls-2" x1="71.75" y1="61.2" x2="144.25" y2="61.2"/>
        <line class="cls-2" x1="71.75" y1="46.8" x2="144.25" y2="46.8"/>
        <line class="cls-2" x1="71.75" y1="32.4" x2="144.25" y2="32.4"/>
        <line class="cls-2" x1="71.75" y1="18" x2="144.25" y2="18"/>
        <line class="cls-2" x1="71.75" y1="3.6" x2="144.25" y2="3.6"/>
      </g>
      <g>
        <line class="cls-2" x1="-0.25" y1="68.4" x2="72.25" y2="68.4"/>
        <line class="cls-2" x1="-0.25" y1="54" x2="72.25" y2="54"/>
        <line class="cls-2" x1="-0.25" y1="39.6" x2="72.25" y2="39.6"/>
        <line class="cls-2" x1="-0.25" y1="25.2" x2="72.25" y2="25.2"/>
        <line class="cls-2" x1="-0.25" y1="10.8" x2="72.25" y2="10.8"/>
        <line class="cls-2" x1="-0.25" y1="61.2" x2="72.25" y2="61.2"/>
        <line class="cls-2" x1="-0.25" y1="46.8" x2="72.25" y2="46.8"/>
        <line class="cls-2" x1="-0.25" y1="32.4" x2="72.25" y2="32.4"/>
        <line class="cls-2" x1="-0.25" y1="18" x2="72.25" y2="18"/>
        <line class="cls-2" x1="-0.25" y1="3.6" x2="72.25" y2="3.6"/>
      </g>
      <g>
        <line class="cls-2" x1="-72.25" y1="68.4" x2="0.25" y2="68.4"/>
        <line class="cls-2" x1="-72.25" y1="54" x2="0.25" y2="54"/>
        <line class="cls-2" x1="-72.25" y1="39.6" x2="0.25" y2="39.6"/>
        <line class="cls-2" x1="-72.25" y1="25.2" x2="0.25" y2="25.2"/>
        <line class="cls-2" x1="-72.25" y1="10.8" x2="0.25" y2="10.8"/>
        <line class="cls-2" x1="-72.25" y1="61.2" x2="0.25" y2="61.2"/>
        <line class="cls-2" x1="-72.25" y1="46.8" x2="0.25" y2="46.8"/>
        <line class="cls-2" x1="-72.25" y1="32.4" x2="0.25" y2="32.4"/>
        <line class="cls-2" x1="-72.25" y1="18" x2="0.25" y2="18"/>
        <line class="cls-2" x1="-72.25" y1="3.6" x2="0.25" y2="3.6"/>
      </g>
    </pattern>
    <pattern id="_10_lpi_10_5" data-name="10 lpi 10%" width="72" height="72" patternTransform="translate(-162.47 94.34) scale(1.05 0.91)" patternUnits="userSpaceOnUse" viewBox="0 0 72 72">
      <rect class="cls-1" width="72" height="72"/>
      <g>
        <line class="cls-2" x1="71.75" y1="68.4" x2="144.25" y2="68.4"/>
        <line class="cls-2" x1="71.75" y1="54" x2="144.25" y2="54"/>
        <line class="cls-2" x1="71.75" y1="39.6" x2="144.25" y2="39.6"/>
        <line class="cls-2" x1="71.75" y1="25.2" x2="144.25" y2="25.2"/>
        <line class="cls-2" x1="71.75" y1="10.8" x2="144.25" y2="10.8"/>
        <line class="cls-2" x1="71.75" y1="61.2" x2="144.25" y2="61.2"/>
        <line class="cls-2" x1="71.75" y1="46.8" x2="144.25" y2="46.8"/>
        <line class="cls-2" x1="71.75" y1="32.4" x2="144.25" y2="32.4"/>
        <line class="cls-2" x1="71.75" y1="18" x2="144.25" y2="18"/>
        <line class="cls-2" x1="71.75" y1="3.6" x2="144.25" y2="3.6"/>
      </g>
      <g>
        <line class="cls-2" x1="-0.25" y1="68.4" x2="72.25" y2="68.4"/>
        <line class="cls-2" x1="-0.25" y1="54" x2="72.25" y2="54"/>
        <line class="cls-2" x1="-0.25" y1="39.6" x2="72.25" y2="39.6"/>
        <line class="cls-2" x1="-0.25" y1="25.2" x2="72.25" y2="25.2"/>
        <line class="cls-2" x1="-0.25" y1="10.8" x2="72.25" y2="10.8"/>
        <line class="cls-2" x1="-0.25" y1="61.2" x2="72.25" y2="61.2"/>
        <line class="cls-2" x1="-0.25" y1="46.8" x2="72.25" y2="46.8"/>
        <line class="cls-2" x1="-0.25" y1="32.4" x2="72.25" y2="32.4"/>
        <line class="cls-2" x1="-0.25" y1="18" x2="72.25" y2="18"/>
        <line class="cls-2" x1="-0.25" y1="3.6" x2="72.25" y2="3.6"/>
      </g>
      <g>
        <line class="cls-2" x1="-72.25" y1="68.4" x2="0.25" y2="68.4"/>
        <line class="cls-2" x1="-72.25" y1="54" x2="0.25" y2="54"/>
        <line class="cls-2" x1="-72.25" y1="39.6" x2="0.25" y2="39.6"/>
        <line class="cls-2" x1="-72.25" y1="25.2" x2="0.25" y2="25.2"/>
        <line class="cls-2" x1="-72.25" y1="10.8" x2="0.25" y2="10.8"/>
        <line class="cls-2" x1="-72.25" y1="61.2" x2="0.25" y2="61.2"/>
        <line class="cls-2" x1="-72.25" y1="46.8" x2="0.25" y2="46.8"/>
        <line class="cls-2" x1="-72.25" y1="32.4" x2="0.25" y2="32.4"/>
        <line class="cls-2" x1="-72.25" y1="18" x2="0.25" y2="18"/>
        <line class="cls-2" x1="-72.25" y1="3.6" x2="0.25" y2="3.6"/>
      </g>
    </pattern>
    <pattern id="_10_lpi_10_7" data-name="10 lpi 10%" width="72" height="72" patternTransform="translate(-77.46 94.34) scale(1.05 0.91)" patternUnits="userSpaceOnUse" viewBox="0 0 72 72">
      <rect class="cls-1" width="72" height="72"/>
      <g>
        <line class="cls-2" x1="71.75" y1="68.4" x2="144.25" y2="68.4"/>
        <line class="cls-2" x1="71.75" y1="54" x2="144.25" y2="54"/>
        <line class="cls-2" x1="71.75" y1="39.6" x2="144.25" y2="39.6"/>
        <line class="cls-2" x1="71.75" y1="25.2" x2="144.25" y2="25.2"/>
        <line class="cls-2" x1="71.75" y1="10.8" x2="144.25" y2="10.8"/>
        <line class="cls-2" x1="71.75" y1="61.2" x2="144.25" y2="61.2"/>
        <line class="cls-2" x1="71.75" y1="46.8" x2="144.25" y2="46.8"/>
        <line class="cls-2" x1="71.75" y1="32.4" x2="144.25" y2="32.4"/>
        <line class="cls-2" x1="71.75" y1="18" x2="144.25" y2="18"/>
        <line class="cls-2" x1="71.75" y1="3.6" x2="144.25" y2="3.6"/>
      </g>
      <g>
        <line class="cls-2" x1="-0.25" y1="68.4" x2="72.25" y2="68.4"/>
        <line class="cls-2" x1="-0.25" y1="54" x2="72.25" y2="54"/>
        <line class="cls-2" x1="-0.25" y1="39.6" x2="72.25" y2="39.6"/>
        <line class="cls-2" x1="-0.25" y1="25.2" x2="72.25" y2="25.2"/>
        <line class="cls-2" x1="-0.25" y1="10.8" x2="72.25" y2="10.8"/>
        <line class="cls-2" x1="-0.25" y1="61.2" x2="72.25" y2="61.2"/>
        <line class="cls-2" x1="-0.25" y1="46.8" x2="72.25" y2="46.8"/>
        <line class="cls-2" x1="-0.25" y1="32.4" x2="72.25" y2="32.4"/>
        <line class="cls-2" x1="-0.25" y1="18" x2="72.25" y2="18"/>
        <line class="cls-2" x1="-0.25" y1="3.6" x2="72.25" y2="3.6"/>
      </g>
      <g>
        <line class="cls-2" x1="-72.25" y1="68.4" x2="0.25" y2="68.4"/>
        <line class="cls-2" x1="-72.25" y1="54" x2="0.25" y2="54"/>
        <line class="cls-2" x1="-72.25" y1="39.6" x2="0.25" y2="39.6"/>
        <line class="cls-2" x1="-72.25" y1="25.2" x2="0.25" y2="25.2"/>
        <line class="cls-2" x1="-72.25" y1="10.8" x2="0.25" y2="10.8"/>
        <line class="cls-2" x1="-72.25" y1="61.2" x2="0.25" y2="61.2"/>
        <line class="cls-2" x1="-72.25" y1="46.8" x2="0.25" y2="46.8"/>
        <line class="cls-2" x1="-72.25" y1="32.4" x2="0.25" y2="32.4"/>
        <line class="cls-2" x1="-72.25" y1="18" x2="0.25" y2="18"/>
        <line class="cls-2" x1="-72.25" y1="3.6" x2="0.25" y2="3.6"/>
      </g>
    </pattern>
  </defs>
  <rect class="cls-3" width="1024" height="768"/>
  <text class="cls-4" transform="translate(27.17 54.78)"><tspan class="cls-5">W</tspan><tspan x="31" y="0">IEN U-BAHNNETZ</tspan><tspan class="cls-6"><tspan class="cls-7" x="0" y="24">V</tspan><tspan x="13.6" y="24">ienna Met</tspan><tspan class="cls-8" x="114.48" y="24">r</tspan><tspan x="122.24" y="24">omap </tspan><tspan class="cls-9" x="186.6" y="24">S</tspan><tspan class="cls-10" x="198.7" y="24">y</tspan><tspan class="cls-11" x="209.42" y="24">s</tspan><tspan class="cls-12" x="219.2" y="24">t</tspan><tspan x="226.94" y="24">em Dashb</tspan><tspan class="cls-13" x="330.68" y="24">o</tspan><tspan x="343.16" y="24">a</tspan><tspan class="cls-14" x="354.96" y="24">r</tspan><tspan x="362.72" y="24">d: </tspan><tspan class="cls-15" x="385.76" y="24">Dec 1st</tspan><tspan class="cls-11" x="459.54" y="24">, </tspan><tspan class="cls-16" x="469.01" y="24">2</tspan><tspan class="cls-17" x="480.29" y="24">0</tspan><tspan class="cls-18" x="493.49" y="24">2</tspan><tspan class="cls-11" x="504.77" y="24">0 - </tspan><tspan class="cls-15" x="536.13" y="24">Dec 31st</tspan><tspan x="621.75" y="24">, </tspan><tspan class="cls-19" x="631.23" y="24">2</tspan><tspan class="cls-20" x="642.51" y="24">0</tspan><tspan class="cls-16" x="655.71" y="24">2</tspan><tspan x="666.99" y="24">0</tspan></tspan></text>
  <g>
    <polyline class="cls-21" points="389.3 213.73 439.48 263.18 567.89 263.18 665.3 360.34"/>
    <polyline class="cls-22" points="415.38 397.48 456.95 356.16 456.95 226.52 513.77 170.93 611.18 170.93 627.17 155.68"/>
    <polyline class="cls-23" points="531.15 300.32 512.79 281.3 512.79 244.89 531.15 226.85 603.96 226.85 677.92 300.81 734.09 244.64 760.74 244.64"/>
    <polyline class="cls-24" points="358.55 243.25 415.75 300.44 567.39 300.44 586.3 281.54 586.3 244.48 531.09 189.28 531.09 153.96"/>
    <polyline class="cls-25" points="596.05 401.54 531.19 336.68 531.19 282.28 568.15 245.32 642.67 245.32 721.1 166.88"/>
    <circle class="cls-26" cx="389.3" cy="214" r="1.21"/>
    <circle class="cls-26" cx="401.19" cy="225.68" r="1.21"/>
    <circle class="cls-26" cx="413.08" cy="237.2" r="1.21"/>
    <circle class="cls-26" cx="437.15" cy="260.98" r="1.21"/>
    <circle class="cls-26" cx="475.77" cy="263.2" r="1.21"/>
    <circle class="cls-27" cx="550.91" cy="263.7" r="5.96"/>
    <circle class="cls-26" cx="615.98" cy="311.24" r="1.21"/>
    <circle class="cls-26" cx="625.65" cy="320.92" r="1.21"/>
    <circle class="cls-26" cx="645.33" cy="340.56" r="1.21"/>
    <circle class="cls-26" cx="655.13" cy="350.32" r="1.21"/>
    <circle class="cls-26" cx="760.74" cy="244.87" r="1.21"/>
    <circle class="cls-26" cx="745.92" cy="244.87" r="1.21"/>
    <circle class="cls-26" cx="732.33" cy="246.79" r="1.21"/>
    <circle class="cls-26" cx="723.53" cy="255.52" r="1.21"/>
    <circle class="cls-26" cx="714.86" cy="264.44" r="1.21"/>
    <circle class="cls-26" cx="697.15" cy="282.02" r="1.21"/>
    <circle class="cls-26" cx="688.17" cy="290.88" r="1.21"/>
    <circle class="cls-26" cx="635.92" cy="258.78" r="1.21"/>
    <circle class="cls-26" cx="514.67" cy="283.86" r="1.21"/>
    <circle class="cls-26" cx="370.07" cy="255.24" r="1.21"/>
    <circle class="cls-26" cx="394.1" cy="278.8" r="1.21"/>
    <circle class="cls-26" cx="405.82" cy="290.75" r="1.21"/>
    <circle class="cls-26" cx="420.17" cy="300.44" r="1.21"/>
    <circle class="cls-26" cx="457.23" cy="281.85" r="1.21"/>
    <circle class="cls-26" cx="475.6" cy="300.26" r="1.21"/>
    <circle class="cls-26" cx="494.21" cy="300.26" r="1.21"/>
    <circle class="cls-26" cx="534.1" cy="192.52" r="1.21"/>
    <circle class="cls-26" cx="531.19" cy="152.3" r="1.21"/>
    <circle class="cls-26" cx="506.14" cy="177.29" r="1.21"/>
    <circle class="cls-26" cx="495.61" cy="187.88" r="1.21"/>
    <circle class="cls-26" cx="474.62" cy="209.28" r="1.21"/>
    <circle class="cls-26" cx="463.84" cy="219.74" r="1.21"/>
    <circle class="cls-26" cx="457.23" cy="247.86" r="1.21"/>
    <circle class="cls-26" cx="457.1" cy="315.31" r="1.21"/>
    <circle class="cls-26" cx="457.1" cy="330.28" r="1.21"/>
    <circle class="cls-26" cx="457.1" cy="345.29" r="1.21"/>
    <circle class="cls-26" cx="444.4" cy="368.43" r="1.21"/>
    <circle class="cls-26" cx="434.56" cy="378.37" r="1.21"/>
    <circle class="cls-26" cx="424.72" cy="388.09" r="1.21"/>
    <circle class="cls-26" cx="415.07" cy="397.9" r="1.21"/>
    <circle class="cls-26" cx="664.76" cy="359.87" r="1.21"/>
    <circle class="cls-26" cx="712.25" cy="175.68" r="1.21"/>
    <circle class="cls-26" cx="703.39" cy="184.48" r="1.21"/>
    <circle class="cls-26" cx="695.26" cy="193" r="1.21"/>
    <circle class="cls-26" cx="677.01" cy="210.98" r="1.21"/>
    <circle class="cls-26" cx="659.27" cy="228.66" r="1.21"/>
    <circle class="cls-26" cx="650.45" cy="237.49" r="1.21"/>
    <circle class="cls-26" cx="547.1" cy="352.79" r="1.21"/>
    <circle class="cls-26" cx="566.44" cy="372.16" r="1.21"/>
    <circle class="cls-26" cx="576.22" cy="381.94" r="1.21"/>
    <circle class="cls-26" cx="586.15" cy="391.84" r="1.21"/>
    <circle class="cls-26" cx="595.56" cy="401.54" r="1.21"/>
    <circle class="cls-26" cx="554.27" cy="170.83" r="1.35"/>
    <circle class="cls-26" cx="576.8" cy="170.97" r="1.35"/>
    <circle class="cls-26" cx="598.91" cy="170.97" r="1.35"/>
    <circle class="cls-26" cx="627.17" cy="155.68" r="1.35"/>
    <circle class="cls-28" cx="532.8" cy="299.24" r="7.16"/>
    <circle class="cls-27" cx="512.79" cy="263.2" r="5.96"/>
    <circle class="cls-29" cx="586.3" cy="281.02" r="4.82"/>
    <circle class="cls-29" cx="531.19" cy="316.66" r="4.82"/>
    <circle class="cls-29" cx="531.19" cy="330.28" r="4.82"/>
    <circle class="cls-29" cx="567.36" cy="300.81" r="4.82"/>
    <circle class="cls-29" cx="569.08" cy="227.2" r="4.82"/>
    <circle class="cls-29" cx="457.1" cy="300.26" r="4.82"/>
    <circle class="cls-29" cx="622.68" cy="245.1" r="4.82"/>
    <circle class="cls-30" cx="586.3" cy="245.1" r="3.1"/>
    <circle class="cls-30" cx="641.11" cy="245.16" r="3.1"/>
    <circle class="cls-30" cx="605.35" cy="245.16" r="3.1"/>
    <circle class="cls-30" cx="603.81" cy="226.85" r="3.1"/>
    <circle class="cls-30" cx="531.19" cy="170.97" r="3.1"/>
    <circle class="cls-27" cx="512.79" cy="245.3" r="5.96"/>
    <circle class="cls-27" cx="531.19" cy="227.2" r="5.96"/>
    <circle class="cls-30" cx="549.8" cy="208.07" r="3.1"/>
    <circle class="cls-30" cx="573.9" cy="269.66" r="3.1"/>
    <circle class="cls-30" cx="532.91" cy="263.09" r="3.1"/>
    <circle class="cls-30" cx="596.22" cy="291.38" r="3.1"/>
    <circle class="cls-30" cx="606.03" cy="301.47" r="3.1"/>
    <circle class="cls-30" cx="635.92" cy="331.28" r="3.1"/>
    <circle class="cls-30" cx="556.98" cy="362.53" r="3.1"/>
    <circle class="cls-30" cx="538.51" cy="344.39" r="3.1"/>
    <circle class="cls-30" cx="513.98" cy="300.26" r="3.1"/>
    <circle class="cls-30" cx="457.1" cy="263.09" r="3.1"/>
    <circle class="cls-30" cx="441.46" cy="300.26" r="3.1"/>
    <circle class="cls-30" cx="454" cy="359.34" r="3.1"/>
    <circle class="cls-30" cx="457.1" cy="230.3" r="3.1"/>
    <circle class="cls-31" cx="496.82" cy="263.2" r="2.65"/>
    <circle class="cls-31" cx="425.55" cy="249.3" r="2.65"/>
    <circle class="cls-31" cx="649.24" cy="272.76" r="2.65"/>
    <circle class="cls-31" cx="663.13" cy="285.62" r="2.65"/>
    <circle class="cls-31" cx="673.74" cy="297.15" r="2.65"/>
    <circle class="cls-31" cx="706.29" cy="272.76" r="2.65"/>
    <circle class="cls-31" cx="668.43" cy="219.73" r="2.65"/>
    <circle class="cls-31" cx="687.13" cy="200.85" r="2.65"/>
    <circle class="cls-31" cx="721.1" cy="167.31" r="2.65"/>
    <circle class="cls-31" cx="618.54" cy="164.23" r="2.65"/>
    <circle class="cls-31" cx="486.23" cy="198.2" r="2.65"/>
    <circle class="cls-31" cx="382.21" cy="266.61" r="2.65"/>
    <circle class="cls-26" cx="358.77" cy="244.09" r="1.21"/>
  </g>
  <text class="cls-32" transform="translate(413.67 131)"><tspan class="cls-33">A</tspan><tspan class="cls-34" x="11.07" y="0">v</tspan><tspan x="19.81" y="0">e</tspan><tspan class="cls-35" x="29.28" y="0">r</tspan><tspan class="cls-36" x="35.64" y="0">a</tspan><tspan x="44.98" y="0">ge Daily Ride</tspan><tspan class="cls-37" x="148.47" y="0">r</tspan><tspan x="154.9" y="0">ship </tspan><tspan class="cls-34" x="192.34" y="0">b</tspan><tspan x="202.47" y="0">y Station</tspan></text>
  <g>
    <g>
      <circle class="cls-38" cx="790.55" cy="244.84" r="7.19"/>
      <text class="cls-39" transform="translate(806.28 249.16)">5<tspan class="cls-40" x="5.66" y="0">0,</tspan><tspan class="cls-11" x="14.18" y="0">00</tspan><tspan class="cls-41" x="27.42" y="0">0</tspan><tspan x="34.12" y="0">+</tspan></text>
    </g>
    <g>
      <circle class="cls-42" cx="793.09" cy="270.53" r="5.99"/>
      <text class="cls-39" transform="translate(807.42 273.4)">4<tspan class="cls-40" x="6.61" y="0">0,</tspan><tspan x="15.13" y="0">000</tspan></text>
    </g>
    <g>
      <circle class="cls-43" cx="794.42" cy="295.87" r="4.85"/>
      <text class="cls-39" transform="translate(806.73 299.17)">25<tspan class="cls-40" x="11.34" y="0">,</tspan><tspan class="cls-11" x="13.35" y="0">000</tspan></text>
    </g>
    <g>
      <circle class="cls-44" cx="796" cy="320.73" r="3.12"/>
      <text class="cls-39" transform="translate(804.64 324.86)">1<tspan class="cls-40" x="3.61" y="0">0,</tspan><tspan x="12.13" y="0">000</tspan></text>
    </g>
    <g>
      <circle class="cls-45" cx="798.45" cy="345.85" r="1.22"/>
      <text class="cls-39" transform="translate(804.74 350.55)">5<tspan class="cls-46" x="5.66" y="0">,</tspan><tspan x="7.67" y="0">000</tspan></text>
    </g>
  </g>
  <g>
    <text class="cls-32" transform="translate(177.14 472.76)"><tspan class="cls-47">T</tspan><tspan x="8.44" y="0">otal Daily Ride</tspan><tspan class="cls-48" x="122.08" y="0">r</tspan><tspan x="128.52" y="0">ship</tspan></text>
    <text class="cls-49" transform="translate(50.06 643.52) rotate(-90)"><tspan class="cls-50">T</tspan><tspan x="6.23" y="0">otal daily </tspan><tspan class="cls-51" x="63.4" y="0">r</tspan><tspan x="68.11" y="0">ide</tspan><tspan class="cls-52" x="86.72" y="0">r</tspan><tspan x="91.49" y="0">ship</tspan></text>
    <g>
      <g>
        <polyline class="cls-53" points="74.34 564.36 87.17 562.02 99.72 560.89 112.13 557.16 124.83 562.57 136.09 564.36 151.87 558.94 162.81 551.46 175.68 551.74 189.55 547.29 201.53 555.1 213.34 560.89 227.18 558.94 238.87 546.46 250.68 549.64 263.3 546.46 278.36 544.24 288.98 559.2 303.14 566.77 313.77 566.77 326.28 553.02 338.88 548.88 352.07 549.64 362.69 562.29 376.53 594.79 388.76 564.43 402.28 564.43 415.8 553.02 426.74 551.18 438.65 549.64 452.25 546.74"/>
        <polyline class="cls-54" points="74.34 631.75 90.53 633.79 100.83 627.12 112.13 623.46 124.33 635.47 138.81 633.51 149.92 631.75 162.57 623.15 174.86 621.57 187.71 619.32 199.97 624.65 213.02 621.6 225.5 623.46 238.1 620.41 250.7 623.46 263.31 618 276.25 628.51 288.49 627.6 301.36 633.51 313.69 631.75 326.28 627.96 338.88 627.6 350.93 630.18 364.08 631.75 372.81 633.79 388.59 652.02 401.78 641.35 416.91 620.41 427.21 620.41 439.76 625.31 452.25 627.6"/>
        <polyline class="cls-55" points="74.34 618.68 86.93 627.6 101.01 619.38 112.28 618 124.83 626.32 137.32 635.88 149.92 618 162.51 619.32 175.51 611.29 187.71 619.32 200.31 627.6 214.23 631.6 225.5 635.88 238.1 635.88 251.79 625.31 263.31 622.12 275.89 623.46 289.13 620.41 301.08 635.88 317.07 626.18 330.01 620.41 338.88 619.32 351.47 627.6 364.08 631.75 376.21 652.02 389.87 648.79 401.86 635.88 414.46 615.17 427.06 606.89 439.66 598.6 452.25 598.6"/>
        <polyline class="cls-56" points="74.34 499.16 86.93 495.01 99.53 503.31 113.06 502.7 124.73 503.31 137.32 495.01 149.92 501.57 161.99 497.95 175.11 495.01 187.71 499.16 200.31 495.01 213.49 502.9 225.72 505.57 238.1 507.44 250.7 503.31 263.31 502.7 275.89 507.44 288.49 503.31 301.36 505.57 313.69 511.59 326.28 503.81 338.88 507.44 351.47 507.44 363.16 505.57 374.28 514.71 389.27 503.31 402.28 503.3 414.51 501.2 427.61 497.3 439.66 503.31 452.25 511.59"/>
        <polyline class="cls-57" points="74.34 523.13 90.71 532.3 99.53 524.02 112.28 525.07 124.51 535.07 138.99 535.35 149.92 532.3 163.78 532.3 175.04 535.35 189.55 530.07 201.53 528.13 213.02 537.1 225.5 536.45 238.1 528.16 250.83 524.9 260.66 527.01 277.07 537.1 288.98 535.9 301.86 539.79 313.69 540.6 326.28 528.16 340.65 532.3 351.47 532.3 365.27 542.02 377.82 566.77 389.27 540.6 400.67 542.57 417.73 528.13 427.06 532.3 439.66 519.87 452.25 521.51"/>
      </g>
      <rect class="cls-58" x="119.36" y="486.16" width="26.07" height="199.19"/>
      <rect class="cls-59" x="207.05" y="486.16" width="26.07" height="199.19"/>
      <rect class="cls-60" x="296.84" y="486.16" width="26.07" height="199.19"/>
      <rect class="cls-61" x="381.85" y="486.16" width="26.07" height="199.19"/>
      <g>
        <line class="cls-62" x1="72.69" y1="486.16" x2="72.69" y2="685.35"/>
        <line class="cls-62" x1="71.64" y1="685.35" x2="454.99" y2="685.35"/>
      </g>
    </g>
    <text class="cls-63" transform="translate(68.14 705.38) rotate(-45) scale(1.01 1)">1st</text>
    <text class="cls-63" transform="translate(432.39 708.85) rotate(-45) scale(1.01 1)">31st</text>
    <text class="cls-63" transform="translate(256.72 711.45) rotate(-45) scale(1.01 1)">15th</text>
  </g>
  <g>
    <rect class="cls-64" y="738.25" width="1024" height="5.5"/>
    <rect class="cls-65" y="750.52" width="1024" height="5.5"/>
    <rect class="cls-66" y="744.34" width="1024" height="5.5"/>
    <rect class="cls-67" y="756.52" width="1024" height="5.5"/>
    <rect class="cls-68" x="1.16" y="762.52" width="1024" height="5.5"/>
    <rect class="cls-64" x="1.16" y="91.13" width="1024" height="2.75"/>
  </g>
  <g>
    <g>
      <g>
        <rect class="cls-64" x="268.68" y="143.7" width="27.76" height="27.76" rx="13.88" transform="translate(124.98 440.14) rotate(-90)"/>
        <path class="cls-69" d="M289.58,151.9a1,1,0,0,1,1.49,1.32l-.08.09L281,163.26a1,1,0,0,1-1.31.08l-.1-.08-5-5a1,1,0,0,1,1.31-1.5l.09.09,4.28,4.27Z"/>
      </g>
      <g>
        <rect class="cls-66" x="228.64" y="143.7" width="27.76" height="27.76" rx="13.88" transform="translate(84.94 400.1) rotate(-90)"/>
        <path class="cls-69" d="M249.1,151.9a1,1,0,0,1,1.41,0,1,1,0,0,1,.08,1.32l-.08.09-9.95,9.95a1,1,0,0,1-1.32.08l-.09-.08-5-5a1,1,0,0,1,0-1.41,1,1,0,0,1,1.32-.09l.09.09,4.27,4.27Z"/>
      </g>
      <g>
        <rect class="cls-65" x="188.61" y="143.7" width="27.76" height="27.76" rx="13.88" transform="translate(44.9 360.07) rotate(-90)"/>
        <path class="cls-69" d="M209.24,153.72a1,1,0,0,1,1.49,1.32l-.08.09-10,10a1,1,0,0,1-1.31.08l-.1-.08-5-5a1,1,0,0,1,1.31-1.49l.09.09L200,163Z"/>
      </g>
      <g>
        <rect class="cls-67" x="148.57" y="143.7" width="27.76" height="27.76" rx="13.88" transform="translate(4.86 320.03) rotate(-90)"/>
        <path class="cls-69" d="M169.21,153.72a1,1,0,0,1,1.4,0,1,1,0,0,1,.09,1.32l-.09.09-10,10a1,1,0,0,1-1.31.08l-.1-.08-5-5a1,1,0,0,1,0-1.4,1,1,0,0,1,1.31-.09l.1.09L160,163Z"/>
      </g>
      <g>
        <rect class="cls-68" x="108.53" y="143.7" width="27.76" height="27.76" rx="13.88" transform="translate(-35.17 279.99) rotate(-90)"/>
        <path class="cls-69" d="M128.73,153.72a1,1,0,0,1,1.49,1.32l-.08.09-9.95,10a1,1,0,0,1-1.31.08l-.1-.08-5-5a1,1,0,0,1,1.31-1.49l.09.09,4.28,4.27Z"/>
      </g>
    </g>
    <text class="cls-70" transform="translate(189.3 136.15)">Li<tspan class="cls-71" x="12.34" y="0">n</tspan><tspan class="cls-72" x="21.84" y="0">e</tspan></text>
    <g>
      <g>
        <line class="cls-73" x1="288.9" y1="214.52" x2="108.91" y2="214.52"/>
        <g>
          <path class="cls-69" d="M288.39,205.61a8.91,8.91,0,1,1-8.9,8.91A8.91,8.91,0,0,1,288.39,205.61Z"/>
          <path class="cls-74" d="M288.39,204.43a10.09,10.09,0,1,0,10.09,10.09,10.1,10.1,0,0,0-10.09-10.09Zm0,17.81a7.72,7.72,0,1,1,7.72-7.72,7.72,7.72,0,0,1-7.72,7.72Z"/>
        </g>
        <g>
          <circle class="cls-69" cx="109.41" cy="214.52" r="8.91" transform="translate(-47.53 31.88) rotate(-13.65)"/>
          <path class="cls-74" d="M109.41,204.43a10.09,10.09,0,1,1-10.09,10.09,10.09,10.09,0,0,1,10.09-10.09Zm0,17.81a7.72,7.72,0,1,0-7.72-7.72,7.72,7.72,0,0,0,7.72,7.72Z"/>
        </g>
      </g>
      <text class="cls-75" transform="translate(271.58 234.86)">Dec 31st</text>
      <text class="cls-75" transform="translate(88.84 237.66)">Dec 1st</text>
      <text class="cls-76" transform="translate(190.84 207.4)">Da<tspan class="cls-77" x="17.09" y="0">t</tspan><tspan x="22.04" y="0">e</tspan></text>
    </g>
    <path class="cls-78" d="M71.32,386.52V124a7.88,7.88,0,0,1,7.88-7.88H318A7.88,7.88,0,0,1,325.9,124V386.52A7.88,7.88,0,0,1,318,394.4H79.2a7.88,7.88,0,0,1-7.88-7.88Z"/>
    <g>
      <g>
        <line class="cls-73" x1="288.9" y1="272" x2="108.56" y2="272"/>
        <g>
          <path class="cls-69" d="M288.39,263.09a8.91,8.91,0,1,1-8.9,8.91A8.91,8.91,0,0,1,288.39,263.09Z"/>
          <path class="cls-74" d="M288.39,261.91A10.09,10.09,0,1,0,298.48,272a10.1,10.1,0,0,0-10.09-10.09Zm0,17.81a7.73,7.73,0,1,1,7.72-7.72,7.72,7.72,0,0,1-7.72,7.72Z"/>
        </g>
        <g>
          <path class="cls-69" d="M109.07,263.09A8.91,8.91,0,1,0,118,272,8.91,8.91,0,0,0,109.07,263.09Z"/>
          <path class="cls-74" d="M109.07,261.91A10.09,10.09,0,1,1,99,272a10.1,10.1,0,0,1,10.09-10.09Zm0,17.81a7.73,7.73,0,1,0-7.73-7.72,7.72,7.72,0,0,0,7.73,7.72Z"/>
        </g>
      </g>
      <text class="cls-75" transform="translate(267.15 296.42)">11:59 pm</text>
      <text class="cls-75" transform="translate(88.41 295.23)">12:00 am</text>
      <text class="cls-76" transform="translate(190.84 265.71)">Hour</text>
    </g>
    <g>
      <g>
        <line class="cls-73" x1="289.44" y1="326.95" x2="109.11" y2="326.95"/>
        <g>
          <circle class="cls-69" cx="288.94" cy="326.95" r="8.91" transform="translate(-95.65 533.04) rotate(-76.72)"/>
          <path class="cls-74" d="M288.94,316.86A10.09,10.09,0,1,0,299,327a10.11,10.11,0,0,0-10.09-10.09Zm0,17.81a7.72,7.72,0,1,1,7.72-7.72,7.72,7.72,0,0,1-7.72,7.72Z"/>
        </g>
        <g>
          <circle class="cls-69" cx="109.61" cy="326.95" r="8.91" transform="translate(-72.19 33.93) rotate(-13.28)"/>
          <path class="cls-74" d="M109.61,316.86A10.09,10.09,0,1,1,99.52,327a10.1,10.1,0,0,1,10.09-10.09Zm0,17.81a7.72,7.72,0,1,0-7.72-7.72,7.73,7.73,0,0,0,7.72,7.72Z"/>
        </g>
      </g>
      <text class="cls-76" transform="translate(130.38 320.66)"><tspan class="cls-79">A</tspan><tspan class="cls-80" x="8.74" y="0">v</tspan><tspan x="15.65" y="0">e</tspan><tspan class="cls-81" x="23.12" y="0">r</tspan><tspan class="cls-82" x="28.14" y="0">a</tspan><tspan x="35.52" y="0">ge Daily Ride</tspan><tspan class="cls-83" x="117.24" y="0">r</tspan><tspan class="cls-84" x="122.32" y="0">ship</tspan></text>
    </g>
    <g>
      <path class="cls-74" d="M191.29,371.44a14.16,14.16,0,0,0,24.59-5.35c0-.17.07-.35.11-.52h-3.25a11,11,0,0,1-19.58,3.15h6v-3.15h-11v11h3.14Z"/>
      <path class="cls-74" d="M196.43,352.89A11,11,0,0,1,211,356.14h-6v3.15h11v-11h-3.15v5.14a14.15,14.15,0,0,0-24.58,5.36c0,.17-.07.34-.11.52h3.24a10.9,10.9,0,0,1,5-6.39Z"/>
    </g>
  </g>
  <g>
    <rect class="cls-85" x="854.75" y="105.46" width="159.02" height="283.84"/>
    <g>
      <path class="cls-86" d="M868,114.27h-3.45v-.89h7.93v.89H869v8.91h-1Z"/>
      <path class="cls-86" d="M880.71,118.91v4.27h-1V119a2.05,2.05,0,0,0-2.21-2.35,2.42,2.42,0,0,0-2.58,2.66v3.86h-1V112.79h1v4.31a3.12,3.12,0,0,1,2.76-1.34A2.83,2.83,0,0,1,880.71,118.91Z"/>
      <path class="cls-86" d="M883.18,113.49a.72.72,0,0,1,.73-.7.71.71,0,0,1,.73.69.73.73,0,0,1-1.46,0Zm.23,2.33h1v7.36h-1Z"/>
      <path class="cls-86" d="M886.15,122.34l.45-.78a4.46,4.46,0,0,0,2.62.82c1.4,0,2-.47,2-1.2,0-1.92-4.78-.41-4.78-3.32,0-1.2,1-2.1,2.92-2.1a5,5,0,0,1,2.6.69l-.43.79a3.84,3.84,0,0,0-2.17-.63c-1.33,0-1.92.52-1.92,1.22,0,2,4.78.49,4.78,3.32,0,1.28-1.12,2.1-3,2.1A4.91,4.91,0,0,1,886.15,122.34Z"/>
      <path class="cls-86" d="M897.46,113.49a.72.72,0,0,1,.73-.7.71.71,0,0,1,.73.69.73.73,0,0,1-1.46,0Zm.23,2.33h1v7.36h-1Z"/>
      <path class="cls-86" d="M900.43,122.34l.45-.78a4.46,4.46,0,0,0,2.62.82c1.4,0,2-.47,2-1.2,0-1.92-4.77-.41-4.77-3.32,0-1.2,1-2.1,2.91-2.1a5,5,0,0,1,2.6.69l-.43.79a3.84,3.84,0,0,0-2.17-.63c-1.33,0-1.92.52-1.92,1.22,0,2,4.78.49,4.78,3.32,0,1.28-1.12,2.1-3,2.1A4.91,4.91,0,0,1,900.43,122.34Z"/>
      <path class="cls-86" d="M915.85,122.74a2.4,2.4,0,0,1-1.56.51,2,2,0,0,1-2.16-2.14v-4.45h-1.31v-.84h1.31v-1.61h1v1.61h2.24v.84h-2.24v4.39a1.18,1.18,0,0,0,1.27,1.35,1.67,1.67,0,0,0,1.1-.38Z"/>
      <path class="cls-86" d="M924.43,118.91v4.27h-1V119a2.05,2.05,0,0,0-2.21-2.35,2.42,2.42,0,0,0-2.58,2.66v3.86h-1V112.79h1v4.31a3.13,3.13,0,0,1,2.76-1.34A2.82,2.82,0,0,1,924.43,118.91Z"/>
      <path class="cls-86" d="M933.57,119.81h-6.16a2.72,2.72,0,0,0,2.9,2.56,2.89,2.89,0,0,0,2.25-1l.56.65a3.9,3.9,0,0,1-6.71-2.55,3.59,3.59,0,1,1,7.18,0C933.59,119.58,933.57,119.7,933.57,119.81Zm-6.16-.74h5.22a2.61,2.61,0,0,0-5.22,0Z"/>
      <path class="cls-86" d="M938.54,119.5a3.75,3.75,0,1,1,3.75,3.75A3.62,3.62,0,0,1,938.54,119.5Zm6.48,0a2.74,2.74,0,1,0-2.73,2.87A2.69,2.69,0,0,0,945,119.5Z"/>
      <path class="cls-86" d="M954,115.82l-3.28,7.36h-1l-3.27-7.36h1l2.76,6.27,2.79-6.27Z"/>
      <path class="cls-86" d="M961.64,119.81h-6.16a2.72,2.72,0,0,0,2.9,2.56,2.89,2.89,0,0,0,2.25-1l.56.65a3.9,3.9,0,0,1-6.71-2.55,3.59,3.59,0,1,1,7.18,0C961.66,119.58,961.64,119.7,961.64,119.81Zm-6.16-.74h5.22a2.61,2.61,0,0,0-5.22,0Z"/>
      <path class="cls-86" d="M967.39,115.76v1l-.23,0c-1.55,0-2.48,1-2.48,2.72v3.75h-1v-7.36h1v1.44A2.79,2.79,0,0,1,967.39,115.76Z"/>
      <path class="cls-86" d="M975.7,115.82l-3.28,7.36h-1l-3.27-7.36h1l2.76,6.27,2.79-6.27Z"/>
      <path class="cls-86" d="M976.87,113.49a.73.73,0,1,1,.73.72A.73.73,0,0,1,976.87,113.49Zm.22,2.33h1v7.36h-1Z"/>
      <path class="cls-86" d="M987.27,119.81h-6.16a2.72,2.72,0,0,0,2.9,2.56,2.89,2.89,0,0,0,2.26-1l.56.65a3.9,3.9,0,0,1-6.71-2.55,3.59,3.59,0,1,1,7.17,0C987.29,119.58,987.27,119.7,987.27,119.81Zm-6.16-.74h5.23a2.62,2.62,0,0,0-5.23,0Z"/>
      <path class="cls-86" d="M1000,115.82l-2.79,7.36h-.94l-2.32-6-2.33,6h-.94l-2.77-7.36h1l2.31,6.26,2.37-6.26h.86l2.35,6.26,2.34-6.26Z"/>
      <path class="cls-86" d="M865.15,136.3a3.75,3.75,0,1,1,3.75,3.75A3.62,3.62,0,0,1,865.15,136.3Zm6.48,0a2.74,2.74,0,1,0-2.73,2.87A2.69,2.69,0,0,0,871.63,136.3Z"/>
      <path class="cls-86" d="M875.8,131.75v.87h2.27v.84h-2.24V140h-1v-6.52h-1.32v-.84h1.32v-.91a2,2,0,0,1,2.22-2.19,2.35,2.35,0,0,1,1.48.46l-.34.74a1.72,1.72,0,0,0-1.09-.36C876.25,130.36,875.8,130.84,875.8,131.75Z"/>
      <path class="cls-86" d="M887,139.54a2.35,2.35,0,0,1-1.55.51,2,2,0,0,1-2.16-2.14v-4.45h-1.32v-.84h1.32V131h1v1.62h2.24v.84h-2.24v4.39a1.18,1.18,0,0,0,1.27,1.35,1.64,1.64,0,0,0,1.09-.38Z"/>
      <path class="cls-86" d="M895.55,135.71V140h-1v-4.17a2.05,2.05,0,0,0-2.21-2.35,2.42,2.42,0,0,0-2.58,2.66V140h-1V129.59h1v4.31a3.12,3.12,0,0,1,2.76-1.34A2.83,2.83,0,0,1,895.55,135.71Z"/>
      <path class="cls-86" d="M904.69,136.61h-6.17a2.73,2.73,0,0,0,2.9,2.56,2.89,2.89,0,0,0,2.26-1l.56.65a3.9,3.9,0,0,1-6.71-2.55,3.59,3.59,0,1,1,7.17,0C904.7,136.38,904.69,136.5,904.69,136.61Zm-6.17-.74h5.23a2.62,2.62,0,0,0-5.23,0Z"/>
      <path class="cls-86" d="M914.28,139.54a2.38,2.38,0,0,1-1.56.51,2,2,0,0,1-2.16-2.14v-4.45h-1.31v-.84h1.31V131h1v1.62h2.24v.84h-2.24v4.39a1.18,1.18,0,0,0,1.27,1.35,1.67,1.67,0,0,0,1.1-.38Z"/>
      <path class="cls-86" d="M919.79,132.56v1l-.24,0c-1.54,0-2.47,1-2.47,2.72V140h-1v-7.36H917v1.44A2.79,2.79,0,0,1,919.79,132.56Z"/>
      <path class="cls-86" d="M927.13,135.42V140h-1v-1.15a2.77,2.77,0,0,1-2.54,1.22c-1.66,0-2.69-.87-2.69-2.14s.73-2.09,2.85-2.09h2.34v-.44c0-1.27-.72-1.95-2.09-1.95a3.71,3.71,0,0,0-2.45.87l-.45-.75a4.67,4.67,0,0,1,3-1C926.05,132.56,927.13,133.51,927.13,135.42Zm-1,2.35v-1.2h-2.32c-1.42,0-1.89.56-1.89,1.31s.69,1.39,1.87,1.39A2.36,2.36,0,0,0,926.14,137.77Z"/>
      <path class="cls-86" d="M936.61,135.71V140h-1v-4.17a2.05,2.05,0,0,0-2.21-2.35,2.42,2.42,0,0,0-2.58,2.66V140h-1v-7.36h.95V134a3.11,3.11,0,0,1,2.8-1.41A2.82,2.82,0,0,1,936.61,135.71Z"/>
      <path class="cls-86" d="M938.28,139.14l.45-.78a4.49,4.49,0,0,0,2.62.82c1.4,0,2-.47,2-1.2,0-1.92-4.78-.41-4.78-3.32,0-1.2,1-2.1,2.91-2.1a5,5,0,0,1,2.61.69l-.43.79a3.87,3.87,0,0,0-2.18-.63c-1.33,0-1.91.52-1.91,1.22,0,2,4.77.49,4.77,3.32,0,1.28-1.12,2.1-3,2.1A4.93,4.93,0,0,1,938.28,139.14Z"/>
      <path class="cls-86" d="M945.93,130.29a.73.73,0,1,1,.73.71A.72.72,0,0,1,945.93,130.29Zm.22,2.33h1V140h-1Z"/>
      <path class="cls-86" d="M953.8,139.54a2.36,2.36,0,0,1-1.56.51,2,2,0,0,1-2.15-2.14v-4.45h-1.32v-.84h1.32V131h1v1.62h2.24v.84h-2.24v4.39a1.19,1.19,0,0,0,1.28,1.35,1.66,1.66,0,0,0,1.09-.38Z"/>
      <path class="cls-86" d="M864.87,155.94l.45-.78a4.46,4.46,0,0,0,2.62.83c1.4,0,2-.48,2-1.21,0-1.92-4.77-.4-4.77-3.32,0-1.2,1-2.1,2.91-2.1a5,5,0,0,1,2.6.69l-.43.79a3.84,3.84,0,0,0-2.17-.63c-1.33,0-1.92.52-1.92,1.22,0,2,4.78.49,4.78,3.32,0,1.28-1.12,2.1-3,2.1A4.91,4.91,0,0,1,864.87,155.94Z"/>
      <path class="cls-86" d="M878.79,149.42l-3.69,8.25c-.61,1.44-1.4,1.9-2.45,1.9a2.52,2.52,0,0,1-1.79-.67l.46-.74a1.88,1.88,0,0,0,1.35.56c.66,0,1.1-.31,1.52-1.24l.33-.71-3.3-7.35h1l2.77,6.26,2.78-6.26Z"/>
      <path class="cls-86" d="M879.08,155.94l.45-.78a4.46,4.46,0,0,0,2.62.83c1.4,0,2-.48,2-1.21,0-1.92-4.78-.4-4.78-3.32,0-1.2,1-2.1,2.92-2.1a5,5,0,0,1,2.6.69l-.43.79a3.84,3.84,0,0,0-2.17-.63c-1.33,0-1.92.52-1.92,1.22,0,2,4.78.49,4.78,3.32,0,1.28-1.12,2.1-3,2.1A4.91,4.91,0,0,1,879.08,155.94Z"/>
      <path class="cls-86" d="M890.83,156.34a2.36,2.36,0,0,1-1.56.51,2,2,0,0,1-2.15-2.14v-4.45H885.8v-.84h1.32v-1.61h1v1.61h2.24v.84h-2.24v4.4a1.18,1.18,0,0,0,1.28,1.34,1.66,1.66,0,0,0,1.09-.38Z"/>
      <path class="cls-86" d="M898.78,153.41h-6.16a2.72,2.72,0,0,0,2.9,2.56,2.89,2.89,0,0,0,2.25-1l.56.65a3.9,3.9,0,0,1-6.71-2.55,3.55,3.55,0,0,1,3.6-3.74,3.52,3.52,0,0,1,3.58,3.74C898.8,153.18,898.78,153.3,898.78,153.41Zm-6.16-.74h5.22a2.61,2.61,0,0,0-5.22,0Z"/>
      <path class="cls-86" d="M913,152.51v4.27h-1v-4.17c0-1.56-.79-2.35-2.12-2.35a2.36,2.36,0,0,0-2.46,2.66v3.86h-1v-4.17c0-1.56-.78-2.35-2.13-2.35a2.37,2.37,0,0,0-2.46,2.66v3.86h-1v-7.36h.95v1.34a3,3,0,0,1,2.71-1.4,2.65,2.65,0,0,1,2.62,1.56,3.19,3.19,0,0,1,2.91-1.56C911.8,149.36,913,150.4,913,152.51Z"/>
      <path class="cls-86" d="M915,156.08a.74.74,0,0,1,.74-.75.75.75,0,0,1,.76.75.76.76,0,0,1-.76.77A.75.75,0,0,1,915,156.08Z"/>
      <path class="cls-86" d="M924.43,147.88H921V147h7.93v.9h-3.45v8.9h-1Z"/>
      <path class="cls-86" d="M937.13,152.51v4.27h-1v-4.17a2.05,2.05,0,0,0-2.21-2.35,2.42,2.42,0,0,0-2.58,2.66v3.86h-1V146.39h1v4.32a3.11,3.11,0,0,1,2.76-1.35A2.83,2.83,0,0,1,937.13,152.51Z"/>
      <path class="cls-86" d="M946.27,153.41h-6.16A2.72,2.72,0,0,0,943,156a2.89,2.89,0,0,0,2.25-1l.56.65a3.9,3.9,0,0,1-6.71-2.55,3.55,3.55,0,0,1,3.6-3.74,3.51,3.51,0,0,1,3.57,3.74C946.28,153.18,946.27,153.3,946.27,153.41Zm-6.16-.74h5.22a2.61,2.61,0,0,0-5.22,0Z"/>
      <path class="cls-86" d="M958.7,146.39v10.39h-1v-1.45a3.2,3.2,0,0,1-2.84,1.52,3.75,3.75,0,0,1,0-7.49,3.21,3.21,0,0,1,2.8,1.46v-4.43Zm-1,6.71A2.74,2.74,0,1,0,955,156,2.7,2.7,0,0,0,957.72,153.1Z"/>
      <path class="cls-86" d="M967,152.22v4.56h-.95v-1.14a2.78,2.78,0,0,1-2.54,1.21c-1.66,0-2.69-.86-2.69-2.14,0-1.13.73-2.09,2.85-2.09H966v-.44c0-1.26-.72-2-2.09-2a3.71,3.71,0,0,0-2.45.87l-.45-.75a4.67,4.67,0,0,1,3-1C966,149.36,967,150.31,967,152.22Zm-1,2.35v-1.2h-2.32c-1.42,0-1.89.56-1.89,1.31s.69,1.39,1.87,1.39A2.36,2.36,0,0,0,966,154.57Z"/>
      <path class="cls-86" d="M973.61,156.34a2.36,2.36,0,0,1-1.56.51,2,2,0,0,1-2.15-2.14v-4.45h-1.32v-.84h1.32v-1.61h1v1.61h2.24v.84h-2.24v4.4a1.18,1.18,0,0,0,1.28,1.34,1.66,1.66,0,0,0,1.09-.38Z"/>
      <path class="cls-86" d="M981.56,153.41H975.4a2.72,2.72,0,0,0,2.9,2.56,2.87,2.87,0,0,0,2.25-1l.56.65a3.9,3.9,0,0,1-6.71-2.55,3.55,3.55,0,0,1,3.6-3.74,3.52,3.52,0,0,1,3.58,3.74C981.58,153.18,981.56,153.3,981.56,153.41Zm-6.16-.74h5.22a2.61,2.61,0,0,0-5.22,0Z"/>
      <path class="cls-86" d="M984.46,156.08a2.37,2.37,0,0,1-.2.82l-.59,1.93H983l.48-2a.71.71,0,0,1-.51-.72.75.75,0,1,1,1.49,0Z"/>
      <path class="cls-86" d="M865.89,163.19h1v10.39h-1Z"/>
      <path class="cls-86" d="M869.43,163.89a.72.72,0,0,1,.73-.7.71.71,0,0,1,.73.69.72.72,0,0,1-.73.73A.73.73,0,0,1,869.43,163.89Zm.23,2.33h1v7.36h-1Z"/>
      <path class="cls-86" d="M880.2,169.31v4.27h-1v-4.17a2.05,2.05,0,0,0-2.21-2.35,2.41,2.41,0,0,0-2.58,2.66v3.86h-1v-7.36h1v1.36a3.08,3.08,0,0,1,2.8-1.42A2.82,2.82,0,0,1,880.2,169.31Z"/>
      <path class="cls-86" d="M889.34,170.21h-6.16a2.72,2.72,0,0,0,2.9,2.56,2.89,2.89,0,0,0,2.26-1l.56.65a3.9,3.9,0,0,1-6.71-2.55,3.59,3.59,0,1,1,7.17,0C889.36,170,889.34,170.1,889.34,170.21Zm-6.16-.74h5.23a2.62,2.62,0,0,0-5.23,0Z"/>
      <path class="cls-86" d="M892.24,172.88a2.37,2.37,0,0,1-.2.82l-.58,1.93h-.68l.48-2a.72.72,0,0,1-.5-.72.74.74,0,1,1,1.48,0Z"/>
      <path class="cls-86" d="M903.58,169v4.56h-1v-1.14a2.78,2.78,0,0,1-2.54,1.21c-1.66,0-2.68-.86-2.68-2.14,0-1.13.72-2.09,2.84-2.09h2.34V169c0-1.27-.72-1.95-2.09-1.95a3.71,3.71,0,0,0-2.45.87l-.45-.75a4.68,4.68,0,0,1,3-1C902.5,166.16,903.58,167.11,903.58,169Zm-1,2.35v-1.2h-2.31c-1.43,0-1.89.56-1.89,1.31s.68,1.39,1.86,1.39A2.35,2.35,0,0,0,902.59,171.37Z"/>
      <path class="cls-86" d="M913.06,169.31v4.27h-1v-4.17a2.06,2.06,0,0,0-2.22-2.35,2.41,2.41,0,0,0-2.57,2.66v3.86h-1v-7.36h1v1.36a3.1,3.1,0,0,1,2.8-1.42A2.82,2.82,0,0,1,913.06,169.31Z"/>
      <path class="cls-86" d="M922.51,163.19v10.39h-1v-1.45a3.2,3.2,0,0,1-2.84,1.52,3.75,3.75,0,0,1,0-7.49,3.21,3.21,0,0,1,2.8,1.46v-4.43Zm-1,6.71a2.74,2.74,0,1,0-2.73,2.87A2.7,2.7,0,0,0,921.53,169.9Z"/>
      <path class="cls-86" d="M935.73,169.31v4.27h-1v-4.17a2.05,2.05,0,0,0-2.21-2.35,2.42,2.42,0,0,0-2.58,2.66v3.86h-1V163.19h1v4.31a3.12,3.12,0,0,1,2.76-1.34A2.83,2.83,0,0,1,935.73,169.31Z"/>
      <path class="cls-86" d="M937.71,169.9a3.75,3.75,0,1,1,3.75,3.75A3.62,3.62,0,0,1,937.71,169.9Zm6.49,0a2.74,2.74,0,1,0-2.74,2.87A2.69,2.69,0,0,0,944.2,169.9Z"/>
      <path class="cls-86" d="M953.87,166.22v7.36h-1v-1.34a2.92,2.92,0,0,1-2.65,1.41,2.85,2.85,0,0,1-3.11-3.16v-4.27h1v4.17c0,1.57.81,2.37,2.21,2.37a2.4,2.4,0,0,0,2.51-2.68v-3.86Z"/>
      <path class="cls-86" d="M960.36,166.16v1l-.23,0c-1.54,0-2.48,1-2.48,2.72v3.75h-1v-7.36h1v1.44A2.77,2.77,0,0,1,960.36,166.16Z"/>
      <path class="cls-86" d="M968.33,163.12a2.31,2.31,0,0,1,1.47.46l-.34.75a1.67,1.67,0,0,0-1.09-.37c-.85,0-1.3.48-1.3,1.39v.87h2.27v.84H967.1v6.52h-1v-6.52h-1.31v-.84h1.31v-.91A2,2,0,0,1,968.33,163.12Zm4.71.76a.73.73,0,1,1-.73-.69A.71.71,0,0,1,973,163.88Zm-1.24,2.34h1v7.36h-1Z"/>
      <path class="cls-86" d="M975.57,163.19h1v10.39h-1Z"/>
      <path class="cls-86" d="M983.24,173.14a2.35,2.35,0,0,1-1.55.51,2,2,0,0,1-2.16-2.14v-4.45h-1.32v-.84h1.32v-1.61h1v1.61h2.24v.84h-2.24v4.4a1.18,1.18,0,0,0,1.28,1.34,1.66,1.66,0,0,0,1.09-.38Z"/>
      <path class="cls-86" d="M991.19,170.21H985a2.72,2.72,0,0,0,2.9,2.56,2.89,2.89,0,0,0,2.26-1l.56.65A3.9,3.9,0,0,1,984,169.9a3.59,3.59,0,1,1,7.17,0C991.21,170,991.19,170.1,991.19,170.21Zm-6.16-.74h5.23a2.62,2.62,0,0,0-5.23,0Z"/>
      <path class="cls-86" d="M997,166.16v1l-.24,0c-1.54,0-2.48,1-2.48,2.72v3.75h-1v-7.36h1v1.44A2.78,2.78,0,0,1,997,166.16Z"/>
      <path class="cls-86" d="M997.77,172.74l.45-.78a4.46,4.46,0,0,0,2.62.83c1.4,0,2-.48,2-1.21,0-1.92-4.77-.41-4.77-3.32,0-1.2,1-2.1,2.91-2.1a5,5,0,0,1,2.6.69l-.43.79A3.82,3.82,0,0,0,1001,167c-1.33,0-1.92.52-1.92,1.22,0,2,4.78.49,4.78,3.32,0,1.28-1.12,2.1-3,2.1A4.91,4.91,0,0,1,997.77,172.74Z"/>
      <path class="cls-86" d="M871.45,185.82v4.56h-1v-1.14a2.78,2.78,0,0,1-2.54,1.21c-1.66,0-2.68-.87-2.68-2.14s.72-2.09,2.84-2.09h2.34v-.44c0-1.27-.72-1.95-2.09-1.95a3.71,3.71,0,0,0-2.45.87l-.45-.75a4.68,4.68,0,0,1,3-1C870.37,183,871.45,183.91,871.45,185.82Zm-1,2.35V187h-2.31c-1.43,0-1.89.56-1.89,1.31s.68,1.39,1.86,1.39A2.35,2.35,0,0,0,870.46,188.17Z"/>
      <path class="cls-86" d="M874.15,180h1v10.39h-1Z"/>
      <path class="cls-86" d="M877.92,180h1v10.39h-1Z"/>
      <path class="cls-86" d="M880.94,186.7a3.75,3.75,0,1,1,3.76,3.75A3.62,3.62,0,0,1,880.94,186.7Zm6.49,0a2.74,2.74,0,1,0-2.73,2.87A2.69,2.69,0,0,0,887.43,186.7Z"/>
      <path class="cls-86" d="M901.07,183l-2.79,7.36h-.94l-2.33-6-2.32,6h-.94L889,183h.95l2.31,6.26,2.37-6.26h.85l2.36,6.26,2.33-6.26Z"/>
      <path class="cls-86" d="M901.45,189.54l.45-.78a4.46,4.46,0,0,0,2.62.82c1.4,0,2-.47,2-1.2,0-1.92-4.77-.41-4.77-3.32,0-1.2,1-2.1,2.91-2.1a5,5,0,0,1,2.61.69l-.44.79a3.82,3.82,0,0,0-2.17-.63c-1.33,0-1.92.52-1.92,1.22,0,2,4.78.49,4.78,3.32,0,1.28-1.12,2.1-3,2.1A4.91,4.91,0,0,1,901.45,189.54Z"/>
      <path class="cls-86" d="M916.87,189.94a2.36,2.36,0,0,1-1.56.51,2,2,0,0,1-2.15-2.14v-4.45h-1.32V183h1.32v-1.61h1V183h2.24v.84h-2.24v4.39a1.19,1.19,0,0,0,1.28,1.35,1.66,1.66,0,0,0,1.09-.38Z"/>
      <path class="cls-86" d="M925.45,186.11v4.27h-1v-4.17a2.06,2.06,0,0,0-2.22-2.35,2.41,2.41,0,0,0-2.57,2.66v3.86h-1V180h1v4.31a3.11,3.11,0,0,1,2.76-1.34A2.82,2.82,0,0,1,925.45,186.11Z"/>
      <path class="cls-86" d="M934.59,187h-6.16a2.72,2.72,0,0,0,2.9,2.56,2.87,2.87,0,0,0,2.25-1l.56.65a3.89,3.89,0,0,1-6.7-2.55,3.59,3.59,0,1,1,7.17,0C934.61,186.78,934.59,186.9,934.59,187Zm-6.16-.74h5.22a2.61,2.61,0,0,0-5.22,0Z"/>
      <path class="cls-86" d="M946.94,183v7.36h-1V189a2.92,2.92,0,0,1-2.65,1.41,2.85,2.85,0,0,1-3.11-3.16V183h1v4.17c0,1.57.81,2.37,2.21,2.37a2.4,2.4,0,0,0,2.51-2.68V183Z"/>
      <path class="cls-86" d="M948.7,189.54l.45-.78a4.46,4.46,0,0,0,2.62.82c1.4,0,2-.47,2-1.2,0-1.92-4.77-.41-4.77-3.32,0-1.2,1-2.1,2.91-2.1a5,5,0,0,1,2.61.69l-.44.79a3.82,3.82,0,0,0-2.17-.63c-1.33,0-1.92.52-1.92,1.22,0,2,4.78.49,4.78,3.32,0,1.28-1.12,2.1-3,2.1A4.91,4.91,0,0,1,948.7,189.54Z"/>
      <path class="cls-86" d="M963,187h-6.17a2.72,2.72,0,0,0,2.9,2.56,2.89,2.89,0,0,0,2.26-1l.56.65a3.9,3.9,0,0,1-6.71-2.55,3.59,3.59,0,1,1,7.17,0C963,186.78,963,186.9,963,187Zm-6.17-.74h5.23a2.62,2.62,0,0,0-5.23,0Z"/>
      <path class="cls-86" d="M968.74,183v1l-.24,0c-1.54,0-2.48,1-2.48,2.72v3.75h-1V183h1v1.44A2.78,2.78,0,0,1,968.74,183Z"/>
      <path class="cls-86" d="M978.19,189.94a2.36,2.36,0,0,1-1.56.51,2,2,0,0,1-2.15-2.14v-4.45h-1.32V183h1.32v-1.61h1V183h2.24v.84h-2.24v4.39a1.18,1.18,0,0,0,1.27,1.35,1.67,1.67,0,0,0,1.1-.38Z"/>
      <path class="cls-86" d="M979,186.7a3.75,3.75,0,1,1,3.76,3.75A3.62,3.62,0,0,1,979,186.7Zm6.49,0a2.74,2.74,0,1,0-2.73,2.87A2.69,2.69,0,0,0,985.47,186.7Z"/>
      <path class="cls-86" d="M873.36,203.5a3.57,3.57,0,0,1-3.67,3.75,3.21,3.21,0,0,1-2.85-1.52v1.45h-1V196.79h1v4.43a3.19,3.19,0,0,1,2.8-1.46A3.56,3.56,0,0,1,873.36,203.5Zm-1,0a2.75,2.75,0,1,0-2.74,2.87A2.7,2.7,0,0,0,872.36,203.5Z"/>
      <path class="cls-86" d="M881.8,203.81h-6.16a2.72,2.72,0,0,0,2.89,2.56,2.89,2.89,0,0,0,2.26-1l.56.65a3.9,3.9,0,0,1-6.71-2.55,3.59,3.59,0,1,1,7.17,0C881.81,203.58,881.8,203.7,881.8,203.81Zm-6.16-.74h5.22a2.61,2.61,0,0,0-5.22,0Z"/>
      <path class="cls-86" d="M893.07,202.62v4.56h-1V206a2.78,2.78,0,0,1-2.54,1.21c-1.67,0-2.69-.87-2.69-2.14s.73-2.09,2.84-2.09h2.34v-.44c0-1.27-.71-2-2.08-2a3.74,3.74,0,0,0-2.46.87l-.44-.75a4.66,4.66,0,0,1,3-1C892,199.76,893.07,200.71,893.07,202.62Zm-1,2.35v-1.2h-2.31c-1.43,0-1.89.56-1.89,1.31s.69,1.39,1.86,1.39A2.35,2.35,0,0,0,892.07,205Z"/>
      <path class="cls-86" d="M903.23,203.5a3.57,3.57,0,0,1-3.67,3.75,3.19,3.19,0,0,1-2.84-1.52v1.45h-1V196.79h1v4.43a3.21,3.21,0,0,1,2.8-1.46A3.56,3.56,0,0,1,903.23,203.5Zm-1,0a2.75,2.75,0,1,0-2.75,2.87A2.71,2.71,0,0,0,902.24,203.5Z"/>
      <path class="cls-86" d="M905.26,196.79h1v10.39h-1Z"/>
      <path class="cls-86" d="M915.44,203.81h-6.16a2.72,2.72,0,0,0,2.9,2.56,2.89,2.89,0,0,0,2.25-1l.56.65a3.9,3.9,0,0,1-6.71-2.55,3.55,3.55,0,0,1,3.6-3.74,3.51,3.51,0,0,1,3.57,3.74C915.45,203.58,915.44,203.7,915.44,203.81Zm-6.16-.74h5.22a2.61,2.61,0,0,0-5.22,0Z"/>
      <path class="cls-86" d="M925,206.74a2.36,2.36,0,0,1-1.56.51,2,2,0,0,1-2.15-2.14v-4.45H920v-.84h1.32v-1.61h1v1.61h2.24v.84h-2.24v4.39a1.19,1.19,0,0,0,1.28,1.35,1.66,1.66,0,0,0,1.09-.38Z"/>
      <path class="cls-86" d="M925.82,203.5a3.75,3.75,0,1,1,3.76,3.75A3.62,3.62,0,0,1,925.82,203.5Zm6.49,0a2.74,2.74,0,1,0-2.73,2.87A2.69,2.69,0,0,0,932.31,203.5Z"/>
      <path class="cls-86" d="M944.21,206.36v.82h-6v-.65l4.64-5.87H938.3v-.84h5.83v.65l-4.64,5.89Z"/>
      <path class="cls-86" d="M945.3,203.5a3.75,3.75,0,1,1,3.75,3.75A3.62,3.62,0,0,1,945.3,203.5Zm6.48,0a2.74,2.74,0,1,0-2.73,2.87A2.69,2.69,0,0,0,951.78,203.5Z"/>
      <path class="cls-86" d="M954.08,203.5a3.75,3.75,0,1,1,3.75,3.75A3.62,3.62,0,0,1,954.08,203.5Zm6.48,0a2.74,2.74,0,1,0-2.73,2.87A2.69,2.69,0,0,0,960.56,203.5Z"/>
      <path class="cls-86" d="M975.76,202.91v4.27h-1V203c0-1.56-.78-2.35-2.11-2.35a2.37,2.37,0,0,0-2.47,2.66v3.86h-1V203c0-1.56-.79-2.35-2.13-2.35a2.38,2.38,0,0,0-2.47,2.66v3.86h-1v-7.36h.95v1.34a3,3,0,0,1,2.7-1.4,2.65,2.65,0,0,1,2.62,1.55,3.21,3.21,0,0,1,2.92-1.55C974.58,199.76,975.76,200.8,975.76,202.91Z"/>
      <path class="cls-86" d="M871.45,219.42V224h-1v-1.15a2.77,2.77,0,0,1-2.54,1.22c-1.66,0-2.68-.87-2.68-2.14s.72-2.09,2.84-2.09h2.34v-.44c0-1.27-.72-1.95-2.09-1.95a3.71,3.71,0,0,0-2.45.87l-.45-.75a4.68,4.68,0,0,1,3-1C870.37,216.56,871.45,217.51,871.45,219.42Zm-1,2.35v-1.2h-2.31c-1.43,0-1.89.56-1.89,1.31s.68,1.39,1.86,1.39A2.35,2.35,0,0,0,870.46,221.77Z"/>
      <path class="cls-86" d="M880.93,219.71V224h-1v-4.17a2.06,2.06,0,0,0-2.22-2.35,2.41,2.41,0,0,0-2.57,2.66V224h-1v-7.36h1V218a3.12,3.12,0,0,1,2.81-1.41A2.82,2.82,0,0,1,880.93,219.71Z"/>
      <path class="cls-86" d="M890.38,213.59V224h-1v-1.45a3.2,3.2,0,0,1-2.85,1.52,3.75,3.75,0,0,1,0-7.49,3.22,3.22,0,0,1,2.81,1.46v-4.43Zm-1,6.71a2.74,2.74,0,1,0-2.73,2.87A2.7,2.7,0,0,0,889.4,220.3Z"/>
      <path class="cls-86" d="M899.21,213.52a2.31,2.31,0,0,1,1.47.46l-.33.74a1.75,1.75,0,0,0-1.1-.36c-.85,0-1.3.48-1.3,1.39v.87h2.27v.84H898V224h-1v-6.52h-1.31v-.84H897v-.91A2,2,0,0,1,899.21,213.52Zm4.71.76a.73.73,0,1,1-.73-.69A.71.71,0,0,1,903.92,214.28Zm-1.23,2.34h1V224h-1Z"/>
      <path class="cls-86" d="M906.45,213.59h1V224h-1Z"/>
      <path class="cls-86" d="M914.12,223.54a2.35,2.35,0,0,1-1.55.51,2,2,0,0,1-2.16-2.14v-4.45h-1.32v-.84h1.32V215h1v1.62h2.24v.84h-2.24v4.39a1.18,1.18,0,0,0,1.27,1.35,1.64,1.64,0,0,0,1.09-.38Z"/>
      <path class="cls-86" d="M922.08,220.61h-6.17a2.73,2.73,0,0,0,2.9,2.56,2.89,2.89,0,0,0,2.26-1l.56.65a3.9,3.9,0,0,1-6.71-2.55,3.59,3.59,0,1,1,7.17,0C922.09,220.38,922.08,220.5,922.08,220.61Zm-6.17-.74h5.23a2.62,2.62,0,0,0-5.23,0Z"/>
      <path class="cls-86" d="M927.83,216.56v1l-.24,0c-1.54,0-2.48,1-2.48,2.72V224h-1v-7.36h1v1.44A2.78,2.78,0,0,1,927.83,216.56Z"/>
      <path class="cls-86" d="M937.28,223.54a2.36,2.36,0,0,1-1.56.51,2,2,0,0,1-2.15-2.14v-4.45h-1.32v-.84h1.32V215h1v1.62h2.24v.84h-2.24v4.39a1.19,1.19,0,0,0,1.28,1.35,1.66,1.66,0,0,0,1.09-.38Z"/>
      <path class="cls-86" d="M938.07,220.3a3.75,3.75,0,1,1,3.76,3.75A3.62,3.62,0,0,1,938.07,220.3Zm6.49,0a2.74,2.74,0,1,0-2.73,2.87A2.69,2.69,0,0,0,944.56,220.3Z"/>
      <path class="cls-86" d="M950.24,223.14l.45-.78a4.46,4.46,0,0,0,2.62.82c1.4,0,2-.47,2-1.2,0-1.92-4.77-.41-4.77-3.32,0-1.2,1-2.1,2.91-2.1a5,5,0,0,1,2.61.69l-.44.79a3.82,3.82,0,0,0-2.17-.63c-1.33,0-1.92.52-1.92,1.22,0,2,4.78.49,4.78,3.32,0,1.28-1.12,2.1-3,2.1A4.91,4.91,0,0,1,950.24,223.14Z"/>
      <path class="cls-86" d="M964.52,220.61h-6.16a2.72,2.72,0,0,0,2.9,2.56,2.89,2.89,0,0,0,2.26-1l.56.65a3.9,3.9,0,0,1-6.71-2.55,3.59,3.59,0,1,1,7.17,0C964.54,220.38,964.52,220.5,964.52,220.61Zm-6.16-.74h5.23a2.62,2.62,0,0,0-5.23,0Z"/>
      <path class="cls-86" d="M966.56,213.59h1V224h-1Z"/>
      <path class="cls-86" d="M976.75,220.61h-6.17a2.73,2.73,0,0,0,2.9,2.56,2.89,2.89,0,0,0,2.26-1l.56.65a3.9,3.9,0,0,1-6.71-2.55,3.59,3.59,0,1,1,7.17,0C976.76,220.38,976.75,220.5,976.75,220.61Zm-6.17-.74h5.23a2.62,2.62,0,0,0-5.23,0Z"/>
      <path class="cls-86" d="M978,220.3a3.63,3.63,0,0,1,3.8-3.74,3.22,3.22,0,0,1,2.89,1.46l-.75.5a2.49,2.49,0,0,0-2.14-1.09,2.87,2.87,0,0,0,0,5.74,2.48,2.48,0,0,0,2.14-1.08l.75.51a3.25,3.25,0,0,1-2.89,1.45A3.64,3.64,0,0,1,978,220.3Z"/>
      <path class="cls-86" d="M990.63,223.54a2.35,2.35,0,0,1-1.55.51,2,2,0,0,1-2.16-2.14v-4.45H985.6v-.84h1.32V215h1v1.62h2.24v.84h-2.24v4.39a1.18,1.18,0,0,0,1.27,1.35,1.64,1.64,0,0,0,1.09-.38Z"/>
      <path class="cls-86" d="M991.89,219.75h3.67v.87h-3.67Z"/>
      <path class="cls-86" d="M872.31,237.41h-6.17A2.73,2.73,0,0,0,869,240a2.89,2.89,0,0,0,2.26-1l.56.65a3.9,3.9,0,0,1-6.71-2.55,3.55,3.55,0,0,1,3.6-3.74,3.51,3.51,0,0,1,3.57,3.74C872.32,237.18,872.31,237.3,872.31,237.41Zm-6.17-.74h5.23a2.62,2.62,0,0,0-5.23,0Z"/>
      <path class="cls-86" d="M881.07,230.39v10.39h-1v-1.45a3.2,3.2,0,0,1-2.84,1.52,3.75,3.75,0,0,1,0-7.49,3.21,3.21,0,0,1,2.8,1.46v-4.43Zm-1,6.71a2.74,2.74,0,1,0-2.73,2.87A2.7,2.7,0,0,0,880.09,237.1Z"/>
      <path class="cls-86" d="M894.23,230.39v10.39h-1v-1.45a3.2,3.2,0,0,1-2.85,1.52,3.75,3.75,0,0,1,0-7.49,3.22,3.22,0,0,1,2.81,1.46v-4.43Zm-1,6.71a2.74,2.74,0,1,0-2.73,2.87A2.7,2.7,0,0,0,893.25,237.1Z"/>
      <path class="cls-86" d="M903.41,237.41h-6.16a2.72,2.72,0,0,0,2.9,2.56,2.89,2.89,0,0,0,2.26-1l.56.65a3.9,3.9,0,0,1-6.71-2.55,3.59,3.59,0,1,1,7.17,0C903.43,237.18,903.41,237.3,903.41,237.41Zm-6.16-.74h5.23a2.62,2.62,0,0,0-5.23,0Z"/>
      <path class="cls-86" d="M909.33,240.34a2.35,2.35,0,0,1-1.55.51,2,2,0,0,1-2.16-2.14v-4.45h-1.31v-.84h1.31v-1.61h1v1.61h2.24v.84h-2.24v4.4a1.18,1.18,0,0,0,1.27,1.34,1.64,1.64,0,0,0,1.09-.38Z"/>
      <path class="cls-86" d="M916.7,236.22v4.56h-1v-1.14a2.78,2.78,0,0,1-2.54,1.21c-1.66,0-2.69-.86-2.69-2.14,0-1.13.73-2.09,2.85-2.09h2.34v-.44c0-1.26-.72-2-2.09-2a3.71,3.71,0,0,0-2.45.87l-.45-.75a4.67,4.67,0,0,1,3-1C915.62,233.36,916.7,234.31,916.7,236.22Zm-1,2.35v-1.2h-2.32c-1.42,0-1.89.56-1.89,1.31s.69,1.39,1.87,1.39A2.36,2.36,0,0,0,915.71,238.57Z"/>
      <path class="cls-86" d="M919.17,231.09a.72.72,0,0,1,.73-.7.71.71,0,0,1,.73.69.72.72,0,0,1-.73.73A.73.73,0,0,1,919.17,231.09Zm.23,2.33h1v7.36h-1Z"/>
      <path class="cls-86" d="M923.16,230.39h1v10.39h-1Z"/>
      <path class="cls-86" d="M925.91,239.94l.45-.78A4.46,4.46,0,0,0,929,240c1.4,0,2-.48,2-1.21,0-1.92-4.78-.4-4.78-3.32,0-1.2,1-2.1,2.92-2.1a5,5,0,0,1,2.6.69l-.43.79a3.86,3.86,0,0,0-2.17-.63c-1.33,0-1.92.52-1.92,1.22,0,2,4.78.49,4.78,3.32,0,1.28-1.13,2.1-3,2.1A4.91,4.91,0,0,1,925.91,239.94Z"/>
      <path class="cls-86" d="M933.13,240.08a.75.75,0,0,1,1.5,0,.75.75,0,1,1-1.5,0Z"/>
      <path class="cls-86" d="M942.53,231.88h-3.45V231H947v.9h-3.45v8.9h-1Z"/>
      <path class="cls-86" d="M955.23,236.51v4.27h-1v-4.17a2.05,2.05,0,0,0-2.21-2.35,2.42,2.42,0,0,0-2.58,2.66v3.86h-1V230.39h1v4.32a3.12,3.12,0,0,1,2.76-1.35A2.82,2.82,0,0,1,955.23,236.51Z"/>
      <path class="cls-86" d="M964.37,237.41h-6.16a2.72,2.72,0,0,0,2.9,2.56,2.89,2.89,0,0,0,2.25-1l.56.65a3.9,3.9,0,0,1-6.71-2.55,3.55,3.55,0,0,1,3.6-3.74,3.51,3.51,0,0,1,3.57,3.74C964.38,237.18,964.37,237.3,964.37,237.41Zm-6.16-.74h5.22a2.61,2.61,0,0,0-5.22,0Z"/>
      <path class="cls-86" d="M973.79,233.36v1l-.24,0c-1.54,0-2.48,1-2.48,2.72v3.75h-1v-7.36H971v1.44A2.78,2.78,0,0,1,973.79,233.36Z"/>
      <path class="cls-86" d="M981.93,237.41h-6.17a2.72,2.72,0,0,0,2.9,2.56,2.89,2.89,0,0,0,2.26-1l.56.65a3.9,3.9,0,0,1-6.71-2.55,3.55,3.55,0,0,1,3.6-3.74,3.51,3.51,0,0,1,3.57,3.74C981.94,237.18,981.93,237.3,981.93,237.41Zm-6.17-.74H981a2.62,2.62,0,0,0-5.23,0Z"/>
      <path class="cls-86" d="M982.94,239.94l.45-.78A4.49,4.49,0,0,0,986,240c1.4,0,2-.48,2-1.21,0-1.92-4.78-.4-4.78-3.32,0-1.2,1-2.1,2.91-2.1a5,5,0,0,1,2.61.69l-.44.79a3.82,3.82,0,0,0-2.17-.63c-1.33,0-1.92.52-1.92,1.22,0,2,4.78.49,4.78,3.32,0,1.28-1.12,2.1-3,2.1A4.93,4.93,0,0,1,982.94,239.94Z"/>
      <path class="cls-86" d="M997.23,237.41h-6.17A2.73,2.73,0,0,0,994,240a2.89,2.89,0,0,0,2.26-1l.56.65a3.9,3.9,0,0,1-6.71-2.55,3.55,3.55,0,0,1,3.6-3.74,3.51,3.51,0,0,1,3.57,3.74C997.24,237.18,997.23,237.3,997.23,237.41Zm-6.17-.74h5.23a2.62,2.62,0,0,0-5.23,0Z"/>
      <path class="cls-86" d="M1003.15,240.34a2.36,2.36,0,0,1-1.56.51,2,2,0,0,1-2.15-2.14v-4.45h-1.32v-.84h1.32v-1.61h1v1.61h2.24v.84h-2.24v4.4a1.18,1.18,0,0,0,1.28,1.34,1.66,1.66,0,0,0,1.09-.38Z"/>
      <path class="cls-86" d="M873.36,253.9a3.57,3.57,0,0,1-3.67,3.75,3.21,3.21,0,0,1-2.85-1.52v1.45h-1V247.19h1v4.43a3.19,3.19,0,0,1,2.8-1.46A3.56,3.56,0,0,1,873.36,253.9Zm-1,0a2.75,2.75,0,1,0-2.74,2.87A2.7,2.7,0,0,0,872.36,253.9Z"/>
      <path class="cls-86" d="M882,250.22v7.36h-.95v-1.34a2.92,2.92,0,0,1-2.65,1.41,2.86,2.86,0,0,1-3.11-3.16v-4.27h1v4.17c0,1.57.81,2.37,2.21,2.37a2.4,2.4,0,0,0,2.51-2.68v-3.86Z"/>
      <path class="cls-86" d="M888.69,257.14a2.4,2.4,0,0,1-1.56.51,2,2,0,0,1-2.16-2.14v-4.45h-1.31v-.84H885v-1.61h1v1.61h2.24v.84H886v4.4a1.18,1.18,0,0,0,1.27,1.34,1.64,1.64,0,0,0,1.09-.38Z"/>
      <path class="cls-86" d="M894.17,257.14a2.35,2.35,0,0,1-1.55.51,2,2,0,0,1-2.16-2.14v-4.45h-1.32v-.84h1.32v-1.61h1v1.61h2.24v.84h-2.24v4.4a1.18,1.18,0,0,0,1.27,1.34,1.64,1.64,0,0,0,1.09-.38Z"/>
      <path class="cls-86" d="M895,253.9a3.75,3.75,0,1,1,3.75,3.75A3.62,3.62,0,0,1,895,253.9Zm6.48,0a2.74,2.74,0,1,0-2.73,2.87A2.69,2.69,0,0,0,901.45,253.9Z"/>
      <path class="cls-86" d="M911.27,253.31v4.27h-1v-4.17a2.05,2.05,0,0,0-2.21-2.35,2.42,2.42,0,0,0-2.58,2.66v3.86h-1v-7.36h1v1.36a3.09,3.09,0,0,1,2.8-1.42A2.82,2.82,0,0,1,911.27,253.31Z"/>
      <path class="cls-86" d="M923.2,253v4.56h-1v-1.14a2.75,2.75,0,0,1-2.53,1.21c-1.67,0-2.69-.86-2.69-2.14,0-1.13.73-2.09,2.84-2.09h2.34V253c0-1.27-.71-1.95-2.09-1.95a3.73,3.73,0,0,0-2.45.87l-.45-.75a4.7,4.7,0,0,1,3-1C922.12,250.16,923.2,251.11,923.2,253Zm-1,2.35v-1.2h-2.31c-1.43,0-1.89.56-1.89,1.31s.69,1.39,1.86,1.39A2.35,2.35,0,0,0,922.2,255.37Z"/>
      <path class="cls-86" d="M925.89,247.19h1v10.39h-1Z"/>
      <path class="cls-86" d="M929.66,247.19h1v10.39h-1Z"/>
      <path class="cls-86" d="M932.68,253.9a3.75,3.75,0,1,1,3.76,3.75A3.62,3.62,0,0,1,932.68,253.9Zm6.49,0a2.74,2.74,0,1,0-2.73,2.87A2.69,2.69,0,0,0,939.17,253.9Z"/>
      <path class="cls-86" d="M952.81,250.22,950,257.58h-.94l-2.32-6-2.33,6h-.94l-2.77-7.36h.95l2.31,6.26,2.37-6.26h.86l2.35,6.26,2.34-6.26Z"/>
      <path class="cls-86" d="M953.19,256.74l.45-.78a4.49,4.49,0,0,0,2.62.83c1.4,0,2-.48,2-1.21,0-1.92-4.78-.41-4.78-3.32,0-1.2,1-2.1,2.91-2.1a5,5,0,0,1,2.61.69l-.43.79a3.87,3.87,0,0,0-2.18-.63c-1.33,0-1.91.52-1.91,1.22,0,2,4.77.49,4.77,3.32,0,1.28-1.12,2.1-3,2.1A4.93,4.93,0,0,1,953.19,256.74Z"/>
      <path class="cls-86" d="M968.61,257.14a2.35,2.35,0,0,1-1.55.51,2,2,0,0,1-2.16-2.14v-4.45h-1.32v-.84h1.32v-1.61h1v1.61h2.25v.84h-2.25v4.4a1.18,1.18,0,0,0,1.28,1.34,1.66,1.66,0,0,0,1.09-.38Z"/>
      <path class="cls-86" d="M977.2,253.31v4.27h-1v-4.17a2.05,2.05,0,0,0-2.21-2.35,2.41,2.41,0,0,0-2.58,2.66v3.86h-1V247.19h1v4.31a3.12,3.12,0,0,1,2.76-1.34A2.83,2.83,0,0,1,977.2,253.31Z"/>
      <path class="cls-86" d="M986.34,254.21h-6.17a2.73,2.73,0,0,0,2.9,2.56,2.89,2.89,0,0,0,2.26-1l.56.65a3.9,3.9,0,0,1-6.71-2.55,3.59,3.59,0,1,1,7.17,0C986.35,254,986.34,254.1,986.34,254.21Zm-6.17-.74h5.23a2.62,2.62,0,0,0-5.23,0Z"/>
      <path class="cls-86" d="M872.53,267v7.36h-.95V273a2.92,2.92,0,0,1-2.65,1.41,2.85,2.85,0,0,1-3.11-3.16V267h1v4.17c0,1.57.81,2.37,2.21,2.37a2.4,2.4,0,0,0,2.51-2.68V267Z"/>
      <path class="cls-86" d="M874.29,273.54l.45-.78a4.46,4.46,0,0,0,2.62.82c1.4,0,2-.47,2-1.2,0-1.92-4.77-.41-4.77-3.32,0-1.2,1-2.1,2.91-2.1a5,5,0,0,1,2.61.69l-.44.79a3.82,3.82,0,0,0-2.17-.63c-1.33,0-1.92.52-1.92,1.22,0,2,4.78.49,4.78,3.32,0,1.28-1.12,2.1-3,2.1A4.91,4.91,0,0,1,874.29,273.54Z"/>
      <path class="cls-86" d="M888.57,271h-6.16a2.72,2.72,0,0,0,2.9,2.56,2.89,2.89,0,0,0,2.26-1l.56.65a3.9,3.9,0,0,1-6.71-2.55,3.59,3.59,0,1,1,7.17,0C888.59,270.78,888.57,270.9,888.57,271Zm-6.16-.74h5.23a2.62,2.62,0,0,0-5.23,0Z"/>
      <path class="cls-86" d="M894.33,267v1l-.24,0c-1.54,0-2.48,1-2.48,2.72v3.75h-1V267h1v1.44A2.78,2.78,0,0,1,894.33,267Z"/>
      <path class="cls-86" d="M903.78,273.94a2.36,2.36,0,0,1-1.56.51,2,2,0,0,1-2.15-2.14v-4.45h-1.32V267h1.32v-1.61h1V267h2.24v.84h-2.24v4.39a1.18,1.18,0,0,0,1.27,1.35,1.67,1.67,0,0,0,1.1-.38Z"/>
      <path class="cls-86" d="M904.57,270.7a3.75,3.75,0,1,1,3.76,3.75A3.62,3.62,0,0,1,904.57,270.7Zm6.49,0a2.74,2.74,0,1,0-2.73,2.87A2.69,2.69,0,0,0,911.06,270.7Z"/>
      <path class="cls-86" d="M921.47,267v1l-.23,0c-1.55,0-2.48,1-2.48,2.72v3.75h-1V267h1v1.44A2.79,2.79,0,0,1,921.47,267Z"/>
      <path class="cls-86" d="M929.61,271h-6.16a2.72,2.72,0,0,0,2.89,2.56,2.89,2.89,0,0,0,2.26-1l.56.65a3.9,3.9,0,0,1-6.71-2.55,3.59,3.59,0,1,1,7.17,0C929.62,270.78,929.61,270.9,929.61,271Zm-6.16-.74h5.22a2.61,2.61,0,0,0-5.22,0Z"/>
      <path class="cls-86" d="M930.63,273.54l.44-.78a4.49,4.49,0,0,0,2.62.82c1.4,0,2-.47,2-1.2,0-1.92-4.78-.41-4.78-3.32,0-1.2,1-2.1,2.92-2.1a5,5,0,0,1,2.6.69l-.43.79a3.86,3.86,0,0,0-2.17-.63c-1.33,0-1.92.52-1.92,1.22,0,2,4.77.49,4.77,3.32,0,1.28-1.12,2.1-3,2.1A4.9,4.9,0,0,1,930.63,273.54Z"/>
      <path class="cls-86" d="M944.91,271h-6.16a2.72,2.72,0,0,0,2.9,2.56,2.89,2.89,0,0,0,2.25-1l.56.65a3.9,3.9,0,0,1-6.71-2.55,3.59,3.59,0,1,1,7.18,0C944.93,270.78,944.91,270.9,944.91,271Zm-6.16-.74H944a2.61,2.61,0,0,0-5.22,0Z"/>
      <path class="cls-86" d="M950.83,273.94a2.35,2.35,0,0,1-1.55.51,2,2,0,0,1-2.16-2.14v-4.45H945.8V267h1.32v-1.61h1V267h2.25v.84h-2.25v4.39a1.19,1.19,0,0,0,1.28,1.35,1.64,1.64,0,0,0,1.09-.38Z"/>
      <path class="cls-86" d="M960.18,273.94a2.35,2.35,0,0,1-1.55.51,2,2,0,0,1-2.16-2.14v-4.45h-1.31V267h1.31v-1.61h1V267h2.24v.84h-2.24v4.39a1.18,1.18,0,0,0,1.27,1.35,1.64,1.64,0,0,0,1.09-.38Z"/>
      <path class="cls-86" d="M968.77,270.11v4.27h-1v-4.17a2.05,2.05,0,0,0-2.21-2.35,2.42,2.42,0,0,0-2.58,2.66v3.86h-1V264h1v4.31a3.12,3.12,0,0,1,2.76-1.34A2.83,2.83,0,0,1,968.77,270.11Z"/>
      <path class="cls-86" d="M977.91,271h-6.16a2.72,2.72,0,0,0,2.9,2.56,2.89,2.89,0,0,0,2.25-1l.56.65a3.9,3.9,0,0,1-6.71-2.55,3.59,3.59,0,1,1,7.17,0C977.92,270.78,977.91,270.9,977.91,271Zm-6.16-.74H977a2.61,2.61,0,0,0-5.22,0Z"/>
      <path class="cls-86" d="M873.36,287.5a3.57,3.57,0,0,1-3.67,3.75,3.2,3.2,0,0,1-2.8-1.45v4.1h-1V283.82h1v1.45a3.23,3.23,0,0,1,2.85-1.51A3.56,3.56,0,0,1,873.36,287.5Zm-1,0a2.75,2.75,0,1,0-2.74,2.87A2.71,2.71,0,0,0,872.36,287.5Z"/>
      <path class="cls-86" d="M880.9,286.62v4.56H880V290a2.78,2.78,0,0,1-2.54,1.21c-1.66,0-2.69-.87-2.69-2.14s.73-2.09,2.85-2.09h2.34v-.44c0-1.27-.72-1.95-2.09-1.95a3.71,3.71,0,0,0-2.45.87l-.45-.75a4.68,4.68,0,0,1,3-1C879.82,283.76,880.9,284.71,880.9,286.62Zm-1,2.35v-1.2H877.6c-1.43,0-1.89.56-1.89,1.31s.68,1.39,1.86,1.39A2.35,2.35,0,0,0,879.91,289Z"/>
      <path class="cls-86" d="M890.45,283.82v6.47c0,2.53-1.25,3.68-3.68,3.68a5.16,5.16,0,0,1-3.43-1.13l.5-.76a4.38,4.38,0,0,0,2.9,1c1.86,0,2.72-.86,2.72-2.68v-.94a3.33,3.33,0,0,1-2.88,1.43,3.57,3.57,0,1,1,0-7.14,3.32,3.32,0,0,1,2.92,1.47v-1.41Zm-1,3.5a2.79,2.79,0,1,0-2.8,2.7A2.63,2.63,0,0,0,889.48,287.32Z"/>
      <path class="cls-86" d="M899.65,287.81h-6.16a2.72,2.72,0,0,0,2.9,2.56,2.89,2.89,0,0,0,2.25-1l.56.65a3.9,3.9,0,0,1-6.71-2.55,3.59,3.59,0,1,1,7.17,0C899.66,287.58,899.65,287.7,899.65,287.81Zm-6.16-.74h5.22a2.61,2.61,0,0,0-5.22,0Z"/>
      <path class="cls-86" d="M909.24,290.74a2.38,2.38,0,0,1-1.56.51,2,2,0,0,1-2.15-2.14v-4.45h-1.32v-.84h1.32v-1.61h1v1.61h2.24v.84h-2.24v4.39a1.18,1.18,0,0,0,1.27,1.35,1.67,1.67,0,0,0,1.1-.38Z"/>
      <path class="cls-86" d="M910,287.5a3.75,3.75,0,1,1,3.76,3.75A3.62,3.62,0,0,1,910,287.5Zm6.49,0a2.74,2.74,0,1,0-2.73,2.87A2.69,2.69,0,0,0,916.52,287.5Z"/>
      <path class="cls-86" d="M927.1,290.74a2.35,2.35,0,0,1-1.55.51,2,2,0,0,1-2.16-2.14v-4.45h-1.32v-.84h1.32v-1.61h1v1.61h2.24v.84h-2.24v4.39a1.19,1.19,0,0,0,1.28,1.35,1.66,1.66,0,0,0,1.09-.38Z"/>
      <path class="cls-86" d="M935.68,286.91v4.27h-1V287a2.05,2.05,0,0,0-2.21-2.35,2.41,2.41,0,0,0-2.58,2.66v3.86h-1V280.79h1v4.31a3.12,3.12,0,0,1,2.76-1.34A2.82,2.82,0,0,1,935.68,286.91Z"/>
      <path class="cls-86" d="M938.16,281.49a.73.73,0,1,1,.73.72A.73.73,0,0,1,938.16,281.49Zm.22,2.33h1v7.36h-1Z"/>
      <path class="cls-86" d="M941.13,290.34l.44-.78a4.49,4.49,0,0,0,2.62.82c1.4,0,2-.47,2-1.2,0-1.92-4.78-.41-4.78-3.32,0-1.2,1-2.1,2.92-2.1a5,5,0,0,1,2.6.69l-.43.79a3.86,3.86,0,0,0-2.17-.63c-1.33,0-1.92.52-1.92,1.22,0,2,4.77.49,4.77,3.32,0,1.28-1.12,2.1-3,2.1A4.9,4.9,0,0,1,941.13,290.34Z"/>
      <path class="cls-86" d="M951.92,287.5a3.75,3.75,0,1,1,3.76,3.75A3.62,3.62,0,0,1,951.92,287.5Zm6.49,0a2.74,2.74,0,1,0-2.73,2.87A2.69,2.69,0,0,0,958.41,287.5Z"/>
      <path class="cls-86" d="M967.42,283.82l-3.28,7.36h-1l-3.26-7.36h1l2.75,6.27,2.79-6.27Z"/>
      <path class="cls-86" d="M975,287.81h-6.16a2.72,2.72,0,0,0,2.9,2.56,2.89,2.89,0,0,0,2.26-1l.56.65a3.9,3.9,0,0,1-6.71-2.55,3.59,3.59,0,1,1,7.17,0C975,287.58,975,287.7,975,287.81Zm-6.16-.74h5.23a2.62,2.62,0,0,0-5.23,0Z"/>
      <path class="cls-86" d="M980.78,283.76v1l-.24,0c-1.54,0-2.48,1-2.48,2.72v3.75h-1v-7.36H978v1.44A2.78,2.78,0,0,1,980.78,283.76Z"/>
      <path class="cls-86" d="M982.13,287h3.67v.87h-3.67Z"/>
      <path class="cls-86" d="M872.08,300.62,868.8,308h-1l-3.26-7.36h1l2.75,6.27,2.79-6.27Z"/>
      <path class="cls-86" d="M873.26,298.29a.73.73,0,1,1,.72.71A.71.71,0,0,1,873.26,298.29Zm.22,2.33h1V308h-1Z"/>
      <path class="cls-86" d="M883.66,304.61H877.5a2.72,2.72,0,0,0,2.9,2.56,2.89,2.89,0,0,0,2.25-1l.56.65a3.9,3.9,0,0,1-6.71-2.55,3.59,3.59,0,1,1,7.18,0C883.68,304.38,883.66,304.5,883.66,304.61Zm-6.16-.74h5.22a2.61,2.61,0,0,0-5.22,0Z"/>
      <path class="cls-86" d="M896.38,300.62,893.59,308h-.94l-2.33-6L888,308h-.94l-2.77-7.36h1l2.31,6.26,2.37-6.26h.85l2.36,6.26,2.33-6.26Z"/>
      <path class="cls-86" d="M896.75,307.28a.73.73,0,0,1,.74-.75.75.75,0,0,1,.76.75.76.76,0,0,1-.76.77A.75.75,0,0,1,896.75,307.28Z"/>
      <path class="cls-86" d="M906.14,299.07H902.7v-.89h7.93v.89h-3.45V308h-1Z"/>
      <path class="cls-86" d="M918.84,303.71V308h-1v-4.17a2.05,2.05,0,0,0-2.21-2.35,2.41,2.41,0,0,0-2.58,2.66V308h-1V297.59h1v4.31a3.11,3.11,0,0,1,2.76-1.34A2.82,2.82,0,0,1,918.84,303.71Z"/>
      <path class="cls-86" d="M928,304.61h-6.16a2.72,2.72,0,0,0,2.9,2.56,2.89,2.89,0,0,0,2.26-1l.56.65a3.9,3.9,0,0,1-6.71-2.55,3.59,3.59,0,1,1,7.17,0C928,304.38,928,304.5,928,304.61Zm-6.16-.74h5.23a2.62,2.62,0,0,0-5.23,0Z"/>
      <path class="cls-86" d="M937.41,300.56v1l-.24,0c-1.54,0-2.48,1-2.48,2.72V308h-1v-7.36h1v1.44A2.78,2.78,0,0,1,937.41,300.56Z"/>
      <path class="cls-86" d="M939,298.29a.72.72,0,0,1,.73-.7.71.71,0,1,1,0,1.41A.72.72,0,0,1,939,298.29Zm.23,2.33h1V308h-1Z"/>
      <path class="cls-86" d="M949.68,297.59V308h-.95v-1.45a3.19,3.19,0,0,1-2.84,1.52,3.75,3.75,0,0,1,0-7.49,3.2,3.2,0,0,1,2.8,1.46v-4.43Zm-1,6.71a2.74,2.74,0,1,0-2.73,2.87A2.69,2.69,0,0,0,948.7,304.3Z"/>
      <path class="cls-86" d="M958.87,304.61H952.7a2.73,2.73,0,0,0,2.9,2.56,2.89,2.89,0,0,0,2.26-1l.56.65a3.9,3.9,0,0,1-6.71-2.55,3.59,3.59,0,1,1,7.17,0C958.88,304.38,958.87,304.5,958.87,304.61Zm-6.17-.74h5.23a2.62,2.62,0,0,0-5.23,0Z"/>
      <path class="cls-86" d="M964.62,300.56v1l-.24,0c-1.54,0-2.48,1-2.48,2.72V308h-1v-7.36h1v1.44A2.78,2.78,0,0,1,964.62,300.56Z"/>
      <path class="cls-86" d="M965.44,307.14l.45-.78a4.49,4.49,0,0,0,2.62.82c1.4,0,2-.47,2-1.2,0-1.92-4.78-.41-4.78-3.32,0-1.2,1-2.1,2.91-2.1a5,5,0,0,1,2.61.69l-.44.79a3.82,3.82,0,0,0-2.17-.63c-1.33,0-1.92.52-1.92,1.22,0,2,4.78.49,4.78,3.32,0,1.28-1.12,2.1-3,2.1A4.93,4.93,0,0,1,965.44,307.14Z"/>
      <path class="cls-86" d="M980.09,303.71V308h-1v-4.17a2.05,2.05,0,0,0-2.22-2.35,2.41,2.41,0,0,0-2.57,2.66V308h-1V297.59h1v4.31a3.11,3.11,0,0,1,2.76-1.34A2.82,2.82,0,0,1,980.09,303.71Z"/>
      <path class="cls-86" d="M982.57,298.29a.72.72,0,0,1,.73-.7.71.71,0,1,1,0,1.41A.72.72,0,0,1,982.57,298.29Zm.22,2.33h1V308h-1Z"/>
      <path class="cls-86" d="M994,304.3a3.57,3.57,0,0,1-3.67,3.75,3.23,3.23,0,0,1-2.8-1.45v4.1h-1V300.62h1v1.45a3.2,3.2,0,0,1,2.84-1.51A3.56,3.56,0,0,1,994,304.3Zm-1,0a2.75,2.75,0,1,0-2.75,2.87A2.71,2.71,0,0,0,993,304.3Z"/>
      <path class="cls-86" d="M868.29,314.32a2.34,2.34,0,0,1,1.47.46l-.34.75a1.67,1.67,0,0,0-1.09-.37c-.86,0-1.3.48-1.3,1.39v.87h2.27v.84h-2.25v6.52h-1v-6.52h-1.32v-.84h1.32v-.91A2,2,0,0,1,868.29,314.32Zm4.7.76a.72.72,0,0,1-.73.73.72.72,0,0,1-.72-.72.73.73,0,0,1,1.45,0Zm-1.23,2.34h1v7.36h-1Z"/>
      <path class="cls-86" d="M875.52,314.39h1v10.39h-1Z"/>
      <path class="cls-86" d="M883.2,324.34a2.38,2.38,0,0,1-1.56.51,2,2,0,0,1-2.15-2.14v-4.45h-1.32v-.84h1.32v-1.61h1v1.61h2.24v.84h-2.24v4.4a1.18,1.18,0,0,0,1.27,1.34,1.67,1.67,0,0,0,1.1-.38Z"/>
      <path class="cls-86" d="M891.15,321.41H885a2.72,2.72,0,0,0,2.9,2.56,2.89,2.89,0,0,0,2.25-1l.56.65A3.9,3.9,0,0,1,884,321.1a3.55,3.55,0,0,1,3.6-3.74,3.52,3.52,0,0,1,3.58,3.74C891.17,321.18,891.15,321.3,891.15,321.41Zm-6.16-.74h5.22a2.61,2.61,0,0,0-5.22,0Z"/>
      <path class="cls-86" d="M896.9,317.36v1l-.23,0c-1.55,0-2.48,1-2.48,2.72v3.75h-1v-7.36h.95v1.44A2.8,2.8,0,0,1,896.9,317.36Z"/>
      <path class="cls-86" d="M913.29,317.42l-2.79,7.36h-.94l-2.32-6-2.33,6H904l-2.77-7.36h.95l2.31,6.26,2.37-6.26h.85l2.36,6.26,2.34-6.26Z"/>
      <path class="cls-86" d="M913.83,321.1a3.75,3.75,0,1,1,3.75,3.75A3.62,3.62,0,0,1,913.83,321.1Zm6.48,0a2.74,2.74,0,1,0-2.73,2.87A2.69,2.69,0,0,0,920.31,321.1Z"/>
      <path class="cls-86" d="M930,317.42v7.36h-1v-1.34a2.91,2.91,0,0,1-2.64,1.41,2.85,2.85,0,0,1-3.11-3.16v-4.27h1v4.17a2.06,2.06,0,0,0,2.22,2.37,2.39,2.39,0,0,0,2.5-2.68v-3.86Z"/>
      <path class="cls-86" d="M932.77,314.39h1v10.39h-1Z"/>
      <path class="cls-86" d="M943.26,314.39v10.39h-1v-1.45a3.21,3.21,0,0,1-2.85,1.52,3.75,3.75,0,0,1,0-7.49,3.19,3.19,0,0,1,2.8,1.46v-4.43Zm-1,6.71a2.74,2.74,0,1,0-2.73,2.87A2.7,2.7,0,0,0,942.28,321.1Z"/>
      <path class="cls-86" d="M957.16,321.1a3.57,3.57,0,0,1-3.67,3.75,3.19,3.19,0,0,1-2.84-1.52v1.45h-.95V314.39h1v4.43a3.2,3.2,0,0,1,2.8-1.46A3.56,3.56,0,0,1,957.16,321.1Zm-1,0a2.75,2.75,0,1,0-2.75,2.87A2.71,2.71,0,0,0,956.17,321.1Z"/>
      <path class="cls-86" d="M965.6,321.41h-6.16a2.72,2.72,0,0,0,2.9,2.56,2.87,2.87,0,0,0,2.25-1l.56.65a3.9,3.9,0,0,1-6.71-2.55,3.55,3.55,0,0,1,3.6-3.74,3.52,3.52,0,0,1,3.58,3.74C965.62,321.18,965.6,321.3,965.6,321.41Zm-6.16-.74h5.22a2.61,2.61,0,0,0-5.22,0Z"/>
      <path class="cls-86" d="M978.78,321.1a3.57,3.57,0,0,1-3.67,3.75,3.2,3.2,0,0,1-2.8-1.45v4.1h-1V317.42h1v1.45a3.23,3.23,0,0,1,2.85-1.51A3.56,3.56,0,0,1,978.78,321.1Zm-1,0A2.75,2.75,0,1,0,975,324,2.71,2.71,0,0,0,977.78,321.1Z"/>
      <path class="cls-86" d="M984.51,317.36v1l-.23,0c-1.54,0-2.48,1-2.48,2.72v3.75h-1v-7.36h1v1.44A2.77,2.77,0,0,1,984.51,317.36Z"/>
      <path class="cls-86" d="M985.49,321.1a3.75,3.75,0,1,1,3.76,3.75A3.63,3.63,0,0,1,985.49,321.1Zm6.49,0a2.74,2.74,0,1,0-2.73,2.87A2.69,2.69,0,0,0,992,321.1Z"/>
      <path class="cls-86" d="M994.47,320.55h3.67v.87h-3.67Z"/>
      <path class="cls-86" d="M872.71,334.22v6.47c0,2.53-1.24,3.68-3.68,3.68a5.16,5.16,0,0,1-3.43-1.13l.5-.76a4.4,4.4,0,0,0,2.9,1c1.86,0,2.72-.86,2.72-2.68v-.93a3.34,3.34,0,0,1-2.87,1.42,3.57,3.57,0,1,1,0-7.14,3.32,3.32,0,0,1,2.91,1.47v-1.41Zm-1,3.5a2.8,2.8,0,1,0-2.8,2.7A2.63,2.63,0,0,0,871.75,337.72Z"/>
      <path class="cls-86" d="M879.21,334.16v1l-.24,0c-1.54,0-2.48,1-2.48,2.72v3.75h-1v-7.36h1v1.44A2.78,2.78,0,0,1,879.21,334.16Z"/>
      <path class="cls-86" d="M886.54,337v4.56h-.95v-1.14a2.77,2.77,0,0,1-2.53,1.21c-1.67,0-2.69-.86-2.69-2.14,0-1.13.73-2.09,2.84-2.09h2.34V337c0-1.27-.71-2-2.09-2a3.71,3.71,0,0,0-2.45.87l-.45-.75a4.7,4.7,0,0,1,3-1C885.47,334.16,886.54,335.11,886.54,337Zm-1,2.35v-1.2h-2.31c-1.43,0-1.89.56-1.89,1.31s.68,1.39,1.86,1.39A2.35,2.35,0,0,0,885.55,339.37Z"/>
      <path class="cls-86" d="M901.4,337.31v4.27h-1v-4.17c0-1.56-.79-2.35-2.12-2.35a2.36,2.36,0,0,0-2.46,2.66v3.86h-1v-4.17c0-1.56-.78-2.35-2.13-2.35a2.37,2.37,0,0,0-2.46,2.66v3.86h-1v-7.36h1v1.34a3,3,0,0,1,2.7-1.4,2.65,2.65,0,0,1,2.62,1.55,3.2,3.2,0,0,1,2.91-1.55C900.22,334.16,901.4,335.2,901.4,337.31Z"/>
      <path class="cls-86" d="M916.26,337.31v4.27h-1v-4.17c0-1.56-.78-2.35-2.11-2.35a2.37,2.37,0,0,0-2.47,2.66v3.86h-1v-4.17c0-1.56-.79-2.35-2.13-2.35a2.38,2.38,0,0,0-2.47,2.66v3.86h-1v-7.36h.95v1.34a3,3,0,0,1,2.7-1.4,2.65,2.65,0,0,1,2.62,1.55,3.22,3.22,0,0,1,2.92-1.55C915.08,334.16,916.26,335.2,916.26,337.31Z"/>
      <path class="cls-86" d="M925.39,338.21h-6.16a2.72,2.72,0,0,0,2.9,2.56,2.89,2.89,0,0,0,2.26-1l.56.65a3.9,3.9,0,0,1-6.71-2.55,3.59,3.59,0,1,1,7.17,0C925.41,338,925.39,338.1,925.39,338.21Zm-6.16-.74h5.23a2.62,2.62,0,0,0-5.23,0Z"/>
      <path class="cls-86" d="M934.16,331.19v10.39h-.95v-1.45a3.21,3.21,0,0,1-2.85,1.52,3.75,3.75,0,0,1,0-7.49,3.19,3.19,0,0,1,2.8,1.46v-4.43Zm-1,6.71a2.74,2.74,0,1,0-2.73,2.87A2.7,2.7,0,0,0,933.18,337.9Z"/>
      <path class="cls-86" d="M944.48,341.14a2.4,2.4,0,0,1-1.56.51,2,2,0,0,1-2.16-2.14v-4.45h-1.31v-.84h1.31v-1.61h1v1.61H944v.84h-2.24v4.4A1.18,1.18,0,0,0,943,340.8a1.64,1.64,0,0,0,1.09-.38Z"/>
      <path class="cls-86" d="M945.27,337.9a3.75,3.75,0,1,1,3.75,3.75A3.62,3.62,0,0,1,945.27,337.9Zm6.49,0a2.74,2.74,0,1,0-2.74,2.87A2.69,2.69,0,0,0,951.76,337.9Z"/>
      <path class="cls-86" d="M872.53,351v7.36h-.95V357a2.92,2.92,0,0,1-2.65,1.41,2.85,2.85,0,0,1-3.11-3.16V351h1v4.17c0,1.57.81,2.37,2.21,2.37a2.4,2.4,0,0,0,2.51-2.68V351Z"/>
      <path class="cls-86" d="M882.78,354.7a3.57,3.57,0,0,1-3.67,3.75,3.2,3.2,0,0,1-2.8-1.45v4.1h-1V351h1v1.45a3.2,3.2,0,0,1,2.84-1.51A3.56,3.56,0,0,1,882.78,354.7Zm-1,0a2.75,2.75,0,1,0-2.74,2.87A2.71,2.71,0,0,0,881.78,354.7Z"/>
      <path class="cls-86" d="M891.53,348v10.39h-.95v-1.45a3.21,3.21,0,0,1-2.85,1.52,3.75,3.75,0,0,1,0-7.49,3.19,3.19,0,0,1,2.8,1.46V348Zm-1,6.71a2.74,2.74,0,1,0-2.73,2.87A2.7,2.7,0,0,0,890.55,354.7Z"/>
      <path class="cls-86" d="M899.86,353.82v4.56h-1v-1.14a2.78,2.78,0,0,1-2.54,1.21c-1.67,0-2.69-.87-2.69-2.14s.73-2.09,2.84-2.09h2.34v-.44c0-1.27-.71-1.95-2.08-1.95a3.74,3.74,0,0,0-2.46.87l-.44-.75a4.66,4.66,0,0,1,3-1C898.78,351,899.86,351.91,899.86,353.82Zm-1,2.35V355h-2.31c-1.43,0-1.89.56-1.89,1.31s.69,1.39,1.86,1.39A2.35,2.35,0,0,0,898.86,356.17Z"/>
      <path class="cls-86" d="M906.44,357.94a2.38,2.38,0,0,1-1.56.51,2,2,0,0,1-2.16-2.14v-4.45h-1.31V351h1.31v-1.61h1V351H906v.84h-2.24v4.39A1.18,1.18,0,0,0,905,357.6a1.67,1.67,0,0,0,1.1-.38Z"/>
      <path class="cls-86" d="M914.39,355h-6.16a2.72,2.72,0,0,0,2.9,2.56,2.89,2.89,0,0,0,2.25-1l.56.65a3.9,3.9,0,0,1-6.71-2.55,3.55,3.55,0,0,1,3.6-3.74,3.51,3.51,0,0,1,3.57,3.74C914.4,354.78,914.39,354.9,914.39,355Zm-6.16-.74h5.22a2.61,2.61,0,0,0-5.22,0Z"/>
      <path class="cls-86" d="M925.66,353.82v4.56h-.95v-1.14a2.78,2.78,0,0,1-2.54,1.21c-1.67,0-2.69-.87-2.69-2.14s.73-2.09,2.85-2.09h2.33v-.44c0-1.27-.71-1.95-2.08-1.95a3.71,3.71,0,0,0-2.45.87l-.45-.75a4.67,4.67,0,0,1,3-1C924.58,351,925.66,351.91,925.66,353.82Zm-1,2.35V355h-2.31c-1.42,0-1.89.56-1.89,1.31s.69,1.39,1.87,1.39A2.34,2.34,0,0,0,924.66,356.17Z"/>
      <path class="cls-86" d="M927.34,357.54l.44-.78a4.49,4.49,0,0,0,2.62.82c1.4,0,2-.47,2-1.2,0-1.92-4.78-.41-4.78-3.32,0-1.2,1-2.1,2.92-2.1a5,5,0,0,1,2.6.69l-.43.79a3.86,3.86,0,0,0-2.17-.63c-1.34,0-1.92.52-1.92,1.22,0,2,4.77.49,4.77,3.32,0,1.28-1.12,2.1-3,2.1A4.88,4.88,0,0,1,927.34,357.54Z"/>
      <path class="cls-86" d="M942.75,357.94a2.35,2.35,0,0,1-1.55.51,2,2,0,0,1-2.16-2.14v-4.45h-1.32V351H939v-1.61h1V351h2.25v.84H940v4.39a1.19,1.19,0,0,0,1.28,1.35,1.64,1.64,0,0,0,1.09-.38Z"/>
      <path class="cls-86" d="M951.34,354.11v4.27h-1v-4.17a2.05,2.05,0,0,0-2.21-2.35,2.42,2.42,0,0,0-2.58,2.66v3.86h-1V348h1v4.31a3.12,3.12,0,0,1,2.76-1.34A2.83,2.83,0,0,1,951.34,354.11Z"/>
      <path class="cls-86" d="M960.48,355h-6.17a2.73,2.73,0,0,0,2.9,2.56,2.89,2.89,0,0,0,2.26-1l.56.65a3.9,3.9,0,0,1-6.71-2.55,3.59,3.59,0,1,1,7.17,0C960.49,354.78,960.48,354.9,960.48,355Zm-6.17-.74h5.23a2.62,2.62,0,0,0-5.23,0Z"/>
      <path class="cls-86" d="M965.44,354.7a3.75,3.75,0,1,1,3.76,3.75A3.62,3.62,0,0,1,965.44,354.7Zm6.49,0a2.74,2.74,0,1,0-2.73,2.87A2.69,2.69,0,0,0,971.93,354.7Z"/>
      <path class="cls-86" d="M978.84,357.94a2.35,2.35,0,0,1-1.55.51,2,2,0,0,1-2.16-2.14v-4.45h-1.31V351h1.31v-1.61h1V351h2.24v.84h-2.24v4.39a1.18,1.18,0,0,0,1.27,1.35,1.64,1.64,0,0,0,1.09-.38Z"/>
      <path class="cls-86" d="M987.43,354.11v4.27h-1v-4.17a2.05,2.05,0,0,0-2.21-2.35,2.42,2.42,0,0,0-2.58,2.66v3.86h-1V348h1v4.31A3.13,3.13,0,0,1,984.4,351,2.82,2.82,0,0,1,987.43,354.11Z"/>
      <path class="cls-86" d="M996.57,355h-6.16a2.72,2.72,0,0,0,2.9,2.56,2.89,2.89,0,0,0,2.25-1l.56.65a3.9,3.9,0,0,1-6.71-2.55A3.55,3.55,0,0,1,993,351a3.51,3.51,0,0,1,3.57,3.74C996.58,354.78,996.57,354.9,996.57,355Zm-6.16-.74h5.22a2.61,2.61,0,0,0-5.22,0Z"/>
      <path class="cls-86" d="M1002.32,351v1l-.24,0c-1.54,0-2.47,1-2.47,2.72v3.75h-1V351h.95v1.44A2.79,2.79,0,0,1,1002.32,351Z"/>
      <path class="cls-86" d="M868.29,364.72a2.34,2.34,0,0,1,1.47.46l-.34.74a1.72,1.72,0,0,0-1.09-.36c-.86,0-1.3.48-1.3,1.39v.87h2.27v.84h-2.25v6.52h-1v-6.52h-1.32v-.84h1.32v-.91A2,2,0,0,1,868.29,364.72Zm4.7.76a.72.72,0,0,1-.73.73.72.72,0,0,1-.72-.72.73.73,0,0,1,1.45,0Zm-1.23,2.34h1v7.36h-1Z"/>
      <path class="cls-86" d="M875.52,364.79h1v10.39h-1Z"/>
      <path class="cls-86" d="M883.2,374.74a2.38,2.38,0,0,1-1.56.51,2,2,0,0,1-2.15-2.14v-4.45h-1.32v-.84h1.32v-1.61h1v1.61h2.24v.84h-2.24v4.39a1.18,1.18,0,0,0,1.27,1.35,1.67,1.67,0,0,0,1.1-.38Z"/>
      <path class="cls-86" d="M891.15,371.81H885a2.72,2.72,0,0,0,2.9,2.56,2.89,2.89,0,0,0,2.25-1l.56.65A3.9,3.9,0,0,1,884,371.5a3.59,3.59,0,1,1,7.18,0C891.17,371.58,891.15,371.7,891.15,371.81Zm-6.16-.74h5.22a2.61,2.61,0,0,0-5.22,0Z"/>
      <path class="cls-86" d="M896.9,367.76v1l-.23,0c-1.55,0-2.48,1-2.48,2.72v3.75h-1v-7.36h.95v1.44A2.8,2.8,0,0,1,896.9,367.76Z"/>
      <path class="cls-86" d="M897.73,374.34l.45-.78a4.43,4.43,0,0,0,2.61.82c1.41,0,2-.47,2-1.2,0-1.92-4.78-.41-4.78-3.32,0-1.2,1-2.1,2.92-2.1a5,5,0,0,1,2.6.69l-.43.79a3.86,3.86,0,0,0-2.17-.63c-1.33,0-1.92.52-1.92,1.22,0,2,4.77.49,4.77,3.32,0,1.28-1.12,2.1-3,2.1A4.9,4.9,0,0,1,897.73,374.34Z"/>
      <path class="cls-86" d="M915.9,367.82v7.36H915v-1.34a2.92,2.92,0,0,1-2.65,1.41,2.86,2.86,0,0,1-3.11-3.16v-4.27h1V372c0,1.57.81,2.37,2.21,2.37a2.4,2.4,0,0,0,2.51-2.68v-3.86Z"/>
      <path class="cls-86" d="M926.15,371.5a3.57,3.57,0,0,1-3.67,3.75,3.22,3.22,0,0,1-2.8-1.45v4.1h-1V367.82h.95v1.45a3.2,3.2,0,0,1,2.84-1.51A3.56,3.56,0,0,1,926.15,371.5Zm-1,0a2.75,2.75,0,1,0-2.75,2.87A2.71,2.71,0,0,0,925.16,371.5Z"/>
      <path class="cls-86" d="M934.9,364.79v10.39H934v-1.45a3.2,3.2,0,0,1-2.85,1.52,3.75,3.75,0,0,1,0-7.49,3.22,3.22,0,0,1,2.81,1.46v-4.43Zm-1,6.71a2.74,2.74,0,1,0-2.73,2.87A2.7,2.7,0,0,0,933.92,371.5Z"/>
      <path class="cls-86" d="M943.23,370.62v4.56h-1V374a2.78,2.78,0,0,1-2.54,1.21c-1.67,0-2.69-.87-2.69-2.14s.73-2.09,2.85-2.09h2.34v-.44c0-1.27-.72-1.95-2.09-1.95a3.71,3.71,0,0,0-2.45.87l-.45-.75a4.67,4.67,0,0,1,3-1C942.15,367.76,943.23,368.71,943.23,370.62Zm-1,2.35v-1.2h-2.32c-1.42,0-1.89.56-1.89,1.31s.69,1.39,1.87,1.39A2.36,2.36,0,0,0,942.24,373Z"/>
      <path class="cls-86" d="M949.81,374.74a2.36,2.36,0,0,1-1.56.51,2,2,0,0,1-2.15-2.14v-4.45h-1.32v-.84h1.32v-1.61h1v1.61h2.24v.84h-2.24v4.39a1.19,1.19,0,0,0,1.28,1.35,1.66,1.66,0,0,0,1.09-.38Z"/>
      <path class="cls-86" d="M957.76,371.81H951.6a2.72,2.72,0,0,0,2.9,2.56,2.89,2.89,0,0,0,2.25-1l.56.65a3.9,3.9,0,0,1-6.71-2.55,3.59,3.59,0,1,1,7.18,0C957.78,371.58,957.76,371.7,957.76,371.81Zm-6.16-.74h5.22a2.61,2.61,0,0,0-5.22,0Z"/>
      <path class="cls-86" d="M959.16,374.48a.73.73,0,0,1,.74-.75.75.75,0,0,1,.76.75.76.76,0,0,1-.76.77A.75.75,0,0,1,959.16,374.48Z"/>
    </g>
  </g>
  <g>
    <g>
      <line class="cls-87" x1="542.09" y1="493.24" x2="542.09" y2="692.42"/>
      <line class="cls-87" x1="541.18" y1="692.42" x2="872.02" y2="692.42"/>
    </g>
    <text class="cls-63" transform="translate(696.96 725.04) scale(1.01 1)">Hour</text>
    <text class="cls-49" transform="translate(519.01 639.65) rotate(-90)"><tspan class="cls-47">T</tspan><tspan x="6.23" y="0">otal daily </tspan><tspan class="cls-88" x="63.4" y="0">r</tspan><tspan x="68.11" y="0">ide</tspan><tspan class="cls-89" x="86.72" y="0">r</tspan><tspan x="91.49" y="0">ship</tspan></text>
    <text class="cls-32" transform="translate(614.69 472.76)"><tspan class="cls-33">A</tspan><tspan class="cls-34" x="11.07" y="0">v</tspan><tspan x="19.81" y="0">e</tspan><tspan class="cls-35" x="29.28" y="0">r</tspan><tspan class="cls-36" x="35.64" y="0">a</tspan><tspan class="cls-90" x="44.98" y="0">ge Hou</tspan><tspan class="cls-16" x="101.44" y="0">r</tspan><tspan x="107.85" y="0">ly Ride</tspan><tspan class="cls-37" x="160.96" y="0">r</tspan><tspan x="167.4" y="0">ship</tspan></text>
    <text class="cls-91" transform="translate(540.73 706.48)">0</text>
    <text class="cls-92" transform="translate(866.77 706.48)">2<tspan class="cls-93" x="6.54" y="0">4</tspan></text>
    <text class="cls-91" transform="translate(703.77 706.48)">12</text>
    <text class="cls-91" transform="translate(623.09 706.48)">6</text>
    <text class="cls-91" transform="translate(785.58 706.48)">18</text>
    <g>
      <polyline class="cls-94" points="543.05 679.4 557.21 680.2 571.39 679.27 585.55 679.67 599.73 672.27 613.9 668.04 628.07 578.43 642.25 485.68 656.41 629.98 670.59 632.72 684.75 664.34 698.93 636.63 713.1 647.15 727.27 653.76 741.44 653.53 755.61 638.49 769.79 524.24 783.96 508.65 798.13 524.06 812.3 603.31 826.47 667.85 840.64 669.91 854.81 676.63 868.98 677.85"/>
      <polyline class="cls-95" points="543.05 676.76 557.21 677.55 571.39 681.91 585.55 681.25 599.73 674.91 613.9 669.41 628.07 609.89 642.25 521.87 656.41 603.54 670.59 620.99 684.75 663.01 698.93 629.98 713.1 636.1 727.27 651.12 741.44 648.48 755.61 615.43 769.79 548.61 783.96 495.75 798.13 566.54 812.3 629.98 826.47 654.35 840.64 667.61 854.81 673.72 868.98 677.55"/>
      <polyline class="cls-96" points="543.05 678.08 557.21 678.87 571.39 678.74 585.55 680.78 599.73 676.36 613.9 673.72 628.07 653.92 642.25 579.54 656.41 561.51 670.59 582.16 684.75 627.49 698.93 635.55 713.1 630.24 727.27 619.66 741.44 648.74 755.61 649.01 769.79 574.62 783.96 521.87 798.13 548.09 812.3 558.95 826.47 670.5 840.64 671.05 854.81 673.98 868.98 675.2"/>
      <circle class="cls-95" cx="543.05" cy="676.76" r="1.26"/>
      <circle class="cls-95" cx="557.21" cy="677.55" r="1.26"/>
      <circle class="cls-95" cx="571.39" cy="681.91" r="1.26"/>
      <circle class="cls-95" cx="585.56" cy="681.25" r="1.26"/>
      <circle class="cls-95" cx="599.73" cy="674.91" r="1.26"/>
      <circle class="cls-95" cx="613.9" cy="669.41" r="1.26"/>
      <circle class="cls-95" cx="628.07" cy="609.89" r="1.26"/>
      <circle class="cls-95" cx="642.25" cy="518.86" r="1.26"/>
      <circle class="cls-95" cx="656.41" cy="603.54" r="1.26"/>
      <circle class="cls-95" cx="670.59" cy="620.99" r="1.26"/>
      <circle class="cls-95" cx="684.76" cy="663.01" r="1.26"/>
      <circle class="cls-95" cx="698.93" cy="629.98" r="1.26"/>
      <circle class="cls-95" cx="713.1" cy="636.1" r="1.26"/>
      <circle class="cls-95" cx="727.27" cy="651.12" r="1.26"/>
      <circle class="cls-95" cx="741.44" cy="648.48" r="1.26"/>
      <circle class="cls-95" cx="755.61" cy="615.43" r="1.26"/>
      <circle class="cls-95" cx="769.79" cy="548.61" r="1.26"/>
      <circle class="cls-95" cx="783.96" cy="492.75" r="1.26"/>
      <circle class="cls-95" cx="798.13" cy="566.54" r="1.26"/>
      <circle class="cls-95" cx="812.3" cy="629.98" r="1.26"/>
      <circle class="cls-95" cx="826.47" cy="654.35" r="1.26"/>
      <circle class="cls-95" cx="840.64" cy="667.61" r="1.26"/>
      <circle class="cls-95" cx="854.81" cy="673.72" r="1.26"/>
      <circle class="cls-95" cx="868.98" cy="677.55" r="1.26"/>
      <circle class="cls-94" cx="543.05" cy="679.4" r="1.26"/>
      <circle class="cls-94" cx="557.21" cy="680.2" r="1.26"/>
      <circle class="cls-94" cx="571.39" cy="679.27" r="1.26"/>
      <circle class="cls-94" cx="585.56" cy="679.67" r="1.26"/>
      <circle class="cls-94" cx="599.73" cy="672.27" r="1.26"/>
      <circle class="cls-94" cx="613.9" cy="668.04" r="1.26"/>
      <circle class="cls-94" cx="628.07" cy="578.43" r="1.26"/>
      <circle class="cls-94" cx="642.25" cy="485.68" r="1.26"/>
      <circle class="cls-94" cx="656.41" cy="629.98" r="1.26"/>
      <circle class="cls-94" cx="670.59" cy="632.72" r="1.26"/>
      <circle class="cls-94" cx="684.76" cy="664.34" r="1.26"/>
      <circle class="cls-94" cx="698.93" cy="636.63" r="1.26"/>
      <circle class="cls-94" cx="713.1" cy="647.15" r="1.26"/>
      <circle class="cls-94" cx="727.27" cy="653.77" r="1.26"/>
      <circle class="cls-94" cx="741.44" cy="653.53" r="1.26"/>
      <circle class="cls-94" cx="755.61" cy="638.49" r="1.26"/>
      <circle class="cls-94" cx="769.79" cy="524.24" r="1.26"/>
      <circle class="cls-94" cx="783.96" cy="508.65" r="1.26"/>
      <circle class="cls-94" cx="798.13" cy="524.06" r="1.26"/>
      <circle class="cls-94" cx="812.3" cy="603.31" r="1.26"/>
      <circle class="cls-94" cx="826.47" cy="667.85" r="1.26"/>
      <circle class="cls-94" cx="840.64" cy="669.92" r="1.26"/>
      <circle class="cls-94" cx="854.81" cy="676.62" r="1.26"/>
      <circle class="cls-94" cx="868.98" cy="677.85" r="1.26"/>
      <circle class="cls-96" cx="543.05" cy="678.08" r="1.26"/>
      <circle class="cls-96" cx="557.21" cy="678.87" r="1.26"/>
      <circle class="cls-96" cx="571.39" cy="678.74" r="1.26"/>
      <circle class="cls-96" cx="585.56" cy="680.78" r="1.26"/>
      <circle class="cls-96" cx="599.73" cy="676.36" r="1.26"/>
      <circle class="cls-96" cx="613.9" cy="673.72" r="1.26"/>
      <circle class="cls-96" cx="628.07" cy="653.92" r="1.26"/>
      <circle class="cls-96" cx="642.25" cy="579.54" r="1.26"/>
      <circle class="cls-96" cx="656.41" cy="561.51" r="1.26"/>
      <circle class="cls-96" cx="670.59" cy="582.16" r="1.26"/>
      <circle class="cls-96" cx="684.76" cy="627.49" r="1.26"/>
      <circle class="cls-96" cx="698.93" cy="635.55" r="1.26"/>
      <circle class="cls-96" cx="713.1" cy="630.24" r="1.26"/>
      <circle class="cls-96" cx="727.27" cy="619.66" r="1.26"/>
      <circle class="cls-96" cx="741.44" cy="648.74" r="1.26"/>
      <circle class="cls-96" cx="755.61" cy="649.01" r="1.26"/>
      <circle class="cls-96" cx="769.79" cy="574.62" r="1.26"/>
      <circle class="cls-96" cx="783.96" cy="521.86" r="1.26"/>
      <circle class="cls-96" cx="798.13" cy="548.09" r="1.26"/>
      <circle class="cls-96" cx="812.3" cy="558.95" r="1.26"/>
      <circle class="cls-96" cx="826.47" cy="670.5" r="1.26"/>
      <circle class="cls-96" cx="840.64" cy="671.05" r="1.26"/>
      <circle class="cls-96" cx="854.81" cy="673.98" r="1.26"/>
      <circle class="cls-96" cx="868.98" cy="675.2" r="1.26"/>
      <g>
        <polyline class="cls-97" points="542.32 685.41 556.49 686.2 570.66 685.28 584.83 685.67 599 678.27 613.17 674.04 627.35 584.44 641.52 491.68 655.69 635.98 669.86 638.73 684.03 670.34 698.21 642.64 712.37 653.16 726.55 659.77 740.72 659.53 754.89 644.49 769.06 530.25 783.23 514.65 797.4 530.07 811.57 609.31 825.75 673.85 839.91 675.92 854.09 682.63 868.26 683.85"/>
        <circle class="cls-97" cx="542.32" cy="685.41" r="1.26"/>
        <circle class="cls-97" cx="556.49" cy="686.2" r="1.26"/>
        <circle class="cls-97" cx="570.66" cy="685.28" r="1.26"/>
        <circle class="cls-97" cx="584.83" cy="685.67" r="1.26"/>
        <circle class="cls-97" cx="599.01" cy="678.27" r="1.26"/>
        <circle class="cls-97" cx="613.17" cy="674.04" r="1.26"/>
        <circle class="cls-97" cx="627.35" cy="584.44" r="1.26"/>
        <circle class="cls-97" cx="641.52" cy="491.68" r="1.26"/>
        <circle class="cls-97" cx="655.69" cy="635.98" r="1.26"/>
        <circle class="cls-97" cx="669.86" cy="638.73" r="1.26"/>
        <circle class="cls-97" cx="684.03" cy="670.34" r="1.26"/>
        <circle class="cls-97" cx="698.21" cy="642.64" r="1.26"/>
        <circle class="cls-97" cx="712.37" cy="653.16" r="1.26"/>
        <circle class="cls-97" cx="726.55" cy="659.77" r="1.26"/>
        <circle class="cls-97" cx="740.71" cy="659.53" r="1.26"/>
        <circle class="cls-97" cx="754.89" cy="644.49" r="1.26"/>
        <circle class="cls-97" cx="769.06" cy="530.25" r="1.26"/>
        <circle class="cls-97" cx="783.23" cy="514.65" r="1.26"/>
        <circle class="cls-97" cx="797.4" cy="530.07" r="1.26"/>
        <circle class="cls-97" cx="811.57" cy="609.31" r="1.26"/>
        <circle class="cls-97" cx="825.75" cy="673.85" r="1.26"/>
        <circle class="cls-97" cx="839.91" cy="675.92" r="1.26"/>
        <circle class="cls-97" cx="854.09" cy="682.63" r="1.26"/>
        <circle class="cls-97" cx="868.26" cy="683.85" r="1.26"/>
      </g>
      <g>
        <polyline class="cls-98" points="542.32 677.24 556.49 678.04 570.66 677.12 584.83 677.51 599 670.11 613.17 665.88 627.35 576.27 641.52 497.88 655.69 633.98 669.33 612.72 684.03 662.18 698.21 634.48 714.07 639.39 725.08 664.24 741.97 659.84 754.89 636.33 769.06 522.08 783.23 511.48 797.4 521.9 819.2 600.64 825.75 665.69 839.91 667.76 854.09 674.47 868.26 675.69"/>
        <circle class="cls-98" cx="542.32" cy="677.24" r="1.26"/>
        <circle class="cls-98" cx="556.49" cy="678.04" r="1.26"/>
        <circle class="cls-98" cx="570.66" cy="677.12" r="1.26"/>
        <circle class="cls-98" cx="584.83" cy="677.51" r="1.26"/>
        <circle class="cls-98" cx="599.01" cy="670.11" r="1.26"/>
        <circle class="cls-98" cx="613.17" cy="665.88" r="1.26"/>
        <circle class="cls-98" cx="627.35" cy="576.28" r="1.26"/>
        <circle class="cls-98" cx="641.52" cy="491.69" r="1.26"/>
        <circle class="cls-98" cx="655.69" cy="633.98" r="1.26"/>
        <circle class="cls-98" cx="669.33" cy="612.72" r="1.26"/>
        <circle class="cls-98" cx="684.03" cy="662.18" r="1.26"/>
        <circle class="cls-98" cx="698.21" cy="634.48" r="1.26"/>
        <circle class="cls-98" cx="714.04" cy="639.31" r="1.26"/>
        <circle class="cls-98" cx="724.75" cy="664.83" r="1.26"/>
        <circle class="cls-98" cx="741.97" cy="659.76" r="1.26"/>
        <circle class="cls-98" cx="754.89" cy="636.33" r="1.26"/>
        <circle class="cls-98" cx="769.06" cy="522.08" r="1.26"/>
        <circle class="cls-98" cx="783.23" cy="511.16" r="1.26"/>
        <circle class="cls-98" cx="797.4" cy="521.9" r="1.26"/>
        <circle class="cls-98" cx="819.15" cy="600.61" r="1.26"/>
        <circle class="cls-98" cx="825.75" cy="665.69" r="1.26"/>
        <circle class="cls-98" cx="839.91" cy="667.76" r="1.26"/>
        <circle class="cls-98" cx="854.09" cy="674.47" r="1.26"/>
        <circle class="cls-98" cx="868.26" cy="675.69" r="1.26"/>
      </g>
    </g>
  </g>
  <text class="cls-63" transform="translate(244.38 723.67) scale(1.01 1)">Da<tspan class="cls-99" x="18.94" y="0">t</tspan><tspan x="24.11" y="0">e</tspan></text>
  <text class="cls-75" transform="translate(98.98 347.5)">min #</text>
  <text class="cls-75" transform="translate(274.36 347.06)">max #</text>
  <text class="cls-63" transform="translate(86.05 410.66) scale(1.01 1)"><tspan class="cls-100">T</tspan><tspan x="6.94" y="0">otal sele</tspan><tspan class="cls-101" x="62.04" y="0">c</tspan><tspan class="cls-99" x="69.65" y="0">t</tspan><tspan x="74.83" y="0">ed stations: </tspan><tspan class="cls-102" x="154.68" y="0">6</tspan><tspan class="cls-15" x="163.14" y="0">7</tspan></text>
</svg>
