<svg xmlns="http://www.w3.org/2000/svg" xmlns:xlink="http://www.w3.org/1999/xlink" width="1024" height="768" viewBox="0 0 1024 768">
  <defs>
    <style>
      .cls-1, .cls-2, .cls-26, .cls-30, .cls-31, .cls-32, .cls-33, .cls-44, .cls-49, .cls-56, .cls-66, .cls-71, .cls-74, .cls-76, .cls-77, .cls-78, .cls-79, .cls-80, .cls-81, .cls-82 {
        fill: none;
      }

      .cls-2 {
        stroke: #231f20;
        stroke-width: 0.72px;
      }

      .cls-3, .cls-83 {
        fill: #d8d8d8;
      }

      .cls-4 {
        font-size: 27px;
      }

      .cls-20, .cls-27, .cls-4, .cls-41, .cls-45, .cls-46, .cls-47, .cls-57, .cls-58, .cls-63, .cls-64 {
        fill: #787878;
      }

      .cls-15, .cls-20, .cls-4, .cls-41, .cls-46, .cls-47, .cls-87 {
        font-family: Montserrat-Bold, Montserrat;
        font-weight: 700;
      }

      .cls-5 {
        letter-spacing: -0.01em;
      }

      .cls-6 {
        font-size: 20px;
        font-weight: 400;
      }

      .cls-27, .cls-57, .cls-58, .cls-6, .cls-63, .cls-64 {
        font-family: Montserrat-Regular, Montserrat;
      }

      .cls-7 {
        letter-spacing: -0.02em;
      }

      .cls-8 {
        letter-spacing: -0.01em;
      }

      .cls-9 {
        letter-spacing: -0.01em;
      }

      .cls-10 {
        letter-spacing: -0.01em;
      }

      .cls-11 {
        letter-spacing: 0em;
      }

      .cls-12 {
        letter-spacing: -0.02em;
      }

      .cls-13 {
        letter-spacing: 0em;
      }

      .cls-14 {
        letter-spacing: -0.01em;
      }

      .cls-16 {
        letter-spacing: 0em;
      }

      .cls-17 {
        letter-spacing: 0em;
      }

      .cls-18 {
        letter-spacing: 0em;
      }

      .cls-19 {
        letter-spacing: 0em;
      }

      .cls-20 {
        font-size: 15px;
      }

      .cls-21 {
        letter-spacing: -0.03em;
      }

      .cls-22 {
        letter-spacing: -0.01em;
      }

      .cls-23 {
        letter-spacing: -0.01em;
      }

      .cls-24 {
        letter-spacing: 0.01em;
      }

      .cls-25 {
        letter-spacing: 0em;
      }

      .cls-26, .cls-30, .cls-31, .cls-32, .cls-33, .cls-78, .cls-79, .cls-80, .cls-81, .cls-82 {
        stroke: #fff;
      }

      .cls-26, .cls-30, .cls-31, .cls-32, .cls-33, .cls-44, .cls-49, .cls-56, .cls-63, .cls-64, .cls-66, .cls-71, .cls-74, .cls-76, .cls-77, .cls-78, .cls-79, .cls-80, .cls-81, .cls-82, .cls-83 {
        stroke-miterlimit: 10;
      }

      .cls-26 {
        stroke-width: 5.92px;
      }

      .cls-27 {
        font-size: 10px;
      }

      .cls-28 {
        letter-spacing: -0.01em;
      }

      .cls-29 {
        letter-spacing: 0.01em;
      }

      .cls-30 {
        stroke-width: 4.93px;
      }

      .cls-31 {
        stroke-width: 3.99px;
      }

      .cls-32 {
        stroke-width: 2.57px;
      }

      .cls-34 {
        letter-spacing: -0.01em;
      }

      .cls-35 {
        fill: #945e9e;
      }

      .cls-36 {
        fill: #d37928;
      }

      .cls-37 {
        fill: #c32026;
      }

      .cls-38 {
        fill: #1f9647;
      }

      .cls-39 {
        fill: #91642e;
      }

      .cls-40 {
        fill: #fff;
      }

      .cls-41 {
        font-size: 13.63px;
      }

      .cls-42 {
        letter-spacing: 0.01em;
      }

      .cls-43 {
        letter-spacing: 0em;
      }

      .cls-44, .cls-56, .cls-63, .cls-64, .cls-74 {
        stroke: #787878;
      }

      .cls-44 {
        stroke-width: 2.37px;
      }

      .cls-46 {
        font-size: 9.48px;
      }

      .cls-47 {
        font-size: 11.84px;
      }

      .cls-48 {
        letter-spacing: -0.02em;
      }

      .cls-49, .cls-83 {
        stroke: #d37928;
      }

      .cls-49, .cls-63, .cls-64, .cls-83 {
        stroke-linecap: round;
      }

      .cls-49 {
        stroke-width: 0.79px;
        stroke-dasharray: 0.79 0.79;
      }

      .cls-50 {
        letter-spacing: -0.03em;
      }

      .cls-51 {
        letter-spacing: -0.02em;
      }

      .cls-52 {
        letter-spacing: -0.01em;
      }

      .cls-53 {
        letter-spacing: 0.01em;
      }

      .cls-54 {
        letter-spacing: 0em;
      }

      .cls-55 {
        letter-spacing: 0em;
      }

      .cls-56 {
        stroke-width: 0.91px;
      }

      .cls-57 {
        font-size: 13.37px;
      }

      .cls-58, .cls-63, .cls-64 {
        font-size: 12px;
      }

      .cls-59 {
        letter-spacing: -0.06em;
      }

      .cls-60 {
        letter-spacing: -0.01em;
      }

      .cls-61 {
        letter-spacing: 0em;
      }

      .cls-62 {
        letter-spacing: 0em;
      }

      .cls-63, .cls-64 {
        stroke-width: 0.75px;
        stroke-dasharray: 1;
      }

      .cls-64 {
        letter-spacing: -0.02em;
      }

      .cls-65 {
        letter-spacing: 0em;
      }

      .cls-66, .cls-71, .cls-77 {
        stroke: #945e9e;
      }

      .cls-66 {
        stroke-width: 2px;
      }

      .cls-67 {
        letter-spacing: 0em;
      }

      .cls-68 {
        letter-spacing: -0.05em;
      }

      .cls-69 {
        letter-spacing: -0.01em;
      }

      .cls-70 {
        letter-spacing: 0em;
      }

      .cls-71 {
        stroke-width: 2.31px;
      }

      .cls-72, .cls-73 {
        opacity: 0.2;
      }

      .cls-72 {
        fill: url(#_10_lpi_10_);
      }

      .cls-73 {
        fill: url(#_10_lpi_10_3);
      }

      .cls-74 {
        stroke-width: 0.98px;
      }

      .cls-75 {
        letter-spacing: -0.02em;
      }

      .cls-76 {
        stroke: #969696;
        stroke-width: 1.63px;
      }

      .cls-77 {
        stroke-width: 2.45px;
      }

      .cls-78 {
        stroke-width: 1.05px;
      }

      .cls-79 {
        stroke-width: 6.22px;
      }

      .cls-80 {
        stroke-width: 5.18px;
      }

      .cls-81 {
        stroke-width: 4.19px;
      }

      .cls-82 {
        stroke-width: 2.7px;
      }

      .cls-83 {
        stroke-width: 0.96px;
        stroke-dasharray: 0.96;
      }

      .cls-84 {
        fill: #231f20;
      }

      .cls-85 {
        letter-spacing: -0.05em;
      }

      .cls-86 {
        letter-spacing: 0.01em;
      }

      .cls-87 {
        letter-spacing: 0em;
      }
    </style>
    <pattern id="_10_lpi_10_" data-name="10 lpi 10%" width="72" height="72" patternTransform="translate(-448.19 89.19) scale(1.87 0.91)" patternUnits="userSpaceOnUse" viewBox="0 0 72 72">
      <rect class="cls-1" width="72" height="72"/>
      <g>
        <line class="cls-2" x1="71.75" y1="68.4" x2="144.25" y2="68.4"/>
        <line class="cls-2" x1="71.75" y1="54" x2="144.25" y2="54"/>
        <line class="cls-2" x1="71.75" y1="39.6" x2="144.25" y2="39.6"/>
        <line class="cls-2" x1="71.75" y1="25.2" x2="144.25" y2="25.2"/>
        <line class="cls-2" x1="71.75" y1="10.8" x2="144.25" y2="10.8"/>
        <line class="cls-2" x1="71.75" y1="61.2" x2="144.25" y2="61.2"/>
        <line class="cls-2" x1="71.75" y1="46.8" x2="144.25" y2="46.8"/>
        <line class="cls-2" x1="71.75" y1="32.4" x2="144.25" y2="32.4"/>
        <line class="cls-2" x1="71.75" y1="18" x2="144.25" y2="18"/>
        <line class="cls-2" x1="71.75" y1="3.6" x2="144.25" y2="3.6"/>
      </g>
      <g>
        <line class="cls-2" x1="-0.25" y1="68.4" x2="72.25" y2="68.4"/>
        <line class="cls-2" x1="-0.25" y1="54" x2="72.25" y2="54"/>
        <line class="cls-2" x1="-0.25" y1="39.6" x2="72.25" y2="39.6"/>
        <line class="cls-2" x1="-0.25" y1="25.2" x2="72.25" y2="25.2"/>
        <line class="cls-2" x1="-0.25" y1="10.8" x2="72.25" y2="10.8"/>
        <line class="cls-2" x1="-0.25" y1="61.2" x2="72.25" y2="61.2"/>
        <line class="cls-2" x1="-0.25" y1="46.8" x2="72.25" y2="46.8"/>
        <line class="cls-2" x1="-0.25" y1="32.4" x2="72.25" y2="32.4"/>
        <line class="cls-2" x1="-0.25" y1="18" x2="72.25" y2="18"/>
        <line class="cls-2" x1="-0.25" y1="3.6" x2="72.25" y2="3.6"/>
      </g>
      <g>
        <line class="cls-2" x1="-72.25" y1="68.4" x2="0.25" y2="68.4"/>
        <line class="cls-2" x1="-72.25" y1="54" x2="0.25" y2="54"/>
        <line class="cls-2" x1="-72.25" y1="39.6" x2="0.25" y2="39.6"/>
        <line class="cls-2" x1="-72.25" y1="25.2" x2="0.25" y2="25.2"/>
        <line class="cls-2" x1="-72.25" y1="10.8" x2="0.25" y2="10.8"/>
        <line class="cls-2" x1="-72.25" y1="61.2" x2="0.25" y2="61.2"/>
        <line class="cls-2" x1="-72.25" y1="46.8" x2="0.25" y2="46.8"/>
        <line class="cls-2" x1="-72.25" y1="32.4" x2="0.25" y2="32.4"/>
        <line class="cls-2" x1="-72.25" y1="18" x2="0.25" y2="18"/>
        <line class="cls-2" x1="-72.25" y1="3.6" x2="0.25" y2="3.6"/>
      </g>
    </pattern>
    <pattern id="_10_lpi_10_3" data-name="10 lpi 10%" width="72" height="72" patternTransform="translate(-427.05 89.19) scale(1.87 0.91)" patternUnits="userSpaceOnUse" viewBox="0 0 72 72">
      <rect class="cls-1" width="72" height="72"/>
      <g>
        <line class="cls-2" x1="71.75" y1="68.4" x2="144.25" y2="68.4"/>
        <line class="cls-2" x1="71.75" y1="54" x2="144.25" y2="54"/>
        <line class="cls-2" x1="71.75" y1="39.6" x2="144.25" y2="39.6"/>
        <line class="cls-2" x1="71.75" y1="25.2" x2="144.25" y2="25.2"/>
        <line class="cls-2" x1="71.75" y1="10.8" x2="144.25" y2="10.8"/>
        <line class="cls-2" x1="71.75" y1="61.2" x2="144.25" y2="61.2"/>
        <line class="cls-2" x1="71.75" y1="46.8" x2="144.25" y2="46.8"/>
        <line class="cls-2" x1="71.75" y1="32.4" x2="144.25" y2="32.4"/>
        <line class="cls-2" x1="71.75" y1="18" x2="144.25" y2="18"/>
        <line class="cls-2" x1="71.75" y1="3.6" x2="144.25" y2="3.6"/>
      </g>
      <g>
        <line class="cls-2" x1="-0.25" y1="68.4" x2="72.25" y2="68.4"/>
        <line class="cls-2" x1="-0.25" y1="54" x2="72.25" y2="54"/>
        <line class="cls-2" x1="-0.25" y1="39.6" x2="72.25" y2="39.6"/>
        <line class="cls-2" x1="-0.25" y1="25.2" x2="72.25" y2="25.2"/>
        <line class="cls-2" x1="-0.25" y1="10.8" x2="72.25" y2="10.8"/>
        <line class="cls-2" x1="-0.25" y1="61.2" x2="72.25" y2="61.2"/>
        <line class="cls-2" x1="-0.25" y1="46.8" x2="72.25" y2="46.8"/>
        <line class="cls-2" x1="-0.25" y1="32.4" x2="72.25" y2="32.4"/>
        <line class="cls-2" x1="-0.25" y1="18" x2="72.25" y2="18"/>
        <line class="cls-2" x1="-0.25" y1="3.6" x2="72.25" y2="3.6"/>
      </g>
      <g>
        <line class="cls-2" x1="-72.25" y1="68.4" x2="0.25" y2="68.4"/>
        <line class="cls-2" x1="-72.25" y1="54" x2="0.25" y2="54"/>
        <line class="cls-2" x1="-72.25" y1="39.6" x2="0.25" y2="39.6"/>
        <line class="cls-2" x1="-72.25" y1="25.2" x2="0.25" y2="25.2"/>
        <line class="cls-2" x1="-72.25" y1="10.8" x2="0.25" y2="10.8"/>
        <line class="cls-2" x1="-72.25" y1="61.2" x2="0.25" y2="61.2"/>
        <line class="cls-2" x1="-72.25" y1="46.8" x2="0.25" y2="46.8"/>
        <line class="cls-2" x1="-72.25" y1="32.4" x2="0.25" y2="32.4"/>
        <line class="cls-2" x1="-72.25" y1="18" x2="0.25" y2="18"/>
        <line class="cls-2" x1="-72.25" y1="3.6" x2="0.25" y2="3.6"/>
      </g>
    </pattern>
  </defs>
  <g id="View_2" data-name="View 2">
    <rect class="cls-3" x="-0.58" y="2.19" width="1024" height="768"/>
    <text class="cls-4" transform="translate(26.59 56.97)"><tspan class="cls-5">W</tspan><tspan x="31" y="0">IEN U-BAHNNETZ</tspan><tspan class="cls-6"><tspan class="cls-7" x="0" y="24">V</tspan><tspan x="13.6" y="24">ienna Met</tspan><tspan class="cls-8" x="114.48" y="24">r</tspan><tspan x="122.24" y="24">omap </tspan><tspan class="cls-9" x="186.6" y="24">S</tspan><tspan class="cls-10" x="198.7" y="24">y</tspan><tspan class="cls-11" x="209.42" y="24">s</tspan><tspan class="cls-12" x="219.2" y="24">t</tspan><tspan x="226.94" y="24">em Dashb</tspan><tspan class="cls-13" x="330.68" y="24">o</tspan><tspan x="343.16" y="24">a</tspan><tspan class="cls-14" x="354.96" y="24">r</tspan><tspan x="362.72" y="24">d: </tspan><tspan class="cls-15" x="385.76" y="24">Dec 1st</tspan><tspan class="cls-11" x="459.54" y="24">, </tspan><tspan class="cls-16" x="469.01" y="24">2</tspan><tspan class="cls-17" x="480.29" y="24">0</tspan><tspan class="cls-18" x="493.49" y="24">2</tspan><tspan class="cls-11" x="504.77" y="24">0 - </tspan><tspan class="cls-15" x="536.13" y="24">Dec 15th</tspan><tspan class="cls-11" x="625.01" y="24">, </tspan><tspan class="cls-16" x="634.49" y="24">2</tspan><tspan class="cls-19" x="645.77" y="24">0</tspan><tspan class="cls-16" x="658.97" y="24">2</tspan><tspan x="670.25" y="24">0</tspan></tspan></text>
    <text class="cls-20" transform="translate(413.09 133.19)"><tspan class="cls-21">A</tspan><tspan class="cls-22" x="11.07" y="0">v</tspan><tspan x="19.81" y="0">e</tspan><tspan class="cls-23" x="29.28" y="0">r</tspan><tspan class="cls-24" x="35.64" y="0">a</tspan><tspan x="44.98" y="0">ge Daily Ride</tspan><tspan class="cls-25" x="148.47" y="0">r</tspan><tspan x="154.9" y="0">ship </tspan><tspan class="cls-22" x="192.34" y="0">b</tspan><tspan x="202.47" y="0">y Station</tspan></text>
    <g>
      <g>
        <circle class="cls-26" cx="789.97" cy="247.02" r="7.19"/>
        <text class="cls-27" transform="translate(805.7 251.35)">5<tspan class="cls-28" x="5.66" y="0">0,</tspan><tspan class="cls-11" x="14.18" y="0">00</tspan><tspan class="cls-29" x="27.42" y="0">0</tspan><tspan x="34.12" y="0">+</tspan></text>
      </g>
      <g>
        <circle class="cls-30" cx="792.51" cy="272.72" r="5.99"/>
        <text class="cls-27" transform="translate(806.84 275.58)">4<tspan class="cls-28" x="6.61" y="0">0,</tspan><tspan x="15.13" y="0">000</tspan></text>
      </g>
      <g>
        <circle class="cls-31" cx="793.84" cy="298.05" r="4.85"/>
        <text class="cls-27" transform="translate(806.15 301.35)">25<tspan class="cls-28" x="11.34" y="0">,</tspan><tspan class="cls-11" x="13.35" y="0">000</tspan></text>
      </g>
      <g>
        <circle class="cls-32" cx="795.42" cy="322.92" r="3.12"/>
        <text class="cls-27" transform="translate(804.06 327.04)">1<tspan class="cls-28" x="3.61" y="0">0,</tspan><tspan x="12.13" y="0">000</tspan></text>
      </g>
      <g>
        <circle class="cls-33" cx="797.87" cy="348.03" r="1.22"/>
        <text class="cls-27" transform="translate(804.16 352.74)">5<tspan class="cls-34" x="5.66" y="0">,</tspan><tspan x="7.67" y="0">000</tspan></text>
      </g>
    </g>
    <g>
      <rect class="cls-35" x="-0.58" y="740.44" width="1024" height="5.5"/>
      <rect class="cls-36" x="-0.58" y="752.71" width="1024" height="5.5"/>
      <rect class="cls-37" x="-0.58" y="746.53" width="1024" height="5.5"/>
      <rect class="cls-38" x="-0.58" y="758.71" width="1024" height="5.5"/>
      <rect class="cls-39" x="0.58" y="764.71" width="1024" height="5.5"/>
      <rect class="cls-35" x="0.58" y="93.32" width="1024" height="2.75"/>
    </g>
    <g>
      <g>
        <g>
          <rect class="cls-35" x="268.1" y="145.89" width="27.76" height="27.76" rx="13.88" transform="translate(122.21 441.75) rotate(-90)"/>
          <path class="cls-40" d="M289,154.09a1,1,0,0,1,1.4,0,1,1,0,0,1,.09,1.31l-.09.09-10,10a1,1,0,0,1-1.31.08l-.1-.08-5-5a1,1,0,0,1,1.31-1.49l.1.08,4.27,4.27Z"/>
        </g>
        <rect class="cls-37" x="228.06" y="145.89" width="27.76" height="27.76" rx="13.88" transform="translate(82.18 401.71) rotate(-90)"/>
        <rect class="cls-36" x="188.03" y="145.89" width="27.76" height="27.76" rx="13.88" transform="translate(42.14 361.67) rotate(-90)"/>
        <rect class="cls-38" x="147.99" y="145.89" width="27.76" height="27.76" rx="13.88" transform="translate(2.1 321.63) rotate(-90)"/>
        <rect class="cls-39" x="107.95" y="145.89" width="27.76" height="27.76" rx="13.88" transform="translate(-37.94 281.6) rotate(-90)"/>
      </g>
      <text class="cls-41" transform="translate(189.72 138.34)">Li<tspan class="cls-42" x="12.34" y="0">n</tspan><tspan class="cls-43" x="21.84" y="0">e</tspan></text>
      <g>
        <g>
          <line class="cls-44" x1="200.98" y1="216.7" x2="108.33" y2="216.7"/>
          <g>
            <path class="cls-40" d="M200.48,207.8a8.91,8.91,0,1,1-8.91,8.9A8.91,8.91,0,0,1,200.48,207.8Z"/>
            <path class="cls-45" d="M200.48,206.61a10.09,10.09,0,1,0,10.09,10.09,10.11,10.11,0,0,0-10.09-10.09Zm0,17.82a7.73,7.73,0,1,1,7.72-7.73,7.74,7.74,0,0,1-7.72,7.73Z"/>
          </g>
          <g>
            <circle class="cls-40" cx="108.83" cy="216.7" r="8.91"/>
            <path class="cls-45" d="M108.83,206.61A10.09,10.09,0,1,1,98.74,216.7a10.1,10.1,0,0,1,10.09-10.09Zm0,17.82a7.73,7.73,0,1,0-7.72-7.73,7.74,7.74,0,0,0,7.72,7.73Z"/>
          </g>
        </g>
        <text class="cls-46" transform="translate(182 237.04)">Dec 15th</text>
        <text class="cls-46" transform="translate(88.26 239.85)">Dec 1st</text>
        <text class="cls-47" transform="translate(190.26 202.59)">Da<tspan class="cls-48" x="17.09" y="0">t</tspan><tspan x="22.04" y="0">e</tspan></text>
      </g>
      <path class="cls-49" d="M70.74,388.7V126.15a7.88,7.88,0,0,1,7.88-7.88H317.45a7.88,7.88,0,0,1,7.88,7.88V388.7a7.88,7.88,0,0,1-7.88,7.88H78.62a7.88,7.88,0,0,1-7.88-7.88Z"/>
      <g>
        <g>
          <line class="cls-44" x1="288.32" y1="274.18" x2="107.98" y2="274.18"/>
          <g>
            <path class="cls-40" d="M287.81,265.28a8.91,8.91,0,1,1-8.9,8.9A8.9,8.9,0,0,1,287.81,265.28Z"/>
            <path class="cls-45" d="M287.81,264.09a10.09,10.09,0,1,0,10.09,10.09,10.11,10.11,0,0,0-10.09-10.09Zm0,17.81a7.72,7.72,0,1,1,7.73-7.72,7.73,7.73,0,0,1-7.73,7.72Z"/>
          </g>
          <g>
            <path class="cls-40" d="M108.49,265.28a8.91,8.91,0,1,0,8.9,8.9A8.9,8.9,0,0,0,108.49,265.28Z"/>
            <path class="cls-45" d="M108.49,264.09A10.09,10.09,0,1,1,98.4,274.18a10.11,10.11,0,0,1,10.09-10.09Zm0,17.81a7.72,7.72,0,1,0-7.72-7.72,7.72,7.72,0,0,0,7.72,7.72Z"/>
          </g>
        </g>
        <text class="cls-46" transform="translate(266.57 298.61)">11:59 pm</text>
        <text class="cls-46" transform="translate(87.83 297.42)">12:00 am</text>
        <text class="cls-47" transform="translate(190.26 267.89)">Hour</text>
      </g>
      <g>
        <g>
          <line class="cls-44" x1="288.87" y1="329.14" x2="108.53" y2="329.14"/>
          <g>
            <path class="cls-40" d="M288.36,320.23a8.91,8.91,0,1,1-8.91,8.91A8.91,8.91,0,0,1,288.36,320.23Z"/>
            <path class="cls-45" d="M288.36,319.05a10.09,10.09,0,1,0,10.09,10.09,10.1,10.1,0,0,0-10.09-10.09Zm0,17.81a7.73,7.73,0,1,1,7.72-7.72,7.72,7.72,0,0,1-7.72,7.72Z"/>
          </g>
          <g>
            <path class="cls-40" d="M109,320.23a8.91,8.91,0,1,0,8.9,8.91A8.91,8.91,0,0,0,109,320.23Z"/>
            <path class="cls-45" d="M109,319.05a10.09,10.09,0,1,1-10.1,10.09A10.1,10.1,0,0,1,109,319.05Zm0,17.81a7.73,7.73,0,1,0-7.73-7.72,7.73,7.73,0,0,0,7.73,7.72Z"/>
          </g>
        </g>
        <text class="cls-47" transform="translate(121.55 324.78)"><tspan class="cls-50">A</tspan><tspan class="cls-51" x="8.74" y="0">v</tspan><tspan x="15.65" y="0">e</tspan><tspan class="cls-52" x="23.12" y="0">r</tspan><tspan class="cls-53" x="28.14" y="0">a</tspan><tspan x="35.52" y="0">ge Daily Ride</tspan><tspan class="cls-54" x="117.24" y="0">r</tspan><tspan class="cls-55" x="122.32" y="0">ship</tspan></text>
      </g>
      <g>
        <path class="cls-45" d="M190.72,373.63a14.15,14.15,0,0,0,24.58-5.36c0-.17.07-.34.11-.51h-3.25a11,11,0,0,1-19.57,3.14h6v-3.14h-11v11h3.15Z"/>
        <path class="cls-45" d="M195.85,355.08a11,11,0,0,1,14.54,3.25h-6v3.14h11v-11h-3.15v5.14A14.16,14.16,0,0,0,187.68,361c0,.18-.07.35-.11.52h3.25a10.92,10.92,0,0,1,5-6.39Z"/>
      </g>
    </g>
    <g>
      <g>
        <line class="cls-56" x1="541.51" y1="495.42" x2="541.51" y2="694.61"/>
        <line class="cls-56" x1="540.6" y1="694.61" x2="871.44" y2="694.61"/>
      </g>
      <text class="cls-57" transform="translate(696.39 727.23) scale(1.01 1)">Hour</text>
      <text class="cls-58" transform="translate(518.43 641.84) rotate(-90)"><tspan class="cls-59">T</tspan><tspan x="6.23" y="0">otal daily </tspan><tspan class="cls-60" x="63.4" y="0">r</tspan><tspan x="68.11" y="0">ide</tspan><tspan class="cls-61" x="86.72" y="0">r</tspan><tspan x="91.49" y="0">ship</tspan></text>
      <text class="cls-20" transform="translate(614.12 474.95)"><tspan class="cls-21">A</tspan><tspan class="cls-22" x="11.07" y="0">v</tspan><tspan x="19.81" y="0">e</tspan><tspan class="cls-23" x="29.28" y="0">r</tspan><tspan class="cls-24" x="35.64" y="0">a</tspan><tspan class="cls-62" x="44.98" y="0">ge Hou</tspan><tspan class="cls-16" x="101.44" y="0">r</tspan><tspan x="107.85" y="0">ly Ride</tspan><tspan class="cls-25" x="160.96" y="0">r</tspan><tspan x="167.4" y="0">ship</tspan></text>
      <text class="cls-63" transform="translate(540.15 708.67)">0</text>
      <text class="cls-64" transform="translate(866.19 708.67)">2<tspan class="cls-65" x="6.54" y="0">4</tspan></text>
      <text class="cls-63" transform="translate(703.19 708.67)">12</text>
      <text class="cls-63" transform="translate(622.51 708.67)">6</text>
      <text class="cls-63" transform="translate(785 708.67)">18</text>
      <g>
        <polyline class="cls-66" points="541.74 679.43 555.91 680.22 570.09 679.3 584.25 679.7 598.43 672.29 612.6 668.07 626.77 578.46 640.94 500.06 655.11 636.16 668.75 614.9 683.45 664.37 697.63 636.66 713.49 641.58 724.5 666.42 741.4 662.03 754.31 638.51 768.49 524.27 782.65 513.67 796.83 524.09 818.63 602.83 825.17 667.88 839.34 669.94 853.51 676.65 867.68 677.87"/>
        <circle class="cls-66" cx="541.74" cy="679.43" r="1.26"/>
        <circle class="cls-66" cx="555.91" cy="680.22" r="1.26"/>
        <circle class="cls-66" cx="570.08" cy="679.3" r="1.26"/>
        <circle class="cls-66" cx="584.25" cy="679.69" r="1.26"/>
        <circle class="cls-66" cx="598.43" cy="672.29" r="1.26"/>
        <circle class="cls-66" cx="612.59" cy="668.06" r="1.26"/>
        <circle class="cls-66" cx="626.77" cy="578.46" r="1.26"/>
        <circle class="cls-66" cx="640.94" cy="495.87" r="1.26"/>
        <circle class="cls-66" cx="655.11" cy="636.17" r="1.26"/>
        <circle class="cls-66" cx="668.75" cy="614.91" r="1.26"/>
        <circle class="cls-66" cx="683.45" cy="664.36" r="1.26"/>
        <circle class="cls-66" cx="697.63" cy="636.66" r="1.26"/>
        <circle class="cls-66" cx="713.46" cy="641.49" r="1.26"/>
        <circle class="cls-66" cx="724.17" cy="667.01" r="1.26"/>
        <circle class="cls-66" cx="741.4" cy="661.95" r="1.26"/>
        <circle class="cls-66" cx="754.31" cy="638.52" r="1.26"/>
        <circle class="cls-66" cx="768.48" cy="524.27" r="1.26"/>
        <circle class="cls-66" cx="782.65" cy="513.35" r="1.26"/>
        <circle class="cls-66" cx="796.83" cy="524.09" r="1.26"/>
        <circle class="cls-66" cx="818.57" cy="602.8" r="1.26"/>
        <circle class="cls-66" cx="825.17" cy="667.88" r="1.26"/>
        <circle class="cls-66" cx="839.34" cy="669.94" r="1.26"/>
        <circle class="cls-66" cx="853.51" cy="676.65" r="1.26"/>
        <circle class="cls-66" cx="867.68" cy="677.87" r="1.26"/>
      </g>
    </g>
    <g>
      <text class="cls-20" transform="translate(176.56 474.95)"><tspan class="cls-59">T</tspan><tspan x="8.44" y="0">otal Daily Ride</tspan><tspan class="cls-67" x="122.08" y="0">r</tspan><tspan x="128.52" y="0">ship</tspan></text>
      <text class="cls-58" transform="translate(49.48 645.71) rotate(-90)"><tspan class="cls-68">T</tspan><tspan x="6.23" y="0">otal daily </tspan><tspan class="cls-69" x="63.4" y="0">r</tspan><tspan x="68.11" y="0">ide</tspan><tspan class="cls-70" x="86.72" y="0">r</tspan><tspan x="91.49" y="0">ship</tspan></text>
      <polyline class="cls-71" points="73.76 501.35 96.15 497.2 118.54 505.49 142.6 504.88 163.33 505.49 185.72 497.2 208.11 503.75 229.56 500.14 252.89 497.2 275.29 501.35 297.68 497.2 321.1 505.09 342.85 507.76 364.85 509.63 387.25 505.49 409.65 504.88 432.02 509.63 454.42 505.49"/>
      <rect class="cls-72" x="153.78" y="488.35" width="46.34" height="199.19"/>
      <rect class="cls-73" x="309.65" y="488.35" width="46.34" height="199.19"/>
      <g>
        <line class="cls-74" x1="72.12" y1="488.35" x2="72.12" y2="687.54"/>
        <line class="cls-74" x1="71.06" y1="687.54" x2="454.41" y2="687.54"/>
      </g>
      <text class="cls-57" transform="translate(67.56 707.57) rotate(-45) scale(1.01 1)">1st</text>
      <text class="cls-57" transform="translate(430.82 712.04) rotate(-45) scale(1.01 1)">15th</text>
      <text class="cls-57" transform="translate(256.14 713.63) rotate(-45) scale(1.01 1)">8th</text>
      <text class="cls-57" transform="translate(243.8 729.86) scale(1.01 1)">Da<tspan class="cls-75" x="18.94" y="0">t</tspan><tspan x="24.11" y="0">e</tspan></text>
    </g>
    <g>
      <polyline class="cls-76" points="391.54 217.7 440.4 265.84 565.42 265.84 660.26 360.45"/>
      <polyline class="cls-76" points="416.93 396.61 457.4 356.38 457.4 230.16 512.73 176.03 607.57 176.03 623.14 161.18"/>
      <polyline class="cls-77" points="529.65 302.01 511.77 283.49 511.77 248.04 529.65 230.47 600.55 230.47 672.56 302.49 727.25 247.8 753.19 247.8"/>
      <polyline class="cls-76" points="361.6 246.44 417.29 302.13 564.94 302.13 583.35 283.72 583.35 247.64 529.6 193.89 529.6 159.5"/>
      <polyline class="cls-76" points="592.84 400.56 529.7 337.41 529.7 284.44 565.68 248.46 638.23 248.46 714.6 172.09"/>
      <circle class="cls-76" cx="391.54" cy="217.96" r="1.18"/>
      <circle class="cls-76" cx="403.12" cy="229.34" r="1.18"/>
      <circle class="cls-76" cx="414.69" cy="240.55" r="1.18"/>
      <circle class="cls-76" cx="438.12" cy="263.71" r="1.18"/>
      <circle class="cls-76" cx="475.73" cy="265.86" r="1.18"/>
      <circle class="cls-76" cx="548.89" cy="266.35" r="5.8"/>
      <circle class="cls-76" cx="612.24" cy="312.65" r="1.18"/>
      <circle class="cls-76" cx="621.66" cy="322.07" r="1.18"/>
      <circle class="cls-76" cx="640.82" cy="341.19" r="1.18"/>
      <circle class="cls-76" cx="650.36" cy="350.69" r="1.18"/>
      <circle class="cls-78" cx="753.19" cy="248.02" r="1.18"/>
      <circle class="cls-78" cx="738.76" cy="248.02" r="1.18"/>
      <circle class="cls-78" cx="725.53" cy="249.88" r="1.18"/>
      <circle class="cls-78" cx="716.97" cy="258.39" r="1.18"/>
      <circle class="cls-78" cx="708.52" cy="267.07" r="1.18"/>
      <circle class="cls-78" cx="691.28" cy="284.19" r="1.18"/>
      <circle class="cls-78" cx="682.54" cy="292.82" r="1.18"/>
      <circle class="cls-78" cx="631.66" cy="261.56" r="1.18"/>
      <circle class="cls-78" cx="513.61" cy="285.98" r="1.18"/>
      <circle class="cls-76" cx="372.82" cy="258.12" r="1.18"/>
      <circle class="cls-76" cx="396.21" cy="281.05" r="1.18"/>
      <circle class="cls-76" cx="407.63" cy="292.69" r="1.18"/>
      <circle class="cls-76" cx="421.6" cy="302.13" r="1.18"/>
      <circle class="cls-76" cx="457.68" cy="284.02" r="1.18"/>
      <circle class="cls-76" cx="475.57" cy="301.95" r="1.18"/>
      <circle class="cls-76" cx="493.69" cy="301.95" r="1.18"/>
      <circle class="cls-76" cx="532.53" cy="197.04" r="1.18"/>
      <circle class="cls-76" cx="529.69" cy="157.89" r="1.18"/>
      <circle class="cls-76" cx="505.31" cy="182.22" r="1.18"/>
      <circle class="cls-76" cx="495.05" cy="192.53" r="1.18"/>
      <circle class="cls-76" cx="474.61" cy="213.37" r="1.18"/>
      <circle class="cls-76" cx="464.11" cy="223.55" r="1.18"/>
      <circle class="cls-76" cx="457.68" cy="250.93" r="1.18"/>
      <circle class="cls-76" cx="457.55" cy="316.6" r="1.18"/>
      <circle class="cls-76" cx="457.55" cy="331.18" r="1.18"/>
      <circle class="cls-76" cx="457.55" cy="345.79" r="1.18"/>
      <circle class="cls-76" cx="445.19" cy="368.32" r="1.18"/>
      <circle class="cls-76" cx="435.61" cy="378" r="1.18"/>
      <circle class="cls-76" cx="426.03" cy="387.47" r="1.18"/>
      <circle class="cls-76" cx="416.63" cy="397.02" r="1.18"/>
      <circle class="cls-76" cx="659.75" cy="359.99" r="1.18"/>
      <circle class="cls-76" cx="705.98" cy="180.65" r="1.18"/>
      <circle class="cls-76" cx="697.36" cy="189.22" r="1.18"/>
      <circle class="cls-76" cx="689.43" cy="197.52" r="1.18"/>
      <circle class="cls-76" cx="671.67" cy="215.02" r="1.18"/>
      <circle class="cls-76" cx="654.4" cy="232.24" r="1.18"/>
      <circle class="cls-76" cx="645.8" cy="240.83" r="1.18"/>
      <circle class="cls-76" cx="545.18" cy="353.1" r="1.18"/>
      <circle class="cls-76" cx="564.01" cy="371.96" r="1.18"/>
      <circle class="cls-76" cx="573.53" cy="381.48" r="1.18"/>
      <circle class="cls-76" cx="583.2" cy="391.12" r="1.18"/>
      <circle class="cls-76" cx="592.37" cy="400.56" r="1.18"/>
      <circle class="cls-76" cx="552.16" cy="175.93" r="1.31"/>
      <circle class="cls-76" cx="574.1" cy="176.07" r="1.31"/>
      <circle class="cls-76" cx="595.62" cy="176.07" r="1.31"/>
      <circle class="cls-76" cx="623.14" cy="161.18" r="1.31"/>
      <circle class="cls-79" cx="531.26" cy="300.96" r="6.97"/>
      <circle class="cls-80" cx="511.77" cy="265.86" r="5.8"/>
      <circle class="cls-76" cx="583.35" cy="283.22" r="4.7"/>
      <circle class="cls-76" cx="529.69" cy="317.92" r="4.7"/>
      <circle class="cls-76" cx="529.69" cy="331.18" r="4.7"/>
      <circle class="cls-76" cx="564.91" cy="302.49" r="4.7"/>
      <circle class="cls-81" cx="566.58" cy="230.81" r="4.7"/>
      <circle class="cls-76" cx="457.55" cy="301.95" r="4.7"/>
      <circle class="cls-81" cx="618.77" cy="248.24" r="4.7"/>
      <circle class="cls-76" cx="583.35" cy="248.24" r="3.02"/>
      <circle class="cls-76" cx="636.72" cy="248.3" r="3.02"/>
      <circle class="cls-76" cx="601.89" cy="248.3" r="3.02"/>
      <circle class="cls-82" cx="600.4" cy="230.48" r="3.02"/>
      <circle class="cls-76" cx="529.69" cy="176.07" r="3.02"/>
      <circle class="cls-80" cx="511.77" cy="248.44" r="5.8"/>
      <circle class="cls-80" cx="529.69" cy="230.81" r="5.8"/>
      <circle class="cls-76" cx="547.81" cy="212.19" r="3.02"/>
      <circle class="cls-76" cx="571.27" cy="272.15" r="3.02"/>
      <circle class="cls-76" cx="531.37" cy="265.76" r="3.02"/>
      <circle class="cls-76" cx="593.01" cy="293.3" r="3.02"/>
      <circle class="cls-76" cx="602.56" cy="303.12" r="3.02"/>
      <circle class="cls-76" cx="631.66" cy="332.15" r="3.02"/>
      <circle class="cls-76" cx="554.81" cy="362.58" r="3.02"/>
      <circle class="cls-76" cx="536.82" cy="344.92" r="3.02"/>
      <circle class="cls-76" cx="512.94" cy="301.95" r="3.02"/>
      <circle class="cls-76" cx="457.55" cy="265.76" r="3.02"/>
      <circle class="cls-76" cx="442.32" cy="301.95" r="3.02"/>
      <circle class="cls-76" cx="454.53" cy="359.47" r="3.02"/>
      <circle class="cls-76" cx="457.55" cy="233.84" r="3.02"/>
      <circle class="cls-76" cx="496.22" cy="265.86" r="2.58"/>
      <circle class="cls-76" cx="426.84" cy="252.33" r="2.58"/>
      <circle class="cls-82" cx="644.63" cy="275.17" r="2.58"/>
      <circle class="cls-82" cx="658.15" cy="287.7" r="2.58"/>
      <circle class="cls-82" cx="668.49" cy="298.92" r="2.58"/>
      <circle class="cls-82" cx="700.18" cy="275.17" r="2.58"/>
      <circle class="cls-76" cx="663.31" cy="223.54" r="2.58"/>
      <circle class="cls-76" cx="681.52" cy="205.16" r="2.58"/>
      <circle class="cls-76" cx="714.6" cy="172.51" r="2.58"/>
      <circle class="cls-76" cx="614.74" cy="169.51" r="2.58"/>
      <circle class="cls-76" cx="485.92" cy="202.58" r="2.58"/>
      <circle class="cls-76" cx="384.63" cy="269.19" r="2.58"/>
      <circle class="cls-76" cx="361.81" cy="247.26" r="1.18"/>
    </g>
    <rect class="cls-83" x="850.23" y="108.76" width="159.02" height="353.34"/>
    <g>
      <path class="cls-84" d="M865.91,122.54h-3.45v-.9h7.93v.9H867v8.91h-1Z"/>
      <path class="cls-84" d="M878.61,127.17v4.28h-1v-4.18a2.06,2.06,0,0,0-2.22-2.35,2.41,2.41,0,0,0-2.57,2.66v3.87h-1v-10.4h1v4.32a3.09,3.09,0,0,1,2.75-1.35A2.82,2.82,0,0,1,878.61,127.17Z"/>
      <path class="cls-84" d="M881.08,121.75a.72.72,0,0,1,.73-.7.71.71,0,0,1,.73.69.72.72,0,0,1-.73.73A.73.73,0,0,1,881.08,121.75Zm.23,2.33h1v7.37h-1Z"/>
      <path class="cls-84" d="M884.05,130.6l.45-.78a4.46,4.46,0,0,0,2.62.83c1.4,0,2-.48,2-1.21,0-1.92-4.78-.4-4.78-3.32,0-1.2,1-2.1,2.91-2.1a5,5,0,0,1,2.61.69l-.44.8a3.74,3.74,0,0,0-2.17-.63c-1.33,0-1.92.51-1.92,1.21,0,2,4.78.49,4.78,3.32,0,1.28-1.12,2.11-3,2.11A4.91,4.91,0,0,1,884.05,130.6Z"/>
      <path class="cls-84" d="M901.78,124.08l-3.28,7.37h-1l-3.26-7.37h1l2.76,6.27,2.79-6.27Z"/>
      <path class="cls-84" d="M903,121.75a.72.72,0,0,1,.73-.7.71.71,0,0,1,.73.69.72.72,0,0,1-.73.73A.73.73,0,0,1,903,121.75Zm.23,2.33h1v7.37h-1Z"/>
      <path class="cls-84" d="M913.36,128.07H907.2a2.72,2.72,0,0,0,2.9,2.56,2.91,2.91,0,0,0,2.25-1l.56.64a3.89,3.89,0,0,1-6.71-2.55,3.55,3.55,0,0,1,3.6-3.74,3.51,3.51,0,0,1,3.57,3.74C913.37,127.85,913.36,128,913.36,128.07Zm-6.16-.74h5.22a2.62,2.62,0,0,0-5.22,0Z"/>
      <path class="cls-84" d="M926.07,124.08l-2.78,7.37h-.94l-2.33-6-2.32,6h-.94L914,124.08h1l2.31,6.26,2.37-6.26h.85l2.35,6.26,2.34-6.26Z"/>
      <path class="cls-84" d="M930.21,130.6l.45-.78a4.46,4.46,0,0,0,2.62.83c1.4,0,2-.48,2-1.21,0-1.92-4.77-.4-4.77-3.32,0-1.2,1-2.1,2.91-2.1a5,5,0,0,1,2.61.69l-.44.8a3.74,3.74,0,0,0-2.17-.63c-1.33,0-1.92.51-1.92,1.21,0,2,4.78.49,4.78,3.32,0,1.28-1.12,2.11-3,2.11A4.91,4.91,0,0,1,930.21,130.6Z"/>
      <path class="cls-84" d="M944.86,127.17v4.28h-1v-4.18a2.06,2.06,0,0,0-2.21-2.35,2.42,2.42,0,0,0-2.58,2.66v3.87h-1v-10.4h1v4.32a3.12,3.12,0,0,1,2.76-1.35A2.82,2.82,0,0,1,944.86,127.17Z"/>
      <path class="cls-84" d="M946.84,127.76a3.75,3.75,0,1,1,3.76,3.76A3.63,3.63,0,0,1,946.84,127.76Zm6.49,0a2.74,2.74,0,1,0-2.73,2.87A2.69,2.69,0,0,0,953.33,127.76Z"/>
      <path class="cls-84" d="M967,124.08l-2.79,7.37h-.94l-2.32-6-2.33,6h-.94l-2.77-7.37h1l2.31,6.26,2.37-6.26h.85l2.36,6.26,2.34-6.26Z"/>
      <path class="cls-84" d="M967.35,130.6l.45-.78a4.46,4.46,0,0,0,2.62.83c1.4,0,2-.48,2-1.21,0-1.92-4.78-.4-4.78-3.32,0-1.2,1-2.1,2.91-2.1a5,5,0,0,1,2.61.69l-.44.8a3.74,3.74,0,0,0-2.17-.63c-1.33,0-1.92.51-1.92,1.21,0,2,4.78.49,4.78,3.32,0,1.28-1.12,2.11-3,2.11A4.93,4.93,0,0,1,967.35,130.6Z"/>
      <path class="cls-84" d="M870.58,144v4.27h-1v-4.17a2.06,2.06,0,0,0-2.21-2.35,2.41,2.41,0,0,0-2.58,2.66v3.86h-1V137.85h1v4.32a3.11,3.11,0,0,1,2.76-1.35A2.83,2.83,0,0,1,870.58,144Z"/>
      <path class="cls-84" d="M872.56,144.56a3.75,3.75,0,1,1,3.75,3.76A3.63,3.63,0,0,1,872.56,144.56Zm6.48,0a2.74,2.74,0,1,0-2.73,2.87A2.69,2.69,0,0,0,879,144.56Z"/>
      <path class="cls-84" d="M892.68,140.88l-2.78,7.36H889l-2.33-6-2.32,6h-.94l-2.78-7.36h1l2.31,6.26,2.37-6.26h.85l2.35,6.26,2.34-6.26Z"/>
      <path class="cls-84" d="M901.72,147.8a2.36,2.36,0,0,1-1.55.52,2,2,0,0,1-2.16-2.15v-4.45h-1.32v-.84H898v-1.61h1v1.61h2.24v.84H899v4.4a1.18,1.18,0,0,0,1.27,1.34,1.64,1.64,0,0,0,1.09-.38Z"/>
      <path class="cls-84" d="M910.31,144v4.27h-1v-4.17a2.06,2.06,0,0,0-2.21-2.35,2.42,2.42,0,0,0-2.58,2.66v3.86h-1V137.85h1v4.32a3.11,3.11,0,0,1,2.76-1.35A2.83,2.83,0,0,1,910.31,144Z"/>
      <path class="cls-84" d="M919.45,144.87h-6.16a2.72,2.72,0,0,0,2.9,2.56,2.91,2.91,0,0,0,2.25-1l.56.64a3.89,3.89,0,0,1-6.71-2.55,3.55,3.55,0,0,1,3.6-3.74,3.51,3.51,0,0,1,3.57,3.74C919.46,144.65,919.45,144.76,919.45,144.87Zm-6.16-.74h5.22a2.62,2.62,0,0,0-5.22,0Z"/>
      <path class="cls-84" d="M932.62,144.56a3.57,3.57,0,0,1-3.67,3.76,3.24,3.24,0,0,1-2.8-1.46V151h-1V140.88h1v1.45a3.21,3.21,0,0,1,2.84-1.51A3.56,3.56,0,0,1,932.62,144.56Zm-1,0a2.75,2.75,0,1,0-2.75,2.87A2.71,2.71,0,0,0,931.63,144.56Z"/>
      <path class="cls-84" d="M940.17,143.68v4.56h-.95V147.1a2.79,2.79,0,0,1-2.54,1.22c-1.67,0-2.69-.87-2.69-2.15,0-1.13.73-2.09,2.84-2.09h2.34v-.44c0-1.26-.71-1.95-2.08-1.95a3.74,3.74,0,0,0-2.45.87l-.45-.74a4.66,4.66,0,0,1,3-1C939.09,140.82,940.17,141.77,940.17,143.68Zm-1,2.35v-1.2h-2.31c-1.43,0-1.89.56-1.89,1.31s.69,1.39,1.86,1.39A2.35,2.35,0,0,0,939.17,146Z"/>
      <path class="cls-84" d="M949.72,140.88v6.47c0,2.53-1.25,3.68-3.69,3.68a5.13,5.13,0,0,1-3.43-1.13l.5-.76a4.42,4.42,0,0,0,2.9,1c1.87,0,2.72-.85,2.72-2.68v-.93a3.31,3.31,0,0,1-2.87,1.42,3.57,3.57,0,1,1,0-7.14,3.31,3.31,0,0,1,2.91,1.47v-1.41Zm-1,3.5a2.8,2.8,0,1,0-2.8,2.7A2.63,2.63,0,0,0,948.75,144.38Z"/>
      <path class="cls-84" d="M958.91,144.87h-6.16a2.72,2.72,0,0,0,2.9,2.56,2.92,2.92,0,0,0,2.26-1l.56.64a3.89,3.89,0,0,1-6.71-2.55,3.59,3.59,0,1,1,7.17,0C958.93,144.65,958.91,144.76,958.91,144.87Zm-6.16-.74H958a2.62,2.62,0,0,0-5.23,0Z"/>
      <path class="cls-84" d="M874.61,157.68l-2.79,7.37h-.94l-2.32-6-2.33,6h-.94l-2.77-7.37h1l2.31,6.26,2.37-6.26H869l2.35,6.26,2.34-6.26Z"/>
      <path class="cls-84" d="M875.15,161.36a3.75,3.75,0,1,1,3.75,3.76A3.63,3.63,0,0,1,875.15,161.36Zm6.48,0a2.74,2.74,0,1,0-2.73,2.87A2.69,2.69,0,0,0,881.63,161.36Z"/>
      <path class="cls-84" d="M891.31,157.68v7.37h-.95V163.7a2.93,2.93,0,0,1-2.65,1.42A2.85,2.85,0,0,1,884.6,162v-4.27h1v4.17a2.07,2.07,0,0,0,2.22,2.37,2.39,2.39,0,0,0,2.5-2.68v-3.86Z"/>
      <path class="cls-84" d="M894.09,154.65h1v10.4h-1Z"/>
      <path class="cls-84" d="M904.58,154.65v10.4h-1v-1.46a3.21,3.21,0,0,1-2.84,1.53,3.75,3.75,0,0,1,0-7.5,3.24,3.24,0,0,1,2.8,1.46v-4.43Zm-1,6.71a2.74,2.74,0,1,0-2.73,2.87A2.7,2.7,0,0,0,903.6,161.36Z"/>
      <path class="cls-84" d="M911,154.65h1v10.4h-1Z"/>
      <path class="cls-84" d="M914,161.36a3.75,3.75,0,1,1,3.75,3.76A3.63,3.63,0,0,1,914,161.36Zm6.49,0a2.74,2.74,0,1,0-2.74,2.87A2.69,2.69,0,0,0,920.53,161.36Z"/>
      <path class="cls-84" d="M922.82,161.36a3.75,3.75,0,1,1,3.75,3.76A3.63,3.63,0,0,1,922.82,161.36Zm6.48,0a2.74,2.74,0,1,0-2.73,2.87A2.69,2.69,0,0,0,929.3,161.36Z"/>
      <path class="cls-84" d="M935.07,161.35l-1.74,1.59v2.11h-1v-10.4h1v7l4.4-4H939l-3.15,3,3.45,4.36H938Z"/>
      <path class="cls-84" d="M950,160.48v4.57h-1V163.9a2.79,2.79,0,0,1-2.54,1.22c-1.66,0-2.69-.87-2.69-2.15,0-1.13.73-2.08,2.85-2.08H949v-.45c0-1.26-.72-1.95-2.09-1.95a3.76,3.76,0,0,0-2.45.87l-.45-.74a4.69,4.69,0,0,1,3-1C948.9,157.62,950,158.57,950,160.48Zm-1,2.35v-1.2h-2.31c-1.43,0-1.89.56-1.89,1.31s.68,1.39,1.86,1.39A2.35,2.35,0,0,0,949,162.83Z"/>
      <path class="cls-84" d="M953.82,156.81v.87h2.26v.84h-2.24v6.53h-1v-6.53h-1.32v-.84h1.32v-.91a2,2,0,0,1,2.23-2.19,2.41,2.41,0,0,1,1.47.46l-.34.75a1.67,1.67,0,0,0-1.09-.37C954.26,155.42,953.82,155.9,953.82,156.81Z"/>
      <path class="cls-84" d="M961.31,164.6a2.39,2.39,0,0,1-1.56.52,2,2,0,0,1-2.16-2.15v-4.45h-1.31v-.84h1.31v-1.61h1v1.61h2.24v.84h-2.24v4.4a1.18,1.18,0,0,0,1.27,1.34,1.62,1.62,0,0,0,1.1-.38Z"/>
      <path class="cls-84" d="M969.26,161.67H963.1a2.72,2.72,0,0,0,2.9,2.56,2.91,2.91,0,0,0,2.25-1l.56.64a3.61,3.61,0,0,1-2.84,1.21,3.65,3.65,0,0,1-3.87-3.76,3.55,3.55,0,0,1,3.6-3.74,3.51,3.51,0,0,1,3.57,3.74C969.27,161.45,969.26,161.56,969.26,161.67Zm-6.16-.74h5.22a2.62,2.62,0,0,0-5.22,0Z"/>
      <path class="cls-84" d="M975,157.62v1l-.24,0c-1.54,0-2.48,1-2.48,2.72v3.76h-1v-7.37h1v1.44A2.79,2.79,0,0,1,975,157.62Z"/>
      <path class="cls-84" d="M867.68,181.4a2.41,2.41,0,0,1-1.56.52,2,2,0,0,1-2.16-2.15v-4.45h-1.31v-.84H864v-1.61h1v1.61h2.24v.84H865v4.4a1.18,1.18,0,0,0,1.27,1.34,1.62,1.62,0,0,0,1.1-.38Z"/>
      <path class="cls-84" d="M876.26,177.57v4.28h-1v-4.18a2.06,2.06,0,0,0-2.21-2.35,2.42,2.42,0,0,0-2.58,2.66v3.87h-1v-10.4h1v4.32a3.12,3.12,0,0,1,2.76-1.35A2.82,2.82,0,0,1,876.26,177.57Z"/>
      <path class="cls-84" d="M885.4,178.47h-6.16a2.72,2.72,0,0,0,2.9,2.56,2.91,2.91,0,0,0,2.25-1l.56.64a3.89,3.89,0,0,1-6.71-2.55,3.55,3.55,0,0,1,3.6-3.74,3.51,3.51,0,0,1,3.57,3.74C885.41,178.25,885.4,178.36,885.4,178.47Zm-6.16-.74h5.22a2.62,2.62,0,0,0-5.22,0Z"/>
      <path class="cls-84" d="M897.75,174.48v7.37h-1V180.5a2.93,2.93,0,0,1-2.65,1.42,2.86,2.86,0,0,1-3.11-3.17v-4.27h1v4.17a2.07,2.07,0,0,0,2.22,2.37,2.39,2.39,0,0,0,2.5-2.68v-3.86Z"/>
      <path class="cls-84" d="M899.51,181l.45-.78a4.46,4.46,0,0,0,2.62.83c1.4,0,2-.48,2-1.21,0-1.92-4.78-.4-4.78-3.32,0-1.2,1-2.1,2.92-2.1a5,5,0,0,1,2.6.69l-.43.8a3.76,3.76,0,0,0-2.17-.63c-1.33,0-1.92.51-1.92,1.21,0,2,4.78.5,4.78,3.32,0,1.28-1.12,2.11-3,2.11A4.91,4.91,0,0,1,899.51,181Z"/>
      <path class="cls-84" d="M913.79,178.47h-6.16a2.72,2.72,0,0,0,2.9,2.56,2.9,2.9,0,0,0,2.25-1l.56.64a3.88,3.88,0,0,1-6.7-2.55,3.59,3.59,0,1,1,7.17,0C913.81,178.25,913.79,178.36,913.79,178.47Zm-6.16-.74h5.22a2.62,2.62,0,0,0-5.22,0Z"/>
      <path class="cls-84" d="M919.55,174.42v1l-.24,0c-1.54,0-2.48,1-2.48,2.72v3.76h-1v-7.37h1v1.44A2.78,2.78,0,0,1,919.55,174.42Z"/>
      <path class="cls-84" d="M930.68,177.28v4.57h-1V180.7a2.76,2.76,0,0,1-2.53,1.22c-1.67,0-2.69-.87-2.69-2.15s.73-2.08,2.84-2.08h2.34v-.45c0-1.26-.71-2-2.09-2a3.78,3.78,0,0,0-2.45.87l-.45-.74a4.71,4.71,0,0,1,3-1C929.6,174.42,930.68,175.37,930.68,177.28Zm-1,2.35v-1.2h-2.31c-1.43,0-1.89.56-1.89,1.31s.69,1.39,1.86,1.39A2.35,2.35,0,0,0,929.68,179.63Z"/>
      <path class="cls-84" d="M940.13,171.45v10.4h-1v-1.46a3.19,3.19,0,0,1-2.84,1.53,3.75,3.75,0,0,1,0-7.5,3.21,3.21,0,0,1,2.8,1.46v-4.43Zm-1,6.71a2.74,2.74,0,1,0-2.74,2.87A2.7,2.7,0,0,0,939.15,178.16Z"/>
      <path class="cls-84" d="M940.25,184.16l.35-.76a1.71,1.71,0,0,0,1.15.38c.78,0,1.22-.48,1.22-1.39v-7.91h1v7.91a2,2,0,0,1-2.16,2.24A2.41,2.41,0,0,1,940.25,184.16Zm2.49-12a.72.72,0,0,1,.73-.7.71.71,0,0,1,.73.69.73.73,0,0,1-1.46,0Z"/>
      <path class="cls-84" d="M953.37,174.48v7.37h-1V180.5a2.93,2.93,0,0,1-2.65,1.42,2.86,2.86,0,0,1-3.11-3.17v-4.27h1v4.17c0,1.57.81,2.37,2.21,2.37a2.4,2.4,0,0,0,2.51-2.68v-3.86Z"/>
      <path class="cls-84" d="M955.13,181l.45-.78a4.46,4.46,0,0,0,2.62.83c1.4,0,2-.48,2-1.21,0-1.92-4.77-.4-4.77-3.32,0-1.2,1-2.1,2.91-2.1a5,5,0,0,1,2.61.69l-.44.8a3.74,3.74,0,0,0-2.17-.63c-1.33,0-1.92.51-1.92,1.21,0,2,4.78.5,4.78,3.32,0,1.28-1.12,2.11-3,2.11A4.91,4.91,0,0,1,955.13,181Z"/>
      <path class="cls-84" d="M966.88,181.4a2.37,2.37,0,0,1-1.56.52,2,2,0,0,1-2.15-2.15v-4.45h-1.32v-.84h1.32v-1.61h1v1.61h2.24v.84h-2.24v4.4a1.18,1.18,0,0,0,1.28,1.34,1.61,1.61,0,0,0,1.09-.38Z"/>
      <path class="cls-84" d="M974.83,178.47h-6.16a2.72,2.72,0,0,0,2.9,2.56,2.9,2.9,0,0,0,2.25-1l.56.64a3.89,3.89,0,0,1-6.71-2.55,3.55,3.55,0,0,1,3.6-3.74,3.52,3.52,0,0,1,3.58,3.74C974.85,178.25,974.83,178.36,974.83,178.47Zm-6.16-.74h5.22a2.62,2.62,0,0,0-5.22,0Z"/>
      <path class="cls-84" d="M983.6,171.45v10.4h-1v-1.46a3.19,3.19,0,0,1-2.84,1.53,3.75,3.75,0,0,1,0-7.5,3.21,3.21,0,0,1,2.8,1.46v-4.43Zm-1,6.71a2.74,2.74,0,1,0-2.74,2.87A2.7,2.7,0,0,0,982.62,178.16Z"/>
      <path class="cls-84" d="M867.68,198.2a2.41,2.41,0,0,1-1.56.52,2,2,0,0,1-2.16-2.15v-4.45h-1.31v-.84H864v-1.61h1v1.61h2.24v.84H865v4.4a1.18,1.18,0,0,0,1.27,1.34,1.62,1.62,0,0,0,1.1-.38Z"/>
      <path class="cls-84" d="M876.26,194.37v4.28h-1v-4.18a2.06,2.06,0,0,0-2.21-2.35,2.42,2.42,0,0,0-2.58,2.66v3.87h-1v-10.4h1v4.32a3.12,3.12,0,0,1,2.76-1.35A2.82,2.82,0,0,1,876.26,194.37Z"/>
      <path class="cls-84" d="M885.4,195.27h-6.16a2.72,2.72,0,0,0,2.9,2.56,2.91,2.91,0,0,0,2.25-1l.56.64a3.89,3.89,0,0,1-6.71-2.55,3.55,3.55,0,0,1,3.6-3.74,3.51,3.51,0,0,1,3.57,3.74C885.41,195.05,885.4,195.16,885.4,195.27Zm-6.16-.74h5.22a2.62,2.62,0,0,0-5.22,0Z"/>
      <path class="cls-84" d="M893.5,188.18a2.42,2.42,0,0,1,1.48.46l-.34.75a1.67,1.67,0,0,0-1.09-.37c-.86,0-1.31.48-1.31,1.39v.87h2.27v.84h-2.24v6.53h-1v-6.53H890v-.84h1.32v-.91A2,2,0,0,1,893.5,188.18Zm4.71.76a.72.72,0,0,1-.73.73.73.73,0,0,1-.73-.72.72.72,0,0,1,.73-.7A.71.71,0,0,1,898.21,188.94ZM897,191.28h1v7.37h-1Z"/>
      <path class="cls-84" d="M900.74,188.25h1v10.4h-1Z"/>
      <path class="cls-84" d="M908.42,198.2a2.41,2.41,0,0,1-1.56.52,2,2,0,0,1-2.16-2.15v-4.45h-1.31v-.84h1.31v-1.61h1v1.61h2.24v.84H905.7v4.4a1.18,1.18,0,0,0,1.27,1.34,1.62,1.62,0,0,0,1.1-.38Z"/>
      <path class="cls-84" d="M916.37,195.27h-6.16a2.72,2.72,0,0,0,2.9,2.56,2.91,2.91,0,0,0,2.25-1l.56.64a3.89,3.89,0,0,1-6.71-2.55,3.55,3.55,0,0,1,3.6-3.74,3.51,3.51,0,0,1,3.57,3.74C916.38,195.05,916.37,195.16,916.37,195.27Zm-6.16-.74h5.22a2.62,2.62,0,0,0-5.22,0Z"/>
      <path class="cls-84" d="M922.12,191.22v1l-.24,0c-1.54,0-2.48,1-2.48,2.72v3.76h-1v-7.37h1v1.44A2.78,2.78,0,0,1,922.12,191.22Z"/>
      <path class="cls-84" d="M922.94,197.8l.45-.78a4.49,4.49,0,0,0,2.62.83c1.4,0,2-.48,2-1.21,0-1.92-4.78-.4-4.78-3.32,0-1.2,1-2.1,2.91-2.1a5,5,0,0,1,2.61.69l-.43.8a3.8,3.8,0,0,0-2.18-.63c-1.33,0-1.91.51-1.91,1.21,0,2,4.77.49,4.77,3.32,0,1.28-1.12,2.11-3,2.11A4.93,4.93,0,0,1,922.94,197.8Z"/>
      <path class="cls-84" d="M933.74,195a3.75,3.75,0,1,1,3.75,3.76A3.63,3.63,0,0,1,933.74,195Zm6.48,0a2.74,2.74,0,1,0-2.73,2.87A2.69,2.69,0,0,0,940.22,195Z"/>
      <path class="cls-84" d="M950,194.37v4.28h-1v-4.18a2.06,2.06,0,0,0-2.21-2.35,2.42,2.42,0,0,0-2.58,2.66v3.87h-1v-7.37h1v1.36a3.09,3.09,0,0,1,2.8-1.42A2.82,2.82,0,0,1,950,194.37Z"/>
      <path class="cls-84" d="M960.29,198.2a2.41,2.41,0,0,1-1.56.52,2,2,0,0,1-2.16-2.15v-4.45h-1.31v-.84h1.31v-1.61h1v1.61h2.24v.84h-2.24v4.4a1.18,1.18,0,0,0,1.27,1.34,1.58,1.58,0,0,0,1.09-.38Z"/>
      <path class="cls-84" d="M968.87,194.37v4.28h-1v-4.18a2.06,2.06,0,0,0-2.21-2.35,2.42,2.42,0,0,0-2.58,2.66v3.87h-1v-10.4h1v4.32a3.12,3.12,0,0,1,2.76-1.35A2.82,2.82,0,0,1,968.87,194.37Z"/>
      <path class="cls-84" d="M978,195.27h-6.16a2.72,2.72,0,0,0,2.9,2.56,2.91,2.91,0,0,0,2.25-1l.56.64a3.89,3.89,0,0,1-6.71-2.55,3.55,3.55,0,0,1,3.6-3.74A3.52,3.52,0,0,1,978,195C978,195.05,978,195.16,978,195.27Zm-6.16-.74h5.22a2.62,2.62,0,0,0-5.22,0Z"/>
      <path class="cls-84" d="M863.8,205.05h1v10.4h-1Z"/>
      <path class="cls-84" d="M874,212.07h-6.17a2.73,2.73,0,0,0,2.9,2.56,2.92,2.92,0,0,0,2.26-1l.56.64a3.89,3.89,0,0,1-6.71-2.55,3.55,3.55,0,0,1,3.6-3.74,3.51,3.51,0,0,1,3.57,3.74C874,211.85,874,212,874,212.07Zm-6.17-.74H873a2.62,2.62,0,0,0-5.23,0Z"/>
      <path class="cls-84" d="M877.15,207.21v.87h2.27v.84h-2.24v6.53h-1v-6.53h-1.32v-.84h1.32v-.91a2,2,0,0,1,2.22-2.19,2.37,2.37,0,0,1,1.47.46l-.33.75a1.7,1.7,0,0,0-1.1-.37C877.6,205.82,877.15,206.3,877.15,207.21Z"/>
      <path class="cls-84" d="M884.64,215a2.36,2.36,0,0,1-1.55.52,2,2,0,0,1-2.16-2.15v-4.45h-1.32v-.84h1.32v-1.61h1v1.61h2.24v.84h-2.24v4.4a1.18,1.18,0,0,0,1.27,1.34,1.64,1.64,0,0,0,1.09-.38Z"/>
      <path class="cls-84" d="M885.94,214.74a.75.75,0,0,1,1.5,0,.75.75,0,1,1-1.5,0Z"/>
      <path class="cls-84" d="M895.34,206.54h-3.45v-.9h7.93v.9h-3.45v8.91h-1Z"/>
      <path class="cls-84" d="M908,211.17v4.28h-1v-4.18a2.06,2.06,0,0,0-2.21-2.35,2.42,2.42,0,0,0-2.58,2.66v3.87h-1v-10.4h1v4.32A3.12,3.12,0,0,1,905,208,2.82,2.82,0,0,1,908,211.17Z"/>
      <path class="cls-84" d="M917.18,212.07H911a2.72,2.72,0,0,0,2.9,2.56,2.91,2.91,0,0,0,2.25-1l.56.64a3.89,3.89,0,0,1-6.71-2.55,3.55,3.55,0,0,1,3.6-3.74,3.51,3.51,0,0,1,3.57,3.74C917.19,211.85,917.18,212,917.18,212.07Zm-6.16-.74h5.22a2.62,2.62,0,0,0-5.22,0Z"/>
      <path class="cls-84" d="M924.7,207.49h-3.14v-1.85h8.54v1.85H927v8H924.7Z"/>
      <path class="cls-84" d="M929.83,211.68a4.15,4.15,0,1,1,4.15,3.88A3.88,3.88,0,0,1,929.83,211.68Zm6.07,0a1.93,1.93,0,1,0-1.92,2.08A1.9,1.9,0,0,0,935.9,211.68Z"/>
      <path class="cls-84" d="M944.42,215.08a3.13,3.13,0,0,1-1.78.48,2.48,2.48,0,0,1-2.81-2.71v-3.09h-1.16v-1.68h1.16v-1.84H942v1.84h1.88v1.68H942v3.07a.88.88,0,0,0,.94,1,1.47,1.47,0,0,0,.88-.28Z"/>
      <path class="cls-84" d="M952.32,211.14v4.31h-2.05v-.94a2.47,2.47,0,0,1-2.29,1.05c-1.77,0-2.82-1-2.82-2.29s.94-2.25,3.24-2.25h1.73c0-.94-.56-1.49-1.73-1.49a3.63,3.63,0,0,0-2.17.7l-.79-1.52a5.8,5.8,0,0,1,3.25-.91C951,207.8,952.32,208.86,952.32,211.14Zm-2.19,1.92v-.77h-1.49c-1,0-1.35.38-1.35.89s.46.91,1.23.91A1.61,1.61,0,0,0,950.13,213.06Z"/>
      <path class="cls-84" d="M954.29,205.05h2.18v10.4h-2.18Z"/>
      <path class="cls-84" d="M970.14,205.05v10.4h-2.09v-.87a2.88,2.88,0,0,1-2.35,1,3.88,3.88,0,0,1,0-7.76,2.89,2.89,0,0,1,2.26.91v-3.66ZM968,211.68a1.93,1.93,0,1,0-1.92,2.08A1.91,1.91,0,0,0,968,211.68Z"/>
      <path class="cls-84" d="M978.82,211.14v4.31h-2v-.94a2.49,2.49,0,0,1-2.3,1.05c-1.77,0-2.82-1-2.82-2.29s.94-2.25,3.24-2.25h1.74c0-.94-.56-1.49-1.74-1.49a3.63,3.63,0,0,0-2.17.7l-.79-1.52a5.8,5.8,0,0,1,3.25-.91C977.49,207.8,978.82,208.86,978.82,211.14Zm-2.18,1.92v-.77h-1.5c-1,0-1.35.38-1.35.89s.46.91,1.23.91A1.63,1.63,0,0,0,976.64,213.06Z"/>
      <path class="cls-84" d="M980.52,205.64a1.25,1.25,0,0,1,1.36-1.22,1.23,1.23,0,0,1,1.36,1.18,1.37,1.37,0,0,1-2.72,0Zm.27,2.27H983v7.54h-2.19Z"/>
      <path class="cls-84" d="M985,205.05h2.18v10.4H985Z"/>
      <path class="cls-84" d="M996.7,207.91l-3.4,8c-.73,1.82-1.77,2.36-3.13,2.36a3.37,3.37,0,0,1-2.1-.68l.8-1.56a1.9,1.9,0,0,0,1.23.48c.6,0,.94-.27,1.23-.94l0-.07-3.26-7.59h2.25l2.12,5.11,2.13-5.11Z"/>
      <path class="cls-84" d="M868.1,224.6v2l-.49,0a1.85,1.85,0,0,0-2,2.1v3.55h-2.18v-7.53h2.08v1A3.08,3.08,0,0,1,868.1,224.6Z"/>
      <path class="cls-84" d="M869.13,222.44a1.25,1.25,0,0,1,1.36-1.22,1.23,1.23,0,0,1,1.36,1.18,1.37,1.37,0,0,1-2.72,0Zm.26,2.27h2.19v7.53h-2.19Z"/>
      <path class="cls-84" d="M881.29,221.85v10.39H879.2v-.86a2.94,2.94,0,0,1-2.36,1,3.88,3.88,0,0,1,0-7.76,2.89,2.89,0,0,1,2.26.91v-3.66Zm-2.15,6.63a1.93,1.93,0,1,0-1.92,2.08A1.91,1.91,0,0,0,879.14,228.48Z"/>
      <path class="cls-84" d="M890.64,229.09h-5.7a2,2,0,0,0,2.15,1.52,2.54,2.54,0,0,0,1.89-.73l1.17,1.26a3.94,3.94,0,0,1-3.11,1.22c-2.61,0-4.3-1.64-4.3-3.88a3.83,3.83,0,0,1,4-3.88,3.73,3.73,0,0,1,3.92,3.9C890.68,228.67,890.65,228.91,890.64,229.09Zm-5.73-1.27h3.71a1.88,1.88,0,0,0-3.71,0Z"/>
      <path class="cls-84" d="M896.81,224.6v2l-.49,0a1.84,1.84,0,0,0-2,2.1v3.55h-2.19v-7.53h2.09v1A3.06,3.06,0,0,1,896.81,224.6Z"/>
      <path class="cls-84" d="M897.41,231.54l.73-1.56a5.17,5.17,0,0,0,2.62.72c1,0,1.38-.26,1.38-.68,0-1.24-4.55,0-4.55-3,0-1.42,1.29-2.43,3.49-2.43a6.21,6.21,0,0,1,2.9.65l-.73,1.56a4.31,4.31,0,0,0-2.17-.56c-1,0-1.4.31-1.4.7,0,1.29,4.55,0,4.55,3,0,1.4-1.3,2.4-3.56,2.4A6.39,6.39,0,0,1,897.41,231.54Z"/>
      <path class="cls-84" d="M913.28,227.93v4.31h-2.19v-4c0-1.22-.56-1.78-1.53-1.78s-1.8.64-1.8,2v3.72h-2.19V221.85h2.19v3.64a3.3,3.3,0,0,1,2.39-.89C911.93,224.6,913.28,225.63,913.28,227.93Z"/>
      <path class="cls-84" d="M915,222.44a1.25,1.25,0,0,1,1.36-1.22,1.23,1.23,0,0,1,1.36,1.18,1.37,1.37,0,0,1-2.72,0Zm.27,2.27h2.18v7.53h-2.18Z"/>
      <path class="cls-84" d="M927.67,228.48a3.67,3.67,0,0,1-3.76,3.88,3,3,0,0,1-2.27-.91V235h-2.18V224.71h2.09v.87a2.91,2.91,0,0,1,2.36-1A3.66,3.66,0,0,1,927.67,228.48Zm-2.22,0a1.92,1.92,0,1,0-1.91,2.08A1.9,1.9,0,0,0,925.45,228.48Z"/>
      <path class="cls-84" d="M940.28,224.88v6.47c0,2.53-1.25,3.68-3.68,3.68a5.14,5.14,0,0,1-3.44-1.13l.51-.76a4.38,4.38,0,0,0,2.9,1c1.86,0,2.72-.85,2.72-2.68v-.93a3.34,3.34,0,0,1-2.88,1.42,3.57,3.57,0,1,1,0-7.14,3.32,3.32,0,0,1,2.92,1.47v-1.41Zm-1,3.5a2.8,2.8,0,1,0-2.8,2.7A2.63,2.63,0,0,0,939.31,228.38Z"/>
      <path class="cls-84" d="M946.77,224.82v1l-.23,0c-1.54,0-2.48,1-2.48,2.72v3.75h-1v-7.36h1v1.44A2.77,2.77,0,0,1,946.77,224.82Z"/>
      <path class="cls-84" d="M954.11,227.68v4.56h-1V231.1a2.79,2.79,0,0,1-2.54,1.22c-1.66,0-2.69-.87-2.69-2.15,0-1.13.73-2.09,2.85-2.09h2.34v-.44c0-1.26-.72-1.95-2.09-1.95a3.76,3.76,0,0,0-2.45.87l-.45-.74a4.69,4.69,0,0,1,3-1C953,224.82,954.11,225.77,954.11,227.68Zm-1,2.35v-1.2h-2.31c-1.43,0-1.9.56-1.9,1.31s.69,1.39,1.87,1.39A2.36,2.36,0,0,0,953.12,230Z"/>
      <path class="cls-84" d="M964.28,228.56a3.57,3.57,0,0,1-3.67,3.76,3.21,3.21,0,0,1-2.8-1.46V235h-1V224.88h1v1.45a3.23,3.23,0,0,1,2.85-1.51A3.56,3.56,0,0,1,964.28,228.56Zm-1,0a2.75,2.75,0,1,0-2.74,2.87A2.71,2.71,0,0,0,963.28,228.56Z"/>
      <path class="cls-84" d="M973.08,228v4.27h-1v-4.17a2.06,2.06,0,0,0-2.22-2.35,2.41,2.41,0,0,0-2.57,2.66v3.86h-1V221.85h1v4.32a3.09,3.09,0,0,1,2.76-1.35A2.82,2.82,0,0,1,973.08,228Z"/>
      <path class="cls-84" d="M975.56,222.55a.73.73,0,0,1,1.45,0,.73.73,0,1,1-1.45,0Zm.22,2.33h1v7.36h-1Z"/>
      <path class="cls-84" d="M978.8,228.56a3.63,3.63,0,0,1,3.8-3.74,3.22,3.22,0,0,1,2.89,1.46l-.75.5a2.5,2.5,0,0,0-2.14-1.09,2.87,2.87,0,0,0,0,5.74,2.47,2.47,0,0,0,2.14-1.08l.75.51a3.26,3.26,0,0,1-2.89,1.46A3.65,3.65,0,0,1,978.8,228.56Z"/>
      <path class="cls-84" d="M874.61,241.68l-2.79,7.37h-.94l-2.32-6-2.33,6h-.94l-2.77-7.37h1l2.31,6.26,2.37-6.26H869l2.35,6.26,2.34-6.26Z"/>
      <path class="cls-84" d="M875.15,245.36a3.75,3.75,0,1,1,3.75,3.76A3.63,3.63,0,0,1,875.15,245.36Zm6.48,0a2.74,2.74,0,1,0-2.73,2.87A2.69,2.69,0,0,0,881.63,245.36Z"/>
      <path class="cls-84" d="M891.31,241.68v7.37h-.95V247.7a2.93,2.93,0,0,1-2.65,1.42A2.85,2.85,0,0,1,884.6,246v-4.27h1v4.17a2.07,2.07,0,0,0,2.22,2.37,2.39,2.39,0,0,0,2.5-2.68v-3.86Z"/>
      <path class="cls-84" d="M894.09,238.65h1v10.4h-1Z"/>
      <path class="cls-84" d="M904.58,238.65v10.4h-1v-1.46a3.21,3.21,0,0,1-2.84,1.53,3.75,3.75,0,0,1,0-7.5,3.24,3.24,0,0,1,2.8,1.46v-4.43Zm-1,6.71a2.74,2.74,0,1,0-2.73,2.87A2.7,2.7,0,0,0,903.6,245.36Z"/>
      <path class="cls-84" d="M916.58,244.48v4.57h-1V247.9a2.79,2.79,0,0,1-2.54,1.22c-1.67,0-2.69-.87-2.69-2.15,0-1.13.73-2.08,2.84-2.08h2.34v-.45c0-1.26-.71-1.95-2.08-1.95a3.79,3.79,0,0,0-2.46.87l-.44-.74a4.66,4.66,0,0,1,3-1C915.5,241.62,916.58,242.57,916.58,244.48Zm-1,2.35v-1.2h-2.31c-1.43,0-1.89.56-1.89,1.31s.69,1.39,1.86,1.39A2.35,2.35,0,0,0,915.58,246.83Z"/>
      <path class="cls-84" d="M925.92,241.68v7.37h-1V247.7a2.91,2.91,0,0,1-2.64,1.42,2.85,2.85,0,0,1-3.11-3.17v-4.27h1v4.17c0,1.57.81,2.37,2.21,2.37a2.4,2.4,0,0,0,2.51-2.68v-3.86Z"/>
      <path class="cls-84" d="M932.58,248.6a2.37,2.37,0,0,1-1.56.52,2,2,0,0,1-2.15-2.15v-4.45h-1.32v-.84h1.32v-1.61h1v1.61h2.24v.84h-2.24v4.4a1.18,1.18,0,0,0,1.28,1.34,1.61,1.61,0,0,0,1.09-.38Z"/>
      <path class="cls-84" d="M933.37,245.36a3.75,3.75,0,1,1,3.76,3.76A3.63,3.63,0,0,1,933.37,245.36Zm6.49,0a2.74,2.74,0,1,0-2.73,2.87A2.69,2.69,0,0,0,939.86,245.36Z"/>
      <path class="cls-84" d="M955.05,244.77v4.28h-1v-4.18c0-1.55-.79-2.35-2.12-2.35a2.36,2.36,0,0,0-2.46,2.66v3.87h-1v-4.18c0-1.55-.78-2.35-2.13-2.35a2.37,2.37,0,0,0-2.46,2.66v3.87h-1v-7.37h1V243a3,3,0,0,1,2.7-1.4,2.65,2.65,0,0,1,2.62,1.56,3.19,3.19,0,0,1,2.91-1.56C953.88,241.62,955.05,242.66,955.05,244.77Z"/>
      <path class="cls-84" d="M963.31,244.48v4.57h-.95V247.9a2.79,2.79,0,0,1-2.54,1.22c-1.67,0-2.69-.87-2.69-2.15,0-1.13.73-2.08,2.85-2.08h2.33v-.45c0-1.26-.71-1.95-2.08-1.95a3.76,3.76,0,0,0-2.45.87l-.45-.74a4.67,4.67,0,0,1,3-1C962.23,241.62,963.31,242.57,963.31,244.48Zm-1,2.35v-1.2H960c-1.42,0-1.89.56-1.89,1.31s.69,1.39,1.87,1.39A2.34,2.34,0,0,0,962.31,246.83Z"/>
      <path class="cls-84" d="M969.89,248.6a2.37,2.37,0,0,1-1.56.52,2,2,0,0,1-2.15-2.15v-4.45h-1.32v-.84h1.32v-1.61h1v1.61h2.24v.84h-2.24v4.4a1.18,1.18,0,0,0,1.28,1.34,1.61,1.61,0,0,0,1.09-.38Z"/>
      <path class="cls-84" d="M971.47,239.35a.73.73,0,1,1,.73.72A.73.73,0,0,1,971.47,239.35Zm.22,2.33h1v7.37h-1Z"/>
      <path class="cls-84" d="M974.72,245.36a3.62,3.62,0,0,1,3.79-3.74,3.22,3.22,0,0,1,2.89,1.46l-.74.5a2.52,2.52,0,0,0-2.15-1.09,2.87,2.87,0,0,0,0,5.74,2.49,2.49,0,0,0,2.15-1.08l.74.51a3.26,3.26,0,0,1-2.89,1.46A3.64,3.64,0,0,1,974.72,245.36Z"/>
      <path class="cls-84" d="M988.9,244.48v4.57H988V247.9a2.79,2.79,0,0,1-2.54,1.22c-1.66,0-2.69-.87-2.69-2.15,0-1.13.73-2.08,2.85-2.08h2.34v-.45c0-1.26-.72-1.95-2.09-1.95a3.76,3.76,0,0,0-2.45.87l-.45-.74a4.69,4.69,0,0,1,3-1C987.82,241.62,988.9,242.57,988.9,244.48Zm-1,2.35v-1.2H985.6c-1.43,0-1.9.56-1.9,1.31s.69,1.39,1.87,1.39A2.36,2.36,0,0,0,987.91,246.83Z"/>
      <path class="cls-84" d="M991.6,238.65h1v10.4h-1Z"/>
      <path class="cls-84" d="M994.82,244.82h3.67v.86h-3.67Z"/>
      <path class="cls-84" d="M863.8,255.45h1v10.4h-1Z"/>
      <path class="cls-84" d="M873.75,258.48l-3.68,8.25c-.62,1.44-1.4,1.9-2.45,1.9a2.53,2.53,0,0,1-1.8-.67l.47-.74a1.84,1.84,0,0,0,1.34.56c.66,0,1.11-.31,1.53-1.23l.32-.72-3.29-7.35h1l2.77,6.26,2.77-6.26Z"/>
      <path class="cls-84" d="M884.38,261.28v4.57h-1V264.7a2.79,2.79,0,0,1-2.54,1.22c-1.67,0-2.69-.87-2.69-2.15,0-1.13.73-2.08,2.84-2.08h2.34v-.45c0-1.26-.71-1.95-2.08-1.95a3.74,3.74,0,0,0-2.45.87l-.45-.74a4.66,4.66,0,0,1,3-1C883.3,258.42,884.38,259.37,884.38,261.28Zm-1,2.35v-1.2h-2.31c-1.43,0-1.89.56-1.89,1.31s.69,1.39,1.86,1.39A2.35,2.35,0,0,0,883.38,263.63Z"/>
      <path class="cls-84" d="M893.83,255.45v10.4h-1v-1.46a3.22,3.22,0,0,1-2.85,1.53,3.75,3.75,0,0,1,0-7.5,3.21,3.21,0,0,1,2.8,1.46v-4.43Zm-1,6.71a2.74,2.74,0,1,0-2.73,2.87A2.7,2.7,0,0,0,892.85,262.16Z"/>
      <path class="cls-84" d="M894,268.16l.35-.76a1.73,1.73,0,0,0,1.15.38c.78,0,1.22-.48,1.22-1.39v-7.91h1v7.91a2,2,0,0,1-2.16,2.24A2.43,2.43,0,0,1,894,268.16Zm2.49-12a.72.72,0,0,1,.73-.7.71.71,0,0,1,.73.69.73.73,0,0,1-1.46,0Z"/>
      <path class="cls-84" d="M907.07,258.48v7.37h-1V264.5a2.93,2.93,0,0,1-2.65,1.42,2.86,2.86,0,0,1-3.11-3.17v-4.27h1v4.17c0,1.57.81,2.37,2.21,2.37a2.4,2.4,0,0,0,2.51-2.68v-3.86Z"/>
      <path class="cls-84" d="M908.83,265l.45-.78a4.46,4.46,0,0,0,2.62.83c1.4,0,2-.48,2-1.21,0-1.92-4.77-.4-4.77-3.32,0-1.2,1-2.1,2.91-2.1a5,5,0,0,1,2.61.69l-.44.8a3.74,3.74,0,0,0-2.17-.63c-1.33,0-1.92.51-1.92,1.21,0,2,4.78.5,4.78,3.32,0,1.28-1.12,2.11-3,2.11A4.91,4.91,0,0,1,908.83,265Z"/>
      <path class="cls-84" d="M920.58,265.4a2.36,2.36,0,0,1-1.55.52,2,2,0,0,1-2.16-2.15v-4.45h-1.32v-.84h1.32v-1.61h1v1.61h2.24v.84h-2.24v4.4a1.18,1.18,0,0,0,1.28,1.34,1.61,1.61,0,0,0,1.09-.38Z"/>
      <path class="cls-84" d="M929.93,265.4a2.36,2.36,0,0,1-1.55.52,2,2,0,0,1-2.16-2.15v-4.45H924.9v-.84h1.32v-1.61h1v1.61h2.24v.84h-2.24v4.4a1.18,1.18,0,0,0,1.27,1.34,1.59,1.59,0,0,0,1.09-.38Z"/>
      <path class="cls-84" d="M938.52,261.57v4.28h-1v-4.18a2.06,2.06,0,0,0-2.21-2.35,2.42,2.42,0,0,0-2.58,2.66v3.87h-1v-10.4h1v4.32a3.11,3.11,0,0,1,2.76-1.35A2.83,2.83,0,0,1,938.52,261.57Z"/>
      <path class="cls-84" d="M947.66,262.47H941.5a2.72,2.72,0,0,0,2.89,2.56,2.92,2.92,0,0,0,2.26-1l.56.64a3.89,3.89,0,0,1-6.71-2.55,3.55,3.55,0,0,1,3.6-3.74,3.51,3.51,0,0,1,3.57,3.74C947.67,262.25,947.66,262.36,947.66,262.47Zm-6.16-.74h5.22a2.62,2.62,0,0,0-5.22,0Z"/>
      <path class="cls-84" d="M958.06,265.85l-2.34-3.09-2.35,3.09h-1.12l2.91-3.79-2.77-3.58h1.12l2.21,2.88,2.21-2.88H959l-2.78,3.58,2.94,3.79Z"/>
      <path class="cls-84" d="M960,261.61h3.67v.87H960Z"/>
      <path class="cls-84" d="M975.11,261.28v4.57h-1V264.7a2.79,2.79,0,0,1-2.54,1.22c-1.66,0-2.69-.87-2.69-2.15,0-1.13.73-2.08,2.85-2.08h2.34v-.45c0-1.26-.72-1.95-2.09-1.95a3.76,3.76,0,0,0-2.45.87l-.45-.74a4.69,4.69,0,0,1,3-1C974,258.42,975.11,259.37,975.11,261.28Zm-1,2.35v-1.2h-2.31c-1.43,0-1.9.56-1.9,1.31s.69,1.39,1.87,1.39A2.36,2.36,0,0,0,974.12,263.63Z"/>
      <path class="cls-84" d="M984.59,261.57v4.28h-1v-4.18a2.06,2.06,0,0,0-2.22-2.35,2.41,2.41,0,0,0-2.57,2.66v3.87h-1v-7.37h1v1.36a3.1,3.1,0,0,1,2.8-1.42A2.82,2.82,0,0,1,984.59,261.57Z"/>
      <path class="cls-84" d="M994,255.45v10.4h-.95v-1.46a3.21,3.21,0,0,1-2.85,1.53,3.75,3.75,0,0,1,0-7.5,3.24,3.24,0,0,1,2.81,1.46v-4.43Zm-1,6.71a2.74,2.74,0,1,0-2.73,2.87A2.7,2.7,0,0,0,993.06,262.16Z"/>
      <path class="cls-84" d="M870,275.28l-3.69,8.25c-.61,1.44-1.4,1.9-2.45,1.9a2.5,2.5,0,0,1-1.79-.67l.46-.74a1.85,1.85,0,0,0,1.35.56c.65,0,1.1-.31,1.52-1.23l.32-.72-3.29-7.35h1l2.77,6.26,2.78-6.26Z"/>
      <path class="cls-84" d="M870.67,278.41h3.67v.87h-3.67Z"/>
      <path class="cls-84" d="M882.12,278.08v4.57h-1V281.5a2.78,2.78,0,0,1-2.53,1.22c-1.67,0-2.69-.87-2.69-2.15,0-1.13.73-2.08,2.84-2.08h2.34V278c0-1.26-.72-2-2.09-2a3.76,3.76,0,0,0-2.45.87l-.45-.74a4.71,4.71,0,0,1,3-1C881.05,275.22,882.12,276.17,882.12,278.08Zm-1,2.35v-1.2h-2.31c-1.43,0-1.89.56-1.89,1.31s.68,1.39,1.86,1.39A2.35,2.35,0,0,0,881.13,280.43Z"/>
      <path class="cls-84" d="M889.52,282.65l-2.34-3.09-2.36,3.09H883.7l2.92-3.79-2.78-3.58H885l2.22,2.88,2.21-2.88h1.09l-2.77,3.58,2.94,3.79Z"/>
      <path class="cls-84" d="M898.45,279.27h-6.17a2.73,2.73,0,0,0,2.9,2.56,2.92,2.92,0,0,0,2.26-1l.56.64a3.89,3.89,0,0,1-6.71-2.55,3.55,3.55,0,0,1,3.6-3.74,3.51,3.51,0,0,1,3.57,3.74C898.46,279.05,898.45,279.16,898.45,279.27Zm-6.17-.74h5.23a2.62,2.62,0,0,0-5.23,0Z"/>
      <path class="cls-84" d="M899.47,281.8l.44-.78a4.49,4.49,0,0,0,2.62.83c1.4,0,2-.48,2-1.21,0-1.92-4.78-.4-4.78-3.32,0-1.2,1-2.1,2.92-2.1a5,5,0,0,1,2.6.69l-.43.8a3.79,3.79,0,0,0-2.17-.63c-1.33,0-1.92.51-1.92,1.21,0,2,4.77.49,4.77,3.32,0,1.28-1.12,2.11-3,2.11A4.9,4.9,0,0,1,899.47,281.8Z"/>
      <path class="cls-84" d="M916.56,278.08v4.57h-.95V281.5a2.78,2.78,0,0,1-2.53,1.22c-1.67,0-2.69-.87-2.69-2.15,0-1.13.73-2.08,2.84-2.08h2.34V278c0-1.26-.72-2-2.09-2A3.76,3.76,0,0,0,911,277l-.45-.74a4.71,4.71,0,0,1,3-1C915.49,275.22,916.56,276.17,916.56,278.08Zm-1,2.35v-1.2h-2.31c-1.43,0-1.89.56-1.89,1.31s.68,1.39,1.86,1.39A2.35,2.35,0,0,0,915.57,280.43Z"/>
      <path class="cls-84" d="M918.24,281.8l.45-.78a4.46,4.46,0,0,0,2.62.83c1.4,0,2-.48,2-1.21,0-1.92-4.77-.4-4.77-3.32,0-1.2,1-2.1,2.91-2.1a5,5,0,0,1,2.61.69l-.44.8a3.74,3.74,0,0,0-2.17-.63c-1.33,0-1.92.51-1.92,1.21,0,2,4.78.49,4.78,3.32,0,1.28-1.12,2.11-3,2.11A4.91,4.91,0,0,1,918.24,281.8Z"/>
      <path class="cls-84" d="M940.59,275.28l-2.79,7.37h-.94l-2.32-6-2.33,6h-.93l-2.78-7.37h1l2.32,6.26,2.36-6.26H935l2.35,6.26,2.34-6.26Z"/>
      <path class="cls-84" d="M948.29,279.27h-6.17a2.73,2.73,0,0,0,2.9,2.56,2.92,2.92,0,0,0,2.26-1l.56.64a3.89,3.89,0,0,1-6.71-2.55,3.55,3.55,0,0,1,3.6-3.74A3.51,3.51,0,0,1,948.3,279C948.3,279.05,948.29,279.16,948.29,279.27Zm-6.17-.74h5.23a2.62,2.62,0,0,0-5.23,0Z"/>
      <path class="cls-84" d="M950.33,272.25h1v10.4h-1Z"/>
      <path class="cls-84" d="M954.1,272.25h1v10.4h-1Z"/>
      <path class="cls-84" d="M967.09,278.08v4.57h-1V281.5a2.79,2.79,0,0,1-2.54,1.22c-1.66,0-2.69-.87-2.69-2.15,0-1.13.73-2.08,2.85-2.08h2.34V278c0-1.26-.72-2-2.09-2a3.76,3.76,0,0,0-2.45.87l-.45-.74a4.67,4.67,0,0,1,3-1C966,275.22,967.09,276.17,967.09,278.08Zm-1,2.35v-1.2h-2.32c-1.42,0-1.89.56-1.89,1.31s.69,1.39,1.87,1.39A2.36,2.36,0,0,0,966.1,280.43Z"/>
      <path class="cls-84" d="M968.77,281.8l.44-.78a4.49,4.49,0,0,0,2.62.83c1.4,0,2-.48,2-1.21,0-1.92-4.78-.4-4.78-3.32,0-1.2,1-2.1,2.92-2.1a5,5,0,0,1,2.6.69l-.43.8a3.79,3.79,0,0,0-2.17-.63c-1.33,0-1.92.51-1.92,1.21,0,2,4.77.49,4.77,3.32,0,1.28-1.12,2.11-3,2.11A4.9,4.9,0,0,1,968.77,281.8Z"/>
      <path class="cls-84" d="M866.19,289a2.37,2.37,0,0,1,1.47.46l-.33.75a1.7,1.7,0,0,0-1.1-.37c-.85,0-1.3.48-1.3,1.39v.87h2.27v.84H865v6.53h-1v-6.53h-1.31v-.84H864v-.91A2,2,0,0,1,866.19,289Zm4.71.76a.73.73,0,1,1-.73-.69A.71.71,0,0,1,870.9,289.74Zm-1.24,2.34h1v7.37h-1Z"/>
      <path class="cls-84" d="M873.43,289.05h1v10.4h-1Z"/>
      <path class="cls-84" d="M881.1,299a2.36,2.36,0,0,1-1.55.52,2,2,0,0,1-2.16-2.15v-4.45h-1.32v-.84h1.32v-1.61h1v1.61h2.24v.84h-2.24v4.4a1.18,1.18,0,0,0,1.28,1.34,1.66,1.66,0,0,0,1.09-.38Z"/>
      <path class="cls-84" d="M889.06,296.07h-6.17a2.72,2.72,0,0,0,2.9,2.56,2.92,2.92,0,0,0,2.26-1l.56.64a3.89,3.89,0,0,1-6.71-2.55,3.59,3.59,0,1,1,7.17,0C889.07,295.85,889.06,296,889.06,296.07Zm-6.17-.74h5.23a2.62,2.62,0,0,0-5.23,0Z"/>
      <path class="cls-84" d="M894.81,292v1l-.24,0c-1.54,0-2.48,1-2.48,2.72v3.76h-1v-7.37h.95v1.44A2.78,2.78,0,0,1,894.81,292Z"/>
      <path class="cls-84" d="M904.26,299a2.37,2.37,0,0,1-1.56.52,2,2,0,0,1-2.15-2.15v-4.45h-1.32v-.84h1.32v-1.61h1v1.61h2.24v.84h-2.24v4.4a1.18,1.18,0,0,0,1.27,1.34,1.67,1.67,0,0,0,1.1-.38Z"/>
      <path class="cls-84" d="M905.05,295.76a3.75,3.75,0,1,1,3.76,3.76A3.63,3.63,0,0,1,905.05,295.76Zm6.49,0a2.74,2.74,0,1,0-2.73,2.87A2.69,2.69,0,0,0,911.54,295.76Z"/>
      <path class="cls-84" d="M917.22,298.6l.45-.78a4.46,4.46,0,0,0,2.62.83c1.4,0,2-.48,2-1.21,0-1.92-4.78-.4-4.78-3.32,0-1.2,1-2.1,2.92-2.1a5,5,0,0,1,2.6.69l-.43.8a3.76,3.76,0,0,0-2.17-.63c-1.33,0-1.92.51-1.92,1.21,0,2,4.78.49,4.78,3.32,0,1.28-1.12,2.11-3,2.11A4.91,4.91,0,0,1,917.22,298.6Z"/>
      <path class="cls-84" d="M931.5,296.07h-6.16a2.72,2.72,0,0,0,2.9,2.56,2.9,2.9,0,0,0,2.25-1l.56.64a3.88,3.88,0,0,1-6.7-2.55,3.59,3.59,0,1,1,7.17,0C931.52,295.85,931.5,296,931.5,296.07Zm-6.16-.74h5.22a2.62,2.62,0,0,0-5.22,0Z"/>
      <path class="cls-84" d="M933.54,289.05h1v10.4h-1Z"/>
      <path class="cls-84" d="M943.72,296.07h-6.16a2.72,2.72,0,0,0,2.9,2.56,2.92,2.92,0,0,0,2.26-1l.56.64a3.89,3.89,0,0,1-6.71-2.55,3.59,3.59,0,1,1,7.17,0C943.74,295.85,943.72,296,943.72,296.07Zm-6.16-.74h5.23a2.62,2.62,0,0,0-5.23,0Z"/>
      <path class="cls-84" d="M945,295.76a3.63,3.63,0,0,1,3.8-3.74,3.19,3.19,0,0,1,2.88,1.46l-.74.5a2.5,2.5,0,0,0-2.14-1.09,2.87,2.87,0,0,0,0,5.74,2.47,2.47,0,0,0,2.14-1.08l.74.51a3.23,3.23,0,0,1-2.88,1.46A3.65,3.65,0,0,1,945,295.76Z"/>
      <path class="cls-84" d="M957.61,299a2.36,2.36,0,0,1-1.55.52,2,2,0,0,1-2.16-2.15v-4.45h-1.32v-.84h1.32v-1.61h1v1.61h2.25v.84h-2.25v4.4a1.18,1.18,0,0,0,1.28,1.34,1.64,1.64,0,0,0,1.09-.38Z"/>
      <path class="cls-84" d="M965.56,296.07H959.4a2.72,2.72,0,0,0,2.9,2.56,2.92,2.92,0,0,0,2.26-1l.56.64a3.89,3.89,0,0,1-6.71-2.55,3.59,3.59,0,1,1,7.17,0C965.58,295.85,965.56,296,965.56,296.07Zm-6.16-.74h5.23a2.62,2.62,0,0,0-5.23,0Z"/>
      <path class="cls-84" d="M974.33,289.05v10.4h-1V298a3.22,3.22,0,0,1-2.85,1.53,3.75,3.75,0,0,1,0-7.5,3.21,3.21,0,0,1,2.8,1.46v-4.43Zm-1,6.71a2.74,2.74,0,1,0-2.73,2.87A2.7,2.7,0,0,0,973.35,295.76Z"/>
      <path class="cls-84" d="M863.8,305.85h1v10.39h-1Z"/>
      <path class="cls-84" d="M867.34,306.55a.72.72,0,0,1,.73-.7.7.7,0,0,1,.72.69.71.71,0,0,1-.72.73A.73.73,0,0,1,867.34,306.55Zm.22,2.33h1v7.36h-1Z"/>
      <path class="cls-84" d="M878.11,312v4.27h-1v-4.17a2.06,2.06,0,0,0-2.21-2.35,2.42,2.42,0,0,0-2.58,2.66v3.86h-1v-7.36h.95v1.36a3.09,3.09,0,0,1,2.8-1.42A2.83,2.83,0,0,1,878.11,312Z"/>
      <path class="cls-84" d="M887.25,312.87h-6.16a2.72,2.72,0,0,0,2.9,2.56,2.91,2.91,0,0,0,2.25-1l.56.64a3.89,3.89,0,0,1-6.71-2.55,3.55,3.55,0,0,1,3.6-3.74,3.51,3.51,0,0,1,3.57,3.74C887.26,312.65,887.25,312.76,887.25,312.87Zm-6.16-.74h5.22a2.62,2.62,0,0,0-5.22,0Z"/>
      <path class="cls-84" d="M888.27,315.4l.45-.78a4.43,4.43,0,0,0,2.61.83c1.41,0,2-.48,2-1.21,0-1.92-4.78-.4-4.78-3.32,0-1.2,1-2.1,2.92-2.1a5,5,0,0,1,2.6.69l-.43.8a3.79,3.79,0,0,0-2.17-.63c-1.33,0-1.92.51-1.92,1.21,0,2,4.77.49,4.77,3.32,0,1.28-1.12,2.11-3,2.11A4.9,4.9,0,0,1,888.27,315.4Z"/>
      <path class="cls-84" d="M895.49,315.54a.74.74,0,0,1,.74-.75.75.75,0,0,1,.76.75.77.77,0,0,1-.76.78A.76.76,0,0,1,895.49,315.54Z"/>
      <path class="cls-84" d="M904.89,307.34h-3.45v-.9h7.93v.9h-3.45v8.9h-1Z"/>
      <path class="cls-84" d="M917.59,312v4.27h-1v-4.17a2.06,2.06,0,0,0-2.21-2.35,2.42,2.42,0,0,0-2.58,2.66v3.86h-1V305.85h1v4.32a3.11,3.11,0,0,1,2.76-1.35A2.83,2.83,0,0,1,917.59,312Z"/>
      <path class="cls-84" d="M926.73,312.87h-6.16a2.72,2.72,0,0,0,2.9,2.56,2.91,2.91,0,0,0,2.25-1l.56.64a3.89,3.89,0,0,1-6.71-2.55,3.55,3.55,0,0,1,3.6-3.74,3.51,3.51,0,0,1,3.57,3.74C926.74,312.65,926.73,312.76,926.73,312.87Zm-6.16-.74h5.22a2.62,2.62,0,0,0-5.22,0Z"/>
      <path class="cls-84" d="M939.26,308.88v6.47c0,2.53-1.25,3.68-3.68,3.68a5.14,5.14,0,0,1-3.44-1.13l.51-.76a4.38,4.38,0,0,0,2.9,1c1.86,0,2.71-.85,2.71-2.68v-.93a3.31,3.31,0,0,1-2.87,1.42,3.57,3.57,0,1,1,0-7.14,3.32,3.32,0,0,1,2.92,1.47v-1.41Zm-1,3.5a2.8,2.8,0,1,0-2.8,2.7A2.63,2.63,0,0,0,938.29,312.38Z"/>
      <path class="cls-84" d="M945.75,308.82v1l-.23,0c-1.55,0-2.48,1-2.48,2.72v3.75h-1v-7.36h1v1.44A2.79,2.79,0,0,1,945.75,308.82Z"/>
      <path class="cls-84" d="M953.09,311.68v4.56h-1V315.1a2.79,2.79,0,0,1-2.54,1.22c-1.66,0-2.69-.87-2.69-2.15s.73-2.09,2.85-2.09h2.34v-.44c0-1.26-.72-1.95-2.09-1.95a3.76,3.76,0,0,0-2.45.87l-.45-.74a4.67,4.67,0,0,1,3-1C952,308.82,953.09,309.77,953.09,311.68Zm-1,2.35v-1.2h-2.32c-1.42,0-1.89.56-1.89,1.31s.69,1.39,1.87,1.39A2.36,2.36,0,0,0,952.1,314Z"/>
      <path class="cls-84" d="M963.26,312.56a3.58,3.58,0,0,1-3.68,3.76,3.24,3.24,0,0,1-2.8-1.46V319h-1V308.88h1v1.45a3.21,3.21,0,0,1,2.84-1.51A3.57,3.57,0,0,1,963.26,312.56Zm-1,0a2.75,2.75,0,1,0-2.74,2.87A2.71,2.71,0,0,0,962.26,312.56Z"/>
      <path class="cls-84" d="M972.06,312v4.27h-1v-4.17a2.06,2.06,0,0,0-2.22-2.35,2.41,2.41,0,0,0-2.57,2.66v3.86h-1V305.85h1v4.32a3.09,3.09,0,0,1,2.75-1.35A2.82,2.82,0,0,1,972.06,312Z"/>
      <path class="cls-84" d="M974.53,306.55a.72.72,0,0,1,.73-.7.71.71,0,0,1,.73.69.72.72,0,0,1-.73.73A.73.73,0,0,1,974.53,306.55Zm.23,2.33h1v7.36h-1Z"/>
      <path class="cls-84" d="M977.78,312.56a3.63,3.63,0,0,1,3.8-3.74,3.19,3.19,0,0,1,2.88,1.46l-.74.5a2.5,2.5,0,0,0-2.14-1.09,2.87,2.87,0,0,0,0,5.74,2.47,2.47,0,0,0,2.14-1.08l.74.51a3.23,3.23,0,0,1-2.88,1.46A3.65,3.65,0,0,1,977.78,312.56Z"/>
      <path class="cls-84" d="M870,330.94h-4.55l-.87,2.11h-2.33l4.37-9.81h2.24l4.39,9.81H870.9Zm-.72-1.72-1.55-3.75-1.56,3.75Z"/>
      <path class="cls-84" d="M881.23,325.51l-3.18,7.54h-2.26l-3.16-7.54h2.25l2.09,5.13,2.16-5.13Z"/>
      <path class="cls-84" d="M889.25,329.89h-5.7a2,2,0,0,0,2.16,1.52,2.55,2.55,0,0,0,1.89-.73l1.16,1.26a3.94,3.94,0,0,1-3.11,1.22c-2.6,0-4.3-1.64-4.3-3.88a3.83,3.83,0,0,1,4-3.88,3.73,3.73,0,0,1,3.92,3.91C889.29,329.47,889.26,329.71,889.25,329.89Zm-5.73-1.27h3.71a1.88,1.88,0,0,0-3.71,0Z"/>
      <path class="cls-84" d="M895.42,325.4v2l-.49,0a1.85,1.85,0,0,0-2,2.1v3.56h-2.19v-7.54h2.09v1A3.06,3.06,0,0,1,895.42,325.4Z"/>
      <path class="cls-84" d="M903.35,328.74v4.31H901.3v-.94a2.47,2.47,0,0,1-2.29,1.05c-1.77,0-2.82-1-2.82-2.29s.94-2.25,3.24-2.25h1.73c0-.94-.56-1.49-1.73-1.49a3.63,3.63,0,0,0-2.17.7l-.79-1.52a5.8,5.8,0,0,1,3.25-.91C902,325.4,903.35,326.46,903.35,328.74Zm-2.19,1.92v-.77h-1.5c-1,0-1.34.38-1.34.89s.46.91,1.23.91A1.61,1.61,0,0,0,901.16,330.66Z"/>
      <path class="cls-84" d="M913.18,325.51v6.27c0,2.81-1.52,4.09-4.23,4.09a6.18,6.18,0,0,1-3.7-1l.87-1.57a4.47,4.47,0,0,0,2.66.85c1.54,0,2.21-.7,2.21-2.05v-.33a3.1,3.1,0,0,1-2.38.94,3.64,3.64,0,1,1,0-7.28,3,3,0,0,1,2.49,1.08v-1ZM911,329a2,2,0,1,0-2,1.85A1.83,1.83,0,0,0,911,329Z"/>
      <path class="cls-84" d="M922.54,329.89h-5.7a2,2,0,0,0,2.16,1.52,2.55,2.55,0,0,0,1.89-.73l1.16,1.26a3.94,3.94,0,0,1-3.11,1.22c-2.6,0-4.3-1.64-4.3-3.88a3.84,3.84,0,0,1,4-3.88,3.72,3.72,0,0,1,3.92,3.91C922.58,329.47,922.56,329.71,922.54,329.89Zm-5.73-1.27h3.72a1.89,1.89,0,0,0-3.72,0Z"/>
      <path class="cls-84" d="M927.86,323.24h4.45c3.21,0,5.41,1.93,5.41,4.9s-2.2,4.91-5.41,4.91h-4.45Zm4.34,7.94a3,3,0,1,0,0-6.08h-2.07v6.08Z"/>
      <path class="cls-84" d="M945.94,328.74v4.31h-2.05v-.94a2.49,2.49,0,0,1-2.3,1.05c-1.76,0-2.81-1-2.81-2.29s.94-2.25,3.23-2.25h1.74c0-.94-.56-1.49-1.74-1.49a3.68,3.68,0,0,0-2.17.7l-.78-1.52a5.78,5.78,0,0,1,3.25-.91C944.61,325.4,945.94,326.46,945.94,328.74Zm-2.19,1.92v-.77h-1.5c-1,0-1.34.38-1.34.89s.46.91,1.23.91A1.61,1.61,0,0,0,943.75,330.66Z"/>
      <path class="cls-84" d="M947.64,323.24A1.25,1.25,0,0,1,949,322a1.23,1.23,0,0,1,1.36,1.18,1.37,1.37,0,0,1-2.72,0Zm.27,2.27h2.18v7.54h-2.18Z"/>
      <path class="cls-84" d="M952.12,322.65h2.19v10.4h-2.19Z"/>
      <path class="cls-84" d="M963.81,325.51l-3.4,8c-.73,1.82-1.76,2.36-3.12,2.36a3.37,3.37,0,0,1-2.1-.68l.79-1.56a1.92,1.92,0,0,0,1.24.48c.6,0,.94-.27,1.23-.94l0-.07-3.27-7.59h2.26l2.11,5.11,2.13-5.11Z"/>
      <path class="cls-84" d="M975.07,333.05l-1.89-2.74h-2.09v2.74h-2.27v-9.81h4.25c2.62,0,4.25,1.36,4.25,3.56a3.18,3.18,0,0,1-2,3.09l2.2,3.16Zm-2.13-8h-1.85v3.42h1.85c1.39,0,2.09-.65,2.09-1.71S974.33,325.09,972.94,325.09Z"/>
      <path class="cls-84" d="M978.69,323.24a1.25,1.25,0,0,1,1.36-1.22,1.23,1.23,0,0,1,1.36,1.18,1.37,1.37,0,0,1-2.72,0Zm.27,2.27h2.18v7.54H979Z"/>
      <path class="cls-84" d="M990.85,322.65v10.4h-2.09v-.87a2.89,2.89,0,0,1-2.35,1,3.88,3.88,0,0,1,0-7.76,2.87,2.87,0,0,1,2.25.91v-3.66Zm-2.15,6.63a1.93,1.93,0,1,0-1.91,2.08A1.91,1.91,0,0,0,988.7,329.28Z"/>
      <path class="cls-84" d="M992.58,328.23h4V330h-4Z"/>
      <path class="cls-84" d="M870.76,346.69h-5.7a2,2,0,0,0,2.15,1.52,2.54,2.54,0,0,0,1.89-.73l1.17,1.26a3.94,3.94,0,0,1-3.11,1.22c-2.61,0-4.3-1.64-4.3-3.88a3.83,3.83,0,0,1,4-3.88,3.73,3.73,0,0,1,3.92,3.91C870.8,346.27,870.77,346.51,870.76,346.69ZM865,345.42h3.71a1.88,1.88,0,0,0-3.71,0Z"/>
      <path class="cls-84" d="M876.93,342.2v2l-.49,0a1.84,1.84,0,0,0-2,2.1v3.56h-2.19v-7.54h2.09v1A3.06,3.06,0,0,1,876.93,342.2Z"/>
      <path class="cls-84" d="M877.53,349.15l.73-1.57a5.17,5.17,0,0,0,2.62.72c1,0,1.38-.26,1.38-.68,0-1.23-4.55,0-4.55-3,0-1.42,1.29-2.43,3.49-2.43a6.21,6.21,0,0,1,2.9.66l-.73,1.55a4.31,4.31,0,0,0-2.17-.56c-1,0-1.4.31-1.4.7,0,1.29,4.55,0,4.55,3,0,1.4-1.3,2.4-3.56,2.4A6.49,6.49,0,0,1,877.53,349.15Z"/>
      <path class="cls-84" d="M893.4,345.53v4.32h-2.19v-4c0-1.22-.56-1.78-1.53-1.78s-1.8.64-1.8,2v3.73h-2.19v-10.4h2.19v3.64a3.34,3.34,0,0,1,2.39-.89C892.05,342.2,893.4,343.23,893.4,345.53Z"/>
      <path class="cls-84" d="M895.1,340a1.25,1.25,0,0,1,1.36-1.22,1.23,1.23,0,0,1,1.36,1.18,1.37,1.37,0,0,1-2.72,0Zm.27,2.27h2.18v7.54h-2.18Z"/>
      <path class="cls-84" d="M907.79,346.08A3.66,3.66,0,0,1,904,350a3,3,0,0,1-2.27-.91v3.51h-2.18V342.31h2.09v.87a2.91,2.91,0,0,1,2.36-1A3.66,3.66,0,0,1,907.79,346.08Zm-2.22,0a1.92,1.92,0,1,0-1.91,2.08A1.9,1.9,0,0,0,905.57,346.08Z"/>
      <path class="cls-84" d="M921.41,346.08a3.66,3.66,0,0,1-3.75,3.88,2.92,2.92,0,0,1-2.37-1v.87H913.2v-10.4h2.19v3.66a2.91,2.91,0,0,1,2.27-.91A3.66,3.66,0,0,1,921.41,346.08Zm-2.21,0a1.93,1.93,0,1,0-1.92,2.08A1.91,1.91,0,0,0,919.2,346.08Z"/>
      <path class="cls-84" d="M930.13,342.31l-3.4,8c-.73,1.82-1.77,2.36-3.13,2.36a3.37,3.37,0,0,1-2.1-.68l.8-1.56a1.92,1.92,0,0,0,1.23.48c.61,0,.94-.27,1.24-.94l0-.07-3.26-7.59h2.26l2.11,5.11,2.13-5.11Z"/>
      <path class="cls-84" d="M934.37,348.88l.77-1.71a5.79,5.79,0,0,0,3.23,1c1.35,0,1.9-.45,1.9-1.05,0-1.83-5.71-.57-5.71-4.21,0-1.67,1.35-3.06,4.14-3.06a6.61,6.61,0,0,1,3.4.87l-.7,1.72a5.63,5.63,0,0,0-2.72-.77c-1.34,0-1.86.51-1.86,1.12,0,1.81,5.7.56,5.7,4.16,0,1.64-1.36,3-4.16,3A7,7,0,0,1,934.37,348.88Z"/>
      <path class="cls-84" d="M948.78,349.48A3.15,3.15,0,0,1,947,350a2.49,2.49,0,0,1-2.82-2.71v-3.09H943v-1.68h1.16v-1.84h2.19v1.84h1.87v1.68h-1.87v3.07a.88.88,0,0,0,.94,1,1.49,1.49,0,0,0,.88-.28Z"/>
      <path class="cls-84" d="M956.67,345.54v4.31h-2v-.94a2.49,2.49,0,0,1-2.3,1c-1.76,0-2.81-1-2.81-2.29s.93-2.25,3.23-2.25h1.74c0-.94-.56-1.49-1.74-1.49a3.65,3.65,0,0,0-2.17.7l-.78-1.52a5.75,5.75,0,0,1,3.25-.91C955.34,342.2,956.67,343.26,956.67,345.54Zm-2.18,1.92v-.77H953c-1,0-1.35.38-1.35.89s.47.91,1.24.91A1.61,1.61,0,0,0,954.49,347.46Z"/>
      <path class="cls-84" d="M963.5,349.48a3.1,3.1,0,0,1-1.77.48,2.49,2.49,0,0,1-2.82-2.71v-3.09h-1.16v-1.68h1.16v-1.84h2.19v1.84H963v1.68H961.1v3.07a.88.88,0,0,0,.93,1,1.5,1.5,0,0,0,.89-.28Z"/>
      <path class="cls-84" d="M964.47,340a1.24,1.24,0,0,1,1.36-1.22,1.22,1.22,0,0,1,1.35,1.18,1.36,1.36,0,0,1-2.71,0Zm.26,2.27h2.19v7.54h-2.19Z"/>
      <path class="cls-84" d="M968.39,346.08a4.15,4.15,0,1,1,4.14,3.88A3.88,3.88,0,0,1,968.39,346.08Zm6.06,0a1.93,1.93,0,1,0-1.92,2.08A1.9,1.9,0,0,0,974.45,346.08Z"/>
      <path class="cls-84" d="M985.82,345.53v4.32h-2.18v-4c0-1.22-.56-1.78-1.53-1.78s-1.81.64-1.81,2v3.73h-2.18v-7.54h2.08v.88a3.33,3.33,0,0,1,2.5-1C984.48,342.2,985.82,343.23,985.82,345.53Z"/>
      <path class="cls-84" d="M870.62,359.28v6.47c0,2.53-1.25,3.68-3.69,3.68a5.13,5.13,0,0,1-3.43-1.13l.51-.76a4.38,4.38,0,0,0,2.9,1c1.86,0,2.71-.85,2.71-2.68v-.93a3.31,3.31,0,0,1-2.87,1.42,3.57,3.57,0,1,1,0-7.14,3.33,3.33,0,0,1,2.91,1.47v-1.41Zm-1,3.5a2.8,2.8,0,1,0-2.8,2.7A2.63,2.63,0,0,0,869.65,362.78Z"/>
      <path class="cls-84" d="M877.11,359.22v1l-.24,0c-1.54,0-2.48,1-2.48,2.72v3.76h-1v-7.37h1v1.44A2.78,2.78,0,0,1,877.11,359.22Z"/>
      <path class="cls-84" d="M885.25,363.27h-6.17a2.73,2.73,0,0,0,2.9,2.56,2.92,2.92,0,0,0,2.26-1l.56.64a3.89,3.89,0,0,1-6.71-2.55,3.55,3.55,0,0,1,3.6-3.74,3.51,3.51,0,0,1,3.57,3.74C885.26,363.05,885.25,363.16,885.25,363.27Zm-6.17-.74h5.23a2.62,2.62,0,0,0-5.23,0Z"/>
      <path class="cls-84" d="M893.34,359.28l-3.69,8.25c-.61,1.44-1.4,1.9-2.45,1.9a2.52,2.52,0,0,1-1.79-.67l.46-.74a1.86,1.86,0,0,0,1.35.56c.66,0,1.1-.31,1.52-1.23l.33-.72-3.3-7.35h1l2.77,6.26,2.78-6.26Z"/>
      <path class="cls-84" d="M893.63,365.8l.45-.78a4.46,4.46,0,0,0,2.62.83c1.4,0,2-.48,2-1.21,0-1.92-4.78-.4-4.78-3.32,0-1.2,1-2.1,2.92-2.1a5,5,0,0,1,2.6.69l-.43.8a3.76,3.76,0,0,0-2.17-.63c-1.33,0-1.92.51-1.92,1.21,0,2,4.78.49,4.78,3.32,0,1.28-1.12,2.11-3,2.11A4.91,4.91,0,0,1,893.63,365.8Z"/>
      <path class="cls-84" d="M904.42,363a3.75,3.75,0,1,1,3.76,3.76A3.63,3.63,0,0,1,904.42,363Zm6.49,0a2.74,2.74,0,1,0-2.73,2.87A2.69,2.69,0,0,0,910.91,363Z"/>
      <path class="cls-84" d="M920.58,359.28v7.37h-1V365.3a2.93,2.93,0,0,1-2.65,1.42,2.86,2.86,0,0,1-3.11-3.17v-4.27h1v4.17c0,1.57.81,2.37,2.21,2.37a2.4,2.4,0,0,0,2.51-2.68v-3.86Z"/>
      <path class="cls-84" d="M927.25,366.2a2.41,2.41,0,0,1-1.56.52,2,2,0,0,1-2.16-2.15v-4.45h-1.31v-.84h1.31v-1.61h1v1.61h2.24v.84h-2.24v4.4a1.18,1.18,0,0,0,1.27,1.34,1.58,1.58,0,0,0,1.09-.38Z"/>
      <path class="cls-84" d="M939.36,359.28v7.37h-1V365.3a2.91,2.91,0,0,1-2.64,1.42,2.86,2.86,0,0,1-3.11-3.17v-4.27h1v4.17c0,1.57.81,2.37,2.21,2.37a2.4,2.4,0,0,0,2.51-2.68v-3.86Z"/>
      <path class="cls-84" d="M948.92,362.37v4.28h-1v-4.18a2.06,2.06,0,0,0-2.21-2.35,2.42,2.42,0,0,0-2.58,2.66v3.87h-1v-7.37h1v1.36a3.09,3.09,0,0,1,2.8-1.42A2.82,2.82,0,0,1,948.92,362.37Z"/>
      <path class="cls-84" d="M950.59,365.8,951,365a4.49,4.49,0,0,0,2.62.83c1.4,0,2-.48,2-1.21,0-1.92-4.78-.4-4.78-3.32,0-1.2,1-2.1,2.91-2.1a5,5,0,0,1,2.61.69l-.43.8a3.8,3.8,0,0,0-2.18-.63c-1.33,0-1.91.51-1.91,1.21,0,2,4.77.49,4.77,3.32,0,1.28-1.12,2.11-3,2.11A4.93,4.93,0,0,1,950.59,365.8Z"/>
      <path class="cls-84" d="M964.88,363.27h-6.16a2.72,2.72,0,0,0,2.9,2.56,2.91,2.91,0,0,0,2.25-1l.56.64a3.89,3.89,0,0,1-6.71-2.55,3.55,3.55,0,0,1,3.6-3.74,3.51,3.51,0,0,1,3.57,3.74C964.89,363.05,964.88,363.16,964.88,363.27Zm-6.16-.74h5.22a2.62,2.62,0,0,0-5.22,0Z"/>
      <path class="cls-84" d="M966.92,356.25h1v10.4h-1Z"/>
      <path class="cls-84" d="M977.1,363.27h-6.16a2.72,2.72,0,0,0,2.9,2.56,2.91,2.91,0,0,0,2.25-1l.56.64a3.89,3.89,0,0,1-6.71-2.55,3.55,3.55,0,0,1,3.6-3.74,3.52,3.52,0,0,1,3.58,3.74C977.12,363.05,977.1,363.16,977.1,363.27Zm-6.16-.74h5.22a2.62,2.62,0,0,0-5.22,0Z"/>
      <path class="cls-84" d="M978.4,363a3.63,3.63,0,0,1,3.8-3.74,3.21,3.21,0,0,1,2.88,1.46l-.74.5a2.52,2.52,0,0,0-2.14-1.09,2.87,2.87,0,0,0,0,5.74,2.48,2.48,0,0,0,2.14-1.08l.74.51a3.26,3.26,0,0,1-2.88,1.46A3.65,3.65,0,0,1,978.4,363Z"/>
      <path class="cls-84" d="M991,366.2a2.37,2.37,0,0,1-1.56.52,2,2,0,0,1-2.15-2.15v-4.45H986v-.84h1.32v-1.61h1v1.61h2.24v.84h-2.24v4.4a1.18,1.18,0,0,0,1.27,1.34,1.62,1.62,0,0,0,1.1-.38Z"/>
      <path class="cls-84" d="M992.25,362.41h3.66v.87h-3.66Z"/>
      <path class="cls-84" d="M870.21,380.07h-6.16a2.72,2.72,0,0,0,2.9,2.56,2.91,2.91,0,0,0,2.25-1l.56.64a3.89,3.89,0,0,1-6.71-2.55,3.55,3.55,0,0,1,3.6-3.74,3.51,3.51,0,0,1,3.57,3.74C870.22,379.85,870.21,380,870.21,380.07Zm-6.16-.74h5.22a2.62,2.62,0,0,0-5.22,0Z"/>
      <path class="cls-84" d="M879,373.05v10.4h-1V382a3.19,3.19,0,0,1-2.84,1.53,3.75,3.75,0,0,1,0-7.5,3.22,3.22,0,0,1,2.8,1.46v-4.43Zm-1,6.71a2.74,2.74,0,1,0-2.73,2.87A2.69,2.69,0,0,0,878,379.76Z"/>
      <path class="cls-84" d="M885.19,373.75a.72.72,0,0,1,.73-.7.7.7,0,0,1,.72.69.71.71,0,0,1-.72.73A.73.73,0,0,1,885.19,373.75Zm.22,2.33h1v7.37h-1Z"/>
      <path class="cls-84" d="M896,379.17v4.28h-1v-4.18a2.06,2.06,0,0,0-2.21-2.35,2.42,2.42,0,0,0-2.58,2.66v3.87h-1v-7.37h1v1.36a3.09,3.09,0,0,1,2.8-1.42A2.83,2.83,0,0,1,896,379.17Z"/>
      <path class="cls-84" d="M899.79,375.21v.87h2.27v.84h-2.24v6.53h-1v-6.53h-1.31v-.84h1.31v-.91a2,2,0,0,1,2.23-2.19,2.37,2.37,0,0,1,1.47.46l-.34.75a1.65,1.65,0,0,0-1.09-.37C900.24,373.82,899.79,374.3,899.79,375.21Z"/>
      <path class="cls-84" d="M902.53,379.76a3.75,3.75,0,1,1,3.76,3.76A3.63,3.63,0,0,1,902.53,379.76Zm6.49,0a2.74,2.74,0,1,0-2.73,2.87A2.69,2.69,0,0,0,909,379.76Z"/>
      <path class="cls-84" d="M915.76,376v1l-.23,0c-1.54,0-2.48,1-2.48,2.72v3.76h-1v-7.37h1v1.44A2.77,2.77,0,0,1,915.76,376Z"/>
      <path class="cls-84" d="M929.71,379.17v4.28h-1v-4.18c0-1.55-.79-2.35-2.12-2.35a2.36,2.36,0,0,0-2.46,2.66v3.87h-1v-4.18c0-1.55-.78-2.35-2.13-2.35a2.37,2.37,0,0,0-2.46,2.66v3.87h-1v-7.37h1v1.34a3,3,0,0,1,2.7-1.4,2.65,2.65,0,0,1,2.62,1.56,3.19,3.19,0,0,1,2.91-1.56C928.54,376,929.71,377.06,929.71,379.17Z"/>
      <path class="cls-84" d="M938,378.88v4.57h-1V382.3a2.79,2.79,0,0,1-2.54,1.22c-1.67,0-2.69-.87-2.69-2.15s.73-2.09,2.85-2.09H937v-.44c0-1.26-.71-1.95-2.08-1.95a3.76,3.76,0,0,0-2.45.87L932,377a4.67,4.67,0,0,1,3-1C936.89,376,938,377,938,378.88Zm-1,2.35V380h-2.31c-1.42,0-1.89.56-1.89,1.31s.69,1.39,1.87,1.39A2.34,2.34,0,0,0,937,381.23Z"/>
      <path class="cls-84" d="M944.55,383a2.37,2.37,0,0,1-1.56.52,2,2,0,0,1-2.15-2.15v-4.45h-1.32v-.84h1.32v-1.61h1v1.61h2.24v.84h-2.24v4.4a1.18,1.18,0,0,0,1.28,1.34,1.66,1.66,0,0,0,1.09-.38Z"/>
      <path class="cls-84" d="M946.13,373.75a.73.73,0,1,1,.73.72A.73.73,0,0,1,946.13,373.75Zm.22,2.33h1v7.37h-1Z"/>
      <path class="cls-84" d="M949.38,379.76a3.75,3.75,0,1,1,3.75,3.76A3.62,3.62,0,0,1,949.38,379.76Zm6.48,0a2.74,2.74,0,1,0-2.73,2.87A2.69,2.69,0,0,0,955.86,379.76Z"/>
      <path class="cls-84" d="M965.68,379.17v4.28h-1v-4.18a2.06,2.06,0,0,0-2.21-2.35,2.42,2.42,0,0,0-2.58,2.66v3.87h-1v-7.37h1v1.36a3.09,3.09,0,0,1,2.8-1.42A2.83,2.83,0,0,1,965.68,379.17Z"/>
      <path class="cls-84" d="M977.6,378.88v4.57h-1V382.3a2.78,2.78,0,0,1-2.53,1.22c-1.67,0-2.69-.87-2.69-2.15s.72-2.09,2.84-2.09h2.34v-.44c0-1.26-.72-1.95-2.09-1.95a3.76,3.76,0,0,0-2.45.87l-.45-.74a4.69,4.69,0,0,1,3-1C976.52,376,977.6,377,977.6,378.88Zm-1,2.35V380H974.3c-1.43,0-1.89.56-1.89,1.31s.68,1.39,1.86,1.39A2.35,2.35,0,0,0,976.61,381.23Z"/>
      <path class="cls-84" d="M987.08,379.17v4.28h-1v-4.18a2.06,2.06,0,0,0-2.22-2.35,2.41,2.41,0,0,0-2.57,2.66v3.87h-1v-7.37h1v1.36a3.11,3.11,0,0,1,2.81-1.42A2.82,2.82,0,0,1,987.08,379.17Z"/>
      <path class="cls-84" d="M996.53,373.05v10.4h-.95V382a3.21,3.21,0,0,1-2.84,1.53,3.75,3.75,0,0,1,0-7.5,3.24,3.24,0,0,1,2.8,1.46v-4.43Zm-1,6.71a2.74,2.74,0,1,0-2.73,2.87A2.7,2.7,0,0,0,995.55,379.76Z"/>
      <path class="cls-84" d="M869.36,395.68v4.56h-1V399.1a2.76,2.76,0,0,1-2.53,1.22c-1.67,0-2.69-.87-2.69-2.15s.73-2.09,2.84-2.09h2.34v-.44c0-1.26-.71-1.95-2.09-1.95a3.78,3.78,0,0,0-2.45.87l-.45-.74a4.71,4.71,0,0,1,3-1C868.28,392.82,869.36,393.77,869.36,395.68Zm-1,2.35v-1.2h-2.31c-1.43,0-1.89.56-1.89,1.31s.69,1.39,1.86,1.39A2.35,2.35,0,0,0,868.36,398Z"/>
      <path class="cls-84" d="M878.81,389.85v10.39h-1v-1.45a3.19,3.19,0,0,1-2.84,1.53,3.75,3.75,0,0,1,0-7.5,3.19,3.19,0,0,1,2.8,1.46v-4.43Zm-1,6.71a2.74,2.74,0,1,0-2.74,2.87A2.7,2.7,0,0,0,877.83,396.56Z"/>
      <path class="cls-84" d="M878.93,402.56l.35-.76a1.71,1.71,0,0,0,1.15.38c.78,0,1.21-.48,1.21-1.39v-7.91h1v7.91a2,2,0,0,1-2.16,2.24A2.41,2.41,0,0,1,878.93,402.56Zm2.49-12a.72.72,0,0,1,.73-.7.71.71,0,0,1,.73.69.73.73,0,0,1-1.46,0Z"/>
      <path class="cls-84" d="M892.05,392.88v7.36h-.95V398.9a2.93,2.93,0,0,1-2.65,1.42,2.86,2.86,0,0,1-3.11-3.17v-4.27h1v4.17a2.07,2.07,0,0,0,2.22,2.37,2.4,2.4,0,0,0,2.51-2.68v-3.86Z"/>
      <path class="cls-84" d="M893.81,399.4l.45-.78a4.46,4.46,0,0,0,2.62.83c1.4,0,2-.48,2-1.21,0-1.92-4.77-.4-4.77-3.32,0-1.2,1-2.1,2.91-2.1a5,5,0,0,1,2.61.69l-.44.8a3.74,3.74,0,0,0-2.17-.63c-1.33,0-1.92.51-1.92,1.21,0,2,4.78.49,4.78,3.32,0,1.28-1.12,2.11-3,2.11A4.91,4.91,0,0,1,893.81,399.4Z"/>
      <path class="cls-84" d="M905.56,399.8a2.37,2.37,0,0,1-1.56.52,2,2,0,0,1-2.15-2.15v-4.45h-1.32v-.84h1.32v-1.61h1v1.61h2.24v.84h-2.24v4.4a1.18,1.18,0,0,0,1.28,1.34,1.66,1.66,0,0,0,1.09-.38Z"/>
      <path class="cls-84" d="M906.34,399.4l.45-.78a4.46,4.46,0,0,0,2.62.83c1.4,0,2-.48,2-1.21,0-1.92-4.77-.4-4.77-3.32,0-1.2,1-2.1,2.91-2.1a5,5,0,0,1,2.61.69l-.44.8a3.74,3.74,0,0,0-2.17-.63c-1.33,0-1.92.51-1.92,1.21,0,2,4.78.49,4.78,3.32,0,1.28-1.12,2.11-3,2.11A4.91,4.91,0,0,1,906.34,399.4Z"/>
      <path class="cls-84" d="M921.76,399.8a2.39,2.39,0,0,1-1.56.52,2,2,0,0,1-2.16-2.15v-4.45h-1.31v-.84H918v-1.61h1v1.61h2.24v.84H919v4.4a1.18,1.18,0,0,0,1.27,1.34,1.67,1.67,0,0,0,1.1-.38Z"/>
      <path class="cls-84" d="M930.34,396v4.27h-1v-4.17a2.06,2.06,0,0,0-2.22-2.35,2.41,2.41,0,0,0-2.57,2.66v3.86h-1V389.85h1v4.32a3.09,3.09,0,0,1,2.75-1.35A2.82,2.82,0,0,1,930.34,396Z"/>
      <path class="cls-84" d="M939.48,396.87h-6.16a2.72,2.72,0,0,0,2.9,2.56,2.9,2.9,0,0,0,2.25-1l.56.64a3.88,3.88,0,0,1-6.7-2.55,3.59,3.59,0,1,1,7.17,0C939.5,396.65,939.48,396.76,939.48,396.87Zm-6.16-.74h5.22a2.62,2.62,0,0,0-5.22,0Z"/>
      <path class="cls-84" d="M949.07,399.8a2.36,2.36,0,0,1-1.55.52,2,2,0,0,1-2.16-2.15v-4.45H944v-.84h1.32v-1.61h1v1.61h2.25v.84h-2.25v4.4a1.18,1.18,0,0,0,1.28,1.34,1.64,1.64,0,0,0,1.09-.38Z"/>
      <path class="cls-84" d="M949.87,396.56a3.75,3.75,0,1,1,3.75,3.76A3.62,3.62,0,0,1,949.87,396.56Zm6.48,0a2.74,2.74,0,1,0-2.73,2.87A2.69,2.69,0,0,0,956.35,396.56Z"/>
      <path class="cls-84" d="M963.27,399.8a2.39,2.39,0,0,1-1.56.52,2,2,0,0,1-2.15-2.15v-4.45h-1.32v-.84h1.32v-1.61h1v1.61h2.24v.84h-2.24v4.4a1.18,1.18,0,0,0,1.27,1.34,1.67,1.67,0,0,0,1.1-.38Z"/>
      <path class="cls-84" d="M970.63,395.68v4.56h-1V399.1a2.79,2.79,0,0,1-2.54,1.22c-1.66,0-2.69-.87-2.69-2.15s.73-2.09,2.85-2.09h2.34v-.44c0-1.26-.72-1.95-2.09-1.95a3.76,3.76,0,0,0-2.45.87l-.45-.74a4.69,4.69,0,0,1,3-1C969.55,392.82,970.63,393.77,970.63,395.68Zm-1,2.35v-1.2h-2.31c-1.43,0-1.89.56-1.89,1.31s.68,1.39,1.86,1.39A2.35,2.35,0,0,0,969.64,398Z"/>
      <path class="cls-84" d="M973.33,389.85h1v10.39h-1Z"/>
      <path class="cls-84" d="M867.51,409.62v1l-.24,0c-1.54,0-2.48,1-2.48,2.72v3.76h-1v-7.37h1v1.44A2.78,2.78,0,0,1,867.51,409.62Z"/>
      <path class="cls-84" d="M869.07,407.35a.72.72,0,0,1,.73-.7.71.71,0,0,1,.73.69.72.72,0,0,1-.73.73A.73.73,0,0,1,869.07,407.35Zm.23,2.33h1v7.37h-1Z"/>
      <path class="cls-84" d="M879.79,406.65v10.4h-1v-1.46a3.19,3.19,0,0,1-2.84,1.53,3.75,3.75,0,0,1,0-7.5,3.21,3.21,0,0,1,2.8,1.46v-4.43Zm-1,6.71a2.74,2.74,0,1,0-2.73,2.87A2.7,2.7,0,0,0,878.81,413.36Z"/>
      <path class="cls-84" d="M889,413.67h-6.16a2.72,2.72,0,0,0,2.9,2.56,2.91,2.91,0,0,0,2.25-1l.56.64a3.61,3.61,0,0,1-2.84,1.21,3.65,3.65,0,0,1-3.87-3.76,3.55,3.55,0,0,1,3.6-3.74,3.51,3.51,0,0,1,3.57,3.74C889,413.45,889,413.56,889,413.67Zm-6.16-.74H888a2.62,2.62,0,0,0-5.22,0Z"/>
      <path class="cls-84" d="M894.72,409.62v1l-.23,0c-1.55,0-2.48,1-2.48,2.72v3.76h-1v-7.37h1v1.44A2.79,2.79,0,0,1,894.72,409.62Z"/>
      <path class="cls-84" d="M895.55,416.2l.44-.78a4.49,4.49,0,0,0,2.62.83c1.4,0,2-.48,2-1.21,0-1.92-4.78-.4-4.78-3.32,0-1.2,1-2.1,2.92-2.1a5,5,0,0,1,2.6.69l-.43.8a3.79,3.79,0,0,0-2.17-.63c-1.33,0-1.92.51-1.92,1.22,0,2,4.77.49,4.77,3.31,0,1.28-1.12,2.11-3,2.11A4.9,4.9,0,0,1,895.55,416.2Z"/>
      <path class="cls-84" d="M910.19,412.77v4.28h-1v-4.18a2.06,2.06,0,0,0-2.21-2.35,2.41,2.41,0,0,0-2.58,2.66v3.87h-1v-10.4h1V411a3.11,3.11,0,0,1,2.76-1.35A2.82,2.82,0,0,1,910.19,412.77Z"/>
      <path class="cls-84" d="M912.67,407.35a.73.73,0,1,1,.73.72A.73.73,0,0,1,912.67,407.35Zm.22,2.33h1v7.37h-1Z"/>
      <path class="cls-84" d="M924.13,413.36a3.58,3.58,0,0,1-3.68,3.76,3.24,3.24,0,0,1-2.8-1.46v4.1h-1V409.68h1v1.45a3.21,3.21,0,0,1,2.84-1.51A3.57,3.57,0,0,1,924.13,413.36Zm-1,0a2.75,2.75,0,1,0-2.74,2.87A2.71,2.71,0,0,0,923.13,413.36Z"/>
      <path class="cls-84" d="M935.38,412.48v4.57h-1V415.9a2.79,2.79,0,0,1-2.54,1.22c-1.67,0-2.69-.87-2.69-2.15s.73-2.08,2.85-2.08h2.34v-.45c0-1.26-.72-1.95-2.09-1.95a3.76,3.76,0,0,0-2.45.87l-.45-.74a4.67,4.67,0,0,1,3-1C934.3,409.62,935.38,410.57,935.38,412.48Zm-1,2.35v-1.2h-2.32c-1.42,0-1.89.56-1.89,1.31s.69,1.39,1.87,1.39A2.36,2.36,0,0,0,934.39,414.83Z"/>
      <path class="cls-84" d="M937.36,413.36a3.63,3.63,0,0,1,3.8-3.74,3.22,3.22,0,0,1,2.89,1.46l-.75.5a2.5,2.5,0,0,0-2.14-1.09,2.87,2.87,0,0,0,0,5.74,2.47,2.47,0,0,0,2.14-1.08l.75.51a3.26,3.26,0,0,1-2.89,1.46A3.65,3.65,0,0,1,937.36,413.36Z"/>
      <path class="cls-84" d="M945.12,413.36a3.63,3.63,0,0,1,3.8-3.74,3.21,3.21,0,0,1,2.88,1.46l-.74.5a2.5,2.5,0,0,0-2.14-1.09,2.87,2.87,0,0,0,0,5.74,2.47,2.47,0,0,0,2.14-1.08l.74.51a3.26,3.26,0,0,1-2.88,1.46A3.65,3.65,0,0,1,945.12,413.36Z"/>
      <path class="cls-84" d="M952.88,413.36a3.75,3.75,0,1,1,3.75,3.76A3.62,3.62,0,0,1,952.88,413.36Zm6.48,0a2.74,2.74,0,1,0-2.73,2.87A2.69,2.69,0,0,0,959.36,413.36Z"/>
      <path class="cls-84" d="M966.11,409.62v1l-.24,0c-1.54,0-2.48,1-2.48,2.72v3.76h-1v-7.37h1v1.44A2.78,2.78,0,0,1,966.11,409.62Z"/>
      <path class="cls-84" d="M974.55,406.65v10.4h-.95v-1.46a3.21,3.21,0,0,1-2.84,1.53,3.75,3.75,0,0,1,0-7.5,3.24,3.24,0,0,1,2.8,1.46v-4.43Zm-1,6.71a2.74,2.74,0,1,0-2.73,2.87A2.7,2.7,0,0,0,973.57,413.36Z"/>
      <path class="cls-84" d="M977.1,407.35a.73.73,0,0,1,1.45,0,.73.73,0,1,1-1.45,0Zm.22,2.33h1v7.37h-1Z"/>
      <path class="cls-84" d="M987.87,412.77v4.28h-1v-4.18a2.06,2.06,0,0,0-2.21-2.35,2.42,2.42,0,0,0-2.58,2.66v3.87h-1v-7.37H982V411a3.09,3.09,0,0,1,2.8-1.42A2.83,2.83,0,0,1,987.87,412.77Z"/>
      <path class="cls-84" d="M997.41,409.68v6.47c0,2.53-1.24,3.68-3.68,3.68a5.13,5.13,0,0,1-3.43-1.13l.5-.76a4.4,4.4,0,0,0,2.9,1c1.86,0,2.72-.85,2.72-2.67v-.94a3.32,3.32,0,0,1-2.87,1.43,3.58,3.58,0,1,1,0-7.15,3.33,3.33,0,0,1,2.91,1.47v-1.41Zm-1,3.5a2.8,2.8,0,1,0-2.8,2.7A2.63,2.63,0,0,0,996.45,413.18Z"/>
      <path class="cls-84" d="M867.68,433.4a2.41,2.41,0,0,1-1.56.52,2,2,0,0,1-2.16-2.15v-4.45h-1.31v-.84H864v-1.61h1v1.61h2.24v.84H865v4.4a1.18,1.18,0,0,0,1.27,1.34,1.62,1.62,0,0,0,1.1-.38Z"/>
      <path class="cls-84" d="M868.47,430.16a3.75,3.75,0,1,1,3.75,3.76A3.63,3.63,0,0,1,868.47,430.16Zm6.49,0a2.74,2.74,0,1,0-2.74,2.87A2.69,2.69,0,0,0,875,430.16Z"/>
      <path class="cls-84" d="M885.54,433.4a2.37,2.37,0,0,1-1.56.52,2,2,0,0,1-2.15-2.15v-4.45h-1.32v-.84h1.32v-1.61h1v1.61h2.24v.84h-2.24v4.4a1.18,1.18,0,0,0,1.28,1.34,1.61,1.61,0,0,0,1.09-.38Z"/>
      <path class="cls-84" d="M894.12,429.57v4.28h-1v-4.18a2.06,2.06,0,0,0-2.22-2.35,2.41,2.41,0,0,0-2.57,2.66v3.87h-1v-10.4h1v4.32a3.09,3.09,0,0,1,2.76-1.35A2.82,2.82,0,0,1,894.12,429.57Z"/>
      <path class="cls-84" d="M903.27,430.47H897.1A2.72,2.72,0,0,0,900,433a2.92,2.92,0,0,0,2.26-1l.56.64a3.89,3.89,0,0,1-6.71-2.55,3.59,3.59,0,1,1,7.17,0C903.28,430.25,903.27,430.36,903.27,430.47Zm-6.17-.74h5.23a2.62,2.62,0,0,0-5.23,0Z"/>
      <path class="cls-84" d="M915.7,423.45v10.4h-1v-1.46a3.19,3.19,0,0,1-2.84,1.53,3.75,3.75,0,0,1,0-7.5,3.21,3.21,0,0,1,2.8,1.46v-4.43Zm-1,6.71A2.74,2.74,0,1,0,912,433,2.7,2.7,0,0,0,914.72,430.16Z"/>
      <path class="cls-84" d="M924,429.28v4.57h-1V432.7a2.76,2.76,0,0,1-2.53,1.22c-1.67,0-2.69-.87-2.69-2.15,0-1.13.73-2.08,2.84-2.08H923v-.45c0-1.26-.71-1.95-2.09-1.95a3.78,3.78,0,0,0-2.45.87l-.45-.74a4.71,4.71,0,0,1,3-1C923,426.42,924,427.37,924,429.28Zm-1,2.35v-1.2h-2.31c-1.43,0-1.89.56-1.89,1.31s.69,1.39,1.86,1.39A2.35,2.35,0,0,0,923,431.63Z"/>
      <path class="cls-84" d="M930.6,433.4a2.36,2.36,0,0,1-1.55.52,2,2,0,0,1-2.16-2.15v-4.45h-1.31v-.84h1.31v-1.61h1v1.61h2.24v.84h-2.24v4.4a1.18,1.18,0,0,0,1.27,1.34,1.59,1.59,0,0,0,1.09-.38Z"/>
      <path class="cls-84" d="M938.56,430.47h-6.17a2.73,2.73,0,0,0,2.9,2.56,2.92,2.92,0,0,0,2.26-1l.56.64a3.89,3.89,0,0,1-6.71-2.55,3.55,3.55,0,0,1,3.6-3.74,3.51,3.51,0,0,1,3.57,3.74C938.57,430.25,938.56,430.36,938.56,430.47Zm-6.17-.74h5.23a2.62,2.62,0,0,0-5.23,0Z"/>
      <path class="cls-84" d="M939.58,433l.44-.78a4.49,4.49,0,0,0,2.62.83c1.4,0,2-.48,2-1.21,0-1.92-4.78-.4-4.78-3.32,0-1.2,1-2.1,2.92-2.1a5,5,0,0,1,2.6.69l-.43.8a3.79,3.79,0,0,0-2.17-.63c-1.33,0-1.92.51-1.92,1.21,0,2,4.77.5,4.77,3.32,0,1.28-1.12,2.11-3,2.11A4.9,4.9,0,0,1,939.58,433Z"/>
      <path class="cls-84" d="M950.09,433l.45-.78a4.46,4.46,0,0,0,2.62.83c1.4,0,2-.48,2-1.21,0-1.92-4.77-.4-4.77-3.32,0-1.2,1-2.1,2.91-2.1a5,5,0,0,1,2.61.69l-.44.8a3.74,3.74,0,0,0-2.17-.63c-1.33,0-1.92.51-1.92,1.21,0,2,4.78.5,4.78,3.32,0,1.28-1.12,2.11-3,2.11A4.91,4.91,0,0,1,950.09,433Z"/>
      <path class="cls-84" d="M964.37,430.47h-6.16a2.72,2.72,0,0,0,2.9,2.56,2.92,2.92,0,0,0,2.26-1l.56.64a3.89,3.89,0,0,1-6.71-2.55,3.59,3.59,0,1,1,7.17,0C964.39,430.25,964.37,430.36,964.37,430.47Zm-6.16-.74h5.23a2.62,2.62,0,0,0-5.23,0Z"/>
      <path class="cls-84" d="M966.42,423.45h1v10.4h-1Z"/>
      <path class="cls-84" d="M976.6,430.47h-6.17a2.73,2.73,0,0,0,2.9,2.56,2.92,2.92,0,0,0,2.26-1l.56.64a3.89,3.89,0,0,1-6.71-2.55,3.55,3.55,0,0,1,3.6-3.74,3.51,3.51,0,0,1,3.57,3.74C976.61,430.25,976.6,430.36,976.6,430.47Zm-6.17-.74h5.23a2.62,2.62,0,0,0-5.23,0Z"/>
      <path class="cls-84" d="M977.9,430.16a3.62,3.62,0,0,1,3.79-3.74,3.22,3.22,0,0,1,2.89,1.46l-.75.5a2.49,2.49,0,0,0-2.14-1.09,2.87,2.87,0,0,0,0,5.74,2.46,2.46,0,0,0,2.14-1.08l.75.51a3.26,3.26,0,0,1-2.89,1.46A3.64,3.64,0,0,1,977.9,430.16Z"/>
      <path class="cls-84" d="M990.48,433.4a2.36,2.36,0,0,1-1.55.52,2,2,0,0,1-2.16-2.15v-4.45h-1.32v-.84h1.32v-1.61h1v1.61H990v.84h-2.24v4.4a1.18,1.18,0,0,0,1.27,1.34,1.59,1.59,0,0,0,1.09-.38Z"/>
      <path class="cls-84" d="M991.74,429.61h3.67v.87h-3.67Z"/>
      <path class="cls-84" d="M870.21,447.27h-6.16a2.72,2.72,0,0,0,2.9,2.56,2.91,2.91,0,0,0,2.25-1l.56.64a3.89,3.89,0,0,1-6.71-2.55,3.55,3.55,0,0,1,3.6-3.74,3.51,3.51,0,0,1,3.57,3.74C870.22,447.05,870.21,447.16,870.21,447.27Zm-6.16-.74h5.22a2.62,2.62,0,0,0-5.22,0Z"/>
      <path class="cls-84" d="M879,440.25v10.4h-1v-1.46a3.19,3.19,0,0,1-2.84,1.53,3.75,3.75,0,0,1,0-7.5,3.22,3.22,0,0,1,2.8,1.46v-4.43ZM878,447a2.74,2.74,0,1,0-2.73,2.87A2.69,2.69,0,0,0,878,447Z"/>
      <path class="cls-84" d="M881.1,450a.74.74,0,0,1,.74-.76.75.75,0,0,1,.76.76.77.77,0,0,1-.76.77A.75.75,0,0,1,881.1,450Z"/>
    </g>
    <text class="cls-46" transform="translate(103.55 349.47)">min #</text>
    <text class="cls-46" transform="translate(278.94 349.03)">max #</text>
  </g>
  <g id="View_6" data-name="View 6">
    <text class="cls-57" transform="translate(76.66 413.84) scale(1.01 1)"><tspan class="cls-85">T</tspan><tspan x="6.94" y="0">otal sele</tspan><tspan class="cls-86" x="62.04" y="0">c</tspan><tspan class="cls-75" x="69.65" y="0">t</tspan><tspan x="74.83" y="0">ed stations: </tspan><tspan class="cls-87" x="154.68" y="0">2</tspan><tspan class="cls-15" x="162.54" y="0">0</tspan></text>
  </g>
</svg>
