<?xml version="1.0" encoding="utf-8"?>
<!-- Generator: Adobe Illustrator 27.9.0, SVG Export Plug-In . SVG Version: 6.00 Build 0)  -->
<svg version="1.1" id="Layer_1" xmlns="http://www.w3.org/2000/svg" xmlns:xlink="http://www.w3.org/1999/xlink" x="0px" y="0px"
	 viewBox="0 0 4279.1 4272.4" style="enable-background:new 0 0 4279.1 4272.4;" xml:space="preserve">
<style type="text/css">
	.st0{fill:#D21C1E;}
	.st1{fill:#EA21AD;}
</style>
<rect x="154.7" y="151.4" width="3969.6" height="3969.6"/>
<path class="st0" d="M3845.9,1767.7c-8.4-9.6-73.9-28.4-111.3-38.9c-59.5-16.8-189.1-78.9-587.8-71.4c-182.9,3.5-462.8,27-618,97.4
	c-39.6,18-71.8,42.2-141.6,80.3c-72.2,39.4-97.9,51-133,58.4c-65.8,14-118.4,3.6-132.1,0.6c-70.6-15.3-118-52.4-139.2-71
	c-44.8-39.2-172.8-105.5-253.8-136.2c-101.4-38.4-265.6-60.5-450.1-76c-117.2-9.8-240.3-17-484.4,3.2
	c-134.4,11.1-351.3,69.8-358.9,74c-7.9,4.4-7.5,105.2,3.6,117.1c24,25.7,74,36.4,90.9,77.1c13.2,31.9,28.5,111.9,42.8,160.3
	c53.8,181.1,128.4,338.8,169.8,387.9c77,91.2,163.1,141.5,212,165.8c136.1,67.5,257.8,68.9,351.2,68.9
	c153.2,0.1,341.5,0.1,484.3-124.3c47.7-41.6,154.6-153.1,210.7-315.8c23.8-68.9,30.5-124,82.3-158.3
	c61.2-40.4,158.2-36.2,206.1,19.8c19.8,23.1,21.6,44.3,51.3,145.3c15.2,51.8,83.4,235.9,208,329.4c83.3,62.6,174.2,94.7,269.4,104.8
	c90.7,9.6,192.4,3.3,268.4-2.6c99.4-7.7,162.2-12.6,234.6-43c170.8-71.7,256.4-227.2,276.7-265.2c46.5-87.3,100.9-241.6,123.6-331
	c10-39.4,21.5-96,68.2-131c18.2-13.6,35.3-16.9,44.6-37.8C3843.9,1834,3853.9,1776.8,3845.9,1767.7z M1966.8,2076.9
	c-5.4,102.9-44.9,284.8-199.3,415.1c-161.7,136.5-349.7,132.5-460.8,130.2c-106.2-2.2-337.1-9.4-488.3-180.8
	c-53.7-60.8-113.8-200.6-140.5-287.8c-12-39.2-45.5-202.4-28.7-283.2c5.2-24.9,15.5-72.4,49.5-112.9
	c52.6-62.8,133.6-75.8,195.8-83.1c148.1-17.3,290-13.7,656.2,34.4c39.9,5.2,133.4,18.3,239.2,69.9c95.9,46.8,126.5,88.5,134.2,99.4
	C1972.6,1947.3,1969.6,2025.1,1966.8,2076.9z M3639.3,2010.6c-25.4,232.8-144.1,401.5-144.1,401.5c-38.3,49.9-81.3,99.3-150.8,139.3
	c-54.2,31.1-79.9,37.3-163.2,53.8c-87.2,17.2-202.6,19.4-345.6,13c-28.7-1.2-92.4-13.8-150.8-38.1c-38.6-16.1-90.1-36.3-152.5-100.8
	c-85.1-88.1-111.9-190.1-130.3-284.2c-17.6-89.8-27.3-164.9,5.2-236c30.6-67,85.7-105.1,112.1-123.4
	c59.9-41.5,116.7-55.6,157.9-64.9c217.9-49.3,408.1-57.8,438.5-59c0,0,98.2-3.9,332.7,20.5c19.2,1.9,38.1,6.4,56.2,13.3
	c16.8,6.4,71.9,28.4,106,85.6c18.8,31.6,23.2,60.7,27.5,88.5C3640.7,1937.4,3643.9,1968.2,3639.3,2010.6z"/>
<rect x="-2200" y="789.7" class="st0" width="689.7" height="689.7"/>
<rect x="-2200" y="1629.9" class="st1" width="689.7" height="689.7"/>
</svg>
