<svg xmlns="http://www.w3.org/2000/svg" viewBox="0 0 306.38 251.39"><defs><style>.cls-1{fill:#9376a8;}.cls-2{fill:#fff;}</style></defs><g id="Layer_2" data-name="Layer 2"><g id="Needle_types" data-name="Needle types"><path class="cls-1" d="M220.43,150.92a22.53,22.53,0,0,1-10.24-1.86,15.38,15.38,0,0,0-16,1.78c-5.76,4.17-11.62,8.21-17.42,12.33-3.82,2.72-5.34,6.2-4.39,11,1.88,9.5-.93,17.58-8.88,23.26-19.25,13.77-38.3,27.84-58.2,40.67-6.25,4-12.64,7.83-19,11.6-1.79,1.05-4,3-5.83.24-1.49-2.3,0-4.25,1.87-5.74,7.51-6.07,14.83-12.41,22.63-18.08,16.14-11.74,32.53-23.11,48.82-34.64,1.22-.86,2.4-1.75,3.62-2.6,3.64-2.53,4.88-6,4.11-10.28-1.91-10.49,1.4-18.76,10.31-24.78,6.52-4.4,12.75-9.22,19.41-13.38,7.4-4.63,15.41-5.08,23.52-1.73,5.24,2.17,10.34,2.31,15.22-.84,2.76-1.78,5.38-3.78,8.06-5.68,20.3-14.31,40.35-29,61.89-41.45a8.68,8.68,0,0,1,1.11-.62c1.66-.7,3.47-1.79,4.84.25,1.28,1.88-.18,3.2-1.46,4.33a391.83,391.83,0,0,1-32.91,26.11q-17.68,12.51-35.31,25.1C231.46,149.34,226.32,151.25,220.43,150.92Z"/><path class="cls-1" d="M186.6,109a45.38,45.38,0,0,1-14.31-2.87,10.4,10.4,0,0,0-10.78,1.45c-6.1,4.43-12.3,8.72-18.46,13.06-3.14,2.21-4.42,4.81-3.6,9,2.52,12.91-2.33,23.23-12.63,30.85-13,9.65-26.64,18.58-39.58,28.37C74.56,198.44,60.67,206,47,213.88A12,12,0,0,1,44.39,215c-2.5.7-4-.56-3.72-3.12a7,7,0,0,1,2.64-4.58C56.39,195.7,69.48,184.09,84,174.2c12-8.19,23.71-16.86,35.47-25.42,5.18-3.77,7.34-8.75,5.84-15.29-2.37-10.32,1.24-18.17,10.11-24,6.66-4.35,13.08-9.07,19.49-13.79,7.29-5.37,15.09-6.61,23.41-3,8.85,3.85,16.86,2.6,24.57-3Q221.87,76,241,62.63c10.63-7.45,22.24-13.23,33.58-19.47,1.33-.74,3-1.22,4.1.17s.14,3-1,4.24c-5.15,5.69-11.21,10.37-17,15.38-17,14.81-36.18,26.72-54.37,40C200.51,107.17,193.71,108.66,186.6,109Z"/><path class="cls-1" d="M160.57,71.18c-5.84.41-11.84-1.33-17.73-3.57-3.82-1.45-7.45-1.43-10.9,1-8.08,5.66-16.18,11.3-24.25,17-2,1.42-2.58,3.19-2,5.8,3.51,15.19-.89,28.17-12.67,38-9.28,7.71-19.61,14.14-29.36,21.29-17.83,13.09-36.87,24.22-56,35.18A10.26,10.26,0,0,1,4.73,187c-2.86.6-4.89-1.41-4.72-4.34s1.68-5.1,3.9-7c18.27-15.39,36.53-30.78,56.54-43.93,7-4.61,13.78-9.56,20.63-14.4,8.42-6,10.08-10.38,7.78-20.45C86.62,87.16,91,76.62,100.21,70.15c7.55-5.32,15.22-10.47,22.8-15.76,8.91-6.22,18.22-7.23,28.31-2.89,9.55,4.12,18.82,3.33,27.48-2.78q18.87-13.29,37.84-26.47c8.64-6,18.05-10.74,27.1-16.08,3-1.78,6-3.57,9.13-5.19,1.93-1,4.2-1.72,5.81.35,1.48,1.92.32,3.8-.93,5.5-4,5.47-9.71,9.16-14.64,13.65-17.55,16-37.55,28.77-56.66,42.7C178.24,69.17,171.32,71.14,160.57,71.18Z"/><path class="cls-2" d="M79.08,183.4l16.64-12.8.52.57a6.93,6.93,0,0,1-1.06,1.22Q88,177.6,80.77,182.72a7,7,0,0,1-1.76.61Z"/><path class="cls-2" d="M158.44,98.37c-3.14,2.54-6.25,5.11-9.43,7.58a9.55,9.55,0,0,1-4.48,2l14-9.51Z"/><path class="cls-2" d="M129,141.31l-1.8-13,.93-.11,1.75,13Z"/><path class="cls-2" d="M158.52,98.44a20,20,0,0,1,13.81-4.87l-13.89,4.81Z"/><path class="cls-2" d="M119,154.51l-10.18,8.63-.81-1L119,154.58Z"/><path class="cls-2" d="M79,183.33,68.33,192.1l-.73-1,11.48-7.72Z"/><path class="cls-2" d="M134.09,115.52l8.35-6.07.46.61-8.32,6Z"/><path class="cls-2" d="M119,154.58l7.65-6.36a13.22,13.22,0,0,1-7.72,6.29Z"/><path class="cls-2" d="M53.44,144.27c-12.35,8.95-24.59,18.07-36.9,27.07-3.71,2.71-7.52,5.28-11.28,7.91l-.65-.93q44.27-32.1,88.54-64.19l.36.36a78.71,78.71,0,0,1-6.42,5.73"/><path class="cls-2" d="M153.26,58.18c9.3,1.68,18-.28,26.85-4.5C175.68,60,162.46,62.19,153.26,58.18Z"/><path class="cls-2" d="M128.63,57c-3.69,2.78-7.35,5.6-11.08,8.32-2.77,2-5.65,3.88-8.48,5.81l-.52-.78c4.55-3.17,9.07-6.38,13.67-9.47,2.08-1.4,4.31-2.55,6.48-3.81Z"/><path class="cls-2" d="M128.7,57.11c2.47-3.37,8-4.67,12.52-2.53L128.63,57Z"/><path class="cls-2" d="M56.38,147.12l-8.65,6.19-.44-.61,8.56-6.31Z"/><path class="cls-2" d="M83,245.6l83.65-60.17c-2.46,2.52-4.22,4.86-6.47,6.53-6.72,5-13.67,9.69-20.48,14.56q-26.5,19-53,38c-1,.71-2,1.36-3.08,2Z"/><path class="cls-2" d="M171,158.24c2.27-1.69,4.5-3.43,6.82-5.05,5.39-3.75,10.75-7.57,16.27-11.12,5.34-3.43,11.06-3.66,17.18-1.2a72.43,72.43,0,0,1-8.3.31c-6-.44-10.42,3-14.93,6.11-5.54,3.86-11.05,7.78-16.58,11.67Z"/><path class="cls-2" d="M213.92,142.23c7,1.61,13.72,1,19.93-3.1C229.46,145,220.57,146.33,213.92,142.23Z"/></g></g></svg>