<svg xmlns="http://www.w3.org/2000/svg" viewBox="0 0 411.08 182.43"><defs><style>.cls-1{fill:#9376a8;}</style></defs><g id="Layer_2" data-name="Layer 2"><g id="Needle_types" data-name="Needle types"><path class="cls-1" d="M134.62,55.72c17.09,7.59,177,79,194,86.24,20.15,8.6,40.07,17.7,60.09,26.57a139.64,139.64,0,0,1,18.09,10.15,26.6,26.6,0,0,1,3.4,2.37c.29.24.69.39.52.84a.88.88,0,0,1-1.09.51c-1.14-.27-2.28-.55-3.4-.91q-7.75-2.52-15.49-5.1c-1.06-.35-2.11-.71-3.13-1.15-35.4-15.29-70.61-31-105.82-46.69-8.3-3.7-16.59-7.45-24.94-11.07C193.91,90.22,131.56,61.71,68.77,34.17,57.89,29.4,47.05,24.53,36.07,20c-4.86-2-9.67-4.12-14.51-6.18a4.53,4.53,0,0,0-2.69-.4c-4,.67-7-1.34-10-3.51a1.31,1.31,0,0,1-.33-.44c-1.25-2.57-.21-4.82,1-7a4.44,4.44,0,0,1,5-2.39C17.8.64,21.2,1.5,22.73,4.53c1.14,2.25,2.84,3,4.75,3.86,8.08,3.6,16.15,7.24,24.28,10.76C53.46,19.89,134.2,55.54,134.62,55.72Z"/><path class="cls-1" d="M12.54,157c1.53.62,2.62-.11,4-.74,3.66-1.63,30.63-12.12,30.89-12.12,3.59-.08,182.61-71,183.54-71.33Q310.23,42.38,389.47,12c5.17-2,10.68-3,16-4.49,1.39-.38,3,.12,4.26-.89a.8.8,0,0,1,1.24.41c.23.68-.3,1-.81,1.26-2.84,1.51-5.67,3-8.53,4.49-24.43,12.47-50.59,20.68-76,30.74C251.23,73,176.27,101.18,101.56,130c-7,2.69-14,5.17-20.92,8.09-14.13,6-28.67,11-42.83,16.85-6.91,2.88-13.91,5.53-20.86,8.31a4.53,4.53,0,0,0-2.18,1.63c-2.33,3.39-6,4-9.69,4.74a1.14,1.14,0,0,1-.55-.05c-2.65-.75-3.53-2.95-4.21-5.24-.57-1.93-.51-3.88,1.22-5.27a14.86,14.86,0,0,1,8.35-3.24c1-.08,2.17-.1,2.68,1.16C11.65,157.65,12.57,157.51,12.54,157Z"/></g></g></svg>