<svg xmlns="http://www.w3.org/2000/svg" xmlns:xlink="http://www.w3.org/1999/xlink" width="612" height="792" viewBox="0 0 612 792">
  <defs>
    <style>
      .cls-1, .cls-10, .cls-11, .cls-12, .cls-3, .cls-4, .cls-54, .cls-55, .cls-58, .cls-8 {
        fill: none;
      }

      .cls-2 {
        opacity: 0.8;
      }

      .cls-10, .cls-11, .cls-12, .cls-3, .cls-4, .cls-8 {
        stroke: #6d6f71;
        stroke-linecap: round;
        stroke-miterlimit: 10;
        stroke-width: 0.75px;
      }

      .cls-4 {
        stroke-dasharray: 0 6.06;
      }

      .cls-23, .cls-5, .cls-59 {
        font-size: 11px;
      }

      .cls-36, .cls-5, .cls-53 {
        fill: #231f20;
      }

      .cls-16, .cls-23, .cls-36, .cls-5, .cls-53 {
        font-family: GravesendSans-Medium, Gravesend Sans;
        font-weight: 500;
      }

      .cls-6 {
        letter-spacing: 0em;
      }

      .cls-7 {
        letter-spacing: -0.01em;
      }

      .cls-8 {
        stroke-dasharray: 0 6.03;
      }

      .cls-9 {
        letter-spacing: 0em;
      }

      .cls-10 {
        stroke-dasharray: 0 6.05;
      }

      .cls-11 {
        stroke-dasharray: 0 5.93;
      }

      .cls-12 {
        stroke-dasharray: 0 5.96;
      }

      .cls-13 {
        font-size: 30px;
        font-family: GravesendSans-Inline, Gravesend Sans;
      }

      .cls-14 {
        letter-spacing: -0.01em;
      }

      .cls-15 {
        letter-spacing: 0em;
      }

      .cls-16 {
        font-size: 18px;
      }

      .cls-17 {
        letter-spacing: -0.01em;
      }

      .cls-18 {
        letter-spacing: -0.01em;
      }

      .cls-19 {
        letter-spacing: -0.02em;
      }

      .cls-20 {
        letter-spacing: -0.07em;
      }

      .cls-21 {
        letter-spacing: 0em;
      }

      .cls-22 {
        letter-spacing: 0em;
      }

      .cls-23, .cls-41, .cls-45, .cls-47, .cls-50, .cls-56, .cls-59 {
        isolation: isolate;
      }

      .cls-23, .cls-56, .cls-59 {
        fill: #010101;
      }

      .cls-24 {
        letter-spacing: -0.02em;
      }

      .cls-25 {
        letter-spacing: -0.03em;
      }

      .cls-26 {
        letter-spacing: -0.01em;
      }

      .cls-27 {
        letter-spacing: -0.03em;
      }

      .cls-28 {
        letter-spacing: 0em;
      }

      .cls-29 {
        letter-spacing: -0.17em;
      }

      .cls-30 {
        letter-spacing: -0.01em;
      }

      .cls-31 {
        letter-spacing: -0.04em;
      }

      .cls-32 {
        letter-spacing: -0.01em;
      }

      .cls-33 {
        letter-spacing: 0em;
      }

      .cls-34 {
        letter-spacing: -0.03em;
      }

      .cls-35 {
        letter-spacing: -0.01em;
      }

      .cls-36 {
        font-size: 13px;
      }

      .cls-37 {
        letter-spacing: -0.01em;
      }

      .cls-38 {
        letter-spacing: 0em;
      }

      .cls-39 {
        letter-spacing: -0.02em;
      }

      .cls-40 {
        clip-path: url(#clip-path);
      }

      .cls-41 {
        fill: #50a3cb;
      }

      .cls-41, .cls-45, .cls-47, .cls-50 {
        opacity: 0.25;
      }

      .cls-42 {
        clip-path: url(#clip-path-2);
      }

      .cls-43 {
        clip-path: url(#clip-path-3);
      }

      .cls-44 {
        clip-path: url(#clip-path-4);
      }

      .cls-45 {
        fill: #46184d;
      }

      .cls-46 {
        clip-path: url(#clip-path-5);
      }

      .cls-47 {
        fill: #c23d91;
      }

      .cls-48 {
        clip-path: url(#clip-path-6);
      }

      .cls-49 {
        clip-path: url(#clip-path-7);
      }

      .cls-50 {
        fill: #740e28;
      }

      .cls-51 {
        clip-path: url(#clip-path-8);
      }

      .cls-52 {
        clip-path: url(#clip-path-9);
      }

      .cls-53 {
        font-size: 12px;
      }

      .cls-54, .cls-55, .cls-58 {
        stroke: #010101;
      }

      .cls-54 {
        stroke-width: 0.91px;
      }

      .cls-56 {
        font-size: 10px;
      }

      .cls-56, .cls-59 {
        font-family: GravesendSans-Light, Gravesend Sans;
        font-weight: 300;
      }

      .cls-57 {
        letter-spacing: -0.01em;
      }

      .cls-58 {
        stroke-width: 1.02px;
      }

      .cls-60 {
        letter-spacing: -0.06em;
      }

      .cls-61 {
        letter-spacing: 0em;
      }

      .cls-62 {
        letter-spacing: -0.04em;
      }

      .cls-63 {
        letter-spacing: -0.07em;
      }

      .cls-64 {
        letter-spacing: -0.04em;
      }

      .cls-65 {
        letter-spacing: 0em;
      }

      .cls-66 {
        letter-spacing: 0em;
      }
    </style>
    <clipPath id="clip-path">
      <rect class="cls-1" x="104.83" y="233.31" width="260" height="22.28"/>
    </clipPath>
    <clipPath id="clip-path-2">
      <rect class="cls-1" x="104.83" y="363.88" width="260" height="22.28"/>
    </clipPath>
    <clipPath id="clip-path-3">
      <rect class="cls-1" x="103.83" y="378.57" width="260" height="22.28"/>
    </clipPath>
    <clipPath id="clip-path-4">
      <rect class="cls-1" x="104.62" y="514.14" width="260" height="22.28"/>
    </clipPath>
    <clipPath id="clip-path-5">
      <rect class="cls-1" x="104.33" y="658.92" width="260" height="22.28"/>
    </clipPath>
    <clipPath id="clip-path-6">
      <rect class="cls-1" x="103.83" y="684.52" width="260" height="22.28"/>
    </clipPath>
    <clipPath id="clip-path-7">
      <rect class="cls-1" x="104.33" y="220.17" width="260" height="22.28"/>
    </clipPath>
    <clipPath id="clip-path-8">
      <rect class="cls-1" x="106.93" y="601.52" width="260" height="22.28"/>
    </clipPath>
    <clipPath id="clip-path-9">
      <rect class="cls-1" x="103.83" y="137.22" width="260" height="22.28"/>
    </clipPath>
  </defs>
  <g id="Horizon">
    <g id="Layer_5" data-name="Layer 5">
      <g class="cls-2">
        <g>
          <line class="cls-3" x1="103.83" y1="160.57" x2="103.83" y2="160.57"/>
          <line class="cls-4" x1="109.88" y1="160.57" x2="361.3" y2="160.57"/>
          <line class="cls-3" x1="364.33" y1="160.57" x2="364.33" y2="160.57"/>
        </g>
      </g>
      <text class="cls-5" transform="translate(63.42 164.67)">1<tspan class="cls-6" x="3.13" y="0">9</tspan><tspan class="cls-7" x="9.14" y="0">7</tspan><tspan x="14.27" y="0">3</tspan></text>
      <g class="cls-2">
        <g>
          <line class="cls-3" x1="104.33" y1="243.34" x2="104.33" y2="243.34"/>
          <line class="cls-8" x1="110.36" y1="243.34" x2="360.81" y2="243.34"/>
          <line class="cls-3" x1="363.83" y1="243.34" x2="363.83" y2="243.34"/>
        </g>
      </g>
      <text class="cls-5" transform="translate(63.42 245.92)">1<tspan class="cls-6" x="3.13" y="0">9</tspan><tspan x="9.14" y="0">77</tspan></text>
      <g class="cls-2">
        <g>
          <line class="cls-3" x1="104.83" y1="256.88" x2="104.83" y2="256.88"/>
          <line class="cls-8" x1="110.86" y1="256.88" x2="361.31" y2="256.88"/>
          <line class="cls-3" x1="364.33" y1="256.88" x2="364.33" y2="256.88"/>
        </g>
      </g>
      <text class="cls-5" transform="translate(63.42 259.51)">1<tspan class="cls-6" x="3.13" y="0">9</tspan><tspan class="cls-7" x="9.14" y="0">7</tspan><tspan class="cls-9" x="14.27" y="0">8</tspan></text>
      <g class="cls-2">
        <g>
          <line class="cls-3" x1="104.83" y1="387.11" x2="104.83" y2="387.11"/>
          <line class="cls-10" x1="110.87" y1="387.11" x2="361.8" y2="387.11"/>
          <line class="cls-3" x1="364.83" y1="387.11" x2="364.83" y2="387.11"/>
        </g>
      </g>
      <text class="cls-5" transform="translate(63.42 391.25)">1988</text>
      <text class="cls-5" transform="translate(63.42 405.3)">1990</text>
      <g class="cls-2">
        <g>
          <line class="cls-3" x1="104.83" y1="402.26" x2="104.83" y2="402.26"/>
          <line class="cls-11" x1="110.76" y1="402.26" x2="362.99" y2="402.26"/>
          <line class="cls-3" x1="365.96" y1="402.26" x2="365.96" y2="402.26"/>
        </g>
      </g>
      <text class="cls-5" transform="translate(63.42 541.81)">2000</text>
      <g class="cls-2">
        <g>
          <line class="cls-3" x1="104.62" y1="537.42" x2="104.62" y2="537.42"/>
          <line class="cls-10" x1="110.67" y1="537.42" x2="361.6" y2="537.42"/>
          <line class="cls-3" x1="364.62" y1="537.42" x2="364.62" y2="537.42"/>
        </g>
      </g>
      <text class="cls-5" transform="translate(63.42 628.47)">2006</text>
      <g class="cls-2">
        <g>
          <line class="cls-3" x1="104.83" y1="624.69" x2="104.83" y2="624.69"/>
          <line class="cls-12" x1="110.78" y1="624.69" x2="363.96" y2="624.69"/>
          <line class="cls-3" x1="366.93" y1="624.69" x2="366.93" y2="624.69"/>
        </g>
      </g>
      <text class="cls-5" transform="translate(63.42 685.53)">2012</text>
      <g class="cls-2">
        <g>
          <line class="cls-3" x1="104.83" y1="682.32" x2="104.83" y2="682.32"/>
          <line class="cls-11" x1="110.76" y1="682.32" x2="362.99" y2="682.32"/>
          <line class="cls-3" x1="365.96" y1="682.32" x2="365.96" y2="682.32"/>
        </g>
      </g>
      <text class="cls-5" transform="translate(63.42 710.87)">2013</text>
      <g class="cls-2">
        <g>
          <line class="cls-3" x1="104.83" y1="707.59" x2="104.83" y2="707.59"/>
          <line class="cls-11" x1="110.76" y1="707.59" x2="362.99" y2="707.59"/>
          <line class="cls-3" x1="365.96" y1="707.59" x2="365.96" y2="707.59"/>
        </g>
      </g>
      <text class="cls-13" transform="translate(184.46 76.92)">H<tspan class="cls-14" x="22.74" y="0">o</tspan><tspan x="46.05" y="0">w we </tspan><tspan class="cls-15" x="137.28" y="0">li</tspan><tspan class="cls-14" x="163.86" y="0">s</tspan><tspan x="182.58" y="0">ten</tspan><tspan class="cls-16"><tspan x="-62.71" y="21.6">Number of sal</tspan><tspan class="cls-17" x="86.96" y="21.6">e</tspan><tspan x="98.42" y="21.6">s </tspan><tspan class="cls-18" x="114.59" y="21.6">b</tspan><tspan x="126.79" y="21.6">y </tspan><tspan class="cls-19" x="143.15" y="21.6">F</tspan><tspan x="153.74" y="21.6">orm</tspan><tspan class="cls-20" x="196.58" y="21.6">a</tspan><tspan x="208.22" y="21.6">t 1</tspan><tspan class="cls-21" x="228.67" y="21.6">9</tspan><tspan class="cls-22" x="238.5" y="21.6">75 - 2019</tspan></tspan></text>
      <text class="cls-23" transform="translate(372.49 259.65)">8 - T<tspan class="cls-24" x="21.55" y="0">r</tspan><tspan class="cls-25" x="28.87" y="0">a</tspan><tspan x="36.46" y="0">ck</tspan></text>
      <text class="cls-23" transform="translate(372.49 389.71)">Ca<tspan class="cls-6" x="15.58" y="0">s</tspan><tspan x="22.56" y="0">sette</tspan></text>
      <text class="cls-23" transform="translate(372.49 405.31)">Ca<tspan class="cls-6" x="15.58" y="0">s</tspan><tspan x="22.56" y="0">sette single</tspan></text>
      <text class="cls-23" transform="translate(372.49 538.81) scale(0.98 1)">CD</text>
      <text class="cls-23" transform="translate(372.49 685.53)">D<tspan class="cls-26" x="8.07" y="0">o</tspan><tspan x="16.74" y="0">wn</tspan><tspan class="cls-27" x="35.88" y="0">lo</tspan><tspan class="cls-28" x="50.36" y="0">ad album</tspan></text>
      <text class="cls-23" transform="translate(372.49 711.16)">D<tspan class="cls-26" x="8.07" y="0">o</tspan><tspan x="16.74" y="0">wn</tspan><tspan class="cls-27" x="35.88" y="0">lo</tspan><tspan class="cls-28" x="50.36" y="0">ad single</tspan></text>
      <text class="cls-23" transform="translate(372.49 246.06)">LP/<tspan class="cls-29" x="17.57" y="0"> </tspan><tspan x="18.57" y="0">EP</tspan></text>
      <text class="cls-23" transform="translate(372.49 628.47) scale(0.97 1)">Rin<tspan class="cls-30" x="19.24" y="0">g</tspan><tspan class="cls-31" x="27.43" y="0">t</tspan><tspan x="33.54" y="0">on</tspan><tspan class="cls-32" x="50.87" y="0">e</tspan><tspan class="cls-33" x="57.88" y="0">s &amp; ringb</tspan><tspan class="cls-34" x="112.78" y="0">a</tspan><tspan x="120.37" y="0">c</tspan><tspan class="cls-35" x="128.06" y="0">k</tspan><tspan x="135.03" y="0">s</tspan></text>
      <text class="cls-23" transform="translate(372.49 164.67)">Vinyl single</text>
      <text class="cls-36" transform="translate(41.15 514.14) rotate(-90)">P<tspan class="cls-37" x="8.68" y="0">e</tspan><tspan x="17" y="0">ak y</tspan><tspan class="cls-37" x="46.57" y="0">e</tspan><tspan class="cls-38" x="54.89" y="0">ar of uni</tspan><tspan class="cls-39" x="121.83" y="0">t</tspan><tspan x="129.31" y="0">s sold</tspan></text>
    </g>
    <g id="Layer_6" data-name="Layer 6">
      <g class="cls-40">
        <g id="_8_-_Track" data-name="8 - Track">
          <g id="positive">
            <path class="cls-41" d="M104.83,249.8c1.88-.18,3.76-.36,5.64-.36s3.77.14,5.65.14a31.14,31.14,0,0,0,5.65-.74c1.89-.34,3.78-1.07,5.67-1.34a39.62,39.62,0,0,1,5.64-.4c1.89,0,3.77,1.47,5.65,2s3.77.54,5.65,1.1,3.78,1.46,5.66,2.22,3.77,1.53,5.65,2.31v.87H104.83Z"/>
            <path class="cls-41" d="M104.83,272.08c1.88-.18,3.76-.36,5.64-.36s3.77.14,5.65.14a31.14,31.14,0,0,0,5.65-.74c1.89-.34,3.78-1.07,5.67-1.34a39.62,39.62,0,0,1,5.64-.4c1.89,0,3.77,1.47,5.65,2s3.77.54,5.65,1.1,3.78,1.46,5.66,2.22,3.77,1.53,5.65,2.3v.88H104.83Z"/>
            <path class="cls-41" d="M104.83,294.36c1.88-.18,3.76-.36,5.64-.36s3.77.13,5.65.13a31.12,31.12,0,0,0,5.65-.73c1.89-.34,3.78-1.08,5.67-1.34a39.62,39.62,0,0,1,5.64-.4c1.89,0,3.77,1.47,5.65,2s3.77.54,5.65,1.09,3.78,1.47,5.66,2.23,3.77,1.53,5.65,2.3v.88H104.83Z"/>
            <path class="cls-41" d="M104.83,316.64c1.88-.18,3.76-.36,5.64-.36s3.77.13,5.65.13a31.12,31.12,0,0,0,5.65-.73c1.89-.34,3.78-1.08,5.67-1.34a39.62,39.62,0,0,1,5.64-.4c1.89,0,3.77,1.47,5.65,2s3.77.54,5.65,1.09,3.78,1.47,5.66,2.23,3.77,1.53,5.65,2.3v.87H104.83Z"/>
          </g>
          <g id="negative">
            <path class="cls-41" d="M104.83,261.37c1.88.18,3.76.36,5.64.36s3.77-.13,5.65-.13a31.12,31.12,0,0,1,5.65.73c1.89.34,3.78,1.08,5.67,1.34a39.62,39.62,0,0,0,5.64.4c1.89,0,3.77-1.47,5.65-2s3.77-.54,5.65-1.09,3.78-1.47,5.66-2.23,3.77-1.53,5.65-2.3v-.87H104.83Z"/>
            <path class="cls-41" d="M104.83,283.65c1.88.18,3.76.36,5.64.36s3.77-.13,5.65-.13a31.12,31.12,0,0,1,5.65.73c1.89.34,3.78,1.08,5.67,1.34a39.62,39.62,0,0,0,5.64.4c1.89,0,3.77-1.47,5.65-2s3.77-.54,5.65-1.09,3.78-1.47,5.66-2.23,3.77-1.53,5.65-2.3v-.87H104.83Z"/>
            <path class="cls-41" d="M104.83,305.93c1.88.18,3.76.36,5.64.36s3.77-.13,5.65-.13a31.12,31.12,0,0,1,5.65.73c1.89.34,3.78,1.08,5.67,1.34a39.62,39.62,0,0,0,5.64.4c1.89,0,3.77-1.47,5.65-2s3.77-.54,5.65-1.09,3.78-1.47,5.66-2.23,3.77-1.53,5.65-2.3v-.87H104.83Z"/>
            <path class="cls-41" d="M104.83,328.21c1.88.18,3.76.36,5.64.36s3.77-.14,5.65-.14a31.14,31.14,0,0,1,5.65.74c1.89.34,3.78,1.07,5.67,1.34a39.62,39.62,0,0,0,5.64.4c1.89,0,3.77-1.47,5.65-2s3.77-.54,5.65-1.1,3.78-1.46,5.66-2.22,3.77-1.53,5.65-2.3v-.88H104.83Z"/>
          </g>
        </g>
      </g>
      <g class="cls-42">
        <g id="Cassette">
          <g id="positive-2" data-name="positive">
            <path class="cls-41" d="M104.83,385.21l5.64,0c1.89,0,3.77,0,5.65-.06a53.93,53.93,0,0,0,11.32-1.31c1.88-.42,3.76-1.11,5.64-1.55s3.77-.7,5.65-1.09,3.77-.83,5.65-1.31a28.38,28.38,0,0,0,5.66-1.59c1.89-.89,3.77-2.56,5.65-3.76s3.77-1.83,5.65-3.4,3.77-5.75,5.65-6.05,3.78-.32,5.66-.45,3.77-.12,5.65-.34,3.77-3,5.65-4.17,3.77-2.54,5.65-2.54,3.78.16,5.66.24,3.77.09,5.65.26,3.77,5.21,5.65,5.21,3.77-.4,5.65-.4,3.77,1.71,5.66,1.71,3.77-.37,5.65-.37,3.77,3.35,5.65,4.62,3.77,2,5.65,3,3.77,2.75,5.66,3.35,3.77.37,5.65.89a37.76,37.76,0,0,1,5.65,2.22c1.88.87,3.76,2.19,5.65,3a34.32,34.32,0,0,0,5.66,2c1.88.48,3.77.59,5.65.89s3.77.61,5.65.88,3.76.65,5.65.76,3.77.13,5.66.17,3.77.11,5.65.12l5.65,0,5.65,0H104.83Z"/>
            <path class="cls-41" d="M104.83,407.49l5.64,0c1.89,0,3.77,0,5.65-.06s3.77-.13,5.65-.35a55.94,55.94,0,0,0,5.67-1c1.88-.42,3.76-1.11,5.64-1.55s3.77-.7,5.65-1.1,3.77-.82,5.65-1.3a28.38,28.38,0,0,0,5.66-1.59c1.89-.89,3.77-2.56,5.65-3.76s3.77-1.83,5.65-3.4,3.77-5.75,5.65-6,3.78-.32,5.66-.45,3.77-.12,5.65-.34,3.77-3.05,5.65-4.17,3.77-2.54,5.65-2.54,3.78.16,5.66.24,3.77.09,5.65.26,3.77,5.21,5.65,5.21,3.77-.4,5.65-.4,3.77,1.71,5.66,1.71,3.77-.37,5.65-.37,3.77,3.35,5.65,4.62,3.77,1.95,5.65,3,3.77,2.75,5.66,3.35,3.77.37,5.65.89a37.76,37.76,0,0,1,5.65,2.22c1.88.87,3.76,2.19,5.65,3a34.32,34.32,0,0,0,5.66,2c1.88.48,3.77.59,5.65.89s3.77.61,5.65.88,3.76.65,5.65.76,3.77.13,5.66.17,3.77.11,5.65.12l5.65,0,5.65,0H104.83Z"/>
            <path class="cls-41" d="M104.83,429.77l5.64,0c1.89,0,3.77,0,5.65-.06s3.77-.13,5.65-.35a55.94,55.94,0,0,0,5.67-1c1.88-.42,3.76-1.11,5.64-1.55s3.77-.7,5.65-1.1,3.77-.82,5.65-1.3a28.38,28.38,0,0,0,5.66-1.59c1.89-.89,3.77-2.56,5.65-3.76s3.77-1.83,5.65-3.4,3.77-5.75,5.65-6.05,3.78-.32,5.66-.45,3.77-.12,5.65-.34,3.77-3,5.65-4.17,3.77-2.54,5.65-2.54,3.78.16,5.66.24,3.77.09,5.65.26,3.77,5.21,5.65,5.21,3.77-.4,5.65-.4,3.77,1.71,5.66,1.71,3.77-.37,5.65-.37,3.77,3.35,5.65,4.62,3.77,2,5.65,3,3.77,2.75,5.66,3.35,3.77.37,5.65.89a37.76,37.76,0,0,1,5.65,2.22c1.88.87,3.76,2.19,5.65,3a34.32,34.32,0,0,0,5.66,2c1.88.48,3.77.59,5.65.89s3.77.6,5.65.88,3.76.65,5.65.76,3.77.13,5.66.17,3.77.1,5.65.12l5.65,0,5.65,0H104.83Z"/>
            <path class="cls-41" d="M104.83,452.05l5.64,0c1.89,0,3.77,0,5.65-.06s3.77-.13,5.65-.35a55.94,55.94,0,0,0,5.67-1c1.88-.42,3.76-1.11,5.64-1.55s3.77-.7,5.65-1.1,3.77-.82,5.65-1.3a28.38,28.38,0,0,0,5.66-1.59c1.89-.89,3.77-2.56,5.65-3.76s3.77-1.83,5.65-3.4,3.77-5.75,5.65-6,3.78-.32,5.66-.45,3.77-.12,5.65-.35,3.77-3,5.65-4.16,3.77-2.54,5.65-2.54,3.78.16,5.66.24,3.77.09,5.65.26,3.77,5.21,5.65,5.21,3.77-.4,5.65-.4,3.77,1.71,5.66,1.71,3.77-.37,5.65-.37,3.77,3.35,5.65,4.62,3.77,1.95,5.65,3,3.77,2.75,5.66,3.35,3.77.37,5.65.89a37.76,37.76,0,0,1,5.65,2.22c1.88.87,3.76,2.19,5.65,3a34.32,34.32,0,0,0,5.66,2c1.88.48,3.77.59,5.65.89s3.77.6,5.65.88,3.76.65,5.65.76,3.77.13,5.66.17,3.77.1,5.65.12l5.65,0,5.65,0H104.83Z"/>
          </g>
          <g id="negative-2" data-name="negative">
            <path class="cls-41" d="M104.83,387.12h5.64c1.89,0,3.77,0,5.65.06s3.77.14,5.65.36a55.94,55.94,0,0,1,5.67,1c1.88.41,3.76,1.11,5.64,1.55s3.77.69,5.65,1.09,3.77.82,5.65,1.3A29.06,29.06,0,0,1,150,394c1.89.89,3.77,2.57,5.65,3.76s3.77,1.83,5.65,3.41,3.77,5.75,5.65,6.05,3.78.31,5.66.45,3.77.11,5.65.34,3.77,3,5.65,4.16,3.77,2.55,5.65,2.55,3.78-.17,5.66-.25,3.77-.08,5.65-.25,3.77-5.22,5.65-5.22,3.77.4,5.65.4,3.77-1.71,5.66-1.71,3.77.38,5.65.38,3.77-3.36,5.65-4.63,3.77-2,5.65-3,3.77-2.75,5.66-3.35,3.77-.38,5.65-.9a37.69,37.69,0,0,0,5.65-2.21c1.88-.88,3.76-2.2,5.65-3a36.27,36.27,0,0,1,5.66-2c1.88-.47,3.77-.59,5.65-.88s3.77-.61,5.65-.88,3.76-.65,5.65-.77,3.77-.12,5.66-.17,3.77-.1,5.65-.11,3.77,0,5.65,0l5.65,0H104.83Z"/>
            <path class="cls-41" d="M104.83,409.4h5.64c1.89,0,3.77,0,5.65.06s3.77.14,5.65.36a55.94,55.94,0,0,1,5.67,1c1.88.41,3.76,1.11,5.64,1.55s3.77.69,5.65,1.09,3.77.82,5.65,1.3a29.06,29.06,0,0,1,5.66,1.59c1.89.89,3.77,2.57,5.65,3.76s3.77,1.83,5.65,3.41,3.77,5.74,5.65,6,3.78.32,5.66.46,3.77.11,5.65.34,3.77,3,5.65,4.16,3.77,2.55,5.65,2.55,3.78-.17,5.66-.25,3.77-.08,5.65-.25,3.77-5.22,5.65-5.22,3.77.4,5.65.4S216,430,217.87,430s3.77.38,5.65.38,3.77-3.36,5.65-4.63,3.77-1.95,5.65-3,3.77-2.75,5.66-3.35,3.77-.38,5.65-.9a36.71,36.71,0,0,0,5.65-2.22c1.88-.87,3.76-2.19,5.65-3a36.27,36.27,0,0,1,5.66-2c1.88-.47,3.77-.59,5.65-.88s3.77-.61,5.65-.89,3.76-.64,5.65-.76,3.77-.12,5.66-.17,3.77-.1,5.65-.11,3.77,0,5.65,0l5.65,0H104.83Z"/>
            <path class="cls-41" d="M104.83,431.67l5.64,0c1.89,0,3.77,0,5.65.06s3.77.14,5.65.36a55.94,55.94,0,0,1,5.67,1c1.88.41,3.76,1.11,5.64,1.55s3.77.69,5.65,1.09,3.77.82,5.65,1.3A29.06,29.06,0,0,1,150,438.6c1.89.89,3.77,2.57,5.65,3.76s3.77,1.83,5.65,3.41,3.77,5.74,5.65,6,3.78.32,5.66.46,3.77.11,5.65.34,3.77,3,5.65,4.16,3.77,2.55,5.65,2.55,3.78-.17,5.66-.25,3.77-.08,5.65-.25,3.77-5.22,5.65-5.22,3.77.4,5.65.4,3.77-1.71,5.66-1.71,3.77.38,5.65.38,3.77-3.36,5.65-4.63,3.77-2,5.65-3,3.77-2.75,5.66-3.35,3.77-.38,5.65-.9a36.71,36.71,0,0,0,5.65-2.22c1.88-.87,3.76-2.19,5.65-3a36.27,36.27,0,0,1,5.66-2c1.88-.47,3.77-.59,5.65-.88s3.77-.61,5.65-.89,3.76-.64,5.65-.76,3.77-.12,5.66-.17,3.77-.1,5.65-.11,3.77,0,5.65,0l5.65,0H104.83Z"/>
            <path class="cls-41" d="M104.83,454l5.64,0c1.89,0,3.77,0,5.65.06s3.77.14,5.65.36a55.94,55.94,0,0,1,5.67,1c1.88.41,3.76,1.11,5.64,1.55s3.77.69,5.65,1.09,3.77.82,5.65,1.3a29.06,29.06,0,0,1,5.66,1.59c1.89.89,3.77,2.57,5.65,3.76s3.77,1.83,5.65,3.41,3.77,5.74,5.65,6,3.78.32,5.66.46,3.77.11,5.65.34,3.77,3,5.65,4.16,3.77,2.55,5.65,2.55,3.78-.17,5.66-.25,3.77-.09,5.65-.25,3.77-5.22,5.65-5.22,3.77.4,5.65.4,3.77-1.71,5.66-1.71,3.77.38,5.65.38,3.77-3.36,5.65-4.63,3.77-1.95,5.65-3,3.77-2.75,5.66-3.35,3.77-.38,5.65-.9a36.71,36.71,0,0,0,5.65-2.22c1.88-.87,3.76-2.19,5.65-3a36.27,36.27,0,0,1,5.66-2c1.88-.47,3.77-.59,5.65-.88s3.77-.61,5.65-.89,3.76-.64,5.65-.76,3.77-.12,5.66-.17,3.77-.1,5.65-.11,3.77,0,5.65,0l5.65,0H104.83Z"/>
          </g>
        </g>
      </g>
      <g class="cls-43">
        <g id="Cassette_Single" data-name="Cassette Single">
          <g id="positive-3" data-name="positive">
            <path class="cls-41" d="M183,400.53a20.58,20.58,0,0,0,5.65-1.11c1.89-.74,3.78-2.94,5.66-3.41a22.84,22.84,0,0,1,5.65-.71c1.88,0,3.77,1.17,5.65,1.17s3.77-1,5.65-1,3.77-.07,5.66-.07,3.77.13,5.65.29,3.77.43,5.65.66,3.77.38,5.65.68,3.77.77,5.66,1.13,3.77.71,5.65,1,3.77.51,5.65.78,3.76.54,5.65.82v.08H183Z"/>
            <path class="cls-41" d="M183,422.81a20.58,20.58,0,0,0,5.65-1.11c1.89-.74,3.78-2.94,5.66-3.41a22.84,22.84,0,0,1,5.65-.71c1.88,0,3.77,1.17,5.65,1.17s3.77-.95,5.65-1,3.77-.07,5.66-.07,3.77.13,5.65.29,3.77.43,5.65.66,3.77.38,5.65.68,3.77.77,5.66,1.13,3.77.71,5.65,1,3.77.51,5.65.78,3.76.54,5.65.82v.08H183Z"/>
            <path class="cls-41" d="M183,445.09A20.58,20.58,0,0,0,188.6,444c1.89-.74,3.78-2.94,5.66-3.41a22.84,22.84,0,0,1,5.65-.71c1.88,0,3.77,1.17,5.65,1.17s3.77-.95,5.65-1,3.77-.06,5.66-.06,3.77.13,5.65.29,3.77.43,5.65.66,3.77.38,5.65.68,3.77.77,5.66,1.13,3.77.71,5.65,1,3.77.51,5.65.78,3.76.54,5.65.82v.08H183Z"/>
            <path class="cls-41" d="M183,467.37a20.58,20.58,0,0,0,5.65-1.11c1.89-.74,3.78-2.94,5.66-3.41a22.84,22.84,0,0,1,5.65-.71c1.88,0,3.77,1.17,5.65,1.17s3.77-.95,5.65-1,3.77-.06,5.66-.06,3.77.13,5.65.29,3.77.43,5.65.66,3.77.38,5.65.68,3.77.77,5.66,1.13,3.77.71,5.65,1,3.77.51,5.65.78,3.76.54,5.65.82v.08H183Z"/>
          </g>
          <g id="negative-3" data-name="negative">
            <path class="cls-41" d="M183,401.17a20.58,20.58,0,0,1,5.65,1.11c1.89.74,3.78,2.94,5.66,3.41a22.84,22.84,0,0,0,5.65.71c1.88,0,3.77-1.17,5.65-1.17s3.77.95,5.65,1,3.77.06,5.66.06,3.77-.13,5.65-.29,3.77-.43,5.65-.66,3.77-.38,5.65-.68,3.77-.77,5.66-1.13,3.77-.71,5.65-1,3.77-.51,5.65-.78,3.76-.54,5.65-.82v-.08H183Z"/>
            <path class="cls-41" d="M183,423.45a20.58,20.58,0,0,1,5.65,1.11c1.89.74,3.78,2.94,5.66,3.41a22.84,22.84,0,0,0,5.65.71c1.88,0,3.77-1.17,5.65-1.17s3.77.95,5.65,1,3.77.07,5.66.07,3.77-.13,5.65-.29,3.77-.43,5.65-.66,3.77-.38,5.65-.68,3.77-.77,5.66-1.13,3.77-.71,5.65-1,3.77-.51,5.65-.78,3.76-.54,5.65-.82v-.08H183Z"/>
            <path class="cls-41" d="M183,445.73a20.58,20.58,0,0,1,5.65,1.11c1.89.74,3.78,2.94,5.66,3.41a22.84,22.84,0,0,0,5.65.71c1.88,0,3.77-1.17,5.65-1.17s3.77.95,5.65,1,3.77.07,5.66.07,3.77-.13,5.65-.29,3.77-.43,5.65-.66,3.77-.38,5.65-.68,3.77-.77,5.66-1.13,3.77-.71,5.65-1,3.77-.51,5.65-.78,3.76-.54,5.65-.82v-.08H183Z"/>
            <path class="cls-41" d="M183,468a20.58,20.58,0,0,1,5.65,1.11c1.89.74,3.78,2.93,5.66,3.41a23.33,23.33,0,0,0,5.65.71c1.88,0,3.77-1.17,5.65-1.17s3.77.95,5.65,1,3.77.07,5.66.07,3.77-.13,5.65-.29,3.77-.43,5.65-.66,3.77-.38,5.65-.69,3.77-.76,5.66-1.12,3.77-.71,5.65-1,3.77-.51,5.65-.78,3.76-.54,5.65-.82v-.08H183Z"/>
          </g>
        </g>
      </g>
      <g class="cls-44">
        <g id="CD">
          <g>
            <g id="positive-4" data-name="positive">
              <path class="cls-45" d="M161.14,536.37c1.88-.06,3.76-.11,5.65-.32a38.87,38.87,0,0,0,5.66-1.07,37,37,0,0,0,5.65-1.93c1.88-.84,3.77-2.1,5.65-3.12s3.76-1.91,5.65-3a55.77,55.77,0,0,0,5.66-3.66c1.88-1.44,3.77-3.7,5.65-5s3.76-1.7,5.65-3a55.7,55.7,0,0,0,5.65-4.71c1.88-1.72,3.77-2.88,5.66-5.59s3.77-8.18,5.65-10.59,3.76-2.62,5.65-3.86,3.76-3.56,5.65-3.56,3.77,1.64,5.66,1.64,3.77-4,5.65-6,3.76-5.69,5.65-5.84,3.76-.23,5.64-.23,3.78,2.37,5.67,3.85,3.76,3.55,5.65,5,3.76,3.64,5.65,3.64,3.76-1.33,5.64-1.33,3.78,2.35,5.67,3.91a46.76,46.76,0,0,1,5.65,5.45c1.88,2.17,3.76,5,5.65,7.62s3.76,6.19,5.64,8.34a24.14,24.14,0,0,0,5.67,4.56,20.66,20.66,0,0,0,5.65,2.77c1.88.52,3.76.26,5.64.78s3.77,2,5.65,2.71,3.78.92,5.67,1.55,3.76,1.63,5.65,2.23,3.76.93,5.64,1.37,3.77.93,5.65,1.24,3.78.21,5.67.63,3.76,2,5.64,2.27,3.77.29,5.65.34v3H161.14Z"/>
              <path class="cls-45" d="M161.14,558.65c1.88-.06,3.76-.11,5.65-.32a38.87,38.87,0,0,0,5.66-1.07,37,37,0,0,0,5.65-1.93c1.88-.84,3.77-2.1,5.65-3.12s3.76-1.91,5.65-3a55.77,55.77,0,0,0,5.66-3.66c1.88-1.44,3.77-3.7,5.65-5s3.76-1.7,5.65-3a55.7,55.7,0,0,0,5.65-4.71c1.88-1.72,3.77-2.88,5.66-5.59s3.77-8.18,5.65-10.59,3.76-2.62,5.65-3.86,3.76-3.56,5.65-3.56,3.77,1.64,5.66,1.64,3.77-4,5.65-6,3.76-5.69,5.65-5.84,3.76-.23,5.64-.23,3.78,2.37,5.67,3.85,3.76,3.55,5.65,5,3.76,3.64,5.65,3.64S278,510,279.83,510s3.78,2.35,5.67,3.91a46.76,46.76,0,0,1,5.65,5.45c1.88,2.17,3.76,5,5.65,7.62s3.76,6.19,5.64,8.34a24.14,24.14,0,0,0,5.67,4.56,20.66,20.66,0,0,0,5.65,2.77c1.88.52,3.76.26,5.64.78s3.77,2,5.65,2.71,3.78.91,5.67,1.55,3.76,1.63,5.65,2.23,3.76.93,5.64,1.36,3.77.94,5.65,1.25,3.78.21,5.67.63,3.76,2,5.64,2.27,3.77.28,5.65.34v3H161.14Z"/>
              <path class="cls-45" d="M161.14,580.93c1.88-.06,3.76-.11,5.65-.32a38.87,38.87,0,0,0,5.66-1.07,37,37,0,0,0,5.65-1.93c1.88-.84,3.77-2.1,5.65-3.12s3.76-1.91,5.65-3a55.77,55.77,0,0,0,5.66-3.66c1.88-1.44,3.77-3.7,5.65-5s3.76-1.69,5.65-3a55.7,55.7,0,0,0,5.65-4.71c1.88-1.72,3.77-2.88,5.66-5.59s3.77-8.18,5.65-10.59,3.76-2.62,5.65-3.86,3.76-3.56,5.65-3.56,3.77,1.64,5.66,1.64,3.77-4,5.65-6,3.76-5.69,5.65-5.84,3.76-.23,5.64-.23,3.78,2.37,5.67,3.85,3.76,3.55,5.65,5,3.76,3.64,5.65,3.64,3.76-1.33,5.64-1.33,3.78,2.35,5.67,3.91a46.76,46.76,0,0,1,5.65,5.45c1.88,2.17,3.76,5,5.65,7.62s3.76,6.19,5.64,8.34a24.14,24.14,0,0,0,5.67,4.56,20.66,20.66,0,0,0,5.65,2.77c1.88.52,3.76.26,5.64.78s3.77,2,5.65,2.71,3.78.91,5.67,1.55,3.76,1.63,5.65,2.22,3.76.94,5.64,1.37,3.77.94,5.65,1.25,3.78.21,5.67.63,3.76,2,5.64,2.27,3.77.28,5.65.34v3H161.14Z"/>
              <path class="cls-45" d="M161.14,603.21c1.88-.06,3.76-.11,5.65-.32a38.87,38.87,0,0,0,5.66-1.07,37,37,0,0,0,5.65-1.93c1.88-.84,3.77-2.1,5.65-3.12s3.76-1.91,5.65-3a55.77,55.77,0,0,0,5.66-3.66c1.88-1.44,3.77-3.7,5.65-5s3.76-1.69,5.65-3a55.7,55.7,0,0,0,5.65-4.71c1.88-1.72,3.77-2.89,5.66-5.59s3.77-8.18,5.65-10.59,3.76-2.62,5.65-3.86,3.76-3.56,5.65-3.56,3.77,1.64,5.66,1.64,3.77-4,5.65-6,3.76-5.69,5.65-5.84,3.76-.23,5.64-.23,3.78,2.37,5.67,3.85,3.76,3.55,5.65,5,3.76,3.64,5.65,3.64,3.76-1.33,5.64-1.33,3.78,2.35,5.67,3.91a46.76,46.76,0,0,1,5.65,5.45c1.88,2.17,3.76,5,5.65,7.62s3.76,6.19,5.64,8.34a24.14,24.14,0,0,0,5.67,4.56,20.66,20.66,0,0,0,5.65,2.77c1.88.52,3.76.26,5.64.78s3.77,2,5.65,2.71,3.78.91,5.67,1.55,3.76,1.62,5.65,2.22,3.76.94,5.64,1.37,3.77.94,5.65,1.25,3.78.21,5.67.63,3.76,2,5.64,2.27,3.77.28,5.65.34v3H161.14Z"/>
            </g>
            <g id="negative-4" data-name="negative">
              <path class="cls-45" d="M161.14,536.47c1.88,0,3.76.1,5.65.32a38.83,38.83,0,0,1,5.66,1.06,37,37,0,0,1,5.65,1.93c1.88.85,3.77,2.1,5.65,3.12s3.76,1.92,5.65,3a54,54,0,0,1,5.66,3.65c1.88,1.45,3.77,3.7,5.65,5s3.76,1.69,5.65,3a54.55,54.55,0,0,1,5.65,4.72c1.88,1.72,3.77,2.88,5.66,5.58s3.77,8.18,5.65,10.59,3.76,2.63,5.65,3.86,3.76,3.56,5.65,3.56,3.77-1.64,5.66-1.64,3.77,4,5.65,6,3.76,5.69,5.65,5.84,3.76.23,5.64.23,3.78-2.38,5.67-3.85,3.76-3.56,5.65-5,3.76-3.64,5.65-3.64,3.76,1.34,5.64,1.34,3.78-2.35,5.67-3.92a46.64,46.64,0,0,0,5.65-5.44c1.88-2.18,3.76-5,5.65-7.63s3.76-6.19,5.64-8.34a24.4,24.4,0,0,1,5.67-4.56,21,21,0,0,1,5.65-2.77c1.88-.52,3.76-.26,5.64-.77s3.77-2,5.65-2.71,3.78-.92,5.67-1.55,3.76-1.63,5.65-2.23,3.76-.93,5.64-1.37,3.77-.93,5.65-1.24,3.78-.21,5.67-.63,3.76-2,5.64-2.27,3.77-.29,5.65-.35v-3H161.14Z"/>
              <path class="cls-45" d="M161.14,558.75c1.88,0,3.76.1,5.65.32a38.83,38.83,0,0,1,5.66,1.06,37,37,0,0,1,5.65,1.93c1.88.85,3.77,2.1,5.65,3.12s3.76,1.92,5.65,3a54,54,0,0,1,5.66,3.65c1.88,1.45,3.77,3.7,5.65,5s3.76,1.69,5.65,3a54.55,54.55,0,0,1,5.65,4.72c1.88,1.71,3.77,2.88,5.66,5.58s3.77,8.18,5.65,10.59,3.76,2.63,5.65,3.86,3.76,3.56,5.65,3.56,3.77-1.64,5.66-1.64,3.77,4,5.65,6,3.76,5.68,5.65,5.84,3.76.23,5.64.23,3.78-2.38,5.67-3.85,3.76-3.56,5.65-5,3.76-3.64,5.65-3.64,3.76,1.34,5.64,1.34,3.78-2.35,5.67-3.92a46.64,46.64,0,0,0,5.65-5.44c1.88-2.18,3.76-5,5.65-7.63s3.76-6.19,5.64-8.34a24.4,24.4,0,0,1,5.67-4.56,21,21,0,0,1,5.65-2.77c1.88-.52,3.76-.26,5.64-.77s3.77-2,5.65-2.71,3.78-.92,5.67-1.55,3.76-1.63,5.65-2.23,3.76-.93,5.64-1.37,3.77-.93,5.65-1.24,3.78-.21,5.67-.63,3.76-2,5.64-2.27,3.77-.29,5.65-.35V558.7H161.14Z"/>
              <path class="cls-45" d="M161.14,581c1.88.05,3.76.1,5.65.32a38.83,38.83,0,0,1,5.66,1.06,37,37,0,0,1,5.65,1.93c1.88.85,3.77,2.1,5.65,3.12s3.76,1.92,5.65,3a54,54,0,0,1,5.66,3.65c1.88,1.45,3.77,3.7,5.65,5s3.76,1.69,5.65,3a54.55,54.55,0,0,1,5.65,4.72c1.88,1.71,3.77,2.88,5.66,5.58s3.77,8.18,5.65,10.59,3.76,2.63,5.65,3.86,3.76,3.56,5.65,3.56,3.77-1.64,5.66-1.64,3.77,4,5.65,6,3.76,5.68,5.65,5.84,3.76.23,5.64.23,3.78-2.38,5.67-3.85,3.76-3.56,5.65-5,3.76-3.64,5.65-3.64,3.76,1.34,5.64,1.34,3.78-2.36,5.67-3.92a46.64,46.64,0,0,0,5.65-5.44c1.88-2.18,3.76-5,5.65-7.63s3.76-6.19,5.64-8.34a24.4,24.4,0,0,1,5.67-4.56,21,21,0,0,1,5.65-2.77c1.88-.52,3.76-.26,5.64-.77s3.77-2,5.65-2.71,3.78-.92,5.67-1.55,3.76-1.63,5.65-2.23,3.76-.94,5.64-1.37,3.77-.93,5.65-1.24,3.78-.21,5.67-.63,3.76-2,5.64-2.27,3.77-.29,5.65-.35V581H161.14Z"/>
              <path class="cls-45" d="M161.14,603.31c1.88.05,3.76.1,5.65.32a38.83,38.83,0,0,1,5.66,1.06,37,37,0,0,1,5.65,1.93c1.88.85,3.77,2.1,5.65,3.12s3.76,1.92,5.65,3a54,54,0,0,1,5.66,3.65c1.88,1.45,3.77,3.7,5.65,5s3.76,1.69,5.65,3a54.55,54.55,0,0,1,5.65,4.72c1.88,1.71,3.77,2.88,5.66,5.58s3.77,8.18,5.65,10.59,3.76,2.63,5.65,3.86,3.76,3.56,5.65,3.56,3.77-1.64,5.66-1.64,3.77,4,5.65,6,3.76,5.68,5.65,5.84,3.76.23,5.64.23,3.78-2.38,5.67-3.85,3.76-3.56,5.65-5,3.76-3.64,5.65-3.64S278,652,279.83,652s3.78-2.36,5.67-3.92a46.64,46.64,0,0,0,5.65-5.44c1.88-2.18,3.76-5,5.65-7.63s3.76-6.19,5.64-8.34a24.4,24.4,0,0,1,5.67-4.56,21,21,0,0,1,5.65-2.77c1.88-.52,3.76-.26,5.64-.77s3.77-2,5.65-2.71,3.78-.92,5.67-1.55,3.76-1.63,5.65-2.23,3.76-.94,5.64-1.37,3.77-.93,5.65-1.24,3.78-.21,5.67-.63,3.76-2,5.64-2.27,3.77-.29,5.65-.35v-3H161.14Z"/>
            </g>
          </g>
        </g>
      </g>
      <g class="cls-46">
        <g id="Download_Album" data-name="Download Album">
          <g id="positive-5" data-name="positive">
            <path class="cls-47" d="M279.54,680.91c1.89-.17,3.77-.33,5.66-.58s3.77-.5,5.65-.89,3.77-1,5.65-1.41,3.76-.61,5.65-.87,3.77-.46,5.66-.7,3.77-.4,5.65-.71,3.76-.83,5.65-1.15a39.06,39.06,0,0,1,5.65-.82c1.88,0,3.77-.08,5.66-.08s3.77.12,5.65.24,3.76.16,5.65.47,3.76,1,5.65,1.38,3.77.81,5.66,1.19,3.76.78,5.65,1.06,3.76.44,5.65.6v2.56H279.54Z"/>
            <path class="cls-47" d="M279.54,703.18c1.89-.16,3.77-.32,5.66-.57s3.77-.5,5.65-.89,3.77-1,5.65-1.41,3.76-.61,5.65-.87,3.77-.46,5.66-.7,3.77-.4,5.65-.71,3.76-.83,5.65-1.15a39.06,39.06,0,0,1,5.65-.82c1.88,0,3.77-.08,5.66-.08s3.77.12,5.65.24,3.76.16,5.65.47,3.76.95,5.65,1.38,3.77.81,5.66,1.19,3.76.78,5.65,1.06,3.76.44,5.65.6v2.56H279.54Z"/>
            <path class="cls-47" d="M279.54,725.46c1.89-.16,3.77-.32,5.66-.57s3.77-.5,5.65-.89,3.77-1,5.65-1.41,3.76-.61,5.65-.87,3.77-.46,5.66-.7,3.77-.4,5.65-.71,3.76-.83,5.65-1.15a39.06,39.06,0,0,1,5.65-.82c1.88-.05,3.77-.08,5.66-.08s3.77.12,5.65.24,3.76.16,5.65.47,3.76.95,5.65,1.38,3.77.81,5.66,1.19,3.76.78,5.65,1.06,3.76.44,5.65.6v2.56H279.54Z"/>
            <path class="cls-47" d="M279.54,747.74c1.89-.16,3.77-.32,5.66-.57s3.77-.5,5.65-.89,3.77-1,5.65-1.41,3.76-.61,5.65-.87,3.77-.46,5.66-.7,3.77-.4,5.65-.71,3.76-.83,5.65-1.15a39.06,39.06,0,0,1,5.65-.82c1.88,0,3.77-.08,5.66-.08s3.77.12,5.65.24,3.76.16,5.65.47,3.76,1,5.65,1.38,3.77.81,5.66,1.19,3.76.78,5.65,1.06,3.76.44,5.65.6V748H279.54Z"/>
          </g>
          <g id="negative-5" data-name="negative">
            <path class="cls-47" d="M279.54,681.49c1.89.16,3.77.33,5.66.57s3.77.51,5.65.89,3.77,1,5.65,1.41,3.76.62,5.65.88,3.77.45,5.66.69,3.77.41,5.65.72,3.76.82,5.65,1.15a39,39,0,0,0,5.65.81c1.88.06,3.77.08,5.66.08s3.77-.12,5.65-.24a54,54,0,0,0,5.65-.47c1.88-.31,3.76-1,5.65-1.37s3.77-.82,5.66-1.2,3.76-.78,5.65-1,3.76-.44,5.65-.61V681.2H279.54Z"/>
            <path class="cls-47" d="M279.54,703.77c1.89.16,3.77.33,5.66.57s3.77.51,5.65.89,3.77,1,5.65,1.41,3.76.62,5.65.88,3.77.45,5.66.69,3.77.41,5.65.72,3.76.82,5.65,1.15a39,39,0,0,0,5.65.81c1.88.06,3.77.08,5.66.08s3.77-.12,5.65-.24a54,54,0,0,0,5.65-.47c1.88-.31,3.76-1,5.65-1.38s3.77-.81,5.66-1.19,3.76-.78,5.65-1.05,3.76-.44,5.65-.61v-2.55H279.54Z"/>
            <path class="cls-47" d="M279.54,726.05c1.89.16,3.77.33,5.66.57s3.77.51,5.65.89,3.77,1,5.65,1.41,3.76.62,5.65.88,3.77.45,5.66.69,3.77.41,5.65.72,3.76.82,5.65,1.15a39,39,0,0,0,5.65.81c1.88.06,3.77.08,5.66.08s3.77-.12,5.65-.24a54,54,0,0,0,5.65-.47c1.88-.31,3.76-.95,5.65-1.38s3.77-.81,5.66-1.19,3.76-.78,5.65-1.05,3.76-.45,5.65-.61v-2.55H279.54Z"/>
            <path class="cls-47" d="M279.54,748.33c1.89.16,3.77.33,5.66.57s3.77.51,5.65.89,3.77,1,5.65,1.41,3.76.62,5.65.88,3.77.45,5.66.69,3.77.41,5.65.72,3.76.82,5.65,1.15a40.47,40.47,0,0,0,5.65.81c1.88.06,3.77.08,5.66.08s3.77-.12,5.65-.24a54,54,0,0,0,5.65-.47c1.88-.31,3.76-1,5.65-1.38s3.77-.81,5.66-1.19,3.76-.78,5.65-1,3.76-.45,5.65-.61V748H279.54Z"/>
          </g>
        </g>
      </g>
      <g id="D_single" data-name="D single">
        <g class="cls-48">
          <g id="Download_Single" data-name="Download Single">
            <g id="positive-6" data-name="positive">
              <path class="cls-47" d="M279,697.94c1.89-4.85,3.77-9.71,5.66-14.45s3.77-9.15,5.65-13.94,3.77-10,5.65-14.81,3.76-11,5.65-14.18,3.77-3.77,5.66-5.19,3.77-1.17,5.65-3.37,3.76-7.46,5.65-9.84,3.76-4.48,5.65-4.48,3.77,1.81,5.66,4.45,3.77,7.66,5.65,11.33,3.76,6.33,5.65,10.68S345,655,346.87,659.6s3.77,8.4,5.66,12,3.76,7.46,5.65,9.77a14.27,14.27,0,0,0,5.65,4.1v21.3H279Z"/>
              <path class="cls-47" d="M279,720.22c1.89-4.85,3.77-9.71,5.66-14.45s3.77-9.15,5.65-13.94,3.77-10,5.65-14.81,3.76-11,5.65-14.18,3.77-3.77,5.66-5.19,3.77-1.17,5.65-3.37,3.76-7.46,5.65-9.84,3.76-4.48,5.65-4.48,3.77,1.81,5.66,4.45,3.77,7.66,5.65,11.33,3.76,6.33,5.65,10.68,3.76,10.88,5.65,15.46,3.77,8.4,5.66,12,3.76,7.46,5.65,9.77a14.27,14.27,0,0,0,5.65,4.1v21.3H279Z"/>
              <path class="cls-47" d="M279,742.5c1.89-4.85,3.77-9.71,5.66-14.45s3.77-9.15,5.65-13.94,3.77-10,5.65-14.81,3.76-11,5.65-14.18,3.77-3.77,5.66-5.2,3.77-1.16,5.65-3.36,3.76-7.46,5.65-9.84,3.76-4.48,5.65-4.48,3.77,1.81,5.66,4.45,3.77,7.66,5.65,11.33,3.76,6.33,5.65,10.68,3.76,10.88,5.65,15.46,3.77,8.4,5.66,12,3.76,7.46,5.65,9.77a14.27,14.27,0,0,0,5.65,4.1v21.3H279Z"/>
              <path class="cls-47" d="M279,764.78c1.89-4.85,3.77-9.71,5.66-14.45s3.77-9.15,5.65-14,3.77-10,5.65-14.8,3.76-11,5.65-14.18,3.77-3.77,5.66-5.2,3.77-1.16,5.65-3.36,3.76-7.46,5.65-9.84,3.76-4.48,5.65-4.48,3.77,1.81,5.66,4.44,3.77,7.67,5.65,11.34,3.76,6.33,5.65,10.68,3.76,10.88,5.65,15.46,3.77,8.4,5.66,12,3.76,7.46,5.65,9.77a14.27,14.27,0,0,0,5.65,4.1v21.3H279Z"/>
            </g>
            <g id="negative-6" data-name="negative">
              <path class="cls-47" d="M279,715.66c1.89,4.85,3.77,9.71,5.66,14.45s3.77,9.15,5.65,13.95,3.77,10,5.65,14.8,3.76,11,5.65,14.19,3.77,3.76,5.66,5.19,3.77,1.16,5.65,3.36,3.76,7.46,5.65,9.84,3.76,4.48,5.65,4.48,3.77-1.81,5.66-4.44,3.77-7.67,5.65-11.34,3.76-6.32,5.65-10.68S345,758.58,346.87,754s3.77-8.4,5.66-12,3.76-7.46,5.65-9.77a14.14,14.14,0,0,1,5.65-4.09V706.8H279Z"/>
              <path class="cls-47" d="M279,737.94c1.89,4.85,3.77,9.71,5.66,14.45s3.77,9.15,5.65,14,3.77,10,5.65,14.8,3.76,11,5.65,14.19,3.77,3.76,5.66,5.19,3.77,1.16,5.65,3.36,3.76,7.46,5.65,9.84,3.76,4.48,5.65,4.48,3.77-1.81,5.66-4.44,3.77-7.67,5.65-11.34,3.76-6.32,5.65-10.68,3.76-10.88,5.65-15.46,3.77-8.4,5.66-12,3.76-7.46,5.65-9.77a14.14,14.14,0,0,1,5.65-4.09V729.08H279Z"/>
              <path class="cls-47" d="M279,760.22c1.89,4.85,3.77,9.71,5.66,14.45s3.77,9.15,5.65,14,3.77,10,5.65,14.8,3.76,11,5.65,14.18,3.77,3.77,5.66,5.2,3.77,1.16,5.65,3.36,3.76,7.46,5.65,9.84,3.76,4.48,5.65,4.48,3.77-1.81,5.66-4.44,3.77-7.67,5.65-11.34,3.76-6.33,5.65-10.68,3.76-10.88,5.65-15.46,3.77-8.4,5.66-12,3.76-7.46,5.65-9.77a14.27,14.27,0,0,1,5.65-4.1v-21.3H279Z"/>
              <path class="cls-47" d="M279,782.5c1.89,4.85,3.77,9.71,5.66,14.45s3.77,9.15,5.65,13.94,3.77,10,5.65,14.81,3.76,11,5.65,14.18,3.77,3.77,5.66,5.2,3.77,1.16,5.65,3.36,3.76,7.46,5.65,9.84,3.76,4.48,5.65,4.48,3.77-1.81,5.66-4.45,3.77-7.66,5.65-11.33,3.76-6.33,5.65-10.68,3.76-10.88,5.65-15.46,3.77-8.4,5.66-12,3.76-7.46,5.65-9.77a14.27,14.27,0,0,1,5.65-4.1v-21.3H279Z"/>
            </g>
          </g>
        </g>
      </g>
      <g class="cls-49">
        <g id="LP_EP" data-name="LP/EP">
          <g id="positive-7" data-name="positive">
            <path class="cls-50" d="M104.33,224.66c1.88,0,3.76.08,5.64.25s3.77,1.21,5.65,1.21a16.5,16.5,0,0,0,5.65-1c1.89-.68,3.78-4.51,5.67-4.51s3.76.06,5.64.17,3.77,3.26,5.65,3.26,3.77-1.14,5.65-1.14a20.43,20.43,0,0,1,5.66.81c1.89.54,3.77,2.35,5.65,3.26s3.77,2,5.65,2.18,3.77.11,5.65.32,3.78,1.54,5.66,2.39,3.77,2,5.65,2.65,3.77.6,5.65,1.16,3.77,1.43,5.65,2.2,3.78,1.75,5.66,2.4a33.76,33.76,0,0,0,5.65,1.45,56.55,56.55,0,0,0,5.65.44c1.88.1,3.77.12,5.65.16s3.77.07,5.66.07,3.77,0,5.65,0,3.77,0,5.65,0,3.77-.05,5.65-.05H240c1.89,0,3.77,0,5.65,0l5.65,0c1.88,0,3.76.05,5.65.05h5.66c1.88,0,3.77,0,5.65,0h11.3l5.66,0h5.65c1.88,0,3.77,0,5.65,0s3.76-.08,5.65-.1l5.66,0,5.65,0,5.65-.08,5.65-.09c1.88,0,3.77-.12,5.66-.16s3.77,0,5.65-.06,3.76-.17,5.65-.21,3.76-.05,5.65-.07l5.66,0,5.65-.07c1.88,0,3.76-.1,5.65-.16v1.22h-260Z"/>
            <path class="cls-50" d="M104.33,246.94c1.88,0,3.76.08,5.64.25s3.77,1.21,5.65,1.21a16.5,16.5,0,0,0,5.65-1c1.89-.68,3.78-4.51,5.67-4.51s3.76.06,5.64.17,3.77,3.26,5.65,3.26,3.77-1.14,5.65-1.14a20.43,20.43,0,0,1,5.66.81c1.89.54,3.77,2.35,5.65,3.26s3.77,2,5.65,2.18,3.77.11,5.65.32,3.78,1.54,5.66,2.39,3.77,2,5.65,2.65,3.77.6,5.65,1.16,3.77,1.43,5.65,2.2,3.78,1.75,5.66,2.4a33.76,33.76,0,0,0,5.65,1.45,56.55,56.55,0,0,0,5.65.44c1.88.1,3.77.12,5.65.16s3.77.07,5.66.07,3.77,0,5.65,0h5.65c1.88,0,3.77,0,5.65,0H240c1.89,0,3.77,0,5.65,0l5.65,0c1.88,0,3.76,0,5.65,0h5.66l5.65,0,5.65,0h5.65l5.66,0h5.65c1.88,0,3.77,0,5.65,0s3.76-.08,5.65-.1l5.66,0,5.65,0,5.65-.08,5.65-.09c1.88,0,3.77-.12,5.66-.16s3.77,0,5.65-.06,3.76-.17,5.65-.21,3.76-.05,5.65-.07l5.66-.05,5.65-.07c1.88,0,3.76-.1,5.65-.16v1.22h-260Z"/>
            <path class="cls-50" d="M104.33,269.22c1.88,0,3.76.08,5.64.25s3.77,1.21,5.65,1.21a16.5,16.5,0,0,0,5.65-1c1.89-.68,3.78-4.51,5.67-4.51s3.76.06,5.64.17,3.77,3.26,5.65,3.26,3.77-1.14,5.65-1.14a20.43,20.43,0,0,1,5.66.81c1.89.54,3.77,2.35,5.65,3.26s3.77,2,5.65,2.18,3.77.1,5.65.32,3.78,1.54,5.66,2.39,3.77,2,5.65,2.65,3.77.6,5.65,1.16,3.77,1.43,5.65,2.2,3.78,1.75,5.66,2.4a33.76,33.76,0,0,0,5.65,1.45,56.55,56.55,0,0,0,5.65.44c1.88.1,3.77.12,5.65.16s3.77.07,5.66.07,3.77,0,5.65-.05h5.65c1.88,0,3.77-.05,5.65-.05H240c1.89,0,3.77,0,5.65,0l5.65,0c1.88,0,3.76.05,5.65.05h5.66l5.65,0,5.65,0h5.65l5.66,0h5.65c1.88,0,3.77,0,5.65,0s3.76-.08,5.65-.1l5.66,0,5.65,0,5.65-.08,5.65-.09c1.88,0,3.77-.12,5.66-.16s3.77,0,5.65-.06,3.76-.17,5.65-.21,3.76-.05,5.65-.07L353,286l5.65-.07c1.88,0,3.76-.1,5.65-.16V287h-260Z"/>
            <path class="cls-50" d="M104.33,291.5c1.88,0,3.76.08,5.64.25s3.77,1.21,5.65,1.21a16.5,16.5,0,0,0,5.65-1c1.89-.68,3.78-4.51,5.67-4.51s3.76.06,5.64.17,3.77,3.26,5.65,3.26,3.77-1.14,5.65-1.14a20.43,20.43,0,0,1,5.66.81c1.89.54,3.77,2.35,5.65,3.26s3.77,2,5.65,2.18,3.77.1,5.65.32,3.78,1.54,5.66,2.39,3.77,2,5.65,2.65,3.77.6,5.65,1.16,3.77,1.43,5.65,2.2,3.78,1.75,5.66,2.4a33.76,33.76,0,0,0,5.65,1.45,56.55,56.55,0,0,0,5.65.44c1.88.1,3.77.12,5.65.16s3.77.07,5.66.07,3.77,0,5.65,0h5.65c1.88,0,3.77,0,5.65,0H240c1.89,0,3.77,0,5.65,0l5.65,0c1.88,0,3.76,0,5.65,0h5.66l5.65,0,5.65,0h5.65l5.66,0h5.65c1.88,0,3.77,0,5.65,0s3.76-.08,5.65-.1l5.66,0,5.65,0,5.65-.08,5.65-.09c1.88-.05,3.77-.12,5.66-.16s3.77,0,5.65-.06,3.76-.17,5.65-.21,3.76-.05,5.65-.07l5.66-.05,5.65-.07c1.88,0,3.76-.1,5.65-.16v1.21h-260Z"/>
          </g>
          <g id="negative-7" data-name="negative">
            <path class="cls-50" d="M104.33,260.23c1.88,0,3.76-.08,5.64-.25s3.77-1.21,5.65-1.21a16.5,16.5,0,0,1,5.65,1c1.89.68,3.78,4.51,5.67,4.51s3.76-.06,5.64-.17,3.77-3.26,5.65-3.26S142,262,143.88,262a20.43,20.43,0,0,0,5.66-.81c1.89-.54,3.77-2.35,5.65-3.26s3.77-2,5.65-2.18,3.77-.1,5.65-.32,3.78-1.54,5.66-2.38,3.77-2,5.65-2.66,3.77-.6,5.65-1.16,3.77-1.43,5.65-2.19,3.78-1.76,5.66-2.41a33.76,33.76,0,0,1,5.65-1.45,56.55,56.55,0,0,1,5.65-.44c1.88-.1,3.77-.12,5.65-.16s3.77-.07,5.66-.07,3.77,0,5.65,0l5.65,0c1.88,0,3.77,0,5.65,0H240c1.89,0,3.77,0,5.65,0l5.65,0c1.88,0,3.76,0,5.65,0h5.66l5.65,0,5.65,0h5.65l5.66,0h5.65c1.88,0,3.77,0,5.65,0s3.76.08,5.65.1l5.66,0,5.65,0,5.65.09c1.88,0,3.76,0,5.65.09s3.77.11,5.66.15,3.77,0,5.65.06,3.76.17,5.65.22,3.76,0,5.65.06l5.66.05,5.65.07c1.88,0,3.76.1,5.65.16v-1.21h-260Z"/>
            <path class="cls-50" d="M104.33,282.51c1.88,0,3.76-.08,5.64-.25s3.77-1.21,5.65-1.21a16.5,16.5,0,0,1,5.65,1c1.89.68,3.78,4.51,5.67,4.51s3.76-.06,5.64-.17,3.77-3.26,5.65-3.26,3.77,1.14,5.65,1.14a20.43,20.43,0,0,0,5.66-.81c1.89-.54,3.77-2.35,5.65-3.26s3.77-2,5.65-2.18,3.77-.1,5.65-.32,3.78-1.54,5.66-2.38,3.77-2,5.65-2.66,3.77-.6,5.65-1.16,3.77-1.43,5.65-2.19,3.78-1.76,5.66-2.41a33.76,33.76,0,0,1,5.65-1.45,56.55,56.55,0,0,1,5.65-.44c1.88-.1,3.77-.12,5.65-.16s3.77-.07,5.66-.07,3.77,0,5.65.05,3.77,0,5.65,0,3.77,0,5.65,0H240c1.89,0,3.77,0,5.65,0l5.65,0c1.88,0,3.76,0,5.65,0h5.66l5.65,0,5.65,0h5.65l5.66,0h5.65c1.88,0,3.77,0,5.65,0s3.76.08,5.65.1l5.66,0,5.65,0,5.65.08,5.65.09c1.88,0,3.77.12,5.66.16s3.77,0,5.65.06,3.76.17,5.65.21,3.76.05,5.65.07l5.66,0,5.65.07c1.88,0,3.76.1,5.65.16v-1.21h-260Z"/>
            <path class="cls-50" d="M104.33,304.79c1.88,0,3.76-.08,5.64-.25s3.77-1.21,5.65-1.21a16.5,16.5,0,0,1,5.65,1c1.89.68,3.78,4.51,5.67,4.51s3.76-.06,5.64-.17,3.77-3.26,5.65-3.26,3.77,1.14,5.65,1.14a20.43,20.43,0,0,0,5.66-.81c1.89-.54,3.77-2.35,5.65-3.26s3.77-2,5.65-2.18,3.77-.1,5.65-.32,3.78-1.54,5.66-2.38,3.77-2,5.65-2.66,3.77-.6,5.65-1.16,3.77-1.43,5.65-2.2,3.78-1.75,5.66-2.4a33.76,33.76,0,0,1,5.65-1.45,56.55,56.55,0,0,1,5.65-.44c1.88-.1,3.77-.12,5.65-.16s3.77-.07,5.66-.07,3.77,0,5.65.05h5.65c1.88,0,3.77.05,5.65.05H240c1.89,0,3.77,0,5.65,0l5.65,0c1.88,0,3.76-.05,5.65-.05h5.66l5.65,0,5.65,0h5.65l5.66,0h5.65c1.88,0,3.77,0,5.65,0s3.76.08,5.65.1l5.66,0,5.65,0,5.65.08,5.65.09c1.88.05,3.77.12,5.66.16s3.77,0,5.65.06,3.76.17,5.65.21,3.76.05,5.65.07L353,288l5.65.07c1.88,0,3.76.1,5.65.16V287h-260Z"/>
            <path class="cls-50" d="M104.33,327.07c1.88,0,3.76-.08,5.64-.25s3.77-1.21,5.65-1.21a16.5,16.5,0,0,1,5.65,1c1.89.68,3.78,4.51,5.67,4.51s3.76-.06,5.64-.17,3.77-3.26,5.65-3.26,3.77,1.14,5.65,1.14a20.43,20.43,0,0,0,5.66-.81c1.89-.54,3.77-2.35,5.65-3.26s3.77-2,5.65-2.18,3.77-.1,5.65-.32,3.78-1.54,5.66-2.39,3.77-2,5.65-2.65,3.77-.6,5.65-1.16,3.77-1.43,5.65-2.2,3.78-1.75,5.66-2.4a33.76,33.76,0,0,1,5.65-1.45,56.55,56.55,0,0,1,5.65-.44c1.88-.1,3.77-.12,5.65-.16s3.77-.07,5.66-.07,3.77,0,5.65.05h5.65c1.88,0,3.77.05,5.65.05H240c1.89,0,3.77,0,5.65,0l5.65,0c1.88,0,3.76-.05,5.65-.05h5.66l5.65,0,5.65,0h5.65l5.66,0h5.65c1.88,0,3.77,0,5.65,0s3.76.08,5.65.1l5.66,0,5.65,0,5.65.08,5.65.09c1.88,0,3.77.12,5.66.16s3.77,0,5.65.06,3.76.17,5.65.21,3.76.05,5.65.07l5.66,0,5.65.07c1.88,0,3.76.1,5.65.16v-1.22h-260Z"/>
          </g>
        </g>
      </g>
      <g class="cls-51">
        <g id="Ringtones_Ringbacks" data-name="Ringtones &amp; Ringbacks">
          <g id="positive-8" data-name="positive">
            <path class="cls-47" d="M287.81,613c1.88-3.21,3.76-6.42,5.65-9.22s3.76-7.54,5.65-7.54a10.28,10.28,0,0,1,5.64,1.82c1.89,1.22,3.78,4.74,5.67,7s3.76,4.83,5.65,6.72a43.68,43.68,0,0,0,5.65,4.64,30.58,30.58,0,0,0,5.64,3.6A25.07,25.07,0,0,0,333,621.3c1.88.33,3.76.62,5.65.8a56.08,56.08,0,0,0,5.64.3c1.89,0,3.77,0,5.65,0s3.78.4,5.67.53,3.76.21,5.65.27,3.76.07,5.64.09v.55H287.81Z"/>
            <path class="cls-47" d="M287.81,635.28c1.88-3.21,3.76-6.42,5.65-9.22s3.76-7.54,5.65-7.54a10.28,10.28,0,0,1,5.64,1.82c1.89,1.22,3.78,4.74,5.67,7s3.76,4.83,5.65,6.72a43.68,43.68,0,0,0,5.65,4.64,30.58,30.58,0,0,0,5.64,3.6,25.07,25.07,0,0,0,5.67,1.24c1.88.33,3.76.62,5.65.8a56.08,56.08,0,0,0,5.64.3c1.89,0,3.77,0,5.65,0s3.78.4,5.67.53,3.76.21,5.65.27,3.76.07,5.64.09v.55H287.81Z"/>
            <path class="cls-47" d="M287.81,657.56c1.88-3.21,3.76-6.42,5.65-9.22s3.76-7.54,5.65-7.54a10.28,10.28,0,0,1,5.64,1.82c1.89,1.22,3.78,4.74,5.67,7s3.76,4.83,5.65,6.72a43.68,43.68,0,0,0,5.65,4.64,30.58,30.58,0,0,0,5.64,3.6,24.51,24.51,0,0,0,5.67,1.23c1.88.34,3.76.63,5.65.81a56.08,56.08,0,0,0,5.64.3c1.89,0,3.77,0,5.65,0s3.78.4,5.67.53,3.76.21,5.65.27,3.76.07,5.64.09v.55H287.81Z"/>
            <path class="cls-47" d="M287.81,679.83c1.88-3.2,3.76-6.41,5.65-9.21s3.76-7.54,5.65-7.54a10.28,10.28,0,0,1,5.64,1.82c1.89,1.22,3.78,4.74,5.67,7s3.76,4.83,5.65,6.72a43.68,43.68,0,0,0,5.65,4.64,30.58,30.58,0,0,0,5.64,3.6,24.51,24.51,0,0,0,5.67,1.23c1.88.34,3.76.63,5.65.81a56.08,56.08,0,0,0,5.64.3c1.89,0,3.77,0,5.65,0s3.78.4,5.67.53,3.76.21,5.65.27,3.76.07,5.64.09v.55H287.81Z"/>
          </g>
          <g id="negative-8" data-name="negative">
            <path class="cls-47" d="M287.81,634.6c1.88,3.21,3.76,6.42,5.65,9.21s3.76,7.55,5.65,7.55a10.29,10.29,0,0,0,5.64-1.83c1.89-1.22,3.78-4.74,5.67-7s3.76-4.82,5.65-6.72a43.68,43.68,0,0,1,5.65-4.64,30.58,30.58,0,0,1,5.64-3.6A24.51,24.51,0,0,1,333,626.3c1.88-.34,3.76-.63,5.65-.81a56.08,56.08,0,0,1,5.64-.3c1.89,0,3.77,0,5.65,0s3.78-.39,5.67-.53,3.76-.21,5.65-.27,3.76-.07,5.64-.09v-.54H287.81Z"/>
            <path class="cls-47" d="M287.81,656.88c1.88,3.21,3.76,6.42,5.65,9.21s3.76,7.55,5.65,7.55a10.29,10.29,0,0,0,5.64-1.83c1.89-1.22,3.78-4.74,5.67-7s3.76-4.82,5.65-6.72a43.68,43.68,0,0,1,5.65-4.64,30.58,30.58,0,0,1,5.64-3.6,24.51,24.51,0,0,1,5.67-1.23c1.88-.34,3.76-.63,5.65-.81a56.08,56.08,0,0,1,5.64-.3c1.89,0,3.77,0,5.65,0s3.78-.39,5.67-.53,3.76-.21,5.65-.27,3.76-.07,5.64-.09v-.54H287.81Z"/>
            <path class="cls-47" d="M287.81,679.16c1.88,3.21,3.76,6.41,5.65,9.21s3.76,7.55,5.65,7.55a10.29,10.29,0,0,0,5.64-1.83c1.89-1.22,3.78-4.74,5.67-7s3.76-4.82,5.65-6.72a43.68,43.68,0,0,1,5.65-4.64,30.58,30.58,0,0,1,5.64-3.6,24.51,24.51,0,0,1,5.67-1.23c1.88-.34,3.76-.63,5.65-.81a56.08,56.08,0,0,1,5.64-.3c1.89,0,3.77,0,5.65,0s3.78-.39,5.67-.53,3.76-.21,5.65-.27,3.76-.07,5.64-.09v-.54H287.81Z"/>
            <path class="cls-47" d="M287.81,701.44c1.88,3.21,3.76,6.41,5.65,9.21s3.76,7.55,5.65,7.55a10.29,10.29,0,0,0,5.64-1.83c1.89-1.22,3.78-4.74,5.67-7s3.76-4.82,5.65-6.72a43.68,43.68,0,0,1,5.65-4.64,30.58,30.58,0,0,1,5.64-3.6,24.51,24.51,0,0,1,5.67-1.23c1.88-.34,3.76-.63,5.65-.81a56.08,56.08,0,0,1,5.64-.3c1.89,0,3.77,0,5.65,0s3.78-.4,5.67-.53,3.76-.21,5.65-.27,3.76-.07,5.64-.09v-.54H287.81Z"/>
          </g>
        </g>
      </g>
      <g id="Vinyl_single" data-name="Vinyl single">
        <g class="cls-52">
          <g id="Vinyl_Single-2" data-name="Vinyl Single">
            <g id="positive-9" data-name="positive">
              <path class="cls-50" d="M103.83,145a45.35,45.35,0,0,1,5.64,1.52c1.89.68,3.77,2.54,5.65,2.54s3.77-1.65,5.65-1.65h11.31c1.89,0,3.77-1.4,5.65-1.4s3.77,3.4,5.65,3.5,3.78.05,5.66.14a50.83,50.83,0,0,1,5.65,1.12,35.52,35.52,0,0,0,5.65.78c1.88,0,3.77-.42,5.65-.42a27.27,27.27,0,0,1,5.66.68c1.89.4,3.77,1.3,5.65,1.71s3.77.45,5.65.75,3.77.56,5.65,1,3.78,1.46,5.66,1.85a49.37,49.37,0,0,0,5.65.57c1.88.15,3.77.27,5.65.35s3.77.07,5.65.14,3.77.22,5.66.3,3.77.17,5.65.22,3.77.09,5.65.09h5.65c1.89,0,3.77.12,5.66.17s3.77.12,5.65.13h5.65c1.88,0,3.76,0,5.65,0s3.77,0,5.66,0,3.77,0,5.65.07l5.65,0,5.65,0c1.89,0,3.77.05,5.66.08l5.65,0c1.88,0,3.77.05,5.65.05l5.65,0h62.18v0h-260Z"/>
              <path class="cls-50" d="M103.83,167.3a45.35,45.35,0,0,1,5.64,1.52c1.89.68,3.77,2.54,5.65,2.54s3.77-1.65,5.65-1.65h11.31c1.89,0,3.77-1.4,5.65-1.4s3.77,3.4,5.65,3.5,3.78.05,5.66.14a53.17,53.17,0,0,1,5.65,1.11,34.44,34.44,0,0,0,5.65.79c1.88,0,3.77-.42,5.65-.42a27.27,27.27,0,0,1,5.66.68c1.89.4,3.77,1.3,5.65,1.71s3.77.45,5.65.75,3.77.56,5.65,1,3.78,1.46,5.66,1.85a49.37,49.37,0,0,0,5.65.57c1.88.15,3.77.27,5.65.35s3.77.07,5.65.14,3.77.22,5.66.3,3.77.17,5.65.22,3.77.09,5.65.09h5.65c1.89,0,3.77.12,5.66.16s3.77.13,5.65.14h5.65c1.88,0,3.76,0,5.65,0s3.77,0,5.66,0,3.77,0,5.65.07l5.65,0,5.65,0c1.89,0,3.77.05,5.66.08l5.65.05,5.65.05,5.65,0h62.18v0h-260Z"/>
              <path class="cls-50" d="M103.83,189.58a45.35,45.35,0,0,1,5.64,1.52c1.89.68,3.77,2.54,5.65,2.54s3.77-1.65,5.65-1.65h11.31c1.89,0,3.77-1.4,5.65-1.4s3.77,3.4,5.65,3.5,3.78,0,5.66.14a53.17,53.17,0,0,1,5.65,1.11,34.44,34.44,0,0,0,5.65.79c1.88,0,3.77-.42,5.65-.42a27.27,27.27,0,0,1,5.66.68c1.89.4,3.77,1.3,5.65,1.71s3.77.45,5.65.75,3.77.56,5.65,1,3.78,1.46,5.66,1.85a49.37,49.37,0,0,0,5.65.57c1.88.15,3.77.27,5.65.35s3.77.07,5.65.14,3.77.22,5.66.3,3.77.17,5.65.22,3.77.09,5.65.09h5.65c1.89,0,3.77.11,5.66.16s3.77.13,5.65.14h5.65c1.88,0,3.76,0,5.65,0s3.77,0,5.66,0,3.77,0,5.65.07l5.65,0,5.65,0c1.89,0,3.77,0,5.66.07s3.77,0,5.65.06L296,204l5.65,0h62.18v0h-260Z"/>
              <path class="cls-50" d="M103.83,211.86a45.35,45.35,0,0,1,5.64,1.52c1.89.68,3.77,2.54,5.65,2.54s3.77-1.65,5.65-1.65h11.31c1.89,0,3.77-1.4,5.65-1.4s3.77,3.4,5.65,3.5,3.78,0,5.66.14a53.17,53.17,0,0,1,5.65,1.11,34.44,34.44,0,0,0,5.65.79c1.88,0,3.77-.42,5.65-.42a27.27,27.27,0,0,1,5.66.68c1.89.4,3.77,1.3,5.65,1.71s3.77.45,5.65.75,3.77.56,5.65,1,3.78,1.46,5.66,1.85a49.37,49.37,0,0,0,5.65.57c1.88.15,3.77.27,5.65.35s3.77.07,5.65.14,3.77.22,5.66.3,3.77.17,5.65.22,3.77.09,5.65.09h5.65c1.89,0,3.77.11,5.66.16s3.77.13,5.65.14h5.65c1.88,0,3.76,0,5.65,0s3.77,0,5.66,0,3.77,0,5.65.07l5.65,0,5.65,0c1.89,0,3.77,0,5.66.07s3.77,0,5.65.06l5.65.05,5.65,0h62.18v0h-260Z"/>
            </g>
            <g id="negative-9" data-name="negative">
              <text class="cls-53" transform="translate(133.59 167.19)">v</text>
              <path class="cls-50" d="M103.83,196.27a47.22,47.22,0,0,0,5.64-1.53c1.89-.68,3.77-2.54,5.65-2.54s3.77,1.65,5.65,1.65h11.31c1.89,0,3.77,1.4,5.65,1.4s3.77-3.4,5.65-3.49,3.78,0,5.66-.15a53.17,53.17,0,0,0,5.65-1.11,34.44,34.44,0,0,1,5.65-.79c1.88,0,3.77.43,5.65.43a27.28,27.28,0,0,0,5.66-.69c1.89-.4,3.77-1.29,5.65-1.7s3.77-.46,5.65-.76,3.77-.56,5.65-1,3.78-1.46,5.66-1.84a49.4,49.4,0,0,1,5.65-.58c1.88-.15,3.77-.27,5.65-.35s3.77-.07,5.65-.14,3.77-.21,5.66-.3,3.77-.16,5.65-.22,3.77-.09,5.65-.09h5.65c1.89,0,3.77-.11,5.66-.16s3.77-.13,5.65-.14h5.65c1.88,0,3.76,0,5.65,0s3.77,0,5.66,0,3.77,0,5.65-.07l5.65,0c1.88,0,3.76,0,5.65,0s3.77-.05,5.66-.07l5.65-.05,5.65-.06h67.83v0h-260Z"/>
              <path class="cls-50" d="M103.83,218.55a47.22,47.22,0,0,0,5.64-1.53c1.89-.68,3.77-2.54,5.65-2.54s3.77,1.65,5.65,1.65h11.31c1.89,0,3.77,1.4,5.65,1.4s3.77-3.4,5.65-3.49,3.78,0,5.66-.15a53.17,53.17,0,0,0,5.65-1.11,34.44,34.44,0,0,1,5.65-.79c1.88,0,3.77.43,5.65.43a27.28,27.28,0,0,0,5.66-.69c1.89-.4,3.77-1.29,5.65-1.7s3.77-.46,5.65-.76,3.77-.56,5.65-1,3.78-1.46,5.66-1.84a49.4,49.4,0,0,1,5.65-.58c1.88-.15,3.77-.27,5.65-.35s3.77-.07,5.65-.14,3.77-.21,5.66-.3,3.77-.16,5.65-.22,3.77-.09,5.65-.09h5.65c1.89,0,3.77-.11,5.66-.16s3.77-.13,5.65-.14h5.65c1.88,0,3.76,0,5.65,0s3.77,0,5.66,0,3.77,0,5.65-.07l5.65,0c1.88,0,3.76,0,5.65,0s3.77-.05,5.66-.07l5.65-.05,5.65-.06h67.83v0h-260Z"/>
              <path class="cls-50" d="M103.83,240.83a47.22,47.22,0,0,0,5.64-1.53c1.89-.68,3.77-2.54,5.65-2.54s3.77,1.65,5.65,1.65h11.31c1.89,0,3.77,1.4,5.65,1.4s3.77-3.4,5.65-3.49,3.78,0,5.66-.15a53.17,53.17,0,0,0,5.65-1.11,34.44,34.44,0,0,1,5.65-.79c1.88,0,3.77.43,5.65.43a27.28,27.28,0,0,0,5.66-.69c1.89-.4,3.77-1.29,5.65-1.7s3.77-.46,5.65-.76,3.77-.56,5.65-1,3.78-1.46,5.66-1.84a47.25,47.25,0,0,1,5.65-.58c1.88-.15,3.77-.27,5.65-.35s3.77-.07,5.65-.14,3.77-.21,5.66-.3,3.77-.16,5.65-.22,3.77-.09,5.65-.09h5.65c1.89,0,3.77-.11,5.66-.16s3.77-.13,5.65-.14h5.65c1.88,0,3.76,0,5.65,0s3.77,0,5.66,0,3.77-.05,5.65-.07l5.65,0c1.88,0,3.76,0,5.65,0s3.77-.05,5.66-.07l5.65-.05,5.65-.06h67.83v0h-260Z"/>
            </g>
          </g>
        </g>
      </g>
      <g id="axis">
        <g>
          <path class="cls-54" d="M95,716.43H361"/>
          <line class="cls-55" x1="112.33" y1="715.93" x2="112.33" y2="721.93"/>
          <line class="cls-55" x1="140.58" y1="715.93" x2="140.58" y2="721.93"/>
          <line class="cls-55" x1="168.86" y1="715.93" x2="168.86" y2="721.93"/>
          <line class="cls-55" x1="197.12" y1="715.93" x2="197.12" y2="721.93"/>
          <line class="cls-55" x1="225.37" y1="715.93" x2="225.37" y2="721.93"/>
          <line class="cls-55" x1="253.63" y1="715.93" x2="253.63" y2="721.93"/>
          <line class="cls-55" x1="281.9" y1="715.93" x2="281.9" y2="721.93"/>
          <line class="cls-55" x1="310.16" y1="715.93" x2="310.16" y2="721.93"/>
          <line class="cls-55" x1="338.42" y1="715.93" x2="338.42" y2="721.93"/>
          <text class="cls-56" transform="translate(101.26 743.35) rotate(-45)">1<tspan class="cls-57" x="2.56" y="0">9</tspan><tspan x="7.86" y="0">75</tspan></text>
          <text class="cls-56" transform="translate(129.51 743.35) rotate(-45)">1980</text>
          <text class="cls-56" transform="translate(157.79 743.34) rotate(-45)">1985</text>
          <text class="cls-56" transform="translate(186.04 743.34) rotate(-45)">1990</text>
          <text class="cls-56" transform="translate(214.3 743.34) rotate(-45)">1995</text>
          <text class="cls-56" transform="translate(242.56 743.35) rotate(-45)">2000</text>
          <text class="cls-56" transform="translate(270.83 743.34) rotate(-45)">2005</text>
          <text class="cls-56" transform="translate(299.09 743.34) rotate(-45)">2010</text>
          <text class="cls-56" transform="translate(327.35 743.34) rotate(-45)">2015</text>
          <path class="cls-58" d="M95.6,144.57V716.43"/>
        </g>
      </g>
    </g>
    <rect class="cls-50" x="505.1" y="369.41" width="13.18" height="13.18"/>
    <rect class="cls-47" x="505.1" y="431.44" width="13.18" height="13.18"/>
    <rect class="cls-45" x="505.1" y="411.44" width="13.18" height="13.18"/>
    <rect class="cls-41" x="505.1" y="389.41" width="13.18" height="13.18"/>
    <text class="cls-59" transform="translate(526.36 381.33)">Vinyl</text>
    <text class="cls-59" transform="translate(526.36 401.34)"><tspan class="cls-60">T</tspan><tspan x="5.9" y="0">ape</tspan></text>
    <text class="cls-59" transform="translate(526.36 423.37)">Disc</text>
    <text class="cls-59" transform="translate(526.36 443.37)">D<tspan class="cls-26" x="8.15" y="0">o</tspan><tspan class="cls-61" x="16.93" y="0">wn</tspan><tspan class="cls-62" x="36.23" y="0">l</tspan><tspan class="cls-27" x="42.24" y="0">o</tspan><tspan x="50.8" y="0">ad</tspan></text>
    <text class="cls-36" transform="translate(504.19 359.16)">C<tspan class="cls-63" x="9.09" y="0">a</tspan><tspan x="17.5" y="0">t</tspan><tspan class="cls-64" x="25.18" y="0">e</tspan><tspan class="cls-65" x="33.11" y="0">go</tspan><tspan class="cls-66" x="53.3" y="0">r</tspan><tspan class="cls-65" x="62.17" y="0">y</tspan></text>
  </g>
</svg>
