<svg id="Small_multiples" data-name="Small multiples" xmlns="http://www.w3.org/2000/svg" width="612" height="792" viewBox="0 0 612 792">
  <defs>
    <style>
      .cls-1 {
        fill: #50a3cb;
      }

      .cls-2, .cls-27, .cls-29, .cls-30, .cls-33, .cls-34, .cls-35, .cls-36, .cls-37, .cls-38, .cls-39, .cls-40, .cls-9 {
        fill: none;
      }

      .cls-2, .cls-9 {
        stroke: #010101;
      }

      .cls-2, .cls-29, .cls-30, .cls-33, .cls-34, .cls-35, .cls-36, .cls-37, .cls-38, .cls-39, .cls-40 {
        stroke-width: 0.75px;
      }

      .cls-21, .cls-3, .cls-5 {
        isolation: isolate;
        fill: #010101;
      }

      .cls-3 {
        font-size: 10px;
      }

      .cls-21, .cls-3, .cls-31 {
        font-family: GravesendSans-Light, Gravesend Sans;
        font-weight: 300;
      }

      .cls-4 {
        letter-spacing: -0.01em;
      }

      .cls-41, .cls-5 {
        font-size: 11px;
      }

      .cls-41, .cls-44, .cls-5, .cls-53 {
        font-family: GravesendSans-Medium, Gravesend Sans;
        font-weight: 500;
      }

      .cls-6 {
        letter-spacing: -0.02em;
      }

      .cls-7 {
        letter-spacing: -0.03em;
      }

      .cls-8 {
        letter-spacing: 0em;
      }

      .cls-9 {
        stroke-width: 0.5px;
      }

      .cls-10 {
        fill: #46184d;
      }

      .cls-11 {
        fill: #c23d91;
      }

      .cls-12 {
        letter-spacing: -0.01em;
      }

      .cls-13 {
        letter-spacing: -0.03em;
      }

      .cls-14 {
        letter-spacing: 0em;
      }

      .cls-15 {
        letter-spacing: -0.04em;
      }

      .cls-16 {
        letter-spacing: -0.01em;
      }

      .cls-17 {
        letter-spacing: 0em;
      }

      .cls-18 {
        letter-spacing: -0.01em;
      }

      .cls-19 {
        fill: #740e28;
      }

      .cls-20 {
        letter-spacing: -0.18em;
      }

      .cls-21, .cls-31, .cls-44 {
        font-size: 12px;
      }

      .cls-22 {
        letter-spacing: -0.06em;
      }

      .cls-23 {
        letter-spacing: -0.01em;
      }

      .cls-24 {
        letter-spacing: 0em;
      }

      .cls-25 {
        letter-spacing: -0.04em;
      }

      .cls-26 {
        letter-spacing: -0.03em;
      }

      .cls-27 {
        stroke: #231f20;
      }

      .cls-27, .cls-29, .cls-30, .cls-33, .cls-34, .cls-35, .cls-36, .cls-37, .cls-38, .cls-39, .cls-40 {
        stroke-miterlimit: 10;
      }

      .cls-28 {
        opacity: 0.8;
      }

      .cls-29, .cls-30, .cls-33, .cls-34, .cls-35, .cls-36, .cls-37, .cls-38, .cls-39, .cls-40 {
        stroke: #595a5c;
        stroke-linecap: round;
      }

      .cls-30 {
        stroke-dasharray: 0 6.07;
      }

      .cls-31, .cls-41, .cls-44 {
        fill: #231f20;
      }

      .cls-32 {
        letter-spacing: -0.01em;
      }

      .cls-33 {
        stroke-dasharray: 0 5.94;
      }

      .cls-34 {
        stroke-dasharray: 0 6.08;
      }

      .cls-35 {
        stroke-dasharray: 0 6.03;
      }

      .cls-36 {
        stroke-dasharray: 0 6.03;
      }

      .cls-37 {
        stroke-dasharray: 0 6.05;
      }

      .cls-38 {
        stroke-dasharray: 0 5.88;
      }

      .cls-39 {
        stroke-dasharray: 0 6.08;
      }

      .cls-40 {
        stroke-dasharray: 0 5.97;
      }

      .cls-42 {
        letter-spacing: -0.01em;
      }

      .cls-43 {
        letter-spacing: -0.02em;
      }

      .cls-45 {
        letter-spacing: -0.07em;
      }

      .cls-46 {
        letter-spacing: -0.04em;
      }

      .cls-47 {
        letter-spacing: 0em;
      }

      .cls-48 {
        letter-spacing: 0em;
      }

      .cls-49 {
        letter-spacing: 0em;
      }

      .cls-50 {
        font-size: 30px;
        font-family: GravesendSans-Inline, Gravesend Sans;
      }

      .cls-51 {
        letter-spacing: -0.01em;
      }

      .cls-52 {
        letter-spacing: 0em;
      }

      .cls-53 {
        font-size: 18px;
      }

      .cls-54 {
        letter-spacing: -0.01em;
      }

      .cls-55 {
        letter-spacing: -0.01em;
      }

      .cls-56 {
        letter-spacing: -0.02em;
      }

      .cls-57 {
        letter-spacing: -0.07em;
      }

      .cls-58 {
        letter-spacing: 0em;
      }

      .cls-59 {
        letter-spacing: 0em;
      }
    </style>
  </defs>
  <g>
    <path class="cls-1" d="M123.94,191.92c1.3-.11,2.6-.22,3.91-.22s2.6.08,3.91.08a24.9,24.9,0,0,0,3.91-.44c1.3-.2,2.61-.64,3.92-.8a32.06,32.06,0,0,1,3.91-.24c1.3,0,2.61.88,3.91,1.19s2.61.32,3.91.65,2.61.88,3.92,1.33l3.91,1.37v.52H123.94Z"/>
    <g id="xAxis">
      <path class="cls-2" d="M124.44,195.86h180"/>
      <g>
        <line class="cls-2" x1="269.22" y1="195.36" x2="269.22" y2="201.36"/>
        <line class="cls-2" x1="288.78" y1="195.36" x2="288.78" y2="201.36"/>
        <line class="cls-2" x1="249.66" y1="195.36" x2="249.66" y2="201.36"/>
        <line class="cls-2" x1="230.08" y1="195.36" x2="230.08" y2="201.36"/>
        <line class="cls-2" x1="210.52" y1="195.36" x2="210.52" y2="201.36"/>
        <line class="cls-2" x1="190.96" y1="195.36" x2="190.96" y2="201.36"/>
        <line class="cls-2" x1="171.39" y1="195.36" x2="171.39" y2="201.36"/>
        <line class="cls-2" x1="151.82" y1="195.36" x2="151.82" y2="201.36"/>
        <line class="cls-2" x1="132.26" y1="195.36" x2="132.26" y2="201.36"/>
      </g>
      <g>
        <text class="cls-3" transform="translate(259.29 222.55) rotate(-45)">2010</text>
        <text class="cls-3" transform="translate(239.73 222.55) rotate(-45)">2005</text>
        <text class="cls-3" transform="translate(220.16 222.55) rotate(-45)">2000</text>
        <text class="cls-3" transform="translate(278.86 222.55) rotate(-45)">2015</text>
        <text class="cls-3" transform="translate(200.59 222.55) rotate(-45)">1995</text>
        <text class="cls-3" transform="translate(181.03 222.55) rotate(-45)">1990</text>
        <text class="cls-3" transform="translate(161.47 222.55) rotate(-45)">1985</text>
        <text class="cls-3" transform="translate(141.89 222.55) rotate(-45)">1980</text>
        <text class="cls-3" transform="translate(122.33 222.55) rotate(-45)">1<tspan class="cls-4" x="2.56" y="0">9</tspan><tspan x="7.86" y="0">75</tspan></text>
      </g>
    </g>
    <text class="cls-5" transform="translate(190.96 235.36)">8 - t<tspan class="cls-6" x="21.55" y="0">r</tspan><tspan class="cls-7" x="28.87" y="0">a</tspan><tspan x="36.46" y="0">ck</tspan></text>
  </g>
  <g>
    <path class="cls-1" d="M400.21,339.51h3.91c1.3,0,2.61,0,3.91,0s2.61-.08,3.91-.21,2.61-.32,3.92-.57,2.61-.66,3.91-.93,2.61-.41,3.91-.65,2.61-.49,3.91-.77a23.06,23.06,0,0,0,3.92-.95,42,42,0,0,0,3.91-2.24,32.5,32.5,0,0,0,3.91-2c1.31-.93,2.61-3.42,3.91-3.6s2.62-.19,3.93-.27,2.6-.07,3.91-.21,2.6-1.81,3.91-2.48,2.6-1.52,3.91-1.52,2.61.1,3.92.15,2.61.05,3.91.15,2.61,3.11,3.91,3.11,2.61-.24,3.91-.24,2.61,1,3.92,1,2.61-.22,3.91-.22,2.61,2,3.91,2.76,2.61,1.16,3.91,1.79a27.39,27.39,0,0,0,3.92,2c1.31.35,2.61.22,3.91.53a28.11,28.11,0,0,1,3.91,1.32c1.31.53,2.61,1.31,3.92,1.81a27.37,27.37,0,0,0,3.92,1.17c1.3.29,2.6.35,3.91.53l3.91.53c1.3.16,2.6.38,3.91.45s2.61.07,3.92.1,2.61.06,3.91.07H400.21Z"/>
    <text class="cls-5" transform="translate(457.44 381.75)">Ca<tspan class="cls-8" x="15.58" y="0">s</tspan><tspan x="22.56" y="0">sette</tspan></text>
    <g id="xAxis-2" data-name="xAxis">
      <path class="cls-2" d="M400.84,340.19h180"/>
      <g>
        <g>
          <line class="cls-2" x1="545.62" y1="339.69" x2="545.62" y2="345.69"/>
          <line class="cls-2" x1="565.19" y1="339.69" x2="565.19" y2="345.69"/>
          <line class="cls-2" x1="526.06" y1="339.69" x2="526.06" y2="345.69"/>
          <line class="cls-2" x1="506.49" y1="339.69" x2="506.49" y2="345.69"/>
          <line class="cls-2" x1="486.92" y1="339.69" x2="486.92" y2="345.69"/>
          <line class="cls-2" x1="467.36" y1="339.69" x2="467.36" y2="345.69"/>
          <line class="cls-2" x1="447.8" y1="339.69" x2="447.8" y2="345.69"/>
          <line class="cls-2" x1="428.22" y1="339.69" x2="428.22" y2="345.69"/>
          <line class="cls-2" x1="408.66" y1="339.69" x2="408.66" y2="345.69"/>
        </g>
        <g>
          <text class="cls-3" transform="translate(535.7 366.88) rotate(-45)">2010</text>
          <text class="cls-3" transform="translate(516.14 366.88) rotate(-45)">2005</text>
          <text class="cls-3" transform="translate(496.56 366.88) rotate(-45)">2000</text>
          <text class="cls-3" transform="translate(555.26 366.88) rotate(-45)">2015</text>
          <text class="cls-3" transform="translate(477 366.88) rotate(-45)">1995</text>
          <text class="cls-3" transform="translate(457.44 366.88) rotate(-45)">1990</text>
          <text class="cls-3" transform="translate(437.87 366.88) rotate(-45)">1985</text>
          <text class="cls-3" transform="translate(418.3 366.88) rotate(-45)">1980</text>
          <text class="cls-3" transform="translate(398.73 366.88) rotate(-45)">1<tspan class="cls-4" x="2.56" y="0">9</tspan><tspan x="7.86" y="0">75</tspan></text>
        </g>
      </g>
    </g>
  </g>
  <g>
    <path class="cls-1" d="M179.78,348.82a16.25,16.25,0,0,0,3.91-.66c1.3-.44,2.61-1.75,3.92-2a17.88,17.88,0,0,1,3.91-.43c1.3,0,2.61.7,3.91.7s2.61-.57,3.91-.59,2.61,0,3.92,0,2.61.08,3.91.17,2.61.26,3.91.4,2.61.23,3.91.41,2.62.45,3.92.67,2.61.42,3.91.59,2.61.31,3.91.47l3.91.49v0H179.78Z"/>
    <text class="cls-5" transform="translate(171.39 390.38)">Ca<tspan class="cls-8" x="15.58" y="0">s</tspan><tspan x="22.56" y="0">sette single</tspan></text>
    <g id="xAxis-3" data-name="xAxis">
      <path class="cls-9" d="M125.44,349.13h180"/>
      <g>
        <g>
          <line class="cls-9" x1="270.22" y1="348.63" x2="270.22" y2="354.63"/>
          <line class="cls-9" x1="289.78" y1="348.63" x2="289.78" y2="354.63"/>
          <line class="cls-9" x1="250.66" y1="348.63" x2="250.66" y2="354.63"/>
          <line class="cls-9" x1="231.08" y1="348.63" x2="231.08" y2="354.63"/>
          <line class="cls-9" x1="211.52" y1="348.63" x2="211.52" y2="354.63"/>
          <line class="cls-9" x1="191.96" y1="348.63" x2="191.96" y2="354.63"/>
          <line class="cls-9" x1="172.39" y1="348.63" x2="172.39" y2="354.63"/>
          <line class="cls-9" x1="152.82" y1="348.63" x2="152.82" y2="354.63"/>
          <line class="cls-9" x1="133.26" y1="348.63" x2="133.26" y2="354.63"/>
        </g>
        <g>
          <text class="cls-3" transform="translate(260.29 375.81) rotate(-45)">2010</text>
          <text class="cls-3" transform="translate(240.73 375.81) rotate(-45)">2005</text>
          <text class="cls-3" transform="translate(221.16 375.81) rotate(-45)">2000</text>
          <text class="cls-3" transform="translate(279.86 375.82) rotate(-45)">2015</text>
          <text class="cls-3" transform="translate(201.59 375.81) rotate(-45)">1995</text>
          <text class="cls-3" transform="translate(182.03 375.81) rotate(-45)">1990</text>
          <text class="cls-3" transform="translate(162.47 375.81) rotate(-45)">1985</text>
          <text class="cls-3" transform="translate(142.89 375.81) rotate(-45)">1980</text>
          <text class="cls-3" transform="translate(123.33 375.81) rotate(-45)">1<tspan class="cls-4" x="2.56" y="0">9</tspan><tspan x="7.86" y="0">75</tspan></text>
        </g>
      </g>
    </g>
  </g>
  <g>
    <path class="cls-10" d="M439.47,519.26c1.3,0,2.6-.06,3.91-.19a31.68,31.68,0,0,0,3.92-.64,27.52,27.52,0,0,0,3.91-1.15c1.3-.5,2.61-1.25,3.91-1.86s2.61-1.14,3.91-1.8a38.39,38.39,0,0,0,3.92-2.18c1.3-.86,2.61-2.21,3.91-3s2.61-1,3.91-1.78a35.64,35.64,0,0,0,3.91-2.81,19.36,19.36,0,0,0,3.92-3.33c1.31-1.61,2.61-4.88,3.91-6.32s2.61-1.56,3.91-2.3,2.61-2.12,3.91-2.12,2.62,1,3.93,1,2.6-2.39,3.91-3.56,2.6-3.39,3.91-3.48,2.6-.14,3.91-.14,2.61,1.41,3.92,2.3,2.61,2.12,3.91,3,2.61,2.17,3.91,2.17,2.61-.79,3.91-.79,2.61,1.4,3.92,2.33a30.3,30.3,0,0,1,3.91,3.25c1.31,1.3,2.61,3,3.91,4.55s2.61,3.69,3.91,5a16.74,16.74,0,0,0,3.92,2.72,15.36,15.36,0,0,0,3.91,1.65c1.31.31,2.61.16,3.91.47s2.61,1.19,3.92,1.61,2.61.55,3.92.93,2.6,1,3.91,1.33,2.6.55,3.91.81,2.6.56,3.91.74,2.61.13,3.92.38,2.61,1.21,3.91,1.35,2.61.17,3.91.21v1.76H439.47Z"/>
    <text class="cls-5" transform="translate(482.08 561.32)">CD</text>
    <g id="xAxis-4" data-name="xAxis">
      <path class="cls-2" d="M400.84,519.29h180"/>
      <g>
        <g>
          <line class="cls-2" x1="545.62" y1="518.79" x2="545.62" y2="524.79"/>
          <line class="cls-2" x1="565.19" y1="518.79" x2="565.19" y2="524.79"/>
          <line class="cls-2" x1="526.06" y1="518.79" x2="526.06" y2="524.79"/>
          <line class="cls-2" x1="506.49" y1="518.79" x2="506.49" y2="524.79"/>
          <line class="cls-2" x1="486.92" y1="518.79" x2="486.92" y2="524.79"/>
          <line class="cls-2" x1="467.36" y1="518.79" x2="467.36" y2="524.79"/>
          <line class="cls-2" x1="447.8" y1="518.79" x2="447.8" y2="524.79"/>
          <line class="cls-2" x1="428.22" y1="518.79" x2="428.22" y2="524.79"/>
          <line class="cls-2" x1="408.66" y1="518.79" x2="408.66" y2="524.79"/>
        </g>
        <g>
          <text class="cls-3" transform="translate(535.7 545.98) rotate(-45)">2010</text>
          <text class="cls-3" transform="translate(516.14 545.98) rotate(-45)">2005</text>
          <text class="cls-3" transform="translate(496.56 545.98) rotate(-45)">2000</text>
          <text class="cls-3" transform="translate(555.26 545.98) rotate(-45)">2015</text>
          <text class="cls-3" transform="translate(477 545.98) rotate(-45)">1995</text>
          <text class="cls-3" transform="translate(457.44 545.98) rotate(-45)">1990</text>
          <text class="cls-3" transform="translate(437.87 545.98) rotate(-45)">1985</text>
          <text class="cls-3" transform="translate(418.3 545.98) rotate(-45)">1980</text>
          <text class="cls-3" transform="translate(398.73 545.98) rotate(-45)">1<tspan class="cls-4" x="2.56" y="0">9</tspan><tspan x="7.86" y="0">75</tspan></text>
        </g>
      </g>
    </g>
  </g>
  <g>
    <path class="cls-11" d="M521.61,643.76c1.31-.1,2.62-.2,3.92-.34s2.61-.31,3.91-.53,2.61-.62,3.91-.85,2.61-.36,3.91-.52,2.62-.27,3.92-.41,2.61-.24,3.92-.43,2.6-.49,3.91-.68a30.49,30.49,0,0,1,3.91-.49c1.3,0,2.61,0,3.92,0s2.6.07,3.91.14,2.61.1,3.91.29,2.61.56,3.91.82,2.61.48,3.92.71,2.61.46,3.91.63,2.61.26,3.91.36v1.52h-58.7Z"/>
    <text class="cls-5" transform="translate(432.23 685.32)">D<tspan class="cls-12" x="8.07" y="0">o</tspan><tspan x="16.74" y="0">wn</tspan><tspan class="cls-13" x="35.88" y="0">lo</tspan><tspan class="cls-14" x="50.36" y="0">ad album</tspan></text>
    <g id="xAxis-5" data-name="xAxis">
      <path class="cls-2" d="M400.84,643.93h180"/>
      <g>
        <g>
          <line class="cls-2" x1="545.62" y1="643.43" x2="545.62" y2="649.43"/>
          <line class="cls-2" x1="565.19" y1="643.43" x2="565.19" y2="649.43"/>
          <line class="cls-2" x1="526.06" y1="643.43" x2="526.06" y2="649.43"/>
          <line class="cls-2" x1="506.49" y1="643.43" x2="506.49" y2="649.43"/>
          <line class="cls-2" x1="486.92" y1="643.43" x2="486.92" y2="649.43"/>
          <line class="cls-2" x1="467.36" y1="643.43" x2="467.36" y2="649.43"/>
          <line class="cls-2" x1="447.8" y1="643.43" x2="447.8" y2="649.43"/>
          <line class="cls-2" x1="428.22" y1="643.43" x2="428.22" y2="649.43"/>
          <line class="cls-2" x1="408.66" y1="643.43" x2="408.66" y2="649.43"/>
        </g>
        <g>
          <text class="cls-3" transform="translate(535.7 670.62) rotate(-45)">2010</text>
          <text class="cls-3" transform="translate(516.14 670.62) rotate(-45)">2005</text>
          <text class="cls-3" transform="translate(496.56 670.62) rotate(-45)">2000</text>
          <text class="cls-3" transform="translate(555.26 670.62) rotate(-45)">2015</text>
          <text class="cls-3" transform="translate(477 670.62) rotate(-45)">1995</text>
          <text class="cls-3" transform="translate(457.44 670.62) rotate(-45)">1990</text>
          <text class="cls-3" transform="translate(437.87 670.62) rotate(-45)">1985</text>
          <text class="cls-3" transform="translate(418.3 670.62) rotate(-45)">1980</text>
          <text class="cls-3" transform="translate(398.73 670.62) rotate(-45)">1<tspan class="cls-4" x="2.56" y="0">9</tspan><tspan x="7.86" y="0">75</tspan></text>
        </g>
      </g>
    </g>
  </g>
  <g>
    <path class="cls-11" d="M249.22,577.34c1.3-1.91,2.61-3.82,3.91-5.49s2.61-4.5,3.91-4.5a7.93,7.93,0,0,1,3.91,1.09c1.31.72,2.61,2.82,3.92,4.19s2.61,2.88,3.91,4a31,31,0,0,0,3.91,2.77,22.68,22.68,0,0,0,3.91,2.15,19.43,19.43,0,0,0,3.92.73c1.31.21,2.61.38,3.91.49s2.61.17,3.92.17l3.91,0c1.3,0,2.61.23,3.92.31s2.6.13,3.91.17,2.6,0,3.91.05v.32H249.22Z"/>
    <text class="cls-5" transform="translate(141.89 622.95)">Rin<tspan class="cls-12" x="19.24" y="0">g</tspan><tspan class="cls-15" x="27.43" y="0">t</tspan><tspan x="33.54" y="0">on</tspan><tspan class="cls-16" x="50.87" y="0">e</tspan><tspan class="cls-17" x="57.88" y="0">s &amp; ringb</tspan><tspan class="cls-7" x="112.78" y="0">a</tspan><tspan x="120.37" y="0">c</tspan><tspan class="cls-18" x="128.06" y="0">k</tspan><tspan x="135.03" y="0">s</tspan></text>
    <g id="xAxis-6" data-name="xAxis">
      <path class="cls-2" d="M124.44,583.78h180"/>
      <g>
        <line class="cls-2" x1="269.22" y1="583.28" x2="269.22" y2="589.28"/>
        <line class="cls-2" x1="288.78" y1="583.28" x2="288.78" y2="589.28"/>
        <line class="cls-2" x1="249.66" y1="583.28" x2="249.66" y2="589.28"/>
        <line class="cls-2" x1="230.08" y1="583.28" x2="230.08" y2="589.28"/>
        <line class="cls-2" x1="210.52" y1="583.28" x2="210.52" y2="589.28"/>
        <line class="cls-2" x1="190.96" y1="583.28" x2="190.96" y2="589.28"/>
        <line class="cls-2" x1="171.39" y1="583.28" x2="171.39" y2="589.28"/>
        <line class="cls-2" x1="151.82" y1="583.28" x2="151.82" y2="589.28"/>
        <line class="cls-2" x1="132.26" y1="583.28" x2="132.26" y2="589.28"/>
      </g>
      <g>
        <text class="cls-3" transform="translate(259.29 610.47) rotate(-45)">2010</text>
        <text class="cls-3" transform="translate(239.73 610.47) rotate(-45)">2005</text>
        <text class="cls-3" transform="translate(220.16 610.47) rotate(-45)">2000</text>
        <text class="cls-3" transform="translate(278.86 610.47) rotate(-45)">2015</text>
        <text class="cls-3" transform="translate(200.59 610.47) rotate(-45)">1995</text>
        <text class="cls-3" transform="translate(181.03 610.47) rotate(-45)">1990</text>
        <text class="cls-3" transform="translate(161.47 610.47) rotate(-45)">1985</text>
        <text class="cls-3" transform="translate(141.89 610.47) rotate(-45)">1980</text>
        <text class="cls-3" transform="translate(122.33 610.47) rotate(-45)">1<tspan class="cls-4" x="2.56" y="0">9</tspan><tspan x="7.86" y="0">75</tspan></text>
      </g>
    </g>
  </g>
  <g>
    <path class="cls-11" d="M245.3,698.58c1.3-2.89,2.61-5.79,3.92-8.62s2.61-5.45,3.91-8.31,2.61-5.95,3.91-8.83,2.61-6.54,3.91-8.46,2.61-2.25,3.92-3.1,2.61-.69,3.91-2,2.61-4.44,3.91-5.87,2.61-2.66,3.91-2.66,2.62,1.07,3.92,2.65,2.61,4.57,3.91,6.76,2.61,3.77,3.91,6.37,2.61,6.48,3.92,9.21a79,79,0,0,0,3.92,7.18,36.54,36.54,0,0,0,3.91,5.83,9.83,9.83,0,0,0,3.91,2.44v12.71H245.3Z"/>
    <text class="cls-5" transform="translate(157.11 745)">D<tspan class="cls-12" x="8.07" y="0">o</tspan><tspan x="16.74" y="0">wn</tspan><tspan class="cls-13" x="35.88" y="0">lo</tspan><tspan class="cls-14" x="50.36" y="0">ad single</tspan></text>
    <g id="xAxis-7" data-name="xAxis">
      <path class="cls-2" d="M124.44,704.45h180"/>
      <g>
        <line class="cls-2" x1="269.22" y1="703.95" x2="269.22" y2="709.95"/>
        <line class="cls-2" x1="288.78" y1="703.95" x2="288.78" y2="709.95"/>
        <line class="cls-2" x1="249.66" y1="703.95" x2="249.66" y2="709.95"/>
        <line class="cls-2" x1="230.08" y1="703.95" x2="230.08" y2="709.95"/>
        <line class="cls-2" x1="210.52" y1="703.95" x2="210.52" y2="709.95"/>
        <line class="cls-2" x1="190.96" y1="703.95" x2="190.96" y2="709.95"/>
        <line class="cls-2" x1="171.39" y1="703.95" x2="171.39" y2="709.95"/>
        <line class="cls-2" x1="151.82" y1="703.95" x2="151.82" y2="709.95"/>
        <line class="cls-2" x1="132.26" y1="703.95" x2="132.26" y2="709.95"/>
      </g>
      <g>
        <text class="cls-3" transform="translate(259.29 731.14) rotate(-45)">2010</text>
        <text class="cls-3" transform="translate(239.73 731.14) rotate(-45)">2005</text>
        <text class="cls-3" transform="translate(220.16 731.14) rotate(-45)">2000</text>
        <text class="cls-3" transform="translate(278.86 731.14) rotate(-45)">2015</text>
        <text class="cls-3" transform="translate(200.59 731.14) rotate(-45)">1995</text>
        <text class="cls-3" transform="translate(181.03 731.14) rotate(-45)">1990</text>
        <text class="cls-3" transform="translate(161.47 731.14) rotate(-45)">1985</text>
        <text class="cls-3" transform="translate(141.89 731.14) rotate(-45)">1980</text>
        <text class="cls-3" transform="translate(122.33 731.14) rotate(-45)">1<tspan class="cls-4" x="2.56" y="0">9</tspan><tspan x="7.86" y="0">75</tspan></text>
      </g>
    </g>
  </g>
  <g>
    <path class="cls-19" d="M400.46,167.18c1.3,0,2.6,0,3.91.15s2.6.72,3.91.72a13.32,13.32,0,0,0,3.91-.6c1.3-.41,2.61-2.69,3.92-2.69s2.61,0,3.91.1,2.61,1.94,3.91,1.94,2.61-.68,3.91-.68a16,16,0,0,1,3.92.49c1.3.32,2.61,1.4,3.91,1.94a14.73,14.73,0,0,0,3.91,1.3c1.31.13,2.61.06,3.91.19a16.55,16.55,0,0,1,3.92,1.42c1.31.51,2.61,1.21,3.91,1.59s2.61.35,3.91.69,2.61.85,3.92,1.31,2.61,1,3.92,1.43a27.13,27.13,0,0,0,3.91.87c1.3.17,2.6.2,3.91.26s2.6.07,3.91.09,2.61.05,3.92.05l3.91,0h3.91l3.91,0h3.92c1.31,0,2.61,0,3.91,0l3.91,0,3.91,0H510c1.31,0,2.61,0,3.91,0h15.66l3.91,0,3.91-.06,3.92,0c1.3,0,2.61,0,3.91,0l3.91,0,3.91-.05c1.31,0,2.62-.07,3.92-.09s2.61,0,3.91,0,2.61-.1,3.91-.13l3.91,0,3.92,0,3.92,0,3.91-.09v.72h-180Z"/>
    <text class="cls-5" transform="translate(477 222.11) scale(1.12 1)">LP/<tspan class="cls-20" x="17.57" y="0"> </tspan><tspan x="18.46" y="0">EP</tspan></text>
    <g id="xAxis-8" data-name="xAxis">
      <path class="cls-2" d="M400.84,178.29h180"/>
      <g>
        <line class="cls-2" x1="545.62" y1="177.79" x2="545.62" y2="183.79"/>
        <line class="cls-2" x1="565.19" y1="177.79" x2="565.19" y2="183.79"/>
        <line class="cls-2" x1="526.06" y1="177.79" x2="526.06" y2="183.79"/>
        <line class="cls-2" x1="506.49" y1="177.79" x2="506.49" y2="183.79"/>
        <line class="cls-2" x1="486.92" y1="177.79" x2="486.92" y2="183.79"/>
        <line class="cls-2" x1="467.36" y1="177.79" x2="467.36" y2="183.79"/>
        <line class="cls-2" x1="447.8" y1="177.79" x2="447.8" y2="183.79"/>
        <line class="cls-2" x1="428.22" y1="177.79" x2="428.22" y2="183.79"/>
        <line class="cls-2" x1="408.66" y1="177.79" x2="408.66" y2="183.79"/>
      </g>
      <g>
        <text class="cls-3" transform="translate(535.7 204.98) rotate(-45)">2010</text>
        <text class="cls-3" transform="translate(516.14 204.98) rotate(-45)">2005</text>
        <text class="cls-3" transform="translate(496.56 204.98) rotate(-45)">2000</text>
        <text class="cls-3" transform="translate(555.26 204.98) rotate(-45)">2015</text>
        <text class="cls-3" transform="translate(477 204.98) rotate(-45)">1995</text>
        <text class="cls-3" transform="translate(457.44 204.98) rotate(-45)">1990</text>
        <text class="cls-3" transform="translate(437.87 204.98) rotate(-45)">1985</text>
        <text class="cls-3" transform="translate(418.3 204.98) rotate(-45)">1980</text>
        <text class="cls-3" transform="translate(398.73 204.98) rotate(-45)">1<tspan class="cls-4" x="2.56" y="0">9</tspan><tspan x="7.86" y="0">75</tspan></text>
      </g>
    </g>
  </g>
  <g>
    <path class="cls-19" d="M124.05,91.69a34.5,34.5,0,0,1,3.91.91c1.3.4,2.61,1.51,3.91,1.51s2.61-1,3.91-1h7.83c1.31,0,2.61-.84,3.91-.84s2.61,2,3.91,2.09,2.62,0,3.93.09a38.45,38.45,0,0,1,3.91.66,27.27,27.27,0,0,0,3.91.47c1.3,0,2.6-.26,3.91-.26a22.78,22.78,0,0,1,3.92.41c1.3.24,2.61.77,3.91,1s2.61.27,3.91.45,2.61.34,3.91.62,2.61.87,3.92,1.1a36.84,36.84,0,0,0,3.91.34c1.31.09,2.61.16,3.91.21s2.61,0,3.91.09,2.62.12,3.92.18l3.91.12c1.31,0,2.61.06,3.91.06h3.92c1.3,0,2.61.07,3.92.1s2.6.08,3.91.08h3.91l3.91,0c1.3,0,2.61,0,3.92,0s2.61,0,3.91,0l3.91,0h3.91l3.92,0,3.91,0,3.91,0h47v0h-180Z"/>
    <text class="cls-5" transform="translate(179.78 142.1)">Vinyl single</text>
    <g id="xAxis-9" data-name="xAxis">
      <path class="cls-2" d="M124.44,100.83h180"/>
      <g>
        <line class="cls-2" x1="269.22" y1="100.33" x2="269.22" y2="106.33"/>
        <line class="cls-2" x1="288.78" y1="100.33" x2="288.78" y2="106.33"/>
        <line class="cls-2" x1="249.66" y1="100.33" x2="249.66" y2="106.33"/>
        <line class="cls-2" x1="230.08" y1="100.33" x2="230.08" y2="106.33"/>
        <line class="cls-2" x1="210.52" y1="100.33" x2="210.52" y2="106.33"/>
        <line class="cls-2" x1="190.96" y1="100.33" x2="190.96" y2="106.33"/>
        <line class="cls-2" x1="171.39" y1="100.33" x2="171.39" y2="106.33"/>
        <line class="cls-2" x1="151.82" y1="100.33" x2="151.82" y2="106.33"/>
        <line class="cls-2" x1="132.26" y1="100.33" x2="132.26" y2="106.33"/>
      </g>
      <g>
        <text class="cls-3" transform="translate(259.29 127.51) rotate(-45)">2010</text>
        <text class="cls-3" transform="translate(239.73 127.51) rotate(-45)">2005</text>
        <text class="cls-3" transform="translate(220.16 127.51) rotate(-45)">2000</text>
        <text class="cls-3" transform="translate(278.86 127.51) rotate(-45)">2015</text>
        <text class="cls-3" transform="translate(200.59 127.51) rotate(-45)">1995</text>
        <text class="cls-3" transform="translate(181.03 127.51) rotate(-45)">1990</text>
        <text class="cls-3" transform="translate(161.47 127.51) rotate(-45)">1985</text>
        <text class="cls-3" transform="translate(141.89 127.51) rotate(-45)">1980</text>
        <text class="cls-3" transform="translate(122.33 127.51) rotate(-45)">1<tspan class="cls-4" x="2.56" y="0">9</tspan><tspan x="7.86" y="0">75</tspan></text>
      </g>
    </g>
  </g>
  <g id="Color_legend" data-name="Color legend">
    <rect class="cls-19" x="414.01" y="734.15" width="13.18" height="13.18"/>
    <rect class="cls-11" x="479.69" y="754.15" width="13.18" height="13.18"/>
    <rect class="cls-10" x="479.69" y="734.15" width="13.18" height="13.18"/>
    <rect class="cls-1" x="414.01" y="754.15" width="13.18" height="13.18"/>
    <text class="cls-21" transform="translate(435.18 743.43)">Vinyl</text>
    <text class="cls-21" transform="translate(435.18 763.44)"><tspan class="cls-22">T</tspan><tspan x="6.43" y="0">ape</tspan></text>
    <text class="cls-21" transform="translate(500.86 743.43)">Disc</text>
    <text class="cls-21" transform="translate(500.86 763.44)">D<tspan class="cls-23" x="8.89" y="0">o</tspan><tspan class="cls-24" x="18.47" y="0">wn</tspan><tspan class="cls-25" x="39.53" y="0">l</tspan><tspan class="cls-26" x="46.08" y="0">o</tspan><tspan x="55.42" y="0">ad</tspan></text>
  </g>
  <line class="cls-27" x1="348.47" y1="74.19" x2="348.47" y2="671.63"/>
  <g class="cls-28">
    <g>
      <line class="cls-29" x1="124.05" y1="90.96" x2="124.05" y2="90.96"/>
      <line class="cls-30" x1="130.12" y1="90.96" x2="357.56" y2="90.96"/>
      <line class="cls-29" x1="360.59" y1="90.96" x2="360.59" y2="90.96"/>
    </g>
  </g>
  <text class="cls-31" transform="translate(364.04 93.63)">1<tspan class="cls-32" x="3.07" y="0">9</tspan><tspan class="cls-23" x="9.43" y="0">7</tspan><tspan x="14.86" y="0">3</tspan></text>
  <g class="cls-28">
    <g>
      <line class="cls-29" x1="336.81" y1="163.47" x2="336.81" y2="163.47"/>
      <line class="cls-33" x1="342.75" y1="163.47" x2="417.05" y2="163.47"/>
      <line class="cls-29" x1="420.02" y1="163.47" x2="420.02" y2="163.47"/>
    </g>
  </g>
  <text class="cls-31" transform="translate(314.04 166.13)">1<tspan class="cls-32" x="3.07" y="0">9</tspan><tspan x="9.43" y="0">77</tspan></text>
  <g class="cls-28">
    <g>
      <line class="cls-29" x1="141.89" y1="190.01" x2="141.89" y2="190.01"/>
      <line class="cls-34" x1="147.97" y1="190.01" x2="357.61" y2="190.01"/>
      <line class="cls-29" x1="360.65" y1="190.01" x2="360.65" y2="190.01"/>
    </g>
  </g>
  <text class="cls-31" transform="translate(364.04 192.83)">1<tspan class="cls-32" x="3.07" y="0">9</tspan><tspan class="cls-23" x="9.43" y="0">7</tspan><tspan x="14.86" y="0">8</tspan></text>
  <g class="cls-28">
    <g>
      <line class="cls-29" x1="336.19" y1="322.24" x2="336.19" y2="322.24"/>
      <line class="cls-35" x1="342.22" y1="322.24" x2="459.8" y2="322.24"/>
      <line class="cls-29" x1="462.82" y1="322.24" x2="462.82" y2="322.24"/>
    </g>
  </g>
  <text class="cls-31" transform="translate(312.06 326.57)">1988</text>
  <text class="cls-31" transform="translate(365.15 348.63)">1990</text>
  <g class="cls-28">
    <g>
      <line class="cls-29" x1="191.89" y1="345.39" x2="191.89" y2="345.39"/>
      <line class="cls-36" x1="197.92" y1="345.39" x2="357.64" y2="345.39"/>
      <line class="cls-29" x1="360.65" y1="345.39" x2="360.65" y2="345.39"/>
    </g>
  </g>
  <text class="cls-31" transform="translate(313.08 485.13)">2000</text>
  <g class="cls-28">
    <g>
      <line class="cls-29" x1="336.5" y1="481.59" x2="336.5" y2="481.59"/>
      <line class="cls-37" x1="342.55" y1="481.59" x2="502.96" y2="481.59"/>
      <line class="cls-29" x1="505.99" y1="481.59" x2="505.99" y2="481.59"/>
    </g>
  </g>
  <text class="cls-31" transform="translate(364.18 569.79)">2006</text>
  <g class="cls-28">
    <g>
      <line class="cls-29" x1="260.29" y1="566.82" x2="260.29" y2="566.82"/>
      <line class="cls-38" x1="266.17" y1="566.82" x2="357.3" y2="566.82"/>
      <line class="cls-29" x1="360.24" y1="566.82" x2="360.24" y2="566.82"/>
    </g>
  </g>
  <text class="cls-31" transform="translate(314.04 641.7)">2012</text>
  <g class="cls-28">
    <g>
      <line class="cls-29" x1="336.5" y1="638.5" x2="336.5" y2="638.5"/>
      <line class="cls-39" x1="342.58" y1="638.47" x2="552.22" y2="637.53"/>
      <line class="cls-29" x1="555.26" y1="637.51" x2="555.26" y2="637.51"/>
    </g>
  </g>
  <text class="cls-31" transform="translate(364.44 654.19)">2013</text>
  <g class="cls-28">
    <g>
      <line class="cls-29" x1="276.6" y1="650.72" x2="276.6" y2="650.72"/>
      <line class="cls-40" x1="282.58" y1="650.72" x2="357.25" y2="650.72"/>
      <line class="cls-29" x1="360.24" y1="650.72" x2="360.24" y2="650.72"/>
    </g>
  </g>
  <text class="cls-41" transform="translate(317.34 48.19)">P<tspan class="cls-12" x="7.35" y="0">e</tspan><tspan class="cls-17" x="14.39" y="0">ak y</tspan><tspan class="cls-42" x="39.4" y="0">e</tspan><tspan x="46.44" y="0">ar</tspan><tspan x="-11.46" y="13.2">of uni</tspan><tspan class="cls-43" x="26.9" y="13.2">t</tspan><tspan x="33.23" y="13.2">s sold</tspan></text>
  <text class="cls-44" transform="translate(450.61 721.25)">C<tspan class="cls-45" x="8.39" y="0">a</tspan><tspan x="16.15" y="0">t</tspan><tspan class="cls-46" x="23.24" y="0">e</tspan><tspan class="cls-47" x="30.56" y="0">go</tspan><tspan class="cls-48" x="49.2" y="0">r</tspan><tspan class="cls-49" x="57.38" y="0">y</tspan></text>
  <text class="cls-50" transform="translate(55.18 545.27) rotate(-90)">H<tspan class="cls-51" x="22.74" y="0">o</tspan><tspan x="46.05" y="0">w we </tspan><tspan class="cls-52" x="137.28" y="0">li</tspan><tspan class="cls-51" x="163.86" y="0">s</tspan><tspan x="182.58" y="0">ten</tspan><tspan class="cls-53"><tspan x="-62.71" y="21.6">Number of sal</tspan><tspan class="cls-54" x="86.96" y="21.6">e</tspan><tspan x="98.42" y="21.6">s </tspan><tspan class="cls-55" x="114.59" y="21.6">b</tspan><tspan x="126.79" y="21.6">y </tspan><tspan class="cls-56" x="143.15" y="21.6">F</tspan><tspan x="153.74" y="21.6">orm</tspan><tspan class="cls-57" x="196.58" y="21.6">a</tspan><tspan x="208.22" y="21.6">t 1</tspan><tspan class="cls-58" x="228.67" y="21.6">9</tspan><tspan class="cls-59" x="238.5" y="21.6">75 - 2019</tspan></tspan></text>
</svg>
