<svg xmlns="http://www.w3.org/2000/svg" xmlns:xlink="http://www.w3.org/1999/xlink" width="1024" height="768" viewBox="0 0 1024 768">
  <defs>
    <style>
      .cls-1, .cls-2, .cls-26, .cls-30, .cls-31, .cls-32, .cls-33, .cls-44, .cls-49, .cls-56, .cls-66, .cls-73, .cls-75, .cls-76, .cls-77 {
        fill: none;
      }

      .cls-2 {
        stroke: #231f20;
        stroke-width: 0.72px;
      }

      .cls-3, .cls-78 {
        fill: #d8d8d8;
      }

      .cls-4 {
        font-size: 27px;
      }

      .cls-20, .cls-27, .cls-4, .cls-41, .cls-45, .cls-46, .cls-47, .cls-57, .cls-58, .cls-63, .cls-64 {
        fill: #787878;
      }

      .cls-104, .cls-15, .cls-20, .cls-4, .cls-41, .cls-46, .cls-47 {
        font-family: Montserrat-Bold, Montserrat;
        font-weight: 700;
      }

      .cls-5 {
        letter-spacing: -0.01em;
      }

      .cls-6 {
        font-size: 20px;
        font-weight: 400;
      }

      .cls-27, .cls-57, .cls-58, .cls-6, .cls-63, .cls-64, .cls-84 {
        font-family: Montserrat-Regular, Montserrat;
      }

      .cls-7 {
        letter-spacing: -0.02em;
      }

      .cls-8 {
        letter-spacing: -0.01em;
      }

      .cls-9 {
        letter-spacing: -0.01em;
      }

      .cls-10 {
        letter-spacing: -0.01em;
      }

      .cls-11 {
        letter-spacing: 0em;
      }

      .cls-12 {
        letter-spacing: -0.02em;
      }

      .cls-13 {
        letter-spacing: 0em;
      }

      .cls-14 {
        letter-spacing: -0.01em;
      }

      .cls-16 {
        letter-spacing: 0em;
      }

      .cls-17 {
        letter-spacing: 0em;
      }

      .cls-18 {
        letter-spacing: 0em;
      }

      .cls-19 {
        letter-spacing: 0em;
      }

      .cls-20 {
        font-size: 15px;
      }

      .cls-21 {
        letter-spacing: -0.03em;
      }

      .cls-22 {
        letter-spacing: -0.01em;
      }

      .cls-23 {
        letter-spacing: -0.01em;
      }

      .cls-24 {
        letter-spacing: 0.01em;
      }

      .cls-25 {
        letter-spacing: 0em;
      }

      .cls-26, .cls-30, .cls-31, .cls-32, .cls-33 {
        stroke: #fff;
      }

      .cls-26, .cls-30, .cls-31, .cls-32, .cls-33, .cls-44, .cls-49, .cls-56, .cls-63, .cls-64, .cls-66, .cls-73, .cls-75, .cls-76, .cls-77, .cls-78 {
        stroke-miterlimit: 10;
      }

      .cls-26 {
        stroke-width: 5.92px;
      }

      .cls-27 {
        font-size: 10px;
      }

      .cls-28 {
        letter-spacing: -0.01em;
      }

      .cls-29 {
        letter-spacing: 0.01em;
      }

      .cls-30, .cls-77 {
        stroke-width: 4.93px;
      }

      .cls-31 {
        stroke-width: 3.99px;
      }

      .cls-32 {
        stroke-width: 2.57px;
      }

      .cls-34 {
        letter-spacing: -0.01em;
      }

      .cls-35 {
        fill: #945e9e;
      }

      .cls-36 {
        fill: #d37928;
      }

      .cls-37 {
        fill: #c32026;
      }

      .cls-38 {
        fill: #1f9647;
      }

      .cls-39 {
        fill: #91642e;
      }

      .cls-40 {
        fill: #fff;
      }

      .cls-41 {
        font-size: 13.63px;
      }

      .cls-42 {
        letter-spacing: 0.01em;
      }

      .cls-43 {
        letter-spacing: 0em;
      }

      .cls-44, .cls-56, .cls-63, .cls-64, .cls-73 {
        stroke: #787878;
      }

      .cls-44 {
        stroke-width: 2.37px;
      }

      .cls-46 {
        font-size: 9.48px;
      }

      .cls-47 {
        font-size: 11.84px;
      }

      .cls-48 {
        letter-spacing: -0.02em;
      }

      .cls-49, .cls-78 {
        stroke: #d37928;
      }

      .cls-49, .cls-63, .cls-64, .cls-78 {
        stroke-linecap: round;
      }

      .cls-49 {
        stroke-width: 0.79px;
        stroke-dasharray: 0.79 0.79;
      }

      .cls-50 {
        letter-spacing: -0.03em;
      }

      .cls-51 {
        letter-spacing: -0.02em;
      }

      .cls-52 {
        letter-spacing: -0.01em;
      }

      .cls-53 {
        letter-spacing: 0.01em;
      }

      .cls-54 {
        letter-spacing: 0em;
      }

      .cls-55 {
        letter-spacing: 0em;
      }

      .cls-56 {
        stroke-width: 0.91px;
      }

      .cls-57 {
        font-size: 13.37px;
      }

      .cls-58, .cls-63, .cls-64 {
        font-size: 12px;
      }

      .cls-59 {
        letter-spacing: -0.06em;
      }

      .cls-60 {
        letter-spacing: -0.01em;
      }

      .cls-61 {
        letter-spacing: 0em;
      }

      .cls-62 {
        letter-spacing: 0em;
      }

      .cls-63, .cls-64 {
        stroke-width: 0.75px;
        stroke-dasharray: 1;
      }

      .cls-64 {
        letter-spacing: -0.02em;
      }

      .cls-65 {
        letter-spacing: 0em;
      }

      .cls-66, .cls-77 {
        stroke: #f3bb1a;
      }

      .cls-66 {
        stroke-width: 1.5px;
      }

      .cls-67 {
        letter-spacing: 0em;
      }

      .cls-68 {
        letter-spacing: -0.05em;
      }

      .cls-69 {
        letter-spacing: -0.01em;
      }

      .cls-70 {
        letter-spacing: 0em;
      }

      .cls-71, .cls-72 {
        opacity: 0.2;
      }

      .cls-71 {
        fill: url(#_10_lpi_10_);
      }

      .cls-72 {
        fill: url(#_10_lpi_10_3);
      }

      .cls-73 {
        stroke-width: 0.98px;
      }

      .cls-74 {
        letter-spacing: -0.02em;
      }

      .cls-75 {
        stroke: #969696;
        stroke-width: 1.63px;
      }

      .cls-76 {
        stroke: #945e9e;
        stroke-width: 2.45px;
      }

      .cls-78 {
        stroke-width: 0.78px;
        stroke-dasharray: 0.78;
      }

      .cls-79 {
        fill: #f3bb1a;
      }

      .cls-80 {
        letter-spacing: 0em;
      }

      .cls-81 {
        letter-spacing: -0.01em;
      }

      .cls-82 {
        letter-spacing: -0.02em;
      }

      .cls-83 {
        letter-spacing: 0em;
      }

      .cls-84 {
        font-size: 14px;
        fill: #231f20;
      }

      .cls-85 {
        letter-spacing: -0.01em;
      }

      .cls-86 {
        letter-spacing: 0em;
      }

      .cls-87 {
        letter-spacing: -0.01em;
      }

      .cls-88 {
        letter-spacing: -0.01em;
      }

      .cls-89 {
        letter-spacing: 0em;
      }

      .cls-90 {
        letter-spacing: 0em;
      }

      .cls-91 {
        letter-spacing: -0.02em;
      }

      .cls-92 {
        letter-spacing: -0.01em;
      }

      .cls-93 {
        letter-spacing: -0.01em;
      }

      .cls-94 {
        letter-spacing: -0.02em;
      }

      .cls-95 {
        letter-spacing: -0.01em;
      }

      .cls-96 {
        letter-spacing: -0.02em;
      }

      .cls-97 {
        letter-spacing: -0.01em;
      }

      .cls-98 {
        letter-spacing: -0.06em;
      }

      .cls-99 {
        letter-spacing: 0.01em;
      }

      .cls-100 {
        letter-spacing: 0.01em;
      }

      .cls-101 {
        letter-spacing: 0em;
      }

      .cls-102 {
        letter-spacing: -0.05em;
      }

      .cls-103 {
        letter-spacing: 0.01em;
      }

      .cls-104 {
        letter-spacing: 0em;
      }
    </style>
    <pattern id="_10_lpi_10_" data-name="10 lpi 10%" width="72" height="72" patternTransform="translate(-447.26 315.28) scale(1.87 0.91)" patternUnits="userSpaceOnUse" viewBox="0 0 72 72">
      <rect class="cls-1" width="72" height="72"/>
      <g>
        <line class="cls-2" x1="71.75" y1="68.4" x2="144.25" y2="68.4"/>
        <line class="cls-2" x1="71.75" y1="54" x2="144.25" y2="54"/>
        <line class="cls-2" x1="71.75" y1="39.6" x2="144.25" y2="39.6"/>
        <line class="cls-2" x1="71.75" y1="25.2" x2="144.25" y2="25.2"/>
        <line class="cls-2" x1="71.75" y1="10.8" x2="144.25" y2="10.8"/>
        <line class="cls-2" x1="71.75" y1="61.2" x2="144.25" y2="61.2"/>
        <line class="cls-2" x1="71.75" y1="46.8" x2="144.25" y2="46.8"/>
        <line class="cls-2" x1="71.75" y1="32.4" x2="144.25" y2="32.4"/>
        <line class="cls-2" x1="71.75" y1="18" x2="144.25" y2="18"/>
        <line class="cls-2" x1="71.75" y1="3.6" x2="144.25" y2="3.6"/>
      </g>
      <g>
        <line class="cls-2" x1="-0.25" y1="68.4" x2="72.25" y2="68.4"/>
        <line class="cls-2" x1="-0.25" y1="54" x2="72.25" y2="54"/>
        <line class="cls-2" x1="-0.25" y1="39.6" x2="72.25" y2="39.6"/>
        <line class="cls-2" x1="-0.25" y1="25.2" x2="72.25" y2="25.2"/>
        <line class="cls-2" x1="-0.25" y1="10.8" x2="72.25" y2="10.8"/>
        <line class="cls-2" x1="-0.25" y1="61.2" x2="72.25" y2="61.2"/>
        <line class="cls-2" x1="-0.25" y1="46.8" x2="72.25" y2="46.8"/>
        <line class="cls-2" x1="-0.25" y1="32.4" x2="72.25" y2="32.4"/>
        <line class="cls-2" x1="-0.25" y1="18" x2="72.25" y2="18"/>
        <line class="cls-2" x1="-0.25" y1="3.6" x2="72.25" y2="3.6"/>
      </g>
      <g>
        <line class="cls-2" x1="-72.25" y1="68.4" x2="0.25" y2="68.4"/>
        <line class="cls-2" x1="-72.25" y1="54" x2="0.25" y2="54"/>
        <line class="cls-2" x1="-72.25" y1="39.6" x2="0.25" y2="39.6"/>
        <line class="cls-2" x1="-72.25" y1="25.2" x2="0.25" y2="25.2"/>
        <line class="cls-2" x1="-72.25" y1="10.8" x2="0.25" y2="10.8"/>
        <line class="cls-2" x1="-72.25" y1="61.2" x2="0.25" y2="61.2"/>
        <line class="cls-2" x1="-72.25" y1="46.8" x2="0.25" y2="46.8"/>
        <line class="cls-2" x1="-72.25" y1="32.4" x2="0.25" y2="32.4"/>
        <line class="cls-2" x1="-72.25" y1="18" x2="0.25" y2="18"/>
        <line class="cls-2" x1="-72.25" y1="3.6" x2="0.25" y2="3.6"/>
      </g>
    </pattern>
    <pattern id="_10_lpi_10_3" data-name="10 lpi 10%" width="72" height="72" patternTransform="translate(-426.12 315.28) scale(1.87 0.91)" patternUnits="userSpaceOnUse" viewBox="0 0 72 72">
      <rect class="cls-1" width="72" height="72"/>
      <g>
        <line class="cls-2" x1="71.75" y1="68.4" x2="144.25" y2="68.4"/>
        <line class="cls-2" x1="71.75" y1="54" x2="144.25" y2="54"/>
        <line class="cls-2" x1="71.75" y1="39.6" x2="144.25" y2="39.6"/>
        <line class="cls-2" x1="71.75" y1="25.2" x2="144.25" y2="25.2"/>
        <line class="cls-2" x1="71.75" y1="10.8" x2="144.25" y2="10.8"/>
        <line class="cls-2" x1="71.75" y1="61.2" x2="144.25" y2="61.2"/>
        <line class="cls-2" x1="71.75" y1="46.8" x2="144.25" y2="46.8"/>
        <line class="cls-2" x1="71.75" y1="32.4" x2="144.25" y2="32.4"/>
        <line class="cls-2" x1="71.75" y1="18" x2="144.25" y2="18"/>
        <line class="cls-2" x1="71.75" y1="3.6" x2="144.25" y2="3.6"/>
      </g>
      <g>
        <line class="cls-2" x1="-0.25" y1="68.4" x2="72.25" y2="68.4"/>
        <line class="cls-2" x1="-0.25" y1="54" x2="72.25" y2="54"/>
        <line class="cls-2" x1="-0.25" y1="39.6" x2="72.25" y2="39.6"/>
        <line class="cls-2" x1="-0.25" y1="25.2" x2="72.25" y2="25.2"/>
        <line class="cls-2" x1="-0.25" y1="10.8" x2="72.25" y2="10.8"/>
        <line class="cls-2" x1="-0.25" y1="61.2" x2="72.25" y2="61.2"/>
        <line class="cls-2" x1="-0.25" y1="46.8" x2="72.25" y2="46.8"/>
        <line class="cls-2" x1="-0.25" y1="32.4" x2="72.25" y2="32.4"/>
        <line class="cls-2" x1="-0.25" y1="18" x2="72.25" y2="18"/>
        <line class="cls-2" x1="-0.25" y1="3.6" x2="72.25" y2="3.6"/>
      </g>
      <g>
        <line class="cls-2" x1="-72.25" y1="68.4" x2="0.25" y2="68.4"/>
        <line class="cls-2" x1="-72.25" y1="54" x2="0.25" y2="54"/>
        <line class="cls-2" x1="-72.25" y1="39.6" x2="0.25" y2="39.6"/>
        <line class="cls-2" x1="-72.25" y1="25.2" x2="0.25" y2="25.2"/>
        <line class="cls-2" x1="-72.25" y1="10.8" x2="0.25" y2="10.8"/>
        <line class="cls-2" x1="-72.25" y1="61.2" x2="0.25" y2="61.2"/>
        <line class="cls-2" x1="-72.25" y1="46.8" x2="0.25" y2="46.8"/>
        <line class="cls-2" x1="-72.25" y1="32.4" x2="0.25" y2="32.4"/>
        <line class="cls-2" x1="-72.25" y1="18" x2="0.25" y2="18"/>
        <line class="cls-2" x1="-72.25" y1="3.6" x2="0.25" y2="3.6"/>
      </g>
    </pattern>
  </defs>
  <g id="View_3" data-name="View 3">
    <rect class="cls-3" x="0.35" y="-0.01" width="1024" height="768"/>
    <text class="cls-4" transform="translate(27.52 54.77)"><tspan class="cls-5">W</tspan><tspan x="31" y="0">IEN U-BAHNNETZ</tspan><tspan class="cls-6"><tspan class="cls-7" x="0" y="24">V</tspan><tspan x="13.6" y="24">ienna Met</tspan><tspan class="cls-8" x="114.48" y="24">r</tspan><tspan x="122.24" y="24">omap </tspan><tspan class="cls-9" x="186.6" y="24">S</tspan><tspan class="cls-10" x="198.7" y="24">y</tspan><tspan class="cls-11" x="209.42" y="24">s</tspan><tspan class="cls-12" x="219.2" y="24">t</tspan><tspan x="226.94" y="24">em Dashb</tspan><tspan class="cls-13" x="330.68" y="24">o</tspan><tspan x="343.16" y="24">a</tspan><tspan class="cls-14" x="354.96" y="24">r</tspan><tspan x="362.72" y="24">d: </tspan><tspan class="cls-15" x="385.76" y="24">Dec 1st</tspan><tspan class="cls-11" x="459.54" y="24">, </tspan><tspan class="cls-16" x="469.01" y="24">2</tspan><tspan class="cls-17" x="480.29" y="24">0</tspan><tspan class="cls-18" x="493.49" y="24">2</tspan><tspan class="cls-11" x="504.77" y="24">0 - </tspan><tspan class="cls-15" x="536.13" y="24">Dec 15th</tspan><tspan class="cls-11" x="625.01" y="24">, </tspan><tspan class="cls-16" x="634.49" y="24">2</tspan><tspan class="cls-19" x="645.77" y="24">0</tspan><tspan class="cls-16" x="658.97" y="24">2</tspan><tspan x="670.25" y="24">0</tspan></tspan></text>
    <text class="cls-20" transform="translate(414.02 130.99)"><tspan class="cls-21">A</tspan><tspan class="cls-22" x="11.07" y="0">v</tspan><tspan x="19.81" y="0">e</tspan><tspan class="cls-23" x="29.28" y="0">r</tspan><tspan class="cls-24" x="35.64" y="0">a</tspan><tspan x="44.98" y="0">ge Daily Ride</tspan><tspan class="cls-25" x="148.47" y="0">r</tspan><tspan x="154.9" y="0">ship </tspan><tspan class="cls-22" x="192.34" y="0">b</tspan><tspan x="202.47" y="0">y Station</tspan></text>
    <g>
      <g>
        <circle class="cls-26" cx="790.9" cy="244.83" r="7.19"/>
        <text class="cls-27" transform="translate(806.63 249.15)">5<tspan class="cls-28" x="5.66" y="0">0,</tspan><tspan class="cls-11" x="14.18" y="0">00</tspan><tspan class="cls-29" x="27.42" y="0">0</tspan><tspan x="34.12" y="0">+</tspan></text>
      </g>
      <g>
        <circle class="cls-30" cx="793.44" cy="270.52" r="5.99"/>
        <text class="cls-27" transform="translate(807.77 273.38)">4<tspan class="cls-28" x="6.61" y="0">0,</tspan><tspan x="15.13" y="0">000</tspan></text>
      </g>
      <g>
        <circle class="cls-31" cx="794.77" cy="295.86" r="4.85"/>
        <text class="cls-27" transform="translate(807.08 299.15)">25<tspan class="cls-28" x="11.34" y="0">,</tspan><tspan class="cls-11" x="13.35" y="0">000</tspan></text>
      </g>
      <g>
        <circle class="cls-32" cx="796.35" cy="320.72" r="3.12"/>
        <text class="cls-27" transform="translate(804.99 324.85)">1<tspan class="cls-28" x="3.61" y="0">0,</tspan><tspan x="12.13" y="0">000</tspan></text>
      </g>
      <g>
        <circle class="cls-33" cx="798.8" cy="345.84" r="1.22"/>
        <text class="cls-27" transform="translate(805.09 350.54)">5<tspan class="cls-34" x="5.66" y="0">,</tspan><tspan x="7.67" y="0">000</tspan></text>
      </g>
    </g>
    <g>
      <rect class="cls-35" x="0.35" y="738.24" width="1024" height="5.5"/>
      <rect class="cls-36" x="0.35" y="750.51" width="1024" height="5.5"/>
      <rect class="cls-37" x="0.35" y="744.33" width="1024" height="5.5"/>
      <rect class="cls-38" x="0.35" y="756.51" width="1024" height="5.5"/>
      <rect class="cls-39" x="1.51" y="762.51" width="1024" height="5.5"/>
      <rect class="cls-35" x="1.51" y="91.12" width="1024" height="2.75"/>
    </g>
    <g>
      <g>
        <g>
          <rect class="cls-35" x="269.03" y="143.69" width="27.76" height="27.76" rx="13.88" transform="translate(125.34 440.48) rotate(-90)"/>
          <path class="cls-40" d="M289.94,151.89a1,1,0,0,1,1.4,0,1,1,0,0,1,.09,1.31l-.09.1-9.95,9.95a1,1,0,0,1-1.31.08l-.1-.08-5-5a1,1,0,0,1,0-1.4,1,1,0,0,1,1.31-.09l.1.09,4.27,4.27Z"/>
        </g>
        <rect class="cls-37" x="229" y="143.69" width="27.76" height="27.76" rx="13.88" transform="translate(85.3 400.44) rotate(-90)"/>
        <rect class="cls-36" x="188.96" y="143.69" width="27.76" height="27.76" rx="13.88" transform="translate(45.27 360.4) rotate(-90)"/>
        <rect class="cls-38" x="148.92" y="143.69" width="27.76" height="27.76" rx="13.88" transform="translate(5.23 320.37) rotate(-90)"/>
        <rect class="cls-39" x="108.88" y="143.69" width="27.76" height="27.76" rx="13.88" transform="translate(-34.81 280.33) rotate(-90)"/>
      </g>
      <text class="cls-41" transform="translate(189.66 136.14)">Li<tspan class="cls-42" x="12.34" y="0">n</tspan><tspan class="cls-43" x="21.84" y="0">e</tspan></text>
      <g>
        <g>
          <line class="cls-44" x1="201.91" y1="214.5" x2="109.26" y2="214.5"/>
          <g>
            <path class="cls-40" d="M201.41,205.6a8.91,8.91,0,1,1-8.91,8.9A8.91,8.91,0,0,1,201.41,205.6Z"/>
            <path class="cls-45" d="M201.41,204.41A10.1,10.1,0,1,0,211.5,214.5a10.1,10.1,0,0,0-10.09-10.09Zm0,17.82a7.73,7.73,0,1,1,7.72-7.73,7.74,7.74,0,0,1-7.72,7.73Z"/>
          </g>
          <g>
            <circle class="cls-40" cx="109.76" cy="214.5" r="8.91"/>
            <path class="cls-45" d="M109.76,204.41A10.1,10.1,0,1,1,99.67,214.5a10.1,10.1,0,0,1,10.09-10.09Zm0,17.82A7.73,7.73,0,1,0,102,214.5a7.74,7.74,0,0,0,7.72,7.73Z"/>
          </g>
        </g>
        <text class="cls-46" transform="translate(182.93 234.85)">Dec 15th</text>
        <text class="cls-46" transform="translate(89.19 237.65)">Dec 1st</text>
        <text class="cls-47" transform="translate(191.19 200.39)">Da<tspan class="cls-48" x="17.09" y="0">t</tspan><tspan x="22.04" y="0">e</tspan></text>
      </g>
      <path class="cls-49" d="M71.67,386.5V124a7.88,7.88,0,0,1,7.88-7.88H318.38a7.88,7.88,0,0,1,7.88,7.88V386.5a7.88,7.88,0,0,1-7.88,7.88H79.55a7.88,7.88,0,0,1-7.88-7.88Z"/>
      <g>
        <g>
          <line class="cls-44" x1="289.25" y1="271.98" x2="108.91" y2="271.98"/>
          <g>
            <path class="cls-40" d="M288.74,263.08a8.91,8.91,0,1,1-8.9,8.9A8.91,8.91,0,0,1,288.74,263.08Z"/>
            <path class="cls-45" d="M288.74,261.89A10.09,10.09,0,1,0,298.84,272a10.11,10.11,0,0,0-10.1-10.09Zm0,17.82a7.73,7.73,0,1,1,7.73-7.73,7.74,7.74,0,0,1-7.73,7.73Z"/>
          </g>
          <g>
            <path class="cls-40" d="M109.42,263.08a8.91,8.91,0,1,0,8.91,8.9A8.91,8.91,0,0,0,109.42,263.08Z"/>
            <path class="cls-45" d="M109.42,261.89A10.09,10.09,0,1,1,99.33,272a10.11,10.11,0,0,1,10.09-10.09Zm0,17.82A7.73,7.73,0,1,0,101.7,272a7.73,7.73,0,0,0,7.72,7.73Z"/>
          </g>
        </g>
        <text class="cls-46" transform="translate(267.5 296.41)">11:59 pm</text>
        <text class="cls-46" transform="translate(88.76 295.22)">12:00 am</text>
        <text class="cls-47" transform="translate(191.19 265.7)">Hour</text>
      </g>
      <g>
        <g>
          <line class="cls-44" x1="289.8" y1="326.94" x2="109.46" y2="326.94"/>
          <g>
            <circle class="cls-40" cx="289.29" cy="326.94" r="8.91" transform="translate(-95.37 533.38) rotate(-76.72)"/>
            <path class="cls-45" d="M289.29,316.85a10.09,10.09,0,1,0,10.09,10.09,10.1,10.1,0,0,0-10.09-10.09Zm0,17.81a7.72,7.72,0,1,1,7.72-7.72,7.72,7.72,0,0,1-7.72,7.72Z"/>
          </g>
          <g>
            <circle class="cls-40" cx="109.97" cy="326.94" r="8.91" transform="translate(-72.17 34.01) rotate(-13.28)"/>
            <path class="cls-45" d="M110,316.85a10.09,10.09,0,1,1-10.1,10.09A10.1,10.1,0,0,1,110,316.85Zm0,17.81a7.72,7.72,0,1,0-7.73-7.72,7.73,7.73,0,0,0,7.73,7.72Z"/>
          </g>
        </g>
        <text class="cls-47" transform="translate(124 319.87)"><tspan class="cls-50">A</tspan><tspan class="cls-51" x="8.74" y="0">v</tspan><tspan x="15.65" y="0">e</tspan><tspan class="cls-52" x="23.12" y="0">r</tspan><tspan class="cls-53" x="28.14" y="0">a</tspan><tspan x="35.52" y="0">ge Daily Ride</tspan><tspan class="cls-54" x="117.24" y="0">r</tspan><tspan class="cls-55" x="122.32" y="0">ship</tspan></text>
      </g>
      <g>
        <path class="cls-45" d="M191.65,371.43a14.16,14.16,0,0,0,24.58-5.35c0-.18.07-.35.11-.52h-3.25a11,11,0,0,1-19.57,3.14h6v-3.14h-11v11h3.15Z"/>
        <path class="cls-45" d="M196.78,352.88a11,11,0,0,1,14.54,3.25h-6v3.14h11v-11h-3.15v5.14a14.15,14.15,0,0,0-24.58,5.36c0,.17-.07.34-.11.51h3.25a11,11,0,0,1,5-6.39Z"/>
      </g>
    </g>
    <g>
      <g>
        <line class="cls-56" x1="542.44" y1="493.22" x2="542.44" y2="692.41"/>
        <line class="cls-56" x1="541.53" y1="692.41" x2="872.37" y2="692.41"/>
      </g>
      <text class="cls-57" transform="translate(697.32 725.03) scale(1.01 1)">Hour</text>
      <text class="cls-58" transform="translate(519.36 639.64) rotate(-90)"><tspan class="cls-59">T</tspan><tspan x="6.23" y="0">otal daily </tspan><tspan class="cls-60" x="63.4" y="0">r</tspan><tspan x="68.11" y="0">ide</tspan><tspan class="cls-61" x="86.72" y="0">r</tspan><tspan x="91.49" y="0">ship</tspan></text>
      <text class="cls-20" transform="translate(615.05 472.75)"><tspan class="cls-21">A</tspan><tspan class="cls-22" x="11.07" y="0">v</tspan><tspan x="19.81" y="0">e</tspan><tspan class="cls-23" x="29.28" y="0">r</tspan><tspan class="cls-24" x="35.64" y="0">a</tspan><tspan class="cls-62" x="44.98" y="0">ge Hou</tspan><tspan class="cls-16" x="101.44" y="0">r</tspan><tspan x="107.85" y="0">ly Ride</tspan><tspan class="cls-25" x="160.96" y="0">r</tspan><tspan x="167.4" y="0">ship</tspan></text>
      <text class="cls-63" transform="translate(541.08 706.47)">0</text>
      <text class="cls-64" transform="translate(867.12 706.47)">2<tspan class="cls-65" x="6.54" y="0">4</tspan></text>
      <text class="cls-63" transform="translate(704.12 706.47)">12</text>
      <text class="cls-63" transform="translate(623.44 706.47)">6</text>
      <text class="cls-63" transform="translate(785.93 706.47)">18</text>
      <g>
        <polyline class="cls-66" points="543.95 669.05 558.02 669.74 572.09 673.52 586.16 672.94 600.23 667.45 614.29 662.68 628.36 611.07 642.43 534.76 656.5 605.57 670.57 620.7 684.63 657.13 698.7 628.49 712.77 633.81 726.83 646.82 740.9 644.53 754.97 615.88 769.04 557.95 783.11 512.12 797.18 573.49 811.24 628.49 825.31 649.62 839.38 661.12 853.44 666.41 867.51 669.74"/>
        <circle class="cls-66" cx="543.95" cy="669.05" r="1.04"/>
        <circle class="cls-66" cx="558.02" cy="669.74" r="1.04"/>
        <circle class="cls-66" cx="572.09" cy="673.52" r="1.04"/>
        <circle class="cls-66" cx="586.16" cy="672.94" r="1.04"/>
        <circle class="cls-66" cx="600.23" cy="667.45" r="1.04"/>
        <circle class="cls-66" cx="614.3" cy="662.68" r="1.04"/>
        <circle class="cls-66" cx="628.36" cy="611.07" r="1.04"/>
        <circle class="cls-66" cx="642.43" cy="534.76" r="1.04"/>
        <circle class="cls-66" cx="656.5" cy="605.57" r="1.04"/>
        <circle class="cls-66" cx="670.57" cy="620.7" r="1.04"/>
        <circle class="cls-66" cx="684.63" cy="657.13" r="1.04"/>
        <circle class="cls-66" cx="698.7" cy="628.49" r="1.04"/>
        <circle class="cls-66" cx="712.77" cy="633.81" r="1.04"/>
        <circle class="cls-66" cx="726.83" cy="646.82" r="1.04"/>
        <circle class="cls-66" cx="740.9" cy="644.53" r="1.04"/>
        <circle class="cls-66" cx="754.97" cy="615.88" r="1.04"/>
        <circle class="cls-66" cx="769.04" cy="557.95" r="1.04"/>
        <circle class="cls-66" cx="783.11" cy="512.12" r="1.04"/>
        <circle class="cls-66" cx="797.18" cy="573.49" r="1.04"/>
        <circle class="cls-66" cx="811.24" cy="628.49" r="1.04"/>
        <circle class="cls-66" cx="825.31" cy="649.62" r="1.04"/>
        <circle class="cls-66" cx="839.38" cy="661.12" r="1.04"/>
        <circle class="cls-66" cx="853.44" cy="666.41" r="1.04"/>
        <circle class="cls-66" cx="867.51" cy="669.74" r="1.04"/>
      </g>
    </g>
    <g>
      <text class="cls-20" transform="translate(177.5 472.75)"><tspan class="cls-59">T</tspan><tspan x="8.44" y="0">otal Daily Ride</tspan><tspan class="cls-67" x="122.08" y="0">r</tspan><tspan x="128.52" y="0">ship</tspan></text>
      <text class="cls-58" transform="translate(50.41 643.51) rotate(-90)"><tspan class="cls-68">T</tspan><tspan x="6.23" y="0">otal daily </tspan><tspan class="cls-69" x="63.4" y="0">r</tspan><tspan x="68.11" y="0">ide</tspan><tspan class="cls-70" x="86.72" y="0">r</tspan><tspan x="91.49" y="0">ship</tspan></text>
      <polyline class="cls-66" points="74.69 499.15 97.08 495 119.47 503.29 143.53 502.68 164.26 503.29 186.65 495 209.04 501.55 230.49 497.94 253.82 495 276.22 499.15 298.61 495 322.03 502.89 343.78 505.56 365.78 507.43 388.18 503.29 410.59 502.68 432.96 507.43 455.35 503.29"/>
      <rect class="cls-71" x="154.71" y="486.15" width="46.34" height="199.19"/>
      <rect class="cls-72" x="310.58" y="486.15" width="46.34" height="199.19"/>
      <g>
        <line class="cls-73" x1="73.05" y1="486.15" x2="73.05" y2="685.34"/>
        <line class="cls-73" x1="71.99" y1="685.34" x2="455.35" y2="685.34"/>
      </g>
      <text class="cls-57" transform="translate(68.49 705.37) rotate(-45) scale(1.01 1)">1st</text>
      <text class="cls-57" transform="translate(431.75 709.84) rotate(-45) scale(1.01 1)">15th</text>
      <text class="cls-57" transform="translate(257.07 711.43) rotate(-45) scale(1.01 1)">8th</text>
      <text class="cls-57" transform="translate(244.73 727.66) scale(1.01 1)">Da<tspan class="cls-74" x="18.94" y="0">t</tspan><tspan x="24.11" y="0">e</tspan></text>
    </g>
    <g>
      <polyline class="cls-75" points="392.47 215.5 441.33 263.64 566.35 263.64 661.2 358.25"/>
      <polyline class="cls-75" points="417.86 394.41 458.33 354.18 458.33 227.96 513.66 173.83 608.5 173.83 624.07 158.98"/>
      <polyline class="cls-76" points="530.59 299.81 512.7 281.29 512.7 245.84 530.59 228.28 601.48 228.28 673.49 300.29 728.18 245.6 754.12 245.6"/>
      <polyline class="cls-75" points="362.53 244.24 418.22 299.93 565.87 299.93 584.28 281.52 584.28 245.44 530.53 191.69 530.53 157.3"/>
      <polyline class="cls-75" points="593.77 398.37 530.63 335.21 530.63 282.25 566.61 246.26 639.16 246.26 715.53 169.89"/>
      <circle class="cls-75" cx="392.47" cy="215.76" r="1.18"/>
      <circle class="cls-75" cx="404.05" cy="227.14" r="1.18"/>
      <circle class="cls-75" cx="415.62" cy="238.36" r="1.18"/>
      <circle class="cls-75" cx="439.05" cy="261.51" r="1.18"/>
      <circle class="cls-75" cx="476.66" cy="263.66" r="1.18"/>
      <circle class="cls-75" cx="549.82" cy="264.15" r="5.8"/>
      <circle class="cls-75" cx="613.17" cy="310.45" r="1.18"/>
      <circle class="cls-75" cx="622.59" cy="319.87" r="1.18"/>
      <circle class="cls-75" cx="641.76" cy="338.99" r="1.18"/>
      <circle class="cls-75" cx="651.3" cy="348.49" r="1.18"/>
      <circle class="cls-75" cx="754.12" cy="245.82" r="1.18"/>
      <circle class="cls-75" cx="739.69" cy="245.82" r="1.18"/>
      <circle class="cls-75" cx="726.46" cy="247.69" r="1.18"/>
      <circle class="cls-75" cx="717.9" cy="256.19" r="1.18"/>
      <circle class="cls-75" cx="709.46" cy="264.87" r="1.18"/>
      <circle class="cls-75" cx="692.21" cy="282" r="1.18"/>
      <circle class="cls-75" cx="683.47" cy="290.62" r="1.18"/>
      <circle class="cls-75" cx="632.59" cy="259.36" r="1.18"/>
      <circle class="cls-75" cx="514.54" cy="283.78" r="1.18"/>
      <circle class="cls-75" cx="373.75" cy="255.92" r="1.18"/>
      <circle class="cls-75" cx="397.14" cy="278.86" r="1.18"/>
      <circle class="cls-75" cx="408.56" cy="290.49" r="1.18"/>
      <circle class="cls-75" cx="422.53" cy="299.93" r="1.18"/>
      <circle class="cls-75" cx="458.61" cy="281.83" r="1.18"/>
      <circle class="cls-75" cx="476.5" cy="299.75" r="1.18"/>
      <circle class="cls-75" cx="494.62" cy="299.75" r="1.18"/>
      <circle class="cls-75" cx="533.46" cy="194.85" r="1.18"/>
      <circle class="cls-75" cx="530.63" cy="155.69" r="1.18"/>
      <circle class="cls-75" cx="506.24" cy="180.02" r="1.18"/>
      <circle class="cls-75" cx="495.98" cy="190.34" r="1.18"/>
      <circle class="cls-75" cx="475.54" cy="211.17" r="1.18"/>
      <circle class="cls-75" cx="465.04" cy="221.35" r="1.18"/>
      <circle class="cls-75" cx="458.61" cy="248.73" r="1.18"/>
      <circle class="cls-75" cx="458.48" cy="314.4" r="1.18"/>
      <circle class="cls-75" cx="458.48" cy="328.98" r="1.18"/>
      <circle class="cls-75" cx="458.48" cy="343.59" r="1.18"/>
      <circle class="cls-75" cx="446.12" cy="366.13" r="1.18"/>
      <circle class="cls-75" cx="436.54" cy="375.81" r="1.18"/>
      <circle class="cls-75" cx="426.96" cy="385.27" r="1.18"/>
      <circle class="cls-75" cx="417.56" cy="394.82" r="1.18"/>
      <circle class="cls-75" cx="660.68" cy="357.79" r="1.18"/>
      <circle class="cls-75" cx="706.91" cy="178.45" r="1.18"/>
      <circle class="cls-75" cx="698.29" cy="187.02" r="1.18"/>
      <circle class="cls-75" cx="690.36" cy="195.32" r="1.18"/>
      <circle class="cls-75" cx="672.6" cy="212.82" r="1.18"/>
      <circle class="cls-75" cx="655.33" cy="230.04" r="1.18"/>
      <circle class="cls-75" cx="646.74" cy="238.63" r="1.18"/>
      <circle class="cls-75" cx="546.11" cy="350.9" r="1.18"/>
      <circle class="cls-75" cx="564.94" cy="369.76" r="1.18"/>
      <circle class="cls-75" cx="574.46" cy="379.28" r="1.18"/>
      <circle class="cls-75" cx="584.13" cy="388.92" r="1.18"/>
      <circle class="cls-75" cx="593.3" cy="398.36" r="1.18"/>
      <circle class="cls-75" cx="553.09" cy="173.73" r="1.31"/>
      <circle class="cls-75" cx="575.03" cy="173.87" r="1.31"/>
      <circle class="cls-75" cx="596.55" cy="173.87" r="1.31"/>
      <circle class="cls-75" cx="624.07" cy="158.98" r="1.31"/>
      <circle class="cls-75" cx="532.19" cy="298.76" r="6.97"/>
      <circle class="cls-75" cx="512.7" cy="263.66" r="5.8"/>
      <circle class="cls-75" cx="584.28" cy="281.02" r="4.7"/>
      <circle class="cls-75" cx="530.63" cy="315.72" r="4.7"/>
      <circle class="cls-75" cx="530.63" cy="328.98" r="4.7"/>
      <circle class="cls-75" cx="565.84" cy="300.29" r="4.7"/>
      <circle class="cls-75" cx="567.51" cy="228.62" r="4.7"/>
      <circle class="cls-75" cx="458.48" cy="299.75" r="4.7"/>
      <circle class="cls-75" cx="619.7" cy="246.04" r="4.7"/>
      <circle class="cls-75" cx="584.28" cy="246.04" r="3.02"/>
      <circle class="cls-75" cx="637.65" cy="246.11" r="3.02"/>
      <circle class="cls-75" cx="602.82" cy="246.11" r="3.02"/>
      <circle class="cls-75" cx="601.33" cy="228.28" r="3.02"/>
      <circle class="cls-75" cx="530.63" cy="173.87" r="3.02"/>
      <circle class="cls-75" cx="512.7" cy="246.24" r="5.8"/>
      <circle class="cls-77" cx="530.63" cy="228.62" r="5.8"/>
      <circle class="cls-75" cx="548.74" cy="209.99" r="3.02"/>
      <circle class="cls-75" cx="572.21" cy="269.95" r="3.02"/>
      <circle class="cls-75" cx="532.3" cy="263.56" r="3.02"/>
      <circle class="cls-75" cx="593.94" cy="291.1" r="3.02"/>
      <circle class="cls-75" cx="603.49" cy="300.93" r="3.02"/>
      <circle class="cls-75" cx="632.59" cy="329.95" r="3.02"/>
      <circle class="cls-75" cx="555.74" cy="360.38" r="3.02"/>
      <circle class="cls-75" cx="537.75" cy="342.72" r="3.02"/>
      <circle class="cls-75" cx="513.87" cy="299.75" r="3.02"/>
      <circle class="cls-75" cx="458.48" cy="263.56" r="3.02"/>
      <circle class="cls-75" cx="443.25" cy="299.75" r="3.02"/>
      <circle class="cls-75" cx="455.46" cy="357.27" r="3.02"/>
      <circle class="cls-75" cx="458.48" cy="231.64" r="3.02"/>
      <circle class="cls-75" cx="497.15" cy="263.66" r="2.58"/>
      <circle class="cls-75" cx="427.77" cy="250.14" r="2.58"/>
      <circle class="cls-75" cx="645.56" cy="272.98" r="2.58"/>
      <circle class="cls-75" cx="659.08" cy="285.5" r="2.58"/>
      <circle class="cls-75" cx="669.42" cy="296.73" r="2.58"/>
      <circle class="cls-75" cx="701.11" cy="272.98" r="2.58"/>
      <circle class="cls-75" cx="664.24" cy="221.34" r="2.58"/>
      <circle class="cls-75" cx="682.45" cy="202.96" r="2.58"/>
      <circle class="cls-75" cx="715.53" cy="170.31" r="2.58"/>
      <circle class="cls-75" cx="615.67" cy="167.31" r="2.58"/>
      <circle class="cls-75" cx="486.85" cy="200.38" r="2.58"/>
      <circle class="cls-75" cx="385.57" cy="266.99" r="2.58"/>
      <circle class="cls-75" cx="362.74" cy="245.06" r="1.18"/>
    </g>
    <rect class="cls-78" x="853.52" y="109.37" width="157.43" height="237.81"/>
    <g>
      <circle class="cls-79" cx="907.01" cy="538.91" r="7.08"/>
      <path class="cls-40" d="M911.51,535.75a.66.66,0,0,1,1,.88l0,.06-6.62,6.62a.66.66,0,0,1-.88.05l-.06-.05L901.58,540a.66.66,0,0,1,0-.94.65.65,0,0,1,.87,0l.07,0,2.84,2.84Z"/>
    </g>
    <text class="cls-58" transform="translate(923.71 542.44)">S<tspan class="cls-60" x="7.38" y="0">c</tspan><tspan class="cls-80" x="14.04" y="0">h</tspan><tspan x="22.19" y="0">o</tspan><tspan class="cls-81" x="29.71" y="0">t</tspan><tspan class="cls-82" x="34.42" y="0">t</tspan><tspan x="39.06" y="0">en</tspan><tspan class="cls-82" x="54.43" y="0">t</tspan><tspan class="cls-83" x="59.08" y="0">or</tspan></text>
    <text class="cls-84" transform="translate(863.98 130.25)">This vi<tspan class="cls-85" x="43.15" y="0">e</tspan><tspan x="51.46" y="0">w s</tspan><tspan class="cls-86" x="74.28" y="0">h</tspan><tspan class="cls-87" x="83.79" y="0">o</tspan><tspan class="cls-88" x="92.36" y="0">w</tspan><tspan x="104.58" y="0">s </tspan><tspan class="cls-89" x="0" y="16.8">h</tspan><tspan class="cls-87" x="9.51" y="16.8">o</tspan><tspan x="18.07" y="16.8">w t</tspan><tspan class="cls-86" x="39.73" y="16.8">h</tspan><tspan x="49.24" y="16.8">e </tspan><tspan class="cls-90" x="61.36" y="16.8">p</tspan><tspan class="cls-89" x="70.81" y="16.8">a</tspan><tspan x="79.1" y="16.8">ge </tspan><tspan class="cls-87" x="0" y="33.6">w</tspan><tspan x="12.1" y="33.6">ould look af</tspan><tspan class="cls-91" x="93.63" y="33.6">t</tspan><tspan x="99.05" y="33.6">er t</tspan><tspan class="cls-86" x="122.47" y="33.6">h</tspan><tspan x="131.98" y="33.6">e </tspan><tspan x="0" y="50.4">user </tspan><tspan class="cls-92" x="34.01" y="50.4">c</tspan><tspan x="41.78" y="50.4">li</tspan><tspan class="cls-93" x="49.31" y="50.4">c</tspan><tspan class="cls-94" x="57.08" y="50.4">k</tspan><tspan x="65.27" y="50.4">s o</tspan><tspan class="cls-89" x="84.56" y="50.4">n</tspan><tspan x="94.07" y="50.4">e of </tspan><tspan x="0" y="67.2">t</tspan><tspan class="cls-89" x="5.68" y="67.2">h</tspan><tspan x="15.19" y="67.2">e stations. Both </tspan><tspan x="0" y="84">g</tspan><tspan class="cls-95" x="9.6" y="84">r</tspan><tspan x="15.09" y="84">aphs </tspan><tspan class="cls-87" x="52.84" y="84">w</tspan><tspan x="64.93" y="84">ould </tspan><tspan x="0" y="100.8">upda</tspan><tspan class="cls-91" x="36.67" y="100.8">t</tspan><tspan x="42.08" y="100.8">e </tspan><tspan class="cls-96" x="54.21" y="100.8">t</tspan><tspan x="59.63" y="100.8">o s</tspan><tspan class="cls-89" x="78.92" y="100.8">h</tspan><tspan class="cls-87" x="88.42" y="100.8">o</tspan><tspan x="96.99" y="100.8">w just </tspan><tspan x="0" y="117.6">t</tspan><tspan class="cls-89" x="5.68" y="117.6">h</tspan><tspan x="15.19" y="117.6">e data </tspan><tspan class="cls-97" x="62.68" y="117.6">f</tspan><tspan x="67.3" y="117.6">or that </tspan><tspan x="0" y="134.4">specific station. </tspan><tspan class="cls-98" x="112.76" y="134.4">T</tspan><tspan x="120.02" y="134.4">o </tspan><tspan x="0" y="151.2">d</tspan><tspan class="cls-99" x="9.49" y="151.2">e</tspan><tspan x="18.09" y="151.2">-sele</tspan><tspan class="cls-100" x="50.96" y="151.2">c</tspan><tspan class="cls-101" x="58.93" y="151.2">t a</tspan><tspan class="cls-89" x="76.54" y="151.2">n</tspan><tspan x="86.04" y="151.2">d s</tspan><tspan class="cls-89" x="106.05" y="151.2">h</tspan><tspan class="cls-87" x="115.56" y="151.2">o</tspan><tspan x="124.12" y="151.2">w </tspan><tspan x="0" y="168">t</tspan><tspan class="cls-89" x="5.68" y="168">h</tspan><tspan x="15.19" y="168">e li</tspan><tspan class="cls-86" x="34.85" y="168">n</tspan><tspan x="44.35" y="168">e, t</tspan><tspan class="cls-89" x="65.13" y="168">h</tspan><tspan x="74.63" y="168">e user </tspan><tspan class="cls-95" x="0" y="184.8">c</tspan><tspan x="7.76" y="184.8">ould u</tspan><tspan class="cls-86" x="52.3" y="184.8">n</tspan><tspan class="cls-93" x="61.81" y="184.8">c</tspan><tspan class="cls-86" x="69.58" y="184.8">h</tspan><tspan x="79.09" y="184.8">e</tspan><tspan class="cls-93" x="87.54" y="184.8">c</tspan><tspan x="95.31" y="184.8">k t</tspan><tspan class="cls-86" x="113.08" y="184.8">h</tspan><tspan x="122.58" y="184.8">e </tspan><tspan x="0" y="201.6">lege</tspan><tspan class="cls-89" x="30.28" y="201.6">n</tspan><tspan x="39.79" y="201.6">d.</tspan></text>
    <text class="cls-46" transform="translate(99.03 348.27)">min #</text>
    <text class="cls-46" transform="translate(274.41 347.83)">max #</text>
    <text class="cls-57" transform="translate(76.71 409.32) scale(1.01 1)"><tspan class="cls-102">T</tspan><tspan x="6.94" y="0">otal sele</tspan><tspan class="cls-103" x="62.04" y="0">c</tspan><tspan class="cls-74" x="69.65" y="0">t</tspan><tspan x="74.83" y="0">ed stations: </tspan><tspan class="cls-104" x="154.68" y="0">6</tspan><tspan class="cls-15" x="163.14" y="0">7</tspan></text>
  </g>
</svg>
