<svg xmlns="http://www.w3.org/2000/svg" xmlns:xlink="http://www.w3.org/1999/xlink" width="1024" height="768" viewBox="0 0 1024 768">
  <defs>
    <style>
      .cls-1, .cls-2, .cls-26, .cls-30, .cls-31, .cls-32, .cls-33, .cls-44, .cls-49, .cls-56, .cls-57, .cls-58, .cls-59, .cls-60, .cls-61, .cls-70, .cls-73, .cls-76, .cls-77, .cls-78, .cls-79, .cls-86, .cls-87, .cls-88 {
        fill: none;
      }

      .cls-2, .cls-30 {
        stroke: #231f20;
      }

      .cls-2 {
        stroke-width: 0.72px;
      }

      .cls-3, .cls-62 {
        fill: #d8d8d8;
      }

      .cls-4 {
        font-size: 27px;
      }

      .cls-20, .cls-27, .cls-4, .cls-41, .cls-45, .cls-46, .cls-47, .cls-66, .cls-74, .cls-83, .cls-84 {
        fill: #787878;
      }

      .cls-107, .cls-15, .cls-20, .cls-4, .cls-41, .cls-46, .cls-47 {
        font-family: Montserrat-Bold, Montserrat;
        font-weight: 700;
      }

      .cls-5 {
        letter-spacing: -0.01em;
      }

      .cls-6 {
        font-size: 20px;
        font-weight: 400;
      }

      .cls-27, .cls-6, .cls-66, .cls-74, .cls-83, .cls-84 {
        font-family: Montserrat-Regular, Montserrat;
      }

      .cls-7 {
        letter-spacing: -0.02em;
      }

      .cls-8 {
        letter-spacing: -0.01em;
      }

      .cls-9 {
        letter-spacing: -0.01em;
      }

      .cls-10 {
        letter-spacing: -0.01em;
      }

      .cls-11 {
        letter-spacing: 0em;
      }

      .cls-12 {
        letter-spacing: -0.02em;
      }

      .cls-13 {
        letter-spacing: 0em;
      }

      .cls-14 {
        letter-spacing: -0.01em;
      }

      .cls-16 {
        letter-spacing: 0em;
      }

      .cls-17 {
        letter-spacing: 0em;
      }

      .cls-18 {
        letter-spacing: 0em;
      }

      .cls-19 {
        letter-spacing: 0em;
      }

      .cls-20 {
        font-size: 15px;
      }

      .cls-21 {
        letter-spacing: -0.03em;
      }

      .cls-22 {
        letter-spacing: -0.01em;
      }

      .cls-23 {
        letter-spacing: -0.01em;
      }

      .cls-24 {
        letter-spacing: 0.01em;
      }

      .cls-25 {
        letter-spacing: 0em;
      }

      .cls-26, .cls-31, .cls-32, .cls-33 {
        stroke: #fff;
      }

      .cls-26, .cls-30, .cls-31, .cls-32, .cls-33, .cls-44, .cls-49, .cls-56, .cls-57, .cls-58, .cls-59, .cls-60, .cls-61, .cls-62, .cls-70, .cls-73, .cls-76, .cls-77, .cls-78, .cls-79, .cls-83, .cls-84, .cls-87, .cls-89 {
        stroke-miterlimit: 10;
      }

      .cls-26 {
        stroke-width: 5.92px;
      }

      .cls-27 {
        font-size: 10px;
      }

      .cls-28 {
        letter-spacing: -0.01em;
      }

      .cls-29 {
        letter-spacing: 0.01em;
      }

      .cls-30, .cls-60, .cls-61 {
        stroke-width: 4.93px;
      }

      .cls-31 {
        stroke-width: 3.99px;
      }

      .cls-32 {
        stroke-width: 2.57px;
      }

      .cls-34 {
        letter-spacing: -0.01em;
      }

      .cls-35 {
        fill: #945e9e;
      }

      .cls-36 {
        fill: #d37928;
      }

      .cls-37 {
        fill: #c32026;
      }

      .cls-38 {
        fill: #1f9647;
      }

      .cls-39 {
        fill: #91642e;
      }

      .cls-40 {
        fill: #fff;
      }

      .cls-41 {
        font-size: 13.63px;
      }

      .cls-42 {
        letter-spacing: 0.01em;
      }

      .cls-43 {
        letter-spacing: 0em;
      }

      .cls-44, .cls-73, .cls-79, .cls-83, .cls-84 {
        stroke: #787878;
      }

      .cls-44 {
        stroke-width: 2.37px;
      }

      .cls-46 {
        font-size: 9.48px;
      }

      .cls-47 {
        font-size: 11.84px;
      }

      .cls-48 {
        letter-spacing: -0.02em;
      }

      .cls-49, .cls-62 {
        stroke: #d37928;
      }

      .cls-49, .cls-62, .cls-83, .cls-84, .cls-90, .cls-91 {
        stroke-linecap: round;
      }

      .cls-49 {
        stroke-width: 0.79px;
        stroke-dasharray: 0.79 0.79;
      }

      .cls-50 {
        letter-spacing: -0.03em;
      }

      .cls-51 {
        letter-spacing: -0.02em;
      }

      .cls-52 {
        letter-spacing: -0.01em;
      }

      .cls-53 {
        letter-spacing: 0.01em;
      }

      .cls-54 {
        letter-spacing: 0em;
      }

      .cls-55 {
        letter-spacing: 0em;
      }

      .cls-56 {
        stroke: #969696;
        stroke-width: 1.63px;
      }

      .cls-57 {
        stroke: #945e9e;
        stroke-width: 2.45px;
      }

      .cls-58, .cls-77, .cls-86, .cls-90 {
        stroke: #f3766e;
      }

      .cls-58, .cls-59 {
        stroke-width: 5.18px;
      }

      .cls-59 {
        stroke: #7093cc;
      }

      .cls-60, .cls-70, .cls-87, .cls-89 {
        stroke: #f3bb1a;
      }

      .cls-61, .cls-78 {
        stroke: #72c594;
      }

      .cls-62 {
        stroke-width: 1.2px;
        stroke-dasharray: 1.2;
      }

      .cls-63 {
        fill: #231f20;
      }

      .cls-64 {
        letter-spacing: -0.06em;
      }

      .cls-65 {
        letter-spacing: 0em;
      }

      .cls-66, .cls-83, .cls-84 {
        font-size: 12px;
      }

      .cls-67 {
        letter-spacing: -0.05em;
      }

      .cls-68 {
        letter-spacing: -0.01em;
      }

      .cls-69 {
        letter-spacing: 0em;
      }

      .cls-70 {
        stroke-width: 1.5px;
      }

      .cls-71, .cls-72 {
        opacity: 0.2;
      }

      .cls-71 {
        fill: url(#_10_lpi_10_);
      }

      .cls-72 {
        fill: url(#_10_lpi_10_3);
      }

      .cls-73 {
        stroke-width: 0.98px;
      }

      .cls-74 {
        font-size: 13.37px;
      }

      .cls-75 {
        letter-spacing: -0.02em;
      }

      .cls-76, .cls-88, .cls-91 {
        stroke: #7094cd;
      }

      .cls-76, .cls-77, .cls-78, .cls-86, .cls-87, .cls-88, .cls-89, .cls-90, .cls-91 {
        stroke-width: 2px;
      }

      .cls-79 {
        stroke-width: 0.91px;
      }

      .cls-80 {
        letter-spacing: -0.01em;
      }

      .cls-81 {
        letter-spacing: 0em;
      }

      .cls-82 {
        letter-spacing: 0em;
      }

      .cls-83, .cls-84 {
        stroke-width: 0.75px;
        stroke-dasharray: 1;
      }

      .cls-84 {
        letter-spacing: -0.02em;
      }

      .cls-85 {
        letter-spacing: 0em;
      }

      .cls-86, .cls-88, .cls-90, .cls-91 {
        stroke-linejoin: round;
      }

      .cls-89 {
        fill: #f2bb1a;
      }

      .cls-90, .cls-97 {
        fill: #f3766e;
      }

      .cls-91, .cls-98 {
        fill: #7094cd;
      }

      .cls-92 {
        fill: #f3bb1a;
      }

      .cls-93 {
        letter-spacing: 0em;
      }

      .cls-94 {
        letter-spacing: -0.01em;
      }

      .cls-95 {
        letter-spacing: -0.02em;
      }

      .cls-96 {
        letter-spacing: 0em;
      }

      .cls-99 {
        letter-spacing: 0em;
      }

      .cls-100 {
        letter-spacing: -0.02em;
      }

      .cls-101 {
        letter-spacing: 0em;
      }

      .cls-102 {
        letter-spacing: -0.02em;
      }

      .cls-103 {
        letter-spacing: -0.02em;
      }

      .cls-104 {
        fill: #72c594;
      }

      .cls-105 {
        letter-spacing: -0.05em;
      }

      .cls-106 {
        letter-spacing: 0.01em;
      }

      .cls-107 {
        letter-spacing: 0em;
      }
    </style>
    <pattern id="_10_lpi_10_" data-name="10 lpi 10%" width="72" height="72" patternTransform="translate(-347.35 189.21) scale(1.87 0.91)" patternUnits="userSpaceOnUse" viewBox="0 0 72 72">
      <rect class="cls-1" width="72" height="72"/>
      <g>
        <line class="cls-2" x1="71.75" y1="68.4" x2="144.25" y2="68.4"/>
        <line class="cls-2" x1="71.75" y1="54" x2="144.25" y2="54"/>
        <line class="cls-2" x1="71.75" y1="39.6" x2="144.25" y2="39.6"/>
        <line class="cls-2" x1="71.75" y1="25.2" x2="144.25" y2="25.2"/>
        <line class="cls-2" x1="71.75" y1="10.8" x2="144.25" y2="10.8"/>
        <line class="cls-2" x1="71.75" y1="61.2" x2="144.25" y2="61.2"/>
        <line class="cls-2" x1="71.75" y1="46.8" x2="144.25" y2="46.8"/>
        <line class="cls-2" x1="71.75" y1="32.4" x2="144.25" y2="32.4"/>
        <line class="cls-2" x1="71.75" y1="18" x2="144.25" y2="18"/>
        <line class="cls-2" x1="71.75" y1="3.6" x2="144.25" y2="3.6"/>
      </g>
      <g>
        <line class="cls-2" x1="-0.25" y1="68.4" x2="72.25" y2="68.4"/>
        <line class="cls-2" x1="-0.25" y1="54" x2="72.25" y2="54"/>
        <line class="cls-2" x1="-0.25" y1="39.6" x2="72.25" y2="39.6"/>
        <line class="cls-2" x1="-0.25" y1="25.2" x2="72.25" y2="25.2"/>
        <line class="cls-2" x1="-0.25" y1="10.8" x2="72.25" y2="10.8"/>
        <line class="cls-2" x1="-0.25" y1="61.2" x2="72.25" y2="61.2"/>
        <line class="cls-2" x1="-0.25" y1="46.8" x2="72.25" y2="46.8"/>
        <line class="cls-2" x1="-0.25" y1="32.4" x2="72.25" y2="32.4"/>
        <line class="cls-2" x1="-0.25" y1="18" x2="72.25" y2="18"/>
        <line class="cls-2" x1="-0.25" y1="3.6" x2="72.25" y2="3.6"/>
      </g>
      <g>
        <line class="cls-2" x1="-72.25" y1="68.4" x2="0.25" y2="68.4"/>
        <line class="cls-2" x1="-72.25" y1="54" x2="0.25" y2="54"/>
        <line class="cls-2" x1="-72.25" y1="39.6" x2="0.25" y2="39.6"/>
        <line class="cls-2" x1="-72.25" y1="25.2" x2="0.25" y2="25.2"/>
        <line class="cls-2" x1="-72.25" y1="10.8" x2="0.25" y2="10.8"/>
        <line class="cls-2" x1="-72.25" y1="61.2" x2="0.25" y2="61.2"/>
        <line class="cls-2" x1="-72.25" y1="46.8" x2="0.25" y2="46.8"/>
        <line class="cls-2" x1="-72.25" y1="32.4" x2="0.25" y2="32.4"/>
        <line class="cls-2" x1="-72.25" y1="18" x2="0.25" y2="18"/>
        <line class="cls-2" x1="-72.25" y1="3.6" x2="0.25" y2="3.6"/>
      </g>
    </pattern>
    <pattern id="_10_lpi_10_3" data-name="10 lpi 10%" width="72" height="72" patternTransform="translate(-326.22 189.21) scale(1.87 0.91)" patternUnits="userSpaceOnUse" viewBox="0 0 72 72">
      <rect class="cls-1" width="72" height="72"/>
      <g>
        <line class="cls-2" x1="71.75" y1="68.4" x2="144.25" y2="68.4"/>
        <line class="cls-2" x1="71.75" y1="54" x2="144.25" y2="54"/>
        <line class="cls-2" x1="71.75" y1="39.6" x2="144.25" y2="39.6"/>
        <line class="cls-2" x1="71.75" y1="25.2" x2="144.25" y2="25.2"/>
        <line class="cls-2" x1="71.75" y1="10.8" x2="144.25" y2="10.8"/>
        <line class="cls-2" x1="71.75" y1="61.2" x2="144.25" y2="61.2"/>
        <line class="cls-2" x1="71.75" y1="46.8" x2="144.25" y2="46.8"/>
        <line class="cls-2" x1="71.75" y1="32.4" x2="144.25" y2="32.4"/>
        <line class="cls-2" x1="71.75" y1="18" x2="144.25" y2="18"/>
        <line class="cls-2" x1="71.75" y1="3.6" x2="144.25" y2="3.6"/>
      </g>
      <g>
        <line class="cls-2" x1="-0.25" y1="68.4" x2="72.25" y2="68.4"/>
        <line class="cls-2" x1="-0.25" y1="54" x2="72.25" y2="54"/>
        <line class="cls-2" x1="-0.25" y1="39.6" x2="72.25" y2="39.6"/>
        <line class="cls-2" x1="-0.25" y1="25.2" x2="72.25" y2="25.2"/>
        <line class="cls-2" x1="-0.25" y1="10.8" x2="72.25" y2="10.8"/>
        <line class="cls-2" x1="-0.25" y1="61.2" x2="72.25" y2="61.2"/>
        <line class="cls-2" x1="-0.25" y1="46.8" x2="72.25" y2="46.8"/>
        <line class="cls-2" x1="-0.25" y1="32.4" x2="72.25" y2="32.4"/>
        <line class="cls-2" x1="-0.25" y1="18" x2="72.25" y2="18"/>
        <line class="cls-2" x1="-0.25" y1="3.6" x2="72.25" y2="3.6"/>
      </g>
      <g>
        <line class="cls-2" x1="-72.25" y1="68.4" x2="0.25" y2="68.4"/>
        <line class="cls-2" x1="-72.25" y1="54" x2="0.25" y2="54"/>
        <line class="cls-2" x1="-72.25" y1="39.6" x2="0.25" y2="39.6"/>
        <line class="cls-2" x1="-72.25" y1="25.2" x2="0.25" y2="25.2"/>
        <line class="cls-2" x1="-72.25" y1="10.8" x2="0.25" y2="10.8"/>
        <line class="cls-2" x1="-72.25" y1="61.2" x2="0.25" y2="61.2"/>
        <line class="cls-2" x1="-72.25" y1="46.8" x2="0.25" y2="46.8"/>
        <line class="cls-2" x1="-72.25" y1="32.4" x2="0.25" y2="32.4"/>
        <line class="cls-2" x1="-72.25" y1="18" x2="0.25" y2="18"/>
        <line class="cls-2" x1="-72.25" y1="3.6" x2="0.25" y2="3.6"/>
      </g>
    </pattern>
  </defs>
  <g id="View_5" data-name="View 5">
    <rect class="cls-3" x="-0.58" y="-0.01" width="1024" height="768"/>
    <text class="cls-4" transform="translate(26.59 54.77)"><tspan class="cls-5">W</tspan><tspan x="31" y="0">IEN U-BAHNNETZ</tspan><tspan class="cls-6"><tspan class="cls-7" x="0" y="24">V</tspan><tspan x="13.6" y="24">ienna Met</tspan><tspan class="cls-8" x="114.48" y="24">r</tspan><tspan x="122.24" y="24">omap </tspan><tspan class="cls-9" x="186.6" y="24">S</tspan><tspan class="cls-10" x="198.7" y="24">y</tspan><tspan class="cls-11" x="209.42" y="24">s</tspan><tspan class="cls-12" x="219.2" y="24">t</tspan><tspan x="226.94" y="24">em Dashb</tspan><tspan class="cls-13" x="330.68" y="24">o</tspan><tspan x="343.16" y="24">a</tspan><tspan class="cls-14" x="354.96" y="24">r</tspan><tspan x="362.72" y="24">d: </tspan><tspan class="cls-15" x="385.76" y="24">Dec 1st</tspan><tspan class="cls-11" x="459.54" y="24">, </tspan><tspan class="cls-16" x="469.01" y="24">2</tspan><tspan class="cls-17" x="480.29" y="24">0</tspan><tspan class="cls-18" x="493.49" y="24">2</tspan><tspan class="cls-11" x="504.77" y="24">0 - </tspan><tspan class="cls-15" x="536.13" y="24">Dec 15th</tspan><tspan class="cls-11" x="625.01" y="24">, </tspan><tspan class="cls-16" x="634.49" y="24">2</tspan><tspan class="cls-19" x="645.77" y="24">0</tspan><tspan class="cls-16" x="658.97" y="24">2</tspan><tspan x="670.25" y="24">0</tspan></tspan></text>
    <text class="cls-20" transform="translate(413.09 130.99)"><tspan class="cls-21">A</tspan><tspan class="cls-22" x="11.07" y="0">v</tspan><tspan x="19.81" y="0">e</tspan><tspan class="cls-23" x="29.28" y="0">r</tspan><tspan class="cls-24" x="35.64" y="0">a</tspan><tspan x="44.98" y="0">ge Daily Ride</tspan><tspan class="cls-25" x="148.47" y="0">r</tspan><tspan x="154.9" y="0">ship </tspan><tspan class="cls-22" x="192.34" y="0">b</tspan><tspan x="202.47" y="0">y Station</tspan></text>
    <g>
      <g>
        <circle class="cls-26" cx="789.97" cy="244.83" r="7.19"/>
        <text class="cls-27" transform="translate(805.7 249.15)">5<tspan class="cls-28" x="5.66" y="0">0,</tspan><tspan class="cls-11" x="14.18" y="0">00</tspan><tspan class="cls-29" x="27.42" y="0">0</tspan><tspan x="34.12" y="0">+</tspan></text>
      </g>
      <g>
        <circle class="cls-30" cx="792.51" cy="270.52" r="5.99"/>
        <text class="cls-27" transform="translate(806.84 273.38)">4<tspan class="cls-28" x="6.61" y="0">0,</tspan><tspan x="15.13" y="0">000</tspan></text>
      </g>
      <g>
        <circle class="cls-31" cx="793.84" cy="295.86" r="4.85"/>
        <text class="cls-27" transform="translate(806.15 299.15)">25<tspan class="cls-28" x="11.34" y="0">,</tspan><tspan class="cls-11" x="13.35" y="0">000</tspan></text>
      </g>
      <g>
        <circle class="cls-32" cx="795.42" cy="320.72" r="3.12"/>
        <text class="cls-27" transform="translate(804.06 324.85)">1<tspan class="cls-28" x="3.61" y="0">0,</tspan><tspan x="12.13" y="0">000</tspan></text>
      </g>
      <g>
        <circle class="cls-33" cx="797.87" cy="345.84" r="1.22"/>
        <text class="cls-27" transform="translate(804.16 350.54)">5<tspan class="cls-34" x="5.66" y="0">,</tspan><tspan x="7.67" y="0">000</tspan></text>
      </g>
    </g>
    <g>
      <rect class="cls-35" x="-0.58" y="738.24" width="1024" height="5.5"/>
      <rect class="cls-36" x="-0.58" y="750.51" width="1024" height="5.5"/>
      <rect class="cls-37" x="-0.58" y="744.33" width="1024" height="5.5"/>
      <rect class="cls-38" x="-0.58" y="756.51" width="1024" height="5.5"/>
      <rect class="cls-39" x="0.58" y="762.51" width="1024" height="5.5"/>
      <rect class="cls-35" x="0.58" y="91.12" width="1024" height="2.75"/>
    </g>
    <g>
      <g>
        <g>
          <rect class="cls-35" x="268.1" y="143.69" width="27.76" height="27.76" rx="13.88" transform="translate(124.41 439.55) rotate(-90)"/>
          <path class="cls-40" d="M289,151.89a1,1,0,0,1,1.4,0,1,1,0,0,1,.09,1.31l-.09.1-10,9.95a1,1,0,0,1-1.31.08l-.1-.08-5-5a1,1,0,0,1,0-1.4,1,1,0,0,1,1.31-.09l.1.09,4.27,4.27Z"/>
        </g>
        <rect class="cls-37" x="228.06" y="143.69" width="27.76" height="27.76" rx="13.88" transform="translate(84.37 399.51) rotate(-90)"/>
        <rect class="cls-36" x="188.03" y="143.69" width="27.76" height="27.76" rx="13.88" transform="translate(44.34 359.47) rotate(-90)"/>
        <rect class="cls-38" x="147.99" y="143.69" width="27.76" height="27.76" rx="13.88" transform="translate(4.3 319.44) rotate(-90)"/>
        <rect class="cls-39" x="107.95" y="143.69" width="27.76" height="27.76" rx="13.88" transform="translate(-35.74 279.4) rotate(-90)"/>
      </g>
      <text class="cls-41" transform="translate(188.72 136.14)">Li<tspan class="cls-42" x="12.34" y="0">n</tspan><tspan class="cls-43" x="21.84" y="0">e</tspan></text>
      <g>
        <g>
          <line class="cls-44" x1="200.98" y1="214.5" x2="108.33" y2="214.5"/>
          <g>
            <path class="cls-40" d="M200.48,205.6a8.91,8.91,0,1,1-8.91,8.9A8.91,8.91,0,0,1,200.48,205.6Z"/>
            <path class="cls-45" d="M200.48,204.41a10.1,10.1,0,1,0,10.09,10.09,10.11,10.11,0,0,0-10.09-10.09Zm0,17.82a7.73,7.73,0,1,1,7.72-7.73,7.74,7.74,0,0,1-7.72,7.73Z"/>
          </g>
          <g>
            <circle class="cls-40" cx="108.83" cy="214.5" r="8.91"/>
            <path class="cls-45" d="M108.83,204.41A10.1,10.1,0,1,1,98.74,214.5a10.1,10.1,0,0,1,10.09-10.09Zm0,17.82a7.73,7.73,0,1,0-7.72-7.73,7.74,7.74,0,0,0,7.72,7.73Z"/>
          </g>
        </g>
        <text class="cls-46" transform="translate(182 234.85)">Dec 15th</text>
        <text class="cls-46" transform="translate(88.26 237.65)">Dec 1st</text>
        <text class="cls-47" transform="translate(190.26 200.39)">Da<tspan class="cls-48" x="17.09" y="0">t</tspan><tspan x="22.04" y="0">e</tspan></text>
      </g>
      <path class="cls-49" d="M70.74,386.5V124a7.88,7.88,0,0,1,7.88-7.88H317.45a7.88,7.88,0,0,1,7.88,7.88V386.5a7.88,7.88,0,0,1-7.88,7.88H78.62a7.88,7.88,0,0,1-7.88-7.88Z"/>
      <g>
        <g>
          <line class="cls-44" x1="288.32" y1="271.98" x2="107.98" y2="271.98"/>
          <g>
            <path class="cls-40" d="M287.81,263.08a8.91,8.91,0,1,1-8.9,8.9A8.91,8.91,0,0,1,287.81,263.08Z"/>
            <path class="cls-45" d="M287.81,261.89A10.09,10.09,0,1,0,297.9,272a10.11,10.11,0,0,0-10.09-10.09Zm0,17.82a7.73,7.73,0,1,1,7.73-7.73,7.74,7.74,0,0,1-7.73,7.73Z"/>
          </g>
          <g>
            <path class="cls-40" d="M108.49,263.08a8.91,8.91,0,1,0,8.9,8.9A8.91,8.91,0,0,0,108.49,263.08Z"/>
            <path class="cls-45" d="M108.49,261.89A10.09,10.09,0,1,1,98.4,272a10.11,10.11,0,0,1,10.09-10.09Zm0,17.82a7.73,7.73,0,1,0-7.72-7.73,7.73,7.73,0,0,0,7.72,7.73Z"/>
          </g>
        </g>
        <text class="cls-46" transform="translate(266.57 296.41)">11:59 pm</text>
        <text class="cls-46" transform="translate(87.83 295.22)">12:00 am</text>
        <text class="cls-47" transform="translate(190.26 265.7)">Hour</text>
      </g>
      <g>
        <g>
          <line class="cls-44" x1="288.87" y1="326.94" x2="108.53" y2="326.94"/>
          <g>
            <circle class="cls-40" cx="288.36" cy="326.94" r="8.91" transform="translate(-48.65 50.41) rotate(-9.22)"/>
            <path class="cls-45" d="M288.36,316.85a10.09,10.09,0,1,0,10.09,10.09,10.1,10.1,0,0,0-10.09-10.09Zm0,17.81a7.72,7.72,0,1,1,7.72-7.72,7.72,7.72,0,0,1-7.72,7.72Z"/>
          </g>
          <g>
            <circle class="cls-40" cx="109.03" cy="326.94" r="8.91" transform="translate(-199.24 172.86) rotate(-45)"/>
            <path class="cls-45" d="M109,316.85a10.09,10.09,0,1,1-10.09,10.09A10.1,10.1,0,0,1,109,316.85Zm0,17.81a7.72,7.72,0,1,0-7.72-7.72,7.73,7.73,0,0,0,7.72,7.72Z"/>
          </g>
        </g>
        <text class="cls-47" transform="translate(125.71 320.71)"><tspan class="cls-50">A</tspan><tspan class="cls-51" x="8.74" y="0">v</tspan><tspan x="15.65" y="0">e</tspan><tspan class="cls-52" x="23.12" y="0">r</tspan><tspan class="cls-53" x="28.14" y="0">a</tspan><tspan x="35.52" y="0">ge Daily Ride</tspan><tspan class="cls-54" x="117.24" y="0">r</tspan><tspan class="cls-55" x="122.32" y="0">ship</tspan></text>
      </g>
      <g>
        <path class="cls-45" d="M190.72,371.43a14.16,14.16,0,0,0,24.58-5.35c0-.18.07-.35.11-.52h-3.25a11,11,0,0,1-19.57,3.14h6v-3.14h-11v11h3.15Z"/>
        <path class="cls-45" d="M195.85,352.88a11,11,0,0,1,14.54,3.25h-6v3.14h11v-11h-3.15v5.14a14.15,14.15,0,0,0-24.58,5.36c0,.17-.07.34-.11.51h3.25a11,11,0,0,1,5-6.39Z"/>
      </g>
    </g>
    <g>
      <polyline class="cls-56" points="391.54 215.5 440.4 263.64 565.42 263.64 660.26 358.25"/>
      <polyline class="cls-56" points="416.93 394.41 457.4 354.18 457.4 227.96 512.73 173.83 607.57 173.83 623.14 158.98"/>
      <polyline class="cls-57" points="529.65 299.81 511.77 281.29 511.77 245.84 529.65 228.28 600.55 228.28 672.56 300.29 727.25 245.6 753.19 245.6"/>
      <polyline class="cls-56" points="361.6 244.24 417.29 299.93 564.94 299.93 583.35 281.52 583.35 245.44 529.6 191.69 529.6 157.3"/>
      <polyline class="cls-56" points="592.84 398.37 529.7 335.21 529.7 282.25 565.68 246.26 638.23 246.26 714.6 169.89"/>
      <circle class="cls-56" cx="391.54" cy="215.76" r="1.18"/>
      <circle class="cls-56" cx="403.12" cy="227.14" r="1.18"/>
      <circle class="cls-56" cx="414.69" cy="238.36" r="1.18"/>
      <circle class="cls-56" cx="438.12" cy="261.51" r="1.18"/>
      <circle class="cls-56" cx="475.73" cy="263.66" r="1.18"/>
      <circle class="cls-56" cx="612.24" cy="310.45" r="1.18"/>
      <circle class="cls-56" cx="621.66" cy="319.87" r="1.18"/>
      <circle class="cls-56" cx="640.82" cy="338.99" r="1.18"/>
      <circle class="cls-56" cx="650.36" cy="348.49" r="1.18"/>
      <circle class="cls-56" cx="753.19" cy="245.82" r="1.18"/>
      <circle class="cls-56" cx="738.76" cy="245.82" r="1.18"/>
      <circle class="cls-56" cx="725.53" cy="247.69" r="1.18"/>
      <circle class="cls-56" cx="716.97" cy="256.19" r="1.18"/>
      <circle class="cls-56" cx="708.52" cy="264.87" r="1.18"/>
      <circle class="cls-56" cx="691.28" cy="282" r="1.18"/>
      <circle class="cls-56" cx="682.54" cy="290.62" r="1.18"/>
      <circle class="cls-56" cx="631.66" cy="259.36" r="1.18"/>
      <circle class="cls-56" cx="513.61" cy="283.78" r="1.18"/>
      <circle class="cls-56" cx="372.82" cy="255.92" r="1.18"/>
      <circle class="cls-56" cx="396.21" cy="278.86" r="1.18"/>
      <circle class="cls-56" cx="407.63" cy="290.49" r="1.18"/>
      <circle class="cls-56" cx="421.6" cy="299.93" r="1.18"/>
      <circle class="cls-56" cx="457.68" cy="281.83" r="1.18"/>
      <circle class="cls-56" cx="475.57" cy="299.75" r="1.18"/>
      <circle class="cls-56" cx="493.69" cy="299.75" r="1.18"/>
      <circle class="cls-56" cx="532.53" cy="194.85" r="1.18"/>
      <circle class="cls-56" cx="529.69" cy="155.69" r="1.18"/>
      <circle class="cls-56" cx="505.31" cy="180.02" r="1.18"/>
      <circle class="cls-56" cx="495.05" cy="190.34" r="1.18"/>
      <circle class="cls-56" cx="474.61" cy="211.17" r="1.18"/>
      <circle class="cls-56" cx="464.11" cy="221.35" r="1.18"/>
      <circle class="cls-56" cx="457.68" cy="248.73" r="1.18"/>
      <circle class="cls-56" cx="457.55" cy="314.4" r="1.18"/>
      <circle class="cls-56" cx="457.55" cy="328.98" r="1.18"/>
      <circle class="cls-56" cx="457.55" cy="343.59" r="1.18"/>
      <circle class="cls-56" cx="445.19" cy="366.13" r="1.18"/>
      <circle class="cls-56" cx="435.61" cy="375.81" r="1.18"/>
      <circle class="cls-56" cx="426.03" cy="385.27" r="1.18"/>
      <circle class="cls-56" cx="416.63" cy="394.82" r="1.18"/>
      <circle class="cls-56" cx="659.75" cy="357.79" r="1.18"/>
      <circle class="cls-56" cx="705.98" cy="178.45" r="1.18"/>
      <circle class="cls-56" cx="697.36" cy="187.02" r="1.18"/>
      <circle class="cls-56" cx="689.43" cy="195.32" r="1.18"/>
      <circle class="cls-56" cx="671.67" cy="212.82" r="1.18"/>
      <circle class="cls-56" cx="654.4" cy="230.04" r="1.18"/>
      <circle class="cls-56" cx="645.8" cy="238.63" r="1.18"/>
      <circle class="cls-56" cx="545.18" cy="350.9" r="1.18"/>
      <circle class="cls-56" cx="564.01" cy="369.76" r="1.18"/>
      <circle class="cls-56" cx="573.53" cy="379.28" r="1.18"/>
      <circle class="cls-56" cx="583.2" cy="388.92" r="1.18"/>
      <circle class="cls-56" cx="592.37" cy="398.36" r="1.18"/>
      <circle class="cls-56" cx="552.16" cy="173.73" r="1.31"/>
      <circle class="cls-56" cx="574.1" cy="173.87" r="1.31"/>
      <circle class="cls-56" cx="595.62" cy="173.87" r="1.31"/>
      <circle class="cls-56" cx="623.14" cy="158.98" r="1.31"/>
      <circle class="cls-56" cx="531.26" cy="298.76" r="6.97"/>
      <circle class="cls-58" cx="511.77" cy="263.66" r="5.8"/>
      <circle class="cls-56" cx="583.35" cy="281.02" r="4.7"/>
      <circle class="cls-56" cx="529.69" cy="315.72" r="4.7"/>
      <circle class="cls-56" cx="529.69" cy="328.98" r="4.7"/>
      <circle class="cls-56" cx="564.91" cy="300.29" r="4.7"/>
      <circle class="cls-56" cx="566.58" cy="228.62" r="4.7"/>
      <circle class="cls-56" cx="457.55" cy="299.75" r="4.7"/>
      <circle class="cls-56" cx="618.77" cy="246.04" r="4.7"/>
      <circle class="cls-56" cx="583.35" cy="246.04" r="3.02"/>
      <circle class="cls-56" cx="636.72" cy="246.11" r="3.02"/>
      <circle class="cls-56" cx="601.89" cy="246.11" r="3.02"/>
      <circle class="cls-56" cx="600.4" cy="228.28" r="3.02"/>
      <circle class="cls-56" cx="529.69" cy="173.87" r="3.02"/>
      <circle class="cls-59" cx="511.77" cy="246.24" r="5.8"/>
      <circle class="cls-60" cx="529.69" cy="228.62" r="5.8"/>
      <circle class="cls-56" cx="547.81" cy="209.99" r="3.02"/>
      <circle class="cls-56" cx="571.27" cy="269.95" r="3.02"/>
      <circle class="cls-56" cx="531.37" cy="263.56" r="3.02"/>
      <circle class="cls-56" cx="593.01" cy="291.1" r="3.02"/>
      <circle class="cls-56" cx="602.56" cy="300.93" r="3.02"/>
      <circle class="cls-56" cx="631.66" cy="329.95" r="3.02"/>
      <circle class="cls-56" cx="554.81" cy="360.38" r="3.02"/>
      <circle class="cls-56" cx="536.82" cy="342.72" r="3.02"/>
      <circle class="cls-56" cx="512.94" cy="299.75" r="3.02"/>
      <circle class="cls-56" cx="457.55" cy="263.56" r="3.02"/>
      <circle class="cls-56" cx="442.32" cy="299.75" r="3.02"/>
      <circle class="cls-56" cx="454.53" cy="357.27" r="3.02"/>
      <circle class="cls-56" cx="457.55" cy="231.64" r="3.02"/>
      <circle class="cls-56" cx="496.22" cy="263.66" r="2.58"/>
      <circle class="cls-56" cx="426.84" cy="250.14" r="2.58"/>
      <circle class="cls-56" cx="644.63" cy="272.98" r="2.58"/>
      <circle class="cls-56" cx="658.15" cy="285.5" r="2.58"/>
      <circle class="cls-56" cx="668.49" cy="296.73" r="2.58"/>
      <circle class="cls-56" cx="700.18" cy="272.98" r="2.58"/>
      <circle class="cls-56" cx="663.31" cy="221.34" r="2.58"/>
      <circle class="cls-56" cx="681.52" cy="202.96" r="2.58"/>
      <circle class="cls-56" cx="714.6" cy="170.31" r="2.58"/>
      <circle class="cls-56" cx="614.74" cy="167.31" r="2.58"/>
      <circle class="cls-56" cx="485.92" cy="200.38" r="2.58"/>
      <circle class="cls-56" cx="384.63" cy="266.99" r="2.58"/>
      <circle class="cls-56" cx="361.81" cy="245.06" r="1.18"/>
      <circle class="cls-61" cx="550.85" cy="263.69" r="5.8"/>
    </g>
    <rect class="cls-62" x="855.98" y="108.76" width="150.42" height="306"/>
    <g>
      <path class="cls-63" d="M875.22,128.51h-5.46l-1.18,2.62h-1.07l4.48-9.8h1l4.48,9.8H876.4Zm-.37-.84-2.36-5.26-2.35,5.26Z"/>
      <path class="cls-63" d="M878.9,120.74h1v10.39h-1Z"/>
      <path class="cls-63" d="M886.58,130.68a2.39,2.39,0,0,1-1.56.52,2,2,0,0,1-2.16-2.14V124.6h-1.31v-.84h1.31v-1.61h1v1.61h2.24v.84h-2.24V129a1.18,1.18,0,0,0,1.27,1.35,1.67,1.67,0,0,0,1.1-.38Z"/>
      <path class="cls-63" d="M894.53,127.76h-6.16a2.72,2.72,0,0,0,2.9,2.56,2.89,2.89,0,0,0,2.25-1l.56.65a3.9,3.9,0,0,1-6.71-2.55,3.55,3.55,0,0,1,3.6-3.74,3.5,3.5,0,0,1,3.57,3.74C894.54,127.53,894.53,127.64,894.53,127.76Zm-6.16-.75h5.22a2.62,2.62,0,0,0-5.22,0Z"/>
      <path class="cls-63" d="M900.28,123.71v1l-.23,0c-1.55,0-2.48,1-2.48,2.72v3.75h-1v-7.37h.95v1.45A2.79,2.79,0,0,1,900.28,123.71Z"/>
      <path class="cls-63" d="M908.85,126.86v4.27h-1V127a2.06,2.06,0,0,0-2.22-2.36,2.42,2.42,0,0,0-2.57,2.67v3.86h-1v-7.37h1v1.36a3.1,3.1,0,0,1,2.8-1.41A2.81,2.81,0,0,1,908.85,126.86Z"/>
      <path class="cls-63" d="M917.11,126.57v4.56h-1V130a2.77,2.77,0,0,1-2.54,1.22c-1.66,0-2.69-.87-2.69-2.14s.73-2.09,2.85-2.09h2.34v-.45c0-1.26-.72-1.94-2.09-1.94a3.76,3.76,0,0,0-2.45.86l-.45-.74a4.68,4.68,0,0,1,3-1C916,123.71,917.11,124.66,917.11,126.57Zm-1,2.35v-1.21h-2.31c-1.43,0-1.9.56-1.9,1.32s.69,1.39,1.87,1.39A2.36,2.36,0,0,0,916.12,128.92Z"/>
      <path class="cls-63" d="M923.69,130.68a2.36,2.36,0,0,1-1.55.52,2,2,0,0,1-2.16-2.14V124.6h-1.32v-.84H920v-1.61h1v1.61h2.24v.84H921V129a1.19,1.19,0,0,0,1.28,1.35,1.66,1.66,0,0,0,1.09-.38Z"/>
      <path class="cls-63" d="M925.27,121.44a.72.72,0,0,1,.73-.7.71.71,0,1,1,0,1.41A.72.72,0,0,1,925.27,121.44Zm.22,2.32h1v7.37h-1Z"/>
      <path class="cls-63" d="M935.45,123.76l-3.28,7.37h-1l-3.26-7.37h1l2.76,6.28,2.79-6.28Z"/>
      <path class="cls-63" d="M943.05,127.76h-6.16a2.72,2.72,0,0,0,2.9,2.56,2.89,2.89,0,0,0,2.26-1l.56.65a3.9,3.9,0,0,1-6.71-2.55,3.59,3.59,0,1,1,7.17,0C943.07,127.53,943.05,127.64,943.05,127.76Zm-6.16-.75h5.23a2.62,2.62,0,0,0-5.23,0Z"/>
      <path class="cls-63" d="M945.09,120.74h1v10.39h-1Z"/>
      <path class="cls-63" d="M955.05,123.76,951.37,132c-.62,1.45-1.4,1.91-2.45,1.91a2.53,2.53,0,0,1-1.8-.67l.47-.74a1.83,1.83,0,0,0,1.34.55c.66,0,1.11-.3,1.53-1.23l.32-.71-3.29-7.36h1L951.3,130l2.77-6.27Z"/>
      <path class="cls-63" d="M956.83,130.43a2.28,2.28,0,0,1-.2.81l-.59,1.94h-.67l.48-2a.71.71,0,0,1-.51-.72.75.75,0,1,1,1.49,0Z"/>
      <path class="cls-63" d="M966.49,130.68a2.37,2.37,0,0,1-1.56.52,2,2,0,0,1-2.15-2.14V124.6h-1.32v-.84h1.32v-1.61h1v1.61H966v.84h-2.24V129a1.19,1.19,0,0,0,1.28,1.35,1.66,1.66,0,0,0,1.09-.38Z"/>
      <path class="cls-63" d="M975.07,126.86v4.27h-1V127a2.06,2.06,0,0,0-2.22-2.36,2.42,2.42,0,0,0-2.57,2.67v3.86h-1V120.74h1v4.31a3.11,3.11,0,0,1,2.76-1.34A2.81,2.81,0,0,1,975.07,126.86Z"/>
      <path class="cls-63" d="M984.21,127.76h-6.16a2.72,2.72,0,0,0,2.9,2.56,2.89,2.89,0,0,0,2.26-1l.56.65a3.9,3.9,0,0,1-6.71-2.55,3.59,3.59,0,1,1,7.17,0C984.23,127.53,984.21,127.64,984.21,127.76Zm-6.16-.75h5.23a2.62,2.62,0,0,0-5.23,0Z"/>
      <path class="cls-63" d="M875.5,140.56v7.37h-1v-1.34A2.94,2.94,0,0,1,871.9,148a2.86,2.86,0,0,1-3.11-3.16v-4.28h1v4.18c0,1.57.81,2.37,2.21,2.37a2.4,2.4,0,0,0,2.51-2.68v-3.87Z"/>
      <path class="cls-63" d="M877.26,147.09l.45-.78a4.49,4.49,0,0,0,2.62.82c1.4,0,2-.47,2-1.2,0-1.92-4.78-.41-4.78-3.32,0-1.21,1-2.1,2.91-2.1a5,5,0,0,1,2.61.68l-.44.8a3.74,3.74,0,0,0-2.17-.63c-1.33,0-1.92.52-1.92,1.22,0,2,4.78.49,4.78,3.32,0,1.28-1.12,2.1-3,2.1A4.93,4.93,0,0,1,877.26,147.09Z"/>
      <path class="cls-63" d="M891.55,144.56h-6.17a2.73,2.73,0,0,0,2.9,2.56,2.89,2.89,0,0,0,2.26-1l.56.65a3.9,3.9,0,0,1-6.71-2.55,3.55,3.55,0,0,1,3.6-3.74,3.51,3.51,0,0,1,3.57,3.74C891.56,144.33,891.55,144.44,891.55,144.56Zm-6.17-.75h5.23a2.62,2.62,0,0,0-5.23,0Z"/>
      <path class="cls-63" d="M897.3,140.51v1h-.24c-1.54,0-2.48,1-2.48,2.72v3.75h-1v-7.37h.95V142A2.78,2.78,0,0,1,897.3,140.51Z"/>
      <path class="cls-63" d="M902.13,144.25a3.62,3.62,0,0,1,3.79-3.74,3.22,3.22,0,0,1,2.89,1.46l-.74.5a2.52,2.52,0,0,0-2.15-1.09,2.87,2.87,0,0,0,0,5.74,2.51,2.51,0,0,0,2.15-1.08l.74.51a3.25,3.25,0,0,1-2.89,1.45A3.63,3.63,0,0,1,902.13,144.25Z"/>
      <path class="cls-63" d="M909.88,144.25a3.75,3.75,0,1,1,3.76,3.75A3.62,3.62,0,0,1,909.88,144.25Zm6.49,0a2.74,2.74,0,1,0-2.73,2.87A2.68,2.68,0,0,0,916.37,144.25Z"/>
      <path class="cls-63" d="M926,140.56v7.37h-.95v-1.34a2.94,2.94,0,0,1-2.65,1.41,2.86,2.86,0,0,1-3.11-3.16v-4.28h1v4.18c0,1.57.81,2.37,2.21,2.37a2.4,2.4,0,0,0,2.51-2.68v-3.87Z"/>
      <path class="cls-63" d="M928.83,137.54h1v10.39h-1Z"/>
      <path class="cls-63" d="M939.32,137.54v10.39h-1v-1.46a3.17,3.17,0,0,1-2.84,1.53,3.75,3.75,0,0,1,0-7.49,3.2,3.2,0,0,1,2.8,1.46v-4.43Zm-1,6.71a2.74,2.74,0,1,0-2.74,2.87A2.69,2.69,0,0,0,938.34,144.25Z"/>
      <path class="cls-63" d="M944.73,147.09l.45-.78a4.46,4.46,0,0,0,2.62.82c1.4,0,2-.47,2-1.2,0-1.92-4.77-.41-4.77-3.32,0-1.21,1-2.1,2.91-2.1a5,5,0,0,1,2.6.68l-.43.8a3.74,3.74,0,0,0-2.17-.63c-1.33,0-1.92.52-1.92,1.22,0,2,4.78.49,4.78,3.32,0,1.28-1.12,2.1-3,2.1A4.91,4.91,0,0,1,944.73,147.09Z"/>
      <path class="cls-63" d="M959,144.56h-6.16a2.72,2.72,0,0,0,2.9,2.56,2.87,2.87,0,0,0,2.25-1l.57.65a3.9,3.9,0,0,1-6.71-2.55,3.59,3.59,0,1,1,7.17,0C959,144.33,959,144.44,959,144.56Zm-6.16-.75h5.23a2.62,2.62,0,0,0-5.23,0Z"/>
      <path class="cls-63" d="M961.05,137.54h1v10.39h-1Z"/>
      <path class="cls-63" d="M971.24,144.56h-6.17a2.72,2.72,0,0,0,2.9,2.56,2.89,2.89,0,0,0,2.26-1l.56.65a3.9,3.9,0,0,1-6.71-2.55,3.59,3.59,0,1,1,7.17,0C971.25,144.33,971.24,144.44,971.24,144.56Zm-6.17-.75h5.23a2.62,2.62,0,0,0-5.23,0Z"/>
      <path class="cls-63" d="M972.53,144.25a3.63,3.63,0,0,1,3.8-3.74,3.22,3.22,0,0,1,2.89,1.46l-.75.5a2.5,2.5,0,0,0-2.14-1.09,2.87,2.87,0,0,0,0,5.74,2.49,2.49,0,0,0,2.14-1.08l.75.51a3.25,3.25,0,0,1-2.89,1.45A3.64,3.64,0,0,1,972.53,144.25Z"/>
      <path class="cls-63" d="M985.12,147.48a2.36,2.36,0,0,1-1.55.52,2,2,0,0,1-2.16-2.14V141.4h-1.32v-.84h1.32V139h1v1.61h2.25v.84H982.4v4.4a1.19,1.19,0,0,0,1.28,1.35,1.64,1.64,0,0,0,1.09-.38Z"/>
      <path class="cls-63" d="M872.74,164.28a2.31,2.31,0,0,1-1.55.52,2,2,0,0,1-2.16-2.14v-4.45h-1.31v-.85H869v-1.61h1v1.61h2.24v.85H870v4.39A1.18,1.18,0,0,0,871.3,164a1.64,1.64,0,0,0,1.09-.38Z"/>
      <path class="cls-63" d="M881.33,160.46v4.27h-1v-4.17a2.05,2.05,0,0,0-2.21-2.35,2.42,2.42,0,0,0-2.58,2.66v3.86h-1V154.34h1v4.31a3.13,3.13,0,0,1,2.76-1.34A2.82,2.82,0,0,1,881.33,160.46Z"/>
      <path class="cls-63" d="M890.47,161.36h-6.16a2.72,2.72,0,0,0,2.9,2.56,2.89,2.89,0,0,0,2.25-1l.56.65a3.9,3.9,0,0,1-6.71-2.55,3.55,3.55,0,0,1,3.6-3.74,3.51,3.51,0,0,1,3.57,3.74C890.48,161.13,890.47,161.24,890.47,161.36Zm-6.16-.75h5.22a2.62,2.62,0,0,0-5.22,0Z"/>
      <path class="cls-63" d="M899.89,157.31v1l-.24,0c-1.54,0-2.48,1-2.48,2.72v3.75h-1v-7.37h1v1.45A2.78,2.78,0,0,1,899.89,157.31Z"/>
      <path class="cls-63" d="M901.46,155a.73.73,0,1,1,.72.71A.71.71,0,0,1,901.46,155Zm.22,2.32h1v7.37h-1Z"/>
      <path class="cls-63" d="M912.17,154.34v10.39h-.95v-1.45a3.2,3.2,0,0,1-2.85,1.52,3.75,3.75,0,0,1,0-7.49,3.22,3.22,0,0,1,2.81,1.46v-4.43Zm-1,6.71a2.74,2.74,0,1,0-2.73,2.87A2.7,2.7,0,0,0,911.19,161.05Z"/>
      <path class="cls-63" d="M921.35,161.36h-6.16a2.72,2.72,0,0,0,2.9,2.56,2.89,2.89,0,0,0,2.26-1l.56.65a3.9,3.9,0,0,1-6.71-2.55,3.59,3.59,0,1,1,7.17,0C921.37,161.13,921.35,161.24,921.35,161.36Zm-6.16-.75h5.23a2.62,2.62,0,0,0-5.23,0Z"/>
      <path class="cls-63" d="M927.11,157.31v1l-.24,0c-1.54,0-2.48,1-2.48,2.72v3.75h-1v-7.37h1v1.45A2.78,2.78,0,0,1,927.11,157.31Z"/>
      <path class="cls-63" d="M927.93,163.89l.45-.78a4.46,4.46,0,0,0,2.62.82c1.4,0,2-.47,2-1.2,0-1.92-4.77-.41-4.77-3.32,0-1.2,1-2.1,2.91-2.1a4.87,4.87,0,0,1,2.6.69l-.43.79a3.82,3.82,0,0,0-2.17-.63c-1.33,0-1.92.52-1.92,1.22,0,2,4.78.49,4.78,3.32,0,1.28-1.12,2.1-3,2.1A4.91,4.91,0,0,1,927.93,163.89Z"/>
      <path class="cls-63" d="M942.58,160.46v4.27h-1v-4.17a2.05,2.05,0,0,0-2.21-2.35,2.42,2.42,0,0,0-2.58,2.66v3.86h-1V154.34h1v4.31a3.13,3.13,0,0,1,2.76-1.34A2.82,2.82,0,0,1,942.58,160.46Z"/>
      <path class="cls-63" d="M945.05,155a.72.72,0,0,1,.73-.7.71.71,0,1,1,0,1.41A.72.72,0,0,1,945.05,155Zm.23,2.32h1v7.37h-1Z"/>
      <path class="cls-63" d="M956.51,161.05a3.57,3.57,0,0,1-3.67,3.75,3.2,3.2,0,0,1-2.8-1.45v4.1h-1V157.36h1v1.46a3.2,3.2,0,0,1,2.84-1.51A3.56,3.56,0,0,1,956.51,161.05Zm-1,0a2.75,2.75,0,1,0-2.74,2.87A2.71,2.71,0,0,0,955.51,161.05Z"/>
      <path class="cls-63" d="M966.08,164.28a2.31,2.31,0,0,1-1.55.52,2,2,0,0,1-2.16-2.14v-4.45h-1.32v-.85h1.32v-1.61h1v1.61h2.25v.85h-2.25v4.39a1.19,1.19,0,0,0,1.28,1.35,1.64,1.64,0,0,0,1.09-.38Z"/>
      <path class="cls-63" d="M974.67,160.46v4.27h-1v-4.17a2.05,2.05,0,0,0-2.21-2.35,2.42,2.42,0,0,0-2.58,2.66v3.86h-1V154.34h1v4.31a3.12,3.12,0,0,1,2.76-1.34A2.83,2.83,0,0,1,974.67,160.46Z"/>
      <path class="cls-63" d="M983.81,161.36h-6.17a2.73,2.73,0,0,0,2.9,2.56,2.89,2.89,0,0,0,2.26-1l.56.65a3.9,3.9,0,0,1-6.71-2.55,3.59,3.59,0,1,1,7.17,0C983.82,161.13,983.81,161.24,983.81,161.36Zm-6.17-.75h5.23a2.62,2.62,0,0,0-5.23,0Z"/>
      <path class="cls-63" d="M991.9,157.36l-3.68,8.26c-.62,1.44-1.41,1.9-2.46,1.9a2.52,2.52,0,0,1-1.79-.67l.46-.74a1.88,1.88,0,0,0,1.35.56c.66,0,1.11-.31,1.53-1.24l.32-.71-3.29-7.36h1l2.78,6.27,2.77-6.27Z"/>
      <path class="cls-63" d="M879.68,174.16l-2.79,7.37H876l-2.32-6-2.33,6h-.94l-2.77-7.37h.95l2.31,6.27,2.37-6.27h.86l2.35,6.27,2.34-6.27Z"/>
      <path class="cls-63" d="M880.22,177.85A3.75,3.75,0,1,1,884,181.6,3.62,3.62,0,0,1,880.22,177.85Zm6.48,0a2.74,2.74,0,1,0-2.73,2.87A2.69,2.69,0,0,0,886.7,177.85Z"/>
      <path class="cls-63" d="M896.38,174.16v7.37h-1v-1.34a3,3,0,0,1-2.65,1.41,2.85,2.85,0,0,1-3.11-3.16v-4.28h1v4.18a2.07,2.07,0,0,0,2.22,2.37,2.39,2.39,0,0,0,2.5-2.68v-3.87Z"/>
      <path class="cls-63" d="M899.16,171.14h1v10.39h-1Z"/>
      <path class="cls-63" d="M909.65,171.14v10.39h-.95v-1.45a3.2,3.2,0,0,1-2.85,1.52,3.75,3.75,0,0,1,0-7.49,3.22,3.22,0,0,1,2.81,1.46v-4.43Zm-1,6.71a2.74,2.74,0,1,0-2.73,2.87A2.7,2.7,0,0,0,908.67,177.85Z"/>
      <path class="cls-63" d="M916.09,171.14h1v10.39h-1Z"/>
      <path class="cls-63" d="M919.63,171.84a.73.73,0,1,1,.73.71A.72.72,0,0,1,919.63,171.84Zm.22,2.32h1v7.37h-1Z"/>
      <path class="cls-63" d="M926.35,177.83l-1.74,1.6v2.1h-1V171.14h1v7l4.4-4h1.23l-3.15,3,3.45,4.35h-1.22Z"/>
      <path class="cls-63" d="M938.15,178.16H932a2.72,2.72,0,0,0,2.9,2.56,2.89,2.89,0,0,0,2.26-1l.56.65a3.9,3.9,0,0,1-6.71-2.55,3.59,3.59,0,1,1,7.17,0C938.17,177.93,938.15,178,938.15,178.16Zm-6.16-.75h5.23a2.62,2.62,0,0,0-5.23,0Z"/>
      <path class="cls-63" d="M947.74,181.08a2.36,2.36,0,0,1-1.55.52,2,2,0,0,1-2.16-2.14V175h-1.32v-.85H944v-1.61h1v1.61h2.24V175H945v4.39a1.18,1.18,0,0,0,1.27,1.35,1.64,1.64,0,0,0,1.09-.38Z"/>
      <path class="cls-63" d="M948.54,177.85a3.75,3.75,0,1,1,3.75,3.75A3.62,3.62,0,0,1,948.54,177.85Zm6.48,0a2.74,2.74,0,1,0-2.73,2.87A2.69,2.69,0,0,0,955,177.85Z"/>
      <path class="cls-63" d="M969.19,177.85a3.57,3.57,0,0,1-3.67,3.75,3.19,3.19,0,0,1-2.84-1.52v1.45h-.95V171.14h1v4.43a3.21,3.21,0,0,1,2.8-1.46A3.56,3.56,0,0,1,969.19,177.85Zm-1,0a2.75,2.75,0,1,0-2.75,2.87A2.71,2.71,0,0,0,968.2,177.85Z"/>
      <path class="cls-63" d="M977.63,178.16h-6.16a2.72,2.72,0,0,0,2.9,2.56,2.87,2.87,0,0,0,2.25-1l.57.65a3.9,3.9,0,0,1-6.71-2.55,3.59,3.59,0,1,1,7.17,0C977.65,177.93,977.63,178,977.63,178.16Zm-6.16-.75h5.23a2.62,2.62,0,0,0-5.23,0Z"/>
      <path class="cls-63" d="M874.43,193.77v4.56h-1v-1.15a2.75,2.75,0,0,1-2.53,1.22c-1.67,0-2.69-.87-2.69-2.14s.73-2.09,2.84-2.09h2.34v-.45c0-1.26-.71-1.94-2.09-1.94a3.78,3.78,0,0,0-2.45.86l-.45-.74a4.7,4.7,0,0,1,3-1C873.35,190.91,874.43,191.86,874.43,193.77Zm-1,2.35v-1.21h-2.31c-1.43,0-1.89.56-1.89,1.32s.69,1.39,1.86,1.39A2.35,2.35,0,0,0,873.43,196.12Z"/>
      <path class="cls-63" d="M884.59,194.65a3.57,3.57,0,0,1-3.67,3.75,3.19,3.19,0,0,1-2.84-1.52v1.45h-1V187.94h1v4.43a3.2,3.2,0,0,1,2.8-1.46A3.56,3.56,0,0,1,884.59,194.65Zm-1,0a2.75,2.75,0,1,0-2.75,2.87A2.71,2.71,0,0,0,883.6,194.65Z"/>
      <path class="cls-63" d="M886.62,187.94h1v10.39h-1Z"/>
      <path class="cls-63" d="M896.8,195h-6.17a2.73,2.73,0,0,0,2.9,2.56,2.89,2.89,0,0,0,2.26-1l.56.65a3.9,3.9,0,0,1-6.71-2.55,3.55,3.55,0,0,1,3.6-3.74,3.51,3.51,0,0,1,3.57,3.74C896.81,194.73,896.8,194.84,896.8,195Zm-6.17-.75h5.23a2.62,2.62,0,0,0-5.23,0Z"/>
      <path class="cls-63" d="M906.39,197.88a2.39,2.39,0,0,1-1.56.52,2,2,0,0,1-2.16-2.14v-4.45h-1.31V191h1.31v-1.61h1V191h2.24v.85h-2.24v4.39a1.18,1.18,0,0,0,1.27,1.35,1.67,1.67,0,0,0,1.1-.38Z"/>
      <path class="cls-63" d="M907.18,194.65a3.75,3.75,0,1,1,3.76,3.75A3.62,3.62,0,0,1,907.18,194.65Zm6.49,0a2.74,2.74,0,1,0-2.73,2.87A2.69,2.69,0,0,0,913.67,194.65Z"/>
      <path class="cls-63" d="M919.63,194.65a3.62,3.62,0,0,1,3.79-3.74,3.22,3.22,0,0,1,2.89,1.46l-.74.5a2.52,2.52,0,0,0-2.15-1.09,2.87,2.87,0,0,0,0,5.74,2.51,2.51,0,0,0,2.15-1.08l.74.51a3.25,3.25,0,0,1-2.89,1.45A3.63,3.63,0,0,1,919.63,194.65Z"/>
      <path class="cls-63" d="M927.38,194.65a3.75,3.75,0,1,1,3.76,3.75A3.62,3.62,0,0,1,927.38,194.65Zm6.49,0a2.74,2.74,0,1,0-2.73,2.87A2.69,2.69,0,0,0,933.87,194.65Z"/>
      <path class="cls-63" d="M949.06,194.06v4.27h-1v-4.17c0-1.56-.79-2.35-2.12-2.35a2.36,2.36,0,0,0-2.46,2.66v3.86h-1v-4.17c0-1.56-.78-2.35-2.13-2.35a2.37,2.37,0,0,0-2.46,2.66v3.86h-1V191h1v1.35a3,3,0,0,1,2.7-1.4,2.65,2.65,0,0,1,2.62,1.55,3.2,3.2,0,0,1,2.91-1.55C947.89,190.91,949.06,191.94,949.06,194.06Z"/>
      <path class="cls-63" d="M959.22,194.65a3.56,3.56,0,0,1-3.67,3.75,3.23,3.23,0,0,1-2.8-1.45v4.1h-1V191h1v1.46a3.21,3.21,0,0,1,2.84-1.51A3.56,3.56,0,0,1,959.22,194.65Zm-1,0a2.75,2.75,0,1,0-2.75,2.87A2.71,2.71,0,0,0,958.23,194.65Z"/>
      <path class="cls-63" d="M966.77,193.77v4.56h-.95v-1.15a2.77,2.77,0,0,1-2.54,1.22c-1.67,0-2.69-.87-2.69-2.14s.73-2.09,2.84-2.09h2.34v-.45c0-1.26-.71-1.94-2.08-1.94a3.74,3.74,0,0,0-2.45.86l-.45-.74a4.67,4.67,0,0,1,3-1C965.69,190.91,966.77,191.86,966.77,193.77Zm-1,2.35v-1.21h-2.31c-1.43,0-1.89.56-1.89,1.32s.69,1.39,1.86,1.39A2.34,2.34,0,0,0,965.77,196.12Z"/>
      <path class="cls-63" d="M973.18,190.91v1l-.24,0c-1.54,0-2.48,1-2.48,2.72v3.75h-1V191h.95v1.45A2.78,2.78,0,0,1,973.18,190.91Z"/>
      <path class="cls-63" d="M981.32,195h-6.17a2.72,2.72,0,0,0,2.9,2.56,2.89,2.89,0,0,0,2.26-1l.56.65a3.9,3.9,0,0,1-6.71-2.55,3.59,3.59,0,1,1,7.17,0C981.33,194.73,981.32,194.84,981.32,195Zm-6.17-.75h5.23a2.62,2.62,0,0,0-5.23,0Z"/>
      <path class="cls-63" d="M870,206.9v.86h2.27v.84H870v6.53h-1V208.6h-1.31v-.84H869v-.91a2,2,0,0,1,2.23-2.18,2.31,2.31,0,0,1,1.47.46l-.34.74a1.72,1.72,0,0,0-1.09-.36C870.45,205.51,870,206,870,206.9Z"/>
      <path class="cls-63" d="M878.44,207.71v1l-.24,0c-1.54,0-2.48,1-2.48,2.72v3.75h-1v-7.37h.95v1.45A2.78,2.78,0,0,1,878.44,207.71Z"/>
      <path class="cls-63" d="M879.42,211.45a3.75,3.75,0,1,1,3.75,3.75A3.62,3.62,0,0,1,879.42,211.45Zm6.49,0a2.74,2.74,0,1,0-2.74,2.87A2.69,2.69,0,0,0,885.91,211.45Z"/>
      <path class="cls-63" d="M901.1,210.86v4.27h-1V211c0-1.56-.78-2.36-2.11-2.36a2.38,2.38,0,0,0-2.47,2.67v3.86h-1V211c0-1.56-.78-2.36-2.13-2.36a2.38,2.38,0,0,0-2.47,2.67v3.86h-1v-7.37h.95v1.35a3,3,0,0,1,2.71-1.4,2.66,2.66,0,0,1,2.62,1.55,3.2,3.2,0,0,1,2.91-1.55C899.92,207.71,901.1,208.74,901.1,210.86Z"/>
      <path class="cls-63" d="M911.34,214.68a2.36,2.36,0,0,1-1.55.52,2,2,0,0,1-2.16-2.14V208.6h-1.32v-.84h1.32v-1.61h1v1.61h2.25v.84h-2.25V213a1.19,1.19,0,0,0,1.28,1.35A1.64,1.64,0,0,0,911,214Z"/>
      <path class="cls-63" d="M919.93,210.86v4.27h-1V211a2.06,2.06,0,0,0-2.21-2.36,2.43,2.43,0,0,0-2.58,2.67v3.86h-1V204.74h1v4.31a3.12,3.12,0,0,1,2.76-1.34A2.82,2.82,0,0,1,919.93,210.86Z"/>
      <path class="cls-63" d="M929.07,211.76H922.9a2.73,2.73,0,0,0,2.9,2.56,2.89,2.89,0,0,0,2.26-1l.56.65a3.9,3.9,0,0,1-6.71-2.55,3.55,3.55,0,0,1,3.6-3.74,3.51,3.51,0,0,1,3.57,3.74C929.08,211.53,929.07,211.64,929.07,211.76ZM922.9,211h5.23a2.62,2.62,0,0,0-5.23,0Z"/>
      <path class="cls-63" d="M934.78,204.74h1v10.39h-1Z"/>
      <path class="cls-63" d="M945,211.76h-6.17a2.73,2.73,0,0,0,2.9,2.56,2.89,2.89,0,0,0,2.26-1l.56.65a3.9,3.9,0,0,1-6.71-2.55,3.55,3.55,0,0,1,3.6-3.74,3.51,3.51,0,0,1,3.57,3.74C945,211.53,945,211.64,945,211.76Zm-6.17-.75H944a2.62,2.62,0,0,0-5.23,0Z"/>
      <path class="cls-63" d="M953.82,207.76v6.48c0,2.53-1.25,3.68-3.68,3.68a5.19,5.19,0,0,1-3.44-1.13l.51-.76a4.38,4.38,0,0,0,2.9,1c1.86,0,2.72-.86,2.72-2.68v-.94a3.33,3.33,0,0,1-2.88,1.43,3.57,3.57,0,1,1,0-7.14,3.32,3.32,0,0,1,2.92,1.47v-1.42Zm-1,3.51a2.8,2.8,0,1,0-2.8,2.7A2.63,2.63,0,0,0,952.85,211.27Z"/>
      <path class="cls-63" d="M963,211.76h-6.17a2.73,2.73,0,0,0,2.9,2.56,2.89,2.89,0,0,0,2.26-1l.56.65a3.9,3.9,0,0,1-6.71-2.55,3.55,3.55,0,0,1,3.6-3.74,3.51,3.51,0,0,1,3.57,3.74C963,211.53,963,211.64,963,211.76Zm-6.17-.75h5.23a2.62,2.62,0,0,0-5.23,0Z"/>
      <path class="cls-63" d="M971.84,210.86v4.27h-1V211a2.06,2.06,0,0,0-2.21-2.36,2.43,2.43,0,0,0-2.58,2.67v3.86h-1v-7.37h1v1.36a3.11,3.11,0,0,1,2.8-1.41A2.82,2.82,0,0,1,971.84,210.86Z"/>
      <path class="cls-63" d="M981.29,204.74v10.39h-.95v-1.45a3.21,3.21,0,0,1-2.85,1.52,3.75,3.75,0,0,1,0-7.49,3.19,3.19,0,0,1,2.8,1.46v-4.43Zm-1,6.71a2.74,2.74,0,1,0-2.73,2.87A2.69,2.69,0,0,0,980.31,211.45Z"/>
      <path class="cls-63" d="M983.41,214.43a.74.74,0,0,1,.74-.75.75.75,0,0,1,.76.75.76.76,0,0,1-.76.77A.75.75,0,0,1,983.41,214.43Z"/>
      <path class="cls-63" d="M871,223h-3.45v-.89h7.93V223H872v8.91h-1Z"/>
      <path class="cls-63" d="M883.68,227.66v4.27h-1v-4.17a2.07,2.07,0,0,0-2.22-2.36,2.43,2.43,0,0,0-2.58,2.67v3.86h-1V221.54h1v4.31a3.13,3.13,0,0,1,2.76-1.34A2.82,2.82,0,0,1,883.68,227.66Z"/>
      <path class="cls-63" d="M886.15,222.24a.72.72,0,0,1,.73-.7.71.71,0,0,1,.73.68.72.72,0,0,1-.73.73A.72.72,0,0,1,886.15,222.24Zm.23,2.32h1v7.37h-1Z"/>
      <path class="cls-63" d="M889.12,231.09l.45-.78a4.46,4.46,0,0,0,2.62.82c1.4,0,2-.47,2-1.2,0-1.92-4.77-.41-4.77-3.32,0-1.21,1-2.1,2.91-2.1a5,5,0,0,1,2.61.68l-.44.8a3.74,3.74,0,0,0-2.17-.63c-1.33,0-1.92.52-1.92,1.22,0,2,4.78.49,4.78,3.32,0,1.28-1.12,2.1-3,2.1A4.91,4.91,0,0,1,889.12,231.09Z"/>
      <path class="cls-63" d="M911.47,224.56l-2.79,7.37h-.93l-2.33-6-2.32,6h-.94l-2.78-7.37h1l2.31,6.27,2.37-6.27h.85l2.35,6.27,2.34-6.27Z"/>
      <path class="cls-63" d="M912,228.25a3.75,3.75,0,1,1,3.76,3.75A3.62,3.62,0,0,1,912,228.25Zm6.49,0a2.74,2.74,0,1,0-2.73,2.87A2.68,2.68,0,0,0,918.5,228.25Z"/>
      <path class="cls-63" d="M928.17,224.56v7.37h-.95v-1.34a2.94,2.94,0,0,1-2.65,1.41,2.86,2.86,0,0,1-3.11-3.16v-4.28h1v4.18c0,1.57.81,2.37,2.21,2.37a2.4,2.4,0,0,0,2.51-2.68v-3.87Z"/>
      <path class="cls-63" d="M931,221.54h1v10.39h-1Z"/>
      <path class="cls-63" d="M941.44,221.54v10.39h-1v-1.46a3.17,3.17,0,0,1-2.84,1.53,3.75,3.75,0,0,1,0-7.49,3.21,3.21,0,0,1,2.8,1.46v-4.43Zm-1,6.71a2.74,2.74,0,1,0-2.73,2.87A2.69,2.69,0,0,0,940.46,228.25Z"/>
      <path class="cls-63" d="M946.86,231.09l.45-.78a4.44,4.44,0,0,0,2.62.82c1.4,0,2-.47,2-1.2,0-1.92-4.78-.41-4.78-3.32,0-1.21,1-2.1,2.92-2.1a5,5,0,0,1,2.6.68l-.43.8a3.79,3.79,0,0,0-2.17-.63c-1.33,0-1.92.52-1.92,1.22,0,2,4.77.49,4.77,3.32,0,1.28-1.12,2.1-3,2.1A4.91,4.91,0,0,1,946.86,231.09Z"/>
      <path class="cls-63" d="M961.14,228.56H955a2.72,2.72,0,0,0,2.9,2.56,2.89,2.89,0,0,0,2.25-1l.56.65a3.9,3.9,0,0,1-6.71-2.55,3.55,3.55,0,0,1,3.6-3.74,3.51,3.51,0,0,1,3.58,3.74C961.16,228.33,961.14,228.44,961.14,228.56Zm-6.16-.75h5.22a2.62,2.62,0,0,0-5.22,0Z"/>
      <path class="cls-63" d="M963.18,221.54h1v10.39h-1Z"/>
      <path class="cls-63" d="M973.36,228.56H967.2a2.72,2.72,0,0,0,2.9,2.56,2.89,2.89,0,0,0,2.26-1l.56.65a3.9,3.9,0,0,1-6.71-2.55,3.59,3.59,0,1,1,7.17,0C973.38,228.33,973.36,228.44,973.36,228.56Zm-6.16-.75h5.23a2.62,2.62,0,0,0-5.23,0Z"/>
      <path class="cls-63" d="M974.66,228.25a3.63,3.63,0,0,1,3.8-3.74,3.2,3.2,0,0,1,2.88,1.46l-.74.5a2.5,2.5,0,0,0-2.14-1.09,2.87,2.87,0,0,0,0,5.74A2.49,2.49,0,0,0,980.6,230l.74.51a3.24,3.24,0,0,1-2.88,1.45A3.64,3.64,0,0,1,974.66,228.25Z"/>
      <path class="cls-63" d="M987.25,231.48a2.36,2.36,0,0,1-1.55.52,2,2,0,0,1-2.16-2.14V225.4h-1.32v-.84h1.32V223h1v1.61h2.24v.84h-2.24v4.4a1.19,1.19,0,0,0,1.28,1.35,1.66,1.66,0,0,0,1.09-.38Z"/>
      <path class="cls-63" d="M874.43,244.17v4.56h-1v-1.15a2.75,2.75,0,0,1-2.53,1.22c-1.67,0-2.69-.87-2.69-2.14s.73-2.09,2.84-2.09h2.34v-.45c0-1.26-.71-1.94-2.09-1.94a3.73,3.73,0,0,0-2.45.87l-.45-.75a4.7,4.7,0,0,1,3-1C873.35,241.31,874.43,242.26,874.43,244.17Zm-1,2.35v-1.21h-2.31c-1.43,0-1.89.57-1.89,1.32s.69,1.39,1.86,1.39A2.35,2.35,0,0,0,873.43,246.52Z"/>
      <path class="cls-63" d="M877.12,238.34h1v10.39h-1Z"/>
      <path class="cls-63" d="M880.89,238.34h1v10.39h-1Z"/>
      <path class="cls-63" d="M887.3,247.89l.45-.78a4.46,4.46,0,0,0,2.62.82c1.4,0,2-.47,2-1.2,0-1.92-4.77-.41-4.77-3.32,0-1.2,1-2.1,2.91-2.1a4.94,4.94,0,0,1,2.61.69l-.44.79a3.82,3.82,0,0,0-2.17-.63c-1.33,0-1.92.52-1.92,1.22,0,2,4.78.49,4.78,3.32,0,1.28-1.12,2.1-3,2.1A4.91,4.91,0,0,1,887.3,247.89Z"/>
      <path class="cls-63" d="M899.05,248.28a2.31,2.31,0,0,1-1.55.52,2,2,0,0,1-2.16-2.14v-4.45H894v-.85h1.32v-1.61h1v1.61h2.24v.85h-2.24v4.39a1.19,1.19,0,0,0,1.28,1.35,1.66,1.66,0,0,0,1.09-.38Z"/>
      <path class="cls-63" d="M906.42,244.17v4.56h-1v-1.15a2.74,2.74,0,0,1-2.53,1.22c-1.67,0-2.69-.87-2.69-2.14s.73-2.09,2.84-2.09h2.34v-.45c0-1.26-.71-1.94-2.09-1.94a3.73,3.73,0,0,0-2.45.87l-.45-.75a4.7,4.7,0,0,1,3-1C905.34,241.31,906.42,242.26,906.42,244.17Zm-1,2.35v-1.21h-2.31c-1.43,0-1.89.57-1.89,1.32s.69,1.39,1.86,1.39A2.35,2.35,0,0,0,905.42,246.52Z"/>
      <path class="cls-63" d="M913,248.28a2.31,2.31,0,0,1-1.55.52,2,2,0,0,1-2.16-2.14v-4.45H908v-.85h1.31v-1.61h1v1.61h2.24v.85h-2.24v4.39a1.18,1.18,0,0,0,1.27,1.35,1.64,1.64,0,0,0,1.09-.38Z"/>
      <path class="cls-63" d="M914.57,239a.72.72,0,0,1,.73-.7.71.71,0,1,1,0,1.41A.72.72,0,0,1,914.57,239Zm.23,2.32h1v7.37h-1Z"/>
      <path class="cls-63" d="M917.82,245.05a3.75,3.75,0,1,1,3.76,3.75A3.62,3.62,0,0,1,917.82,245.05Zm6.49,0a2.74,2.74,0,1,0-2.73,2.87A2.69,2.69,0,0,0,924.31,245.05Z"/>
      <path class="cls-63" d="M934.12,244.46v4.27h-1v-4.17a2.05,2.05,0,0,0-2.22-2.35,2.41,2.41,0,0,0-2.57,2.66v3.86h-1v-7.37h1v1.36a3.1,3.1,0,0,1,2.8-1.41A2.82,2.82,0,0,1,934.12,244.46Z"/>
      <path class="cls-63" d="M935.8,247.89l.45-.78a4.44,4.44,0,0,0,2.62.82c1.4,0,2-.47,2-1.2,0-1.92-4.78-.41-4.78-3.32,0-1.2,1-2.1,2.92-2.1a4.87,4.87,0,0,1,2.6.69l-.43.79a3.86,3.86,0,0,0-2.17-.63c-1.33,0-1.92.52-1.92,1.22,0,2,4.78.49,4.78,3.32,0,1.28-1.13,2.1-3,2.1A4.91,4.91,0,0,1,935.8,247.89Z"/>
      <path class="cls-63" d="M958.15,241.36l-2.79,7.37h-.94l-2.32-6-2.33,6h-.94l-2.77-7.37h1l2.31,6.27,2.37-6.27h.86l2.35,6.27,2.34-6.27Z"/>
      <path class="cls-63" d="M959.42,239a.72.72,0,0,1,.73-.7.71.71,0,1,1,0,1.41A.72.72,0,0,1,959.42,239Zm.22,2.32h1v7.37h-1Z"/>
      <path class="cls-63" d="M967.29,248.28a2.34,2.34,0,0,1-1.56.52,2,2,0,0,1-2.15-2.14v-4.45h-1.32v-.85h1.32v-1.61h1v1.61h2.24v.85h-2.24v4.39a1.18,1.18,0,0,0,1.27,1.35,1.67,1.67,0,0,0,1.1-.38Z"/>
      <path class="cls-63" d="M975.87,244.46v4.27h-1v-4.17a2.06,2.06,0,0,0-2.22-2.35,2.41,2.41,0,0,0-2.57,2.66v3.86h-1V238.34h1v4.31a3.11,3.11,0,0,1,2.76-1.34A2.82,2.82,0,0,1,975.87,244.46Z"/>
      <path class="cls-63" d="M978.35,239a.73.73,0,1,1,.72.71A.71.71,0,0,1,978.35,239Zm.22,2.32h1v7.37h-1Z"/>
      <path class="cls-63" d="M989.12,244.46v4.27h-1v-4.17a2.05,2.05,0,0,0-2.21-2.35,2.41,2.41,0,0,0-2.58,2.66v3.86h-1v-7.37h.95v1.36a3.1,3.1,0,0,1,2.8-1.41A2.83,2.83,0,0,1,989.12,244.46Z"/>
      <path class="cls-63" d="M872.74,265.08a2.36,2.36,0,0,1-1.55.52,2,2,0,0,1-2.16-2.14V259h-1.31v-.85H869v-1.61h1v1.61h2.24V259H870v4.39a1.18,1.18,0,0,0,1.27,1.35,1.64,1.64,0,0,0,1.09-.38Z"/>
      <path class="cls-63" d="M881.33,261.26v4.27h-1v-4.17a2.05,2.05,0,0,0-2.21-2.35,2.42,2.42,0,0,0-2.58,2.66v3.86h-1V255.14h1v4.31a3.13,3.13,0,0,1,2.76-1.34A2.82,2.82,0,0,1,881.33,261.26Z"/>
      <path class="cls-63" d="M890.47,262.16h-6.16a2.72,2.72,0,0,0,2.9,2.56,2.89,2.89,0,0,0,2.25-1l.56.65a3.9,3.9,0,0,1-6.71-2.55,3.55,3.55,0,0,1,3.6-3.74,3.51,3.51,0,0,1,3.57,3.74C890.48,261.93,890.47,262,890.47,262.16Zm-6.16-.75h5.22a2.62,2.62,0,0,0-5.22,0Z"/>
      <path class="cls-63" d="M895.16,264.69l.44-.78a4.49,4.49,0,0,0,2.62.82c1.4,0,2-.47,2-1.2,0-1.92-4.78-.41-4.78-3.32,0-1.2,1-2.1,2.92-2.1a4.87,4.87,0,0,1,2.6.69l-.43.79a3.79,3.79,0,0,0-2.17-.63c-1.33,0-1.92.52-1.92,1.22,0,2,4.77.49,4.77,3.32,0,1.28-1.12,2.1-3,2.1A4.88,4.88,0,0,1,895.16,264.69Z"/>
      <path class="cls-63" d="M908.59,261v4.56h-1v-1.15a2.75,2.75,0,0,1-2.53,1.22c-1.67,0-2.69-.87-2.69-2.14s.73-2.09,2.84-2.09h2.34v-.45c0-1.26-.71-1.94-2.09-1.94a3.73,3.73,0,0,0-2.45.87l-.45-.75a4.7,4.7,0,0,1,3-1C907.51,258.11,908.59,259.06,908.59,261Zm-1,2.35v-1.21h-2.31c-1.43,0-1.89.57-1.89,1.32s.69,1.39,1.86,1.39A2.35,2.35,0,0,0,907.59,263.32Z"/>
      <path class="cls-63" d="M923.44,261.26v4.27h-1v-4.17c0-1.56-.79-2.35-2.12-2.35a2.36,2.36,0,0,0-2.46,2.66v3.86h-1v-4.17c0-1.56-.78-2.35-2.13-2.35a2.37,2.37,0,0,0-2.46,2.66v3.86h-1v-7.37h1v1.35a3,3,0,0,1,2.7-1.4,2.65,2.65,0,0,1,2.62,1.55,3.2,3.2,0,0,1,2.91-1.55C922.27,258.11,923.44,259.14,923.44,261.26Z"/>
      <path class="cls-63" d="M932.58,262.16h-6.16a2.72,2.72,0,0,0,2.9,2.56,2.87,2.87,0,0,0,2.25-1l.56.65a3.9,3.9,0,0,1-6.71-2.55,3.59,3.59,0,1,1,7.18,0C932.6,261.93,932.58,262,932.58,262.16Zm-6.16-.75h5.22a2.62,2.62,0,0,0-5.22,0Z"/>
      <path class="cls-63" d="M942,258.11v1l-.23,0c-1.55,0-2.48,1-2.48,2.72v3.75h-1v-7.37h1v1.45A2.79,2.79,0,0,1,942,258.11Z"/>
      <path class="cls-63" d="M943.57,255.84a.73.73,0,1,1,.73.71A.72.72,0,0,1,943.57,255.84Zm.22,2.32h1v7.37h-1Z"/>
      <path class="cls-63" d="M954.28,255.14v10.39h-.95v-1.45a3.2,3.2,0,0,1-2.84,1.52,3.75,3.75,0,0,1,0-7.49,3.21,3.21,0,0,1,2.8,1.46v-4.43Zm-1,6.71a2.74,2.74,0,1,0-2.73,2.87A2.7,2.7,0,0,0,953.3,261.85Z"/>
      <path class="cls-63" d="M963.47,262.16H957.3a2.72,2.72,0,0,0,2.9,2.56,2.89,2.89,0,0,0,2.26-1l.56.65a3.9,3.9,0,0,1-6.71-2.55,3.59,3.59,0,1,1,7.17,0C963.48,261.93,963.47,262,963.47,262.16Zm-6.17-.75h5.23a2.62,2.62,0,0,0-5.23,0Z"/>
      <path class="cls-63" d="M969.22,258.11v1l-.24,0c-1.54,0-2.48,1-2.48,2.72v3.75h-1v-7.37h1v1.45A2.78,2.78,0,0,1,969.22,258.11Z"/>
      <path class="cls-63" d="M970.57,261.3h3.67v.87h-3.67Z"/>
      <path class="cls-63" d="M867.84,281.49l.45-.78a4.46,4.46,0,0,0,2.62.82c1.4,0,2-.47,2-1.2,0-1.92-4.77-.41-4.77-3.32,0-1.2,1-2.1,2.91-2.1a4.94,4.94,0,0,1,2.61.69l-.44.79a3.74,3.74,0,0,0-2.17-.63c-1.33,0-1.92.52-1.92,1.22,0,2,4.78.49,4.78,3.32,0,1.28-1.12,2.1-3,2.1A4.91,4.91,0,0,1,867.84,281.49Z"/>
      <path class="cls-63" d="M882.49,278.06v4.27h-1v-4.17a2.06,2.06,0,0,0-2.22-2.35,2.41,2.41,0,0,0-2.57,2.66v3.86h-1V271.94h1v4.31a3.1,3.1,0,0,1,2.75-1.34A2.82,2.82,0,0,1,882.49,278.06Z"/>
      <path class="cls-63" d="M885,272.64a.72.72,0,0,1,.73-.7.71.71,0,1,1,0,1.41A.72.72,0,0,1,885,272.64Zm.23,2.32h1v7.37h-1Z"/>
      <path class="cls-63" d="M896.42,278.65a3.57,3.57,0,0,1-3.67,3.75A3.22,3.22,0,0,1,890,281v4.1h-1V275h1v1.46a3.2,3.2,0,0,1,2.84-1.51A3.56,3.56,0,0,1,896.42,278.65Zm-1,0a2.75,2.75,0,1,0-2.75,2.87A2.71,2.71,0,0,0,895.43,278.65Z"/>
      <path class="cls-63" d="M907.68,277.77v4.56h-1v-1.15a2.75,2.75,0,0,1-2.53,1.22c-1.67,0-2.69-.87-2.69-2.14s.73-2.09,2.84-2.09h2.34v-.45c0-1.26-.71-1.94-2.09-1.94a3.78,3.78,0,0,0-2.45.86l-.45-.74a4.7,4.7,0,0,1,3-1C906.6,274.91,907.68,275.86,907.68,277.77Zm-1,2.35v-1.21h-2.31c-1.43,0-1.89.56-1.89,1.32s.69,1.39,1.86,1.39A2.35,2.35,0,0,0,906.68,280.12Z"/>
      <path class="cls-63" d="M917.15,278.06v4.27h-1v-4.17a2.05,2.05,0,0,0-2.21-2.35,2.41,2.41,0,0,0-2.58,2.66v3.86h-1V275h1v1.36a3.1,3.1,0,0,1,2.8-1.41A2.81,2.81,0,0,1,917.15,278.06Z"/>
      <path class="cls-63" d="M926.6,271.94v10.39h-1v-1.45a3.19,3.19,0,0,1-2.84,1.52,3.75,3.75,0,0,1,0-7.49,3.21,3.21,0,0,1,2.8,1.46v-4.43Zm-1,6.71a2.74,2.74,0,1,0-2.73,2.87A2.69,2.69,0,0,0,925.62,278.65Z"/>
      <path class="cls-63" d="M939.68,275v7.37h-.95V281a2.94,2.94,0,0,1-2.65,1.41,2.85,2.85,0,0,1-3.11-3.16V275h1v4.18a2.07,2.07,0,0,0,2.22,2.37,2.39,2.39,0,0,0,2.5-2.68V275Z"/>
      <path class="cls-63" d="M949.93,278.65a3.57,3.57,0,0,1-3.67,3.75,3.2,3.2,0,0,1-2.8-1.45v4.1h-1V275h.95v1.46a3.23,3.23,0,0,1,2.85-1.51A3.56,3.56,0,0,1,949.93,278.65Zm-1,0a2.75,2.75,0,1,0-2.74,2.87A2.71,2.71,0,0,0,948.93,278.65Z"/>
      <path class="cls-63" d="M958.68,271.94v10.39h-1v-1.45a3.19,3.19,0,0,1-2.84,1.52,3.75,3.75,0,0,1,0-7.49,3.19,3.19,0,0,1,2.8,1.46v-4.43Zm-1,6.71a2.74,2.74,0,1,0-2.73,2.87A2.7,2.7,0,0,0,957.7,278.65Z"/>
      <path class="cls-63" d="M967,277.77v4.56h-1v-1.15a2.74,2.74,0,0,1-2.53,1.22c-1.67,0-2.69-.87-2.69-2.14s.73-2.09,2.84-2.09H966v-.45c0-1.26-.71-1.94-2.09-1.94a3.78,3.78,0,0,0-2.45.86l-.45-.74a4.7,4.7,0,0,1,3-1C965.93,274.91,967,275.86,967,277.77Zm-1,2.35v-1.21H963.7c-1.43,0-1.89.56-1.89,1.32s.69,1.39,1.86,1.39A2.35,2.35,0,0,0,966,280.12Z"/>
      <path class="cls-63" d="M973.59,281.88a2.41,2.41,0,0,1-1.56.52,2,2,0,0,1-2.16-2.14v-4.45h-1.31V275h1.31v-1.61h1V275h2.24v.85h-2.24v4.39a1.18,1.18,0,0,0,1.27,1.35,1.64,1.64,0,0,0,1.09-.38Z"/>
      <path class="cls-63" d="M981.54,279h-6.16a2.72,2.72,0,0,0,2.9,2.56,2.89,2.89,0,0,0,2.25-1l.56.65a3.9,3.9,0,0,1-6.71-2.55,3.55,3.55,0,0,1,3.6-3.74,3.51,3.51,0,0,1,3.57,3.74C981.55,278.73,981.54,278.84,981.54,279Zm-6.16-.75h5.22a2.62,2.62,0,0,0-5.22,0Z"/>
      <path class="cls-63" d="M872.74,298.68a2.36,2.36,0,0,1-1.55.52,2,2,0,0,1-2.16-2.14V292.6h-1.31v-.84H869v-1.61h1v1.61h2.24v.84H870V297a1.18,1.18,0,0,0,1.27,1.35,1.64,1.64,0,0,0,1.09-.38Z"/>
      <path class="cls-63" d="M881.33,294.86v4.27h-1V295a2.06,2.06,0,0,0-2.21-2.36,2.43,2.43,0,0,0-2.58,2.67v3.86h-1V288.74h1v4.31a3.13,3.13,0,0,1,2.76-1.34A2.82,2.82,0,0,1,881.33,294.86Z"/>
      <path class="cls-63" d="M890.47,295.76h-6.16a2.72,2.72,0,0,0,2.9,2.56,2.89,2.89,0,0,0,2.25-1l.56.65a3.9,3.9,0,0,1-6.71-2.55,3.55,3.55,0,0,1,3.6-3.74,3.5,3.5,0,0,1,3.57,3.74C890.48,295.53,890.47,295.64,890.47,295.76Zm-6.16-.75h5.22a2.62,2.62,0,0,0-5.22,0Z"/>
      <path class="cls-63" d="M895.44,295.45a3.75,3.75,0,1,1,3.75,3.75A3.62,3.62,0,0,1,895.44,295.45Zm6.48,0a2.74,2.74,0,1,0-2.73,2.87A2.68,2.68,0,0,0,901.92,295.45Z"/>
      <path class="cls-63" d="M908.84,298.68a2.39,2.39,0,0,1-1.56.52,2,2,0,0,1-2.16-2.14V292.6h-1.31v-.84h1.31v-1.61h1v1.61h2.24v.84h-2.24V297a1.18,1.18,0,0,0,1.27,1.35,1.67,1.67,0,0,0,1.1-.38Z"/>
      <path class="cls-63" d="M917.42,294.86v4.27h-1V295a2.07,2.07,0,0,0-2.22-2.36,2.42,2.42,0,0,0-2.57,2.67v3.86h-1V288.74h1v4.31a3.1,3.1,0,0,1,2.75-1.34A2.82,2.82,0,0,1,917.42,294.86Z"/>
      <path class="cls-63" d="M926.56,295.76H920.4a2.72,2.72,0,0,0,2.9,2.56,2.87,2.87,0,0,0,2.25-1l.56.65a3.9,3.9,0,0,1-6.71-2.55,3.55,3.55,0,0,1,3.6-3.74,3.51,3.51,0,0,1,3.58,3.74C926.58,295.53,926.56,295.64,926.56,295.76ZM920.4,295h5.22a2.62,2.62,0,0,0-5.22,0Z"/>
      <path class="cls-63" d="M932.31,291.71v1l-.23,0c-1.54,0-2.48,1-2.48,2.72v3.75h-1v-7.37h1v1.45A2.77,2.77,0,0,1,932.31,291.71Z"/>
      <path class="cls-63" d="M944.71,291.76v6.48c0,2.53-1.25,3.68-3.69,3.68a5.18,5.18,0,0,1-3.43-1.13l.5-.76a4.42,4.42,0,0,0,2.9,1c1.87,0,2.72-.86,2.72-2.68v-.94a3.31,3.31,0,0,1-2.87,1.43,3.57,3.57,0,1,1,0-7.14,3.31,3.31,0,0,1,2.91,1.47v-1.42Zm-1,3.51a2.8,2.8,0,1,0-2.8,2.7A2.63,2.63,0,0,0,943.74,295.27Z"/>
      <path class="cls-63" d="M951.2,291.71v1l-.24,0c-1.54,0-2.48,1-2.48,2.72v3.75h-1v-7.37h1v1.45A2.78,2.78,0,0,1,951.2,291.71Z"/>
      <path class="cls-63" d="M958.54,294.57v4.56h-1V298a2.74,2.74,0,0,1-2.53,1.22c-1.67,0-2.69-.87-2.69-2.14s.73-2.09,2.84-2.09h2.34v-.45c0-1.26-.71-1.94-2.08-1.94a3.78,3.78,0,0,0-2.46.86l-.44-.74a4.66,4.66,0,0,1,3-1C957.46,291.71,958.54,292.66,958.54,294.57Zm-1,2.35v-1.21h-2.31c-1.43,0-1.89.56-1.89,1.32s.69,1.39,1.86,1.39A2.35,2.35,0,0,0,957.54,296.92Z"/>
      <path class="cls-63" d="M968.7,295.45A3.57,3.57,0,0,1,965,299.2a3.23,3.23,0,0,1-2.8-1.45v4.1h-1V291.76h1v1.46a3.2,3.2,0,0,1,2.84-1.51A3.56,3.56,0,0,1,968.7,295.45Zm-1,0a2.75,2.75,0,1,0-2.75,2.87A2.71,2.71,0,0,0,967.71,295.45Z"/>
      <path class="cls-63" d="M977.51,294.86v4.27h-1V295a2.06,2.06,0,0,0-2.21-2.36,2.43,2.43,0,0,0-2.58,2.67v3.86h-1V288.74h1v4.31a3.13,3.13,0,0,1,2.76-1.34A2.82,2.82,0,0,1,977.51,294.86Z"/>
      <path class="cls-63" d="M979.66,294.9h3.67v.87h-3.67Z"/>
      <path class="cls-63" d="M868.64,306.24a.72.72,0,0,1,.73-.7.71.71,0,0,1,.73.68.73.73,0,0,1-1.46,0Zm.22,2.32h1v7.37h-1Z"/>
      <path class="cls-63" d="M871.89,312.25a3.63,3.63,0,0,1,3.79-3.74,3.22,3.22,0,0,1,2.89,1.46l-.74.5a2.52,2.52,0,0,0-2.15-1.09,2.87,2.87,0,0,0,0,5.74,2.51,2.51,0,0,0,2.15-1.08l.74.51a3.25,3.25,0,0,1-2.89,1.45A3.63,3.63,0,0,1,871.89,312.25Z"/>
      <path class="cls-63" d="M879.49,315.09l.45-.78a4.46,4.46,0,0,0,2.62.82c1.4,0,2-.47,2-1.2,0-1.92-4.77-.41-4.77-3.32,0-1.21,1-2.1,2.91-2.1a5,5,0,0,1,2.61.68l-.44.8a3.74,3.74,0,0,0-2.17-.63c-1.33,0-1.92.52-1.92,1.22,0,2,4.78.49,4.78,3.32,0,1.28-1.12,2.1-3,2.1A4.91,4.91,0,0,1,879.49,315.09Z"/>
      <path class="cls-63" d="M886.71,315.23a.75.75,0,1,1,1.5,0,.75.75,0,1,1-1.5,0Z"/>
      <path class="cls-63" d="M893.34,311a4.92,4.92,0,0,1,5.14-5,4.74,4.74,0,0,1,3.58,1.43l-.66.66a3.87,3.87,0,0,0-2.9-1.16,4.06,4.06,0,1,0,0,8.12,3.84,3.84,0,0,0,2.9-1.17l.66.65a4.74,4.74,0,0,1-3.6,1.45A4.92,4.92,0,0,1,893.34,311Z"/>
      <path class="cls-63" d="M904.06,305.54h1v10.39h-1Z"/>
      <path class="cls-63" d="M907.6,306.24a.72.72,0,0,1,.73-.7.71.71,0,0,1,.73.68.73.73,0,0,1-1.46,0Zm.23,2.32h1v7.37h-1Z"/>
      <path class="cls-63" d="M910.85,312.25a3.63,3.63,0,0,1,3.8-3.74,3.21,3.21,0,0,1,2.88,1.46l-.74.5a2.5,2.5,0,0,0-2.14-1.09,2.87,2.87,0,0,0,0,5.74,2.49,2.49,0,0,0,2.14-1.08l.74.51a3.25,3.25,0,0,1-2.88,1.45A3.64,3.64,0,0,1,910.85,312.25Z"/>
      <path class="cls-63" d="M922.09,312.23l-1.73,1.6v2.1h-1V305.54h1v7l4.4-4H926l-3.15,3,3.44,4.35h-1.22Z"/>
      <path class="cls-63" d="M927.44,306.24a.72.72,0,0,1,.73-.7.71.71,0,0,1,.73.68.73.73,0,0,1-1.46,0Zm.22,2.32h1v7.37h-1Z"/>
      <path class="cls-63" d="M938.21,311.66v4.27h-1v-4.17A2.07,2.07,0,0,0,935,309.4a2.42,2.42,0,0,0-2.57,2.67v3.86h-1v-7.37h1v1.36a3.12,3.12,0,0,1,2.8-1.41A2.82,2.82,0,0,1,938.21,311.66Z"/>
      <path class="cls-63" d="M947.76,308.56V315c0,2.53-1.25,3.68-3.69,3.68a5.18,5.18,0,0,1-3.43-1.13l.51-.76a4.38,4.38,0,0,0,2.9,1c1.86,0,2.71-.86,2.71-2.68v-.94a3.3,3.3,0,0,1-2.87,1.43,3.57,3.57,0,1,1,0-7.14,3.32,3.32,0,0,1,2.92,1.47v-1.42Zm-1,3.51a2.8,2.8,0,1,0-2.8,2.7A2.63,2.63,0,0,0,946.79,312.07Z"/>
      <path class="cls-63" d="M958.09,315.48a2.37,2.37,0,0,1-1.56.52,2,2,0,0,1-2.15-2.14V309.4h-1.32v-.84h1.32V307h1v1.61h2.24v.84h-2.24v4.4a1.19,1.19,0,0,0,1.28,1.35,1.66,1.66,0,0,0,1.09-.38Z"/>
      <path class="cls-63" d="M966.67,311.66v4.27h-1v-4.17a2.06,2.06,0,0,0-2.22-2.36,2.42,2.42,0,0,0-2.57,2.67v3.86h-1V305.54h1v4.31a3.11,3.11,0,0,1,2.76-1.34A2.81,2.81,0,0,1,966.67,311.66Z"/>
      <path class="cls-63" d="M975.81,312.56h-6.16a2.72,2.72,0,0,0,2.9,2.56,2.89,2.89,0,0,0,2.26-1l.56.65a3.9,3.9,0,0,1-6.71-2.55,3.59,3.59,0,1,1,7.17,0C975.83,312.33,975.81,312.44,975.81,312.56Zm-6.16-.75h5.23a2.62,2.62,0,0,0-5.23,0Z"/>
      <path class="cls-63" d="M867.84,331.89l.45-.78a4.46,4.46,0,0,0,2.62.82c1.4,0,2-.47,2-1.2,0-1.92-4.77-.41-4.77-3.32,0-1.2,1-2.1,2.91-2.1a4.94,4.94,0,0,1,2.61.69l-.44.79a3.82,3.82,0,0,0-2.17-.63c-1.33,0-1.92.52-1.92,1.22,0,2,4.78.49,4.78,3.32,0,1.28-1.12,2.1-3,2.1A4.91,4.91,0,0,1,867.84,331.89Z"/>
      <path class="cls-63" d="M882.13,329.36H876a2.73,2.73,0,0,0,2.9,2.56,2.89,2.89,0,0,0,2.26-1l.56.65a3.9,3.9,0,0,1-6.71-2.55,3.59,3.59,0,1,1,7.17,0C882.14,329.13,882.13,329.24,882.13,329.36Zm-6.17-.75h5.23a2.62,2.62,0,0,0-5.23,0Z"/>
      <path class="cls-63" d="M884.17,322.34h1v10.39h-1Z"/>
      <path class="cls-63" d="M894.35,329.36h-6.17a2.73,2.73,0,0,0,2.9,2.56,2.89,2.89,0,0,0,2.26-1l.56.65a3.9,3.9,0,0,1-6.71-2.55,3.59,3.59,0,1,1,7.17,0C894.36,329.13,894.35,329.24,894.35,329.36Zm-6.17-.75h5.23a2.62,2.62,0,0,0-5.23,0Z"/>
      <path class="cls-63" d="M895.65,329.05a3.62,3.62,0,0,1,3.79-3.74,3.22,3.22,0,0,1,2.89,1.46l-.74.5a2.52,2.52,0,0,0-2.15-1.09,2.87,2.87,0,0,0,0,5.74,2.51,2.51,0,0,0,2.15-1.08l.74.51a3.25,3.25,0,0,1-2.89,1.45A3.63,3.63,0,0,1,895.65,329.05Z"/>
      <path class="cls-63" d="M908.23,332.28a2.31,2.31,0,0,1-1.55.52,2,2,0,0,1-2.16-2.14v-4.45h-1.31v-.85h1.31v-1.61h1v1.61h2.24v.85h-2.24v4.39a1.18,1.18,0,0,0,1.27,1.35,1.64,1.64,0,0,0,1.09-.38Z"/>
      <path class="cls-63" d="M916.19,329.36H910a2.73,2.73,0,0,0,2.9,2.56,2.89,2.89,0,0,0,2.26-1l.56.65a3.9,3.9,0,0,1-6.71-2.55,3.59,3.59,0,1,1,7.17,0C916.2,329.13,916.19,329.24,916.19,329.36Zm-6.17-.75h5.23a2.62,2.62,0,0,0-5.23,0Z"/>
      <path class="cls-63" d="M925,322.34v10.39h-1v-1.45a3.19,3.19,0,0,1-2.84,1.52,3.75,3.75,0,0,1,0-7.49,3.21,3.21,0,0,1,2.8,1.46v-4.43Zm-1,6.71a2.74,2.74,0,1,0-2.73,2.87A2.69,2.69,0,0,0,924,329.05Z"/>
      <path class="cls-63" d="M930.65,329.05a3.62,3.62,0,0,1,3.79-3.74,3.22,3.22,0,0,1,2.89,1.46l-.74.5a2.52,2.52,0,0,0-2.15-1.09,2.87,2.87,0,0,0,0,5.74,2.51,2.51,0,0,0,2.15-1.08l.74.51a3.25,3.25,0,0,1-2.89,1.45A3.63,3.63,0,0,1,930.65,329.05Z"/>
      <path class="cls-63" d="M944.83,328.17v4.56h-1v-1.15a2.77,2.77,0,0,1-2.54,1.22c-1.66,0-2.69-.87-2.69-2.14s.73-2.09,2.85-2.09h2.34v-.45c0-1.26-.72-1.94-2.09-1.94a3.71,3.71,0,0,0-2.45.87l-.45-.75a4.67,4.67,0,0,1,3-1C943.75,325.31,944.83,326.26,944.83,328.17Zm-1,2.35v-1.21h-2.31c-1.43,0-1.9.57-1.9,1.32s.69,1.39,1.87,1.39A2.36,2.36,0,0,0,943.84,330.52Z"/>
      <path class="cls-63" d="M951.41,332.28a2.31,2.31,0,0,1-1.55.52,2,2,0,0,1-2.16-2.14v-4.45h-1.32v-.85h1.32v-1.61h1v1.61h2.24v.85h-2.24v4.39A1.19,1.19,0,0,0,950,332a1.66,1.66,0,0,0,1.09-.38Z"/>
      <path class="cls-63" d="M959.36,329.36H953.2a2.72,2.72,0,0,0,2.9,2.56,2.89,2.89,0,0,0,2.26-1l.56.65a3.9,3.9,0,0,1-6.71-2.55,3.59,3.59,0,1,1,7.17,0C959.38,329.13,959.36,329.24,959.36,329.36Zm-6.16-.75h5.23a2.62,2.62,0,0,0-5.23,0Z"/>
      <path class="cls-63" d="M968.23,325.36v6.48c0,2.53-1.25,3.68-3.69,3.68a5.18,5.18,0,0,1-3.43-1.13l.5-.76a4.42,4.42,0,0,0,2.9,1c1.87,0,2.72-.86,2.72-2.68V331a3.31,3.31,0,0,1-2.87,1.43,3.57,3.57,0,1,1,0-7.14,3.31,3.31,0,0,1,2.91,1.47v-1.42Zm-1,3.51a2.8,2.8,0,1,0-2.8,2.7A2.63,2.63,0,0,0,967.26,328.87Z"/>
      <path class="cls-63" d="M970.27,329.05A3.75,3.75,0,1,1,974,332.8,3.62,3.62,0,0,1,970.27,329.05Zm6.48,0a2.74,2.74,0,1,0-2.73,2.87A2.69,2.69,0,0,0,976.75,329.05Z"/>
      <path class="cls-63" d="M983.5,325.31v1l-.24,0c-1.54,0-2.48,1-2.48,2.72v3.75h-1v-7.37h1v1.45A2.78,2.78,0,0,1,983.5,325.31Z"/>
      <path class="cls-63" d="M991.8,325.36l-3.68,8.26c-.62,1.44-1.4,1.9-2.45,1.9a2.53,2.53,0,0,1-1.8-.67l.47-.74a1.84,1.84,0,0,0,1.34.56c.66,0,1.11-.31,1.53-1.24l.32-.71-3.29-7.36h1l2.78,6.27,2.77-6.27Z"/>
      <path class="cls-63" d="M868.64,339.84a.72.72,0,0,1,.73-.7.71.71,0,1,1,0,1.41A.72.72,0,0,1,868.64,339.84Zm.22,2.32h1v7.37h-1Z"/>
      <path class="cls-63" d="M879.41,345.26v4.27h-1v-4.17A2.06,2.06,0,0,0,876.2,343a2.41,2.41,0,0,0-2.57,2.66v3.86h-1v-7.37h1v1.36a3.12,3.12,0,0,1,2.8-1.41A2.82,2.82,0,0,1,879.41,345.26Z"/>
      <path class="cls-63" d="M889.66,349.08a2.39,2.39,0,0,1-1.56.52,2,2,0,0,1-2.16-2.14V343h-1.31v-.85h1.31v-1.61h1v1.61h2.24V343h-2.24v4.39a1.18,1.18,0,0,0,1.27,1.35,1.67,1.67,0,0,0,1.1-.38Z"/>
      <path class="cls-63" d="M898.24,345.26v4.27h-1v-4.17A2.06,2.06,0,0,0,895,343a2.41,2.41,0,0,0-2.57,2.66v3.86h-1V339.14h1v4.31a3.1,3.1,0,0,1,2.75-1.34A2.82,2.82,0,0,1,898.24,345.26Z"/>
      <path class="cls-63" d="M907.38,346.16h-6.16a2.72,2.72,0,0,0,2.9,2.56,2.87,2.87,0,0,0,2.25-1l.56.65a3.9,3.9,0,0,1-6.71-2.55,3.59,3.59,0,1,1,7.18,0C907.4,345.93,907.38,346,907.38,346.16Zm-6.16-.75h5.22a2.62,2.62,0,0,0-5.22,0Z"/>
      <path class="cls-63" d="M913.09,339.14h1v10.39h-1Z"/>
      <path class="cls-63" d="M923.27,346.16h-6.16a2.72,2.72,0,0,0,2.9,2.56,2.87,2.87,0,0,0,2.25-1l.56.65a3.9,3.9,0,0,1-6.71-2.55,3.59,3.59,0,1,1,7.18,0C923.29,345.93,923.27,346,923.27,346.16Zm-6.16-.75h5.22a2.62,2.62,0,0,0-5.22,0Z"/>
      <path class="cls-63" d="M932.13,342.16v6.48c0,2.53-1.24,3.68-3.68,3.68a5.18,5.18,0,0,1-3.43-1.13l.5-.76a4.4,4.4,0,0,0,2.9,1c1.87,0,2.72-.86,2.72-2.68v-.94a3.32,3.32,0,0,1-2.87,1.43,3.57,3.57,0,1,1,0-7.14,3.31,3.31,0,0,1,2.91,1.47v-1.42Zm-1,3.51a2.8,2.8,0,1,0-2.8,2.7A2.63,2.63,0,0,0,931.17,345.67Z"/>
      <path class="cls-63" d="M941.33,346.16h-6.16a2.72,2.72,0,0,0,2.9,2.56,2.87,2.87,0,0,0,2.25-1l.56.65a3.9,3.9,0,0,1-6.71-2.55,3.59,3.59,0,1,1,7.18,0C941.35,345.93,941.33,346,941.33,346.16Zm-6.16-.75h5.22a2.62,2.62,0,0,0-5.22,0Z"/>
      <path class="cls-63" d="M950.15,345.26v4.27h-1v-4.17a2.05,2.05,0,0,0-2.22-2.35,2.41,2.41,0,0,0-2.57,2.66v3.86h-1v-7.37h1v1.36a3.1,3.1,0,0,1,2.8-1.41A2.81,2.81,0,0,1,950.15,345.26Z"/>
      <path class="cls-63" d="M959.6,339.14v10.39h-1v-1.45a3.19,3.19,0,0,1-2.84,1.52,3.75,3.75,0,0,1,0-7.49,3.21,3.21,0,0,1,2.8,1.46v-4.43Zm-1,6.71a2.74,2.74,0,1,0-2.73,2.87A2.69,2.69,0,0,0,958.62,345.85Z"/>
      <path class="cls-63" d="M874.43,361.77v4.56h-1v-1.15a2.75,2.75,0,0,1-2.53,1.22c-1.67,0-2.69-.87-2.69-2.14s.73-2.09,2.84-2.09h2.34v-.45c0-1.26-.71-1.94-2.09-1.94a3.78,3.78,0,0,0-2.45.86l-.45-.74a4.7,4.7,0,0,1,3-1C873.35,358.91,874.43,359.86,874.43,361.77Zm-1,2.35v-1.21h-2.31c-1.43,0-1.89.56-1.89,1.32s.69,1.39,1.86,1.39A2.35,2.35,0,0,0,873.43,364.12Z"/>
      <path class="cls-63" d="M884,359v6.48c0,2.53-1.24,3.68-3.68,3.68a5.18,5.18,0,0,1-3.43-1.13l.5-.76a4.4,4.4,0,0,0,2.9,1c1.86,0,2.72-.86,2.72-2.68v-.94a3.32,3.32,0,0,1-2.87,1.43,3.57,3.57,0,1,1,0-7.14,3.31,3.31,0,0,1,2.91,1.47V359Zm-1,3.51a2.8,2.8,0,1,0-2.8,2.7A2.63,2.63,0,0,0,883,362.47Z"/>
      <path class="cls-63" d="M892.32,361.77v4.56h-1v-1.15a2.74,2.74,0,0,1-2.53,1.22c-1.67,0-2.69-.87-2.69-2.14s.73-2.09,2.84-2.09h2.34v-.45c0-1.26-.71-1.94-2.08-1.94a3.78,3.78,0,0,0-2.46.86l-.44-.74a4.66,4.66,0,0,1,3-1C891.24,358.91,892.32,359.86,892.32,361.77Zm-1,2.35v-1.21H889c-1.43,0-1.89.56-1.89,1.32s.69,1.39,1.86,1.39A2.35,2.35,0,0,0,891.32,364.12Z"/>
      <path class="cls-63" d="M894.79,356.64a.72.72,0,0,1,.73-.7.71.71,0,1,1,0,1.41A.72.72,0,0,1,894.79,356.64ZM895,359h1v7.37h-1Z"/>
      <path class="cls-63" d="M905.56,362.06v4.27h-1v-4.17a2.06,2.06,0,0,0-2.22-2.35,2.41,2.41,0,0,0-2.57,2.66v3.86h-1V359h1v1.36a3.12,3.12,0,0,1,2.81-1.41A2.81,2.81,0,0,1,905.56,362.06Z"/>
      <path class="cls-63" d="M922.74,359,920,366.33H919l-2.33-6-2.32,6h-.94L910.65,359h1l2.31,6.27,2.36-6.27h.86l2.35,6.27,2.34-6.27Z"/>
      <path class="cls-63" d="M923.28,362.65A3.75,3.75,0,1,1,927,366.4,3.62,3.62,0,0,1,923.28,362.65Zm6.49,0a2.74,2.74,0,1,0-2.73,2.87A2.69,2.69,0,0,0,929.77,362.65Z"/>
      <path class="cls-63" d="M939.44,359v7.37h-1V365a2.94,2.94,0,0,1-2.65,1.41,2.85,2.85,0,0,1-3.11-3.16V359h1v4.18c0,1.57.81,2.37,2.21,2.37a2.4,2.4,0,0,0,2.51-2.68V359Z"/>
      <path class="cls-63" d="M942.22,355.94h1v10.39h-1Z"/>
      <path class="cls-63" d="M952.71,355.94v10.39h-1v-1.45a3.19,3.19,0,0,1-2.84,1.52,3.75,3.75,0,0,1,0-7.49,3.21,3.21,0,0,1,2.8,1.46v-4.43Zm-1,6.71a2.74,2.74,0,1,0-2.73,2.87A2.69,2.69,0,0,0,951.73,362.65Z"/>
      <path class="cls-63" d="M962.86,358.91v1l-.24,0c-1.54,0-2.48,1-2.48,2.72v3.75h-1V359h1v1.45A2.78,2.78,0,0,1,962.86,358.91Z"/>
      <path class="cls-63" d="M971,363h-6.17a2.73,2.73,0,0,0,2.9,2.56,2.89,2.89,0,0,0,2.26-1l.56.65a3.9,3.9,0,0,1-6.71-2.55,3.55,3.55,0,0,1,3.6-3.74,3.51,3.51,0,0,1,3.57,3.74C971,362.73,971,362.84,971,363Zm-6.17-.75h5.23a2.62,2.62,0,0,0-5.23,0Z"/>
      <path class="cls-63" d="M972,365.49l.44-.78a4.49,4.49,0,0,0,2.62.82c1.4,0,2-.47,2-1.2,0-1.92-4.78-.41-4.78-3.32,0-1.2,1-2.1,2.92-2.1a4.9,4.9,0,0,1,2.6.69l-.43.79a3.79,3.79,0,0,0-2.17-.63c-1.34,0-1.92.52-1.92,1.22,0,2,4.77.49,4.77,3.32,0,1.28-1.12,2.1-3,2.1A4.88,4.88,0,0,1,972,365.49Z"/>
      <path class="cls-63" d="M986.3,363h-6.16a2.72,2.72,0,0,0,2.9,2.56,2.89,2.89,0,0,0,2.25-1l.56.65a3.9,3.9,0,0,1-6.71-2.55,3.55,3.55,0,0,1,3.6-3.74,3.51,3.51,0,0,1,3.57,3.74C986.31,362.73,986.3,362.84,986.3,363Zm-6.16-.75h5.22a2.62,2.62,0,0,0-5.22,0Z"/>
      <path class="cls-63" d="M992.22,365.88a2.36,2.36,0,0,1-1.55.52,2,2,0,0,1-2.16-2.14v-4.45h-1.32V359h1.32v-1.61h1V359h2.24v.85H989.5v4.39a1.19,1.19,0,0,0,1.28,1.35,1.66,1.66,0,0,0,1.09-.38Z"/>
      <path class="cls-63" d="M872.74,382.68a2.36,2.36,0,0,1-1.55.52,2,2,0,0,1-2.16-2.14V376.6h-1.31v-.84H869v-1.61h1v1.61h2.24v.84H870V381a1.18,1.18,0,0,0,1.27,1.35,1.64,1.64,0,0,0,1.09-.38Z"/>
      <path class="cls-63" d="M881.33,378.86v4.27h-1V379a2.06,2.06,0,0,0-2.21-2.36,2.43,2.43,0,0,0-2.58,2.67v3.86h-1V372.74h1v4.31a3.13,3.13,0,0,1,2.76-1.34A2.82,2.82,0,0,1,881.33,378.86Z"/>
      <path class="cls-63" d="M890.47,379.76h-6.16a2.72,2.72,0,0,0,2.9,2.56,2.89,2.89,0,0,0,2.25-1l.56.65a3.9,3.9,0,0,1-6.71-2.55,3.55,3.55,0,0,1,3.6-3.74,3.5,3.5,0,0,1,3.57,3.74C890.48,379.53,890.47,379.64,890.47,379.76Zm-6.16-.75h5.22a2.62,2.62,0,0,0-5.22,0Z"/>
      <path class="cls-63" d="M903,375.76v6.48c0,2.53-1.25,3.68-3.68,3.68a5.19,5.19,0,0,1-3.44-1.13l.51-.76a4.38,4.38,0,0,0,2.9,1c1.86,0,2.72-.86,2.72-2.68v-.94a3.33,3.33,0,0,1-2.88,1.43,3.57,3.57,0,1,1,0-7.14,3.32,3.32,0,0,1,2.92,1.47v-1.42Zm-1,3.51a2.8,2.8,0,1,0-2.8,2.7A2.63,2.63,0,0,0,902,379.27Z"/>
      <path class="cls-63" d="M909.49,375.71v1l-.23,0c-1.54,0-2.48,1-2.48,2.72v3.75h-1v-7.37h1v1.45A2.77,2.77,0,0,1,909.49,375.71Z"/>
      <path class="cls-63" d="M916.83,378.57v4.56h-1V382a2.77,2.77,0,0,1-2.54,1.22c-1.66,0-2.69-.87-2.69-2.14s.73-2.09,2.85-2.09h2.34v-.45c0-1.26-.72-1.94-2.09-1.94a3.76,3.76,0,0,0-2.45.86l-.45-.74a4.68,4.68,0,0,1,3-1C915.75,375.71,916.83,376.66,916.83,378.57Zm-1,2.35v-1.21h-2.31c-1.43,0-1.89.56-1.89,1.32s.68,1.39,1.86,1.39A2.35,2.35,0,0,0,915.84,380.92Z"/>
      <path class="cls-63" d="M927,379.45a3.57,3.57,0,0,1-3.67,3.75,3.2,3.2,0,0,1-2.8-1.45v4.1h-1V375.76h1v1.46a3.23,3.23,0,0,1,2.85-1.51A3.56,3.56,0,0,1,927,379.45Zm-1,0a2.75,2.75,0,1,0-2.74,2.87A2.71,2.71,0,0,0,926,379.45Z"/>
      <path class="cls-63" d="M935.8,378.86v4.27h-1V379a2.06,2.06,0,0,0-2.22-2.36,2.42,2.42,0,0,0-2.57,2.67v3.86h-1V372.74h1v4.31a3.11,3.11,0,0,1,2.76-1.34A2.81,2.81,0,0,1,935.8,378.86Z"/>
      <path class="cls-63" d="M947.73,378.57v4.56h-1V382a2.77,2.77,0,0,1-2.54,1.22c-1.67,0-2.69-.87-2.69-2.14s.73-2.09,2.85-2.09h2.33v-.45c0-1.26-.71-1.94-2.08-1.94a3.76,3.76,0,0,0-2.45.86l-.45-.74a4.67,4.67,0,0,1,3-1C946.65,375.71,947.73,376.66,947.73,378.57Zm-1,2.35v-1.21h-2.31c-1.42,0-1.89.56-1.89,1.32s.69,1.39,1.87,1.39A2.34,2.34,0,0,0,946.73,380.92Z"/>
      <path class="cls-63" d="M957.21,378.86v4.27h-1V379A2.06,2.06,0,0,0,954,376.6a2.43,2.43,0,0,0-2.58,2.67v3.86h-1v-7.37h1v1.36a3.11,3.11,0,0,1,2.8-1.41A2.82,2.82,0,0,1,957.21,378.86Z"/>
      <path class="cls-63" d="M966.66,372.74v10.39h-1v-1.45a3.19,3.19,0,0,1-2.84,1.52,3.75,3.75,0,0,1,0-7.49,3.19,3.19,0,0,1,2.8,1.46v-4.43Zm-1,6.71a2.74,2.74,0,1,0-2.73,2.87A2.69,2.69,0,0,0,965.68,379.45Z"/>
      <path class="cls-63" d="M871.26,389.47a2.31,2.31,0,0,1,1.47.46l-.34.74a1.66,1.66,0,0,0-1.09-.36c-.85,0-1.3.48-1.3,1.39v.86h2.27v.84H870v6.53h-1V393.4h-1.31v-.84H869v-.91A2,2,0,0,1,871.26,389.47Zm4.71.75a.73.73,0,1,1-.73-.68A.72.72,0,0,1,876,390.22Zm-1.24,2.34h1v7.37h-1Z"/>
      <path class="cls-63" d="M878.5,389.54h1v10.39h-1Z"/>
      <path class="cls-63" d="M886.17,399.48a2.36,2.36,0,0,1-1.55.52,2,2,0,0,1-2.16-2.14V393.4h-1.32v-.84h1.32V391h1v1.61h2.24v.84h-2.24v4.4a1.19,1.19,0,0,0,1.28,1.35,1.66,1.66,0,0,0,1.09-.38Z"/>
      <path class="cls-63" d="M894.12,396.56H888a2.72,2.72,0,0,0,2.9,2.56,2.89,2.89,0,0,0,2.26-1l.56.65a3.9,3.9,0,0,1-6.71-2.55,3.59,3.59,0,1,1,7.17,0C894.14,396.33,894.12,396.44,894.12,396.56Zm-6.16-.75h5.23a2.62,2.62,0,0,0-5.23,0Z"/>
      <path class="cls-63" d="M899.88,392.51v1h-.24c-1.54,0-2.48,1-2.48,2.72v3.75h-1v-7.37h1V394A2.78,2.78,0,0,1,899.88,392.51Z"/>
      <path class="cls-63" d="M900.7,399.09l.45-.78a4.46,4.46,0,0,0,2.62.82c1.4,0,2-.47,2-1.2,0-1.92-4.77-.41-4.77-3.32,0-1.21,1-2.1,2.91-2.1a5,5,0,0,1,2.61.68l-.44.8a3.74,3.74,0,0,0-2.17-.63c-1.33,0-1.92.52-1.92,1.22,0,2,4.78.49,4.78,3.32,0,1.28-1.12,2.1-3,2.1A4.91,4.91,0,0,1,900.7,399.09Z"/>
      <path class="cls-63" d="M907.92,399.23a.75.75,0,1,1,1.5,0,.75.75,0,1,1-1.5,0Z"/>
    </g>
    <g>
      <text class="cls-20" transform="translate(176.56 472.75)"><tspan class="cls-64">T</tspan><tspan x="8.44" y="0">otal Daily Ride</tspan><tspan class="cls-65" x="122.08" y="0">r</tspan><tspan x="128.52" y="0">ship</tspan></text>
      <text class="cls-66" transform="translate(49.48 643.51) rotate(-90)"><tspan class="cls-67">T</tspan><tspan x="6.23" y="0">otal daily </tspan><tspan class="cls-68" x="63.4" y="0">r</tspan><tspan x="68.11" y="0">ide</tspan><tspan class="cls-69" x="86.72" y="0">r</tspan><tspan x="91.49" y="0">ship</tspan></text>
      <polyline class="cls-70" points="73.76 499.15 96.15 495 118.54 503.29 142.6 502.68 163.33 503.29 185.72 495 208.11 501.55 229.56 497.94 252.89 495 275.29 499.15 297.68 495 321.1 502.89 342.85 505.56 364.85 507.43 387.25 503.29 409.65 502.68 432.02 507.43 454.42 503.29"/>
      <rect class="cls-71" x="153.78" y="486.15" width="46.34" height="199.19"/>
      <rect class="cls-72" x="309.65" y="486.15" width="46.34" height="199.19"/>
      <g>
        <line class="cls-73" x1="72.12" y1="486.15" x2="72.12" y2="685.34"/>
        <line class="cls-73" x1="71.06" y1="685.34" x2="454.41" y2="685.34"/>
      </g>
      <text class="cls-74" transform="translate(67.56 705.37) rotate(-45) scale(1.01 1)">1st</text>
      <text class="cls-74" transform="translate(430.82 709.84) rotate(-45) scale(1.01 1)">15th</text>
      <text class="cls-74" transform="translate(256.14 711.43) rotate(-45) scale(1.01 1)">8th</text>
      <text class="cls-74" transform="translate(243.8 727.66) scale(1.01 1)">Da<tspan class="cls-75" x="18.94" y="0">t</tspan><tspan x="24.11" y="0">e</tspan></text>
      <polyline class="cls-76" points="73.76 532.62 96.15 528.47 118.54 536.76 142.6 536.16 163.33 536.76 185.72 528.47 208.11 535.02 229.56 531.41 252.89 528.47 275.29 532.62 297.68 528.47 321.1 536.36 342.85 539.03 364.85 540.9 387.25 536.76 409.65 536.16 432.02 540.9 454.42 536.76"/>
      <polyline class="cls-77" points="73.76 495.56 96.15 491.41 118.54 499.7 142.6 499.09 163.33 499.7 185.72 491.41 208.11 497.96 229.56 494.35 252.89 491.41 275.29 495.56 297.68 491.41 321.1 499.3 342.85 501.97 364.85 503.84 387.25 499.7 409.65 499.09 432.02 503.84 454.42 499.7"/>
      <polyline class="cls-78" points="73.76 566.09 96.15 561.94 118.54 570.24 142.6 569.63 163.33 570.24 185.72 561.94 208.11 568.5 229.56 564.89 252.89 561.94 275.29 566.09 297.68 561.94 321.1 569.83 342.85 572.5 364.85 574.37 387.25 570.24 409.65 569.63 432.02 574.37 454.42 570.24"/>
    </g>
    <g>
      <g>
        <g>
          <line class="cls-79" x1="541.51" y1="493.22" x2="541.51" y2="692.41"/>
          <line class="cls-79" x1="540.6" y1="692.41" x2="871.44" y2="692.41"/>
        </g>
        <text class="cls-74" transform="translate(696.39 725.03) scale(1.01 1)">Hour</text>
        <text class="cls-66" transform="translate(518.43 639.64) rotate(-90)"><tspan class="cls-64">T</tspan><tspan x="6.23" y="0">otal daily </tspan><tspan class="cls-80" x="63.4" y="0">r</tspan><tspan x="68.11" y="0">ide</tspan><tspan class="cls-81" x="86.72" y="0">r</tspan><tspan x="91.49" y="0">ship</tspan></text>
        <text class="cls-20" transform="translate(614.12 472.75)"><tspan class="cls-21">A</tspan><tspan class="cls-22" x="11.07" y="0">v</tspan><tspan x="19.81" y="0">e</tspan><tspan class="cls-23" x="29.28" y="0">r</tspan><tspan class="cls-24" x="35.64" y="0">a</tspan><tspan class="cls-82" x="44.98" y="0">ge Hou</tspan><tspan class="cls-16" x="101.44" y="0">r</tspan><tspan x="107.85" y="0">ly Ride</tspan><tspan class="cls-25" x="160.96" y="0">r</tspan><tspan x="167.4" y="0">ship</tspan></text>
        <text class="cls-83" transform="translate(540.15 706.47)">0</text>
        <text class="cls-84" transform="translate(866.19 706.47)">2<tspan class="cls-85" x="6.54" y="0">4</tspan></text>
        <text class="cls-83" transform="translate(703.19 706.47)">12</text>
        <text class="cls-83" transform="translate(622.51 706.47)">6</text>
        <text class="cls-83" transform="translate(785 706.47)">18</text>
        <g>
          <polyline class="cls-86" points="543.05 676.94 557.22 677.73 571.39 676.81 585.56 677.2 599.74 669.8 613.9 665.57 628.08 575.97 642.25 483.21 656.42 627.51 670.59 630.26 684.76 661.87 698.94 634.17 713.1 644.69 727.28 651.3 741.45 651.06 755.62 636.02 769.79 521.78 783.96 506.18 798.13 521.6 812.3 600.84 826.48 665.39 840.64 667.45 854.82 674.16 868.99 675.38"/>
          <polyline class="cls-87" points="543.05 674.3 557.22 675.09 571.39 679.45 585.56 678.79 599.74 672.45 613.9 666.95 628.08 607.42 642.25 519.4 656.42 601.08 670.59 618.52 684.76 660.55 698.94 627.51 713.1 633.64 727.28 648.65 741.45 646.01 755.62 612.97 769.79 546.15 783.96 493.29 798.13 564.08 812.3 627.51 826.48 651.88 840.64 665.15 854.82 671.26 868.99 675.09"/>
          <polyline class="cls-88" points="543.05 675.62 557.22 676.41 571.39 676.28 585.56 678.32 599.74 673.9 613.9 671.26 628.08 651.46 642.25 577.08 656.42 559.05 670.59 579.7 684.76 625.03 698.94 633.09 713.1 627.78 727.28 617.2 741.45 646.28 755.62 646.54 769.79 572.16 783.96 519.4 798.13 545.63 812.3 556.49 826.48 668.03 840.64 668.59 854.82 671.52 868.99 672.74"/>
          <circle class="cls-89" cx="543.05" cy="674.3" r="1.26"/>
          <circle class="cls-89" cx="557.22" cy="675.09" r="1.26"/>
          <circle class="cls-89" cx="571.39" cy="679.45" r="1.26"/>
          <circle class="cls-89" cx="585.56" cy="678.79" r="1.26"/>
          <circle class="cls-89" cx="599.74" cy="672.44" r="1.26"/>
          <circle class="cls-89" cx="613.9" cy="666.95" r="1.26"/>
          <circle class="cls-89" cx="628.08" cy="607.42" r="1.26"/>
          <circle class="cls-89" cx="642.25" cy="516.4" r="1.26"/>
          <circle class="cls-89" cx="656.42" cy="601.08" r="1.26"/>
          <circle class="cls-89" cx="670.59" cy="618.52" r="1.26"/>
          <circle class="cls-89" cx="684.76" cy="660.55" r="1.26"/>
          <circle class="cls-89" cx="698.94" cy="627.51" r="1.26"/>
          <circle class="cls-89" cx="713.1" cy="633.64" r="1.26"/>
          <circle class="cls-89" cx="727.28" cy="648.66" r="1.26"/>
          <circle class="cls-89" cx="741.45" cy="646.01" r="1.26"/>
          <circle class="cls-89" cx="755.62" cy="612.97" r="1.26"/>
          <circle class="cls-89" cx="769.79" cy="546.15" r="1.26"/>
          <circle class="cls-89" cx="783.96" cy="490.29" r="1.26"/>
          <circle class="cls-89" cx="798.14" cy="564.08" r="1.26"/>
          <circle class="cls-89" cx="812.3" cy="627.51" r="1.26"/>
          <circle class="cls-89" cx="826.48" cy="651.88" r="1.26"/>
          <circle class="cls-89" cx="840.65" cy="665.15" r="1.26"/>
          <circle class="cls-89" cx="854.82" cy="671.26" r="1.26"/>
          <circle class="cls-89" cx="868.99" cy="675.09" r="1.26"/>
          <circle class="cls-90" cx="543.05" cy="676.94" r="1.26"/>
          <circle class="cls-90" cx="557.22" cy="677.73" r="1.26"/>
          <circle class="cls-90" cx="571.39" cy="676.81" r="1.26"/>
          <circle class="cls-90" cx="585.56" cy="677.2" r="1.26"/>
          <circle class="cls-90" cx="599.74" cy="669.8" r="1.26"/>
          <circle class="cls-90" cx="613.9" cy="665.57" r="1.26"/>
          <circle class="cls-90" cx="628.08" cy="575.97" r="1.26"/>
          <circle class="cls-90" cx="642.25" cy="483.21" r="1.26"/>
          <circle class="cls-90" cx="656.42" cy="627.51" r="1.26"/>
          <circle class="cls-90" cx="670.59" cy="630.26" r="1.26"/>
          <circle class="cls-90" cx="684.76" cy="661.87" r="1.26"/>
          <circle class="cls-90" cx="698.94" cy="634.17" r="1.26"/>
          <circle class="cls-90" cx="713.1" cy="644.69" r="1.26"/>
          <circle class="cls-90" cx="727.28" cy="651.3" r="1.26"/>
          <circle class="cls-90" cx="741.45" cy="651.06" r="1.26"/>
          <circle class="cls-90" cx="755.62" cy="636.02" r="1.26"/>
          <circle class="cls-90" cx="769.79" cy="521.78" r="1.26"/>
          <circle class="cls-90" cx="783.96" cy="506.18" r="1.26"/>
          <circle class="cls-90" cx="798.14" cy="521.6" r="1.26"/>
          <circle class="cls-90" cx="812.3" cy="600.84" r="1.26"/>
          <circle class="cls-90" cx="826.48" cy="665.39" r="1.26"/>
          <circle class="cls-90" cx="840.65" cy="667.45" r="1.26"/>
          <circle class="cls-90" cx="854.82" cy="674.16" r="1.26"/>
          <circle class="cls-90" cx="868.99" cy="675.38" r="1.26"/>
          <circle class="cls-91" cx="543.05" cy="675.62" r="1.26"/>
          <circle class="cls-91" cx="557.22" cy="676.41" r="1.26"/>
          <circle class="cls-91" cx="571.39" cy="676.28" r="1.26"/>
          <circle class="cls-91" cx="585.56" cy="678.31" r="1.26"/>
          <circle class="cls-91" cx="599.74" cy="673.9" r="1.26"/>
          <circle class="cls-91" cx="613.9" cy="671.26" r="1.26"/>
          <circle class="cls-91" cx="628.08" cy="651.46" r="1.26"/>
          <circle class="cls-91" cx="642.25" cy="577.08" r="1.26"/>
          <circle class="cls-91" cx="656.42" cy="559.05" r="1.26"/>
          <circle class="cls-91" cx="670.59" cy="579.7" r="1.26"/>
          <circle class="cls-91" cx="684.76" cy="625.03" r="1.26"/>
          <circle class="cls-91" cx="698.94" cy="633.09" r="1.26"/>
          <circle class="cls-91" cx="713.1" cy="627.78" r="1.26"/>
          <circle class="cls-91" cx="727.28" cy="617.2" r="1.26"/>
          <circle class="cls-91" cx="741.45" cy="646.28" r="1.26"/>
          <circle class="cls-91" cx="755.62" cy="646.54" r="1.26"/>
          <circle class="cls-91" cx="769.79" cy="572.16" r="1.26"/>
          <circle class="cls-91" cx="783.96" cy="519.4" r="1.26"/>
          <circle class="cls-91" cx="798.14" cy="545.63" r="1.26"/>
          <circle class="cls-91" cx="812.3" cy="556.49" r="1.26"/>
          <circle class="cls-91" cx="826.48" cy="668.03" r="1.26"/>
          <circle class="cls-91" cx="840.65" cy="668.59" r="1.26"/>
          <circle class="cls-91" cx="854.82" cy="671.52" r="1.26"/>
          <circle class="cls-91" cx="868.99" cy="672.74" r="1.26"/>
          <polyline class="cls-78" points="543.05 685.44 557.22 686.24 571.39 686.11 585.56 688.14 599.74 683.72 613.9 681.08 628.08 661.28 642.25 586.91 656.42 568.88 670.59 589.52 684.76 634.85 698.94 642.91 713.1 637.6 727.28 627.03 741.45 656.1 755.62 656.37 769.79 581.99 783.96 529.23 798.13 555.45 812.3 566.31 826.48 677.86 840.64 678.41 854.82 681.35 868.99 682.56"/>
        </g>
      </g>
      <g>
        <g>
          <circle class="cls-92" cx="906.08" cy="556.91" r="7.08"/>
          <path class="cls-40" d="M910.58,553.75a.66.66,0,0,1,.94,0,.68.68,0,0,1,.05.88l-.05.06-6.62,6.62a.66.66,0,0,1-.88.05l-.06-.05L900.65,558a.66.66,0,0,1,0-.94.65.65,0,0,1,.87,0l.06,0,2.85,2.84Z"/>
        </g>
        <text class="cls-66" transform="translate(922.78 560.17)">S<tspan class="cls-80" x="7.38" y="0">c</tspan><tspan class="cls-93" x="14.04" y="0">h</tspan><tspan x="22.19" y="0">o</tspan><tspan class="cls-94" x="29.71" y="0">t</tspan><tspan class="cls-95" x="34.42" y="0">t</tspan><tspan x="39.06" y="0">en</tspan><tspan class="cls-95" x="54.43" y="0">t</tspan><tspan class="cls-96" x="59.08" y="0">or</tspan></text>
        <g>
          <circle class="cls-92" cx="906.08" cy="556.91" r="7.08"/>
          <path class="cls-40" d="M910.58,553.75a.66.66,0,0,1,.94,0,.68.68,0,0,1,.05.88l-.05.06-6.62,6.62a.66.66,0,0,1-.88.05l-.06-.05L900.65,558a.66.66,0,0,1,0-.94.65.65,0,0,1,.87,0l.06,0,2.85,2.84Z"/>
        </g>
        <g>
          <circle class="cls-97" cx="906.08" cy="581.04" r="7.08"/>
          <path class="cls-40" d="M910.66,578.6a.66.66,0,0,1,.94,0,.65.65,0,0,1,0,.87l0,.07L905,586.16a.67.67,0,0,1-.88.05l-.06-.05-3.31-3.31a.66.66,0,0,1,.88-1l.06,0,2.84,2.84Z"/>
        </g>
        <g>
          <circle class="cls-98" cx="906.08" cy="532.79" r="7.08"/>
          <path class="cls-40" d="M910.66,530.91a.66.66,0,0,1,.94,0,.65.65,0,0,1,0,.87l0,.07L905,538.47a.67.67,0,0,1-.88,0l-.06,0-3.31-3.31a.66.66,0,0,1,0-.94.67.67,0,0,1,.88-.06l.06.06,2.84,2.84Z"/>
        </g>
        <text class="cls-66" transform="translate(922.78 536.32)"><tspan class="cls-99">R</tspan><tspan x="8.62" y="0">athaus</tspan></text>
        <text class="cls-66" transform="translate(922.78 584.03)"><tspan class="cls-64">V</tspan><tspan x="7.72" y="0">ol</tspan><tspan class="cls-100" x="18.47" y="0">k</tspan><tspan x="25.49" y="0">st</tspan><tspan class="cls-101" x="36.23" y="0">h</tspan><tspan class="cls-102" x="44.38" y="0">e</tspan><tspan x="51.44" y="0">a</tspan><tspan class="cls-103" x="58.52" y="0">t</tspan><tspan class="cls-96" x="63.17" y="0">er</tspan></text>
        <g>
          <circle class="cls-104" cx="906.08" cy="604.36" r="7.08"/>
          <path class="cls-40" d="M910.66,601.92a.66.66,0,0,1,.94,0,.65.65,0,0,1,0,.87l0,.06L905,609.47a.67.67,0,0,1-.88.06l-.06-.06-3.31-3.31a.65.65,0,0,1,0-.93.67.67,0,0,1,.88-.06l.06.06,2.84,2.84Z"/>
        </g>
        <text class="cls-66" transform="translate(923.6 607.88)">S<tspan class="cls-95" x="7.38" y="0">t</tspan><tspan x="12.02" y="0">ephanplatz</tspan></text>
      </g>
    </g>
    <text class="cls-46" transform="translate(99.87 347.47)">min #</text>
    <text class="cls-46" transform="translate(275.26 347.04)">max #</text>
    <text class="cls-74" transform="translate(73.76 409.26) scale(1.01 1)"><tspan class="cls-105">T</tspan><tspan x="6.94" y="0">otal sele</tspan><tspan class="cls-106" x="62.04" y="0">c</tspan><tspan class="cls-75" x="69.65" y="0">t</tspan><tspan x="74.83" y="0">ed stations: </tspan><tspan class="cls-107" x="154.68" y="0">6</tspan><tspan class="cls-15" x="163.14" y="0">7</tspan></text>
  </g>
</svg>
