<svg xmlns="http://www.w3.org/2000/svg" width="805" height="600" viewBox="0 0 805 600">
  <defs>
    <style>
      .cls-1 {
        fill: #444;
      }

      .cls-2 {
        fill: #a67a77;
      }

      .cls-3 {
        fill: #d58c86;
      }

      .cls-4 {
        fill: #dda39e;
      }

      .cls-5 {
        fill: #e6bab6;
      }

      .cls-6 {
        fill: #fff;
      }

      .cls-7 {
        fill: #f9b001;
      }

      .cls-8 {
        fill: #fde6ae;
      }

      .cls-9 {
        fill: #779a9e;
      }

      .cls-10 {
        fill: #adc2c5;
      }

      .cls-11 {
        fill: none;
        stroke: #fff;
      }

      .cls-12 {
        fill: #eed1cf;
      }
    </style>
  </defs>
  <g id="Layer_2" data-name="Layer 2">
    <rect class="cls-1" width="805" height="600"/>
  </g>
  <g id="Layer_4" data-name="Layer 4">
    <g>
      <rect class="cls-2" x="610.93" y="140.91" width="17.07" height="17.07"/>
      <rect class="cls-3" x="610.93" y="165.38" width="17.07" height="17.07"/>
      <rect class="cls-4" x="611.06" y="190.64" width="17.07" height="17.07"/>
      <rect class="cls-5" x="611.06" y="215.1" width="17.07" height="17.07"/>
      <g>
        <path class="cls-6" d="M642,152.71a5.12,5.12,0,0,1-2.13.39,3.78,3.78,0,0,1-4-4.1,4,4,0,0,1,4.22-4.24,4.29,4.29,0,0,1,1.92.36l-.26.85a3.76,3.76,0,0,0-1.62-.34,3,3,0,0,0-3.16,3.34,2.93,2.93,0,0,0,3.1,3.24,4.27,4.27,0,0,0,1.71-.33Z"/>
        <path class="cls-6" d="M643.18,149c0-.69,0-1.27,0-1.81h.92l0,1.14h0a1.76,1.76,0,0,1,1.62-1.27.92.92,0,0,1,.29,0v1a1.86,1.86,0,0,0-.36,0,1.47,1.47,0,0,0-1.41,1.35,2.56,2.56,0,0,0,0,.49V153h-1.05Z"/>
        <path class="cls-6" d="M647.6,150.26a1.84,1.84,0,0,0,2,2,4,4,0,0,0,1.61-.29l.19.75a4.86,4.86,0,0,1-1.94.37,2.7,2.7,0,0,1-2.85-2.93c0-1.76,1-3.13,2.72-3.13a2.44,2.44,0,0,1,2.39,2.73,2.93,2.93,0,0,1,0,.49Zm3.09-.76a1.51,1.51,0,0,0-1.46-1.71,1.74,1.74,0,0,0-1.62,1.71Z"/>
        <path class="cls-6" d="M653.38,147.17l.78,2.94c.17.65.32,1.26.44,1.85h0c.13-.58.33-1.21.52-1.84l1-3H657l.9,2.9c.21.69.38,1.3.51,1.89h0c.11-.58.26-1.19.45-1.88l.83-2.91h1l-1.87,5.8h-1L657,150.2a17.33,17.33,0,0,1-.52-1.91h0a19,19,0,0,1-.53,1.92L655,153h-1l-1.75-5.8Z"/>
      </g>
      <g>
        <path class="cls-6" d="M636.3,169.35h4.36v.87h-3.31v2.69h3.06v.87h-3.06v3.65H636.3Z"/>
        <path class="cls-6" d="M643.28,170a.64.64,0,0,1-.67.66A.63.63,0,0,1,642,170a.64.64,0,0,1,.66-.65A.63.63,0,0,1,643.28,170Zm-1.18,7.44v-5.8h1v5.8Z"/>
        <path class="cls-6" d="M644.79,173.44c0-.69,0-1.27,0-1.81h.93l0,1.14h0a1.76,1.76,0,0,1,1.62-1.27,1.29,1.29,0,0,1,.29,0v1a1.86,1.86,0,0,0-.36,0,1.48,1.48,0,0,0-1.41,1.35,2.56,2.56,0,0,0,0,.49v3.1h-1.05Z"/>
        <path class="cls-6" d="M648.66,176.36a2.86,2.86,0,0,0,1.4.41c.77,0,1.12-.38,1.12-.86s-.3-.77-1.08-1.06c-1-.38-1.54-.95-1.54-1.65a1.8,1.8,0,0,1,2-1.7,2.77,2.77,0,0,1,1.42.36l-.26.76a2.38,2.38,0,0,0-1.19-.34c-.62,0-1,.36-1,.8s.34.69,1.1,1c1,.37,1.52.88,1.52,1.74,0,1-.8,1.75-2.17,1.75a3.33,3.33,0,0,1-1.63-.4Z"/>
        <path class="cls-6" d="M654.92,170v1.67h1.52v.8h-1.52v3.13c0,.72.21,1.13.8,1.13a1.87,1.87,0,0,0,.61-.08l0,.8a2.48,2.48,0,0,1-.94.15,1.46,1.46,0,0,1-1.14-.45,2.22,2.22,0,0,1-.41-1.51v-3.17H653v-.8h.9v-1.39Z"/>
      </g>
      <g>
        <path class="cls-6" d="M636.3,201.42a3.58,3.58,0,0,0,1.87.53c1.06,0,1.69-.56,1.69-1.38s-.44-1.19-1.53-1.6c-1.32-.47-2.14-1.16-2.14-2.29a2.33,2.33,0,0,1,2.62-2.19,3.7,3.7,0,0,1,1.79.39l-.29.85a3.12,3.12,0,0,0-1.53-.38c-1.11,0-1.53.66-1.53,1.21,0,.75.49,1.12,1.61,1.55,1.37.54,2.06,1.2,2.06,2.38s-.91,2.33-2.83,2.33a4,4,0,0,1-2.06-.53Z"/>
        <path class="cls-6" d="M642.9,200a1.85,1.85,0,0,0,2,2,3.76,3.76,0,0,0,1.61-.3l.19.75a4.69,4.69,0,0,1-1.94.37,2.7,2.7,0,0,1-2.85-2.93c0-1.75,1-3.13,2.73-3.13a2.44,2.44,0,0,1,2.38,2.73,3.16,3.16,0,0,1,0,.5Zm3.09-.76a1.5,1.5,0,0,0-1.46-1.71,1.74,1.74,0,0,0-1.62,1.71Z"/>
        <path class="cls-6" d="M652.49,202.49a4.07,4.07,0,0,1-1.66.33,2.76,2.76,0,0,1-2.89-3,3,3,0,0,1,3.11-3.09,3.32,3.32,0,0,1,1.47.31l-.24.8a2.63,2.63,0,0,0-1.23-.27,2,2,0,0,0-2,2.19,2,2,0,0,0,2,2.17,3.07,3.07,0,0,0,1.3-.28Z"/>
        <path class="cls-6" d="M658.82,199.74a2.84,2.84,0,0,1-2.88,3.09,2.77,2.77,0,0,1-2.79-3,2.84,2.84,0,0,1,2.88-3.08A2.74,2.74,0,0,1,658.82,199.74Zm-4.6.07c0,1.27.73,2.23,1.76,2.23s1.77-.95,1.77-2.26c0-1-.49-2.23-1.75-2.23S654.22,198.71,654.22,199.81Z"/>
        <path class="cls-6" d="M660.1,198.46c0-.6,0-1.08-.05-1.56H661l.06.95h0a2.14,2.14,0,0,1,1.92-1.09c.8,0,2,.48,2,2.48v3.46h-1v-3.35c0-.94-.35-1.72-1.34-1.72a1.52,1.52,0,0,0-1.42,1.08,1.81,1.81,0,0,0-.07.49v3.5h-1Z"/>
        <path class="cls-6" d="M671.71,194.18v7c0,.52,0,1.1,0,1.5h-.94l-.05-1h0a2.12,2.12,0,0,1-2,1.14c-1.4,0-2.49-1.19-2.49-3,0-1.94,1.2-3.12,2.61-3.12a1.94,1.94,0,0,1,1.75.88h0v-3.46Zm-1.05,5.08a2.22,2.22,0,0,0,0-.45,1.57,1.57,0,0,0-1.53-1.22c-1.09,0-1.75,1-1.75,2.23s.59,2.16,1.73,2.16a1.6,1.6,0,0,0,1.54-1.27,1.55,1.55,0,0,0,0-.45Z"/>
      </g>
      <g>
        <path class="cls-6" d="M638,220h-2.46v-.88h6V220H639v7.2h-1Z"/>
        <path class="cls-6" d="M642.34,218.64h1v3.63h0a2.1,2.1,0,0,1,.76-.75,2.15,2.15,0,0,1,1.08-.29c.78,0,2,.48,2,2.48v3.45h-1v-3.34c0-.94-.35-1.72-1.34-1.72a1.53,1.53,0,0,0-1.42,1.05,1.55,1.55,0,0,0-.07.5v3.51h-1Z"/>
        <path class="cls-6" d="M650.06,219.72a.66.66,0,1,1-1.31,0,.65.65,0,0,1,.66-.66A.63.63,0,0,1,650.06,219.72Zm-1.18,7.44v-5.8h1v5.8Z"/>
        <path class="cls-6" d="M651.57,223.17c0-.69,0-1.27-.05-1.81h.92l0,1.14h0a1.76,1.76,0,0,1,1.61-1.27,1.39,1.39,0,0,1,.3,0v1a1.94,1.94,0,0,0-.36,0,1.47,1.47,0,0,0-1.41,1.35,2.56,2.56,0,0,0,0,.49v3.1h-1Z"/>
        <path class="cls-6" d="M660.4,218.64v7c0,.52,0,1.1.05,1.5h-.94l0-1h0a2.13,2.13,0,0,1-2,1.13c-1.4,0-2.49-1.19-2.49-2.95,0-1.93,1.2-3.11,2.61-3.11a1.94,1.94,0,0,1,1.75.88h0v-3.47Zm-1,5.08a2.28,2.28,0,0,0,0-.45,1.55,1.55,0,0,0-1.53-1.21c-1.09,0-1.74.95-1.74,2.23s.58,2.15,1.72,2.15a1.58,1.58,0,0,0,1.54-1.26,1.64,1.64,0,0,0,.05-.45Z"/>
      </g>
      <g>
        <path class="cls-6" d="M618.59,131.11a6.11,6.11,0,0,1-2.5.45,4.41,4.41,0,0,1-4.65-4.79,4.69,4.69,0,0,1,4.93-5,5.08,5.08,0,0,1,2.24.42l-.3,1a4.49,4.49,0,0,0-1.9-.39c-2.22,0-3.69,1.42-3.69,3.9,0,2.31,1.33,3.78,3.62,3.78a5.05,5.05,0,0,0,2-.38Z"/>
        <path class="cls-6" d="M620,121.46h1.23v10H620Z"/>
        <path class="cls-6" d="M626.83,131.41l-.11-.86h0a2.51,2.51,0,0,1-2.07,1,1.93,1.93,0,0,1-2.07-1.94c0-1.64,1.45-2.54,4.07-2.52V127a1.39,1.39,0,0,0-1.54-1.56,3.3,3.3,0,0,0-1.77.51l-.28-.82a4.19,4.19,0,0,1,2.24-.6c2.07,0,2.57,1.42,2.57,2.77v2.54a10.06,10.06,0,0,0,.11,1.62Zm-.2-3.46c-1.33,0-2.86.21-2.86,1.52a1.09,1.09,0,0,0,1.15,1.18,1.7,1.7,0,0,0,1.66-1.13,1.35,1.35,0,0,0,0-.39Z"/>
        <path class="cls-6" d="M629.56,130.16a3.37,3.37,0,0,0,1.63.48c.9,0,1.31-.44,1.31-1s-.35-.9-1.25-1.24c-1.23-.44-1.81-1.11-1.8-1.92a2.09,2.09,0,0,1,2.34-2,3.29,3.29,0,0,1,1.66.42l-.31.89a2.68,2.68,0,0,0-1.39-.39c-.72,0-1.12.41-1.12.93s.4.81,1.29,1.15c1.16.44,1.77,1,1.77,2,0,1.2-.93,2-2.53,2a3.73,3.73,0,0,1-1.9-.48Z"/>
        <path class="cls-6" d="M635,130.16a3.37,3.37,0,0,0,1.63.48c.9,0,1.32-.44,1.32-1s-.36-.9-1.26-1.24c-1.22-.44-1.8-1.11-1.8-1.92a2.1,2.1,0,0,1,2.35-2,3.25,3.25,0,0,1,1.65.42l-.3.89a2.71,2.71,0,0,0-1.39-.39c-.73,0-1.12.41-1.12.93s.4.81,1.28,1.15c1.17.44,1.78,1,1.78,2,0,1.2-.93,2-2.53,2a3.8,3.8,0,0,1-1.91-.48Z"/>
      </g>
    </g>
    <g>
      <rect class="cls-7" x="611.84" y="288.47" width="17.07" height="17.07"/>
      <rect class="cls-8" x="611.84" y="311.02" width="17.07" height="17.07"/>
      <g>
        <path class="cls-6" d="M638.54,300.52l-2-8.08h1.1l1,4.09c.23,1,.44,2,.59,2.79h0c.13-.8.38-1.76.65-2.8l1.09-4.08H642l1,4.1c.22,1,.44,1.92.57,2.77h0c.16-.89.39-1.79.64-2.79l1.07-4.08h1.07l-2.29,8.08H643l-1-4.2a23.33,23.33,0,0,1-.53-2.65h0a21.62,21.62,0,0,1-.62,2.64l-1.15,4.21Z"/>
        <path class="cls-6" d="M652.22,297.57a2.83,2.83,0,0,1-2.89,3.08,2.76,2.76,0,0,1-2.79-3,2.84,2.84,0,0,1,2.89-3.08A2.75,2.75,0,0,1,652.22,297.57Zm-4.6.06c0,1.28.73,2.23,1.76,2.23s1.76-.94,1.76-2.26c0-1-.49-2.22-1.74-2.22S647.62,296.53,647.62,297.63Z"/>
        <path class="cls-6" d="M653.49,296.29c0-.61,0-1.09,0-1.57h.91l.06.94h0a2,2,0,0,1,1.83-1.07,1.71,1.71,0,0,1,1.63,1.16h0a2.21,2.21,0,0,1,.65-.75,2,2,0,0,1,1.28-.41c.77,0,1.91.5,1.91,2.52v3.41h-1v-3.28c0-1.12-.41-1.79-1.26-1.79a1.38,1.38,0,0,0-1.25.95,1.78,1.78,0,0,0-.09.53v3.59h-1V297c0-.92-.41-1.59-1.2-1.59a1.47,1.47,0,0,0-1.32,1.06,1.72,1.72,0,0,0-.08.52v3.49h-1Z"/>
        <path class="cls-6" d="M664,297.81a1.86,1.86,0,0,0,2,2,3.92,3.92,0,0,0,1.61-.3l.19.75a4.69,4.69,0,0,1-1.94.37,2.7,2.7,0,0,1-2.85-2.93c0-1.76,1-3.13,2.73-3.13a2.44,2.44,0,0,1,2.38,2.73,2.93,2.93,0,0,1,0,.49Zm3.09-.76a1.5,1.5,0,0,0-1.46-1.7,1.73,1.73,0,0,0-1.62,1.7Z"/>
        <path class="cls-6" d="M669.34,296.29c0-.61,0-1.09,0-1.57h.93l.06,1h0a2.12,2.12,0,0,1,1.91-1.09c.8,0,2,.48,2,2.47v3.46h-1v-3.34c0-.94-.35-1.72-1.34-1.72a1.52,1.52,0,0,0-1.42,1.08,1.44,1.44,0,0,0-.08.49v3.49h-1Z"/>
      </g>
      <g>
        <path class="cls-6" d="M644,319.53c-.06-1.12-.14-2.49-.13-3.49h0c-.28.94-.62,2-1,3.07L641.43,323h-.79l-1.31-3.85c-.39-1.14-.7-2.18-.93-3.14h0c0,1-.08,2.36-.16,3.57l-.21,3.47h-1l.56-8.09h1.33l1.38,3.92c.33,1,.6,1.88.81,2.72h0c.21-.82.49-1.71.85-2.72l1.44-3.92h1.34l.5,8.09h-1Z"/>
        <path class="cls-6" d="M647.37,320.37a1.85,1.85,0,0,0,2,2,3.76,3.76,0,0,0,1.61-.3l.19.75a4.69,4.69,0,0,1-1.94.37,2.7,2.7,0,0,1-2.85-2.92c0-1.76,1-3.13,2.73-3.13a2.44,2.44,0,0,1,2.38,2.72,3.07,3.07,0,0,1,0,.5Zm3.09-.76A1.51,1.51,0,0,0,649,317.9a1.74,1.74,0,0,0-1.62,1.71Z"/>
        <path class="cls-6" d="M652.68,318.84c0-.6,0-1.08,0-1.56h.93l.06,1h0a2.14,2.14,0,0,1,1.91-1.08c.8,0,2,.47,2,2.47v3.46h-1v-3.35c0-.93-.36-1.72-1.34-1.72a1.52,1.52,0,0,0-1.42,1.08,1.48,1.48,0,0,0-.08.49v3.5h-1.05Z"/>
      </g>
      <g>
        <path class="cls-6" d="M612.91,277.74a4.27,4.27,0,0,0,2.18.61c1.25,0,2-.65,2-1.6s-.51-1.4-1.78-1.87c-1.55-.55-2.5-1.36-2.5-2.68s1.22-2.56,3.06-2.56a4.23,4.23,0,0,1,2.08.46l-.34,1a3.68,3.68,0,0,0-1.78-.44c-1.3,0-1.79.77-1.79,1.41,0,.87.58,1.31,1.88,1.81,1.6.63,2.41,1.4,2.41,2.78s-1.07,2.72-3.31,2.72a4.86,4.86,0,0,1-2.41-.61Z"/>
        <path class="cls-6" d="M620.6,276.06a2.16,2.16,0,0,0,2.32,2.35,4.51,4.51,0,0,0,1.87-.34l.22.87a5.4,5.4,0,0,1-2.26.43,3.15,3.15,0,0,1-3.33-3.41c0-2.06,1.21-3.66,3.19-3.66,2.21,0,2.78,1.94,2.78,3.19a2.78,2.78,0,0,1,0,.57Zm3.61-.88a1.75,1.75,0,0,0-1.7-2,2,2,0,0,0-1.89,2Z"/>
        <path class="cls-6" d="M627.55,272.45l1,1.45c.25.39.46.73.69,1.11h0c.23-.4.45-.75.69-1.12l.94-1.44h1.34l-2.31,3.28,2.37,3.5h-1.39l-1-1.53c-.27-.39-.49-.77-.73-1.18h0c-.22.42-.45.77-.72,1.19l-1,1.52h-1.36l2.41-3.46-2.3-3.32Z"/>
      </g>
    </g>
    <g>
      <rect class="cls-9" x="612.04" y="379.84" width="17.07" height="17.07"/>
      <rect class="cls-10" x="612.04" y="402.4" width="17.07" height="17.07"/>
      <g>
        <path class="cls-6" d="M637.28,390.62a3.52,3.52,0,0,0,1.86.53c1.07,0,1.7-.56,1.7-1.38s-.44-1.19-1.53-1.6c-1.32-.47-2.14-1.16-2.14-2.29a2.33,2.33,0,0,1,2.62-2.19,3.69,3.69,0,0,1,1.78.39l-.29.85a3.08,3.08,0,0,0-1.52-.38c-1.11,0-1.53.66-1.53,1.21,0,.75.49,1.12,1.6,1.55,1.38.54,2.07,1.19,2.07,2.38S641,392,639.07,392a4.07,4.07,0,0,1-2.07-.53Z"/>
        <path class="cls-6" d="M648,390.31c0,.61,0,1.13,0,1.59h-.93l-.06-.95h0a2.17,2.17,0,0,1-1.92,1.08c-.9,0-2-.51-2-2.54V386.1h1v3.2c0,1.1.34,1.86,1.29,1.86a1.55,1.55,0,0,0,1.4-1,1.74,1.74,0,0,0,.09-.54V386.1h1Z"/>
        <path class="cls-6" d="M649.68,387.9c0-.68,0-1.27,0-1.8h.93l0,1.13h0a1.77,1.77,0,0,1,1.62-1.27,1.29,1.29,0,0,1,.29,0v1a1.31,1.31,0,0,0-.36,0,1.46,1.46,0,0,0-1.41,1.34,2.6,2.6,0,0,0,0,.5v3.1h-1.05Z"/>
        <path class="cls-6" d="M654.28,386.1l1.13,3.25a15.17,15.17,0,0,1,.48,1.5h0c.13-.49.3-1,.49-1.5l1.13-3.25h1.1l-2.28,5.8h-1l-2.21-5.8Z"/>
        <path class="cls-6" d="M660.78,384.46a.66.66,0,1,1-.65-.66A.64.64,0,0,1,660.78,384.46Zm-1.18,7.44v-5.8h1v5.8Z"/>
        <path class="cls-6" d="M662.76,386.1l1.14,3.25c.19.53.35,1,.48,1.5h0c.13-.49.3-1,.48-1.5L666,386.1h1.1l-2.28,5.8h-1l-2.21-5.8Z"/>
        <path class="cls-6" d="M668.58,389.19a1.85,1.85,0,0,0,2,2,3.92,3.92,0,0,0,1.61-.3l.18.75a4.63,4.63,0,0,1-1.93.37,2.71,2.71,0,0,1-2.86-2.93c0-1.75,1-3.13,2.73-3.13a2.45,2.45,0,0,1,2.39,2.73,2.17,2.17,0,0,1,0,.5Zm3.08-.76a1.49,1.49,0,0,0-1.45-1.71,1.73,1.73,0,0,0-1.62,1.71Z"/>
        <path class="cls-6" d="M679,383.38v7c0,.52,0,1.1.05,1.5h-.94l0-1h0a2.12,2.12,0,0,1-2,1.14c-1.4,0-2.49-1.19-2.49-2.95,0-1.94,1.2-3.12,2.61-3.12a1.94,1.94,0,0,1,1.75.88h0v-3.46Zm-1,5.08a2.38,2.38,0,0,0,0-.46,1.57,1.57,0,0,0-1.53-1.21c-1.09,0-1.75,1-1.75,2.23s.59,2.16,1.73,2.16a1.68,1.68,0,0,0,1.59-1.72Z"/>
      </g>
      <g>
        <path class="cls-6" d="M637.41,406.48a13.29,13.29,0,0,1,2.22-.18,4.65,4.65,0,0,1,3.28,1,3.69,3.69,0,0,1,1.14,2.89,4.31,4.31,0,0,1-1.16,3.15,5,5,0,0,1-3.58,1.16,17,17,0,0,1-1.9-.09Zm1.05,7.15a7.83,7.83,0,0,0,1,.05,3.1,3.1,0,0,0,3.44-3.43c0-1.91-1.07-3.11-3.27-3.11a6.87,6.87,0,0,0-1.22.1Z"/>
        <path class="cls-6" d="M646.48,407a.65.65,0,0,1-.68.66.63.63,0,0,1-.63-.66.66.66,0,1,1,1.31,0Zm-1.18,7.44v-5.8h1.05v5.8Z"/>
        <path class="cls-6" d="M648.61,411.74a1.84,1.84,0,0,0,2,2,4,4,0,0,0,1.61-.29l.18.75a4.63,4.63,0,0,1-1.93.37,2.71,2.71,0,0,1-2.86-2.93c0-1.76,1-3.13,2.73-3.13a2.45,2.45,0,0,1,2.39,2.73,2,2,0,0,1,0,.49Zm3.08-.76a1.49,1.49,0,0,0-1.45-1.7,1.72,1.72,0,0,0-1.62,1.7Z"/>
        <path class="cls-6" d="M659.07,405.94v7c0,.51,0,1.09,0,1.49h-.94l0-1h0a2.12,2.12,0,0,1-2,1.13,2.65,2.65,0,0,1-2.49-2.94c0-1.94,1.2-3.12,2.61-3.12a1.94,1.94,0,0,1,1.75.88h0v-3.46ZM658,411a2.28,2.28,0,0,0,0-.45,1.55,1.55,0,0,0-1.53-1.21c-1.09,0-1.74.95-1.74,2.23s.58,2.16,1.72,2.16a1.6,1.6,0,0,0,1.54-1.27,1.64,1.64,0,0,0,0-.45Z"/>
      </g>
      <g>
        <path class="cls-6" d="M612.94,369a4.24,4.24,0,0,0,2.18.61c1.25,0,2-.65,2-1.6s-.51-1.4-1.79-1.87c-1.54-.55-2.49-1.36-2.49-2.68s1.22-2.56,3.06-2.56a4.26,4.26,0,0,1,2.08.46l-.34,1a3.55,3.55,0,0,0-1.78-.45c-1.3,0-1.79.77-1.79,1.41,0,.88.57,1.31,1.88,1.81,1.6.63,2.4,1.4,2.4,2.78s-1.06,2.73-3.3,2.73a4.82,4.82,0,0,1-2.41-.62Z"/>
        <path class="cls-6" d="M625.45,368.61c0,.71,0,1.32.06,1.86h-1.09l-.07-1.11h0a2.54,2.54,0,0,1-2.25,1.26c-1.06,0-2.33-.59-2.33-3v-4H621v3.75c0,1.29.4,2.17,1.51,2.17a1.79,1.79,0,0,0,1.63-1.14,1.69,1.69,0,0,0,.11-.63v-4.15h1.23Z"/>
        <path class="cls-6" d="M627.39,365.8c0-.8,0-1.48-.06-2.11h1.08l.05,1.33h0a2.05,2.05,0,0,1,1.89-1.48,1.79,1.79,0,0,1,.34,0v1.16a2.58,2.58,0,0,0-.42,0,1.72,1.72,0,0,0-1.65,1.57,3.58,3.58,0,0,0,0,.58v3.62h-1.22Z"/>
        <path class="cls-6" d="M632.74,363.69l1.33,3.8c.23.63.4,1.19.55,1.75h0c.16-.56.35-1.12.57-1.75l1.32-3.8h1.29l-2.66,6.78H634l-2.58-6.78Z"/>
        <path class="cls-6" d="M640.32,361.78a.74.74,0,0,1-.79.76.73.73,0,0,1-.74-.76.75.75,0,0,1,.77-.77A.74.74,0,0,1,640.32,361.78Zm-1.38,8.69v-6.78h1.23v6.78Z"/>
        <path class="cls-6" d="M642.62,363.69l1.33,3.8c.22.63.4,1.19.55,1.75h0c.15-.56.35-1.12.57-1.75l1.32-3.8h1.29l-2.67,6.78h-1.17l-2.58-6.78Z"/>
        <path class="cls-6" d="M652.54,370.47l-.11-.86h0a2.51,2.51,0,0,1-2.07,1,1.93,1.93,0,0,1-2.07-1.94c0-1.64,1.46-2.54,4.07-2.53V366a1.39,1.39,0,0,0-1.54-1.56,3.33,3.33,0,0,0-1.76.5l-.28-.82a4.27,4.27,0,0,1,2.23-.59c2.07,0,2.58,1.42,2.58,2.77v2.54a11.44,11.44,0,0,0,.1,1.62Zm-.19-3.46c-1.33,0-2.86.21-2.86,1.52a1.08,1.08,0,0,0,1.15,1.18,1.7,1.7,0,0,0,1.65-1.13,1.48,1.48,0,0,0,.06-.39Z"/>
        <path class="cls-6" d="M655.38,360.52h1.22v10h-1.22Z"/>
      </g>
    </g>
    <line class="cls-11" x1="689.39" y1="140.91" x2="689.39" y2="231.04"/>
    <g>
      <path class="cls-6" d="M702.66,149.15a1.86,1.86,0,0,1,1.28-1.74v0a1.61,1.61,0,0,1-1-1.46,1.84,1.84,0,0,1,2-1.73,1.68,1.68,0,0,1,1.89,1.6,1.64,1.64,0,0,1-1.07,1.52v0a1.8,1.8,0,0,1,1.31,1.68,2,2,0,0,1-2.22,1.89C703.48,150.91,702.66,150.1,702.66,149.15Zm3.5,0c0-.79-.55-1.17-1.43-1.42a1.42,1.42,0,0,0-1.17,1.34,1.2,1.2,0,0,0,1.3,1.24A1.18,1.18,0,0,0,706.16,149.11Zm-2.42-3.25c0,.65.49,1,1.24,1.2a1.28,1.28,0,0,0,1-1.18,1,1,0,0,0-1.1-1.06A1,1,0,0,0,703.74,145.86Z"/>
      <path class="cls-6" d="M707.9,149.15a1.86,1.86,0,0,1,1.28-1.74v0a1.6,1.6,0,0,1-1-1.46,1.83,1.83,0,0,1,2-1.73,1.68,1.68,0,0,1,1.89,1.6,1.66,1.66,0,0,1-1.07,1.52v0a1.8,1.8,0,0,1,1.3,1.68,2,2,0,0,1-2.21,1.89C708.72,150.91,707.9,150.1,707.9,149.15Zm3.49,0c0-.79-.55-1.17-1.43-1.42a1.43,1.43,0,0,0-1.17,1.34,1.21,1.21,0,0,0,1.3,1.24A1.18,1.18,0,0,0,711.39,149.11ZM709,145.86c0,.65.49,1,1.23,1.2a1.28,1.28,0,0,0,1-1.18,1,1,0,0,0-1.1-1.06A1,1,0,0,0,709,145.86Z"/>
      <path class="cls-6" d="M717,145h-2.47l-.25,1.67a3.33,3.33,0,0,1,.52,0,2.69,2.69,0,0,1,1.41.36,1.84,1.84,0,0,1,.92,1.66,2.25,2.25,0,0,1-2.41,2.22,3.22,3.22,0,0,1-1.63-.4l.23-.67a2.84,2.84,0,0,0,1.39.36,1.43,1.43,0,0,0,1.53-1.41c0-.84-.57-1.44-1.86-1.44a6.45,6.45,0,0,0-.9.07l.42-3.12H717Z"/>
    </g>
    <g>
      <path class="cls-6" d="M703,174.77a3,3,0,0,0,1.44.4,1.28,1.28,0,0,0,1.47-1.26c0-.91-.83-1.3-1.68-1.3h-.49V172h.49c.64,0,1.45-.33,1.45-1.1,0-.52-.33-1-1.14-1a2.39,2.39,0,0,0-1.3.43l-.24-.63a3,3,0,0,1,1.7-.51c1.29,0,1.87.76,1.87,1.56a1.63,1.63,0,0,1-1.2,1.53v0a1.68,1.68,0,0,1,1.45,1.66c0,1-.82,1.95-2.37,1.95a3.3,3.3,0,0,1-1.69-.44Z"/>
      <path class="cls-6" d="M707.62,175.77v-.53l.69-.67c1.66-1.59,2.41-2.43,2.42-3.41a1.15,1.15,0,0,0-1.28-1.27,2.21,2.21,0,0,0-1.38.55l-.28-.62a2.88,2.88,0,0,1,1.83-.66,1.83,1.83,0,0,1,2,1.89c0,1.21-.87,2.17-2.24,3.49l-.51.48v0h2.91v.73Z"/>
      <path class="cls-6" d="M716.76,170h-2.47l-.25,1.67a3.48,3.48,0,0,1,.53,0,2.78,2.78,0,0,1,1.4.36,1.85,1.85,0,0,1,.92,1.66,2.25,2.25,0,0,1-2.41,2.22,3.15,3.15,0,0,1-1.62-.4l.22-.67a2.88,2.88,0,0,0,1.39.36,1.43,1.43,0,0,0,1.53-1.41c0-.84-.56-1.43-1.86-1.43a6.83,6.83,0,0,0-.9.06l.42-3.12h3.1Z"/>
    </g>
    <g>
      <path class="cls-6" d="M702.73,200.74v-.53l.69-.67c1.66-1.58,2.42-2.43,2.42-3.41a1.15,1.15,0,0,0-1.28-1.27,2.27,2.27,0,0,0-1.38.55l-.28-.61a2.84,2.84,0,0,1,1.84-.67,1.83,1.83,0,0,1,2,1.89c0,1.21-.87,2.18-2.24,3.49L704,200v0h2.91v.73Z"/>
      <path class="cls-6" d="M707.73,199.09a1.88,1.88,0,0,1,1.28-1.74v0a1.6,1.6,0,0,1-1-1.46,1.83,1.83,0,0,1,2-1.73,1.68,1.68,0,0,1,1.89,1.6,1.66,1.66,0,0,1-1.07,1.52v0a1.81,1.81,0,0,1,1.3,1.68,2,2,0,0,1-2.21,1.89C708.55,200.85,707.73,200,707.73,199.09Zm3.49,0c0-.78-.55-1.17-1.43-1.41a1.41,1.41,0,0,0-1.17,1.33,1.21,1.21,0,0,0,1.3,1.24A1.18,1.18,0,0,0,711.22,199.05Zm-2.41-3.25c0,.65.49,1,1.23,1.2a1.27,1.27,0,0,0,1-1.18,1,1,0,0,0-1.1-1A1,1,0,0,0,708.81,195.8Z"/>
      <path class="cls-6" d="M716.79,195h-2.47l-.25,1.67a3.54,3.54,0,0,1,.52,0A2.78,2.78,0,0,1,716,197a1.85,1.85,0,0,1,.92,1.67,2.24,2.24,0,0,1-2.41,2.21,3.22,3.22,0,0,1-1.63-.4l.23-.67a2.83,2.83,0,0,0,1.39.37,1.43,1.43,0,0,0,1.53-1.42c0-.84-.57-1.43-1.86-1.43a6.7,6.7,0,0,0-.9.06l.42-3.12h3.1Z"/>
    </g>
    <g>
      <path class="cls-6" d="M707,219.22v.58l-2.83,5.91h-.91L706,220v0h-3.17v-.72Z"/>
      <path class="cls-6" d="M712.05,222.4c0,2.2-.82,3.42-2.26,3.42-1.26,0-2.13-1.19-2.15-3.33s.94-3.38,2.26-3.38S712.05,220.33,712.05,222.4Zm-3.52.09c0,1.69.52,2.65,1.31,2.65s1.33-1,1.33-2.7-.41-2.65-1.32-2.65S708.53,220.73,708.53,222.49Z"/>
      <path class="cls-6" d="M716.7,219.83a4.28,4.28,0,0,0-.66,0,2.6,2.6,0,0,0-2.25,2.31h0a2,2,0,0,1,3.53,1.34,2.17,2.17,0,0,1-2.16,2.29c-1.39,0-2.3-1.08-2.3-2.76a4.09,4.09,0,0,1,1.1-2.93,3.61,3.61,0,0,1,2.08-1,3.1,3.1,0,0,1,.64,0Zm-.25,3.76a1.31,1.31,0,0,0-1.33-1.49,1.44,1.44,0,0,0-1.27.79.9.9,0,0,0-.09.39c0,1.07.5,1.87,1.42,1.87C715.94,225.15,716.45,224.51,716.45,223.59Z"/>
    </g>
    <g>
      <path class="cls-6" d="M700.89,123H698v-1h7v1h-2.88v8.41h-1.23Z"/>
      <path class="cls-6" d="M711.48,128a3.31,3.31,0,0,1-3.37,3.6,3.22,3.22,0,0,1-3.26-3.49,3.31,3.31,0,0,1,3.37-3.59A3.2,3.2,0,0,1,711.48,128Zm-5.37.08c0,1.48.85,2.6,2,2.6s2.07-1.1,2.07-2.64c0-1.15-.58-2.6-2.05-2.6S706.11,126.75,706.11,128Z"/>
      <path class="cls-6" d="M714.36,122.69v2h1.77v.93h-1.77v3.65c0,.84.25,1.32.93,1.32a2.48,2.48,0,0,0,.72-.09l0,.94a3.19,3.19,0,0,1-1.1.17,1.76,1.76,0,0,1-1.33-.52,2.62,2.62,0,0,1-.47-1.77v-3.7h-1v-.93h1V123Z"/>
      <path class="cls-6" d="M721.27,131.41l-.11-.86h0a2.51,2.51,0,0,1-2.07,1,1.93,1.93,0,0,1-2.07-1.94c0-1.64,1.45-2.54,4.07-2.52V127a1.39,1.39,0,0,0-1.54-1.56,3.3,3.3,0,0,0-1.77.51l-.28-.82a4.19,4.19,0,0,1,2.24-.6c2.07,0,2.57,1.42,2.57,2.77v2.54a10.06,10.06,0,0,0,.11,1.62Zm-.2-3.46c-1.33,0-2.86.21-2.86,1.52a1.09,1.09,0,0,0,1.15,1.18,1.7,1.7,0,0,0,1.66-1.13,1.35,1.35,0,0,0,.05-.39Z"/>
      <path class="cls-6" d="M724.1,121.46h1.23v10H724.1Z"/>
    </g>
    <line class="cls-11" x1="690.3" y1="288.47" x2="690.3" y2="326.07"/>
    <line class="cls-11" x1="690.3" y1="379.86" x2="690.3" y2="418.92"/>
    <g>
      <path class="cls-6" d="M702.56,298.54v-1.78h-3v-.57l2.89-4.15h.95v4h.91v.68h-.91v1.78Zm0-2.46v-2.17c0-.34,0-.68,0-1h0c-.2.38-.36.66-.54,1l-1.58,2.21v0Z"/>
      <path class="cls-6" d="M709,292v.58l-2.83,5.92h-.9l2.81-5.75v0h-3.17V292Z"/>
      <path class="cls-6" d="M714.13,295.22c0,2.21-.82,3.43-2.26,3.43-1.27,0-2.13-1.19-2.15-3.34s.94-3.38,2.26-3.38S714.13,293.15,714.13,295.22Zm-3.53.09c0,1.7.52,2.66,1.32,2.66s1.33-1.05,1.33-2.71-.41-2.65-1.32-2.65S710.6,293.55,710.6,295.31Z"/>
    </g>
    <g>
      <path class="cls-6" d="M701.75,317.83h0l-1.12.61-.17-.67,1.42-.76h.74v6.5h-.85Z"/>
      <path class="cls-6" d="M708.84,317v.58L706,323.51h-.9l2.81-5.75v0h-3.17V317Z"/>
      <path class="cls-6" d="M710,322.5a2.94,2.94,0,0,0,1.44.41c1.13,0,1.48-.72,1.47-1.26,0-.91-.83-1.3-1.68-1.3h-.49v-.66h.5c.63,0,1.44-.33,1.44-1.1,0-.52-.33-1-1.14-1a2.35,2.35,0,0,0-1.29.43l-.24-.63a3,3,0,0,1,1.7-.51c1.28,0,1.87.76,1.87,1.55a1.61,1.61,0,0,1-1.2,1.53v0a1.68,1.68,0,0,1,1.44,1.67c0,1-.81,1.95-2.37,1.95a3.13,3.13,0,0,1-1.68-.45Z"/>
      <path class="cls-6" d="M716.48,317.83h0l-1.13.61-.16-.67,1.41-.76h.75v6.5h-.85Z"/>
    </g>
    <g>
      <path class="cls-6" d="M702.14,384h0l-1.12.61-.17-.67,1.42-.75H703v6.49h-.85Z"/>
      <path class="cls-6" d="M707.8,389.63v-1.77h-3v-.57l2.89-4.15h1v4h.91v.68h-.91v1.77Zm0-2.45V385q0-.51,0-1h0c-.21.39-.36.67-.54,1l-1.59,2.21v0Z"/>
      <path class="cls-6" d="M710.58,389a2.93,2.93,0,0,0,.7,0,2.43,2.43,0,0,0,1.37-.62,3,3,0,0,0,.85-1.73h0a1.93,1.93,0,0,1-1.54.69,1.88,1.88,0,0,1-1.92-2,2.23,2.23,0,0,1,2.22-2.3c1.33,0,2.15,1.07,2.15,2.74a4.12,4.12,0,0,1-1.12,3.05,3.24,3.24,0,0,1-1.89.86,4.12,4.12,0,0,1-.8.06Zm.31-3.73a1.25,1.25,0,0,0,1.26,1.38,1.48,1.48,0,0,0,1.28-.68.69.69,0,0,0,.07-.32c0-1.12-.41-2-1.33-2C711.42,383.7,710.89,384.36,710.89,385.28Z"/>
      <path class="cls-6" d="M719.65,386.32c0,2.2-.82,3.42-2.26,3.42-1.27,0-2.13-1.18-2.15-3.33s.94-3.38,2.26-3.38S719.65,384.25,719.65,386.32Zm-3.53.09c0,1.7.52,2.65,1.32,2.65s1.33-1.05,1.33-2.7-.41-2.65-1.32-2.65S716.12,384.65,716.12,386.41Z"/>
    </g>
    <g>
      <path class="cls-6" d="M704.45,408.11v.58l-2.83,5.92h-.9l2.81-5.75v0h-3.17v-.73Z"/>
      <path class="cls-6" d="M707.09,408.93h0l-1.12.6-.17-.66,1.42-.76h.74v6.5h-.85Z"/>
      <path class="cls-6" d="M711.69,408.93h0l-1.13.6-.17-.66,1.42-.76h.75v6.5h-.85Z"/>
    </g>
  </g>
  <g id="Layer_1" data-name="Layer 1">
    <path class="cls-5" d="M305.12,197.51A115.47,115.47,0,0,1,408.9,361.91l-51.4-24.48a58.53,58.53,0,0,0-52.38-83Z"/>
    <path class="cls-12" d="M408.2,363.37a115.47,115.47,0,0,1-217.55-30l56.11-9.66a58.54,58.54,0,0,0,110.05,15.18Z"/>
    <path class="cls-3" d="M190.38,331.78a115.48,115.48,0,0,1,29.45-97.53l41.38,39.11a58.55,58.55,0,0,0-14.73,48.76Z"/>
    <path class="cls-4" d="M220.94,233.08a115.51,115.51,0,0,1,82.56-35.57v56.93a58.54,58.54,0,0,0-41.18,17.74Z"/>
    <path class="cls-7" d="M305.12,139A174.06,174.06,0,0,1,396,165.07l-30.22,48.25a117.1,117.1,0,0,0-60.65-17.43Z"/>
    <path class="cls-8" d="M397.36,165.93A174,174,0,0,1,461.75,387.1l-51.39-24.49a117.1,117.1,0,0,0-43.22-148.43Z"/>
    <path class="cls-7" d="M461.06,388.55q-2.13,4.43-4.51,8.72l-49.68-27.81q1.47-2.65,2.79-5.39Z"/>
    <path class="cls-8" d="M455.76,398.68A174,174,0,0,1,133,343.31l56.1-9.66a117.08,117.08,0,0,0,217,37.22Z"/>
    <path class="cls-7" d="M132.68,341.72a174,174,0,0,1,2.55-69.89l55.25,13.72a117,117,0,0,0-1.69,46.51Z"/>
    <path class="cls-8" d="M135.62,270.26A174,174,0,0,1,177.29,194l41.37,39.1A117,117,0,0,0,190.87,284Z"/>
    <path class="cls-7" d="M178.4,192.86a173.77,173.77,0,0,1,40.1-31.27l27.84,49.66A116.82,116.82,0,0,0,219.77,232Z"/>
    <path class="cls-8" d="M219.91,160.8A174.09,174.09,0,0,1,303.5,139v56.93a117.09,117.09,0,0,0-55.75,14.57Z"/>
    <path class="cls-10" d="M305.12,80.42a232.41,232.41,0,0,1,67.72,10.33l-17,54.34a175.67,175.67,0,0,0-50.75-7.74Z"/>
    <path class="cls-9" d="M374.38,91.23a232.36,232.36,0,0,1,52.68,24.22L396.84,163.7a175.55,175.55,0,0,0-39.42-18.13Z"/>
    <path class="cls-10" d="M428.43,116.31A232.57,232.57,0,0,1,532.69,356.88l-55.87-10.94a175.64,175.64,0,0,0-78.61-181.38Z"/>
    <path class="cls-9" d="M532.38,358.47a232.58,232.58,0,0,1-17.78,53.81l-51.39-24.49a175.62,175.62,0,0,0,13.3-40.26Z"/>
    <path class="cls-10" d="M513.91,413.73l-.16.34L462.54,389.2Z"/>
    <path class="cls-9" d="M513,415.53q-2.58,5.24-5.4,10.33L458,398.05q2-3.68,3.9-7.45Z"/>
    <path class="cls-10" d="M506.85,427.27c-63.12,111.86-205,151.37-316.83,88.25A232.41,232.41,0,0,1,129.8,466.7l42.85-37.48a175.62,175.62,0,0,0,284.52-29.76Z"/>
    <path class="cls-9" d="M128.73,465.48A232.52,232.52,0,0,1,75.26,353.25l56.1-9.66A175.67,175.67,0,0,0,171.58,428Z"/>
    <path class="cls-10" d="M75,351.66c-.06-.34-.12-.69-.17-1l56.21-9,.06.38Z"/>
    <path class="cls-9" d="M74.56,349a232.59,232.59,0,0,1,3.85-91.32l55.25,13.72A175.61,175.61,0,0,0,130.77,340Z"/>
    <path class="cls-10" d="M78.8,256.16a232.46,232.46,0,0,1,30.57-70L157,217.37a175.66,175.66,0,0,0-22.93,52.5Z"/>
    <path class="cls-9" d="M110.25,184.81a233,233,0,0,1,24.49-31l41.37,39.11A175.88,175.88,0,0,0,157.86,216Z"/>
    <path class="cls-10" d="M135.85,152.65c1.61-1.7,3.25-3.36,4.91-5l39.9,40.61q-1.74,1.73-3.44,3.5Z"/>
    <path class="cls-9" d="M141.91,146.51a232.69,232.69,0,0,1,48-36l27.84,49.66a175.51,175.51,0,0,0-35.9,26.94Z"/>
    <path class="cls-10" d="M191.28,109.73a232.68,232.68,0,0,1,95.64-28.66L291,137.85a175.66,175.66,0,0,0-71.86,21.54Z"/>
    <path class="cls-9" d="M288.53,81c5-.33,10-.51,15-.53v56.93q-5.46,0-10.91.39Z"/>
    <g>
      <path class="cls-6" d="M178.63,38.24h-4.79V35.39h12.93v2.85h-4.83v16h-3.31Z"/>
      <path class="cls-6" d="M188.54,34.54h3.31v7.83h.05a4.78,4.78,0,0,1,1.55-1.45,4.55,4.55,0,0,1,2.2-.57c2.27,0,4.34,1.62,4.34,5.71v8.21h-3.31V46.36c0-1.83-.59-3.28-2.3-3.28A2.51,2.51,0,0,0,192,44.93a3.4,3.4,0,0,0-.14,1v8.3h-3.31Z"/>
      <path class="cls-6" d="M205.49,48.36c.07,2.64,1.83,3.65,3.86,3.65a9.24,9.24,0,0,0,3.36-.59l.49,2.3a11.16,11.16,0,0,1-4.36.8c-4.15,0-6.53-2.68-6.53-6.87,0-4,2.24-7.3,6.18-7.3s5.41,3.33,5.41,6.52a8.28,8.28,0,0,1-.11,1.49ZM210.8,46c0-1.54-.58-3.37-2.52-3.37s-2.67,1.91-2.79,3.37Z"/>
      <path class="cls-6" d="M222,35.66a28.33,28.33,0,0,1,4.85-.39c3.14,0,5.29.67,6.85,2,1.75,1.46,2.82,3.77,2.82,7.15,0,3.58-1.11,6.09-2.8,7.65s-4.34,2.37-7.63,2.37A32.21,32.21,0,0,1,222,54.2Zm3.3,16.05a10.59,10.59,0,0,0,1.57.08c3.74,0,6.17-2.24,6.17-7.31,0-4.19-2-6.61-5.83-6.61a8.75,8.75,0,0,0-1.91.17Z"/>
      <path class="cls-6" d="M242.36,36.89a1.83,1.83,0,1,1-1.83-1.82A1.76,1.76,0,0,1,242.36,36.89Zm-3.48,17.38V40.63h3.31V54.27Z"/>
      <path class="cls-6" d="M245.1,51.2a6.72,6.72,0,0,0,3.14.91c1.38,0,2-.61,2-1.54s-.51-1.4-2.06-2c-2.48-1-3.48-2.41-3.47-4,0-2.38,1.91-4.21,4.87-4.21a7.19,7.19,0,0,1,3.32.77l-.67,2.36a5.23,5.23,0,0,0-2.57-.73c-1.17,0-1.8.63-1.8,1.44s.56,1.25,2.16,1.94c2.28.94,3.37,2.22,3.38,4.14,0,2.57-1.94,4.25-5.23,4.25a7.75,7.75,0,0,1-3.78-.9Z"/>
      <path class="cls-6" d="M255.67,45.08c0-1.79,0-3.2-.11-4.45h2.9l.17,2h.05a4.61,4.61,0,0,1,4.13-2.25c3,0,5.23,2.75,5.23,7,0,4.94-2.79,7.24-5.63,7.24A3.86,3.86,0,0,1,259,52.84H259v6.92h-3.3Zm3.3,3.7a3.78,3.78,0,0,0,.12,1,2.67,2.67,0,0,0,2.58,2.17c2,0,3-1.91,3-4.51s-1-4.42-3-4.42a2.83,2.83,0,0,0-2.63,2.31,3.51,3.51,0,0,0-.13.91Z"/>
      <path class="cls-6" d="M270.44,44.85c0-1.65-.05-3-.11-4.22h2.87l.13,2.44h.1a3.82,3.82,0,0,1,3.44-2.72,3.45,3.45,0,0,1,.76.07v3.17a4.55,4.55,0,0,0-.9-.08A2.91,2.91,0,0,0,273.85,46a5.29,5.29,0,0,0-.1,1.12v7.11h-3.31Z"/>
      <path class="cls-6" d="M291.19,47.35c0,5.15-3.31,7.2-6.38,7.2-3.56,0-6.23-2.58-6.23-7,0-4.61,2.79-7.18,6.43-7.18S291.19,43.11,291.19,47.35Zm-9.24.11c0,2.52,1,4.64,3,4.64s2.89-2.14,2.89-4.68c0-2.09-.76-4.62-2.89-4.62S282,45.27,282,47.46Z"/>
      <path class="cls-6" d="M293.58,45.08c0-1.79-.06-3.2-.11-4.45h2.9l.16,2h.06a4.61,4.61,0,0,1,4.13-2.25c3,0,5.23,2.75,5.23,7,0,4.94-2.79,7.24-5.64,7.24a3.85,3.85,0,0,1-3.37-1.71h-.06v6.92h-3.3Zm3.3,3.7a3.78,3.78,0,0,0,.12,1,2.67,2.67,0,0,0,2.58,2.17c2,0,3-1.91,3-4.51s-1-4.42-3-4.42A2.83,2.83,0,0,0,297,45.32a3.51,3.51,0,0,0-.13.91Z"/>
      <path class="cls-6" d="M320.33,47.35c0,5.15-3.31,7.2-6.37,7.2-3.56,0-6.24-2.58-6.24-7,0-4.61,2.79-7.18,6.43-7.18S320.33,43.11,320.33,47.35Zm-9.23.11c0,2.52,1,4.64,3,4.64S317,50,317,47.42c0-2.09-.76-4.62-2.89-4.62S311.1,45.27,311.1,47.46Z"/>
      <path class="cls-6" d="M322.72,44.85c0-1.65-.05-3-.11-4.22h2.87l.14,2.44h.09a3.82,3.82,0,0,1,3.44-2.72,3.39,3.39,0,0,1,.76.07v3.17a4.55,4.55,0,0,0-.9-.08A2.91,2.91,0,0,0,326.13,46a6,6,0,0,0-.1,1.12v7.11h-3.31Z"/>
      <path class="cls-6" d="M336.4,36.81v3.82h3.09v2.45H336.4v6.33c0,1.67.51,2.39,1.65,2.39a4.87,4.87,0,0,0,1.22-.13l.06,2.54a7.65,7.65,0,0,1-2.34.31,3.78,3.78,0,0,1-2.8-1c-.71-.75-1.05-1.92-1.05-3.78V43.08h-1.85V40.63h1.85v-3Z"/>
      <path class="cls-6" d="M345.14,36.89a1.83,1.83,0,1,1-1.83-1.82A1.76,1.76,0,0,1,345.14,36.89Zm-3.47,17.38V40.63H345V54.27Z"/>
      <path class="cls-6" d="M359.91,47.35c0,5.15-3.32,7.2-6.38,7.2-3.56,0-6.23-2.58-6.23-7,0-4.61,2.79-7.18,6.43-7.18S359.91,43.11,359.91,47.35Zm-9.24.11c0,2.52,1,4.64,3,4.64s2.89-2.14,2.89-4.68c0-2.09-.76-4.62-2.89-4.62S350.67,45.27,350.67,47.46Z"/>
      <path class="cls-6" d="M362.29,44.62c0-1.56-.06-2.8-.11-4h2.88l.17,1.92h.07a4.58,4.58,0,0,1,4-2.2c2.34,0,4.43,1.6,4.43,5.57v8.35h-3.31v-8c0-1.78-.59-3.22-2.29-3.22A2.53,2.53,0,0,0,365.76,45a3.66,3.66,0,0,0-.16,1.13v8.15h-3.31Z"/>
      <path class="cls-6" d="M383.83,54.27l-.21-1.48h-.08a4.5,4.5,0,0,1-3.68,1.76,3.91,3.91,0,0,1-4-4c0-3.46,3-5.12,7.47-5.11v-.27c0-1-.41-2.4-2.54-2.39a6.47,6.47,0,0,0-3.33.94l-.65-2.18a9.24,9.24,0,0,1,4.59-1.14c4.11,0,5.25,2.65,5.25,5.62V51a21.8,21.8,0,0,0,.2,3.23Zm-.45-6.72c-2.05,0-4.31.43-4.31,2.6a1.78,1.78,0,0,0,1.82,2,2.47,2.47,0,0,0,2.4-1.79,2.56,2.56,0,0,0,.09-.73Z"/>
      <path class="cls-6" d="M389.57,34.54h3.31V54.27h-3.31Z"/>
      <path class="cls-6" d="M399.28,36.89a1.83,1.83,0,1,1-1.83-1.82A1.76,1.76,0,0,1,399.28,36.89ZM395.8,54.27V40.63h3.31V54.27Z"/>
      <path class="cls-6" d="M406.2,36.81v3.82h3.08v2.45H406.2v6.33c0,1.67.5,2.39,1.65,2.39a4.73,4.73,0,0,0,1.21-.13l.07,2.54a7.75,7.75,0,0,1-2.34.31,3.77,3.77,0,0,1-2.8-1c-.72-.75-1.06-1.92-1.06-3.78V43.08h-1.85V40.63h1.85v-3Z"/>
      <path class="cls-6" d="M414.17,40.63,416.35,48c.25.86.49,1.83.68,2.6h.07c.18-.75.41-1.74.64-2.61l1.9-7.34h3.45l-3.15,9.44c-1.53,4.44-2.69,6.91-4.28,8.46a6.91,6.91,0,0,1-3.37,1.86l-.83-2.81a6.05,6.05,0,0,0,2-1.07,6.39,6.39,0,0,0,1.68-2.1,1.53,1.53,0,0,0,.2-.61,1.65,1.65,0,0,0-.15-.62l-4.59-12.55Z"/>
      <path class="cls-6" d="M442.17,47.35c0,5.15-3.31,7.2-6.38,7.2-3.56,0-6.23-2.58-6.23-7,0-4.61,2.79-7.18,6.43-7.18S442.17,43.11,442.17,47.35Zm-9.24.11c0,2.52,1,4.64,3,4.64s2.89-2.14,2.89-4.68c0-2.09-.76-4.62-2.89-4.62S432.93,45.27,432.93,47.46Z"/>
      <path class="cls-6" d="M444.85,54.27V43.08H443V40.63h1.83V40a6.19,6.19,0,0,1,1.55-4.49,4.85,4.85,0,0,1,3.41-1.29,6.16,6.16,0,0,1,2.12.34l-.28,2.55a3.83,3.83,0,0,0-1.38-.23c-1.6,0-2.13,1.4-2.13,3v.71H451v2.45h-2.8V54.27Z"/>
      <path class="cls-6" d="M461.58,38.24h-4.79V35.39h12.93v2.85h-4.83v16h-3.31Z"/>
      <path class="cls-6" d="M475,36.89a1.83,1.83,0,1,1-1.83-1.82A1.76,1.76,0,0,1,475,36.89Zm-3.47,17.38V40.63h3.31V54.27Z"/>
      <path class="cls-6" d="M482,36.81v3.82H485v2.45H482v6.33c0,1.67.51,2.39,1.65,2.39a4.87,4.87,0,0,0,1.22-.13l.06,2.54a7.65,7.65,0,0,1-2.34.31,3.74,3.74,0,0,1-2.79-1c-.72-.75-1.06-1.92-1.06-3.78V43.08h-1.85V40.63h1.85v-3Z"/>
      <path class="cls-6" d="M494.36,54.27l-.21-1.48h-.08a4.48,4.48,0,0,1-3.68,1.76,3.91,3.91,0,0,1-4-4c0-3.46,3-5.12,7.48-5.11v-.27c0-1-.42-2.4-2.55-2.39a6.47,6.47,0,0,0-3.33.94l-.65-2.18a9.24,9.24,0,0,1,4.59-1.14c4.11,0,5.25,2.65,5.25,5.62V51a21.8,21.8,0,0,0,.2,3.23Zm-.45-6.72c-2.05,0-4.31.43-4.31,2.6a1.78,1.78,0,0,0,1.82,2,2.49,2.49,0,0,0,2.41-1.79,3,3,0,0,0,.08-.73Z"/>
      <path class="cls-6" d="M500.08,44.62c0-1.56-.05-2.8-.11-4h2.88l.17,1.92h.07a4.58,4.58,0,0,1,4-2.2c2.34,0,4.44,1.6,4.44,5.57v8.35h-3.32v-8c0-1.78-.58-3.22-2.29-3.22A2.53,2.53,0,0,0,503.55,45a3.66,3.66,0,0,0-.16,1.13v8.15h-3.31Z"/>
      <path class="cls-6" d="M518,36.89a1.83,1.83,0,1,1-1.83-1.82A1.76,1.76,0,0,1,518,36.89ZM514.5,54.27V40.63h3.31V54.27Z"/>
      <path class="cls-6" d="M530,53.9a8.49,8.49,0,0,1-3.38.62c-4,0-6.54-2.64-6.54-6.94,0-4.08,2.63-7.21,7.07-7.21a7.66,7.66,0,0,1,2.92.55l-.56,2.53a5.13,5.13,0,0,0-2.26-.47c-2.43,0-3.82,2-3.81,4.47,0,2.8,1.62,4.43,3.82,4.43a5.67,5.67,0,0,0,2.33-.47Z"/>
      <path class="cls-6" d="M537.67,50.68a8.66,8.66,0,0,0,4.07,1.07c2.09,0,3.26-1,3.26-2.6s-1-2.3-3.08-3.22c-2.81-1.18-4.65-2.91-4.65-5.42,0-3,2.41-5.37,6.34-5.37a8.69,8.69,0,0,1,4,.86l-.75,2.71a6.93,6.93,0,0,0-3.33-.82c-2,0-2.94,1.16-2.94,2.28,0,1.45,1,2.13,3.33,3.17,3,1.35,4.4,3,4.4,5.55,0,3.14-2.32,5.63-6.75,5.63A9.94,9.94,0,0,1,537,53.45Z"/>
      <path class="cls-6" d="M561.85,50.22c0,1.58.06,2.92.11,4.05h-2.88l-.17-1.88h-.08a4.54,4.54,0,0,1-4,2.16c-2.49,0-4.38-1.61-4.38-5.79V40.63h3.32v7.61c0,2.17.6,3.59,2.25,3.59a2.49,2.49,0,0,0,2.3-1.69,3.25,3.25,0,0,0,.18-1.1V40.63h3.31Z"/>
      <path class="cls-6" d="M565,44.85c0-1.65-.05-3-.11-4.22h2.87l.13,2.44h.1a3.82,3.82,0,0,1,3.44-2.72,3.45,3.45,0,0,1,.76.07v3.17a4.55,4.55,0,0,0-.9-.08A2.91,2.91,0,0,0,568.36,46a5.29,5.29,0,0,0-.1,1.12v7.11H565Z"/>
      <path class="cls-6" d="M576.85,40.63l1.95,6.89c.33,1.16.59,2.3.82,3.46h.08c.23-1.17.5-2.27.82-3.46l1.91-6.89h3.42l-4.73,13.64h-3.19l-4.64-13.64Z"/>
      <path class="cls-6" d="M591.08,36.89a1.77,1.77,0,0,1-1.87,1.82,1.82,1.82,0,1,1,1.87-1.82ZM587.6,54.27V40.63h3.31V54.27Z"/>
      <path class="cls-6" d="M596.21,40.63l1.95,6.89c.33,1.16.6,2.3.83,3.46h.08c.22-1.17.5-2.27.81-3.46l1.91-6.89h3.42l-4.72,13.64H597.3l-4.64-13.64Z"/>
      <path class="cls-6" d="M618.57,47.35c0,5.15-3.31,7.2-6.37,7.2-3.56,0-6.24-2.58-6.24-7,0-4.61,2.79-7.18,6.43-7.18S618.57,43.11,618.57,47.35Zm-9.23.11c0,2.52,1,4.64,3,4.64s2.9-2.14,2.9-4.68c0-2.09-.77-4.62-2.9-4.62S609.34,45.27,609.34,47.46Z"/>
      <path class="cls-6" d="M621,44.85c0-1.65,0-3-.11-4.22h2.87l.14,2.44H624a3.82,3.82,0,0,1,3.45-2.72,3.3,3.3,0,0,1,.75.07v3.17a4.55,4.55,0,0,0-.9-.08A2.91,2.91,0,0,0,624.37,46a6,6,0,0,0-.1,1.12v7.11H621Z"/>
      <path class="cls-6" d="M630.14,51.2a6.65,6.65,0,0,0,3.14.91c1.38,0,2.05-.61,2.05-1.54s-.51-1.4-2.07-2c-2.47-1-3.47-2.41-3.46-4,0-2.38,1.91-4.21,4.87-4.21a7.11,7.11,0,0,1,3.31.77l-.66,2.36a5.23,5.23,0,0,0-2.57-.73c-1.17,0-1.8.63-1.8,1.44s.56,1.25,2.15,1.94c2.28.94,3.38,2.22,3.38,4.14,0,2.57-1.93,4.25-5.22,4.25a7.75,7.75,0,0,1-3.78-.9Z"/>
    </g>
  </g>
</svg>
