<svg xmlns="http://www.w3.org/2000/svg" viewBox="0 0 160.88 44.62"><defs><style>.cls-1,.cls-2{fill:#fff;}.cls-1{stroke:#231f20;}.cls-1,.cls-2,.cls-3{stroke-miterlimit:10;}.cls-2,.cls-3{stroke:#ef4581;}.cls-3{fill:#ef4581;}.cls-4{fill:#231f20;}</style></defs><g id="Layer_2" data-name="Layer 2"><g id="Layer_1-2" data-name="Layer 1"><line class="cls-1" x1="8.77" y1="8.87" x2="152.42" y2="8.87"/><circle class="cls-2" cx="8.87" cy="8.87" r="8.37"/><circle class="cls-1" cx="45.19" cy="8.87" r="8.37"/><circle class="cls-1" cx="80.8" cy="8.87" r="8.37"/><circle class="cls-1" cx="117.06" cy="8.87" r="8.37"/><circle class="cls-3" cx="152.01" cy="8.87" r="8.37"/><path class="cls-4" d="M8.38,23.72h0l-1.17.69L7.06,24l1.36-.8H8.9v7.15H8.38Z"/><path class="cls-4" d="M42.18,30.34V30l.66-.68c2-1.95,2.86-3,2.86-4.18a1.44,1.44,0,0,0-1.56-1.62,2.37,2.37,0,0,0-1.51.61l-.21-.35a2.7,2.7,0,0,1,1.83-.72,1.87,1.87,0,0,1,2,2c0,1.41-1,2.54-2.81,4.31l-.5.52v0h3.51v.45Z"/><path class="cls-4" d="M78.26,29.56A2.93,2.93,0,0,0,79.8,30a1.61,1.61,0,0,0,1.81-1.65c0-1.19-1-1.68-2.1-1.68h-.45v-.44h.47c.79,0,1.79-.45,1.79-1.44a1.22,1.22,0,0,0-1.38-1.28,2.44,2.44,0,0,0-1.39.49l-.2-.38A2.8,2.8,0,0,1,80,23.07a1.65,1.65,0,0,1,1.86,1.66,1.85,1.85,0,0,1-1.33,1.7v0a1.89,1.89,0,0,1,1.61,1.89,2.15,2.15,0,0,1-2.41,2.12A3.15,3.15,0,0,1,78.05,30Z"/><path class="cls-4" d="M117.51,30.34v-2.1H114.1v-.36l3.48-4.69H118V27.8h1.1v.44H118v2.1Zm0-2.54V24.9q0-.51,0-1h0c-.22.41-.38.65-.55.91l-2.23,3v0Z"/><path class="cls-4" d="M153.79,23.65H151.1l-.35,2.3a3.33,3.33,0,0,1,.65-.05,2.85,2.85,0,0,1,1.33.3,2,2,0,0,1,1.12,1.86,2.34,2.34,0,0,1-2.41,2.4,2.92,2.92,0,0,1-1.65-.46l.2-.42a2.78,2.78,0,0,0,1.49.43,1.79,1.79,0,0,0,1.84-1.85c0-1-.64-1.81-2.07-1.81a8.11,8.11,0,0,0-1,.07l.47-3.23h3.09Z"/><path class="cls-4" d="M66.59,44.49l-2-8.08h1.1l1,4.09c.23,1,.45,2,.59,2.79h0c.13-.8.38-1.76.66-2.8L69,36.41h1.08l1,4.09c.23,1,.44,1.93.57,2.78h0c.17-.89.39-1.79.64-2.8l1.07-4.07h1.07l-2.29,8.08H71l-1-4.2a26.3,26.3,0,0,1-.53-2.65h0a21.62,21.62,0,0,1-.62,2.64l-1.14,4.21Z"/><path class="cls-4" d="M75.58,41.78a1.86,1.86,0,0,0,2,2,4,4,0,0,0,1.61-.3l.18.75a4.63,4.63,0,0,1-1.93.37,2.71,2.71,0,0,1-2.86-2.93c0-1.76,1-3.13,2.73-3.13a2.45,2.45,0,0,1,2.39,2.73,2,2,0,0,1,0,.49ZM78.67,41a1.49,1.49,0,0,0-1.45-1.7A1.72,1.72,0,0,0,75.6,41Z"/><path class="cls-4" d="M81.6,41.78a1.85,1.85,0,0,0,2,2,3.92,3.92,0,0,0,1.61-.3l.18.75a4.63,4.63,0,0,1-1.93.37,2.71,2.71,0,0,1-2.86-2.93c0-1.76,1-3.13,2.73-3.13a2.45,2.45,0,0,1,2.39,2.73,2,2,0,0,1,0,.49ZM84.68,41a1.49,1.49,0,0,0-1.45-1.7A1.72,1.72,0,0,0,81.61,41Z"/><path class="cls-4" d="M88.06,41.35h0c.14-.2.34-.46.5-.66l1.71-2h1.27l-2.24,2.39,2.56,3.41H90.6l-2-2.79-.54.61v2.18H87V36h1Z"/><path class="cls-4" d="M92.5,43.42a2.82,2.82,0,0,0,1.39.41c.77,0,1.13-.38,1.13-.86s-.31-.78-1.08-1.06c-1-.38-1.54-.95-1.54-1.65a1.8,1.8,0,0,1,2-1.7,2.77,2.77,0,0,1,1.42.36l-.26.76a2.31,2.31,0,0,0-1.19-.34c-.62,0-1,.36-1,.8s.34.69,1.1,1c1,.37,1.52.87,1.52,1.74,0,1-.8,1.75-2.17,1.75a3.33,3.33,0,0,1-1.63-.41Z"/></g></g></svg>