<svg xmlns="http://www.w3.org/2000/svg" viewBox="0 0 109.25 89.42"><defs><style>.cls-1{fill:#9376a8;}.cls-2{fill:#fff;}</style></defs><g id="Layer_2" data-name="Layer 2"><g id="Tools"><path class="cls-1" d="M24.25,89.41c-5.95-.14-11.87-.47-17.56-2.49a15.35,15.35,0,0,1-4.08-2.2C-.16,82.66-.71,80.2.89,77.13a12.7,12.7,0,0,1,3.52-4.28,3.29,3.29,0,0,0,1.24-2C8.85,56.16,11,41.33,13.36,26.54,14.41,20,15.25,13.45,16.54,7A8.92,8.92,0,0,1,24.82,0a8.55,8.55,0,0,1,8.64,6.4,113.47,113.47,0,0,1,2.86,15.53c.87,6.29,1.88,12.56,2.6,18.87C39.7,47.7,41,54.49,42.34,61.27c.67,3.34,1.58,6.63,2.36,9.95A3,3,0,0,0,45.92,73a12.3,12.3,0,0,1,3.73,4.87c1.23,2.58.63,4.69-1.67,6.38a23.86,23.86,0,0,1-9.71,3.87A68.68,68.68,0,0,1,24.25,89.41Z"/><path class="cls-2" d="M28.09,6.51c-2.82.81,13.29,64.57,13.29,64.61s-4-23-6.81-46.26C33.39,15,29.21,6.18,28.09,6.51Z"/><path class="cls-1" d="M82.79,89.41a55.21,55.21,0,0,1-16.51-2.29,21.42,21.42,0,0,1-3.4-1.5c-4.4-2.37-5.5-6.7-1.83-10.08S65.13,68.15,66,64c2.53-11.78,4.06-23.73,6.07-35.6,1.16-6.82,2-13.69,3.26-20.5.68-3.81,2.72-6.43,6.5-7.5,3.57-1,6.47.32,9,2.83a7.07,7.07,0,0,1,1.6,3.31c2.15,7.59,2.81,15.43,4,23.19.92,6,1.64,12,2.42,18,1,7.84,3,15.48,4.8,23.17a3.44,3.44,0,0,0,1.25,2.06,15.09,15.09,0,0,1,3.59,4.43,5,5,0,0,1-1.39,6.75c-3.46,2.75-7.65,3.55-11.8,4.37A63.82,63.82,0,0,1,82.79,89.41Z"/><path class="cls-2" d="M96.76,73.57s-4-22.95-6.82-46.26C88.76,17.42,84.58,8.63,83.46,9"/></g></g></svg>