<svg xmlns="http://www.w3.org/2000/svg" viewBox="0 0 229.9 228.03"><defs><style>.cls-1{fill:#9376a8;}.cls-2{font-size:20px;font-family:P22StickleyProText-Bold, P22 Stickley Pro;font-weight:700;}.cls-2,.cls-7,.cls-8,.cls-9{fill:#fff;}.cls-3{letter-spacing:0.02em;}.cls-4{letter-spacing:-0.03em;}.cls-5{letter-spacing:-0.04em;}.cls-6{letter-spacing:0em;}.cls-7{font-size:8px;}.cls-7,.cls-8,.cls-9{font-family:P22StickleyProDisplay, P22 Stickley Pro;}.cls-8{font-size:7px;}.cls-9{font-size:6px;}</style></defs><g id="Layer_2" data-name="Layer 2"><g id="Tools"><g id="Gauge"><path class="cls-1" d="M115.86,227.9c-26.28,0-52.56-.13-78.84,0C14.18,228.09-.22,208.45,0,191,.63,142.38.24,93.7.51,45,.56,36.28.17,27.25,4.79,19.14,11.63,7.17,21.66.1,35.66.07q78.63-.18,157.27,0c19.19,0,34.21,13,36.5,31.77.81,6.61.33,13.39.32,20.09,0,45.72.06,91.44-.13,137.16-.06,16.14-6.45,28.85-21.7,36A29.65,29.65,0,0,1,195.1,228q-39.63-.08-79.24,0ZM186.72,207a21.56,21.56,0,0,0,21.81-21.6,21.29,21.29,0,0,0-21.68-21.67,21.64,21.64,0,1,0-.13,43.27Zm-37-21.21c.09-10.47-7.65-18.23-18.25-18.3-9.35-.07-17.5,8.17-17.67,17.85s7.84,17.74,17.89,17.89C141.88,203.4,149.6,195.93,149.68,185.81ZM66,184.91c0,9.64,6.71,16,16.77,15.93,8.47-.05,15.33-7.41,15.26-16.36s-7.11-15.63-16.43-15.58A15.68,15.68,0,0,0,66,184.91ZM37.84,200.13a14.25,14.25,0,0,0,14.75-14.28c.07-7.3-6.79-14.28-14.11-14.35-7.56-.07-14.23,6.87-14.35,14.95C24,194.16,29.88,200,37.84,200.13ZM207.94,124a11.6,11.6,0,0,0-11.5-11.58c-6.16-.1-10.89,5.11-10.91,12,0,6.47,4.65,11.08,11.2,11.08C203.47,135.53,208,130.9,207.94,124Zm-38.59.26c.08-6.44-4.36-11.06-10.63-11.08a10.67,10.67,0,0,0-.28,21.34C164.76,134.71,169.28,130.46,169.35,124.3Zm-46.89,9.34a9.82,9.82,0,0,0-.12-19.63,9.65,9.65,0,0,0-10,9.83A9.94,9.94,0,0,0,122.46,133.64Zm-33.69-1.58a8.62,8.62,0,0,0,8.83-8.88,8.8,8.8,0,0,0-8.84-9,9.32,9.32,0,0,0-9.08,9C79.58,127.85,83.8,132,88.77,132.06Zm-29.28-.94a8.13,8.13,0,1,0,0-16.25c-4.07,0-8.08,3.84-8.11,7.84C51.34,126.87,55.42,131.1,59.49,131.12Zm-29-1.5a7.62,7.62,0,0,0,7.35-7.13,7.86,7.86,0,0,0-7.41-7.55,7.34,7.34,0,0,0,.06,14.68ZM197.22,80.55a6.39,6.39,0,0,0,6.46-6.69,6.76,6.76,0,0,0-6.42-6.44,6.54,6.54,0,0,0-6.52,6.26A6.94,6.94,0,0,0,197.22,80.55ZM178.7,74.78a6,6,0,0,0-6.36-5.84A5.85,5.85,0,0,0,166.29,75a6.05,6.05,0,0,0,6.36,5.87A6,6,0,0,0,178.7,74.78Zm-30.14,6c3.24,0,5.38-2.36,5.29-5.74s-2.88-6.08-6-5.73-5,2.22-5,5.62S145.18,80.86,148.56,80.82Zm-23.67-.94c2.67-.15,4.36-2,4.61-5,.22-2.69-2.64-5.19-5.55-5.07-3.16.13-4.94,1.84-5,5C118.81,77.75,121.28,80,124.89,79.88Zm-30-6.07c0,3.53,2.19,5.92,5,5.63,2.94-.32,5.06-2,5-5.16s-2.11-4.79-5.24-4.71S95.07,71.43,94.88,73.81ZM75.51,78.93c2.85.1,4.65-1.32,4.83-3.88s-1.67-4.14-4.25-4.4S72,72,71.63,74.31C71.26,77.08,73.16,78.36,75.51,78.93ZM53,77.81c2.56.08,4.18-1.19,4.35-3.5s-1.5-3.72-3.83-4a3.46,3.46,0,0,0-4,3.29C49.14,76.14,50.85,77.29,53,77.81Zm-21.81-.42c2.28.08,3.71-1,3.87-3.11S33.69,71,31.62,70.77a3.07,3.07,0,0,0-3.56,2.93C27.76,75.91,29.28,76.94,31.16,77.39ZM186,40.94a6.39,6.39,0,0,0,6.46-6.69,6.77,6.77,0,0,0-6.42-6.44,6.55,6.55,0,0,0-6.53,6.26A7,7,0,0,0,186,40.94Z"/><text class="cls-2" transform="translate(27.94 35.37)">Need<tspan class="cls-3" x="45.56" y="0">l</tspan><tspan x="52.86" y="0">e</tspan><tspan class="cls-4" x="61.64" y="0"> </tspan><tspan x="66.4" y="0">G</tspan><tspan class="cls-5" x="81.48" y="0">a</tspan><tspan class="cls-6" x="90.06" y="0">uge</tspan></text><g id="us"><text class="cls-7" transform="translate(29.07 63.47)">0</text><text class="cls-7" transform="translate(52.18 63.39)">1</text><text class="cls-7" transform="translate(72.82 63.39)">1.5</text><text class="cls-7" transform="translate(97.9 63.39)">2</text><text class="cls-7" transform="translate(120.4 63.39)">2.5</text><text class="cls-7" transform="translate(147.15 63.39)">3</text><text class="cls-7" transform="translate(170.77 63.39)">4</text><text class="cls-7" transform="translate(195.63 63.39)">5</text><text class="cls-7" transform="translate(28.35 109.98)">6</text><text class="cls-7" transform="translate(57.68 109.98)">7</text><text class="cls-7" transform="translate(87.26 109.98)">8</text><text class="cls-7" transform="translate(121.01 109.98)">9</text><text class="cls-7" transform="translate(155.44 109.98)">10</text><text class="cls-7" transform="translate(192.69 109.98)">10.5</text><text class="cls-7" transform="translate(36.07 159.75)">11</text><text class="cls-7" transform="translate(82.59 159.75)">13</text><text class="cls-7" transform="translate(128.73 172.44)">9</text><text class="cls-7" transform="translate(129.8 159.75)">15</text><text class="cls-7" transform="translate(184.07 159.75)">17</text></g><text class="cls-8" transform="translate(28.63 141.8)">4</text><text class="cls-8" transform="translate(56.47 141.8)">4.5</text><text class="cls-8" transform="translate(87.8 141.8)">5</text><text class="cls-8" transform="translate(118.92 141.8)">5.5</text><text class="cls-8" transform="translate(157.29 141.8)">6</text><text class="cls-8" transform="translate(194.02 141.8)">6.5</text><text class="cls-8" transform="translate(30.02 89.36)">2</text><text class="cls-8" transform="translate(48.08 89.28)">2.25</text><text class="cls-8" transform="translate(72.34 89.28)">2.5</text><text class="cls-8" transform="translate(94.23 89.28)">2.75</text><text class="cls-8" transform="translate(122.64 89.28)">3</text><text class="cls-8" transform="translate(143.53 89.28)">3.25</text><text class="cls-8" transform="translate(193.19 89.28)">3.75</text><text class="cls-8" transform="translate(169.07 89.28)">3.5</text><text class="cls-8" transform="translate(36.35 213.56)">8</text><text class="cls-8" transform="translate(81.38 213.56)">9</text><text class="cls-8" transform="translate(131.65 213.56)">10</text><text class="cls-8" transform="translate(185.4 213.56)">12</text><text class="cls-8" transform="translate(181.72 24.42)">US</text><text class="cls-9" transform="translate(181.45 47.32)">mm</text></g></g></g></svg>