<svg xmlns="http://www.w3.org/2000/svg" xmlns:xlink="http://www.w3.org/1999/xlink" viewBox="0 0 792 1224"><defs><style>.cls-1{fill:#383838;}.cls-2,.cls-5,.cls-51,.cls-53,.cls-57,.cls-58,.cls-69,.cls-7,.cls-77,.cls-81,.cls-83,.cls-85,.cls-89{fill:#fff;}.cls-2,.cls-3{opacity:0.1;}.cls-11,.cls-20,.cls-4,.cls-6{fill:none;}.cls-11,.cls-22,.cls-24,.cls-25,.cls-26,.cls-27,.cls-28,.cls-29,.cls-30,.cls-31,.cls-32,.cls-33,.cls-34,.cls-35,.cls-36,.cls-37,.cls-38,.cls-39,.cls-4,.cls-40,.cls-41,.cls-42,.cls-43,.cls-44,.cls-45,.cls-46,.cls-47,.cls-48,.cls-49,.cls-50,.cls-67,.cls-72,.cls-75,.cls-79{stroke:#fff;}.cls-11,.cls-12,.cls-13,.cls-14,.cls-15,.cls-16,.cls-17,.cls-18,.cls-19,.cls-20,.cls-22,.cls-24,.cls-25,.cls-26,.cls-27,.cls-28,.cls-29,.cls-30,.cls-31,.cls-32,.cls-33,.cls-34,.cls-35,.cls-36,.cls-37,.cls-38,.cls-39,.cls-4,.cls-40,.cls-41,.cls-42,.cls-43,.cls-44,.cls-45,.cls-46,.cls-47,.cls-48,.cls-49,.cls-50,.cls-67,.cls-72,.cls-75,.cls-79{stroke-miterlimit:10;}.cls-11,.cls-4{opacity:0.2;}.cls-5{opacity:0.9;}.cls-20,.cls-6{stroke:#d3d3d3;}.cls-10,.cls-7{font-size:15.34px;}.cls-10,.cls-23,.cls-51,.cls-53,.cls-57,.cls-58,.cls-68,.cls-69,.cls-7,.cls-73,.cls-76,.cls-77,.cls-80,.cls-81,.cls-83,.cls-86,.cls-87,.cls-88,.cls-89{font-family:ProximaNova-Regular, Proxima Nova;}.cls-8{letter-spacing:-0.02em;}.cls-9{letter-spacing:-0.02em;}.cls-11,.cls-59,.cls-61,.cls-62,.cls-63,.cls-64,.cls-65,.cls-66{stroke-width:0.5px;}.cls-12,.cls-60{fill:#f57f20;stroke:#f57f20;}.cls-13,.cls-61{fill:#d87ab2;}.cls-13{stroke:#d77ab1;}.cls-14,.cls-62{fill:#d62a28;}.cls-14{stroke:#d52c28;}.cls-15,.cls-63{fill:#9268ad;stroke:#9268ad;}.cls-16,.cls-64{fill:#2278b5;}.cls-16{stroke:#2378b5;}.cls-17{fill:#006938;stroke:#016a38;}.cls-18{fill:#d7df27;stroke:#d7df2b;}.cls-19,.cls-59{fill:#00a79d;stroke:#00a79d;}.cls-21{opacity:0.5;}.cls-22,.cls-24,.cls-25,.cls-26,.cls-27,.cls-28,.cls-29,.cls-30,.cls-31,.cls-32,.cls-33,.cls-34,.cls-35,.cls-36,.cls-37,.cls-38,.cls-39,.cls-40,.cls-41,.cls-42,.cls-43,.cls-44,.cls-45,.cls-46,.cls-47,.cls-48,.cls-49,.cls-50,.cls-67,.cls-72,.cls-75,.cls-79{stroke-width:1.5px;}.cls-22{fill:url(#linear-gradient);}.cls-23,.cls-68,.cls-73,.cls-76,.cls-80{opacity:0.75;}.cls-23{font-size:23.89px;}.cls-24{fill:url(#linear-gradient-2);}.cls-25{fill:url(#linear-gradient-3);}.cls-26{fill:url(#linear-gradient-4);}.cls-27{fill:url(#linear-gradient-5);}.cls-28{fill:url(#linear-gradient-6);}.cls-29{fill:url(#linear-gradient-7);}.cls-30{fill:url(#linear-gradient-8);}.cls-31{fill:url(#linear-gradient-9);}.cls-32{fill:url(#linear-gradient-10);}.cls-33{fill:url(#linear-gradient-11);}.cls-34{fill:url(#linear-gradient-12);}.cls-35{fill:url(#linear-gradient-13);}.cls-36{fill:url(#linear-gradient-14);}.cls-37{fill:url(#linear-gradient-15);}.cls-38{fill:url(#linear-gradient-16);}.cls-39{fill:url(#linear-gradient-17);}.cls-40{fill:url(#linear-gradient-18);}.cls-41{fill:url(#linear-gradient-19);}.cls-42{fill:url(#linear-gradient-20);}.cls-43{fill:url(#linear-gradient-21);}.cls-44{fill:url(#linear-gradient-22);}.cls-45{fill:url(#linear-gradient-23);}.cls-46{fill:url(#linear-gradient-24);}.cls-47{fill:url(#linear-gradient-25);}.cls-48{fill:url(#linear-gradient-26);}.cls-49{fill:url(#linear-gradient-27);}.cls-50{fill:url(#linear-gradient-28);}.cls-51,.cls-53,.cls-57,.cls-58{font-size:16.67px;}.cls-51{letter-spacing:-0.06em;}.cls-52{letter-spacing:0em;}.cls-54,.cls-57{letter-spacing:-0.09em;}.cls-55{letter-spacing:0em;}.cls-56{letter-spacing:-0.02em;}.cls-58{letter-spacing:-0.02em;}.cls-60{stroke-width:0.42px;}.cls-61{stroke:#d87ab2;}.cls-62{stroke:#d62a28;}.cls-64{stroke:#2278b5;}.cls-65{fill:#006838;stroke:#006938;}.cls-66{fill:#d7df23;stroke:#d7df23;}.cls-67{fill:url(#linear-gradient-29);}.cls-68{font-size:35.59px;}.cls-69,.cls-77{font-size:24px;}.cls-70{letter-spacing:-0.06em;}.cls-71{letter-spacing:-0.09em;}.cls-72{fill:url(#linear-gradient-30);}.cls-73{font-size:35.82px;}.cls-74{letter-spacing:-0.02em;}.cls-75{fill:url(#linear-gradient-31);}.cls-76{font-size:36.03px;}.cls-77{letter-spacing:-0.02em;}.cls-78{letter-spacing:0em;}.cls-79{fill:url(#linear-gradient-32);}.cls-80{font-size:35.44px;}.cls-81{font-size:39px;}.cls-82{letter-spacing:-0.11em;}.cls-83{font-size:15px;}.cls-84{letter-spacing:-0.08em;}.cls-85{font-size:12px;font-family:ProximaNova-RegularIt, Proxima Nova;font-style:italic;}.cls-86,.cls-87,.cls-88{font-style:normal;}.cls-86{letter-spacing:0em;}.cls-87{letter-spacing:-0.09em;}.cls-89{font-size:30px;}.cls-90{letter-spacing:-0.11em;}.cls-91{letter-spacing:0em;}</style><linearGradient id="linear-gradient" x1="201.51" y1="370.11" x2="260.13" y2="370.11" gradientUnits="userSpaceOnUse"><stop offset="0.29" stop-color="#f57f20"/><stop offset="0.66" stop-color="#00a79d"/></linearGradient><linearGradient id="linear-gradient-2" x1="275.4" y1="384.14" x2="314.05" y2="384.14" gradientUnits="userSpaceOnUse"><stop offset="0.3" stop-color="#d87ab2"/><stop offset="0.34" stop-color="#cd7cb1"/><stop offset="0.42" stop-color="#af83ae"/><stop offset="0.53" stop-color="#7e8da9"/><stop offset="0.65" stop-color="#3c9ba3"/><stop offset="0.76" stop-color="#00a79d"/></linearGradient><linearGradient id="linear-gradient-3" x1="605.26" y1="441.72" x2="655.13" y2="441.72" gradientUnits="userSpaceOnUse"><stop offset="0.34" stop-color="#d7df27"/><stop offset="0.68" stop-color="#f57f20"/></linearGradient><linearGradient id="linear-gradient-4" x1="528.26" y1="465.71" x2="586.89" y2="431.86" gradientUnits="userSpaceOnUse"><stop offset="0.38" stop-color="#006938"/><stop offset="0.76" stop-color="#f57f20"/></linearGradient><linearGradient id="linear-gradient-5" x1="474.51" y1="444.5" x2="523.48" y2="444.5" gradientUnits="userSpaceOnUse"><stop offset="0.28" stop-color="#2278b5"/><stop offset="0.3" stop-color="#3579a8"/><stop offset="0.43" stop-color="#867b6e"/><stop offset="0.53" stop-color="#c27d44"/><stop offset="0.61" stop-color="#e77f2a"/><stop offset="0.65" stop-color="#f57f20"/></linearGradient><linearGradient id="linear-gradient-6" x1="410.5" y1="477" x2="456.23" y2="431.28" gradientUnits="userSpaceOnUse"><stop offset="0.43" stop-color="#9268ad"/><stop offset="0.46" stop-color="#a06b99"/><stop offset="0.67" stop-color="#f57f20"/></linearGradient><linearGradient id="linear-gradient-7" x1="342.86" y1="452.97" x2="391.83" y2="452.97" gradientUnits="userSpaceOnUse"><stop offset="0.32" stop-color="#d62a28"/><stop offset="0.4" stop-color="#dd3e26"/><stop offset="0.56" stop-color="#f17321"/><stop offset="0.59" stop-color="#f57f20"/></linearGradient><linearGradient id="linear-gradient-8" x1="277.04" y1="452.97" x2="326.01" y2="452.97" gradientUnits="userSpaceOnUse"><stop offset="0.25" stop-color="#d87ab2"/><stop offset="0.3" stop-color="#db7ba2"/><stop offset="0.41" stop-color="#e37c79"/><stop offset="0.55" stop-color="#f17e36"/><stop offset="0.6" stop-color="#f57f20"/></linearGradient><linearGradient id="linear-gradient-9" x1="342.86" y1="532.26" x2="382.17" y2="532.26" gradientUnits="userSpaceOnUse"><stop offset="0" stop-color="#d62a28"/><stop offset="1" stop-color="#d87ab2"/></linearGradient><linearGradient id="linear-gradient-10" x1="472.1" y1="519.52" x2="521.06" y2="547.79" gradientUnits="userSpaceOnUse"><stop offset="0" stop-color="#2278b5"/><stop offset="0.38" stop-color="#3478b5"/><stop offset="0.68" stop-color="#d87ab2"/></linearGradient><linearGradient id="linear-gradient-11" x1="533.09" y1="547.79" x2="582.06" y2="519.52" gradientUnits="userSpaceOnUse"><stop offset="0.38" stop-color="#006938"/><stop offset="0.65" stop-color="#d87ab2"/></linearGradient><linearGradient id="linear-gradient-12" x1="418.51" y1="554.86" x2="443" y2="512.45" gradientUnits="userSpaceOnUse"><stop offset="0.35" stop-color="#9268ad"/><stop offset="0.56" stop-color="#d87ab2"/></linearGradient><linearGradient id="linear-gradient-13" x1="606.16" y1="532.26" x2="645.47" y2="532.26" gradientUnits="userSpaceOnUse"><stop offset="0.35" stop-color="#d7df27"/><stop offset="0.71" stop-color="#d87ab2"/></linearGradient><linearGradient id="linear-gradient-14" x1="333.21" y1="384.48" x2="391.83" y2="384.48" gradientUnits="userSpaceOnUse"><stop offset="0.29" stop-color="#d62a28"/><stop offset="0.69" stop-color="#00a79d"/></linearGradient><linearGradient id="linear-gradient-15" x1="398.49" y1="375.71" x2="458.41" y2="375.71" gradientUnits="userSpaceOnUse"><stop offset="0.41" stop-color="#9268ad"/><stop offset="0.61" stop-color="#00a79d"/></linearGradient><linearGradient id="linear-gradient-16" x1="464.85" y1="375.71" x2="523.89" y2="375.71" gradientUnits="userSpaceOnUse"><stop offset="0.39" stop-color="#2278b5"/><stop offset="0.57" stop-color="#00a79d"/></linearGradient><linearGradient id="linear-gradient-17" x1="530.68" y1="375.71" x2="589.3" y2="375.71" gradientUnits="userSpaceOnUse"><stop offset="0.36" stop-color="#006938"/><stop offset="0.64" stop-color="#00a79d"/></linearGradient><linearGradient id="linear-gradient-18" x1="596.5" y1="375.47" x2="655.13" y2="375.47" gradientUnits="userSpaceOnUse"><stop offset="0.32" stop-color="#d7df27"/><stop offset="0.69" stop-color="#00a79d"/></linearGradient><linearGradient id="linear-gradient-19" x1="484.34" y1="628.58" x2="508.82" y2="586.17" gradientUnits="userSpaceOnUse"><stop offset="0.36" stop-color="#2278b5"/><stop offset="0.73" stop-color="#d62a28"/></linearGradient><linearGradient id="linear-gradient-20" x1="399.03" y1="605.98" x2="457.65" y2="605.98" gradientUnits="userSpaceOnUse"><stop offset="0.36" stop-color="#9268ad"/><stop offset="0.61" stop-color="#d62a28"/></linearGradient><linearGradient id="linear-gradient-21" x1="529.57" y1="605.98" x2="579.65" y2="605.98" gradientUnits="userSpaceOnUse"><stop offset="0.39" stop-color="#006938"/><stop offset="0.63" stop-color="#d62a28"/></linearGradient><linearGradient id="linear-gradient-22" x1="605.26" y1="605.98" x2="645.47" y2="605.98" gradientUnits="userSpaceOnUse"><stop offset="0.29" stop-color="#d7df27"/><stop offset="0.65" stop-color="#d62a28"/></linearGradient><linearGradient id="linear-gradient-23" x1="464.85" y1="671.24" x2="523.48" y2="671.24" gradientUnits="userSpaceOnUse"><stop offset="0.39" stop-color="#2278b5"/><stop offset="0.62" stop-color="#9268ad"/></linearGradient><linearGradient id="linear-gradient-24" x1="530.68" y1="744.96" x2="589.3" y2="744.96" gradientUnits="userSpaceOnUse"><stop offset="0.37" stop-color="#006938"/><stop offset="0.65" stop-color="#2278b5"/></linearGradient><linearGradient id="linear-gradient-25" x1="606.16" y1="750.63" x2="655.13" y2="750.63" gradientUnits="userSpaceOnUse"><stop offset="0.28" stop-color="#d7df27"/><stop offset="0.73" stop-color="#2278b5"/></linearGradient><linearGradient id="linear-gradient-26" x1="530.68" y1="671.24" x2="589.3" y2="671.24" gradientUnits="userSpaceOnUse"><stop offset="0.4" stop-color="#006938"/><stop offset="0.63" stop-color="#9268ad"/></linearGradient><linearGradient id="linear-gradient-27" x1="596.5" y1="671.24" x2="655.13" y2="671.24" gradientUnits="userSpaceOnUse"><stop offset="0.32" stop-color="#d7df27"/><stop offset="0.75" stop-color="#9268ad"/></linearGradient><linearGradient id="linear-gradient-28" x1="596.5" y1="818.68" x2="645.47" y2="818.68" gradientUnits="userSpaceOnUse"><stop offset="0.44" stop-color="#d7df27"/><stop offset="0.73" stop-color="#006938"/></linearGradient><linearGradient id="linear-gradient-29" x1="291.63" y1="1075.12" x2="328.1" y2="1011.94" xlink:href="#linear-gradient-12"/><linearGradient id="linear-gradient-30" x1="67.27" y1="1052.58" x2="155.16" y2="1001.84" xlink:href="#linear-gradient-4"/><linearGradient id="linear-gradient-31" x1="453.5" y1="1029.1" x2="541.91" y2="1029.1" xlink:href="#linear-gradient-18"/><linearGradient id="linear-gradient-32" x1="674.57" y1="1074.72" x2="710.88" y2="1011.82" xlink:href="#linear-gradient-19"/></defs><g id="Layer_4" data-name="Layer 4"><rect class="cls-1" width="793" height="1224"/><polygon class="cls-2" points="223.34 809.07 166.87 776.47 166.87 711.26 223.34 678.66 279.82 711.26 279.82 776.47 223.34 809.07"/><polygon class="cls-3" points="222.56 763.98 203.95 753.24 203.95 731.76 222.56 721.02 241.16 731.76 241.16 753.24 222.56 763.98"/><polygon class="cls-4" points="223.34 809.07 166.87 776.47 166.87 711.26 223.34 678.66 279.82 711.26 279.82 776.47 223.34 809.07"/><polygon class="cls-5" points="185.47 765.73 185.47 722 223.34 700.13 261.22 722 261.22 765.73 223.34 787.6 185.47 765.73"/><polygon class="cls-4" points="185.47 765.73 185.47 722 223.34 700.13 261.22 722 261.22 765.73 223.34 787.6 185.47 765.73"/><g id="axes"><line class="cls-6" x1="222.55" y1="743.87" x2="222.55" y2="678.66"/><text class="cls-7" transform="translate(173.13 669.6)">Programming</text><line class="cls-6" x1="222.55" y1="743.87" x2="279.03" y2="711.26"/><text class="cls-7" transform="translate(283.62 709.11)">Data</text><line class="cls-6" x1="222.55" y1="743.87" x2="279.03" y2="776.47"/><text class="cls-7" transform="translate(285.17 785.06)">Graphic<tspan x="0" y="18.41">Design</tspan></text><line class="cls-6" x1="222.55" y1="743.87" x2="222.55" y2="809.07"/><text class="cls-7" transform="translate(182.09 823.04)">Interactivity <tspan x="2.62" y="18.41">and Motion</tspan><tspan x="16.85" y="36.82">Design</tspan></text><line class="cls-6" x1="222.55" y1="743.87" x2="166.08" y2="776.47"/><text class="cls-7" transform="translate(83.09 787.04)"><tspan class="cls-8">S</tspan><tspan x="8.73" y="0">torytelling</tspan></text><line class="cls-6" x1="222.55" y1="743.87" x2="166.08" y2="711.26"/><g id="Leadership_management" data-name="Leadership &amp; management"><text class="cls-7" transform="translate(68.45 700.14)"><tspan class="cls-9">L</tspan><tspan x="7.5" y="0">eadership &amp;</tspan><tspan x="0" y="18.41">Management</tspan></text></g><g id="y_axis" data-name="y axis"><text class="cls-10" transform="translate(218.79 691.48)">3</text><text class="cls-10" transform="translate(218.79 712.96)">2</text><text class="cls-10" transform="translate(218.79 735.21)">1</text></g></g><polygon class="cls-2" points="230.87 327.6 201.56 310.68 201.56 276.83 230.87 259.91 260.18 276.83 260.18 310.68 230.87 327.6"/><polygon class="cls-11" points="230.87 327.6 201.56 310.68 201.56 276.83 230.87 259.91 260.18 276.83 260.18 310.68 230.87 327.6"/><polygon class="cls-5" points="211.21 305.11 211.21 282.4 230.87 271.06 250.53 282.4 250.53 305.11 230.87 316.45 211.21 305.11"/><polygon class="cls-11" points="211.21 305.11 211.21 282.4 230.87 271.06 250.53 282.4 250.53 305.11 230.87 316.45 211.21 305.11"/><path class="cls-12" d="M230.87,259.91l29.31,16.92-19.66,22.5-9.65,5.57-19.66.2V282.41Z"/><polygon class="cls-2" points="296.69 327.6 267.38 310.68 267.38 276.83 296.69 259.91 326 276.83 326 310.68 296.69 327.6"/><polygon class="cls-11" points="296.69 327.6 267.38 310.68 267.38 276.83 296.69 259.91 326 276.83 326 310.68 296.69 327.6"/><polygon class="cls-5" points="277.03 305.11 277.03 282.4 296.69 271.06 316.35 282.4 316.35 305.11 296.69 316.45 277.03 305.11"/><polygon class="cls-11" points="277.03 305.11 277.03 282.4 296.69 271.06 316.35 282.4 316.35 305.11 296.69 316.45 277.03 305.11"/><path class="cls-13" d="M296.69,271.06l9.66,17.12,10,16.92-19.66,22.5L277,305.1V282.41Z"/><polygon class="cls-2" points="362.52 327.6 333.21 310.68 333.21 276.83 362.52 259.91 391.83 276.83 391.83 310.68 362.52 327.6"/><polygon class="cls-11" points="362.52 327.6 333.21 310.68 333.21 276.83 362.52 259.91 391.83 276.83 391.83 310.68 362.52 327.6"/><polygon class="cls-5" points="342.86 305.11 342.86 282.4 362.52 271.06 382.18 282.4 382.18 305.11 362.52 316.45 342.86 305.11"/><polygon class="cls-11" points="342.86 305.11 342.86 282.4 362.52 271.06 382.18 282.4 382.18 305.11 362.52 316.45 342.86 305.11"/><path class="cls-14" d="M362.52,271.06l19.65,11.35V305.1l-19.65,22.5-9.66-28.27-10-16.92Z"/><polygon class="cls-2" points="428.34 327.6 399.03 310.68 399.03 276.83 428.34 259.91 457.65 276.83 457.65 310.68 428.34 327.6"/><polygon class="cls-11" points="428.34 327.6 399.03 310.68 399.03 276.83 428.34 259.91 457.65 276.83 457.65 310.68 428.34 327.6"/><polygon class="cls-5" points="408.68 305.11 408.68 282.4 428.34 271.06 448 282.4 448 305.11 428.34 316.45 408.68 305.11"/><polygon class="cls-11" points="408.68 305.11 408.68 282.4 428.34 271.06 448 282.4 448 305.11 428.34 316.45 408.68 305.11"/><path class="cls-15" d="M428.34,271.06,438,288.18l19.65,22.5-29.31-5.78L399,310.68l9.66-28.27Z"/><polygon class="cls-2" points="494.17 327.6 464.85 310.68 464.85 276.83 494.17 259.91 523.48 276.83 523.48 310.68 494.17 327.6"/><polygon class="cls-11" points="494.17 327.6 464.85 310.68 464.85 276.83 494.17 259.91 523.48 276.83 523.48 310.68 494.17 327.6"/><polygon class="cls-5" points="474.51 305.11 474.51 282.4 494.17 271.06 513.83 282.4 513.83 305.11 494.17 316.45 474.51 305.11"/><polygon class="cls-11" points="474.51 305.11 474.51 282.4 494.17 271.06 513.83 282.4 513.83 305.11 494.17 316.45 474.51 305.11"/><path class="cls-16" d="M494.17,282.61l19.65-.2,9.66,28.27-29.31-5.78-19.66.2V282.41Z"/><polygon class="cls-2" points="559.99 327.6 530.68 310.68 530.68 276.83 559.99 259.91 589.3 276.83 589.3 310.68 559.99 327.6"/><polygon class="cls-11" points="559.99 327.6 530.68 310.68 530.68 276.83 559.99 259.91 589.3 276.83 589.3 310.68 559.99 327.6"/><polygon class="cls-5" points="540.33 305.11 540.33 282.4 559.99 271.06 579.65 282.4 579.65 305.11 559.99 316.45 540.33 305.11"/><polygon class="cls-11" points="540.33 305.11 540.33 282.4 559.99 271.06 579.65 282.4 579.65 305.11 559.99 316.45 540.33 305.11"/><path class="cls-17" d="M560,271.06l19.66,11.35V305.1L560,304.9l-29.31,5.78,19.66-22.5Z"/><polygon class="cls-2" points="625.82 327.6 596.5 310.68 596.5 276.83 625.82 259.91 655.13 276.83 655.13 310.68 625.82 327.6"/><polygon class="cls-11" points="625.82 327.6 596.5 310.68 596.5 276.83 625.82 259.91 655.13 276.83 655.13 310.68 625.82 327.6"/><polygon class="cls-5" points="606.16 305.11 606.16 282.4 625.82 271.06 645.47 282.4 645.47 305.11 625.82 316.45 606.16 305.11"/><polygon class="cls-11" points="606.16 305.11 606.16 282.4 625.82 271.06 645.47 282.4 645.47 305.11 625.82 316.45 606.16 305.11"/><path class="cls-18" d="M625.82,282.61l19.65-.2V305.1l-19.65-.2-19.66.2V282.41Z"/><polygon class="cls-2" points="707.66 411.71 678.65 394.96 678.65 361.47 707.66 344.72 736.66 361.47 736.66 394.96 707.66 411.71"/><polygon class="cls-11" points="707.66 411.71 678.65 394.96 678.65 361.47 707.66 344.72 736.66 361.47 736.66 394.96 707.66 411.71"/><polygon class="cls-5" points="688.2 389.45 688.2 366.98 707.66 355.75 727.11 366.98 727.11 389.45 707.66 400.68 688.2 389.45"/><polygon class="cls-11" points="688.2 389.45 688.2 366.98 707.66 355.75 727.11 366.98 727.11 389.45 707.66 400.68 688.2 389.45"/><path class="cls-19" d="M707.66,355.75l29,5.72-9.55,28-19.45-.2-29,5.71V361.47Z"/><polygon class="cls-2" points="706.87 485.33 677.86 468.59 677.86 435.09 706.87 418.35 735.87 435.09 735.87 468.59 706.87 485.33"/><polygon class="cls-11" points="706.87 485.33 677.86 468.59 677.86 435.09 706.87 418.35 735.87 435.09 735.87 468.59 706.87 485.33"/><polygon class="cls-5" points="687.41 463.07 687.41 440.61 706.87 429.38 726.32 440.61 726.32 463.07 706.87 474.3 687.41 463.07"/><polygon class="cls-11" points="687.41 463.07 687.41 440.61 706.87 429.38 726.32 440.61 726.32 463.07 706.87 474.3 687.41 463.07"/><path class="cls-12" d="M706.87,418.35l29,16.74-19.45,22.27-9.55,5.51-19.45.2V440.61Z"/><polygon class="cls-2" points="707.6 558.29 678.59 541.54 678.59 508.05 707.6 491.3 736.61 508.05 736.61 541.54 707.6 558.29"/><polygon class="cls-11" points="707.6 558.29 678.59 541.54 678.59 508.05 707.6 491.3 736.61 508.05 736.61 541.54 707.6 558.29"/><polygon class="cls-5" points="688.14 536.02 688.14 513.56 707.6 502.33 727.05 513.56 727.05 536.02 707.6 547.26 688.14 536.02"/><polygon class="cls-11" points="688.14 536.02 688.14 513.56 707.6 502.33 727.05 513.56 727.05 536.02 707.6 547.26 688.14 536.02"/><path class="cls-13" d="M707.6,502.33l9.55,16.95,9.9,16.74L707.6,558.29,688.15,536V513.56Z"/><polygon class="cls-2" points="707.54 631.24 678.53 614.49 678.53 581 707.54 564.25 736.55 581 736.55 614.49 707.54 631.24"/><polygon class="cls-11" points="707.54 631.24 678.53 614.49 678.53 581 707.54 564.25 736.55 581 736.55 614.49 707.54 631.24"/><polygon class="cls-5" points="688.09 608.98 688.09 586.51 707.54 575.28 726.99 586.51 726.99 608.98 707.54 620.21 688.09 608.98"/><polygon class="cls-11" points="688.09 608.98 688.09 586.51 707.54 575.28 726.99 586.51 726.99 608.98 707.54 620.21 688.09 608.98"/><path class="cls-14" d="M707.54,575.28,727,586.51V609l-19.45,22.27-9.56-28-9.89-16.75Z"/><polygon class="cls-2" points="710.21 704.19 681.21 687.44 681.21 653.95 710.21 637.2 739.22 653.95 739.22 687.44 710.21 704.19"/><polygon class="cls-11" points="710.21 704.19 681.21 687.44 681.21 653.95 710.21 637.2 739.22 653.95 739.22 687.44 710.21 704.19"/><polygon class="cls-5" points="690.76 681.93 690.76 659.47 710.21 648.23 729.67 659.47 729.67 681.93 710.21 693.16 690.76 681.93"/><polygon class="cls-11" points="690.76 681.93 690.76 659.47 710.21 648.23 729.67 659.47 729.67 681.93 710.21 693.16 690.76 681.93"/><path class="cls-15" d="M710.21,648.24l9.56,16.94,19.45,22.26-29-5.71-29,5.71,9.55-28Z"/><polygon class="cls-2" points="710.15 777.14 681.15 760.4 681.15 726.9 710.15 710.15 739.16 726.9 739.16 760.4 710.15 777.14"/><polygon class="cls-11" points="710.15 777.14 681.15 760.4 681.15 726.9 710.15 710.15 739.16 726.9 739.16 760.4 710.15 777.14"/><polygon class="cls-5" points="690.7 754.88 690.7 732.42 710.15 721.18 729.61 732.42 729.61 754.88 710.15 766.11 690.7 754.88"/><polygon class="cls-11" points="690.7 754.88 690.7 732.42 710.15 721.18 729.61 732.42 729.61 754.88 710.15 766.11 690.7 754.88"/><path class="cls-16" d="M710.15,732.62l19.46-.2,9.55,28-29-5.72-19.45.2V732.42Z"/><polygon class="cls-2" points="710.1 850.1 681.09 833.35 681.09 799.85 710.1 783.11 739.1 799.85 739.1 833.35 710.1 850.1"/><polygon class="cls-11" points="710.1 850.1 681.09 833.35 681.09 799.85 710.1 783.11 739.1 799.85 739.1 833.35 710.1 850.1"/><polygon class="cls-5" points="690.64 827.83 690.64 805.37 710.1 794.14 729.55 805.37 729.55 827.83 710.1 839.07 690.64 827.83"/><polygon class="cls-11" points="690.64 827.83 690.64 805.37 710.1 794.14 729.55 805.37 729.55 827.83 710.1 839.07 690.64 827.83"/><path class="cls-17" d="M710.1,794.14l19.45,11.23v22.46l-19.45-.2-29,5.72,19.45-22.27Z"/><line class="cls-20" x1="192.18" y1="333.27" x2="670.29" y2="333.27"/><line class="cls-20" x1="670.29" y1="333.27" x2="670.29" y2="865.48"/><g class="cls-21"><polygon class="cls-2" points="230.82 412.41 201.51 395.49 201.51 361.64 230.82 344.72 260.13 361.64 260.13 395.49 230.82 412.41"/><polygon class="cls-11" points="230.82 412.41 201.51 395.49 201.51 361.64 230.82 344.72 260.13 361.64 260.13 395.49 230.82 412.41"/><polygon class="cls-5" points="211.16 389.92 211.16 367.22 230.82 355.87 250.48 367.22 250.48 389.92 230.82 401.27 211.16 389.92"/><polygon class="cls-11" points="211.16 389.92 211.16 367.22 230.82 355.87 250.48 367.22 250.48 389.92 230.82 401.27 211.16 389.92"/><path class="cls-12" d="M230.82,344.72l29.31,16.92-19.66,22.5-9.65,5.58-19.66.2v-22.7Z"/><path class="cls-19" d="M230.82,355.87l29.31,5.77-9.66,28.28-19.65-.2-29.31,5.77V361.64Z"/><polygon class="cls-22" points="201.51 361.64 230.82 344.72 260.13 361.64 250.47 389.92 230.82 389.72 201.51 395.49 201.51 361.64"/><text class="cls-23" transform="translate(218.56 385.58)">15</text></g><g class="cls-21"><polygon class="cls-2" points="296.69 412.41 267.38 395.49 267.38 361.64 296.69 344.72 326 361.64 326 395.49 296.69 412.41"/><polygon class="cls-11" points="296.69 412.41 267.38 395.49 267.38 361.64 296.69 344.72 326 361.64 326 395.49 296.69 412.41"/><polygon class="cls-5" points="277.03 389.92 277.03 367.22 296.69 355.87 316.35 367.22 316.35 389.92 296.69 401.27 277.03 389.92"/><polygon class="cls-11" points="277.03 389.92 277.03 367.22 296.69 355.87 316.35 367.22 316.35 389.92 296.69 401.27 277.03 389.92"/><path class="cls-13" d="M296.69,355.87,306.35,373l10,16.93-19.66,22.49L277,389.92v-22.7Z"/><path class="cls-19" d="M296.69,355.87,326,361.64l-9.66,28.28-19.66-.2-29.31,5.77V361.64Z"/><polygon class="cls-24" points="267.38 361.64 296.69 355.87 326 361.64 316.35 389.92 296.69 412.41 267.38 395.49 267.38 361.64"/><text class="cls-23" transform="translate(284.44 385.58)">16</text></g><g class="cls-21"><polygon class="cls-2" points="625.82 486.81 596.5 469.89 596.5 436.04 625.82 419.12 655.13 436.04 655.13 469.89 625.82 486.81"/><polygon class="cls-11" points="625.82 486.81 596.5 469.89 596.5 436.04 625.82 419.12 655.13 436.04 655.13 469.89 625.82 486.81"/><polygon class="cls-5" points="606.16 464.32 606.16 441.62 625.82 430.27 645.47 441.62 645.47 464.32 625.82 475.67 606.16 464.32"/><polygon class="cls-11" points="606.16 464.32 606.16 441.62 625.82 430.27 645.47 441.62 645.47 464.32 625.82 475.67 606.16 464.32"/><path class="cls-18" d="M625.82,441.82l19.65-.2v22.7l-19.65-.2-19.66.2v-22.7Z"/><path class="cls-12" d="M625.82,419.12,655.13,436l-19.66,22.5-9.65,5.58-19.66.2v-22.7Z"/><polygon class="cls-25" points="605.26 441.62 625.82 419.12 655.13 436.04 645.47 464.31 625.82 464.12 606.16 464.31 605.26 441.62"/><text class="cls-23" transform="translate(613.56 459.98)">13</text></g><polygon class="cls-2" points="559.99 486.81 530.68 469.89 530.68 436.04 559.99 419.12 589.3 436.04 589.3 469.89 559.99 486.81"/><polygon class="cls-11" points="559.99 486.81 530.68 469.89 530.68 436.04 559.99 419.12 589.3 436.04 589.3 469.89 559.99 486.81"/><polygon class="cls-5" points="540.33 464.32 540.33 441.62 559.99 430.27 579.65 441.62 579.65 464.32 559.99 475.67 540.33 464.32"/><polygon class="cls-11" points="540.33 464.32 540.33 441.62 559.99 430.27 579.65 441.62 579.65 464.32 559.99 475.67 540.33 464.32"/><path class="cls-17" d="M560,430.27l19.66,11.35v22.7l-19.66-.2-29.31,5.77,19.66-22.5Z"/><path class="cls-12" d="M560,419.12,589.3,436l-19.65,22.5L560,464.12l-19.66.2v-22.7Z"/><polygon class="cls-26" points="540.33 441.62 559.99 419.12 589.3 436.04 579.65 464.31 559.99 464.12 530.68 469.89 540.33 441.62"/><text class="cls-23" transform="translate(547.73 459.98)">14</text><polygon class="cls-2" points="494.17 486.81 464.85 469.89 464.85 436.04 494.17 419.12 523.48 436.04 523.48 469.89 494.17 486.81"/><polygon class="cls-11" points="494.17 486.81 464.85 469.89 464.85 436.04 494.17 419.12 523.48 436.04 523.48 469.89 494.17 486.81"/><polygon class="cls-5" points="474.51 464.32 474.51 441.62 494.17 430.27 513.83 441.62 513.83 464.32 494.17 475.67 474.51 464.32"/><polygon class="cls-11" points="474.51 464.32 474.51 441.62 494.17 430.27 513.83 441.62 513.83 464.32 494.17 475.67 474.51 464.32"/><path class="cls-16" d="M494.17,441.82l19.65-.2,9.66,28.27-29.31-5.77-19.66.2v-22.7Z"/><path class="cls-12" d="M494.17,419.12,523.48,436l-19.66,22.5-9.65,5.58-19.66.2v-22.7Z"/><polygon class="cls-27" points="474.51 441.62 494.17 419.12 523.48 436.04 523.48 469.89 494.17 464.12 474.51 464.31 474.51 441.62"/><text class="cls-23" transform="translate(481.91 459.98)">14</text><g class="cls-21"><polygon class="cls-2" points="428.34 486.81 399.03 469.89 399.03 436.04 428.34 419.12 457.65 436.04 457.65 469.89 428.34 486.81"/><polygon class="cls-11" points="428.34 486.81 399.03 469.89 399.03 436.04 428.34 419.12 457.65 436.04 457.65 469.89 428.34 486.81"/><polygon class="cls-5" points="408.68 464.32 408.68 441.62 428.34 430.27 448 441.62 448 464.32 428.34 475.67 408.68 464.32"/><polygon class="cls-11" points="408.68 464.32 408.68 441.62 428.34 430.27 448 441.62 448 464.32 428.34 475.67 408.68 464.32"/><path class="cls-15" d="M428.34,430.27,438,447.39l19.65,22.5-29.31-5.77L399,469.89l9.66-28.27Z"/><path class="cls-12" d="M428.34,419.12,457.65,436,438,458.54l-9.66,5.58-19.65.2v-22.7Z"/><polygon class="cls-28" points="408.69 441.62 428.34 419.12 457.65 436.04 457.65 469.89 429.35 464.31 399.03 469.89 408.69 441.62"/><text class="cls-23" transform="translate(416.09 459.98)">15</text></g><g class="cls-21"><polygon class="cls-2" points="362.52 486.81 333.21 469.89 333.21 436.04 362.52 419.12 391.83 436.04 391.83 469.89 362.52 486.81"/><polygon class="cls-11" points="362.52 486.81 333.21 469.89 333.21 436.04 362.52 419.12 391.83 436.04 391.83 469.89 362.52 486.81"/><polygon class="cls-5" points="342.86 464.32 342.86 441.62 362.52 430.27 382.18 441.62 382.18 464.32 362.52 475.67 342.86 464.32"/><polygon class="cls-11" points="342.86 464.32 342.86 441.62 362.52 430.27 382.18 441.62 382.18 464.32 362.52 475.67 342.86 464.32"/><path class="cls-14" d="M362.52,430.27l19.65,11.35v22.7l-19.65,22.49-9.66-28.27-10-16.92Z"/><path class="cls-12" d="M362.52,419.12,391.83,436l-19.66,22.5-9.65,5.58-19.66.2v-22.7Z"/><polygon class="cls-29" points="342.86 441.62 362.52 419.12 391.83 436.04 382.17 464.31 362.52 486.81 342.86 464.31 342.86 441.62"/><text class="cls-23" transform="translate(350.26 459.98)">15</text></g><g class="cls-21"><polygon class="cls-2" points="296.69 486.81 267.38 469.89 267.38 436.04 296.69 419.12 326 436.04 326 469.89 296.69 486.81"/><polygon class="cls-11" points="296.69 486.81 267.38 469.89 267.38 436.04 296.69 419.12 326 436.04 326 469.89 296.69 486.81"/><polygon class="cls-5" points="277.03 464.32 277.03 441.62 296.69 430.27 316.35 441.62 316.35 464.32 296.69 475.67 277.03 464.32"/><polygon class="cls-11" points="277.03 464.32 277.03 441.62 296.69 430.27 316.35 441.62 316.35 464.32 296.69 475.67 277.03 464.32"/><path class="cls-13" d="M296.69,430.27l9.66,17.12,10,16.93-19.66,22.49L277,464.32v-22.7Z"/><path class="cls-12" d="M296.69,419.12,326,436l-19.66,22.5-9.66,5.58-19.65.2v-22.7Z"/><polygon class="cls-30" points="277.04 441.62 296.69 419.12 326 436.04 316.35 464.31 296.69 486.81 277.04 464.31 277.04 441.62"/><text class="cls-23" transform="translate(284.44 459.98)">15</text></g><g class="cls-21"><polygon class="cls-2" points="362.52 560.53 333.21 543.61 333.21 509.76 362.52 492.84 391.83 509.76 391.83 543.61 362.52 560.53"/><polygon class="cls-11" points="362.52 560.53 333.21 543.61 333.21 509.76 362.52 492.84 391.83 509.76 391.83 543.61 362.52 560.53"/><polygon class="cls-5" points="342.86 538.04 342.86 515.34 362.52 503.99 382.18 515.34 382.18 538.04 362.52 549.39 342.86 538.04"/><polygon class="cls-11" points="342.86 538.04 342.86 515.34 362.52 503.99 382.18 515.34 382.18 538.04 362.52 549.39 342.86 538.04"/><path class="cls-14" d="M362.52,504l19.65,11.35V538l-19.65,22.5-9.66-28.27-10-16.92Z"/><path class="cls-13" d="M362.52,504l9.65,17.12,10,16.92-19.65,22.5L342.86,538V515.34Z"/><polygon class="cls-31" points="342.86 515.34 362.52 503.99 382.17 515.34 382.17 538.03 362.52 560.53 342.86 538.03 342.86 515.34"/><text class="cls-23" transform="translate(350.26 533.7)">13</text></g><polygon class="cls-2" points="494.17 560.53 464.85 543.61 464.85 509.76 494.17 492.84 523.48 509.76 523.48 543.61 494.17 560.53"/><polygon class="cls-11" points="494.17 560.53 464.85 543.61 464.85 509.76 494.17 492.84 523.48 509.76 523.48 543.61 494.17 560.53"/><polygon class="cls-5" points="474.51 538.04 474.51 515.34 494.17 503.99 513.83 515.34 513.83 538.04 494.17 549.39 474.51 538.04"/><polygon class="cls-11" points="474.51 538.04 474.51 515.34 494.17 503.99 513.83 515.34 513.83 538.04 494.17 549.39 474.51 538.04"/><path class="cls-16" d="M494.17,515.54l19.65-.2,9.66,28.27-29.31-5.77-19.66.19V515.34Z"/><path class="cls-13" d="M494.17,504l9.65,17.12,10,16.92-19.65,22.5L474.51,538V515.34Z"/><polygon class="cls-32" points="474.51 515.34 494.17 503.99 513.82 515.34 523.48 543.61 494.17 560.53 474.51 538.03 474.51 515.34"/><text class="cls-23" transform="translate(481.91 533.7)">14</text><polygon class="cls-2" points="559.99 560.53 530.68 543.61 530.68 509.76 559.99 492.84 589.3 509.76 589.3 543.61 559.99 560.53"/><polygon class="cls-11" points="559.99 560.53 530.68 543.61 530.68 509.76 559.99 492.84 589.3 509.76 589.3 543.61 559.99 560.53"/><polygon class="cls-5" points="540.33 538.04 540.33 515.34 559.99 503.99 579.65 515.34 579.65 538.04 559.99 549.39 540.33 538.04"/><polygon class="cls-11" points="540.33 538.04 540.33 515.34 559.99 503.99 579.65 515.34 579.65 538.04 559.99 549.39 540.33 538.04"/><path class="cls-17" d="M560,504l19.66,11.35V538L560,537.84l-29.31,5.77,19.66-22.5Z"/><path class="cls-13" d="M560,504l9.66,17.12,10,16.92L560,560.53,540.33,538V515.34Z"/><polygon class="cls-33" points="540.33 515.34 559.99 503.99 579.65 515.34 579.65 538.03 559.99 560.53 530.68 543.61 540.33 515.34"/><text class="cls-23" transform="translate(547.73 533.7)">14</text><polygon class="cls-2" points="428.34 560.53 399.03 543.61 399.03 509.76 428.34 492.84 457.65 509.76 457.65 543.61 428.34 560.53"/><polygon class="cls-11" points="428.34 560.53 399.03 543.61 399.03 509.76 428.34 492.84 457.65 509.76 457.65 543.61 428.34 560.53"/><polygon class="cls-5" points="408.68 538.04 408.68 515.34 428.34 503.99 448 515.34 448 538.04 428.34 549.39 408.68 538.04"/><polygon class="cls-11" points="408.68 538.04 408.68 515.34 428.34 503.99 448 515.34 448 538.04 428.34 549.39 408.68 538.04"/><path class="cls-15" d="M428.34,504,438,521.11l19.65,22.5-29.31-5.77L399,543.61l9.66-28.27Z"/><path class="cls-13" d="M428.34,504,438,521.11,448,538l-19.66,22.5L408.69,538V515.34Z"/><polygon class="cls-34" points="408.69 515.34 428.34 503.99 438 521.11 457.65 543.61 428.34 560.53 399.03 543.61 408.69 515.34"/><text class="cls-23" transform="translate(416.09 533.7)">14</text><g class="cls-21"><polygon class="cls-2" points="625.82 560.53 596.5 543.61 596.5 509.76 625.82 492.84 655.13 509.76 655.13 543.61 625.82 560.53"/><polygon class="cls-11" points="625.82 560.53 596.5 543.61 596.5 509.76 625.82 492.84 655.13 509.76 655.13 543.61 625.82 560.53"/><polygon class="cls-5" points="606.16 538.04 606.16 515.34 625.82 503.99 645.47 515.34 645.47 538.04 625.82 549.39 606.16 538.04"/><polygon class="cls-11" points="606.16 538.04 606.16 515.34 625.82 503.99 645.47 515.34 645.47 538.04 625.82 549.39 606.16 538.04"/><path class="cls-18" d="M625.82,515.54l19.65-.2V538l-19.65-.19-19.66.19V515.34Z"/><path class="cls-13" d="M625.82,504l9.65,17.12,10,16.92-19.65,22.5L606.16,538V515.34Z"/><polygon class="cls-35" points="606.16 515.34 625.82 503.99 645.47 515.34 645.47 538.03 625.82 560.53 606.16 538.03 606.16 515.34"/><text class="cls-23" transform="translate(613.56 533.7)">13</text></g><g class="cls-21"><polygon class="cls-2" points="362.52 412.41 333.21 395.49 333.21 361.64 362.52 344.72 391.83 361.64 391.83 395.49 362.52 412.41"/><polygon class="cls-11" points="362.52 412.41 333.21 395.49 333.21 361.64 362.52 344.72 391.83 361.64 391.83 395.49 362.52 412.41"/><polygon class="cls-5" points="342.86 389.92 342.86 367.22 362.52 355.87 382.18 367.22 382.18 389.92 362.52 401.27 342.86 389.92"/><polygon class="cls-11" points="342.86 389.92 342.86 367.22 362.52 355.87 382.18 367.22 382.18 389.92 362.52 401.27 342.86 389.92"/><path class="cls-14" d="M362.52,355.87l19.65,11.35v22.7l-19.65,22.49-9.66-28.27-10-16.92Z"/><path class="cls-19" d="M362.52,355.87l29.31,5.77-9.66,28.28-19.65-.2-29.31,5.77V361.64Z"/><polygon class="cls-36" points="333.21 361.64 362.52 355.87 391.83 361.64 382.17 389.92 362.52 413.09 333.21 395.49 333.21 361.64"/><text class="cls-23" transform="translate(350.26 385.92)">16</text></g><g class="cls-21"><polygon class="cls-2" points="428.34 412.41 399.03 395.49 399.03 361.64 428.34 344.72 457.65 361.64 457.65 395.49 428.34 412.41"/><polygon class="cls-11" points="428.34 412.41 399.03 395.49 399.03 361.64 428.34 344.72 457.65 361.64 457.65 395.49 428.34 412.41"/><polygon class="cls-5" points="408.68 389.92 408.68 367.22 428.34 355.87 448 367.22 448 389.92 428.34 401.27 408.68 389.92"/><polygon class="cls-11" points="408.68 389.92 408.68 367.22 428.34 355.87 448 367.22 448 389.92 428.34 401.27 408.68 389.92"/><path class="cls-15" d="M428.34,355.87,438,373l19.65,22.5-29.31-5.77L399,395.49l9.66-28.27Z"/><path class="cls-19" d="M428.34,355.87l29.31,5.77L448,389.92l-19.66-.2L399,395.49V361.64Z"/><polygon class="cls-37" points="399.03 361.64 428.34 355.44 457.65 361.64 458.41 395.97 428.34 389.72 398.49 395.97 399.03 361.64"/><text class="cls-23" transform="translate(416.09 385.58)">15</text></g><g class="cls-21"><polygon class="cls-2" points="494.17 412.41 464.85 395.49 464.85 361.64 494.17 344.72 523.48 361.64 523.48 395.49 494.17 412.41"/><polygon class="cls-11" points="494.17 412.41 464.85 395.49 464.85 361.64 494.17 344.72 523.48 361.64 523.48 395.49 494.17 412.41"/><polygon class="cls-5" points="474.51 389.92 474.51 367.22 494.17 355.87 513.83 367.22 513.83 389.92 494.17 401.27 474.51 389.92"/><polygon class="cls-11" points="474.51 389.92 474.51 367.22 494.17 355.87 513.83 367.22 513.83 389.92 494.17 401.27 474.51 389.92"/><path class="cls-16" d="M494.17,367.42l19.65-.2,9.66,28.27-29.31-5.77-19.66.2v-22.7Z"/><path class="cls-19" d="M494.17,355.87l29.31,5.77-9.66,28.28-19.65-.2-29.32,5.77V361.64Z"/><polygon class="cls-38" points="464.85 361.64 494.17 355.44 523.48 361.64 523.89 395.97 494.17 389.72 464.85 395.49 464.85 361.64"/><text class="cls-23" transform="translate(481.91 385.58)">15</text></g><g class="cls-21"><polygon class="cls-2" points="559.99 412.41 530.68 395.49 530.68 361.64 559.99 344.72 589.3 361.64 589.3 395.49 559.99 412.41"/><polygon class="cls-11" points="559.99 412.41 530.68 395.49 530.68 361.64 559.99 344.72 589.3 361.64 589.3 395.49 559.99 412.41"/><polygon class="cls-5" points="540.33 389.92 540.33 367.22 559.99 355.87 579.65 367.22 579.65 389.92 559.99 401.27 540.33 389.92"/><polygon class="cls-11" points="540.33 389.92 540.33 367.22 559.99 355.87 579.65 367.22 579.65 389.92 559.99 401.27 540.33 389.92"/><path class="cls-17" d="M560,355.87l19.66,11.35v22.7l-19.66-.2-29.31,5.77L550.34,373Z"/><path class="cls-19" d="M560,355.87l29.31,5.77-9.65,28.28-19.66-.2-29.31,5.77V361.64Z"/><polygon class="cls-39" points="530.68 361.12 559.99 355.44 589.3 361.64 579.65 389.92 559.99 389.72 530.68 395.97 530.68 361.12"/><text class="cls-23" transform="translate(547.73 385.58)">15</text></g><polygon class="cls-2" points="625.82 412.41 596.5 395.49 596.5 361.64 625.82 344.72 655.13 361.64 655.13 395.49 625.82 412.41"/><polygon class="cls-11" points="625.82 412.41 596.5 395.49 596.5 361.64 625.82 344.72 655.13 361.64 655.13 395.49 625.82 412.41"/><polygon class="cls-5" points="606.16 389.92 606.16 367.22 625.82 355.87 645.47 367.22 645.47 389.92 625.82 401.27 606.16 389.92"/><polygon class="cls-11" points="606.16 389.92 606.16 367.22 625.82 355.87 645.47 367.22 645.47 389.92 625.82 401.27 606.16 389.92"/><path class="cls-18" d="M625.82,367.42l19.65-.2v22.7l-19.65-.2-19.66.2v-22.7Z"/><path class="cls-19" d="M625.82,355.87l29.31,5.77-9.66,28.28-19.65-.2-29.32,5.77V361.64Z"/><polygon class="cls-40" points="596.5 361.22 625.82 355.44 655.13 361.64 645.47 389.92 625.82 389.72 596.5 395.49 596.5 361.22"/><text class="cls-23" transform="translate(613.56 385.58)">14</text><polygon class="cls-2" points="494.17 634.25 464.85 617.33 464.85 583.48 494.17 566.56 523.48 583.48 523.48 617.33 494.17 634.25"/><polygon class="cls-11" points="494.17 634.25 464.85 617.33 464.85 583.48 494.17 566.56 523.48 583.48 523.48 617.33 494.17 634.25"/><polygon class="cls-5" points="474.51 611.75 474.51 589.05 494.17 577.71 513.83 589.05 513.83 611.75 494.17 623.11 474.51 611.75"/><polygon class="cls-11" points="474.51 611.75 474.51 589.05 494.17 577.71 513.83 589.05 513.83 611.75 494.17 623.11 474.51 611.75"/><path class="cls-16" d="M494.17,589.26l19.65-.2,9.66,28.27-29.31-5.78-19.66.2V589.06Z"/><path class="cls-14" d="M494.17,577.71l19.65,11.35v22.69l-19.65,22.5L484.51,606l-10-16.92Z"/><polygon class="cls-41" points="474.51 589.06 494.17 577.71 513.82 589.06 523.48 617.33 494.17 634.25 474.51 611.75 474.51 589.06"/><text class="cls-23" transform="translate(481.91 607.42)">14</text><g class="cls-21"><polygon class="cls-2" points="428.34 634.25 399.03 617.33 399.03 583.48 428.34 566.56 457.65 583.48 457.65 617.33 428.34 634.25"/><polygon class="cls-11" points="428.34 634.25 399.03 617.33 399.03 583.48 428.34 566.56 457.65 583.48 457.65 617.33 428.34 634.25"/><polygon class="cls-5" points="408.68 611.75 408.68 589.05 428.34 577.71 448 589.05 448 611.75 428.34 623.11 408.68 611.75"/><polygon class="cls-11" points="408.68 611.75 408.68 589.05 428.34 577.71 448 589.05 448 611.75 428.34 623.11 408.68 611.75"/><path class="cls-15" d="M428.34,577.71,438,594.83l19.65,22.5-29.31-5.78L399,617.33l9.66-28.27Z"/><path class="cls-14" d="M428.34,577.71,448,589.06v22.69l-19.66,22.5L418.69,606l-10-16.92Z"/><polygon class="cls-42" points="408.69 589.06 428.34 577.71 448 589.06 457.65 617.33 428.34 634.25 399.03 617.33 408.69 589.06"/><text class="cls-23" transform="translate(416.09 607.42)">15</text></g><polygon class="cls-2" points="559.99 634.25 530.68 617.33 530.68 583.48 559.99 566.56 589.3 583.48 589.3 617.33 559.99 634.25"/><polygon class="cls-11" points="559.99 634.25 530.68 617.33 530.68 583.48 559.99 566.56 589.3 583.48 589.3 617.33 559.99 634.25"/><polygon class="cls-5" points="540.33 611.75 540.33 589.05 559.99 577.71 579.65 589.05 579.65 611.75 559.99 623.11 540.33 611.75"/><polygon class="cls-11" points="540.33 611.75 540.33 589.05 559.99 577.71 579.65 589.05 579.65 611.75 559.99 623.11 540.33 611.75"/><path class="cls-17" d="M560,577.71l19.66,11.35v22.69l-19.66-.2-29.31,5.78,19.66-22.5Z"/><path class="cls-14" d="M560,577.71l19.66,11.35v22.69L560,634.25,550.34,606l-10-16.92Z"/><polygon class="cls-43" points="540.33 589.06 559.99 577.71 579.65 589.06 579.65 611.75 559.99 634.25 529.57 617.33 540.33 589.06"/><text class="cls-23" transform="translate(547.73 607.42)">14</text><g class="cls-21"><polygon class="cls-2" points="625.82 634.25 596.5 617.33 596.5 583.48 625.82 566.56 655.13 583.48 655.13 617.33 625.82 634.25"/><polygon class="cls-11" points="625.82 634.25 596.5 617.33 596.5 583.48 625.82 566.56 655.13 583.48 655.13 617.33 625.82 634.25"/><polygon class="cls-5" points="606.16 611.75 606.16 589.05 625.82 577.71 645.47 589.05 645.47 611.75 625.82 623.11 606.16 611.75"/><polygon class="cls-11" points="606.16 611.75 606.16 589.05 625.82 577.71 645.47 589.05 645.47 611.75 625.82 623.11 606.16 611.75"/><path class="cls-18" d="M625.82,589.26l19.65-.2v22.69l-19.65-.2-19.66.2V589.06Z"/><path class="cls-14" d="M625.82,577.71l19.65,11.35v22.69l-19.65,22.5L616.16,606l-10-16.92Z"/><polygon class="cls-44" points="605.26 589.06 625.82 577.71 645.47 589.06 645.47 611.75 625.82 634.25 605.26 611.75 605.26 589.06"/><text class="cls-23" transform="translate(613.56 607.42)">13</text></g><g class="cls-21"><polygon class="cls-2" points="494.17 707.97 464.85 691.05 464.85 657.2 494.17 640.28 523.48 657.2 523.48 691.05 494.17 707.97"/><polygon class="cls-11" points="494.17 707.97 464.85 691.05 464.85 657.2 494.17 640.28 523.48 657.2 523.48 691.05 494.17 707.97"/><polygon class="cls-5" points="474.51 685.48 474.51 662.77 494.17 651.42 513.83 662.77 513.83 685.48 494.17 696.83 474.51 685.48"/><polygon class="cls-11" points="474.51 685.48 474.51 662.77 494.17 651.42 513.83 662.77 513.83 685.48 494.17 696.83 474.51 685.48"/><path class="cls-16" d="M494.17,663l19.65-.2,9.66,28.27-29.31-5.78-19.66.2V662.78Z"/><path class="cls-15" d="M494.17,651.43l9.65,17.12,19.66,22.5-29.31-5.78-29.32,5.78,9.66-28.27Z"/><polygon class="cls-45" points="474.51 662.78 494.17 651.43 513.82 662.78 523.48 691.05 494.17 685.27 464.85 691.05 474.51 662.78"/><text class="cls-23" transform="translate(481.91 681.14)">13</text></g><g class="cls-21"><polygon class="cls-2" points="559.99 781.69 530.68 764.77 530.68 730.92 559.99 714 589.3 730.92 589.3 764.77 559.99 781.69"/><polygon class="cls-11" points="559.99 781.69 530.68 764.77 530.68 730.92 559.99 714 589.3 730.92 589.3 764.77 559.99 781.69"/><polygon class="cls-5" points="540.33 759.19 540.33 736.49 559.99 725.14 579.65 736.49 579.65 759.19 559.99 770.54 540.33 759.19"/><polygon class="cls-11" points="540.33 759.19 540.33 736.49 559.99 725.14 579.65 736.49 579.65 759.19 559.99 770.54 540.33 759.19"/><path class="cls-17" d="M560,725.15l19.66,11.35v22.69L560,759l-29.31,5.78,19.66-22.5Z"/><path class="cls-16" d="M560,736.69l19.66-.19,9.65,28.27L560,759l-19.66.2V736.5Z"/><polygon class="cls-46" points="539.47 736.5 559.99 725.15 580.51 736.5 589.3 764.77 559.99 758.99 530.68 764.77 539.47 736.5"/><text class="cls-23" transform="translate(547.73 754.86)">13</text></g><g class="cls-21"><polygon class="cls-2" points="625.82 781.69 596.5 764.77 596.5 730.92 625.82 714 655.13 730.92 655.13 764.77 625.82 781.69"/><polygon class="cls-11" points="625.82 781.69 596.5 764.77 596.5 730.92 625.82 714 655.13 730.92 655.13 764.77 625.82 781.69"/><polygon class="cls-5" points="606.16 759.19 606.16 736.49 625.82 725.14 645.47 736.49 645.47 759.19 625.82 770.54 606.16 759.19"/><polygon class="cls-11" points="606.16 759.19 606.16 736.49 625.82 725.14 645.47 736.49 645.47 759.19 625.82 770.54 606.16 759.19"/><path class="cls-18" d="M625.82,736.69l19.65-.19v22.69l-19.65-.2-19.66.2V736.5Z"/><path class="cls-16" d="M625.82,736.69l19.65-.19,9.66,28.27L625.82,759l-19.66.2V736.5Z"/><polygon class="cls-47" points="606.16 759.19 606.16 736.5 645.47 736.5 655.13 764.77 625.82 758.99 606.16 759.19"/><text class="cls-23" transform="translate(613.56 754.86)">11</text></g><g class="cls-21"><polygon class="cls-2" points="559.99 707.97 530.68 691.05 530.68 657.2 559.99 640.28 589.3 657.2 589.3 691.05 559.99 707.97"/><polygon class="cls-11" points="559.99 707.97 530.68 691.05 530.68 657.2 559.99 640.28 589.3 657.2 589.3 691.05 559.99 707.97"/><polygon class="cls-5" points="540.33 685.48 540.33 662.77 559.99 651.42 579.65 662.77 579.65 685.48 559.99 696.83 540.33 685.48"/><polygon class="cls-11" points="540.33 685.48 540.33 662.77 559.99 651.42 579.65 662.77 579.65 685.48 559.99 696.83 540.33 685.48"/><path class="cls-17" d="M560,651.43l19.66,11.35v22.69l-19.66-.2-29.31,5.78,19.66-22.5Z"/><path class="cls-15" d="M560,651.43l9.66,17.12,19.65,22.5L560,685.27l-29.31,5.78,9.65-28.27Z"/><polygon class="cls-48" points="530.68 691.05 540.33 662.78 559.99 651.43 579.65 662.78 589.3 691.05 561 685.47 530.68 691.05"/><text class="cls-23" transform="translate(547.73 681.14)">13</text></g><g class="cls-21"><polygon class="cls-2" points="625.82 707.97 596.5 691.05 596.5 657.2 625.82 640.28 655.13 657.2 655.13 691.05 625.82 707.97"/><polygon class="cls-11" points="625.82 707.97 596.5 691.05 596.5 657.2 625.82 640.28 655.13 657.2 655.13 691.05 625.82 707.97"/><polygon class="cls-5" points="606.16 685.48 606.16 662.77 625.82 651.42 645.47 662.77 645.47 685.48 625.82 696.83 606.16 685.48"/><polygon class="cls-11" points="606.16 685.48 606.16 662.77 625.82 651.42 645.47 662.77 645.47 685.48 625.82 696.83 606.16 685.48"/><path class="cls-18" d="M625.82,663l19.65-.2v22.69l-19.65-.2-19.66.2V662.78Z"/><path class="cls-15" d="M625.82,651.43l9.65,17.12,19.66,22.5-29.31-5.78-29.32,5.78,9.66-28.27Z"/><polygon class="cls-49" points="606.16 662.78 625.82 651.43 645.47 662.78 655.13 691.05 625.82 685.27 596.5 691.05 606.16 662.78"/><text class="cls-23" transform="translate(613.56 681.14)">12</text></g><g class="cls-21"><polygon class="cls-2" points="625.82 855.41 596.5 838.49 596.5 804.64 625.82 787.72 655.13 804.64 655.13 838.49 625.82 855.41"/><polygon class="cls-11" points="625.82 855.41 596.5 838.49 596.5 804.64 625.82 787.72 655.13 804.64 655.13 838.49 625.82 855.41"/><polygon class="cls-5" points="606.16 832.91 606.16 810.21 625.82 798.86 645.47 810.21 645.47 832.91 625.82 844.26 606.16 832.91"/><polygon class="cls-11" points="606.16 832.91 606.16 810.21 625.82 798.86 645.47 810.21 645.47 832.91 625.82 844.26 606.16 832.91"/><path class="cls-18" d="M625.82,810.41l19.65-.2v22.7l-19.65-.2-19.66.2v-22.7Z"/><path class="cls-17" d="M625.82,798.87l19.65,11.34v22.7l-19.65-.2-29.32,5.78L616.16,816Z"/><polygon class="cls-50" points="596.5 838.49 606.16 810.22 625.82 798.87 645.47 810.22 645.47 832.91 625.82 832.71 596.5 838.49"/><text class="cls-23" transform="translate(613.56 828.58)">12</text></g><text class="cls-51" transform="translate(211.24 543.62)">V<tspan class="cls-52" x="9.92" y="0">aishnavi</tspan></text><text class="cls-53" transform="translate(208.8 565.53)">Dani</text><text class="cls-53" transform="translate(210.39 587.44)"><tspan class="cls-54">Y</tspan><tspan class="cls-55" x="8.94" y="0">uri</tspan><tspan class="cls-56" x="27.38" y="0">k</tspan><tspan x="35.56" y="0">o</tspan></text><text class="cls-57" transform="translate(209.82 609.36)">Y<tspan class="cls-55" x="8.94" y="0">uhan</tspan></text><text class="cls-58" transform="translate(92.75 544.06)">K<tspan class="cls-52" x="9.74" y="0">athleen</tspan></text><text class="cls-53" transform="translate(91.59 565.97)">Joli</text><text class="cls-57" transform="translate(91.99 587.88)">Y<tspan class="cls-55" x="8.94" y="0">ujia</tspan></text><text class="cls-53" transform="translate(91.01 609.79)">Naveen</text><polygon class="cls-59" points="80.2 530.82 72.36 530.82 68.45 537.6 72.36 544.39 80.2 544.39 84.11 537.6 80.2 530.82"/><polygon class="cls-60" points="80.2 553.54 72.36 553.54 68.45 560.33 72.36 567.11 80.2 567.11 84.11 560.33 80.2 553.54"/><polygon class="cls-61" points="80.2 576.27 72.36 576.27 68.45 583.05 72.36 589.83 80.2 589.83 84.11 583.05 80.2 576.27"/><polygon class="cls-62" points="80.2 598.99 72.36 598.99 68.45 605.77 72.36 612.56 80.2 612.56 84.11 605.77 80.2 598.99"/><polygon class="cls-63" points="197.84 530.85 190 530.85 186.09 537.63 190 544.41 197.84 544.41 201.75 537.63 197.84 530.85"/><polygon class="cls-64" points="197.84 553.57 190 553.57 186.09 560.35 190 567.14 197.84 567.14 201.75 560.35 197.84 553.57"/><polygon class="cls-65" points="197.84 576.29 190 576.29 186.09 583.08 190 589.86 197.84 589.86 201.75 583.08 197.84 576.29"/><polygon class="cls-66" points="197.84 599.02 190 599.02 186.09 605.8 190 612.58 197.84 612.58 201.75 605.8 197.84 599.02"/><polygon class="cls-2" points="306.27 1083.57 262.61 1058.36 262.61 1007.94 306.27 982.73 349.94 1007.94 349.94 1058.36 306.27 1083.57"/><polygon class="cls-11" points="306.27 1083.57 262.61 1058.36 262.61 1007.94 306.27 982.73 349.94 1007.94 349.94 1058.36 306.27 1083.57"/><polygon class="cls-5" points="276.99 1050.06 276.99 1016.24 306.27 999.34 335.56 1016.24 335.56 1050.06 306.27 1066.97 276.99 1050.06"/><polygon class="cls-11" points="276.99 1050.06 276.99 1016.24 306.27 999.34 335.56 1016.24 335.56 1050.06 306.27 1066.97 276.99 1050.06"/><path class="cls-15" d="M306.27,999.34l14.38,25.51,29.29,33.51-43.67-8.6-43.66,8.6L277,1016.25Z"/><path class="cls-13" d="M306.27,999.34l14.38,25.51,14.9,25.21-29.28,33.51L277,1050.06v-33.81Z"/><polygon class="cls-67" points="276.99 1016.25 306.27 999.34 320.65 1024.85 349.94 1058.36 306.27 1083.57 262.61 1058.36 276.99 1016.25"/><text class="cls-68" transform="translate(288.01 1043.6)">14</text><text class="cls-69" transform="translate(256.39 1117.89)"><tspan class="cls-70">V</tspan><tspan x="14.28" y="0">aishnavi</tspan></text><text class="cls-69" transform="translate(281.5 1156.46)"><tspan class="cls-71">Y</tspan><tspan x="12.86" y="0">ujia</tspan></text><polygon class="cls-2" points="114.83 1084.22 70.89 1058.85 70.89 1008.11 114.83 982.73 158.78 1008.11 158.78 1058.85 114.83 1084.22"/><polygon class="cls-11" points="114.83 1084.22 70.89 1058.85 70.89 1008.11 114.83 982.73 158.78 1008.11 158.78 1058.85 114.83 1084.22"/><polygon class="cls-5" points="85.36 1050.49 85.36 1016.46 114.83 999.44 144.31 1016.46 144.31 1050.49 114.83 1067.51 85.36 1050.49"/><polygon class="cls-11" points="85.36 1050.49 85.36 1016.46 114.83 999.44 144.31 1016.46 144.31 1050.49 114.83 1067.51 85.36 1050.49"/><path class="cls-17" d="M114.83,999.45l29.47,17v34l-29.47-.3-43.94,8.66,29.47-33.73Z"/><path class="cls-12" d="M114.83,982.73l44,25.37-29.47,33.74-14.48,8.35-29.47.3v-34Z"/><polygon class="cls-72" points="85.36 1016.46 114.83 982.73 158.78 1008.11 144.31 1050.49 114.83 1050.19 70.89 1058.85 85.36 1016.46"/><text class="cls-73" transform="translate(96.46 1043.99)">14</text><text class="cls-69" transform="translate(82.37 1117.89)"><tspan class="cls-71">Y</tspan><tspan x="12.86" y="0">uri</tspan><tspan class="cls-74" x="39.41" y="0">k</tspan><tspan x="51.19" y="0">o</tspan></text><text class="cls-69" transform="translate(96.87 1156.46)">Joli</text><polygon class="cls-2" points="497.71 1084.82 453.5 1059.3 453.5 1008.25 497.71 982.73 541.91 1008.25 541.91 1059.3 497.71 1084.82"/><polygon class="cls-11" points="497.71 1084.82 453.5 1059.3 453.5 1008.25 497.71 982.73 541.91 1008.25 541.91 1059.3 497.71 1084.82"/><polygon class="cls-5" points="468.06 1050.89 468.06 1016.66 497.71 999.54 527.35 1016.66 527.35 1050.89 497.71 1068.01 468.06 1050.89"/><polygon class="cls-11" points="468.06 1050.89 468.06 1016.66 497.71 999.54 527.35 1016.66 527.35 1050.89 497.71 1068.01 468.06 1050.89"/><path class="cls-18" d="M497.71,1017l29.64-.3v34.23l-29.64-.3-29.65.3v-34.23Z"/><path class="cls-19" d="M497.71,999.55l44.2,8.7-14.56,42.64-29.64-.3-44.21,8.71v-51Z"/><polygon class="cls-75" points="453.5 1007.61 497.71 998.9 541.91 1008.25 527.35 1050.89 497.71 1050.59 453.5 1059.3 453.5 1007.61"/><text class="cls-76" transform="translate(479.22 1044.35)">14</text><text class="cls-69" transform="translate(465.1 1156.46)"><tspan class="cls-71">Y</tspan><tspan x="12.86" y="0">uhan</tspan></text><text class="cls-77" transform="translate(451.4 1117.89)">K<tspan class="cls-78" x="14.02" y="0">athleen</tspan></text><polygon class="cls-2" points="689.14 1083.14 645.66 1058.04 645.66 1007.83 689.14 982.73 732.62 1007.83 732.62 1058.04 689.14 1083.14"/><polygon class="cls-11" points="689.14 1083.14 645.66 1058.04 645.66 1007.83 689.14 982.73 732.62 1007.83 732.62 1058.04 689.14 1083.14"/><polygon class="cls-5" points="659.98 1049.77 659.98 1016.1 689.14 999.26 718.3 1016.1 718.3 1049.77 689.14 1066.61 659.98 1049.77"/><polygon class="cls-11" points="659.98 1049.77 659.98 1016.1 689.14 999.26 718.3 1016.1 718.3 1049.77 689.14 1066.61 659.98 1049.77"/><path class="cls-16" d="M689.14,1016.4l29.16-.3L732.62,1058l-43.48-8.57-29.15.3V1016.1Z"/><path class="cls-14" d="M689.14,999.27l29.16,16.83v33.67l-29.16,33.37-14.32-41.94L660,1016.1Z"/><polygon class="cls-79" points="659.99 1016.1 689.14 999.27 718.3 1016.1 732.62 1058.04 689.14 1083.14 659.99 1049.77 659.99 1016.1"/><text class="cls-80" transform="translate(670.96 1043.34)">14</text><text class="cls-69" transform="translate(665.11 1156.46)">Dani</text><text class="cls-69" transform="translate(648.32 1117.89)">Naveen</text><text class="cls-81" transform="translate(68.45 102.03)">Visualizing Equitable <tspan class="cls-82" x="363.36" y="0">T</tspan><tspan x="381.1" y="0">eams</tspan></text><text class="cls-83" transform="translate(68.45 172.2)">The shape of each team is equal to the maximum value indicated<tspan x="0" y="18">by either team membe</tspan><tspan class="cls-84" x="148.12" y="18">r</tspan><tspan x="151.83" y="18">. </tspan></text><text class="cls-85" transform="translate(68.45 132.11)">Designed by<tspan class="cls-86" x="66.47" y="0"> </tspan><tspan class="cls-87" x="69.56" y="0">Y</tspan><tspan class="cls-88" x="76" y="0">ujia Huo &amp; Joli Holmes</tspan></text><text class="cls-89" transform="translate(301.05 955.26)">Proposed <tspan class="cls-90" x="134.88" y="0">T</tspan><tspan class="cls-91" x="148.53" y="0">eams</tspan></text></g></svg>