<svg xmlns="http://www.w3.org/2000/svg" xmlns:xlink="http://www.w3.org/1999/xlink" viewBox="0 0 792 792"><defs><style>.cls-1{fill:#383838;}.cls-2,.cls-5,.cls-51,.cls-53,.cls-57,.cls-58,.cls-7{fill:#fff;}.cls-2,.cls-3{opacity:0.1;}.cls-11,.cls-20,.cls-4,.cls-6{fill:none;}.cls-11,.cls-22,.cls-24,.cls-25,.cls-26,.cls-27,.cls-28,.cls-29,.cls-30,.cls-31,.cls-32,.cls-33,.cls-34,.cls-35,.cls-36,.cls-37,.cls-38,.cls-39,.cls-4,.cls-40,.cls-41,.cls-42,.cls-43,.cls-44,.cls-45,.cls-46,.cls-47,.cls-48,.cls-49,.cls-50{stroke:#fff;}.cls-11,.cls-12,.cls-13,.cls-14,.cls-15,.cls-16,.cls-17,.cls-18,.cls-19,.cls-20,.cls-22,.cls-24,.cls-25,.cls-26,.cls-27,.cls-28,.cls-29,.cls-30,.cls-31,.cls-32,.cls-33,.cls-34,.cls-35,.cls-36,.cls-37,.cls-38,.cls-39,.cls-4,.cls-40,.cls-41,.cls-42,.cls-43,.cls-44,.cls-45,.cls-46,.cls-47,.cls-48,.cls-49,.cls-50{stroke-miterlimit:10;}.cls-11,.cls-4{opacity:0.2;}.cls-5{opacity:0.9;}.cls-20,.cls-6{stroke:#d3d3d3;}.cls-10,.cls-7{font-size:15.34px;}.cls-10,.cls-23,.cls-51,.cls-53,.cls-57,.cls-58,.cls-7{font-family:ProximaNova-Regular, Proxima Nova;}.cls-8{letter-spacing:-0.02em;}.cls-9{letter-spacing:-0.02em;}.cls-11,.cls-59,.cls-61,.cls-62,.cls-63,.cls-64,.cls-65,.cls-66{stroke-width:0.5px;}.cls-12,.cls-60{fill:#f57f20;stroke:#f57f20;}.cls-13,.cls-61{fill:#d87ab2;}.cls-13{stroke:#d77ab1;}.cls-14,.cls-62{fill:#d62a28;}.cls-14{stroke:#d52c28;}.cls-15,.cls-63{fill:#9268ad;stroke:#9268ad;}.cls-16,.cls-64{fill:#2278b5;}.cls-16{stroke:#2378b5;}.cls-17{fill:#006938;stroke:#016a38;}.cls-18{fill:#d7df27;stroke:#d7df2b;}.cls-19,.cls-59{fill:#00a79d;stroke:#00a79d;}.cls-21{opacity:0.5;}.cls-22,.cls-24,.cls-25,.cls-26,.cls-27,.cls-28,.cls-29,.cls-30,.cls-31,.cls-32,.cls-33,.cls-34,.cls-35,.cls-36,.cls-37,.cls-38,.cls-39,.cls-40,.cls-41,.cls-42,.cls-43,.cls-44,.cls-45,.cls-46,.cls-47,.cls-48,.cls-49,.cls-50{stroke-width:1.5px;}.cls-22{fill:url(#linear-gradient);}.cls-23{opacity:0.75;font-size:23.89px;}.cls-24{fill:url(#linear-gradient-2);}.cls-25{fill:url(#linear-gradient-3);}.cls-26{fill:url(#linear-gradient-4);}.cls-27{fill:url(#linear-gradient-5);}.cls-28{fill:url(#linear-gradient-6);}.cls-29{fill:url(#linear-gradient-7);}.cls-30{fill:url(#linear-gradient-8);}.cls-31{fill:url(#linear-gradient-9);}.cls-32{fill:url(#linear-gradient-10);}.cls-33{fill:url(#linear-gradient-11);}.cls-34{fill:url(#linear-gradient-12);}.cls-35{fill:url(#linear-gradient-13);}.cls-36{fill:url(#linear-gradient-14);}.cls-37{fill:url(#linear-gradient-15);}.cls-38{fill:url(#linear-gradient-16);}.cls-39{fill:url(#linear-gradient-17);}.cls-40{fill:url(#linear-gradient-18);}.cls-41{fill:url(#linear-gradient-19);}.cls-42{fill:url(#linear-gradient-20);}.cls-43{fill:url(#linear-gradient-21);}.cls-44{fill:url(#linear-gradient-22);}.cls-45{fill:url(#linear-gradient-23);}.cls-46{fill:url(#linear-gradient-24);}.cls-47{fill:url(#linear-gradient-25);}.cls-48{fill:url(#linear-gradient-26);}.cls-49{fill:url(#linear-gradient-27);}.cls-50{fill:url(#linear-gradient-28);}.cls-51,.cls-53,.cls-57,.cls-58{font-size:16.67px;}.cls-51{letter-spacing:-0.06em;}.cls-52{letter-spacing:0em;}.cls-54,.cls-57{letter-spacing:-0.09em;}.cls-55{letter-spacing:0em;}.cls-56{letter-spacing:-0.02em;}.cls-58{letter-spacing:-0.02em;}.cls-60{stroke-width:0.42px;}.cls-61{stroke:#d87ab2;}.cls-62{stroke:#d62a28;}.cls-64{stroke:#2278b5;}.cls-65{fill:#006838;stroke:#006938;}.cls-66{fill:#d7df23;stroke:#d7df23;}</style><linearGradient id="linear-gradient" x1="203.14" y1="182.13" x2="261.77" y2="182.13" gradientUnits="userSpaceOnUse"><stop offset="0.29" stop-color="#f57f20"/><stop offset="0.66" stop-color="#00a79d"/></linearGradient><linearGradient id="linear-gradient-2" x1="277.03" y1="196.16" x2="315.69" y2="196.16" gradientUnits="userSpaceOnUse"><stop offset="0.3" stop-color="#d87ab2"/><stop offset="0.34" stop-color="#cd7cb1"/><stop offset="0.42" stop-color="#af83ae"/><stop offset="0.53" stop-color="#7e8da9"/><stop offset="0.65" stop-color="#3c9ba3"/><stop offset="0.76" stop-color="#00a79d"/></linearGradient><linearGradient id="linear-gradient-3" x1="606.9" y1="253.74" x2="656.77" y2="253.74" gradientUnits="userSpaceOnUse"><stop offset="0.34" stop-color="#d7df27"/><stop offset="0.68" stop-color="#f57f20"/></linearGradient><linearGradient id="linear-gradient-4" x1="529.9" y1="277.73" x2="588.53" y2="243.88" gradientUnits="userSpaceOnUse"><stop offset="0.38" stop-color="#006938"/><stop offset="0.76" stop-color="#f57f20"/></linearGradient><linearGradient id="linear-gradient-5" x1="476.15" y1="256.53" x2="525.12" y2="256.53" gradientUnits="userSpaceOnUse"><stop offset="0.28" stop-color="#2278b5"/><stop offset="0.3" stop-color="#3579a8"/><stop offset="0.43" stop-color="#867b6e"/><stop offset="0.53" stop-color="#c27d44"/><stop offset="0.61" stop-color="#e77f2a"/><stop offset="0.65" stop-color="#f57f20"/></linearGradient><linearGradient id="linear-gradient-6" x1="412.14" y1="289.03" x2="457.87" y2="243.3" gradientUnits="userSpaceOnUse"><stop offset="0.43" stop-color="#9268ad"/><stop offset="0.46" stop-color="#a06b99"/><stop offset="0.67" stop-color="#f57f20"/></linearGradient><linearGradient id="linear-gradient-7" x1="344.5" y1="264.99" x2="393.47" y2="264.99" gradientUnits="userSpaceOnUse"><stop offset="0.32" stop-color="#d62a28"/><stop offset="0.4" stop-color="#dd3e26"/><stop offset="0.56" stop-color="#f17321"/><stop offset="0.59" stop-color="#f57f20"/></linearGradient><linearGradient id="linear-gradient-8" x1="278.67" y1="264.99" x2="327.64" y2="264.99" gradientUnits="userSpaceOnUse"><stop offset="0.25" stop-color="#d87ab2"/><stop offset="0.3" stop-color="#db7ba2"/><stop offset="0.41" stop-color="#e37c79"/><stop offset="0.55" stop-color="#f17e36"/><stop offset="0.6" stop-color="#f57f20"/></linearGradient><linearGradient id="linear-gradient-9" x1="344.5" y1="344.28" x2="383.81" y2="344.28" gradientUnits="userSpaceOnUse"><stop offset="0" stop-color="#d62a28"/><stop offset="1" stop-color="#d87ab2"/></linearGradient><linearGradient id="linear-gradient-10" x1="473.73" y1="331.54" x2="522.7" y2="359.81" gradientUnits="userSpaceOnUse"><stop offset="0" stop-color="#2278b5"/><stop offset="0.38" stop-color="#3478b5"/><stop offset="0.68" stop-color="#d87ab2"/></linearGradient><linearGradient id="linear-gradient-11" x1="534.73" y1="359.81" x2="583.7" y2="331.54" gradientUnits="userSpaceOnUse"><stop offset="0.38" stop-color="#006938"/><stop offset="0.65" stop-color="#d87ab2"/></linearGradient><linearGradient id="linear-gradient-12" x1="420.15" y1="366.88" x2="444.64" y2="324.47" gradientUnits="userSpaceOnUse"><stop offset="0.35" stop-color="#9268ad"/><stop offset="0.56" stop-color="#d87ab2"/></linearGradient><linearGradient id="linear-gradient-13" x1="607.8" y1="344.28" x2="647.11" y2="344.28" gradientUnits="userSpaceOnUse"><stop offset="0.35" stop-color="#d7df27"/><stop offset="0.71" stop-color="#d87ab2"/></linearGradient><linearGradient id="linear-gradient-14" x1="334.84" y1="196.5" x2="393.47" y2="196.5" gradientUnits="userSpaceOnUse"><stop offset="0.29" stop-color="#d62a28"/><stop offset="0.69" stop-color="#00a79d"/></linearGradient><linearGradient id="linear-gradient-15" x1="400.13" y1="187.73" x2="460.04" y2="187.73" gradientUnits="userSpaceOnUse"><stop offset="0.41" stop-color="#9268ad"/><stop offset="0.61" stop-color="#00a79d"/></linearGradient><linearGradient id="linear-gradient-16" x1="466.49" y1="187.73" x2="525.53" y2="187.73" gradientUnits="userSpaceOnUse"><stop offset="0.39" stop-color="#2278b5"/><stop offset="0.57" stop-color="#00a79d"/></linearGradient><linearGradient id="linear-gradient-17" x1="532.32" y1="187.73" x2="590.94" y2="187.73" gradientUnits="userSpaceOnUse"><stop offset="0.36" stop-color="#006938"/><stop offset="0.64" stop-color="#00a79d"/></linearGradient><linearGradient id="linear-gradient-18" x1="598.14" y1="187.49" x2="656.77" y2="187.49" gradientUnits="userSpaceOnUse"><stop offset="0.32" stop-color="#d7df27"/><stop offset="0.69" stop-color="#00a79d"/></linearGradient><linearGradient id="linear-gradient-19" x1="485.98" y1="440.6" x2="510.46" y2="398.19" gradientUnits="userSpaceOnUse"><stop offset="0.36" stop-color="#2278b5"/><stop offset="0.73" stop-color="#d62a28"/></linearGradient><linearGradient id="linear-gradient-20" x1="400.67" y1="418" x2="459.29" y2="418" gradientUnits="userSpaceOnUse"><stop offset="0.36" stop-color="#9268ad"/><stop offset="0.61" stop-color="#d62a28"/></linearGradient><linearGradient id="linear-gradient-21" x1="531.2" y1="418" x2="581.29" y2="418" gradientUnits="userSpaceOnUse"><stop offset="0.39" stop-color="#006938"/><stop offset="0.63" stop-color="#d62a28"/></linearGradient><linearGradient id="linear-gradient-22" x1="606.9" y1="418" x2="647.11" y2="418" gradientUnits="userSpaceOnUse"><stop offset="0.29" stop-color="#d7df27"/><stop offset="0.65" stop-color="#d62a28"/></linearGradient><linearGradient id="linear-gradient-23" x1="466.49" y1="483.26" x2="525.12" y2="483.26" gradientUnits="userSpaceOnUse"><stop offset="0.39" stop-color="#2278b5"/><stop offset="0.62" stop-color="#9268ad"/></linearGradient><linearGradient id="linear-gradient-24" x1="532.32" y1="556.98" x2="590.94" y2="556.98" gradientUnits="userSpaceOnUse"><stop offset="0.37" stop-color="#006938"/><stop offset="0.65" stop-color="#2278b5"/></linearGradient><linearGradient id="linear-gradient-25" x1="607.8" y1="562.65" x2="656.77" y2="562.65" gradientUnits="userSpaceOnUse"><stop offset="0.28" stop-color="#d7df27"/><stop offset="0.73" stop-color="#2278b5"/></linearGradient><linearGradient id="linear-gradient-26" x1="532.32" y1="483.26" x2="590.94" y2="483.26" gradientUnits="userSpaceOnUse"><stop offset="0.4" stop-color="#006938"/><stop offset="0.63" stop-color="#9268ad"/></linearGradient><linearGradient id="linear-gradient-27" x1="598.14" y1="483.26" x2="656.77" y2="483.26" gradientUnits="userSpaceOnUse"><stop offset="0.32" stop-color="#d7df27"/><stop offset="0.75" stop-color="#9268ad"/></linearGradient><linearGradient id="linear-gradient-28" x1="598.14" y1="630.7" x2="647.11" y2="630.7" gradientUnits="userSpaceOnUse"><stop offset="0.44" stop-color="#d7df27"/><stop offset="0.73" stop-color="#006938"/></linearGradient></defs><g id="Layer_4" data-name="Layer 4"><rect class="cls-1" x="0.64" y="-216" width="793" height="1224"/><polygon class="cls-2" points="224.98 621.1 168.51 588.49 168.51 523.28 224.98 490.68 281.45 523.28 281.45 588.49 224.98 621.1"/><polygon class="cls-3" points="224.19 576 205.59 565.26 205.59 543.78 224.19 533.04 242.79 543.78 242.79 565.26 224.19 576"/><polygon class="cls-4" points="224.98 621.1 168.51 588.49 168.51 523.28 224.98 490.68 281.45 523.28 281.45 588.49 224.98 621.1"/><polygon class="cls-5" points="187.11 577.75 187.11 534.02 224.98 512.15 262.86 534.02 262.86 577.75 224.98 599.62 187.11 577.75"/><polygon class="cls-4" points="187.11 577.75 187.11 534.02 224.98 512.15 262.86 534.02 262.86 577.75 224.98 599.62 187.11 577.75"/><g id="axes"><line class="cls-6" x1="224.19" y1="555.89" x2="224.19" y2="490.68"/><text class="cls-7" transform="translate(174.77 481.63)">Programming</text><line class="cls-6" x1="224.19" y1="555.89" x2="280.66" y2="523.28"/><text class="cls-7" transform="translate(285.26 521.13)">Data</text><line class="cls-6" x1="224.19" y1="555.89" x2="280.66" y2="588.49"/><text class="cls-7" transform="translate(286.81 597.09)">Graphic<tspan x="0" y="18.41">Design</tspan></text><line class="cls-6" x1="224.19" y1="555.89" x2="224.19" y2="621.1"/><text class="cls-7" transform="translate(183.73 635.06)">Interactivity <tspan x="2.62" y="18.41">and Motion</tspan><tspan x="16.85" y="36.82">Design</tspan></text><line class="cls-6" x1="224.19" y1="555.89" x2="167.72" y2="588.49"/><text class="cls-7" transform="translate(84.73 599.06)"><tspan class="cls-8">S</tspan><tspan x="8.73" y="0">torytelling</tspan></text><line class="cls-6" x1="224.19" y1="555.89" x2="167.72" y2="523.28"/><g id="Leadership_management" data-name="Leadership &amp; management"><text class="cls-7" transform="translate(70.09 512.16)"><tspan class="cls-9">L</tspan><tspan x="7.5" y="0">eadership &amp;</tspan><tspan x="0" y="18.41">Management</tspan></text></g><g id="y_axis" data-name="y axis"><text class="cls-10" transform="translate(220.43 503.5)">3</text><text class="cls-10" transform="translate(220.43 524.98)">2</text><text class="cls-10" transform="translate(220.43 547.23)">1</text></g></g><polygon class="cls-2" points="232.51 139.62 203.19 122.7 203.19 88.85 232.51 71.93 261.82 88.85 261.82 122.7 232.51 139.62"/><polygon class="cls-11" points="232.51 139.62 203.19 122.7 203.19 88.85 232.51 71.93 261.82 88.85 261.82 122.7 232.51 139.62"/><polygon class="cls-5" points="212.85 117.13 212.85 94.43 232.51 83.08 252.17 94.43 252.17 117.13 232.51 128.48 212.85 117.13"/><polygon class="cls-11" points="212.85 117.13 212.85 94.43 232.51 83.08 252.17 94.43 252.17 117.13 232.51 128.48 212.85 117.13"/><path class="cls-12" d="M232.51,71.93l29.31,16.92-19.66,22.5-9.65,5.58-19.66.2V94.43Z"/><polygon class="cls-2" points="298.33 139.62 269.02 122.7 269.02 88.85 298.33 71.93 327.64 88.85 327.64 122.7 298.33 139.62"/><polygon class="cls-11" points="298.33 139.62 269.02 122.7 269.02 88.85 298.33 71.93 327.64 88.85 327.64 122.7 298.33 139.62"/><polygon class="cls-5" points="278.67 117.13 278.67 94.43 298.33 83.08 317.99 94.43 317.99 117.13 298.33 128.48 278.67 117.13"/><polygon class="cls-11" points="278.67 117.13 278.67 94.43 298.33 83.08 317.99 94.43 317.99 117.13 298.33 128.48 278.67 117.13"/><path class="cls-13" d="M298.33,83.08,308,100.2l10,16.93-19.66,22.49-19.66-22.49V94.43Z"/><polygon class="cls-2" points="364.16 139.62 334.84 122.7 334.84 88.85 364.16 71.93 393.47 88.85 393.47 122.7 364.16 139.62"/><polygon class="cls-11" points="364.16 139.62 334.84 122.7 334.84 88.85 364.16 71.93 393.47 88.85 393.47 122.7 364.16 139.62"/><polygon class="cls-5" points="344.5 117.13 344.5 94.43 364.16 83.08 383.81 94.43 383.81 117.13 364.16 128.48 344.5 117.13"/><polygon class="cls-11" points="344.5 117.13 344.5 94.43 364.16 83.08 383.81 94.43 383.81 117.13 364.16 128.48 344.5 117.13"/><path class="cls-14" d="M364.16,83.08l19.65,11.35v22.7l-19.65,22.49-9.66-28.27-10-16.92Z"/><polygon class="cls-2" points="429.98 139.62 400.67 122.7 400.67 88.85 429.98 71.93 459.29 88.85 459.29 122.7 429.98 139.62"/><polygon class="cls-11" points="429.98 139.62 400.67 122.7 400.67 88.85 429.98 71.93 459.29 88.85 459.29 122.7 429.98 139.62"/><polygon class="cls-5" points="410.32 117.13 410.32 94.43 429.98 83.08 449.64 94.43 449.64 117.13 429.98 128.48 410.32 117.13"/><polygon class="cls-11" points="410.32 117.13 410.32 94.43 429.98 83.08 449.64 94.43 449.64 117.13 429.98 128.48 410.32 117.13"/><path class="cls-15" d="M430,83.08l9.66,17.12,19.65,22.5L430,116.93l-29.31,5.77,9.65-28.27Z"/><polygon class="cls-2" points="495.8 139.62 466.49 122.7 466.49 88.85 495.8 71.93 525.12 88.85 525.12 122.7 495.8 139.62"/><polygon class="cls-11" points="495.8 139.62 466.49 122.7 466.49 88.85 495.8 71.93 525.12 88.85 525.12 122.7 495.8 139.62"/><polygon class="cls-5" points="476.14 117.13 476.14 94.43 495.8 83.08 515.46 94.43 515.46 117.13 495.8 128.48 476.14 117.13"/><polygon class="cls-11" points="476.14 117.13 476.14 94.43 495.8 83.08 515.46 94.43 515.46 117.13 495.8 128.48 476.14 117.13"/><path class="cls-16" d="M495.8,94.63l19.66-.2,9.66,28.27-29.32-5.77-19.65.2V94.43Z"/><polygon class="cls-2" points="561.63 139.62 532.32 122.7 532.32 88.85 561.63 71.93 590.94 88.85 590.94 122.7 561.63 139.62"/><polygon class="cls-11" points="561.63 139.62 532.32 122.7 532.32 88.85 561.63 71.93 590.94 88.85 590.94 122.7 561.63 139.62"/><polygon class="cls-5" points="541.97 117.13 541.97 94.43 561.63 83.08 581.29 94.43 581.29 117.13 561.63 128.48 541.97 117.13"/><polygon class="cls-11" points="541.97 117.13 541.97 94.43 561.63 83.08 581.29 94.43 581.29 117.13 561.63 128.48 541.97 117.13"/><path class="cls-17" d="M561.63,83.08l19.66,11.35v22.7l-19.66-.2-29.31,5.77L552,100.2Z"/><polygon class="cls-2" points="627.45 139.62 598.14 122.7 598.14 88.85 627.45 71.93 656.76 88.85 656.76 122.7 627.45 139.62"/><polygon class="cls-11" points="627.45 139.62 598.14 122.7 598.14 88.85 627.45 71.93 656.76 88.85 656.76 122.7 627.45 139.62"/><polygon class="cls-5" points="607.79 117.13 607.79 94.43 627.45 83.08 647.11 94.43 647.11 117.13 627.45 128.48 607.79 117.13"/><polygon class="cls-11" points="607.79 117.13 607.79 94.43 627.45 83.08 647.11 94.43 647.11 117.13 627.45 128.48 607.79 117.13"/><path class="cls-18" d="M627.45,94.63l19.66-.2v22.7l-19.66-.2-19.65.2V94.43Z"/><polygon class="cls-2" points="709.29 223.73 680.29 206.99 680.29 173.49 709.29 156.74 738.3 173.49 738.3 206.99 709.29 223.73"/><polygon class="cls-11" points="709.29 223.73 680.29 206.99 680.29 173.49 709.29 156.74 738.3 173.49 738.3 206.99 709.29 223.73"/><polygon class="cls-5" points="689.84 201.47 689.84 179.01 709.29 167.77 728.75 179.01 728.75 201.47 709.29 212.7 689.84 201.47"/><polygon class="cls-11" points="689.84 201.47 689.84 179.01 709.29 167.77 728.75 179.01 728.75 201.47 709.29 212.7 689.84 201.47"/><path class="cls-19" d="M709.29,167.78l29,5.71-9.55,28-19.46-.2-29,5.71V173.49Z"/><polygon class="cls-2" points="708.5 297.36 679.5 280.61 679.5 247.12 708.5 230.37 737.51 247.12 737.51 280.61 708.5 297.36"/><polygon class="cls-11" points="708.5 297.36 679.5 280.61 679.5 247.12 708.5 230.37 737.51 247.12 737.51 280.61 708.5 297.36"/><polygon class="cls-5" points="689.05 275.09 689.05 252.63 708.5 241.4 727.96 252.63 727.96 275.09 708.5 286.33 689.05 275.09"/><polygon class="cls-11" points="689.05 275.09 689.05 252.63 708.5 241.4 727.96 252.63 727.96 275.09 708.5 286.33 689.05 275.09"/><path class="cls-12" d="M708.51,230.37l29,16.75-19.45,22.26-9.55,5.52-19.46.19V252.63Z"/><polygon class="cls-2" points="709.24 370.31 680.23 353.56 680.23 320.07 709.24 303.32 738.24 320.07 738.24 353.56 709.24 370.31"/><polygon class="cls-11" points="709.24 370.31 680.23 353.56 680.23 320.07 709.24 303.32 738.24 320.07 738.24 353.56 709.24 370.31"/><polygon class="cls-5" points="689.78 348.05 689.78 325.58 709.24 314.35 728.69 325.58 728.69 348.05 709.24 359.28 689.78 348.05"/><polygon class="cls-11" points="689.78 348.05 689.78 325.58 709.24 314.35 728.69 325.58 728.69 348.05 709.24 359.28 689.78 348.05"/><path class="cls-13" d="M709.24,314.35l9.55,16.95,9.9,16.75-19.45,22.26-19.46-22.26V325.58Z"/><polygon class="cls-2" points="709.18 443.26 680.17 426.51 680.17 393.02 709.18 376.27 738.18 393.02 738.18 426.51 709.18 443.26"/><polygon class="cls-11" points="709.18 443.26 680.17 426.51 680.17 393.02 709.18 376.27 738.18 393.02 738.18 426.51 709.18 443.26"/><polygon class="cls-5" points="689.72 421 689.72 398.54 709.18 387.3 728.63 398.54 728.63 421 709.18 432.23 689.72 421"/><polygon class="cls-11" points="689.72 421 689.72 398.54 709.18 387.3 728.63 398.54 728.63 421 709.18 432.23 689.72 421"/><path class="cls-14" d="M709.18,387.31l19.45,11.23V421l-19.45,22.26-9.56-28-9.89-16.74Z"/><polygon class="cls-2" points="711.85 516.21 682.84 499.47 682.84 465.97 711.85 449.23 740.86 465.97 740.86 499.47 711.85 516.21"/><polygon class="cls-11" points="711.85 516.21 682.84 499.47 682.84 465.97 711.85 449.23 740.86 465.97 740.86 499.47 711.85 516.21"/><polygon class="cls-5" points="692.4 493.95 692.4 471.49 711.85 460.25 731.3 471.49 731.3 493.95 711.85 505.18 692.4 493.95"/><polygon class="cls-11" points="692.4 493.95 692.4 471.49 711.85 460.25 731.3 471.49 731.3 493.95 711.85 505.18 692.4 493.95"/><path class="cls-15" d="M711.85,460.26l9.56,16.94,19.45,22.27-29-5.72-29,5.72,9.56-28Z"/><polygon class="cls-2" points="711.79 589.17 682.78 572.42 682.78 538.92 711.79 522.18 740.8 538.92 740.8 572.42 711.79 589.17"/><polygon class="cls-11" points="711.79 589.17 682.78 572.42 682.78 538.92 711.79 522.18 740.8 538.92 740.8 572.42 711.79 589.17"/><polygon class="cls-5" points="692.34 566.9 692.34 544.44 711.79 533.21 731.25 544.44 731.25 566.9 711.79 578.13 692.34 566.9"/><polygon class="cls-11" points="692.34 566.9 692.34 544.44 711.79 533.21 731.25 544.44 731.25 566.9 711.79 578.13 692.34 566.9"/><path class="cls-16" d="M711.79,544.64l19.45-.2,9.56,28-29-5.72-19.45.2V544.44Z"/><polygon class="cls-2" points="711.73 662.12 682.73 645.37 682.73 611.88 711.73 595.13 740.74 611.88 740.74 645.37 711.73 662.12"/><polygon class="cls-11" points="711.73 662.12 682.73 645.37 682.73 611.88 711.73 595.13 740.74 611.88 740.74 645.37 711.73 662.12"/><polygon class="cls-5" points="692.28 639.86 692.28 617.39 711.73 606.16 731.19 617.39 731.19 639.86 711.73 651.09 692.28 639.86"/><polygon class="cls-11" points="692.28 639.86 692.28 617.39 711.73 606.16 731.19 617.39 731.19 639.86 711.73 651.09 692.28 639.86"/><path class="cls-17" d="M711.73,606.16l19.46,11.23v22.46l-19.46-.19-29,5.71,19.45-22.26Z"/><line class="cls-20" x1="193.81" y1="145.3" x2="671.92" y2="145.3"/><line class="cls-20" x1="671.92" y1="145.3" x2="671.92" y2="677.5"/><g class="cls-21"><polygon class="cls-2" points="232.46 224.44 203.15 207.51 203.15 173.67 232.46 156.74 261.77 173.67 261.77 207.51 232.46 224.44"/><polygon class="cls-11" points="232.46 224.44 203.15 207.51 203.15 173.67 232.46 156.74 261.77 173.67 261.77 207.51 232.46 224.44"/><polygon class="cls-5" points="212.8 201.94 212.8 179.24 232.46 167.89 252.12 179.24 252.12 201.94 232.46 213.29 212.8 201.94"/><polygon class="cls-11" points="212.8 201.94 212.8 179.24 232.46 167.89 252.12 179.24 252.12 201.94 232.46 213.29 212.8 201.94"/><path class="cls-12" d="M232.46,156.74l29.31,16.93-19.66,22.49-9.65,5.58-19.66.2v-22.7Z"/><path class="cls-19" d="M232.46,167.89l29.31,5.78-9.66,28.27-19.65-.2-29.32,5.77V173.67Z"/><polygon class="cls-22" points="203.15 173.67 232.46 156.74 261.77 173.67 252.11 201.94 232.46 201.74 203.15 207.51 203.15 173.67"/><text class="cls-23" transform="translate(220.2 197.6)">15</text></g><g class="cls-21"><polygon class="cls-2" points="298.33 224.44 269.02 207.51 269.02 173.67 298.33 156.74 327.64 173.67 327.64 207.51 298.33 224.44"/><polygon class="cls-11" points="298.33 224.44 269.02 207.51 269.02 173.67 298.33 156.74 327.64 173.67 327.64 207.51 298.33 224.44"/><polygon class="cls-5" points="278.67 201.94 278.67 179.24 298.33 167.89 317.99 179.24 317.99 201.94 298.33 213.29 278.67 201.94"/><polygon class="cls-11" points="278.67 201.94 278.67 179.24 298.33 167.89 317.99 179.24 317.99 201.94 298.33 213.29 278.67 201.94"/><path class="cls-13" d="M298.33,167.89,308,185l10,16.92-19.66,22.5-19.66-22.5v-22.7Z"/><path class="cls-19" d="M298.33,167.89l29.31,5.78L318,201.94l-19.66-.2L269,207.51V173.67Z"/><polygon class="cls-24" points="269.02 173.67 298.33 167.89 327.64 173.67 317.99 201.94 298.33 224.44 269.02 207.51 269.02 173.67"/><text class="cls-23" transform="translate(286.07 197.6)">16</text></g><g class="cls-21"><polygon class="cls-2" points="627.45 298.83 598.14 281.91 598.14 248.07 627.45 231.14 656.76 248.07 656.76 281.91 627.45 298.83"/><polygon class="cls-11" points="627.45 298.83 598.14 281.91 598.14 248.07 627.45 231.14 656.76 248.07 656.76 281.91 627.45 298.83"/><polygon class="cls-5" points="607.79 276.34 607.79 253.64 627.45 242.29 647.11 253.64 647.11 276.34 627.45 287.69 607.79 276.34"/><polygon class="cls-11" points="607.79 276.34 607.79 253.64 627.45 242.29 647.11 253.64 647.11 276.34 627.45 287.69 607.79 276.34"/><path class="cls-18" d="M627.45,253.84l19.66-.2v22.7l-19.66-.2-19.65.2v-22.7Z"/><path class="cls-12" d="M627.45,231.14l29.32,16.93-19.66,22.49-9.66,5.58-19.65.2v-22.7Z"/><polygon class="cls-25" points="606.9 253.64 627.45 231.14 656.76 248.07 647.11 276.34 627.45 276.14 607.8 276.34 606.9 253.64"/><text class="cls-23" transform="translate(615.2 272)">13</text></g><polygon class="cls-2" points="561.63 298.83 532.32 281.91 532.32 248.07 561.63 231.14 590.94 248.07 590.94 281.91 561.63 298.83"/><polygon class="cls-11" points="561.63 298.83 532.32 281.91 532.32 248.07 561.63 231.14 590.94 248.07 590.94 281.91 561.63 298.83"/><polygon class="cls-5" points="541.97 276.34 541.97 253.64 561.63 242.29 581.29 253.64 581.29 276.34 561.63 287.69 541.97 276.34"/><polygon class="cls-11" points="541.97 276.34 541.97 253.64 561.63 242.29 581.29 253.64 581.29 276.34 561.63 287.69 541.97 276.34"/><path class="cls-17" d="M561.63,242.29l19.66,11.35v22.7l-19.66-.2-29.31,5.77L552,259.41Z"/><path class="cls-12" d="M561.63,231.14l29.31,16.93-19.66,22.49-9.65,5.58-19.66.2v-22.7Z"/><polygon class="cls-26" points="541.97 253.64 561.63 231.14 590.94 248.07 581.28 276.34 561.63 276.14 532.32 281.91 541.97 253.64"/><text class="cls-23" transform="translate(549.37 272)">14</text><polygon class="cls-2" points="495.8 298.83 466.49 281.91 466.49 248.07 495.8 231.14 525.12 248.07 525.12 281.91 495.8 298.83"/><polygon class="cls-11" points="495.8 298.83 466.49 281.91 466.49 248.07 495.8 231.14 525.12 248.07 525.12 281.91 495.8 298.83"/><polygon class="cls-5" points="476.14 276.34 476.14 253.64 495.8 242.29 515.46 253.64 515.46 276.34 495.8 287.69 476.14 276.34"/><polygon class="cls-11" points="476.14 276.34 476.14 253.64 495.8 242.29 515.46 253.64 515.46 276.34 495.8 287.69 476.14 276.34"/><path class="cls-16" d="M495.8,253.84l19.66-.2,9.66,28.27-29.32-5.77-19.65.2v-22.7Z"/><path class="cls-12" d="M495.8,231.14l29.32,16.93-19.66,22.49-9.66,5.58-19.65.2v-22.7Z"/><polygon class="cls-27" points="476.15 253.64 495.8 231.14 525.12 248.07 525.12 281.91 495.8 276.14 476.15 276.34 476.15 253.64"/><text class="cls-23" transform="translate(483.55 272)">14</text><g class="cls-21"><polygon class="cls-2" points="429.98 298.83 400.67 281.91 400.67 248.07 429.98 231.14 459.29 248.07 459.29 281.91 429.98 298.83"/><polygon class="cls-11" points="429.98 298.83 400.67 281.91 400.67 248.07 429.98 231.14 459.29 248.07 459.29 281.91 429.98 298.83"/><polygon class="cls-5" points="410.32 276.34 410.32 253.64 429.98 242.29 449.64 253.64 449.64 276.34 429.98 287.69 410.32 276.34"/><polygon class="cls-11" points="410.32 276.34 410.32 253.64 429.98 242.29 449.64 253.64 449.64 276.34 429.98 287.69 410.32 276.34"/><path class="cls-15" d="M430,242.29l9.66,17.12,19.65,22.5L430,276.14l-29.31,5.77,9.65-28.27Z"/><path class="cls-12" d="M430,231.14l29.31,16.93-19.65,22.49L430,276.14l-19.66.2v-22.7Z"/><polygon class="cls-28" points="410.32 253.64 429.98 231.14 459.29 248.07 459.29 281.91 430.99 276.34 400.67 281.91 410.32 253.64"/><text class="cls-23" transform="translate(417.72 272)">15</text></g><g class="cls-21"><polygon class="cls-2" points="364.16 298.83 334.84 281.91 334.84 248.07 364.16 231.14 393.47 248.07 393.47 281.91 364.16 298.83"/><polygon class="cls-11" points="364.16 298.83 334.84 281.91 334.84 248.07 364.16 231.14 393.47 248.07 393.47 281.91 364.16 298.83"/><polygon class="cls-5" points="344.5 276.34 344.5 253.64 364.16 242.29 383.81 253.64 383.81 276.34 364.16 287.69 344.5 276.34"/><polygon class="cls-11" points="344.5 276.34 344.5 253.64 364.16 242.29 383.81 253.64 383.81 276.34 364.16 287.69 344.5 276.34"/><path class="cls-14" d="M364.16,242.29l19.65,11.35v22.7l-19.65,22.5-9.66-28.28-10-16.92Z"/><path class="cls-12" d="M364.16,231.14l29.31,16.93-19.66,22.49-9.65,5.58-19.66.2v-22.7Z"/><polygon class="cls-29" points="344.5 253.64 364.16 231.14 393.47 248.07 383.81 276.34 364.16 298.83 344.5 276.34 344.5 253.64"/><text class="cls-23" transform="translate(351.9 272)">15</text></g><g class="cls-21"><polygon class="cls-2" points="298.33 298.83 269.02 281.91 269.02 248.07 298.33 231.14 327.64 248.07 327.64 281.91 298.33 298.83"/><polygon class="cls-11" points="298.33 298.83 269.02 281.91 269.02 248.07 298.33 231.14 327.64 248.07 327.64 281.91 298.33 298.83"/><polygon class="cls-5" points="278.67 276.34 278.67 253.64 298.33 242.29 317.99 253.64 317.99 276.34 298.33 287.69 278.67 276.34"/><polygon class="cls-11" points="278.67 276.34 278.67 253.64 298.33 242.29 317.99 253.64 317.99 276.34 298.33 287.69 278.67 276.34"/><path class="cls-13" d="M298.33,242.29,308,259.41l10,16.93-19.66,22.5-19.66-22.5v-22.7Z"/><path class="cls-12" d="M298.33,231.14l29.31,16.93L308,270.56l-9.66,5.58-19.66.2v-22.7Z"/><polygon class="cls-30" points="278.68 253.64 298.33 231.14 327.64 248.07 317.99 276.34 298.33 298.83 278.68 276.34 278.68 253.64"/><text class="cls-23" transform="translate(286.07 272)">15</text></g><g class="cls-21"><polygon class="cls-2" points="364.16 372.56 334.84 355.63 334.84 321.79 364.16 304.86 393.47 321.79 393.47 355.63 364.16 372.56"/><polygon class="cls-11" points="364.16 372.56 334.84 355.63 334.84 321.79 364.16 304.86 393.47 321.79 393.47 355.63 364.16 372.56"/><polygon class="cls-5" points="344.5 350.06 344.5 327.36 364.16 316.01 383.81 327.36 383.81 350.06 364.16 361.41 344.5 350.06"/><polygon class="cls-11" points="344.5 350.06 344.5 327.36 364.16 316.01 383.81 327.36 383.81 350.06 364.16 361.41 344.5 350.06"/><path class="cls-14" d="M364.16,316l19.65,11.35v22.7l-19.65,22.49-9.66-28.27-10-16.92Z"/><path class="cls-13" d="M364.16,316l9.65,17.12,10,16.93-19.65,22.49L344.5,350.06v-22.7Z"/><polygon class="cls-31" points="344.5 327.36 364.16 316.01 383.81 327.36 383.81 350.06 364.16 372.56 344.5 350.06 344.5 327.36"/><text class="cls-23" transform="translate(351.9 345.72)">13</text></g><polygon class="cls-2" points="495.8 372.56 466.49 355.63 466.49 321.79 495.8 304.86 525.12 321.79 525.12 355.63 495.8 372.56"/><polygon class="cls-11" points="495.8 372.56 466.49 355.63 466.49 321.79 495.8 304.86 525.12 321.79 525.12 355.63 495.8 372.56"/><polygon class="cls-5" points="476.14 350.06 476.14 327.36 495.8 316.01 515.46 327.36 515.46 350.06 495.8 361.41 476.14 350.06"/><polygon class="cls-11" points="476.14 350.06 476.14 327.36 495.8 316.01 515.46 327.36 515.46 350.06 495.8 361.41 476.14 350.06"/><path class="cls-16" d="M495.8,327.56l19.66-.2,9.66,28.27-29.32-5.77-19.65.2v-22.7Z"/><path class="cls-13" d="M495.8,316l9.66,17.12,10,16.93L495.8,372.55l-19.65-22.49v-22.7Z"/><polygon class="cls-32" points="476.15 327.36 495.8 316.01 515.46 327.36 525.12 355.63 495.8 372.56 476.15 350.06 476.15 327.36"/><text class="cls-23" transform="translate(483.55 345.72)">14</text><polygon class="cls-2" points="561.63 372.56 532.32 355.63 532.32 321.79 561.63 304.86 590.94 321.79 590.94 355.63 561.63 372.56"/><polygon class="cls-11" points="561.63 372.56 532.32 355.63 532.32 321.79 561.63 304.86 590.94 321.79 590.94 355.63 561.63 372.56"/><polygon class="cls-5" points="541.97 350.06 541.97 327.36 561.63 316.01 581.29 327.36 581.29 350.06 561.63 361.41 541.97 350.06"/><polygon class="cls-11" points="541.97 350.06 541.97 327.36 561.63 316.01 581.29 327.36 581.29 350.06 561.63 361.41 541.97 350.06"/><path class="cls-17" d="M561.63,316l19.66,11.35v22.7l-19.66-.2-29.31,5.77L552,333.13Z"/><path class="cls-13" d="M561.63,316l9.65,17.12,10,16.93-19.66,22.49L542,350.06v-22.7Z"/><polygon class="cls-33" points="541.97 327.36 561.63 316.01 581.28 327.36 581.28 350.06 561.63 372.56 532.32 355.63 541.97 327.36"/><text class="cls-23" transform="translate(549.37 345.72)">14</text><polygon class="cls-2" points="429.98 372.56 400.67 355.63 400.67 321.79 429.98 304.86 459.29 321.79 459.29 355.63 429.98 372.56"/><polygon class="cls-11" points="429.98 372.56 400.67 355.63 400.67 321.79 429.98 304.86 459.29 321.79 459.29 355.63 429.98 372.56"/><polygon class="cls-5" points="410.32 350.06 410.32 327.36 429.98 316.01 449.64 327.36 449.64 350.06 429.98 361.41 410.32 350.06"/><polygon class="cls-11" points="410.32 350.06 410.32 327.36 429.98 316.01 449.64 327.36 449.64 350.06 429.98 361.41 410.32 350.06"/><path class="cls-15" d="M430,316l9.66,17.12,19.65,22.5L430,349.86l-29.31,5.77,9.65-28.27Z"/><path class="cls-13" d="M430,316l9.66,17.12,10,16.93L430,372.55l-19.66-22.49v-22.7Z"/><polygon class="cls-34" points="410.32 327.36 429.98 316.01 439.64 333.13 459.29 355.63 429.98 372.56 400.67 355.63 410.32 327.36"/><text class="cls-23" transform="translate(417.72 345.72)">14</text><g class="cls-21"><polygon class="cls-2" points="627.45 372.56 598.14 355.63 598.14 321.79 627.45 304.86 656.76 321.79 656.76 355.63 627.45 372.56"/><polygon class="cls-11" points="627.45 372.56 598.14 355.63 598.14 321.79 627.45 304.86 656.76 321.79 656.76 355.63 627.45 372.56"/><polygon class="cls-5" points="607.79 350.06 607.79 327.36 627.45 316.01 647.11 327.36 647.11 350.06 627.45 361.41 607.79 350.06"/><polygon class="cls-11" points="607.79 350.06 607.79 327.36 627.45 316.01 647.11 327.36 647.11 350.06 627.45 361.41 607.79 350.06"/><path class="cls-18" d="M627.45,327.56l19.66-.2v22.7l-19.66-.2-19.65.2v-22.7Z"/><path class="cls-13" d="M627.45,316l9.66,17.12,10,16.93-19.66,22.49L607.8,350.06v-22.7Z"/><polygon class="cls-35" points="607.8 327.36 627.45 316.01 647.11 327.36 647.11 350.06 627.45 372.56 607.8 350.06 607.8 327.36"/><text class="cls-23" transform="translate(615.2 345.72)">13</text></g><g class="cls-21"><polygon class="cls-2" points="364.16 224.44 334.84 207.51 334.84 173.67 364.16 156.74 393.47 173.67 393.47 207.51 364.16 224.44"/><polygon class="cls-11" points="364.16 224.44 334.84 207.51 334.84 173.67 364.16 156.74 393.47 173.67 393.47 207.51 364.16 224.44"/><polygon class="cls-5" points="344.5 201.94 344.5 179.24 364.16 167.89 383.81 179.24 383.81 201.94 364.16 213.29 344.5 201.94"/><polygon class="cls-11" points="344.5 201.94 344.5 179.24 364.16 167.89 383.81 179.24 383.81 201.94 364.16 213.29 344.5 201.94"/><path class="cls-14" d="M364.16,167.89l19.65,11.35v22.7l-19.65,22.5-9.66-28.28-10-16.92Z"/><path class="cls-19" d="M364.16,167.89l29.31,5.78-9.66,28.27-19.65-.2-29.32,5.77V173.67Z"/><polygon class="cls-36" points="334.84 173.67 364.16 167.89 393.47 173.67 383.81 201.94 364.16 225.12 334.84 207.51 334.84 173.67"/><text class="cls-23" transform="translate(351.9 197.94)">16</text></g><g class="cls-21"><polygon class="cls-2" points="429.98 224.44 400.67 207.51 400.67 173.67 429.98 156.74 459.29 173.67 459.29 207.51 429.98 224.44"/><polygon class="cls-11" points="429.98 224.44 400.67 207.51 400.67 173.67 429.98 156.74 459.29 173.67 459.29 207.51 429.98 224.44"/><polygon class="cls-5" points="410.32 201.94 410.32 179.24 429.98 167.89 449.64 179.24 449.64 201.94 429.98 213.29 410.32 201.94"/><polygon class="cls-11" points="410.32 201.94 410.32 179.24 429.98 167.89 449.64 179.24 449.64 201.94 429.98 213.29 410.32 201.94"/><path class="cls-15" d="M430,167.89,439.64,185l19.65,22.49L430,201.74l-29.31,5.77,9.65-28.27Z"/><path class="cls-19" d="M430,167.89l29.31,5.78-9.65,28.27-19.66-.2-29.31,5.77V173.67Z"/><polygon class="cls-37" points="400.67 173.67 429.98 167.47 459.29 173.67 460.05 208 429.98 201.74 400.13 208 400.67 173.67"/><text class="cls-23" transform="translate(417.72 197.6)">15</text></g><g class="cls-21"><polygon class="cls-2" points="495.8 224.44 466.49 207.51 466.49 173.67 495.8 156.74 525.12 173.67 525.12 207.51 495.8 224.44"/><polygon class="cls-11" points="495.8 224.44 466.49 207.51 466.49 173.67 495.8 156.74 525.12 173.67 525.12 207.51 495.8 224.44"/><polygon class="cls-5" points="476.14 201.94 476.14 179.24 495.8 167.89 515.46 179.24 515.46 201.94 495.8 213.29 476.14 201.94"/><polygon class="cls-11" points="476.14 201.94 476.14 179.24 495.8 167.89 515.46 179.24 515.46 201.94 495.8 213.29 476.14 201.94"/><path class="cls-16" d="M495.8,179.44l19.66-.2,9.66,28.27-29.32-5.77-19.65.2v-22.7Z"/><path class="cls-19" d="M495.8,167.89l29.32,5.78-9.66,28.27-19.66-.2-29.31,5.77V173.67Z"/><polygon class="cls-38" points="466.49 173.67 495.8 167.47 525.12 173.67 525.53 208 495.8 201.74 466.49 207.51 466.49 173.67"/><text class="cls-23" transform="translate(483.55 197.6)">15</text></g><g class="cls-21"><polygon class="cls-2" points="561.63 224.44 532.32 207.51 532.32 173.67 561.63 156.74 590.94 173.67 590.94 207.51 561.63 224.44"/><polygon class="cls-11" points="561.63 224.44 532.32 207.51 532.32 173.67 561.63 156.74 590.94 173.67 590.94 207.51 561.63 224.44"/><polygon class="cls-5" points="541.97 201.94 541.97 179.24 561.63 167.89 581.29 179.24 581.29 201.94 561.63 213.29 541.97 201.94"/><polygon class="cls-11" points="541.97 201.94 541.97 179.24 561.63 167.89 581.29 179.24 581.29 201.94 561.63 213.29 541.97 201.94"/><path class="cls-17" d="M561.63,167.89l19.66,11.35v22.7l-19.66-.2-29.31,5.77L552,185Z"/><path class="cls-19" d="M561.63,167.89l29.31,5.78-9.65,28.27-19.66-.2-29.31,5.77V173.67Z"/><polygon class="cls-39" points="532.32 173.14 561.63 167.47 590.94 173.67 581.28 201.94 561.63 201.74 532.32 208 532.32 173.14"/><text class="cls-23" transform="translate(549.37 197.6)">15</text></g><polygon class="cls-2" points="627.45 224.44 598.14 207.51 598.14 173.67 627.45 156.74 656.76 173.67 656.76 207.51 627.45 224.44"/><polygon class="cls-11" points="627.45 224.44 598.14 207.51 598.14 173.67 627.45 156.74 656.76 173.67 656.76 207.51 627.45 224.44"/><polygon class="cls-5" points="607.79 201.94 607.79 179.24 627.45 167.89 647.11 179.24 647.11 201.94 627.45 213.29 607.79 201.94"/><polygon class="cls-11" points="607.79 201.94 607.79 179.24 627.45 167.89 647.11 179.24 647.11 201.94 627.45 213.29 607.79 201.94"/><path class="cls-18" d="M627.45,179.44l19.66-.2v22.7l-19.66-.2-19.65.2v-22.7Z"/><path class="cls-19" d="M627.45,167.89l29.32,5.78-9.66,28.27-19.66-.2-29.31,5.77V173.67Z"/><polygon class="cls-40" points="598.14 173.24 627.45 167.47 656.76 173.67 647.11 201.94 627.45 201.74 598.14 207.51 598.14 173.24"/><text class="cls-23" transform="translate(615.2 197.6)">14</text><polygon class="cls-2" points="495.8 446.27 466.49 429.35 466.49 395.5 495.8 378.58 525.12 395.5 525.12 429.35 495.8 446.27"/><polygon class="cls-11" points="495.8 446.27 466.49 429.35 466.49 395.5 495.8 378.58 525.12 395.5 525.12 429.35 495.8 446.27"/><polygon class="cls-5" points="476.14 423.78 476.14 401.08 495.8 389.73 515.46 401.08 515.46 423.78 495.8 435.13 476.14 423.78"/><polygon class="cls-11" points="476.14 423.78 476.14 401.08 495.8 389.73 515.46 401.08 515.46 423.78 495.8 435.13 476.14 423.78"/><path class="cls-16" d="M495.8,401.28l19.66-.2,9.66,28.27-29.32-5.77-19.65.2v-22.7Z"/><path class="cls-14" d="M495.8,389.73l19.66,11.35v22.7L495.8,446.27,486.15,418l-10-16.92Z"/><polygon class="cls-41" points="476.15 401.08 495.8 389.73 515.46 401.08 525.12 429.35 495.8 446.27 476.15 423.78 476.15 401.08"/><text class="cls-23" transform="translate(483.55 419.44)">14</text><g class="cls-21"><polygon class="cls-2" points="429.98 446.27 400.67 429.35 400.67 395.5 429.98 378.58 459.29 395.5 459.29 429.35 429.98 446.27"/><polygon class="cls-11" points="429.98 446.27 400.67 429.35 400.67 395.5 429.98 378.58 459.29 395.5 459.29 429.35 429.98 446.27"/><polygon class="cls-5" points="410.32 423.78 410.32 401.08 429.98 389.73 449.64 401.08 449.64 423.78 429.98 435.13 410.32 423.78"/><polygon class="cls-11" points="410.32 423.78 410.32 401.08 429.98 389.73 449.64 401.08 449.64 423.78 429.98 435.13 410.32 423.78"/><path class="cls-15" d="M430,389.73l9.66,17.12,19.65,22.5L430,423.58l-29.31,5.77,9.65-28.27Z"/><path class="cls-14" d="M430,389.73l19.66,11.35v22.7L430,446.27,420.32,418l-10-16.92Z"/><polygon class="cls-42" points="410.32 401.08 429.98 389.73 449.64 401.08 459.29 429.35 429.98 446.27 400.67 429.35 410.32 401.08"/><text class="cls-23" transform="translate(417.72 419.44)">15</text></g><polygon class="cls-2" points="561.63 446.27 532.32 429.35 532.32 395.5 561.63 378.58 590.94 395.5 590.94 429.35 561.63 446.27"/><polygon class="cls-11" points="561.63 446.27 532.32 429.35 532.32 395.5 561.63 378.58 590.94 395.5 590.94 429.35 561.63 446.27"/><polygon class="cls-5" points="541.97 423.78 541.97 401.08 561.63 389.73 581.29 401.08 581.29 423.78 561.63 435.13 541.97 423.78"/><polygon class="cls-11" points="541.97 423.78 541.97 401.08 561.63 389.73 581.29 401.08 581.29 423.78 561.63 435.13 541.97 423.78"/><path class="cls-17" d="M561.63,389.73l19.66,11.35v22.7l-19.66-.2-29.31,5.77L552,406.85Z"/><path class="cls-14" d="M561.63,389.73l19.66,11.35v22.7l-19.66,22.49L552,418l-10-16.92Z"/><polygon class="cls-43" points="541.97 401.08 561.63 389.73 581.28 401.08 581.28 423.78 561.63 446.27 531.2 429.35 541.97 401.08"/><text class="cls-23" transform="translate(549.37 419.44)">14</text><g class="cls-21"><polygon class="cls-2" points="627.45 446.27 598.14 429.35 598.14 395.5 627.45 378.58 656.76 395.5 656.76 429.35 627.45 446.27"/><polygon class="cls-11" points="627.45 446.27 598.14 429.35 598.14 395.5 627.45 378.58 656.76 395.5 656.76 429.35 627.45 446.27"/><polygon class="cls-5" points="607.79 423.78 607.79 401.08 627.45 389.73 647.11 401.08 647.11 423.78 627.45 435.13 607.79 423.78"/><polygon class="cls-11" points="607.79 423.78 607.79 401.08 627.45 389.73 647.11 401.08 647.11 423.78 627.45 435.13 607.79 423.78"/><path class="cls-18" d="M627.45,401.28l19.66-.2v22.7l-19.66-.2-19.65.2v-22.7Z"/><path class="cls-14" d="M627.45,389.73l19.66,11.35v22.7l-19.66,22.49L617.8,418l-10-16.92Z"/><polygon class="cls-44" points="606.9 401.08 627.45 389.73 647.11 401.08 647.11 423.78 627.45 446.27 606.9 423.78 606.9 401.08"/><text class="cls-23" transform="translate(615.2 419.44)">13</text></g><g class="cls-21"><polygon class="cls-2" points="495.8 519.99 466.49 503.07 466.49 469.22 495.8 452.3 525.12 469.22 525.12 503.07 495.8 519.99"/><polygon class="cls-11" points="495.8 519.99 466.49 503.07 466.49 469.22 495.8 452.3 525.12 469.22 525.12 503.07 495.8 519.99"/><polygon class="cls-5" points="476.14 497.5 476.14 474.8 495.8 463.45 515.46 474.8 515.46 497.5 495.8 508.85 476.14 497.5"/><polygon class="cls-11" points="476.14 497.5 476.14 474.8 495.8 463.45 515.46 474.8 515.46 497.5 495.8 508.85 476.14 497.5"/><path class="cls-16" d="M495.8,475l19.66-.2,9.66,28.27L495.8,497.3l-19.65.2V474.8Z"/><path class="cls-15" d="M495.8,463.45l9.66,17.12,19.66,22.5L495.8,497.3l-29.31,5.77,9.66-28.27Z"/><polygon class="cls-45" points="476.15 474.8 495.8 463.45 515.46 474.8 525.12 503.07 495.8 497.3 466.49 503.07 476.15 474.8"/><text class="cls-23" transform="translate(483.55 493.16)">13</text></g><g class="cls-21"><polygon class="cls-2" points="561.63 593.71 532.32 576.79 532.32 542.94 561.63 526.02 590.94 542.94 590.94 576.79 561.63 593.71"/><polygon class="cls-11" points="561.63 593.71 532.32 576.79 532.32 542.94 561.63 526.02 590.94 542.94 590.94 576.79 561.63 593.71"/><polygon class="cls-5" points="541.97 571.22 541.97 548.52 561.63 537.17 581.29 548.52 581.29 571.22 561.63 582.57 541.97 571.22"/><polygon class="cls-11" points="541.97 571.22 541.97 548.52 561.63 537.17 581.29 548.52 581.29 571.22 561.63 582.57 541.97 571.22"/><path class="cls-17" d="M561.63,537.17l19.66,11.35v22.69L561.63,571l-29.31,5.77L552,554.29Z"/><path class="cls-16" d="M561.63,548.72l19.66-.2,9.65,28.27L561.63,571l-19.66.19V548.52Z"/><polygon class="cls-46" points="541.11 548.52 561.63 537.17 582.15 548.52 590.94 576.79 561.63 571.02 532.32 576.79 541.11 548.52"/><text class="cls-23" transform="translate(549.37 566.88)">13</text></g><g class="cls-21"><polygon class="cls-2" points="627.45 593.71 598.14 576.79 598.14 542.94 627.45 526.02 656.76 542.94 656.76 576.79 627.45 593.71"/><polygon class="cls-11" points="627.45 593.71 598.14 576.79 598.14 542.94 627.45 526.02 656.76 542.94 656.76 576.79 627.45 593.71"/><polygon class="cls-5" points="607.79 571.22 607.79 548.52 627.45 537.17 647.11 548.52 647.11 571.22 627.45 582.57 607.79 571.22"/><polygon class="cls-11" points="607.79 571.22 607.79 548.52 627.45 537.17 647.11 548.52 647.11 571.22 627.45 582.57 607.79 571.22"/><path class="cls-18" d="M627.45,548.72l19.66-.2v22.69L627.45,571l-19.65.19V548.52Z"/><path class="cls-16" d="M627.45,548.72l19.66-.2,9.66,28.27L627.45,571l-19.65.19V548.52Z"/><polygon class="cls-47" points="607.8 571.22 607.8 548.52 647.11 548.52 656.76 576.79 627.45 571.02 607.8 571.22"/><text class="cls-23" transform="translate(615.2 566.88)">11</text></g><g class="cls-21"><polygon class="cls-2" points="561.63 519.99 532.32 503.07 532.32 469.22 561.63 452.3 590.94 469.22 590.94 503.07 561.63 519.99"/><polygon class="cls-11" points="561.63 519.99 532.32 503.07 532.32 469.22 561.63 452.3 590.94 469.22 590.94 503.07 561.63 519.99"/><polygon class="cls-5" points="541.97 497.5 541.97 474.8 561.63 463.45 581.29 474.8 581.29 497.5 561.63 508.85 541.97 497.5"/><polygon class="cls-11" points="541.97 497.5 541.97 474.8 561.63 463.45 581.29 474.8 581.29 497.5 561.63 508.85 541.97 497.5"/><path class="cls-17" d="M561.63,463.45l19.66,11.35v22.7l-19.66-.2-29.31,5.77L552,480.57Z"/><path class="cls-15" d="M561.63,463.45l9.65,17.12,19.66,22.5-29.31-5.77-29.31,5.77L542,474.8Z"/><polygon class="cls-48" points="532.32 503.07 541.97 474.8 561.63 463.45 581.28 474.8 590.94 503.07 562.64 497.5 532.32 503.07"/><text class="cls-23" transform="translate(549.37 493.16)">13</text></g><g class="cls-21"><polygon class="cls-2" points="627.45 519.99 598.14 503.07 598.14 469.22 627.45 452.3 656.76 469.22 656.76 503.07 627.45 519.99"/><polygon class="cls-11" points="627.45 519.99 598.14 503.07 598.14 469.22 627.45 452.3 656.76 469.22 656.76 503.07 627.45 519.99"/><polygon class="cls-5" points="607.79 497.5 607.79 474.8 627.45 463.45 647.11 474.8 647.11 497.5 627.45 508.85 607.79 497.5"/><polygon class="cls-11" points="607.79 497.5 607.79 474.8 627.45 463.45 647.11 474.8 647.11 497.5 627.45 508.85 607.79 497.5"/><path class="cls-18" d="M627.45,475l19.66-.2v22.7l-19.66-.2-19.65.2V474.8Z"/><path class="cls-15" d="M627.45,463.45l9.66,17.12,19.66,22.5-29.32-5.77-29.31,5.77,9.66-28.27Z"/><polygon class="cls-49" points="607.8 474.8 627.45 463.45 647.11 474.8 656.76 503.07 627.45 497.3 598.14 503.07 607.8 474.8"/><text class="cls-23" transform="translate(615.2 493.16)">12</text></g><g class="cls-21"><polygon class="cls-2" points="627.45 667.43 598.14 650.51 598.14 616.66 627.45 599.74 656.76 616.66 656.76 650.51 627.45 667.43"/><polygon class="cls-11" points="627.45 667.43 598.14 650.51 598.14 616.66 627.45 599.74 656.76 616.66 656.76 650.51 627.45 667.43"/><polygon class="cls-5" points="607.79 644.94 607.79 622.24 627.45 610.88 647.11 622.24 647.11 644.94 627.45 656.29 607.79 644.94"/><polygon class="cls-11" points="607.79 644.94 607.79 622.24 627.45 610.88 647.11 622.24 647.11 644.94 627.45 656.29 607.79 644.94"/><path class="cls-18" d="M627.45,622.44l19.66-.2v22.69l-19.66-.19-19.65.19V622.24Z"/><path class="cls-17" d="M627.45,610.89l19.66,11.35v22.69l-19.66-.19-29.31,5.77L617.8,628Z"/><polygon class="cls-50" points="598.14 650.51 607.8 622.24 627.45 610.89 647.11 622.24 647.11 644.93 627.45 644.74 598.14 650.51"/><text class="cls-23" transform="translate(615.2 640.6)">12</text></g><text class="cls-51" transform="translate(212.88 355.64)">V<tspan class="cls-52" x="9.92" y="0">aishnavi</tspan></text><text class="cls-53" transform="translate(210.44 377.55)">Dani</text><text class="cls-53" transform="translate(212.03 399.46)"><tspan class="cls-54">Y</tspan><tspan class="cls-55" x="8.94" y="0">uri</tspan><tspan class="cls-56" x="27.38" y="0">k</tspan><tspan x="35.56" y="0">o</tspan></text><text class="cls-57" transform="translate(211.46 421.38)">Y<tspan class="cls-55" x="8.94" y="0">uhan</tspan></text><text class="cls-58" transform="translate(94.39 356.08)">K<tspan class="cls-52" x="9.74" y="0">athleen</tspan></text><text class="cls-53" transform="translate(93.23 377.99)">Joli</text><text class="cls-57" transform="translate(93.63 399.9)">Y<tspan class="cls-55" x="8.94" y="0">ujia</tspan></text><text class="cls-53" transform="translate(92.65 421.81)">Naveen</text><polygon class="cls-59" points="81.83 342.84 74 342.84 70.09 349.63 74 356.41 81.83 356.41 85.75 349.63 81.83 342.84"/><polygon class="cls-60" points="81.83 365.57 74 365.57 70.09 372.35 74 379.13 81.83 379.13 85.75 372.35 81.83 365.57"/><polygon class="cls-61" points="81.83 388.29 74 388.29 70.09 395.07 74 401.86 81.83 401.86 85.75 395.07 81.83 388.29"/><polygon class="cls-62" points="81.83 411.01 74 411.01 70.09 417.8 74 424.58 81.83 424.58 85.75 417.8 81.83 411.01"/><polygon class="cls-63" points="199.47 342.87 191.64 342.87 187.72 349.65 191.64 356.44 199.47 356.44 203.39 349.65 199.47 342.87"/><polygon class="cls-64" points="199.47 365.59 191.64 365.59 187.72 372.38 191.64 379.16 199.47 379.16 203.39 372.38 199.47 365.59"/><polygon class="cls-65" points="199.47 388.32 191.64 388.32 187.72 395.1 191.64 401.88 199.47 401.88 203.39 395.1 199.47 388.32"/><polygon class="cls-66" points="199.47 411.04 191.64 411.04 187.72 417.82 191.64 424.61 199.47 424.61 203.39 417.82 199.47 411.04"/></g></svg>