<svg id="Layer_1" data-name="Layer 1" xmlns="http://www.w3.org/2000/svg" width="377.24" height="120.86" viewBox="0 0 377.24 120.86">
  <defs>
    <style>
      .cls-1 {
        fill: #8cdcfe;
      }

      .cls-2 {
        fill: #1e1e1e;
      }

      .cls-3 {
        fill: #ff4081;
      }
    </style>
  </defs>
  <g id="Other">
    <rect class="cls-1" x="0.37" width="376.87" height="123.82"/>
    <g>
      <path class="cls-2" d="M54.58,54.74c0-17.2,8.44-26.87,20.58-26.87s20.57,9.67,20.57,26.87c0,17.52-8.44,27.35-20.57,27.35S54.58,72.26,54.58,54.74Zm31.57,0c0-12-4.34-18.78-11-18.78s-11,6.78-11,18.78c0,12.32,4.34,19.26,11,19.26S86.15,67.06,86.15,54.74Z"/>
      <path class="cls-2" d="M114.34,65.34V49.17H103.83v-6.9l10.9-.43,1.2-12.3h7.67v12.3h17.86v7.33H123.6V65.3c0,6.49,2.43,9.41,9.07,9.41a24.52,24.52,0,0,0,8.55-1.58L143,79.86a38.38,38.38,0,0,1-12.57,2.23C118.43,82.09,114.34,75.35,114.34,65.34Z"/>
      <path class="cls-2" d="M153.74,24.64H163V39.22l-.55,8.41h.27c3.42-3.68,7.83-6.75,13.8-6.75,9.06,0,13.15,5.79,13.15,15.91V81.13h-9.26V58c0-6.31-2-9.19-7.32-9.19-3.88,0-6.5,1.88-10.09,5.52v26.8h-9.26Z"/>
      <path class="cls-2" d="M200.06,61.43c0-12.81,9.74-20.55,20.26-20.55,11.72,0,18.23,7.78,18.23,18.65a30.78,30.78,0,0,1-.41,4.65H206.67V57.65h25.49l-1.77,2c0-7.76-3.65-11.7-9.8-11.7-6.49,0-11.5,4.67-11.5,13.44,0,9.15,5.5,13.5,13.67,13.5a21.36,21.36,0,0,0,11-3.21L237,77.45a28.58,28.58,0,0,1-15.4,4.64C209.52,82.09,200.06,74.51,200.06,61.43Z"/>
      <path class="cls-2" d="M253.55,41.84h7.63l.79,8.94h.22c4-6.41,9.95-9.9,16.71-9.9a16.36,16.36,0,0,1,7.65,1.6l-2,7.82a20,20,0,0,0-7.11-1.22c-5.37,0-10.65,2.76-14.68,10.39V81.13h-9.25Z"/>
    </g>
    <g>
      <path class="cls-3" d="M40.7,71.93,34.06,79.1,8.88,55.77h0a4.88,4.88,0,0,1,0-7.17L34.06,25.27l6.64,7.16L19.39,52.18Z"/>
      <path class="cls-3" d="M298.3,109.81l-9.52-2.17,22.62-99,9.53,2.17ZM361,63.75,335.82,87.08l-6.64-7.16,21.31-19.75L329.18,40.42l6.64-7.16L361,56.59a4.88,4.88,0,0,1,0,7.17Z"/>
    </g>
  </g>
</svg>
