<?xml version="1.0" encoding="UTF-8"?>
<svg id="Layer_1" data-name="Layer 1" xmlns="http://www.w3.org/2000/svg" viewBox="0 0 3507.36 3507.36">
  <defs>
    <style>
      .cls-1 {
        fill: #ea21ad;
      }

      .cls-1, .cls-2 {
        stroke-width: 0px;
      }

      .cls-2 {
        fill: #17191b;
      }
    </style>
  </defs>
  <rect class="cls-2" width="3507.36" height="3507.36"/>
  <g>
    <path class="cls-1" d="m35.12,1301.98c7.6-4.24,224.58-62.91,358.94-74,244.09-20.21,367.24-13,484.39-3.23,184.55,15.45,348.75,37.63,450.1,76,81,30.71,209,96.93,253.75,136.17,21.22,18.6,68.58,55.71,139.2,71,13.69,3,66.31,13.33,132.11-.63,35.14-7.46,60.78-19,133-58.41,69.89-38.09,102.05-62.32,141.64-80.28,155.24-70.43,435.12-93.92,618-97.4,398.63-7.58,528.3,54.58,587.77,71.36,37.47,10.58,102.92,29.35,111.32,38.94,8,9.12-2,66.33-11.54,87.88-9.3,20.95-26.47,24.19-44.63,37.81-46.68,35-58.13,91.57-68.16,131-22.72,89.35-77.1,243.71-123.65,331-20.28,38-105.91,193.55-276.7,265.24-72.37,30.38-135.18,35.28-234.61,43-76,5.91-177.69,12.14-268.35,2.57-95.24-10.06-186.09-42.23-269.39-104.78-124.56-93.53-192.77-277.67-208-329.44-29.69-101-31.55-122.17-51.33-145.31-47.88-56-144.85-60.23-206.08-19.82-51.87,34.24-58.6,89.38-82.35,158.29-56.09,162.76-163,274.22-210.73,315.84-142.83,124.44-331.07,124.37-484.32,124.31-93.37,0-215.06-1.45-351.15-68.93-48.89-24.25-135-74.57-212-165.77-41.44-49.11-116.07-206.78-169.83-387.91-14.35-48.39-29.58-128.44-42.83-160.3-16.92-40.7-66.95-51.45-90.95-77.14-11.07-11.9-11.48-112.68-3.62-117.06Z"/>
    <path class="cls-2" d="m277.38,1767.48c-12-39.23-45.49-202.43-28.7-283.22,5.17-24.93,15.55-72.36,49.51-112.95,52.57-62.83,133.62-75.83,195.81-83.06,148.06-17.26,290-13.72,656.24,34.4,39.93,5.24,133.45,18.3,239.22,69.89,95.91,46.78,126.54,88.5,134.16,99.39,48.47,69.22,45.41,147,42.67,198.82-5.44,102.89-44.94,284.78-199.3,415.1-161.69,136.5-349.74,132.53-460.75,130.19-106.23-2.24-337.08-9.43-488.33-180.76-53.69-60.8-113.8-200.64-140.53-287.8Z"/>
    <path class="cls-2" d="m2284.26,2193.97c-38.63-16.11-90.1-36.26-152.49-100.83-85.09-88.09-111.89-190.1-130.28-284.17-17.55-89.78-27.31-164.91,5.17-236,30.63-67,85.67-105.09,112.06-123.35,59.91-41.46,116.73-55.56,157.9-64.89,217.88-49.34,408.05-57.78,438.51-59,0,0,98.2-3.93,332.66,20.48,19.24,1.92,38.14,6.39,56.2,13.29,16.83,6.43,71.93,28.39,106,85.63,18.8,31.64,23.23,60.71,27.47,88.51,2.69,17.61,5.92,48.43,1.3,90.83-25.4,232.85-144.05,401.54-144.05,401.54-38.33,49.89-81.26,99.3-150.84,139.3-54.18,31.14-79.93,37.32-163.23,53.79-87.19,17.24-202.58,19.45-345.58,13-28.74-1.22-92.42-13.79-150.8-38.13Z"/>
  </g>
</svg>