<svg xmlns="http://www.w3.org/2000/svg" viewBox="0 0 88.45 248.39"><defs><style>.cls-1{fill:#9376a8;}.cls-2{fill:#fff;}</style></defs><g id="Layer_2" data-name="Layer 2"><g id="Needle_types" data-name="Needle types"><path class="cls-1" d="M11.78,203.84l-1.23,10.39q-1.19,9.92-2.37,19.83c-.39,3.26-1,6.5-1.15,9.79,0,1-.63,1.75-.62,2.7a.49.49,0,0,1-.53.44.71.71,0,0,1-.76-.68c-.19-1-.38-2.05-.51-3.08-1.09-9-2.21-17.93-3.11-26.92C1.08,212.13.62,208,.2,203.77a21.21,21.21,0,0,1-.13-2.25Q0,122.35,0,43.16c0-5,.82-9.95,1.4-14.91,1-8.47,2.09-16.94,3.16-25.4A15,15,0,0,1,5.05.66c.1-.35.34-.72.8-.65s.49.41.6.73A13.87,13.87,0,0,1,7,3.94q1,7.74,1.85,15.49c.67,5.82,1.44,11.65,2.33,17.44a49.13,49.13,0,0,1,.58,6.45Z"/><path class="cls-2" d="M2.47,119.61c0,16.9.08,33.74.11,50.64,0,5.08-.11,10.16.07,15.24l-1.27,0c.08-40.46.16-80.7.24-121.09l.57-.08a90.61,90.61,0,0,1,.62,9.58"/><path class="cls-1" d="M30.94,203.84q-.6,5.21-1.22,10.39-1.18,9.92-2.37,19.83c-.39,3.26-1,6.5-1.15,9.79,0,1-.63,1.75-.62,2.7a.49.49,0,0,1-.53.44.71.71,0,0,1-.76-.68c-.19-1-.38-2.05-.51-3.08-1.09-9-2.21-17.93-3.11-26.92-.42-4.18-.88-8.36-1.3-12.54a21.21,21.21,0,0,1-.13-2.25q0-79.17-.07-158.36c0-5,.82-9.95,1.4-14.91,1-8.47,2.09-16.94,3.16-25.4A15,15,0,0,1,24.22.66c.1-.35.34-.72.8-.65s.49.41.6.73a13.87,13.87,0,0,1,.51,3.2q1,7.74,1.85,15.49c.67,5.82,1.44,11.65,2.33,17.44a49.13,49.13,0,0,1,.58,6.45Z"/><path class="cls-2" d="M21.64,119.61c0,16.9.08,33.74.11,50.64,0,5.08-.11,10.16.07,15.24l-1.27,0c.08-40.46.16-80.7.24-121.09l.57-.08A90.61,90.61,0,0,1,22,73.87"/><path class="cls-1" d="M50.11,203.84q-.6,5.21-1.22,10.39-1.19,9.92-2.37,19.83c-.39,3.26-1,6.5-1.15,9.79,0,1-.63,1.75-.62,2.7a.49.49,0,0,1-.53.44.71.71,0,0,1-.76-.68c-.19-1-.38-2.05-.51-3.08-1.09-9-2.21-17.93-3.11-26.92-.42-4.18-.88-8.36-1.3-12.54a21.21,21.21,0,0,1-.13-2.25q0-79.17-.07-158.36c0-5,.82-9.95,1.4-14.91,1-8.47,2.09-16.94,3.16-25.4A15,15,0,0,1,43.39.66c.1-.35.34-.72.8-.65s.49.41.6.73a14.43,14.43,0,0,1,.51,3.2C46,9.1,46.55,14.26,47.15,19.43c.67,5.82,1.44,11.65,2.33,17.44a49.13,49.13,0,0,1,.58,6.45Z"/><path class="cls-2" d="M40.8,119.61c0,16.9.09,33.74.12,50.64,0,5.08-.12,10.16.07,15.24l-1.27,0c.08-40.46.16-80.7.24-121.09l.57-.08a90.61,90.61,0,0,1,.62,9.58"/><path class="cls-1" d="M69.28,203.84q-.6,5.21-1.22,10.39-1.19,9.92-2.37,19.83c-.39,3.26-1,6.5-1.15,9.79,0,1-.63,1.75-.62,2.7a.49.49,0,0,1-.53.44.71.71,0,0,1-.76-.68c-.19-1-.39-2.05-.51-3.08-1.09-9-2.21-17.93-3.11-26.92-.42-4.18-.88-8.36-1.3-12.54-.08-.75-.13-1.5-.14-2.25L57.51,43.16c0-5,.82-9.95,1.4-14.91,1-8.47,2.09-16.94,3.16-25.4A15,15,0,0,1,62.56.66c.1-.35.34-.72.8-.65s.48.41.6.73a14.43,14.43,0,0,1,.51,3.2c.65,5.16,1.25,10.32,1.85,15.49.67,5.82,1.44,11.65,2.33,17.44a49.13,49.13,0,0,1,.58,6.45Z"/><path class="cls-2" d="M60,119.61c0,16.9.09,33.74.12,50.64,0,5.08-.12,10.16.07,15.24l-1.27,0c.08-40.46.16-80.7.24-121.09l.56-.08a88,88,0,0,1,.63,9.58"/><path class="cls-1" d="M88.45,205.24q-.6,5.19-1.22,10.38-1.19,9.91-2.37,19.83c-.39,3.26-1,6.5-1.15,9.79,0,.95-.63,1.75-.63,2.7,0,.27-.25.43-.52.44-.47,0-.69-.29-.76-.68-.2-1-.39-2-.51-3.08-1.09-9-2.21-17.93-3.11-26.92-.42-4.18-.88-8.36-1.3-12.54a21.21,21.21,0,0,1-.14-2.24L76.68,44.55c0-5,.82-9.95,1.4-14.91,1-8.47,2.09-16.93,3.16-25.4a14.63,14.63,0,0,1,.49-2.18c.1-.36.34-.72.8-.66s.48.42.6.73a14.43,14.43,0,0,1,.51,3.2c.65,5.16,1.25,10.32,1.85,15.49.67,5.82,1.44,11.65,2.33,17.45a48.89,48.89,0,0,1,.58,6.44Z"/><path class="cls-2" d="M79.14,121c0,16.9.09,33.75.12,50.64,0,5.08-.12,10.17.07,15.24l-1.27,0c.08-40.46.16-80.7.24-121.09l.56-.08a88,88,0,0,1,.63,9.58"/></g></g></svg>