<svg xmlns="http://www.w3.org/2000/svg" viewBox="0 0 588.04 232.07"><defs><style>.cls-1{fill:#9376a8;}</style></defs><g id="Layer_2" data-name="Layer 2"><g id="Tools"><g id="Tape_measure" data-name="Tape measure"><path class="cls-1" d="M348.76,68.75c.84-.31,1.72-.42,2.09.58s-.22,1.48-.94,2c-3.43,2.75-6.81,5.54-10.18,8.36a4.08,4.08,0,0,0-1.61,1.82c.54.52,1,0,1.23-.23,1.84-2,4.17-3.35,6.27-5S350.08,73.79,352,72a1,1,0,0,1,1.46.17,1.13,1.13,0,0,1-.1,1.52C352,75.14,350.1,76,349.07,77.8c-.34.63-1.38-.27-2.12-.06,1.34,2,1.67,2,3.51.77a17.09,17.09,0,0,0,3.79-3.14,1.2,1.2,0,0,1,2-.17A1.1,1.1,0,0,1,356,77c-2,1.3-3.27,3.72-6,4,1.79,1.49,1.75,1.39,3.44.28a19.08,19.08,0,0,0,3.54-2.79c.87-.93,3.28-1,3.57-1.25,3-2.94,3.47-7,5-10.64,1.12-2.63,2.78-5,4.1-7.59A116.24,116.24,0,0,1,378,46c2.68-2.08,4-5.37,6.72-7.48,1-.77,1.78-2,3-2.7.18-.09,5.41-5.83,8.14-8.15,4.06-3.43,8.09-7,12.74-9.7C412,16,422,10,423.92,9.53c3.24-.85,6.18-2.51,9.44-3.43,4.34-1.22,17.79-4.71,20.22-5,2.23-.26,4.47-.5,6.71-.54,3.6-.05,7.15-.76,10.8-.51,3.13.22,6.29-.12,9.41.5,5.37,1.08,10.83,1.57,16.21,2.63,2.53.49,5,1.3,7.52,1.75a46.89,46.89,0,0,1,8.09,2.71,103.23,103.23,0,0,1,14.78,6.61c4.62,2.67,9,5.58,13.37,8.67a101.93,101.93,0,0,1,15.31,13.53A136.5,136.5,0,0,1,567.6,51.39a104.93,104.93,0,0,1,10.21,17.93c1.44,3.27,2.47,6.76,3.66,10.16a118.83,118.83,0,0,1,4.77,17.76c.78,4.22,1,15.49,1.65,16.72.41.81-.08,9.61-.6,13-.67,4.5-1.34,9-2.45,13.47-1,3.89-2,7.78-2.92,11.69-.4,1.71-1.44,3.12-2,4.74a87.63,87.63,0,0,1-7.1,15.7c-1.87,3.28-3.51,6.74-5.81,9.69-2.89,3.72-5.4,7.73-8.71,11.17-4.87,5.06-9.66,10.23-15.29,14.42A91.89,91.89,0,0,1,531,215.93c-2.33,1.22-4.6,2.73-6.92,4-3.15,1.74-6.72,2.72-9.94,4.35-4.38,2.23-9.17,3.2-13.77,4.69-3,1-8.08,1.94-10.32,2.4-2.83.7-8.39.29-10.48.68-.49.1-9.24-.91-13.52-.84-4-.38-8.88-1.38-12.92-2.12a131.75,131.75,0,0,1-27.91-8.4,106.45,106.45,0,0,1-22.79-13.41,186.82,186.82,0,0,1-19.93-17.87c-3-3.09-7.1-6.35-9.61-9.78s-7.35-11.93-8.88-14.76c-.84-1.53-4.68-11.26-5.05-13.6-.24-1.6-2.94-13.35-3-13.47a101.51,101.51,0,0,1-1.66-10.53A95.9,95.9,0,0,1,354.2,110a38.09,38.09,0,0,0-.67-10.23c-.35-2-2-3.37-3.49-4.74q-6-5.66-12-11.27c-5.59-5.22-11.25-10.37-16.77-15.67-3.56-3.4-6.94-7-10.37-10.54a17.06,17.06,0,0,0-2.41-1.92c-.91-.65-1.13-1.38-.22-2.18,2.72-2.4,5.45-4.8,8.21-7.15.61-.53,1.14-1.52,2.24-.7.3.22.65-.11.85-.4,1.67-2.33,4.37-3.47,6.31-5.49.53-.54,1.15-.91,1.78-.27s.21,1.4-.4,1.92A62.06,62.06,0,0,1,321.51,46c-1.21.79-1.7,1.18-.53,2.3a4.1,4.1,0,0,1,.62,1.06,2,2,0,0,1,.29.29l2.35,1.71a71.06,71.06,0,0,0,6.5-5.2,1,1,0,0,1,1.47,0,1,1,0,0,1,0,1.62c-2,1.74-4,3.51-6.1,5.14-.51.4-.89.49-.53,1.18s.77.54,1.35.27a20.25,20.25,0,0,0,5.05-3.82c.7-.63,1.26-1.61,2.41-1.12s.77,1.48.84,2.35c-1.23,0-5,2.77-5.33,4.07a3.5,3.5,0,0,1-1.72,2.14,17.9,17.9,0,0,0-3.79,4c1.65-.45,2.1-1.39,2.8-2,2.86-2.43,6-4.59,8.39-7.5.75,0,1.63-.09,1.89.85s-.37,1.44-1.09,1.76c-1,.45-1,1.75-2,2.3-.34.19-.11.64.14.89a.74.74,0,0,0,1.1,0c.77-.68,1.53-1.38,2.29-2.07.54-.49,1.13-1,1.79-.32a1.32,1.32,0,0,1,0,2c-1.35,1.28-2.79,2.48-4.21,3.7-.31.27-.76.51-.6,1s.68.21,1.06.19c2-.11,2.91-1.94,4.27-3,.83-.66,1.44-1.19,2.2-.35s.11,1.68-.68,2.18c-1.9,1.23-3.1,3.3-5.25,4.27-1,.44-.64,2.36.56,3.07a10.52,10.52,0,0,1,3.28,3.36c.48.71,1.25,1.47.18,2.3s-1.53,3-3.75,1.82a12.85,12.85,0,0,1-4.07-4c-.23-.31-.24-.83-1.08-.9a8.25,8.25,0,0,0,3.72,4.9c1.18.84,2.07,1.39.45,3,4.77-3.38,9.3-6.61,13.07-10.78ZM459.16,2.94a4.09,4.09,0,0,0,3.34.47,13.45,13.45,0,0,1,4.72-.22c3.69.59,7.39.06,11.08.2,7.69.3,15.07,2,22.49,3.66,2.35.53,4.66,1.18,7,1.75.38.09.91.15,1-.37s-.41-.65-.8-.71a5.14,5.14,0,0,1-2.4-.52c-2.13-1.55-4.74-1.8-7.14-2.26a123.39,123.39,0,0,0-14.62-2.39c-6.93-.47-13.83-.91-20.76-.18C461.78,2.51,460.47,2.75,459.16,2.94Z"/><path class="cls-1" d="M58.81,97.34c1.42.32,2-.45,2.73-.73.38-.13.79-.48,1.13-.08s0,.77-.25,1.09-.39.39-.54.62c-.27.41-.55,1-.07,1.29s.77-.34,1-.71a3.66,3.66,0,0,1,1.26-1.33c.48-.29.67-.73.24-1.2-1.77-2-2.3-5.13-5.48-5.8a1.18,1.18,0,0,1-.69-.71c-.29-.8-1.25-1.77-.5-2.41s1.52.44,2.2,1c2.16,1.67,4.31,3.37,6.53,5,1.2.86,2.48,1.44,3.18,3a1.85,1.85,0,0,0,3.13.35,3.06,3.06,0,0,1,2.43-1.2C75,96.61,74,97.16,73.54,98a4.75,4.75,0,0,0-.78,3.08c.26,1.62-1.08,2.46-2,3.39-3.22,3.26-6.78,6.2-9.24,10.18a5.27,5.27,0,0,1-2.62,2.27c-1.69.58-2.57,2-3.72,3.12-2,2-3.09,4-1.64,6.88,1,1.94.16,4-1.14,5.55-4.11,5-8.36,9.8-12.54,14.7-1.47,1.72-3,3.43-4.34,5.23-4,5.25-8.73,4.89-12.85.94-4.46-4.28-9.1-8.34-13.7-12.46-2.51-2.24-4.77-4.74-7.35-6.92-2-1.68-2.16-6.65-.48-8.67Q8,117,15.07,108.85a26.42,26.42,0,0,0,1.77-2.77c1.92-2.84,4.27-5,7.94-5.17a6.25,6.25,0,0,1,4.28,1.72c1.08.84.29,1.62-.26,2.27a38.59,38.59,0,0,0-3.25,3.73,2,2,0,0,0,.29,2.86c4.63,4.65,9.16,9.4,13.73,14.11a10.37,10.37,0,0,0,1.69,1.49c1,.63,1.2,2.49,2.44,2.18.94-.24,1.58-1.59,2.4-2.41,1.77-1.79,2.82-4.22,5.36-5.57-1.56-.42-1.62-.49-3.23.92-1,.91-1.86,1.19-2.87,0a3.31,3.31,0,0,0-1.35-.93c-2.14-.72-2.72-2.37-2.69-4.37,0-1.38-.58-1.92-2-2-2.67-.16-3.4-.85-3.7-3.46-.24-2-.09-4.12-.82-6.1a1.49,1.49,0,0,1,.45-1.71c1.28-1,2.23-2.13,2-3.87.74.11,1,.55.88.77-.8,1.9,1.41,3.48.56,5.39-.18.4.19.8.66.87.73.12,1-.4,1.07-1,.17-1.57.22-3.15.4-4.71.06-.54-.13-1.55.72-1.42s.51,1,.25,1.54c-.83,1.64.32,2.93.8,4.27.34,1,1.11.59,1.47-.2a6,6,0,0,1,3-2.84L45.22,106c-.21.4-.83.79-.42,1.24s1,0,1.45-.28c.23-.14.45-.32.79-.07,0,.92-1.62,2.17-.08,2.76s1.6-1.15,2-2.15c.19-.46.19-1.29,1-1,.5.19.35.83.23,1.31a1.94,1.94,0,0,0-.12.39c0,.77-1.6,1.65-.28,2.16.74.28,2-.94,2.06-1.92,0-2,1.35-2.83,2.68-3.81s2-2.31.92-3.89c-.63-.92-.1-1.82-.05-2.87-3,1.23-.63,4.45-2.66,6-.72-1.34-1.92-1.45-3.28-1.34-1.2.1-2.25-.45-1.73-1.8a5.09,5.09,0,0,0-.33-4.15c-1.17-2.55-.15-4.43,1.7-6,1.14-1,1.4-1.64,0-2.46-.36-.21-.73-.52-.5-1s.7-.11,1.06-.13c2.35-.13,2.91,2,4,3.27.55.65-.42,1.2-.59,1.83s-.27,1,.28,1.26.85-.29,1-.73c.41-1,.61-2.57,1.82-2.42,1.42.18.21,1.79.71,2.64.07.12.06.28.13.39.51.73-.57,2.11.6,2.32.83.14.85-1.24,1.29-1.9.19-.28.34-.66.75-.57s.48.46.54.8A3.4,3.4,0,0,1,58.81,97.34ZM69,103.5a3.46,3.46,0,0,0,1.89-1.5c.49-.77-.13-1.3-.63-1.74-.92-.81-1.9-1.54-2.85-2.32-.45-.37-.91-.65-1.47-.26s-.91.69-.84,1.3.74.76,1.24.87c1.46.33,2.41,1,2,2.68C68.26,103,68.26,103.52,69,103.5Z"/><path class="cls-1" d="M86.69,60.09c.08-1.13-.61-1.65-1.47-2.24-2.49-1.7-4.89-3.54-7.32-5.34a1.39,1.39,0,0,1-.74-1.12c1.6-.3,3-.66,4.09,1.29.53.94,2.06,1.13,2.85,2.4.45-1.17.23-1.69-.5-2.22-1.5-1.09-2.89-2.32-4.37-3.43-.72-.55-1-1.19-.5-1.94s1.24-.5,1.78,0c1.62,1.51,4,2.22,4.64,4.73.1.43.43.76.92.5a.68.68,0,0,0,.19-1.07c-.79-1.26-1.31-2.74-3-3.44,1.42-1.07,2.6-1,3.52.18s2.53,1.85,3.75,2.82c.34.28.81.43,1.09,0s-.21-.69-.52-.93c-2.52-1.91-5-3.86-7.55-5.73-.8-.58-1.19-1.23-.59-2.05s1.43-.45,2,.06c2.8,2.52,6.33,4.22,8.46,8,.38-1.8.56-3-1.2-3.68-2.52-1-3.78-3.76-6.32-4.83-.38-.16-.93-.52-.63-1.12a1.07,1.07,0,0,1,1.42-.49,8.31,8.31,0,0,1,2.89,1.92c.74.74,1.46,1.69,3.23,1.34-1.72-1.41-3.16-2.66-4.69-3.8-.83-.61-1.77-1.24-1-2.27.9-1.24,1.78-.28,2.56.4a8.9,8.9,0,0,0,1.3,1c.71.4,1.44,1.74,2.17.79.58-.75-.86-1.13-1.39-1.66A8.78,8.78,0,0,0,90,37c-.3-.19-.73-.48-.56-.76A26.74,26.74,0,0,1,92,32.44c.47-.55,1.07.14,1.57.52,2.65,2,5.34,4.06,8,6.08a1.08,1.08,0,0,0,1.14.17,4.09,4.09,0,0,0-2.2-2.42,58.67,58.67,0,0,1-5.69-4.06c-.93-.67-1-1.34-.33-2.23a5.3,5.3,0,0,0,.85-1.4c.65-1.55,1.66-1.46,2.79-.64a9.09,9.09,0,0,0,3.11,1.92c.15-.8-.45-.92-.72-1.26-.66-.79-2-1-2.26-2s1.29-1.46,1.62-2.47c.52-1.58,1.54-1.26,2.58-.55,2,1.34,3.94,2.7,6.06,3.89-.26-.94-1.17-1.26-1.82-1.8s-1.59-1.11-2.29-1.76-2.54-.88-1.46-2.56c1.58-2.46,2.61-2.73,4.66-1.5.84.49,1.4,1.5,2.81,1.59a4.92,4.92,0,0,0-2.51-2.47c-.91-.48-1.1-.6-.21-1.66,1.71-2.07,3.15-1.66,5.1-.57.46.25,1.95,2.53,2.58-.2.07-.3.61,0,.88.2a2,2,0,0,0,2,.52c-1.09-1.42-2.7-1.77-4.12-2.42-.44-.21-.77.1-.87.59-.13.67-.52.79-1,.39s-.67-.86-.28-1.26a7.13,7.13,0,0,1,2.07-2,54.17,54.17,0,0,0,8.59-4.45,2.53,2.53,0,0,1,1.75-.43c1.09.11,2.64,1.39,2.86-1a.4.4,0,0,1,.34-.2c2.21.33,4-1.93,6.32-1.1a6.14,6.14,0,0,0,2.86,0,26.47,26.47,0,0,1,11.62,1c2.22.63,4.54,1,6.78,1.6.61.17,1.59-.25,1.73.66s-.83,1-1.39,1.34A72.5,72.5,0,0,0,147,15.89a127.62,127.62,0,0,0-17.57,16.43c-4.76,5.23-9,10.86-13.57,16.22-2.94,3.44-5.43,7.25-8.2,10.83-3,3.89-6.1,7.72-9.19,11.54-.77,1-1.67.43-2.37-.11q-10.5-8.14-21-16.31c-.71-.55-1.06-1.19-.52-1.93s1.32-.36,2,.13c2.89,2.21,5.78,4.42,8.68,6.6a10.49,10.49,0,0,0,1.44.78c.54,1.39,2,1.87,3,2.74a45.72,45.72,0,0,0,7.38,5.51c.47.25,1.12.65,1.48.09s-.34-1-.77-1.18a40.22,40.22,0,0,1-9-6.66A2,2,0,0,0,86.69,60.09Z"/><path class="cls-1" d="M224.94,63.8c1.58-.07,2.31-1.36,3.3-2.26s1.13-1,1.74.55a2.7,2.7,0,0,0,.44-.71,11.77,11.77,0,0,1,5.23-6.58c1.09-.73,2-.42,2.83.63,1.08,1.34,1.91,3,4,3.3,1.18.17-.34,1.21.39,1.71.64.12.91-.71,1.53-.76l0,0a2.81,2.81,0,0,1,0,.81c-.15.65-.68,1.46.25,1.78s.74-.68.92-1.18.63-1,1.07-.78c2.19.87,3-1.06,4.27-2s2.58-2.27,3.88-3.39c.49-.43,1.1-.75,1.64-.17s.26,1.28-.32,1.77c-2.62,2.25-4.8,5.08-8.77,6.23,2.31.71,1.41,1.35.5,2.08-1.23,1-2.39,2.06-3.58,3.1-.37.32-.82.7-.38,1.19s.91.07,1.26-.24c3-2.68,6.06-5.38,9.08-8.07,1-.92,2.07-1.81,3.08-2.75.58-.54,1.2-1.18,1.89-.36s.16,1.61-.56,2.09c-2,1.32-3.4,3.22-5.24,4.62-2.4,1.82-4.3,4.29-7.13,5.56-.43.19-1,.52-.68,1.08.41.73.91.22,1.36-.08a100.4,100.4,0,0,0,12.73-9.86c.61-.54,1.3-1.39,2.09-.56s-.07,1.58-.67,2.07c-2,1.63-3.64,3.74-6,4.9-.52.25-1.19.35-.67,1.09.4.58.93,1.08,1.7.44,1.95-1.62,3.91-3.22,5.85-4.85.77-.65,1.57-1.83,2.56-.74s-.39,1.68-1.08,2.19c-2.16,1.64-3.78,4-6.43,5-.51.2-.45.68,0,.91a1.81,1.81,0,0,0,2.25-.3c1.89-1.69,3.87-3.29,5.84-4.9.58-.48,1.31-1.09,2-.27s0,1.53-.65,1.91c-2.73,1.72-4.48,5.22-8.14,5.16-2,0-3.93.63-5.93.66-1.32,0-3,4.42-2.38,5.91.27.62.67,1.19,1,1.8s.56.89,1.1.5.15-.82-.11-1.24c-1.75-2.67-1.51-3.69,1.19-5.41,1.48-.94,3.05-1.5,4.64-.47a3.54,3.54,0,0,1,1.56,4.78l9.76-7.41c.33-.25.61-.56.95-.78.65-.43,1.41-.91,2-.1s-.12,1.39-.73,1.84c-3.2,2.39-6.38,4.78-9.61,7.12-3.79,2.74-7.62,5.41-11.42,8.13-1.24.9-2.15,1.08-2.83-.67-.46-1.19-1.87-1.53-2.72-2.43-4.93-5.16-9.93-10.25-14.89-15.38-1.29-1.33-2.52-2.71-3.82-4A3,3,0,0,1,225,63.78Z"/><path class="cls-1" d="M270,85.63a4,4,0,0,0,2.37-.91l7-4.67c.12-.07.24-.13.36-.21,1.32-.88,3.19-1,4-.25s-.28,2.34-1,3.41c-.14.2-.26.43-.52.86,1.59-.15,2.51-1.61,4-1.32.21.91-.9,1.15-1,1.91,2.31-.27,3.58,2.14,5.76,2.16,2,0,3.63-2,5.92-1-.23.82-1.37.29-1.54,1.07a.59.59,0,0,0,1,.32c1.87-1.35,4.13-2,5.42-4.31,3.62-6.36,4.6-13.42,5.73-20.45.19-1.15.45-2.29.61-3.44.08-.57-.2-1.47.7-1.34.59.09.68,1,.53,1.6a50.25,50.25,0,0,0-.7,6.09,65.5,65.5,0,0,1-4.33,16.05c-2,5-5.85,7.81-11,9-.65.16-4,1-4.42,1.15-6.2,2.17-12.74,3.15-18.95,5.32-4.71,1.64-9.09.07-13.23-2.14-1.86-1-3.55-2.33-5.34-3.48-1-.66-1.39-1.13-.11-2.07,5.07-3.74,10.48-7,15.38-11,2-1.6,4.11-3,6.17-4.43.47-.34,1-.58,1.48-.08s.23,1.16-.25,1.61a61,61,0,0,1-7,5c-.49.33-1.44.47-1,1.22.56.92,1.17,0,1.68-.31q3.6-2.56,7.2-5.15c.63-.46,1.28-.64,1.81,0s0,1.2-.53,1.54c-2.37,1.63-4.78,3.22-7.2,4.79-.45.29-1.17.39-.63,1.13a.85.85,0,0,0,1.42,0c1.9-1.94,4.36-3.09,6.53-4.66.39-.27,1-.6,1-1,.34-2.54,2.28-2.34,4-2.4,2.68-.1,5.35-.14,8-.14.62,0,1.59-.14,1.64.81s-.89,1.2-1.61,1.26c-2.88.21-5.76.33-8.64.48-.9,0-1.76,0-2,1.2-.16.76-1,1.09-1.67,1.44-2.26,1.19-4.08,3-6.49,4A.93.93,0,0,0,270,85.63Zm-4.35,4.19c2.23.37,15.22-6.9,15.82-8.88C276.73,84.75,270.75,86.21,265.6,89.82Z"/><path class="cls-1" d="M306.7,55.92c-1.5.2-2.74.62-3.81-.65-.88-1.06-1-.08-1.21.6-.11.47-.23,1.11-.83,1-.75-.19-.18-.78-.13-1.2.15-1.14-.28-2.31.28-3.44a.62.62,0,0,0-.56-.9c-.87,0-2.17-.16-2.41.71-.58,2.16-2.78,1.66-3.4,1.37-1.8-.85-3.58-.28-5.22-.22-1.79.05-3.44-.56-5.21-.45a3.75,3.75,0,0,1,2.58-.55c.51,0,1.28.28,1.3-.52,0-.64-.7-.81-1.24-.84-1.31-.09-2.62,0-3.91-.17-.72-.06-1.93.41-1.87-.92A1.7,1.7,0,0,1,283,48.18a52.16,52.16,0,0,1,5.31.27c.9.1.85-.26.88-.89s-1.15-.82-.37-1.35a1.77,1.77,0,0,1,2.13-.11c.57.44,1.16.7,1.44-.18s-.56-1.18-1.21-1.22c-2.4-.14-4.8-.16-7.2-.3-.87,0-2.23.31-2.21-1.14,0-1.27,1.22-1.35,2.2-1.3a52.19,52.19,0,0,0,7.81.22c1-.1,1.64.58,1.52,1.73-.06.49-.42,1.21.42,1.32.58.07.93-.54,1.27-1s.32-1-.15-1.43a7.33,7.33,0,0,0-6.93-2.12,7.18,7.18,0,0,1-3.65.1c-.56-.19-1.7,0-1.32-1.07a1.29,1.29,0,0,1,1.95-.5c1.66,1.69,2.63-.19,3.9-.51-1.52-.92-3.17-.38-4.74-.55-.9-.1-2,0-1.93-1.29s1.11-1.2,2-1.23a37.23,37.23,0,0,0,6.11-.22,4.94,4.94,0,0,0-3.55-1.05l-2.87-.14c-.54,0-1-.19-.94-.82.07-.8.59-.45,1.07-.42,1.77.11,3.55.15,5.33.19.33,0,.76,0,.83-.42.11-.57-.4-.69-.78-.71-1.31-.06-2.62,0-3.92-.09s-2.75.31-2.95-1.43c-.18-1.51-.62-3.37,1.8-3.67-.18-.95-1.07-.7-1.44-1.17a1.46,1.46,0,0,1-.34-1.33,1,1,0,0,1,1-.88c1,0,2.06-.11,3.08-.05,1.17.06,3.61,3.17,3.44,4.26-.09.6-.46.75-1,.78a15.58,15.58,0,0,1-3.48-.12,2.33,2.33,0,0,0-2.42.79c1.84.13,3.41.35,5,.31,1.94,0,3.28.4,4.26,2.4.81,1.66,2.38,3,3.69,4.37.61.64,1,.27,1-.5a2.28,2.28,0,0,1,.63-1.89,1.38,1.38,0,0,1,2.48.65,11.05,11.05,0,0,1,.32,1.62c.15,1.07.43,1.35,1.58.78a8.29,8.29,0,0,1,3.42-.56c.73,0,1.91.09,1,1.43-.22.33-.31.72,0,.91a46,46,0,0,0,4.69,2.51c.63.26.61-.54.49-1-.26-1.06-1.28-1.14-2-1.55s-1.07-.84-.61-1.65a1.25,1.25,0,0,1,1.73-.61c1.44.57,3.46,3.54,3.45,5.11,0,2.48-1.62,3-4.4,1.57-.23.66.36,1,.59,1.42.32.59.58,1.22-.07,1.65s-1.32-.06-1.69-.66c-1.15-1.87-2.25-3.77-3.36-5.66a1.45,1.45,0,0,0-1-.86,3,3,0,0,0,.82,3.12,27.4,27.4,0,0,1,2.6,3.67c1,1.41.41,2.13-.48,3.11-1.13,1.25-2.78,1.76-3.95,2.95-.9.93-.88,1.58.3,2.24C304.48,54.6,305.71,54.78,306.7,55.92Z"/><path class="cls-1" d="M310.61,5c.95-.19,1.67.8,2.05,2.06.42,1.42-.86,1.48-1.69,1.84-7,3-14.24,5.44-20.89,9.21-1.4.79-3.5,1-3.3,3.57.08,1-2.67,1.35-3.25.38s-1.52-2.24-.6-3.62a2,2,0,0,0,0-2.15c-.74-1.42.21-3-.36-4.4-.12-.31.25-.65.63-.67s.66.38.76.8c.36,1.6.77,3.18,1.1,4.79.29,1.4.91,1.66,2.16.93a92.83,92.83,0,0,1,15.34-7c1.45-.53,2.18-1.06.68-2.42-1.21-1.11-.52-1.88.7-2.15C305.9,5.72,307.94,5.47,310.61,5Z"/><path class="cls-1" d="M88.82,70c0,2.56-2.94,5.31-5.79,5.37-3.19.07-7-3.4-7-6.33,0-2.61,3.42-6,6.13-6C85.1,63,88.79,66.84,88.82,70Zm-5.15,2.73a2.64,2.64,0,0,0,2.52-2.46c.16-1.65-2.54-4.11-4.48-4.22a2.74,2.74,0,0,0-2.83,2.66C78.85,70.68,81.13,72.71,83.67,72.77Z"/><path class="cls-1" d="M222.49,61.3a5.34,5.34,0,0,1-2.6-1.93c-6.16-6.43-12.37-12.81-18.41-19.34-1.58-1.72-3.37-3.2-5-4.9-.27-.28-.69-.63-.31-1s.76-.05,1.06.24c4.09,4,8.2,7.94,12.25,12,3.2,3.2,6.21,6.63,9.65,9.6a2.07,2.07,0,0,0,3.35-.64,1.66,1.66,0,0,1,1.62-.93c.21-1-1.35-1.24-.68-2.36,1.46.81,2.15,2.39,3.39,3.41.53.43-.11.75-.38,1.14-1.21,1.7-3,2.89-4,4.8Z"/><path class="cls-1" d="M73.24,54.54c1,.78-.22,3.13,2,1.76.34-.21.71.3,1,.58A20.79,20.79,0,0,0,81,60.38c.89.45,1.18,1.08.11,1.61-2.14,1-4.24,2.12-5.6,4.54-.6-1.48.64-2,.66-2.83-1.35.25-2.22,1-2.1,2.07.35,3,.7,6,3.24,8.15.83.69.67,1.39.42,2.2-.11.36-.27.67-.69.6-.88-.16-1.19-.84-1.35-1.62-.61-2.89-2.39-5.3-3.34-8-.68-2,1.05-3.25,1.71-4.8.35-.82,1.23-1.43.26-2.21s-1.27.17-1.79.74c-1.3,1.4-3.46.54-5,1.78C69.15,59.61,72.56,58.16,73.24,54.54Z"/><path class="cls-1" d="M168.07,6.88c-1.8-.53-3.12.25-4.34-.31-.56-.26-1.4-.39-1.2-1.15a1,1,0,0,1,1.7-.4c1.12,1,1.61-.33,2.36-.41,2.38-.28,4.59-1.27,7.1-1.67-.58,1.2-2.88.54-2.2,2,.46,1,1.78-.31,2.66-.64,2.49-.93,4.95-1.57,7.6-.71a5,5,0,0,0,1.62-.1c.37,0,1-.37,1.06.15.2,1.8,1.1.8,1.83.54.52-.18,1.2-.5,1.46.13s-.55.81-1,1c-.79.4-1.63.72-2.44,1.09-.45.2-.92.46-1.36.11-.62-.51.12-.94.34-1.66-1.63.73-3,1.09-4.46.08-.46-.32-1.06,0-1.59.14-4.7,1.56-9.33,3.27-13.43,6.13-.74.52-1.48.57-1.93-.26s.35-1.18,1-1.48C164.4,8.69,166,7.9,168.07,6.88Z"/><path class="cls-1" d="M222.47,61.33c2.76,0,3.8-2.55,5.44-4,5.05-4.54,9.83-9.38,14.72-14.1a4.41,4.41,0,0,1,.81-.63,1.21,1.21,0,0,1,1.68.16c.44.55.09,1-.33,1.45-1.61,1.59-3.2,3.21-4.85,4.77Q233,55.55,226.05,62.1a3.4,3.4,0,0,0-1.11,1.7l0,0c-2,.32-2.39-.91-2.48-2.48Z"/><path class="cls-1" d="M229.36,47.49c.15,1.24,1.1,1.65,1.5,2.42.63,1.24,1.06,2.39-.23,3.53a2.78,2.78,0,0,1-3.92.05c-1.82-1.4-2.59-3.52-3.35-5.57-.37-1,.48-1,1.08-.67,1,.57,1.4.1,2-.61,2.14-2.4,2.9-2.37,5.13,0,.81.86,1.44,2.18,3,1.25.23-.13.74.12.63.27a13.46,13.46,0,0,1-1.84,2.34c-.53.5-1-.06-1.38-.45C231.22,49.2,230.82,48,229.36,47.49Z"/><path class="cls-1" d="M325.94,36.76a1.83,1.83,0,0,1-.84,1.11c-4.58,3.8-9.17,7.58-13.71,11.42-1.24,1.06-2.29,2.35-3.45,3.5a1.56,1.56,0,0,1-2.38.14c-.67-.73,0-1.47.55-1.93,5.86-4.93,11.41-10.25,17.72-14.65.5-.34,1-.78,1.68-.45A.83.83,0,0,1,325.94,36.76Z"/><path class="cls-1" d="M214.63,15.72c0,.51-.37.73-.7,1a155.53,155.53,0,0,0-18.11,16c-.56.58-1.31,1.28-2.09.41-.62-.69-.17-1.38.46-1.93C200,26,205.68,20.62,211.92,15.92a2.68,2.68,0,0,1,1.81-.84C214.17,15.12,214.53,15.27,214.63,15.72Z"/><path class="cls-1" d="M234.05,47c-.6,0-3.72-3-3.69-3.6a.86.86,0,0,1,.27-.5l6.49-5.92c.58-.52,1.25-1.1,1.92-.25.55.68.05,1.34-.51,1.76-2.15,1.56-3.31,4.25-6,5.15-.28.1-.57.33-.37.58a7.45,7.45,0,0,0,1.43,1.43c.4.3.73,0,1-.38,1.56-2.26,4.06-3.57,5.81-5.65a1,1,0,0,1,1.47-.16,1,1,0,0,1,.25,1.12C241.66,42.08,235.61,46.92,234.05,47Z"/><path class="cls-1" d="M285,54.71c3.7,0,7.4,0,11.1,0,.82,0,1.81.05,1.72,1.24s-.95,1.26-1.84,1.21c-4.72-.28-9.44-.51-14.17-.48a1.09,1.09,0,0,1-1.24-.86,1.16,1.16,0,0,1,.94-1.38A5.91,5.91,0,0,1,285,54.71Z"/><path class="cls-1" d="M197.46,18.82a10.55,10.55,0,0,1,4,.29c1.33.38,1.74,1.12.65,2.18a6.38,6.38,0,0,0-1.66,2.26c-.51,1.26-1.89.86-2.88.94s-.91-.9-.83-1.65c.1-.95-.63-1.27-1.28-1.65s-1.33-.56-1.11-1.47,1.08-.89,1.83-.9C196.76,18.81,197.31,18.82,197.46,18.82Z"/><path class="cls-1" d="M218.71,39c-.74,0-1.13-.37-.77-1.15a4.36,4.36,0,0,1,1-1.28c2.78-2.63,5.58-5.25,8.37-7.87.25-.23.52-.45.78-.66.57-.45,1.24-.85,1.83-.24s.09,1.3-.41,1.77c-2.23,2.11-4.5,4.19-6.75,6.28-.8.75-1.6,1.5-2.39,2.26A2.74,2.74,0,0,1,218.71,39Z"/><path class="cls-1" d="M316.72,19.29c.65,0,1.08.17,1.23.71a.86.86,0,0,1-.51,1,109.37,109.37,0,0,0-12.7,8c-.46.34-1.06.5-1.47-.06a1,1,0,0,1,.31-1.46c1.09-.83,2.22-1.6,3.38-2.33,3-1.86,6-3.68,8.93-5.5A5.69,5.69,0,0,1,316.72,19.29Z"/><path class="cls-1" d="M285.49,58.1c2.81.41,5.37-.33,7.93.2.5.1,1,.27.85.89s-.66.43-1,.37a10.13,10.13,0,0,1-1.61-.37c-1.77-.56-3.12-.17-3.8,1.7a2.36,2.36,0,0,1-2.72,1.65c-1.23-.09-2.46-.09-3.69-.09-.78,0-1.41-.21-1.44-1.09s.61-1.2,1.36-1.23c1.37-.05,2.75,0,4.12-.05.59,0,1.47.22,1.65-.47C287.37,58.56,286,59.11,285.49,58.1Z"/><path class="cls-1" d="M248.23,46.2A2.33,2.33,0,0,1,247,48.13a16,16,0,0,0-3.74,3.5c-1.07,1.36-2.85,1.16-4.16,2-.39.24-1.13-.25-1.23-.83a1.22,1.22,0,0,1,.92-1.24c2.84-.44,4.07-3,6-4.53a13.72,13.72,0,0,1,1.89-1.56C247.46,45,248.14,45.28,248.23,46.2Z"/><path class="cls-1" d="M291.43,65.65a3.58,3.58,0,0,1-3.94,2.3c-2.18-.12-4.38,0-6.57-.06-.75,0-1.64,0-1.61-1.09s.75-1.39,1.7-1.31A92.2,92.2,0,0,0,291.43,65.65Z"/><path class="cls-1" d="M313.91,37.54c-.87-1-2.14-1.49-2.52-3.15,1.16.82,1.67.36,2.49-.35a83.41,83.41,0,0,1,6.85-4.9c.46-.32,1.06-.52,1.44.12a1.07,1.07,0,0,1-.35,1.47,72.39,72.39,0,0,1-7,5C314,36.27,313.78,36.62,313.91,37.54Z"/><path class="cls-1" d="M259.25,74.47c2.28.38,2.92-1.65,4.39-2.39A18.9,18.9,0,0,0,267.48,69c.65-.57,1.25-1.31,2-.35s.05,1.53-.64,2c-2.56,1.89-5,3.91-7.74,5.56C260,77,259.88,75.4,259.25,74.47Z"/><path class="cls-1" d="M244.36,59.68c.09-1.3,1.11-2.06,1.88-2.84,1.66-1.7,3.52-3.22,5.31-4.79.58-.51,1.29-1,2-.31s.1,1.5-.49,1.91c-2.9,2-4.62,5.72-8.7,6Z"/><path class="cls-1" d="M316.09,39.42c-.43,0-.89,0-1.12-.4s0-.67.28-.92c2.18-2.31,4.95-3.88,7.48-5.76a.83.83,0,0,1,1.26.24c.24.37.34.86,0,1.14-2.42,1.9-4.86,3.76-7.31,5.61C316.52,39.44,316.26,39.4,316.09,39.42Z"/><path class="cls-1" d="M348.78,68.74a1.6,1.6,0,0,0-2.51.15,36.19,36.19,0,0,1-2.95,2.57c-.69.57-1.57.88-2.23.19s-.15-1.54.5-2.11c1.44-1.25,3.15-2.14,4.45-3.63.77-.89,1.8-.54,2.23.64a16.28,16.28,0,0,1,.49,2.2Z"/><path class="cls-1" d="M321.89,49.69a2,2,0,0,0-.29-.29A2.89,2.89,0,0,1,323,47.23a40.23,40.23,0,0,0,5.09-4.1c.54-.51,1.12-.94,1.75-.3s.27,1.37-.34,1.92l-4.55,4.09A3.39,3.39,0,0,1,321.89,49.69Z"/><path class="cls-1" d="M242.39,56.65a7.62,7.62,0,0,1,2.09-3.71c1.63-1.36,3.17-2.82,4.74-4.24.44-.4.92-.67,1.45-.18a.92.92,0,0,1,.15,1.31C248.35,52.25,246.17,55.06,242.39,56.65Z"/><path class="cls-1" d="M187.93,13.67c-.45.05-.79,0-1-.37-.29-.55.08-.92.46-1.22A32,32,0,0,1,192.5,9c1.33-.71,2.62-1.49,3.94-2.21.5-.26,1.11-.47,1.51,0s-.11,1.06-.56,1.3a74.66,74.66,0,0,0-9,5.39A1.48,1.48,0,0,1,187.93,13.67Z"/><path class="cls-1" d="M320.68,26.5a1.66,1.66,0,0,1-.9,1.21q-3.06,2.05-6.09,4.15c-.7.48-1.43.68-2,0s-.06-1.26.49-1.55a73.64,73.64,0,0,0,6.45-4.36,1.4,1.4,0,0,1,1.71-.18A.87.87,0,0,1,320.68,26.5Z"/><path class="cls-1" d="M337.25,66.54c2.63.15,3.88-1.73,5.37-3.13.71-.66,1.25-1.71,2.3-.72s.14,1.64-.59,2.31c-1.24,1.16-2.65,2.11-3.81,3.39S338.38,69.12,337.25,66.54Z"/><path class="cls-1" d="M235.27,33.38a1,1,0,0,1,1,.55.93.93,0,0,1-.32,1.26,34.48,34.48,0,0,0-5,4.8c-.58.61-1.5,1-2.18.26s.13-1.39.63-1.89c1.4-1.4,2.85-2.74,4.29-4.09A2.89,2.89,0,0,1,235.27,33.38Z"/><path class="cls-1" d="M319.33,23.11c0,.73-.44.94-.86,1.2q-3.2,2.06-6.36,4.15c-.61.41-1.24.84-1.79.09s0-1.33.59-1.72c2.24-1.47,4.48-2.91,6.76-4.32A1,1,0,0,1,319.33,23.11Z"/><path class="cls-1" d="M226.62,37.34c-.94-.07-1.46-.71-.85-1.34,1.86-1.91,3.88-3.67,5.87-5.44a.89.89,0,0,1,1.15.09.77.77,0,0,1,.21,1.1,36.58,36.58,0,0,1-5.8,5.46A1.54,1.54,0,0,1,226.62,37.34Z"/><path class="cls-1" d="M308.23,22.35a.9.9,0,0,1-.85-.46.82.82,0,0,1,.23-1.1,69.94,69.94,0,0,1,8.12-4.29.72.72,0,0,1,.88.36.65.65,0,0,1-.2.91c-2.58,1.52-5.18,3-7.78,4.51A1.24,1.24,0,0,1,308.23,22.35Z"/><path class="cls-1" d="M220.77,31.43a.87.87,0,0,1-.86-.44,1,1,0,0,1,.24-1.3c1.65-1.51,3.3-3,5-4.51.53-.45,1.27-.76,1.81,0s0,1.19-.56,1.69c-1.43,1.25-2.82,2.56-4.21,3.86A2.21,2.21,0,0,1,220.77,31.43Z"/><path class="cls-1" d="M217.69,28.64c-.48,0-.88-.09-1.06-.54A1,1,0,0,1,217,27q2.65-2.41,5.35-4.79a1,1,0,0,1,1.47.12.89.89,0,0,1,0,1.31c-1.83,1.64-3.7,3.24-5.57,4.84C218.09,28.59,217.84,28.59,217.69,28.64Z"/><path class="cls-1" d="M221,20.33c0,.15,0,.33-.12.4-2,1.72-4,3.45-6,5.14a.83.83,0,0,1-1.12-.15.78.78,0,0,1,0-1.12c2-1.72,3.7-3.81,6-5.1C220.44,19.15,221,19.54,221,20.33Z"/><path class="cls-1" d="M315.63,14.34a1.48,1.48,0,0,1-.93,1.09c-2.31,1.2-4.62,2.4-6.95,3.56-.49.25-1.14.45-1.47-.16s.24-1.06.71-1.3c2.42-1.29,4.86-2.53,7.32-3.76C314.94,13.45,315.52,13.46,315.63,14.34Z"/><path class="cls-1" d="M305.1,16.32a1.5,1.5,0,0,1,1-1.6c2.39-1.16,4.79-2.29,7.2-3.41.53-.25,1.1-.28,1.38.37a.84.84,0,0,1-.52,1.17c-2.67,1.19-5.35,2.37-8,3.52A.85.85,0,0,1,305.1,16.32Z"/><path class="cls-1" d="M89.11,66.74a6.55,6.55,0,0,1,2.44,2.61c.39,1.08.87,1.85,2.19,1.59.34-.07.72,0,.81.4a.68.68,0,0,1-.51.79c-1.82.45-3.59.92-4.32,3,0,.09-.41.18-.52.11-.42-.3-.28-.72-.12-1.1.57-1.35,1.51-2.62,1.09-4.19C89.89,68.84,89.47,67.8,89.11,66.74Z"/><path class="cls-1" d="M217.75,17.92c-.07.21-.09.46-.22.57-1.88,1.58-3.76,3.17-5.69,4.69a.92.92,0,0,1-1.31-.2,1,1,0,0,1,.33-1.28c1.67-1.43,3.34-2.85,5.07-4.2C216.56,17,217.34,16.89,217.75,17.92Z"/><path class="cls-1" d="M303.73,14.06a5,5,0,0,1,2.69-2.3c1.87-.82,3.93-1.18,5.6-2.47.53-.42,1.37-.72,1.74.15s-.46,1-1,1.22C309.86,11.83,307.2,13.57,303.73,14.06Z"/></g><path class="cls-1" d="M192.72,31.55A4.86,4.86,0,0,1,190,30.3c-6.76-4.65-13.56-9.24-20.23-14C168,15,166.15,14,164.4,12.79c-.3-.21-.74-.44-.48-.88s.65-.2,1,0c4.43,2.83,8.88,5.63,13.28,8.51,3.49,2.29,6.85,4.82,10.5,6.86,1.23.68,5.22,1.75,4.75,3.68Z"/><path class="cls-1" d="M51.16,85.21a3.75,3.75,0,0,1,1-2.07C55.92,78,59.6,72.79,63.43,67.7c1-1.34,1.82-2.78,2.8-4.12.17-.23.36-.57.7-.36s.14.51,0,.76c-2.27,3.39-4.52,6.79-6.84,10.15-1.84,2.67-3.87,5.23-5.51,8-.56.94-1.46,4-2.95,3.62Z"/><path class="cls-1" d="M74.36,99.24a4.67,4.67,0,0,1,1.46-2.51C81,90.45,86.2,84.13,91.55,77.93c1.41-1.63,2.55-3.38,3.93-5,.23-.27.5-.68,1-.45s.17.61-.06.91c-3.19,4.12-6.35,8.25-9.6,12.34-2.57,3.24-5.41,6.37-7.72,9.75-.79,1.15-2.11,4.85-4.11,4.43Z"/><path class="cls-1" d="M309.46,2.59c-.2.48-1.38.41-1.78.52-7.79,2.13-15.58,3.34-23,6.65-.74.33-1.73,1.24-2.12.15-.32-.88,2.78-1.5,3.58-1.78,7.37-2.56,12.44-5,20-7,.66-.17,1.33-.57,2-.22C308.59,1.13,309.54,2.14,309.46,2.59Z"/></g></g></svg>