<svg xmlns="http://www.w3.org/2000/svg" viewBox="0 0 163.96 127.33"><defs><style>.cls-1{fill:#9376a8;}</style></defs><g id="Layer_2" data-name="Layer 2"><g id="Tools"><path class="cls-1" d="M6.44,91.84V90.38A1.56,1.56,0,0,0,5.75,89a2.28,2.28,0,0,1-.89-2.84,6.37,6.37,0,0,0,0-2.88A1.81,1.81,0,0,0,3.93,82a1.51,1.51,0,0,1-.54-2,4.75,4.75,0,0,0-.73-4.6,1.64,1.64,0,0,1-.27-2.44,1.45,1.45,0,0,0,.2-1.21,8.48,8.48,0,0,0-1.15-2.82A2.62,2.62,0,0,1,1.25,66a2.35,2.35,0,0,0,0-2.39,5.43,5.43,0,0,1-.36-5.25A1.43,1.43,0,0,0,.66,57a5.2,5.2,0,0,1-.38-3.92,4.11,4.11,0,0,0,0-1.91,6.88,6.88,0,0,1,.08-4.21,4.35,4.35,0,0,0,.08-1.61A11.25,11.25,0,0,1,1,40.8a10.53,10.53,0,0,0,.18-1.52,34.64,34.64,0,0,1,3.07-8.6,19.86,19.86,0,0,1,6.52-7,10,10,0,0,1,3.55-1.52,16.68,16.68,0,0,0,2.6-1.2,3.55,3.55,0,0,1,3.19,0c1.12.66,2.32.4,3.46.46a15.54,15.54,0,0,0,5.22-.24,4.47,4.47,0,0,1,1,0c.22,0,.53,0,.62-.1.62-.82,1.53-.66,2.36-.8,2.71-.47,5.41-.94,8.11-1.43C45.49,18,50,17.16,54.61,16.37c5.38-.94,10.78-1.75,16.15-2.75,4.84-.91,9.65-2,14.47-3,2-.43,4.13-.75,6.18-1.18C93.72,9,96.05,8.53,98.35,8c3.3-.75,6.57-1.73,10-1.72.75,0,1.5-.1,2.25-.12,2.06-.06,3.75-1.24,5.63-1.84a33.35,33.35,0,0,0,4.6-1.71c1.63-.82,3.52-1,5-2.23a1.15,1.15,0,0,1,.84-.25c2.12.19,4.25-.38,6.37,0a11.52,11.52,0,0,1,1.65.35,21,21,0,0,1,7.63,4.17,78,78,0,0,1,5.28,5.95,7.36,7.36,0,0,1,1.08,1.89c.57,1.22,1.59,2.16,2.1,3.43a12.88,12.88,0,0,1,.6,1.49,6,6,0,0,0,1.14,2.29,5.27,5.27,0,0,1,1.16,3.06A6.46,6.46,0,0,0,154.86,26a5.56,5.56,0,0,1,.81,3.3,2.36,2.36,0,0,0,.71,2,3.52,3.52,0,0,1,1.08,2.85c-.05.62,0,1.24,0,1.86a2.33,2.33,0,0,0,.85,1.91,2.56,2.56,0,0,1,.78,2.85,6,6,0,0,0,.28,3.49,1.11,1.11,0,0,0,.54.57,1.62,1.62,0,0,1,.46,2.52,1,1,0,0,0-.19.82,13.89,13.89,0,0,0,.71,3.14c.21.59.88.85,1.07,1.54a1.87,1.87,0,0,1-.25,1.89,1.43,1.43,0,0,0-.25,1.51c.25.74.6,1.44.87,2.16.45,1.23,1.12,2.5.12,3.8a.82.82,0,0,0,.09,1,6.59,6.59,0,0,1,1.07,4.07,2.1,2.1,0,0,1-.08.72,3.66,3.66,0,0,0,.16,3.1,6,6,0,0,1,0,3.58A5.1,5.1,0,0,0,163.6,77a7.56,7.56,0,0,1-.16,3.6c-.36,1.43.11,2.93-.34,4.32-.81,2.5-1,5.12-2,7.62A32,32,0,0,1,157,99.69a12.84,12.84,0,0,1-3.72,2.94,16.78,16.78,0,0,1-6.09,2.48,5.78,5.78,0,0,1-3.69-.14,2.87,2.87,0,0,0-1.51-.2c-1.21.17-2.42,0-3.62.15-1.43.14-2.85-.09-4.27,0a2.17,2.17,0,0,0-1.42.49,4,4,0,0,1-2.09,1c-3.3.54-6.6,1-9.88,1.65-6.41,1.18-12.84,2.26-19.19,3.72-1.39.32-2.79.65-4.17,1-.59.15-1.06.67-1.71.68-3.24.08-6.35,1-9.52,1.52-4.19.64-8.32,1.54-12.45,2.46l-14.9,3.31a18.57,18.57,0,0,1-5.47,0,6.93,6.93,0,0,0-3.4.74c-2.61,1.15-5.26,2.19-7.91,3.26a2.41,2.41,0,0,0-.68.42c-.74.67-2.13.59-2.27,2,0,.22-.45.24-.71.05a.8.8,0,0,0-.75-.19c-2,.68-4,.23-6,.17A14,14,0,0,1,27,125.87c-2.81-1.11-4.89-3.16-7.17-5a2.51,2.51,0,0,1-.54-.59c-1.13-2-3-3.41-3.87-5.54-.64-1.63-1.91-2.87-2.48-4.5a13.28,13.28,0,0,0-1.43-3.2,8,8,0,0,1-1.3-3.87,1.72,1.72,0,0,0-.47-1.09,5.29,5.29,0,0,1-1.47-4,3.32,3.32,0,0,0-.92-2.71C6.33,94.44,6.38,93.12,6.44,91.84Zm26-40.69c-.61.33-1.22.28-1.74.55a35.94,35.94,0,0,0-4.28,2.42,34.66,34.66,0,0,0-3.07,2.48,19.15,19.15,0,0,0-3.1,3.56,3.1,3.1,0,0,0-.42,2.75c.05.18.19.45.38.28C21,62.53,22,62.62,22.87,62a12.39,12.39,0,0,1,4.54-2.12c.81-.19,1.59-.51,2.39-.75.24-.07.49-.46.7-.17s-.12.6-.35.81a2.44,2.44,0,0,1-.67.42c-1.31.54-2.17,1.72-3.4,2.38-.51.27,0,.79-.24,1.07s-.7-.45-1.08,0a1.39,1.39,0,0,1-.19.15c-.51.44-1.07.81-1.6,1.21s-.62,1-1.25,1.21A.92.92,0,0,0,21,67.24a14.12,14.12,0,0,0,.31,1.82c0,.21.21.42.4.29.7-.48,1.63-.14,2.33-.76A3.08,3.08,0,0,1,25.79,68a11.6,11.6,0,0,0,3.4-.62c.27-.11.57-.12.71.16s-.14.46-.37.6a20.65,20.65,0,0,0-2.08,1.36,13.14,13.14,0,0,1-3.5,2.1,2.41,2.41,0,0,0-1.71,2.33,3.36,3.36,0,0,0,.43,1.58,7.74,7.74,0,0,1,.72,3.82A4.36,4.36,0,0,0,23.76,82a10,10,0,0,1,.47,5c-.06,1,.29,1.48,1.32,1.3a2.2,2.2,0,0,0,1.09-.64c.29-.24.67-.65,1.06-.3.73.65,1.73.87,2.41,1.58.22.22.59.35.52.75a.83.83,0,0,1-.75.65c-1.13.08-2.22.54-3.41.08s-1.63-.12-1.77,1.26c-.1,1,.56,1.71.69,2.63.69-.23,1.43-.24,1.94-.86a.53.53,0,0,1,.8,0c.59.56,1.27,1,1.86,1.54.43.39,1.08,1,.71,1.65s-1.17.57-1.89.36a6.3,6.3,0,0,1-2-.7c-.19-.13-.57-.32-.72,0s-.58.42-.92.54c-.18.07-.43.13-.41.34.08.68-.16,1.49.26,2s1.16.26,1.76.18a1.76,1.76,0,0,0,.7-.37.63.63,0,0,1,.88.05,9.1,9.1,0,0,1,2.4,2.9c.11.32.06.55-.25.65s-.63.14-.93.24c-.58.18-1.19,0-1.76.11-.26.07-.66.22-.28.51.79.61,1.1,1.6,1.84,2.23a2.3,2.3,0,0,1,.79,1.94c0,1.18-.12,1.26-1.18.85a4.39,4.39,0,0,0-.61-.21c-.23-.07-.5-.15-.67.1s.08.43.24.6a10.76,10.76,0,0,1,1.77,2.3.77.77,0,0,1-.12,1,2.14,2.14,0,0,0-.2,2.92c.15.26.45.47.42.83-1.06,0-1.06,0-1.24,1.1a4.85,4.85,0,0,1-.08.55,1.25,1.25,0,0,0,.59,1.51A13.52,13.52,0,0,0,32,121.36c.06,0,.08.12.15.24-.47.22-.81-.07-1.13-.25-1-.57-2-1.17-3-1.77-.15-.1-.25-.17-.41,0a1.06,1.06,0,0,0-.19,1.63c1.72,1.8,3.55,3.44,6.27,3.47a1.76,1.76,0,0,1,.7.17,6,6,0,0,0,3,.24,8.71,8.71,0,0,0,1.58-.33c.38-.11.7-.35.6-.82s-.41-.36-.72-.3a3.83,3.83,0,0,1-1.43-.13c-1.35-.24-2.76-.18-4-.87-.21-.11-.52-.2-.41-.5s.38-.14.57-.09a20.73,20.73,0,0,0,5.45.33,3.84,3.84,0,0,0,2.4-.79,1.06,1.06,0,0,0,.31-1.1c0-.41-.37-.47-.7-.56a2.67,2.67,0,0,1-1.38-.58c.21-.22.44-.15.64-.21.91-.29,2.23-.29,2.58-1.12.53-1.28,1.53-2.33,1.58-3.91s.75-3.32,2.79-3.75a.54.54,0,0,0,.36-.29c.12-.64.68-1,.89-1.56.46-1.15,1.19-2.13,1.65-3.26.18-.45.12-1,.46-1.37a5,5,0,0,0,1.41-3.15.91.91,0,0,1,.43-.83,1.8,1.8,0,0,0,.83-1.4c.27-1.11.88-1.45,2-1.1a6.5,6.5,0,0,1,.65.32c.63.26,1.24.08,1.32-.44a17.07,17.07,0,0,0,.38-2.78c0-1.56,0-3.11,0-4.67a17,17,0,0,0,0-2.25,16.86,16.86,0,0,1-.38-5.48c.15-.94-.57-1.68-.49-2.58.13-1.47-.44-2.85-.57-4.3-.19-2.06-1.4-3.89-1.33-6.07,0-1.65-.75-3.25-.72-5a.84.84,0,0,0-.05-.31c-.62-2.1-.89-4.28-1.57-6.38-.5-1.53-.76-3.17-1.23-4.73-.4-1.31-1-2.52-1.52-3.78a18.88,18.88,0,0,0-1.46-3c-.5-.82-.56-1.93-1.7-2.28-.25-.08-.3-.34-.32-.6a1,1,0,0,0-1-1c-.66,0-1-.3-1.13-1s-.38-.73-.9-.42c-1.16.7-2,.31-2.32-1A1.72,1.72,0,0,0,39.65,38a1.68,1.68,0,0,1-1.48-1.2,1.37,1.37,0,0,0-.86-1,2.09,2.09,0,0,1-1-1c-.27-.87-.94-1-1.65-1.2-.23,0-.52,0-.66-.22-.43-.67-1-.49-1.58-.3a7.35,7.35,0,0,1-1,.2,18.44,18.44,0,0,1-2.78,0,12.61,12.61,0,0,0-6.24,2.43,20.21,20.21,0,0,0-5.6,5.61,2.5,2.5,0,0,0-.49,1.09c0,.23,0,.45.2.57a.54.54,0,0,0,.59-.13c.21-.16.27-.51.61-.49s.57-.11.54-.5.22-.4.46-.48a4.09,4.09,0,0,0,1.86-1.36A11,11,0,0,1,24,37.3c.46-.23.83-.67,1.3-.8a23.75,23.75,0,0,0,4.61-2,.84.84,0,0,1,1.1.22,10.84,10.84,0,0,1,.87,1.15,1,1,0,0,1-.66,1.66c-.36.09-.74.1-1.11.17a15.37,15.37,0,0,0-5.86,3.12,30,30,0,0,0-4.74,4.34,7.31,7.31,0,0,0-1.69,2.68A1.42,1.42,0,0,0,18,49.46c.37.32.86.16,1.25-.17A9.21,9.21,0,0,0,20.6,48.1c.55-.68.84-1.66,1.94-1.73.06,0,.12-.1.18-.15a12.65,12.65,0,0,1,4.71-2.66c.89-.23,1.8-.52,2.69-.77s1.32-.8,2.06-1a1,1,0,0,1,1.21.34,1.06,1.06,0,0,1,.4,1.08c-.16.48-.6.57-1,.62a15.69,15.69,0,0,0-3.49,1c-1.52.53-2.63,1.68-3.91,2.59a38.7,38.7,0,0,0-5.44,5.26,3.33,3.33,0,0,0-1,2.07,2.06,2.06,0,0,1-.46,1.49.38.38,0,0,0,0,.58c.16.14.42.17.51,0,.35-.63,1-.64,1.57-.86.77-.33,1.12-1.13,1.8-1.41a27.46,27.46,0,0,0,2.93-1.81,13.8,13.8,0,0,1,5.47-1.73A2.16,2.16,0,0,1,32.42,51.15ZM156.85,67.06c-.9.73-1.94.55-2.84.89-.42.16-.77-.16-.89-.62-.21-.82.09-1.31,1-1.48a16.68,16.68,0,0,0,4-1.17c1.44-.67,2.14-1,2-2.68a1.53,1.53,0,0,1,.27-.92.71.71,0,0,0,0-.9c-.23-.27-.49-.52-.9-.35a.71.71,0,0,1-.62,0,6.12,6.12,0,0,0-3.89-.68,2.39,2.39,0,0,0-1.57.49c-.14.14-.33.28-.5.1a2.39,2.39,0,0,1-.85-1.59c0-.24.16-.38.37-.23.68.47,1.48.19,2.2.4a.91.91,0,0,0,.95-.32,2.41,2.41,0,0,1,.87-.56c1.66-.83,3.33-1.64,3.45-3.88,0-.71-.17-1.19-1-1.32a2.59,2.59,0,0,1-1.14-.5A4.4,4.4,0,0,0,155,50.57a1.75,1.75,0,0,1-.55-.08.35.35,0,0,1-.22-.21c0-.16.11-.26.23-.27,1.22,0,1.72-1.2,2.66-1.67s1.61-1.1,1.33-2.29a.51.51,0,0,1,.07-.23c.21-.44,0-.69-.37-.91a22.78,22.78,0,0,0-4.78-1.86c-.3-.09-.69-.1-.73-.52s.29-.54.58-.68c.9-.42,1.82-.8,2.71-1.25s1.36-2.45.52-3a11.07,11.07,0,0,0-2-1,28.18,28.18,0,0,0-3-1.3c-.85-.22-.84-.57-.15-1.12a2.83,2.83,0,0,1,1.43-.7,2.5,2.5,0,0,0,2.11-1.36c.26-.47.33-.82,0-1.23a4.64,4.64,0,0,0-2.88-1.46,13.93,13.93,0,0,0-2.81-.19,11.92,11.92,0,0,1-1.69-.15c-.63-.06-.8-.67-1.24-1-.21-.15.49-.89,1-1a7.47,7.47,0,0,0,4.07-1.78c.76-.69.86-1.19.15-1.95a4.84,4.84,0,0,0-4-1.18c-1.11.06-2.25.1-3.37.27-.47.07-.7-.19-.76-.63a.81.81,0,0,1,.61-1,16.26,16.26,0,0,1,3.77-1.07c.74,0,1.16-.73,1.69-1.16.24-.18,0-.5-.17-.7a5.49,5.49,0,0,0-2.92-1.46,15.35,15.35,0,0,0-4.49,0c-.59.07-.88.36-.84,1a4.78,4.78,0,0,0,.74,2.35,5.08,5.08,0,0,1,.59,2,.49.49,0,0,1-.21.56.55.55,0,0,1-.67-.11c-.3-.27-.58-.57-.88-.83a1.5,1.5,0,0,0-1.73-.24c-.31.13-.39,1-1,.31-.06.07-.16.14-.19.22-.33.89-1.31,1.5-1.09,2.62,0,.16-.19.38-.31.56a1.15,1.15,0,0,0-.22.59,3,3,0,0,1-1.15,2.07,1.39,1.39,0,0,1-.19.15,5.53,5.53,0,0,1-2,.86c-.36,0-.73,0-.85.44s.18.74.55,1,.77.26.92.86a6.78,6.78,0,0,0-2-.25c-.42,0-.72.15-.66.6a23.63,23.63,0,0,0,.6,3.56c.28,1,.49,1.92.76,2.88.56,2,.64,4.12,1.58,6a.87.87,0,0,1,.05.55A2.18,2.18,0,0,0,134,45.8a7.16,7.16,0,0,1,.61,1.66,13.46,13.46,0,0,0,.85,2.68c.18.38.59.79.43,1.18a1.91,1.91,0,0,0,0,1.56c.44.94-.05,1.55-.5,2.23a2.07,2.07,0,0,0-.5,1.57c.59,3.31,1.12,6.64,1.46,10s.63,6.42.74,9.65a7.16,7.16,0,0,0,.21,1.92c.37,1.09.1,2.26.56,3.34.3.73.06,1.71.65,2.28a4.32,4.32,0,0,1,1.16,3.7,8.49,8.49,0,0,0,.11,1.12,2.52,2.52,0,0,1-.13,1.51,2.39,2.39,0,0,0,.56,3c.18.14.48.24.59.08.47-.66,1.62-.61,1.68-1.67a.5.5,0,0,1,.41-.45.33.33,0,0,1,.38.24c.33,1,1.25,1.73,1.35,2.86,0,.4.32.62.76.33a2.45,2.45,0,0,1,1.31-.34,1.62,1.62,0,0,0,1.43-.57.59.59,0,0,1,1,.08c.39.63.6.31.84-.1a1.5,1.5,0,0,1,1.5-.89,1.08,1.08,0,0,0,1.06-.58c.37-.56.78-1.23,1.57-.45a.28.28,0,0,0,.22,0,9.11,9.11,0,0,0,2.81-1.39c.44-.39.27-.78-.27-.84a3.44,3.44,0,0,0-3,.84c-.54.54-.82.57-1.29,0-.62-.74-.19-2.68.73-2.94a5.18,5.18,0,0,0,1.34-.64,26.4,26.4,0,0,0,4.92-3.39c.29-.29,1-.43.78-.89s-.89-.34-1.38-.4c-.2,0-.41.1-.62.12-1.33.15-2.49.89-3.8,1.06-.26,0-.47.08-.52.39s-.11.41-.36.32-.21-.34-.11-.54a2.24,2.24,0,0,0,.15-1.11c0-.9.4-1.33,1.22-1.64,1.34-.53,2.81-.93,3.76-2.1a41.19,41.19,0,0,1,2.54-3.33c.12-.12.2-.28.07-.43s-.3-.08-.43,0a1.53,1.53,0,0,1-1.39.17c-1.18-.31-2.24.46-3.39.35-.11,0-.24.13-.34.22a1.27,1.27,0,0,1-1.64.08c-.52-.34-.43-.9-.36-1.4.09-.65.66-.67,1.16-.78A11.3,11.3,0,0,0,159,71.71c1.17-.81,1.27-2.21,2.06-3.2a.65.65,0,0,0,.11-.82.82.82,0,0,0-.89-.42,3.45,3.45,0,0,1-1.2,0c-1.21-.16-1.54,0-2,1.17,0,.12-.07.28-.25.26s-.2-.16-.24-.29C156.53,68,156.84,67.66,156.85,67.06Zm-87.5,3c.55.28-11.1,2.52-10.81,2.9.15.19,3.74,20.74,3.41,21.29-.79,1.32,10.13-1.34,11.65-1.35,1.35,0,3.59-2.57,4.89-2.87s1.22-2.41,1.72-3.86a10.62,10.62,0,0,0,.39-2.58,22.57,22.57,0,0,0,0-4.35c-.14-1.14-.41-2.27-.53-3.41a23.67,23.67,0,0,0-1.17-5.89c-.41-1.09-.77-1.35-1.89-1.2-1.47.21-2.92.49-4.37.76A17.08,17.08,0,0,0,69.35,70Zm48.9-9.34c.13.11-8.76.53-8.88,4-.16,4.69-1,18,2.1,18.59,3.28.65,17.65-2.1,17.81-2.11.39,0,3-3.83,3.14-4.11.6-1,.43-2.2.59-3.31a6.14,6.14,0,0,0,.35-2.13,5,5,0,0,1-.25-1.24,25.52,25.52,0,0,0-.67-6.42c-.25-1.22-.58-2.43-.73-3.68-.11-.87-.77-1.69-1.3-1.67a16.84,16.84,0,0,0-2.24.23c-2.93.53-5.86,1.1-8.78,1.65Zm23.37-48.95a5.53,5.53,0,0,0-2.13.37c-.38.1-.45.3-.38.65a1.87,1.87,0,0,0,2.42,1.51,18,18,0,0,1,3-.53c.55-.09,1.25-.22,1.28-.76s-.67-.84-1.23-.93C143.59,11.9,142.6,11.83,141.62,11.73ZM32.24,126.35c.34,0,.6,0,.69-.27s-.2-.42-.42-.49c-1.5-.46-2.65-1.6-4.13-2.1a1.51,1.51,0,0,1-.86-.71c-.37-.75-1.1-1.14-1.65-1.71a1,1,0,0,0-1.07-.4.31.31,0,0,0-.14.25c.16.41.27.87.72,1.11l.3.1a.75.75,0,0,1,.55.55,1.49,1.49,0,0,0,.66.86c.75.52,1.43,1.13,2.21,1.61A11.17,11.17,0,0,0,32.24,126.35ZM26,103.89c.73.08.85-.5,1-.92a.63.63,0,0,0-.61-.84c-.88-.07-1.36.2-1.4.83C24.88,103.75,25.56,103.7,26,103.89Z"/><path class="cls-1" d="M23.68,77a2.31,2.31,0,0,1,2.82-2.26,20.39,20.39,0,0,0,2.71.27c.23,0,.56-.09.65.19s-.21.5-.42.62c-1,.59-2.1,1.16-3.16,1.73a2.38,2.38,0,0,1-1.74.42C23.91,77.8,23.54,77.61,23.68,77Z"/><path class="cls-1" d="M24.56,82.72c0-.36.19-.57.52-.84a2.37,2.37,0,0,1,3-.11c.64.37,1.46.17,2.17.46s.58.44.21.84a2.09,2.09,0,0,1-1.2.6,20.42,20.42,0,0,0-2.55.69A1.78,1.78,0,0,1,24.56,82.72Z"/><path class="cls-1" d="M34.7,50.41a1,1,0,0,1-.26,0c-.23,0-.55.1-.64-.19s.23-.31.37-.47l.47-.54c.38-.41.73-.45,1,.11.13.28.42.57.23.89S35.21,50.47,34.7,50.41Z"/><path class="cls-1" d="M81.34,79.91l.09,1.27h-.18L81,78.26l.43.61c-.05-.41-.07-.63-.11-.85-.21-1.15-.41-2.3-.64-3.44-.37-1.79-.64-3.61-1.18-5.34-.6-1.9-1.35-1.92-3.27-1.73a6.14,6.14,0,0,0-2.25.73A12.58,12.58,0,0,1,70,69.31c-2.32.55-4.69.92-7,1.46-2,.45-3.95,1-5.92,1.56-.58.16-.64-.16-.72-.56-.36-1.9-.69-3.82-1.11-5.71-.66-3-1.43-6-2.07-9A97.21,97.21,0,0,0,49.76,46a98.73,98.73,0,0,0-5.3-12.92A38.88,38.88,0,0,0,39,24.74a11.36,11.36,0,0,0-4.7-3.59,23.85,23.85,0,0,0-3.07-.63,1.19,1.19,0,0,1,.32-.15c1.6-.18,3.21-.39,4.81-.51,1.36-.1,2.73,0,4.08-.17,2.11-.25,4.19-.63,6.29-1,2.81-.44,5.62-.86,8.42-1.34s5.4-1,8.1-1.46c3-.53,6.1-1,9.14-1.54,4.28-.8,8.54-1.66,12.81-2.51,2.94-.59,5.87-1.24,8.82-1.82,1.87-.37,3.76-.65,5.63-1,2.44-.49,4.88-1,7.31-1.57,2.07-.46,4.12-1,6.19-1.46a2,2,0,0,1,2.49,1,23.89,23.89,0,0,0,1.53,2.37c1,1.41,2.12,2.76,3.08,4.2A81,81,0,0,1,124.89,22a63.52,63.52,0,0,1,3.82,10.19c.85,2.8,1.65,5.62,2.38,8.46,1.13,4.37,2.36,8.73,3.22,13.16a113.77,113.77,0,0,1,1.47,11.67c.46,5.39.74,10.79,1.08,16.19a37.22,37.22,0,0,1,.19,4.83,34.42,34.42,0,0,1-.77,5c-.53,2.55-1.14,5.09-1.78,7.62q-.62,2.41-1.4,4.79a2.81,2.81,0,0,1-2.22,1.93c-2.24.43-4.51.76-6.76,1.16-3.63.64-7.27,1.26-10.88,2-5.36,1.07-10.7,2.21-16,3.33a5.27,5.27,0,0,0-.74.31,6.47,6.47,0,0,1-1.28.44c-5.64.64-11.19,1.79-16.74,2.9-4.6.93-9.16,2-13.74,3a58.8,58.8,0,0,1-5.82,1.3,55.65,55.65,0,0,1-6,0c.76-.93,1.61-1.85,2.31-2.87,1.59-2.32,2.16-5,2.71-7.72a70.54,70.54,0,0,0,1-14.58c0-1.19,0-1.22,1.15-1.47,1.45-.32,2.9-.6,4.36-.87a2.45,2.45,0,0,0,2.07-1.65c1.65-4.49,3.36-9,5-13.44a4.81,4.81,0,0,0,.2-1.26c0-.51-.27-.67-.74-.56-.7.17-1.4.38-2.12.49s-1.44,0-2.13.17a7.84,7.84,0,0,0-1.92.73,7.06,7.06,0,0,1-3.91.64c-.1,0-.27-.07-.28-.13a14.54,14.54,0,0,1-.28-2.26c0-.24.43-.6.72-.7a22.64,22.64,0,0,1,2.58-.65q4.47-.87,9-1.69a13.39,13.39,0,0,1,2.08-.24c.8,0,1.09.24.92,1-.29,1.25-.69,2.48-1.07,3.71s-.76,2.49-1.21,3.71a43,43,0,0,1-2.59,6.56c-.72,1.26-.59,2.54-1,3.78-.16.49.17.64.58.58q1.49-.24,2.94-.54c1.93-.39,3.85-.8,5.77-1.2a2.51,2.51,0,0,0,2.2-2.33c.11-.8.09-1.61.15-2.41.09-1.17.21-2.34.29-3.51,0-.57,0-1.15,0-1.73Zm44.41.67a5.6,5.6,0,0,0,.93,0l5.4-.93a2.62,2.62,0,0,0,2.43-2.57c.09-2.29.06-4.57.07-6.86a9.75,9.75,0,0,0-.08-1.53c-.23-1.7-.5-3.39-.75-5.09-.19-1.32-.38-2.65-.58-4-.23-1.57-1.77-1.62-2.73-2.35a1.06,1.06,0,0,0-.38-.1.45.45,0,0,0-.16,0,22.89,22.89,0,0,0-2.34.41c-1.68.48-3.33,1.08-5,1.53-1.47.39-3,.64-4.49,1-2.44.53-4.89,1-7.31,1.61-1.55.38-1.83.82-1.86,2.47a18.58,18.58,0,0,0,.05,2.11c.21,2.71.41,5.42.68,8.12s.61,5.34,1,8a1.24,1.24,0,0,0,.87.84,14.52,14.52,0,0,0,5.4-1c-.51-.39-.9-.67-1.27-1a5.65,5.65,0,0,1-2.24-3.34c-.27-1.63-.36-3.3-.49-5a14.1,14.1,0,0,1,.42-5.52,6.1,6.1,0,0,1,2.13-3.15c.76-.57,1.57-1.08,2.37-1.6a1.59,1.59,0,0,1,.67-.24c.74-.06,1.49-.06,2.24-.11a6.52,6.52,0,0,1,5,1.34c.63.55,1.25,1.11,1.83,1.71a2.12,2.12,0,0,1,.31,2.12c-.59.62-10.74-.5-11.28-1.17s7.54-.23,7-.44a6.08,6.08,0,0,0-4.86-.11,5.92,5.92,0,0,0-1.92,1.87,2.88,2.88,0,0,0-.52,3.81,3.41,3.41,0,0,0,.83-.42,5.37,5.37,0,0,1,2.8-1.12,4.61,4.61,0,0,0,.77-.11,6.69,6.69,0,0,1,5,.37c.47.18.9.48,1.37.65a3.44,3.44,0,0,1,1.85,2.45c0,1.07-.08,2.15-.21,3.22a2.79,2.79,0,0,1-.55,1.2C127.37,78.65,126.6,79.54,125.75,80.58ZM115.1,76.34c.44.18.76.22.87.39.45.68.82,1.41,1.26,2.1.14.22.4.51.62.53a24.3,24.3,0,0,0,4,0,4.36,4.36,0,0,0,2-1.12c.38-.3.48-1,.87-1.22,1.09-.57,1-1.47,1-2.41a1.32,1.32,0,0,0-.5-1.22,5.33,5.33,0,0,0-4.69-.76,23.09,23.09,0,0,0-3.85,1.73C116.75,75.48,116.18,76,115.1,76.34Zm-29-5.85a1.49,1.49,0,0,0-.21-2.31Zm49.58-1.68h-.38l.15,2.58h.23Zm-47.8,18.6-.19,0L87.89,89l.36-.07Z"/><path class="cls-1" d="M15.37,53.75c.8,2.1,1.74,4.17,2.38,6.32,1.35,4.57,2.7,9.14,3.75,13.78A104.21,104.21,0,0,1,23.23,85a96,96,0,0,1,.57,9.74c0,2.3-.34,4.61-.54,6.91a2.08,2.08,0,0,1-.12.55c-.18.53-.26,1.26-1,1.23a2.18,2.18,0,0,1-2.05-.88c-.43-.74-1-1.39-1.41-2.15a5.82,5.82,0,0,1-.47-1.73c-.16-1-.29-2-.38-3-.06-.72,0-1.45-.07-2.17s-.06-1.34-.12-2a6,6,0,0,1-.21-1.65c.34-1.85-.42-3.59-.43-5.39a10.89,10.89,0,0,0,0-1.28c-.15-1.49-.33-3-.51-4.47,0-.11-.09-.2-.1-.31-.56-4.6-1.28-9.2-1.63-13.82-.24-3.21,0-6.45.1-9.67a6.86,6.86,0,0,1,.21-1.08Z"/><path class="cls-1" d="M86.13,70.49l-.21-2.31A1.49,1.49,0,0,1,86.13,70.49Z"/><path class="cls-1" d="M135.71,68.81v2.58h-.23l-.15-2.58Z"/><path class="cls-1" d="M87.91,87.41l.34,1.51-.36.07-.17-1.54Z"/></g></g></svg>