<svg xmlns="http://www.w3.org/2000/svg" viewBox="0 0 101.16 256.35"><defs><style>.cls-1{fill:#9376a8;}.cls-2{fill:#fff;}</style></defs><g id="Layer_2" data-name="Layer 2"><g id="Needle_types" data-name="Needle types"><path class="cls-1" d="M3.29,219.76c-1-1.31-.2-2.36.22-3.39A274.26,274.26,0,0,1,29.45,167.5c5.19-7.73,9.78-15.87,14.71-23.79a4.46,4.46,0,0,0-.14-5.53C29.53,118.58,20.71,95.59,6.71,75.66,3.27,70.75,1.64,64.79.88,58.79-.92,44.61-.75,30.8,9.22,19c2.28-2.69,4.67-5.27,7.84-6.86C23.73,8.82,30.34,5.3,37.24,2.49A28.76,28.76,0,0,1,54.87.67c6.48,1.52,13,2.91,19.39,4.69C90.57,9.9,99.58,26.9,100.86,41.89c1.18,13.77-1,26.82-9.21,38.49a107.91,107.91,0,0,0-12.26,23.41c-4.47,11.62-11.56,21.73-18.28,32-2.32,3.55-2.34,6.14,0,9.87,11.12,17.37,23.63,33.87,32.59,52.57,1.93,4.05,3.36,8.34,6,12.08.75,1.1,1.84,2.51-.1,4.66-5.43-6.09-11-11.93-16.08-18.16C72.85,183.79,64.78,169,55.3,155.09c-3-4.4-3.44-4.35-6.26.26C40.71,169,32.67,182.76,23.79,196c-5.34,8-12,15-18.11,22.5A2.53,2.53,0,0,1,3.29,219.76ZM56.79,67.89c18.5,0,31.76-9,35.87-25,1.61-6.24,2.74-13.13-2.47-18.44C77.52,11.51,63.14,2.7,43.93,7.53c-5.85,1.48-12.57.88-17,6-7.8,9-10.29,19.3-6.5,30.68C25.23,58.7,39.64,67.91,56.79,67.89ZM20.43,14.5C11.3,20.21,5.38,28.23,4.22,39c-1.36,12.6-.44,25,6.71,36.1,3.6,5.57,7.45,11,11.52,16.25,6.94,8.91,15.08,16.87,20.88,26.68,1.77,3,3.66,5.92,5.56,8.84s3.66,3.14,5.75-.2c4.94-7.88,9.09-16.34,15.44-23.24C78,94.74,84.11,84.81,90.35,75a45.23,45.23,0,0,0,6.42-31.66c-9.2,24.39-32.56,34.42-57,25.15C22.34,61.89,6.33,39.32,20.43,14.5Z"/><path class="cls-2" d="M74,212.69c-.34,3.61-2,5.09-3.1,6.87-5.66,9.56-11.33,19.1-17.09,28.6-.83,1.38-1.52,4-3.94,2.34-2.24-1.53.18-2.88.83-4.07C57.1,234.76,65.76,224.62,74,212.69Z"/><path class="cls-2" d="M19.2,219.79c1.48,1.12,1.95,1.31,2.16,1.66,6.24,10.37,13.43,20.1,20.29,30.06.85,1.24,2.73,2.76.79,4.27-2.2,1.73-2.76-.9-3.56-2C31.51,243.42,25.85,232.1,19.2,219.79Z"/></g></g></svg>