<svg xmlns="http://www.w3.org/2000/svg" viewBox="0 0 115.75 233.95"><defs><style>.cls-1{fill:#9376a8;}.cls-2{fill:none;stroke:#9376a8;stroke-miterlimit:10;stroke-width:4.5px;}</style></defs><g id="Layer_2" data-name="Layer 2"><g id="Tools"><g id="Stitch_markers" data-name="Stitch markers"><path class="cls-1" d="M51.05,82.31c-8.32-6.94-16.71-13.8-24.93-20.85-4.84-4.16-9.74-7.34-16-3.05-6.12,4.2-5.51,9.92-3.31,16C8.89,80.17,10.86,86,12.7,91.3l23.8-7.88c1.28,5.78,2.42,10.09,3.15,14.47,1.29,7.79-2.28,13.17-10.16,15.78C22,116.17,16,114.11,13,106.58,8.43,95.05,4.37,83.27.73,71.4c-1.88-6.13-.15-12.13,5.4-16,6-4.14,13.05-5.17,18.89-.55,9.85,7.79,19,16.51,28.36,24.84ZM30.34,88.73,27,90q2.41,6.48,4.85,13l2.77-1.14Z"/><path class="cls-1" d="M79.73,41.29C75.32,33,70.87,24.78,66.49,16.49,63.16,10.2,59.73,3,51.27,4.59c-8.77,1.62-8.9,9.47-9.09,16.72-.13,4.93-.8,9.84-1.2,14.46,6.66.5,12.72,1,18.79,1.37,4.63.27,5.66,2.53,5.1,6.94-1.53,12.14-4.61,16.84-13,18.5-9.41,1.87-17.13-4.26-16.68-13.8C35.75,37.3,37,25.85,37.72,14.39c.5-7.52,4.54-11.9,11.59-13.75s13.56.44,17,6.45c5.94,10.55,10.65,21.8,15.88,32.75Z"/><path class="cls-1" d="M84.13,69.64l24.32,4.26c1-6.71,3.2-14.09,2.73-21.3-.29-4.34-3.87-9.66-7.58-12.25-4.31-3-8.82.13-12.08,4.33-5.51,7.1-11.28,14-17,20.92-1.44,1.75-3.15,3.27-4.73,4.89l-1.92-1.75c7.37-9.5,14.24-19.46,22.31-28.33,4.89-5.38,12.1-5.84,18.66-2s7.79,9.77,6.43,16.85c-1.92,10-3.59,20.13-5.23,30.22C108.81,93,102.8,98.24,95.62,97.87S83,91.57,83.12,83.79C83.2,79.41,83.73,75,84.13,69.64Zm4.62,18,3.33.65c.85-4.77,1.76-9.54,2.4-14.33,0-.22-2.38-.76-4.31-1.35Z"/><path class="cls-2" d="M62.6,152.46c0-12.36,10.09-21.07,22.38-22.37,12.74-1.36,22.38,10,22.38,22.37s-9.79,24-22.38,22.38C72.72,173.28,62.6,164.82,62.6,152.46Z"/><path class="cls-2" d="M56.85,209.17A22.37,22.37,0,0,1,79.23,186.8c14.14,0,23.31,9.84,22.38,22.37-.92,12.33-9.79,24-22.38,22.38C67,230,56.85,221.53,56.85,209.17Z"/><path class="cls-2" d="M4,172.9c2.22-16.66,10-22.38,22.38-22.38,14.14,0,22.38,11.47,22.38,22.38a22.16,22.16,0,0,1-22.38,22.37C14.29,195.27,2.36,185.15,4,172.9Z"/></g></g></g></svg>