<svg xmlns="http://www.w3.org/2000/svg" width="792" height="460.4" viewBox="0 0 792 460.4">
  <defs>
    <style>
      .cls-1, .cls-2, .cls-3, .cls-5, .cls-6 {
        fill: none;
        stroke-miterlimit: 10;
      }

      .cls-1, .cls-3 {
        stroke: #1c75bc;
      }

      .cls-2 {
        stroke: #91d2c4;
        stroke-width: 2px;
      }

      .cls-3, .cls-6 {
        stroke-linecap: round;
        stroke-width: 1.5px;
      }

      .cls-4 {
        fill: #9376a8;
      }

      .cls-5, .cls-6 {
        stroke: #ec008c;
      }

      .cls-7 {
        font-size: 22px;
        font-family: P22StickleyProText-Bold, P22 Stickley Pro;
        font-weight: 700;
      }

      .cls-7, .cls-9 {
        fill: #91d2c4;
      }

      .cls-8 {
        letter-spacing: -0.01em;
      }

      .cls-10 {
        fill: #1c75bc;
      }
    </style>
  </defs>
  <g id="Layer_10" data-name="Layer 10">
    <path class="cls-1" d="M161.56,286.51c-1.41.33-3.84,2.41-6.13,3.84a19.85,19.85,0,0,0-3.45,2.76c-3.75,3.49-6.35,3.29-16.4,8.46a37.57,37.57,0,0,0-5.53,3.11c-1.06.86-3.42,3-7.42,11.22-1,2.12-1.73,6.65-3.14,10.35l-.14.35a43.81,43.81,0,0,1,11.56-16.4c3.56-3.09,6.49-4.53,12.44-7.77,5.28-2.87,13.16-10.4,22.27-15.92"/>
    <path class="cls-2" d="M188.05,276.46c-6.07-2.49-20.1-19-21.21-24"/>
    <path class="cls-2" d="M171.19,244.94c-2.41-4.61-7.76-13.32-14.55-18.48-4.8-3.65-10.66-8.1-18.82-7.77A22.26,22.26,0,0,0,125.56,223c-7.45,5.58-8.72,14.34-9.15,17.26-2.28,15.66,8.65,27.86,11.22,30.74,5.93,6.61,12.32,9.77,16.75,11.91,10.59,5.11,28.08,2.87,34,3.06"/>
    <path class="cls-2" d="M163,245.06c-4.86-7.57-11.19-12.86-14.5-14.8-4.61-2.69-10-5.84-15-3.8-4.5,1.84-6.26,6.88-7.42,10.19a28.61,28.61,0,0,0-.35,17.09c3.35,11.34,13,17.18,18.82,20.72,12.45,7.54,33.42,5,40.25,4.93"/>
    <path class="cls-2" d="M203.23,276.38c5.1-1.59,13.94-3.67,22-5.37,12.19-2.59,10.55-2.43,26.59-4,12.43-1.2,14.93-2.16,18.6-2.58.32,0,4.33,1.61,5.57,3.18s-3.83,5.1-5.7,5.61c-6.9,1.91-13.43.82-17.78.52-5-.35-9.68.57-19,2.42-5.8,1.15-7.79,1.94-21.92,5.18-2.28.52,1-.22-.25.05"/>
    <g>
      <path class="cls-1" d="M110.71,460.07c-1,0-.35-1.7-.34-2.42.19-12-8.66-29.17-32.81-66.12-7.75-11.86-14.19-21.35-13-30.91a68.9,68.9,0,0,0,.86-11.57,67.55,67.55,0,0,0-1.55-13.47c-5.34-26-7.78-30.41-5.87-38,1.17-4.62,2.22-3.54,7.6-13.3C76.84,264,84,248,88.44,241.48c.4-.6,2.61-1,4.83-.52,3.61.86,5.54,4.55,6,5.53,2.59,5,.77,11.39-7.08,30.39-5.31,12.83-7,16-6.91,22.1.12,7.2,2.7,15.15,5.7,15.37,2.61.18,5.37-5.51,9-13,2.85-5.88,2.57-6.93,4.66-9.33,2.87-3.3,5.92-4.19,12.09-6.73,4-1.67,16.4-7.49,16.09-7.35"/>
      <path class="cls-1" d="M91.81,339.73c18.9,10.46,29.17,11.68,37.81,8.18,10.58-4.3,22.22-12.85,26.16-26a58.36,58.36,0,0,1,8.8-18.3c3.5-6,7-10.35,14.51-18.47,5.67-6.11,9-9.12,13.46-10.71,1.53-.55,6.71-1.66,9.85,1,5.15,4.44.94,16.26.34,17.95-2.48,7-5.12,7.06-10.19,17.1-.75,1.49-2.17,5-5,11.91-4,9.78-6,14.73-6.91,17.78-2.41,8.17-3.82,13-2.76,19.17.66,3.87,1.61,4.38,3.11,10.88a86.14,86.14,0,0,1,1.89,12.77c.72,8.15,1.45,16.4-.86,25.9-1.59,6.59-3.05,7.09-2.48,12.48.78,7.32,1.73,31.15,1.36,39.31"/>
      <path class="cls-1" d="M144.3,272.79c5.17-3.6,9.28-5,12.17-5.06,3.07-.09,5.23.64,9.15,0a32.24,32.24,0,0,0,8.8-3.27"/>
      <path class="cls-1" d="M193.59,276.34c-3.24,2.72-7.71,7.08-7.08,12.11a12.24,12.24,0,0,0,1.21,3.79c1.19,2.61,4.5,8.18,7.94,7.77,2.15-.25,3.4-2.71,5.35-6.56A20.22,20.22,0,0,0,203.6,284c0-2.48,0-4.5-1.38-6.22C200.29,275.37,195.63,274.62,193.59,276.34Z"/>
    </g>
    <g>
      <line class="cls-3" x1="211.84" y1="277.19" x2="221.41" y2="274.64"/>
      <line class="cls-3" x1="209.17" y1="269.89" x2="217.96" y2="263.13"/>
      <line class="cls-3" x1="222.21" y1="287.97" x2="212.12" y2="285.05"/>
      <line class="cls-3" x1="187.65" y1="257.52" x2="190.79" y2="266.28"/>
      <line class="cls-3" x1="195.8" y1="256.46" x2="198.06" y2="267.34"/>
      <line class="cls-3" x1="203.73" y1="267.73" x2="206.72" y2="257.49"/>
    </g>
    <g>
      <path class="cls-4" d="M271.29,251.66c-7.16-.77-13.81-2.55-36.13-3.49-12.66-.53-23.11-.86-40.15-2.2-4.2-.33-12.08-1-23.18-1.68a211.68,211.68,0,0,0-23.18-.39,58.24,58.24,0,0,0-7.64.52c-1.08.27-1,2.68-.13,3.36,3.06,2.29,4.5,3,14.9,4.28,5.41.65,8.11,1,8.93,1,11.35.7,16.44,1.39,28.28,2.12,9.84.6,23.57,1.8,39.45,3.37,18.86,1.85,21.33,2.54,33.41,2.59C269.23,261.18,272.36,251.78,271.29,251.66Z"/>
      <path class="cls-4" d="M281.65,252.45c1,.39,40.49,1.38,55.94,2.84,1.07.11,1.57,2.71,2.64,4.48,1.86,3.07,9.33,7.43,12.37,8.51.89.31-5.78-.45-6.57-.4-3,.18-66.66-2.48-66.71-3.42C279.18,261.9,280.65,252.05,281.65,252.45Z"/>
      <path class="cls-4" d="M376.35,266.82c1.33.82,8.42,1.38,11.27,3.24,1.07.7,12.53.71,14.42.12,1-.31,10.53-5.81,12.08-7.46.48-.51-1.66-.85-4.66-1.21-2.67-.32-12.71.21-17.44.21-2.16,0-5.12,1.6-6.16,1.78C381.94,264.19,375.65,266.38,376.35,266.82Z"/>
      <path class="cls-4" d="M430.62,264.15c-.49,1.54,2.85,4.67,2.54,8.86-.1,1.31-.45-.3-.08,1.83.11.62,7.71.45,9.05.59,32.31,3.39,63.53,6.46,95.11,9.53,0,0,31.36,2.1,31.59.21.08-.59-2.34-2.86-7.1-6.74-3.08-2.52-7.71-4.17-8.87-4.18C545.27,274.17,431.54,261.26,430.62,264.15Z"/>
    </g>
    <path class="cls-2" d="M272,252.45c.54-.08,8.32-1.5,9.55.58.66,1.12-3.17,12.3-4.77,12.8a7.3,7.3,0,0,1-7.94-3.28C267,258.86,269.29,258.27,272,252.45Z"/>
    <path class="cls-2" d="M176.32,251c1.88,1.61,3.39,8,5.47,10.88,4.83,6.65,11,8.24,16.29,10l10.3,7.08c2,1.82,7.74,12.61,21,16.41,14.87,4.28,13.8,19.59,17.31,25.85l7.13,7.65c2.75,3.44,24.81,13.36,27.88,16.58,3.32,3.48,20.19,12.51,30.27,20.56,4.08,3.26,29.68,14.93,45.61,15.69,10.14.49,30.78,1.25,52.58-9.32,18.38-8.91,15-14.91,36-26.16,21.64-11.57,27.56-6.45,44.8-18.39,13.7-9.48,12.88-14.73,27.46-24.34,3.45-2.28,19-13.9,34.44-14.25,28.75-.64,53.22,15.94,82.88,44,18.38,17.41,24.21,35.48,22,53.87-9.86,82.41-110.78,75.61-121.47,67.34-44.21-34.19-52.41-41.62-55.43-61.12-7.25-46.88,15.8-59.57,24.48-66.74a94.56,94.56,0,0,0,15.15-16.4,70.93,70.93,0,0,1-18.91,19.17c-5.67,3.86-6.65,3.19-19.16,9.32,0,0-13.28,6.51-27.72,15.54-11.93,7.46-18.51,12.83-23,16.06-14.81,10.54-62.51,19.7-73.55,19.42-12.67-.32-68-26.32-70.9-30.9-2.76-4.37-10.14-7.4-15-9.94-4.43-2.3-29.08-14.48-32.42-18.49l-7.93-22.94a35.1,35.1,0,0,0-12.95-9.67c-6.38-2.78-10.77-9.55-14.28-10.88"/>
    <path class="cls-2" d="M272.1,272.37c-1.79,2-3.93,7.89-6,11.93-3.27,6.42-2.1,7.8-1.41,13,.1.79,2.7,4.36,3.69,9.24,1.64,8.1,30.11,22.72,31.6,27.36,1,3.15,22.93,6,24.91,15.61,1.15,5.63,1.42,10.91.34,11.22-1.49.44-5.42-8.88-6-10.36-2.06-4.9-27-12-29.75-15.4-1.86-2.27-7.54-2.9-14.52-11.16-4.39-5.18-15.22-12.69-17.66-22.16-1.45-5.66-1.45-13.06,1.33-21.48a18.76,18.76,0,0,1,3.62-5.82"/>
    <g>
      <path class="cls-5" d="M418.91,287.41c-1,1.78-.51,4.81,1,5.7a27.08,27.08,0,0,0,12.83,3.11,22.65,22.65,0,0,0,13.48-4.67c2.05-1.48,3.19-4.06,2.57-8-.1-.66-1.3-4.93-3.5-7-3.27-3.08-8.57-.15-10.88.87-5.77,2.53-2.2,1.92-7.58,3.77A14.68,14.68,0,0,0,418.91,287.41Z"/>
      <path class="cls-5" d="M391.12,279c2.88-4.28,5.28-6.36,7.59-7.47,4.82-2.3,8-4,11.29-5.64,2.91-1.46,3.08-2.06,5.81-3.29a12.83,12.83,0,0,1,8.8-.87c.83.24,5.95,1.68,7.77,6.74a10.37,10.37,0,0,1-1.38,9.67c-2.45,3.11-4.7,2.84-11.05,6.08-5.4,2.75-5.33,3.38-10.53,5.66a31,31,0,0,1-10.54,2.41,35.5,35.5,0,0,1-13.81-1.72c-1-.31-6.38-2-6.21-3.28s5.09-.24,9-3.63C389.11,282.5,389.1,281.94,391.12,279Z"/>
      <path class="cls-5" d="M506.63,239.76a46.32,46.32,0,0,1-7.77,7.77C497,249,494,251.08,482.11,256c-9.84,4.05-14.87,6.09-20.2,6.73-3.07.37-6.25.25-12.61,0-7.62-.3-12.62-.52-18.82-2.25-4.74-1.32-4.42-1.91-8.8-2.93a42.7,42.7,0,0,0-14.33-1c-4.32.48-5.51,1.41-14.85,4.67-8,2.78-13.95,4.48-15.2,4.83-12.55,3.55-17.48,3.65-21.75,2.94a25.58,25.58,0,0,1-6.74-2.08c-2.47-1.16-7.19-3.39-9.15-8.28a12.52,12.52,0,0,1-.86-4.49L339,252c1.73-4.29,5.88-5.89,7.94-7.07,3.77-2.17,6.9-3.17,11.92-4.49,7.68-2,9.05-1.3,15.71-3.46,4.37-1.42,3.71-1.71,7.77-2.93,6.06-1.82,8.37-1.41,13.81-2.94a48,48,0,0,0,9.5-3.8l16.23-4.14a31.79,31.79,0,0,0-7.43,0c-6.2.73-8.71,2.92-13.64,4.66-8.34,2.95-16.15,2-20.89,1.38-8.08-1-9-3.06-14.67-2.41-4.83.55-5.73,2.21-12.78,4.66-7.69,2.67-8.67,1.41-16.58,3.62-2.86.81-2.55.92-19.33,8.29-9.38,4.12-12.2,6-17.27,6.7-4.47.62-8.92,1.2-11.4.94l-17.48.54c-7.12-3.55-3.78-8.13-1.81-9.6,3.65-2.73,8.95-3.25,24.3-9.46.92-.37,3.47-1.41,6.73-2.93a182.08,182.08,0,0,0,17.1-9.33,170.64,170.64,0,0,1,18.65-9.15c12.35-5.38,15.83-5.38,31.42-12.08,4-1.7,6.08-2.62,9.15-4.15,9.54-4.75,10.94-6.86,15.71-8.28,5.51-1.65,8.21-.21,16.58.51,6.52.57,8.88,0,25.55-1.38,7.15-.6,22.23-1.88,33.84-2.42,18.92-.87,32.95,0,47,.87,24,1.49,31.73,3.53,34.53,4.31,6.2,1.74,10.64,3.56,25.38,10.54,24.1,11.4,43.82,21.49,49.73,24.52,23.61,12.09,26,13.58,35.39,17.78,12,5.37,16.41,6.69,31.08,12.6,7.45,3,29,11.7,48.52,21.24a433.82,433.82,0,0,1,52.06,30.22"/>
      <path class="cls-5" d="M462.67,262.62c4.13,1,9.79,3.28,12.36,3.73a86.23,86.23,0,0,0,15.37,1.72,64.46,64.46,0,0,0,7.07-.34l2.25-.69a54.63,54.63,0,0,0,8.11-5c3.63-2.7,4.45-4,6.74-4.49,2.87-.59,4.83.82,9.67,3.11,4.48,2.11,1,.07,12.77,5,6.93,2.92,12.9,5.64,14.85,6.57,11.28,5.37,17.2,13.68,28.45,21.1,7.3,4.82,4.39,3.36,53.22,34.15,7.63,4.8,10.71,6.78,14.33,9.15,5.54,3.62,17.94,11.76,31.26,21.58,3.9,2.88,8.09,6.06,42.12,34,17.83,14.63,16.28,13.44,18.48,15.19A465.23,465.23,0,0,0,791.26,443"/>
      <path class="cls-5" d="M342.94,268.94c-1.83,2.48,4.82,10.51,8.64,14.33a14.14,14.14,0,0,0,7.51,4.4c4,1.11,5.22,1.17,11.78.39,5.44-.65,16.7-3,19-7.11.4-.73.85-4.81-.44-8-1.94-4.86-9.69-5.81-11.57-5.7-8.64.48-9.64,1.12-19,2.08S344.45,266.89,342.94,268.94Z"/>
      <path class="cls-5" d="M341.86,252.83c-.52,3.6,2.34,6.41,3,7,4.49,4.14,11,.22,11.92-.06a17.43,17.43,0,0,0,7.51-3.7c2.7-2.46,1.13-8-1.69-10.36-2-1.69-4.56-1.47-8.16-1.16-2.28.19-5.43,1.57-9.19,3.23A6.69,6.69,0,0,0,341.86,252.83Z"/>
      <path class="cls-5" d="M410.24,274.07a7.37,7.37,0,0,0,4.27,7.64c1.51.6,2.79.35,5.05-.13,4.11-.86,7.48-1.57,9.2-4.66a8.82,8.82,0,0,0-6.22-12.69c-4.87-.69-8.52,3.91-10.36,6.22A7.44,7.44,0,0,0,410.24,274.07Z"/>
      <path class="cls-5" d="M433.16,285.47a5.56,5.56,0,0,0,1.68,6.34c2,1.49,4.52.71,6,.26,1.17-.36,4-1.24,5.05-3.88,1.21-3-.38-7.15-3-8-1.85-.63-3.72.55-6.34,2.2C434.73,283.49,433.71,284.13,433.16,285.47Z"/>
      <path class="cls-5" d="M366.34,280.29c-.4,2.22,1.61,4.53,3.49,5.57a8.55,8.55,0,0,0,4.8.77c4.82-.25,10.58-2.44,10.49-4.53-.05-1.08-1.6-1-3.24-3.11-2.06-2.69-1.07-4.78-2.59-5.7s-3.62.33-7.64,2.59C368.29,277.77,366.61,278.75,366.34,280.29Z"/>
    </g>
    <g>
      <line class="cls-6" x1="270.67" y1="228.08" x2="270.1" y2="217.52"/>
      <line class="cls-6" x1="259.3" y1="245.88" x2="248.24" y2="250.14"/>
      <line class="cls-6" x1="259.63" y1="251.83" x2="254.91" y2="260.01"/>
      <line class="cls-6" x1="251.51" y1="232.01" x2="261.73" y2="237.64"/>
      <line class="cls-6" x1="264.38" y1="230.63" x2="258.95" y2="223.87"/>
      <line class="cls-6" x1="278.38" y1="226.52" x2="281.58" y2="217.84"/>
    </g>
    <text class="cls-7" transform="translate(272.35 150.77)"><tspan class="cls-8">s</tspan><tspan x="8.21" y="0">k</tspan></text>
    <path class="cls-9" d="M283.16,157v48.7l-4.64-4.64a.67.67,0,0,0-1,0,.68.68,0,0,0,0,1l5.8,5.8a.67.67,0,0,0,1,0l5.79-5.8a.68.68,0,0,0-.95-1l-4.64,4.64V157a.68.68,0,1,0-1.36,0Z"/>
    <path class="cls-10" d="M58.09,230h48.7l-4.64,4.63a.67.67,0,0,0,0,1,.74.74,0,0,0,.48.2.72.72,0,0,0,.48-.2l5.8-5.8a.66.66,0,0,0,0-.95l-5.8-5.8a.67.67,0,0,0-1,0,.66.66,0,0,0,0,1l4.64,4.64H58.09a.65.65,0,0,0-.69.68A.66.66,0,0,0,58.09,230Z"/>
  </g>
</svg>
