<svg xmlns="http://www.w3.org/2000/svg" width="792" height="444.56" viewBox="0 0 792 444.56">
  <defs>
    <style>
      .cls-1 {
        fill: #9376a8;
      }

      .cls-2, .cls-3, .cls-4, .cls-6 {
        fill: none;
        stroke-miterlimit: 10;
      }

      .cls-2 {
        stroke: #91d2c4;
        stroke-width: 3px;
      }

      .cls-3, .cls-6 {
        stroke: #1c75bc;
      }

      .cls-4 {
        stroke: #ec008c;
      }

      .cls-5 {
        fill: #1c75bc;
      }

      .cls-6 {
        stroke-linecap: round;
        stroke-width: 1.5px;
      }
    </style>
  </defs>
  <g id="Layer_9" data-name="Layer 9">
    <g id="Layer_13" data-name="Layer 13">
      <path class="cls-1" d="M339.6,80.05c2,1.27,1.06-2,8.29-9.58A89.93,89.93,0,0,1,359,60.18c.9-.68-22.59-18.67-28.1-22.14-25-15.74-34-23.51-76.14-50.92-7.9-5.15-35.11-12.69-37.67-7.29S230.3-2,261.91,23.33c29.88,24,25,17.34,39.36,30.05C318.62,68.76,330.28,74.1,339.6,80.05Z"/>
      <path class="cls-2" d="M323.55,98.44c.43,3.74,5.22,3.29,12.17,10.62,3.8,4,5,6.94,8.16,7.12,2.5.15,4.53-1.54,5.95-2.72,2-1.69,5-5.15,4-7.64a3.3,3.3,0,0,0-1.94-1.68c-7.58-3.3-12.2-15.59-19.3-15.36C327.94,88.93,323.09,94.46,323.55,98.44Z"/>
      <path class="cls-2" d="M459.61,301.89c-10.31-5.62-25.46-4.33-29.42,2-2.59,4.16-2.63,10.68.78,14.51,4.88,5.48,15.23,3.68,21-.52,11.65-8.52,6.91-28.8,6.47-30.56-2.59-10.46-9.07-16.93-11.91-19.69C439.7,261,432.9,258.47,423.2,255a147.29,147.29,0,0,0-44.8-8.28c-14.41-.46-21.62-.69-29.27,2.85-5,2.31-7.33,4.67-10.36,3.62-4.5-1.57-4.42-8.57-9.32-26.68-2.66-9.81-3.69-11.48-4.14-13.68,0,0-.19-1-.27-2.11-.1-1.42-.39-9.3,3.44-15.88s7.36-4.26,12.53-11c1.76-2.29,3.41-7.08,6.73-16.66,2.4-6.93,3.59-10.45,3.67-13a26.81,26.81,0,0,0-4.74-15.74c-3-4.28-5.82-6.65-7.89-7.8l-1.28,2.29q-2.38,10.5-5.35,21.56c-3.35,12.42-10,18.87-8.72,29.19.47,3.85,3.84,9.89,4.73,11.74"/>
      <path class="cls-2" d="M311.82,182.26c1.41,11.2,9,17.73,13.26,24.46"/>
      <g>
        <path class="cls-3" d="M20.47,439.88a292,292,0,0,1,18.65-38.34c6.08-10.44,11-17.3,16.05-29.52a147,147,0,0,0,7.77-25.38c3.32-14.2,11.54-35.37,28-77.7,9.49-24.43,12.35-30.4,18.65-48.69,3.63-10.53,6.41-18.59,9.84-30,4.4-14.67,5.71-21,9.84-32.64,4.77-13.4,6.78-20.32,9.85-23.82,7.3-8.35,15-7.91,32.11-13.47,17.9-5.83,30.88-13.3,45.58-21.76,9.77-5.62,18.95-10.13,37.3-19.16a37.07,37.07,0,0,1,15.54-4.15c6.48-.2,11.12,1.55,14.5,2.59,14,4.33,16.85-.5,30.56,2.59a89.84,89.84,0,0,1,18.84,6.9"/>
        <path class="cls-3" d="M198.65,372c10.72-11.88,19.11-22,25.13-29.53,5.35-6.69,8.69-11.16,12.17-16.31A158.9,158.9,0,0,0,247.86,306c3.9-8,6.5-13.41,7.77-21.24.92-5.64,0-6.56.78-13.21a115.73,115.73,0,0,1,5.7-23.83,103.48,103.48,0,0,1,14-28c4.87-6.7,8.76-10.1,13.73-15,10.54-10.43,32-31.7,43-60.86A120.76,120.76,0,0,0,339.12,122a49.6,49.6,0,0,0-1.39-7.45c-3.24-9.27-15.2-15.64-24.86-15.54a25,25,0,0,0-12.17,3.63c-18.46,10.28-26.92,27.39-45.58,53.61-7.76,10.9-8,7.6-19.69,23.57-20.06,27.45-21.1,30.24-32.11,40.14-9.37,8.42-18,16.91-23.57,20.46a231.19,231.19,0,0,1-20.2,11.4"/>
        <path class="cls-3" d="M167.06,441.17a57.21,57.21,0,0,1,12.43-29.27,60.35,60.35,0,0,1,9.32-8.8,65.83,65.83,0,0,1,10.1-6c6.91-3.82,15-22.27,15-22.27a167,167,0,0,0,9.06-29"/>
        <path class="cls-3" d="M309.45,103.18c-12.43,8.29-21.1,12.69-26.34,26.06-.4,1-.06,3.34,2.83,6.58C300,151.64,302,154.88,306.4,155.24c2.81.23,5.24-1.23,10.1-4.14,4.47-2.69,13.41-8,17.61-18.91,1.55-4,4.14-10.7,1.29-17.87-3.9-9.84-14.87-12.61-16.31-12.95A12.76,12.76,0,0,0,309.45,103.18Z"/>
        <path class="cls-3" d="M281.27,115.1a38.23,38.23,0,0,1-11.65-4.66c-6.74-4.13-10.51-9.46-11.4-8.81-.63.46,1.08,3.31,2.33,6.73.76,2,3.83,11.08,1.3,19.43s-9.54,12.79-17.35,17.87a32.3,32.3,0,0,1-8.29,4.14,24.5,24.5,0,0,1-16.06,0,23.45,23.45,0,0,1-11.39-9.32"/>
        <path class="cls-3" d="M237,158.61a151.1,151.1,0,0,0-32.9,48.95c-1.6,3.88-3,7.69-4.14,11.39"/>
      </g>
      <g>
        <path class="cls-4" d="M579.37,439.36a73.15,73.15,0,0,1-3.62-10.62,83.47,83.47,0,0,1-2.33-16.58c-.32-4.55-1.08-15.24-2.33-23.82-2.82-19.29-6.6-17.26-6.48-28.75.06-5.43,1-12.91-2.33-21.24-.5-1.28-.89-2-1.81-4.4a129,129,0,0,1-4.66-15.28c-3.15-11.95-3.92-15.73-7.77-19.69-.87-.89-1.2-1.08-2.33-2.07-10.52-9.21-15.11-21.92-16.32-25.38-2.89-8.26-5.87-16.79-2.07-20.46,1.07-1,3.35-2.34,13.72-.26a96.34,96.34,0,0,1,24.35,8.29,111.23,111.23,0,0,1,26.93,19.68c14.23,14.42,20.79,29.45,24.35,37.81,10.51,24.71,17.78,41.81,19.68,51.8.28,1.46,1.18,6.62,4.41,7.77a4.53,4.53,0,0,0,4.4-.77c1.41-1.33.87-3.27,1.29-4.93,1-3.82,6.72-2.45,11.92-6.73a20.16,20.16,0,0,0,3.62-4.14c3.35-4.53,9-12.12,9.59-21.76.58-9.24-4.05-10.88-2.34-20.46.49-2.7,1.25-4.74,1-8.29A25.15,25.15,0,0,0,666.65,298c-6.37-11.77-2.68-15-9.84-29.79a57.25,57.25,0,0,0-8.8-14c-5.55-6.33-7.36-5.24-12.18-10.62-8.41-9.41-10.19-20.93-10.68-24.32a72,72,0,0,1-.45-13.75s2.26,11.17-3.37,17.09c-2.6,2.74-6,3.38-8.55,3.88C601.9,228.6,595.22,222,590,226c-1.74,1.32-1.08,2.11-2.85,3.62-5.37,4.58-15.62.79-21.23-1.29-8.67-3.21-21.62-8-26.16-20.46-2.28-6.27-2-8.62-1.56-9.59,1.46-2.88,5.09-3.79,8.55-4.66,5-1.24,7.15-.19,14.5-1.81a5,5,0,0,0,1-.22,112.61,112.61,0,0,0,17.11-6.77c7.32-3.62,16.28-9.27,23.46-12.31,12.73-5.39,13.39-4.27,20.31-7.38,1.79-.8,1.31-1.53,2.85-2.85,6.61-5.64,14.28-6.45,17.36-6.73,4.3-.39,10.35-.95,15.54,2.59a16.58,16.58,0,0,1,4.66,4.92c5.33,8.33,10.31,9.7,36.51,41.44,16.4,19.86,18.86,24.66,32.9,39.89,4.71,5.11,8.71,9.2,11.39,11.91"/>
        <path class="cls-4" d="M782.94,236.57c-16.18-10.65-28.91-19.48-37.29-25.39-17.21-12.13-38.78-27.94-51-32.11a55.54,55.54,0,0,1-10.36-4.66c-4-2.3-5.32-5.85-9.59-7a12.59,12.59,0,0,0-5.18-.25"/>
        <path class="cls-4" d="M640,285l16.83-11.66"/>
        <path class="cls-4" d="M618,308.31l-3.49,3.25"/>
      </g>
      <path class="cls-1" d="M668.73,309.34c-20.33-14.5-97.39-75.75-101.27-78.73C489.76,170.78,385.25,78,372.5,71.81c-1.39-.68-9,4.56-9,4.56-1.41.85-3.7,3.42-6.86,9.66,0,0-4.65,6.21,2.36,12.41C385.5,121.88,489.76,211.7,539.23,245.89c1.66,1.15,10.32,4.1,21.24,9.58,7,3.54,18.61,9.73,26,17.87,10.94,12.1,10.52,11.09,28.15,33.15,0,0,8.18,10.25,47.91,38.59.79.57,2.68,1.88,4.4,1.3,3-1,3.85-7.17,3.63-11.4-.33-6.2-2.93-7.62-3.63-13.46C666.16,315.26,669.67,310,668.73,309.34Z"/>
      <path class="cls-3" d="M355.53,104.36c-1.75-.31,5.16,7.43,7.51,13.21,1.11,2.73,3.82,5.18,9.2,10,0,0,8.58,7.65,16.31,16.06.92,1,2.41,2.66,2.2,4.66-.33,3.26-5,5.21-5.82,5.57-8,3.35-10.34,2.8-17.17-1.07"/>
      <path class="cls-2" d="M359.68,58.56c.19-.25,3.58-4.51,8-3.63,4.16.82,5.94,5.46,6.22,6.22.22.59,1.88,4.94-.26,8.15-1.16,1.74-2.34,1.51-5.57,3.5a32.92,32.92,0,0,0-7.64,6.86c-3.14,3.53-4.7,5.29-5.31,7.64-.76,3,.34,4-.13,9.46-.31,3.68-.48,5.65-1.68,6.21-1.53.71-3.33-1.54-9.32-6.34-6.45-5.16-8.5-5.85-8.68-8.16-.13-1.63,1.13-1.91,5.44-7.38,2.62-3.34,2.39-3.49,4.92-6.61a49.22,49.22,0,0,1,5.57-6.21c3.25-2.92,4.88-3.29,6.6-6.09C359,60.29,358.6,60,359.68,58.56Z"/>
      <path class="cls-2" d="M467.25,291.73c3.76,1.21,13.14,3.44,18.11,7.77,7.2,6.27,7.81,11.72,14.24,22,4.06,6.48,8.92,11.65,18.65,22,11.52,12.26,17.28,18.39,21,19.68,1.85.65,7.38,2.29,10.36,7.25a23.57,23.57,0,0,1,1.55,3.63c1.41,3.07,5.24,6.71,16.32,8.55"/>
      <path class="cls-2" d="M467.49,303.13c2.72.72,8.26,1.44,11.4,4.92a18.66,18.66,0,0,1,3.88,7c3.27,9.79,11.74,20.07,17.61,27.19a124.29,124.29,0,0,0,22.79,21c6.7,5,9.29,6.08,16.58,12.18,6.33,5.29,8.11,7.62,13,10.87A56.5,56.5,0,0,0,570.05,394"/>
      <path class="cls-2" d="M338.46,205.8c3.92,3,13.27,8.42,17.66,6.68,4.9-1.94,3.67-8,8.81-12.95s10.07-2.27,28.23-4.92c12.19-1.78,18.28-2.67,23.57-6,6.65-4.15,9-8.73,15-8.8,5-.06,10.15,3,10.1,5.44,0,1.42-1.8,2.43-9.07,5.69-8.26,3.71-12.4,5.57-14.5,6.22-8.46,2.62-15.59,3-23.83,3.37-11.35.55-14.36-.54-18.39,2.33-3.83,2.73-2.73,4.89-7.51,10.36-2.73,3.14-8.79,10.08-16.83,9.84-5.53-.17-11.82-4.16-14-6.45"/>
      <path class="cls-2" d="M343.88,116.18c-.12,2.46,22.59,26.89,22.34,31.55-.16,3.2-.27,4.93-1.16,7.12a33.62,33.62,0,0,1-2.2,4.15c-1.94,3.3-2.47,3.51-2.85,5.05-.15.58-.19,1,0,4.92s.26,4.17.26,4.92c0,3.5-2.14,7.07-3.39,9.14-5.47,9.05-13.23,10.17-17.33,19.09-3,6.54-2.09,13.2-1.56,17.09s1.17,8.49,4.41,12.43c4.07,5,10.12,6.28,14.24,7,20,3.5,29.56-.78,47.65,1,6.59.66,17,1.8,28.75,7.77,5.35,2.73,17.55,9.15,26.16,23.31,2.94,4.83,10,16.78,8.29,32.38-.62,5.77-1.77,16.44-10.62,23.57-1.64,1.31-12.84,10-24.6,4.66-7.92-3.61-13.58-12.44-12.44-21.24,1.26-9.62,10.05-14.54,13.21-16.32,11.56-6.47,23.57-2.92,26.21-2.07"/>
    </g>
    <path class="cls-5" d="M303.29,250.29l-21.87,63.48-4-8.13a.9.9,0,0,0-1.24-.43,1,1,0,0,0-.48.53,1,1,0,0,0,0,.71l5,10.16A.91.91,0,0,0,282,317l10.16-5a.93.93,0,1,0-.82-1.67l-8.13,4,21.88-63.48a.89.89,0,0,0-.59-1.2A.88.88,0,0,0,303.29,250.29Z"/>
    <g>
      <line class="cls-6" x1="306.05" y1="89.69" x2="307.3" y2="79.87"/>
      <line class="cls-6" x1="298.29" y1="89.42" x2="295.33" y2="78.73"/>
      <line class="cls-6" x1="319.95" y1="84.14" x2="313.44" y2="92.39"/>
      <line class="cls-6" x1="278.72" y1="104.69" x2="288.02" y2="105.08"/>
      <line class="cls-6" x1="280.81" y1="96.75" x2="291.74" y2="98.75"/>
      <line class="cls-6" x1="294.24" y1="93.64" x2="285.88" y2="87.02"/>
    </g>
  </g>
</svg>
